<?xml version="1.0" encoding="UTF-8"?>
<svg width="26px" height="26px" viewBox="0 0 26 26" version="1.1" xmlns="http://www.w3.org/2000/svg" xmlns:xlink="http://www.w3.org/1999/xlink">
    <title> Info page/Type/Time@3x</title>
    <g id="-Info-page/Type/Time" stroke="none" stroke-width="1" fill="none" fill-rule="evenodd">
        <circle id="Oval-4-Copy-6" fill="#9789E8" cx="13" cy="13" r="13"></circle>
        <g id="TimeFeatures/Clock/Fill" transform="translate(4.000000, 4.000000)" fill="#FFFFFF">
            <path d="M9.00031857,1.8 C12.9697005,1.8 16.2,5.03029954 16.2,9.00031857 C16.2,12.9703376 12.9697005,16.2 9.00031857,16.2 C5.03029954,16.2 1.8,12.9703376 1.8,9.00031857 C1.8,5.03029954 5.03029954,1.8 9.00031857,1.8 Z M8.76406708,4.92166718 C8.50029114,4.92166718 8.28621211,5.13574621 8.28621211,5.39952215 L8.28621211,9.93595859 L12.1536516,9.93595859 C12.4174275,9.93595859 12.6315066,9.72187956 12.6315066,9.45810362 C12.6315066,9.19432768 12.4174275,8.98024866 12.1536516,8.98024866 L9.24192204,8.98024866 L9.24192204,5.39952215 C9.24192204,5.13574621 9.02784302,4.92166718 8.76406708,4.92166718 Z" id="Clock"></path>
        </g>
    </g>
</svg>