<svg width="26" height="26" viewBox="0 0 26 26" fill="none" xmlns="http://www.w3.org/2000/svg">
<path d="M26 13C26 20.1797 20.1797 26 13 26C5.8203 26 0 20.1797 0 13C0 5.8203 5.8203 0 13 0C20.1797 0 26 5.8203 26 13Z" fill="#F8D447"/>
<path d="M18.9766 16.5703L18.4141 18.9375C18.3438 19.2891 18.0625 19.5234 17.7109 19.5234C11.8047 19.5 7 14.6953 7 8.78906C7 8.4375 7.21094 8.15625 7.5625 8.08594L9.92969 7.52344C10.2578 7.45312 10.6094 7.64062 10.75 7.94531L11.8516 10.5C11.9688 10.8047 11.8984 11.1562 11.6406 11.3438L10.375 12.375C11.1719 13.9922 12.4844 15.3047 14.125 16.1016L15.1562 14.8359C15.3438 14.6016 15.6953 14.5078 16 14.625L18.5547 15.7266C18.8594 15.8906 19.0469 16.2422 18.9766 16.5703Z" fill="white"/>
</svg>
