<?xml version="1.0" encoding="UTF-8"?>
<svg width="26px" height="26px" viewBox="0 0 26 26" version="1.1" xmlns="http://www.w3.org/2000/svg" xmlns:xlink="http://www.w3.org/1999/xlink">
    <title> Info page/Type/covid</title>
    <defs>
        <polygon id="path-1" points="0 0 18 0 18 3.52322719 0 3.52322719"></polygon>
    </defs>
    <g id="-Info-page/Type/covid" stroke="none" stroke-width="1" fill="none" fill-rule="evenodd">
        <circle id="Oval-4-Copy-6" fill="#64E1A5" cx="13" cy="13" r="13"></circle>
        <g id="Group-12" transform="translate(4.000000, 4.000000)">
            <path d="M14.9213769,9.05856134 C14.9213769,12.3288814 12.2703233,14.9799031 8.99996397,14.9799031 C5.7297848,14.9799031 3.07855107,12.3288814 3.07855107,9.05856134 C3.07855107,5.7882413 5.7297848,3.13721954 8.99996397,3.13721954 C12.2703233,3.13721954 14.9213769,5.7882413 14.9213769,9.05856134" id="Fill-1" fill="#FFFFFF"></path>
            <path d="M10.1311246,18 L7.86880334,18 C7.52060149,18 7.23832922,17.7177311 7.23832922,17.3695335 C7.23832922,17.0213358 7.52060149,16.7390669 7.86880334,16.7390669 L8.36957992,16.7390669 L8.36957992,1.26093309 L7.86880334,1.26093309 C7.52060149,1.26093309 7.23832922,0.978664212 7.23832922,0.630466545 C7.23832922,0.282449012 7.52060149,0 7.86880334,0 L10.1311246,0 C10.4793265,0 10.7615987,0.282449012 10.7615987,0.630466545 C10.7615987,0.978664212 10.4793265,1.26093309 10.1311246,1.26093309 L9.63052816,1.26093309 L9.63052816,16.7390669 L10.1311246,16.7390669 C10.4793265,16.7390669 10.7615987,17.0213358 10.7615987,17.3695335 C10.7615987,17.7177311 10.4793265,18 10.1311246,18" id="Fill-3" fill="#FFFFFF"></path>
            <path d="M14.118297,16.3485379 C13.9568956,16.3485379 13.7954942,16.2869323 13.6724617,16.1639013 C13.4262165,15.9176591 13.4262165,15.5184837 13.6724617,15.2722415 L14.026608,14.9182795 L3.08175748,3.97356043 L2.7277913,4.3277025 C2.48154612,4.57394472 2.08236594,4.57394472 1.83612076,4.3277025 C1.58987559,4.08146028 1.58987559,3.68228489 1.83612076,3.43604267 L3.4359038,1.83645898 C3.68214898,1.59003663 4.08132916,1.59003663 4.32757434,1.83645898 C4.57381951,2.08252107 4.57381951,2.48187659 4.32757434,2.72793867 L3.97360815,3.08208074 L14.9180984,14.0264396 L15.2722447,13.6726578 C15.5184899,13.4262354 15.9176701,13.4262354 16.1639153,13.6726578 C16.4101604,13.9187199 16.4101604,14.3180754 16.1639153,14.5641375 L15.3648344,15.3632088 C15.3644741,15.3633889 15.3642939,15.3637492 15.3641138,15.3639293 C15.3637535,15.3642896 15.3633933,15.3644697 15.3632131,15.36483 L14.5641322,16.1639013 C14.4410997,16.2869323 14.2796983,16.3485379 14.118297,16.3485379" id="Fill-5" fill="#FFFFFF"></path>
            <g id="Group-9" transform="translate(0.000000, 7.238368)">
                <mask id="mask-2" fill="white">
                    <use xlink:href="#path-1"></use>
                </mask>
                <g id="Clip-8"></g>
                <path d="M17.3695259,3.52322719 C17.021324,3.52322719 16.7390518,3.24095831 16.7390518,2.89276064 L16.7390518,2.39217021 L1.26091221,2.39217021 L1.26091221,2.89276064 C1.26091221,3.24095831 0.978639937,3.52322719 0.630438089,3.52322719 C0.282236242,3.52322719 -3.60270925e-05,3.24095831 -3.60270925e-05,2.89276064 L-3.60270925e-05,0.630466545 C-3.60270925e-05,0.282449012 0.282236242,0 0.630438089,0 C0.978639937,0 1.26091221,0.282449012 1.26091221,0.630466545 L1.26091221,1.13123712 L16.7390518,1.13123712 L16.7390518,0.630466545 C16.7390518,0.282449012 17.021324,0 17.3695259,0 C17.7177277,0 18,0.282449012 18,0.630466545 L18,2.89276064 C18,3.24095831 17.7177277,3.52322719 17.3695259,3.52322719" id="Fill-7" fill="#FFFFFF" mask="url(#mask-2)"></path>
            </g>
            <path d="M3.88170304,16.3485379 C3.72030167,16.3485379 3.55890029,16.2869323 3.43586777,16.1639013 L1.83608474,14.5641375 C1.58983956,14.3180754 1.58983956,13.9187199 1.83608474,13.6726578 C2.08232991,13.4262354 2.4815101,13.4262354 2.72775527,13.6726578 L3.08172145,14.0264396 L14.026572,3.08208074 L13.6724257,2.72793867 C13.4261805,2.48187659 13.4261805,2.08252107 13.6724257,1.83645898 C13.9186708,1.59003663 14.317851,1.59003663 14.5640962,1.83645898 L16.1638792,3.43604267 C16.4101244,3.68228489 16.4101244,4.08146028 16.1638792,4.3277025 C15.9176341,4.57394472 15.5184539,4.57394472 15.2722087,4.3277025 L14.9182425,3.97374057 L3.97339199,14.9182795 L4.32753831,15.2722415 C4.57378349,15.5184837 4.57378349,15.9176591 4.32753831,16.1639013 C4.20450579,16.2869323 4.04310441,16.3485379 3.88170304,16.3485379" id="Fill-10" fill="#FFFFFF"></path>
        </g>
    </g>
</svg>