<svg id="Layer_1" data-name="Layer 1" xmlns="http://www.w3.org/2000/svg" viewBox="0 0 150 150"><defs><style>.cls-1{fill:#aeb0b7;}.cls-2{fill:#b0b2b9;}.cls-3{fill:#1e2337;}.cls-4{fill:#fefefe;}.cls-5{fill:#bdbec4;}.cls-6{fill:#a9b0b3;}.cls-7{fill:#fdfdfd;}.cls-8{fill:#c0c0c8;}.cls-9{fill:#fbfcfc;}.cls-10{fill:#a9afb2;}.cls-11{fill:#bfc0c8;}.cls-12{fill:#bfbfc7;}.cls-13{fill:#a8afb2;}.cls-14{fill:#bebec6;}.cls-15{fill:#7f8487;}.cls-16{fill:#bcbcc4;}.cls-17{fill:#bdbdc5;}.cls-18{fill:#bbbcc4;}.cls-19{fill:#494c5d;}.cls-20{fill:#4c5061;}.cls-21{fill:#3d4153;}.cls-22{fill:#33374a;}.cls-23{fill:#383d4e;}.cls-24{fill:#444859;}.cls-25{fill:#373b4d;}.cls-26{fill:#404455;}.cls-27{fill:#424557;}.cls-28{fill:#ee2f16;}</style></defs><g id="LYgZZ2.tif"><path class="cls-1" d="M147.21,79.61l-.18,0h-.17a1.69,1.69,0,0,1-.54-1.29c-.1-2.29-.1-4.59,0-6.88a1.69,1.69,0,0,1,.54-1.29,1.37,1.37,0,0,1,.35,0Z"/><path class="cls-2" d="M79.66,146.83c0,.11,0,.23,0,.34H70.2c0-.11,0-.23,0-.34a1.7,1.7,0,0,1,1.3-.55q3.44-.14,6.87,0A1.72,1.72,0,0,1,79.66,146.83Z"/><path class="cls-3" d="M79.66,146.83H70.19c-32.45-2.66-58.43-24.85-65.57-56-9.34-40.7,18.22-81,59.57-87.22a72,72,0,0,1,82.32,63.1c.13,1.14.24,2.28.35,3.43v9.46C143.94,116.29,116.42,143.81,79.66,146.83Z"/><path class="cls-4" d="M142.66,74.69a68,68,0,1,1-68-68.11A68,68,0,0,1,142.66,74.69Z"/><path class="cls-3" d="M50.25,109A6.36,6.36,0,0,0,46,107.81c-8.42.06-16.83,0-25.24.06-1.6,0-1.72-.33-.95-1.66,3.68-6.39,7.27-12.84,11-19.23A3.16,3.16,0,0,0,31,83.65,29.66,29.66,0,0,1,29,78c-.16-.64-.23-1.25.37-1.62s1.11.15,1.51.6c1,1.15,2,2.31,3.19,3.4a40.42,40.42,0,0,1-1.75-13.62,3,3,0,0,0-.67-1.65q-6.16-10.8-12.35-21.58c-.24-.41-.46-.84-.7-1.28.63-.52,1.32-.27,1.95-.27,7.92,0,15.85,0,23.78,0,1.3,0,2.37,0,2.85-1.52a1,1,0,0,1,1.26-.79.94.94,0,0,1,.66,1c0,.65-.17,1.36.92,1.33s1.68,0,2.12-1.15a48,48,0,0,1,4.23-8.22c.45-.71,1-1.39,1.44-2.09.33-.47.75-.89,1.35-.66s.7.9.56,1.54a29.14,29.14,0,0,0-.91,6L75.18,8.59c5.55,9.59,11,19,16.42,28.36l.28-.1c-.36-1.65-.71-3.3-1.09-4.94-.17-.72-.49-1.53.32-2,1-.52,1.38.46,1.8,1.06a48.41,48.41,0,0,1,5.28,9.69c.36.88.77,1.41,1.84,1.31.72-.07,1.15-.16,1-1-.08-.54-.06-1.16.65-1.3a1,1,0,0,1,1.26.79c.43,1.51,1.55,1.53,2.84,1.52,8.52,0,17.05,0,25.59,0,.27.85-.35,1.31-.65,1.84q-6,10.49-12,20.94a4.58,4.58,0,0,0-.66,2.71,34.22,34.22,0,0,1-1.24,10.59,3.84,3.84,0,0,0-.27,2.23c1.14-1.28,2.08-2.35,3-3.4.37-.41.78-.85,1.39-.5a1.12,1.12,0,0,1,.42,1.44A51.08,51.08,0,0,1,119.66,83a3,3,0,0,0,.26,3c3.92,6.67,7.78,13.39,11.65,20.09,1,1.76,1,1.77-.95,1.77-8.78,0-17.55.07-26.33-.06-2.1,0-3.61,1-5.59,1.8,1.52.31,2.75-.06,4.38,0-3.65,3.41-7.29,5.63-12.31,4.06.87,1.05,2.06,1.16,3.12,1.5s2.33.61,3.85,1a14.64,14.64,0,0,1-8.3,2.23,1.94,1.94,0,0,0-2.11,1.19q-5.55,9.78-11.18,19.53c-.29.52-.61,1-.93,1.56A3.84,3.84,0,0,1,74,139c-3.65-6.35-7.32-12.68-10.91-19.06a2.48,2.48,0,0,0-2.63-1.57,14.36,14.36,0,0,1-7.81-2.22c2.38-.7,4.56-1,6.45-2.38a5.38,5.38,0,0,0-1.27,0c-4.22,1.07-7.15-1.26-10-3.76a.31.31,0,0,1,.12-.56,6.76,6.76,0,0,0,2.84,0c.35.2.29-.21.18,0,0,0-.06,0-.16,0A1,1,0,0,1,50.25,109Z"/><path class="cls-5" d="M50.25,109a2.72,2.72,0,0,1,1.74.74,9.92,9.92,0,0,1-4-.28C48.69,109.09,49.62,109.8,50.25,109Z"/><path class="cls-4" d="M95.25,73.84c.45.71.84,1.47,1.36,2.14,1.36,1.73,2.32,3.34,0,5.16-.8.64.43,4.45,1.5,4.62,2.5.4,3,1.89,2.72,4.08a4.16,4.16,0,0,0,0,1.27c.2,1.37-.3,2-1.7,2.41a3.73,3.73,0,0,0-1.8,6c.88,1,1,1.79.13,2.8a5.34,5.34,0,0,0-.88,1.37c-.81,1.82-2,2.64-3.94,1.59a1,1,0,0,0-1.34,0,25.74,25.74,0,0,1-4,3.16c-.91.62-.39,1.57-.34,2.35.07,1.13-.2,1.85-1.39,2.1a4.75,4.75,0,0,0-1.37.48c-1.94,1.07-3.6,1.19-4.66-1.19-.26-.58-.77-.65-1.37-.59a10.64,10.64,0,0,1-3.07.14c-2.17-.41-3.9-.1-4.9,2.09-.05.1-.14.24-.24.27-1.91.45-3.34-1-5.06-1.32-.83-.17-.91-.75-.94-1.49,0-.94.63-2.14-.15-2.78-1.39-1.15-2.77-2.35-4.25-3.38-.65-.44-1.6.31-2.39.54s-1.51.18-1.94-.72a7.13,7.13,0,0,0-1.08-1.67c-1.46-1.6-1.56-3,.16-4.57,1.16-1-.1-4.83-1.68-5.11-1.85-.34-2.61-1.22-2.27-3.07a3.61,3.61,0,0,0,0-1.27c-.31-1.86.33-2.88,2.29-3.28,1.77-.37,2.77-3.84,1.46-5.07-1.47-1.38-1.65-2.64-.27-4.11a2.89,2.89,0,0,0,.59-.92c.77-1.94,2.1-2.48,4-1.58a1.66,1.66,0,0,0,2.21-.59,3.58,3.58,0,0,1,1-.82c1.79-1,2.74-2.29,2.33-4.5-.31-1.73,1.42-1.64,2.36-1.83,1.19-.24.64,1,.77,1.57.74,3.07.32,5.25-2.84,7.36C57.63,80,55.41,88.79,58.2,96.25a18.63,18.63,0,0,0,35.45-1.76,18.21,18.21,0,0,0-8.22-20.22c-1.46-.87-2-1.68-1.57-3.27.24-1,.15-2.06.35-3.06.09-.49-.31-1.48.64-1.37a2.66,2.66,0,0,1,2.2,1.05.75.75,0,0,1,.06.53c-.81,2.73,1.06,3.86,3,5C91.65,74.47,93.57,73.24,95.25,73.84Z"/><path class="cls-6" d="M75.7,63.64c2,0,4.12.11,6.17,0,1.59-.11,1.92.46,1.75,1.94-.81,7-1.52,14.06-2.3,21.09-.54,4.93-1.18,9.84-1.65,14.78-.13,1.28-.55,1.88-1.84,1.86a9.83,9.83,0,0,0-1.07.15c-4.08.37-4.94-.31-5.38-4.28q-1.83-16.49-3.64-33c-.28-2.53-.28-2.53,2.33-2.53Z"/><path class="cls-7" d="M63.27,55.66a15.08,15.08,0,0,1-1.65-4A6,6,0,0,1,62,47.4c1.16-2.33,1.7-2.44,3.54-.75.42.4.9,1.13,1.49.78.76-.45.18-1.2-.07-1.76A21.57,21.57,0,0,1,65,40a8,8,0,0,1,2.22-6.93,20,20,0,0,0,4.71,7c.34-2,.58-3.84,1-5.63.75-3.32,2.42-5.9,5.93-6.9,1.32-.38,1.82-.23,1.37,1.29-1.78,6.1-1.34,12.2.21,18.27.07.28,0,.62.55.81,1.45-2.52,3-5,4.61-7.47.87-1.28,1.3-1,1.88.15,2.45,4.89,3.08,9.88.94,15-.59.84-1.24,1-2,.18a2.8,2.8,0,0,1,.35-2.08c1.26-3.41.74-6.73-.4-10.34-1.92,2.49-3,5.1-4.49,7.5-.43.71-.66,1.87-1.58,1.81s-1-1.25-1.22-2a62,62,0,0,1-2.36-12.81c-.2-2.29.5-4.53.65-7.06a5.88,5.88,0,0,0-2,3.27,22,22,0,0,0-1,7.68c0,.92.39,2.21-.64,2.64s-1.53-.88-2.2-1.5c-1.5-1.39-2.63-3.11-4.23-4.71-.35,2.13.6,3.73,1.17,5.4.29.85.76,1.64,1,2.53A2.63,2.63,0,0,1,68.47,49a2.55,2.55,0,0,1-3,.27c-.45-.23-.89-.87-1.44-.4s-.34,1.12-.28,1.72a12.59,12.59,0,0,0,1,3.1,3.54,3.54,0,0,1,.56,2.06C64.54,56.7,63.89,56.4,63.27,55.66Z"/><path class="cls-8" d="M92.24,31.94c6.33,10.2,10.16,20.78,8.76,32.8a20.55,20.55,0,0,0-5.93-7,1.28,1.28,0,0,1-.51-1.26c.63-8.16-.64-16.13-2.44-24.05C92.1,32.39,92.14,32.32,92.24,31.94Z"/><path class="cls-8" d="M49.17,64.65c-1-11.81,2.55-22.33,9.06-32.07q-.61,3.14-1.21,6.26a66.51,66.51,0,0,0-1.18,17.3A1.88,1.88,0,0,1,55.05,58a12.56,12.56,0,0,0-2.71,2.64C52,62,50.93,63.09,50.27,64.35,50.07,64.73,49.71,65.17,49.17,64.65Z"/><path class="cls-9" d="M92.48,88.43c0,9.41-5.55,16.39-13.17,18A17,17,0,0,1,65.55,76.09a13.3,13.3,0,0,1,1.38-.87c.28-.16.63-.53.88,0a.9.9,0,0,1,0,1,8.33,8.33,0,0,1-1.17.85,15.55,15.55,0,1,0,18,.18,5.5,5.5,0,0,0-.75-.51.93.93,0,0,1-.42-1.38c.5-.77,1,0,1.32.26C89.78,79.07,92.35,83.82,92.48,88.43Z"/><path class="cls-8" d="M44.72,73c-1,0-.8-1-.95-1.47-1.8-6.23-1.29-12.46.15-18.66A33.32,33.32,0,0,1,47.75,42.8c-.11,1.46-.23,2.92-.32,4.38a105.13,105.13,0,0,0,.8,17.74c.22,2-1.11,2.74-1.71,4.07A11.89,11.89,0,0,1,44.72,73Z"/><path class="cls-8" d="M103.32,68.25c-1.17-1.09-1.11-2.39-1-3.91.3-6.2.94-12.41.34-18.63a10.85,10.85,0,0,1,0-2.9c4.11,9.59,6.52,19.38,3.46,29.84-.71.54-1-.07-1.13-.53C104.57,70.77,103.71,69.61,103.32,68.25Z"/><path class="cls-8" d="M52.83,61.13c3-2.43,3.06-2.43,3.8,1.25a54.6,54.6,0,0,0,3,9.86c.29.7.53,1.77-.72,1.23-2.9-1.26-4.34.13-5.46,2.51a5.33,5.33,0,0,1-.67.83A44.64,44.64,0,0,1,49.61,66.7c-.08-.37.18-.8.28-1.21A7.34,7.34,0,0,1,52.83,61.13Z"/><path class="cls-10" d="M63.27,55.66c.63.36,1.27.67,1.94.08a2.81,2.81,0,0,1,1.58-.3H85a2.44,2.44,0,0,1,1.4.28c.67.62,1.3.31,1.92-.09-.63,1.29-1.23,2.59-1.91,3.85-.4.73-1.18.75-1.92.75-5.73,0-11.45,0-17.18,0a2.38,2.38,0,0,1-2.63-1.71C64.37,57.51,63.44,56.77,63.27,55.66Z"/><path class="cls-8" d="M90.87,72a44.86,44.86,0,0,0,3.25-11.65c.18-1.22.61-1.28,1.47-.67,3.6,2.52,6,5.87,4.37,10.77A32.65,32.65,0,0,1,98,76c-1.66-.56-1.2-3.7-3.8-2.86a2.45,2.45,0,0,1-2.78.54C90.68,73.35,90.58,72.68,90.87,72Z"/><path class="cls-11" d="M108.4,83.9c2.64-5.28,4.87-10.78,8.63-15.81-.26,8.8-2.48,16.51-8.74,22.69-.68-.72-.77-.76-.34-1.81A9.64,9.64,0,0,0,108.4,83.9Z"/><path class="cls-8" d="M41.87,90.51c-6-6.12-8.23-13.69-8.14-22.18,1.75,3,3.65,5.81,5.18,8.87.93,1.87,1.48,4,2.64,5.72a2,2,0,0,1,.25,1.7A35.43,35.43,0,0,0,42.4,89C42.54,89.56,42.85,90.28,41.87,90.51Z"/><path class="cls-8" d="M47,69.48c.53-.37.79-1.07,1.74-1.31.4,3.79,2.68,7,3,10.82,0,.58.69,1.11,1.08,1.64s1,1,1,1.7c-.12,1-.05,2.22-1.05,2.73-1.16.59-1.52-.69-2-1.31a54.64,54.64,0,0,1-5.06-7.52,3.4,3.4,0,0,1-.48-2.75C45.38,72,45.62,70.46,47,69.48Z"/><path class="cls-12" d="M106.51,75.64c.21-2.42,1.18-4.65,1.8-7,1-3.78,2.43-7.45,3.71-11.28,1.16,5.76-.52,20.09-3.88,24.19L108,80A36.92,36.92,0,0,1,106.51,75.64Z"/><path class="cls-12" d="M41.88,81.4c-3.62-7.54-4-15.57-3.41-23.78,1.09,3.27,2.36,6.5,3.21,9.83a46.71,46.71,0,0,0,2,7.32,1.64,1.64,0,0,1,0,1.23c-.39,1.42-.58,2.89-1,4.31C42.59,80.77,42.69,81.45,41.88,81.4Z"/><path class="cls-12" d="M42.5,98.07a23.27,23.27,0,0,1-5.94-6.49,42.73,42.73,0,0,1-4.1-7.44,35.8,35.8,0,0,1-2.19-6.06c2.21,2.68,4.57,4.62,6.17,7.21a25.78,25.78,0,0,0,4.79,6.09c1.1,1,1.92,1.9,1.34,3.45-.34.57,0,1.1.08,1.65S43.11,97.6,42.5,98.07Z"/><path class="cls-12" d="M105.37,73.89c-.62,2.58-4.81,9.11-7.11,11-.77-1.67-1.56-3.25.26-4.79a1.49,1.49,0,0,0,.42-2.21c-.32-.44,0-.93.15-1.38a46.1,46.1,0,0,0,2.35-7.4c.25-1.24.71-1,1.37-.39C104.74,69.94,105.05,71.92,105.37,73.89Z"/><path class="cls-12" d="M108,94.5c-.72-.91-.44-1.62.38-2.32A28.46,28.46,0,0,0,114.15,85c1.34-2.23,3.44-3.81,5.14-6,.52,3.6-6,14.76-10.56,18.44-.71.08-.51-.47-.56-.83C108.07,95.9,108.36,95.18,108,94.5Z"/><path class="cls-12" d="M42.24,85.07c.47-.68.79-.22,1.12.14a24.54,24.54,0,0,0,5.29,4.35,2.07,2.07,0,0,1,.87,2.34c-.11,1.14.22,1.92,1.43,2,2.48.23,2.75,2,3,4.2a12.59,12.59,0,0,1-3.81-1.74c-2.45-1.48-5.2-2.59-6.84-5.15C42.24,89.31,41.36,87.34,42.24,85.07Z"/><path class="cls-12" d="M107.32,90.56a4.76,4.76,0,0,1-2,2.68,44.27,44.27,0,0,1-8,4.61c.28-2,.61-3.59,2.88-3.83a1.61,1.61,0,0,0,1.55-2.15,3.08,3.08,0,0,1,1.76-3.55c1.68-.94,2.71-2.7,4.43-3.6a1.71,1.71,0,0,1,.72,1.87C108.34,88,108.23,89.39,107.32,90.56Z"/><path class="cls-12" d="M42.92,95.93c.31-2.64.77-2.47,2.45-1.16a35.09,35.09,0,0,0,6.37,3.76c.37.19,1.28.44.89.85-1.52,1.57-.05,2.69.62,4.3a30.16,30.16,0,0,1-9.9-4.83C43.05,97.9,42.2,97,42.92,95.93Z"/><path class="cls-13" d="M75.6,127.66a9.57,9.57,0,0,1-.93-3.71c-.55-3.28-1-6.58-1.47-9.86-.16-1.06,0-1.5,1.26-1.49,3.8,0,3.82,0,3.31,3.63-.45,3.17-.94,6.34-1.45,9.5A3.1,3.1,0,0,1,75.6,127.66Z"/><path class="cls-14" d="M97.88,103.44c.9-1.6,2-2.72.52-4-.5-.43,0-.72.39-.91a48,48,0,0,0,7.28-4.39c.62-.47.8-.09,1,.39a4.34,4.34,0,0,1-1.56,5.49A32.76,32.76,0,0,1,97.88,103.44Z"/><path class="cls-12" d="M44,76.68c.73-.4.77.32,1,.66a56.35,56.35,0,0,0,5.08,7.46c.4.5.82.86-.08,1.34s-.14,1.6-.68,2.47a24.32,24.32,0,0,1-6.36-5.73A6.8,6.8,0,0,1,44,76.68Z"/><path class="cls-12" d="M107.56,82.59c-1.32,2.33-3.44,3.81-5.71,5.57,0-1.35-.24-2.26-1.48-2.53-.44-.09-.52-.46-.21-.83a88.34,88.34,0,0,0,5.68-8.4c0-.06.22-.05.33-.07a3.5,3.5,0,0,1,1.35,3.44A8.6,8.6,0,0,0,107.56,82.59Z"/><path class="cls-15" d="M75.66,61.07h7.78c.75,0,1.58,0,1.54,1s-.82.88-1.49.88c-5.31,0-10.62,0-15.93,0-.65,0-1.49.13-1.53-.82,0-1.13.85-1.1,1.66-1.09Z"/><path class="cls-14" d="M46.31,104a36.53,36.53,0,0,0,6,.63c.88,0,1.95.08,2.39,1,.65,1.33,1.56,1.26,2.69.86a10.69,10.69,0,0,1,1.57-.42.82.82,0,0,1,1,.55c.1.42-.41.5-.73.65C54.37,109.63,49.85,108.55,46.31,104Z"/><path class="cls-12" d="M103.89,104.09c-2.41,4.1-8.52,5.69-12.41,3.35-.94-.57-.21-.85.12-1.14.55-.48,1.15-.14,1.71,0,1.33.45,2.54.72,3.26-1a1.5,1.5,0,0,1,1.55-.72A34.45,34.45,0,0,0,103.89,104.09Z"/><path class="cls-16" d="M51.86,111.13a24,24,0,0,0,9.92-2.31c.56-.25,1.11-.27,1.37.35a1.24,1.24,0,0,1-.38,1.61C60,113,54.82,113.28,51.86,111.13Z"/><path class="cls-17" d="M98.45,111.16a9.23,9.23,0,0,1-10.11-.06,1.48,1.48,0,0,1-.5-1.63c.13-.6.63-.71,1.14-.48A25.43,25.43,0,0,0,98.45,111.16Z"/><path class="cls-18" d="M66.69,114.32c-3,2.53-5.93,3.48-9.75,2.15a43.66,43.66,0,0,0,6.58-2.88C64.53,113,65.41,114,66.69,114.32Z"/><path class="cls-18" d="M84,114.56c1.48-.91,2.69-1.29,4.25-.29a34.67,34.67,0,0,0,5,2.19C90,117.75,87.5,117.23,84,114.56Z"/><path class="cls-19" d="M42.24,85.07c-.35,2.18.63,4.13,1.08,6.17-.61,0-1.21,0-1.45-.73.81-.57.1-1.17,0-1.73-.28-1.39-.79-2.76-.06-4.16Z"/><path class="cls-20" d="M107.32,90.56c.31-1.94,1.49-3.78.63-5.84.36-.16.35-.52.45-.82,1,1.53.66,3.1.22,4.71-.19.69-.91,1.35-.33,2.17C107.74,91.73,107.64,90.67,107.32,90.56Z"/><path class="cls-21" d="M44,76.68a17,17,0,0,0-1.07,6.2L41.88,81.4c.75-1.06.42-2.39.88-3.52.26-.65.34-1.4.93-1.88Z"/><path class="cls-22" d="M105.37,73.89a20.45,20.45,0,0,0-2.56-5.12l.51-.52a7.88,7.88,0,0,1,2,3.49c.15.38,0,1.06.79.91C106.28,73.31,105.58,73.45,105.37,73.89Z"/><path class="cls-23" d="M90.87,72c0,1.31.74,1.65,1.91,1.35.46-.11.94-.16,1.4-.24l1.07.75a9.53,9.53,0,0,0-2.08.36,2.25,2.25,0,0,1-3.1-1.06C90.63,73,90.4,72.23,90.87,72Z"/><path class="cls-24" d="M107.56,82.59c-.38-2.1-.24-4.32-1.39-6.26.3-.14.32-.42.34-.69A6.06,6.06,0,0,1,108,80C107.32,80.78,107.87,81.75,107.56,82.59Z"/><path class="cls-25" d="M52.83,61.13l-2.94,4.36c-.16-.34-1-.11-.72-.84,1.17-.31,1-1.58,1.71-2.28.51-.55.76-1.33,1.46-1.74Z"/><path class="cls-26" d="M47,69.48l-1.84,4L44.72,73A8.32,8.32,0,0,1,46.52,69Z"/><path class="cls-27" d="M42.92,95.93l.43,2.92-.85-.78c-.11-1.08-.54-2.17.07-3.24C42.69,95.19,42.54,95.65,42.92,95.93Z"/><path class="cls-14" d="M108,94.5c.88.82-.17,2.13.75,2.93-.29.33-.67,1-.74-.09S108,95.45,108,94.5Z"/><path class="cls-28" d="M86.43,55.72a2,2,0,0,1-1.53.38H66.75a2.21,2.21,0,0,1-1.54-.36c-.57-1.27-1.2-2.51-1.7-3.8a4.63,4.63,0,0,1-.21-3.2c.28-.84.56-1.29,1.45-.46s2.14,1.52,3.42.58,1-2.33.48-3.61a23.49,23.49,0,0,1-1.91-5.07,6.54,6.54,0,0,1,.15-3.39A72.69,72.69,0,0,0,73.6,44.5c.54-5.27-.46-10.79,4.24-14.61a39,39,0,0,0-.33,11.41A69.57,69.57,0,0,0,80.2,52.87c2.08-3.58,3.7-7.15,6.22-10.51C88.2,47,88.6,51.36,86.43,55.72Z"/></g></svg>