<?xml version="1.0" encoding="UTF-8"?>
<svg width="25px" height="25px" viewBox="0 0 25 25" version="1.1" xmlns="http://www.w3.org/2000/svg" xmlns:xlink="http://www.w3.org/1999/xlink">
    <title>icon</title>
    <g id="2022" stroke="none" stroke-width="1" fill="none" fill-rule="evenodd">
        <g id="OpenbaseComplete" transform="translate(-327.000000, -463.000000)">
            <g id="Group-7" transform="translate(-10.000000, 63.000000)">
                <g id="Directions" transform="translate(49.250000, 400.500000)">
                    <g id="-Info-page/Type/Time-Copy" transform="translate(288.500000, 0.000000)">
                        <circle id="Oval-4-Copy-6" fill="#3BB5F2" cx="12" cy="12" r="12"></circle>
                        <g id="18X18/LocationFill" transform="translate(5.000000, 5.000000)" fill="#FFFFFF">
                            <path d="M7.07777433,2.86999807 C8.34897347,2.86999807 9.37983945,3.91486404 9.37983945,5.20332984 C9.37983945,6.49179564 8.34897347,7.5366616 7.07777433,7.5366616 C5.80657518,7.5366616 4.77570921,6.49179564 4.77570921,5.20332984 C4.77570921,3.91486404 5.80657518,2.86999807 7.07777433,2.86999807 L7.07777433,2.86999807 Z M11.5643046,7.73406147 L11.5615047,7.73406147 C11.9740377,6.98459531 12.2111042,6.12219589 12.2111042,5.20332984 C12.2111042,2.32959843 9.91277242,0 7.07777433,0 C4.24277623,0 1.94444444,2.32959843 1.94444444,5.20332984 C1.94444444,6.12219589 2.18151095,6.98459531 2.59404401,7.73406147 L2.59124401,7.73406147 L2.70137727,7.91232802 C2.74664391,7.98792797 2.79051054,8.06539458 2.83997718,8.1386612 L6.14397496,13.5095243 C6.54250802,14.1572572 7.4693074,14.1647238 7.87764046,13.5235242 L11.2511715,8.22546114 C11.3463715,8.09106123 11.4345714,7.95199466 11.5171713,7.80826142 L11.5643046,7.73406147 Z" id="Fill-1"></path>
                        </g>
                    </g>
                </g>
            </g>
        </g>
    </g>
</svg>