<svg id="Layer_1" data-name="Layer 1" xmlns="http://www.w3.org/2000/svg" viewBox="0 0 150 150"><defs><style>.cls-1{fill:#007ac1;}.cls-2{fill:#20204a;}.cls-3{fill:#9d9d9c;}.cls-4{fill:#fdfcfc;}.cls-5{fill:#21214b;}.cls-6{fill:#21214c;}.cls-7{fill:#636376;}.cls-8{fill:#007ac2;}.cls-9{fill:#fefefe;}.cls-10{fill:#833f0f;}.cls-11{fill:#843f0f;}.cls-12{fill:#221f22;}.cls-13{fill:#fdfdfe;}.cls-14{fill:#221f21;}.cls-15{fill:#231f22;}.cls-16{fill:#c91b2c;}</style></defs><g id="f09Eeq.tif"><path class="cls-1" d="M81.34,2.74c4,1,8.14,1.4,12.16,2.45A71,71,0,0,1,121.33,19.6a70.4,70.4,0,0,1,19.73,26.19,71.25,71.25,0,0,1,4.3,45.65,70.09,70.09,0,0,1-21.61,36.94,70.49,70.49,0,0,1-47.82,18.87,70.13,70.13,0,0,1-46.5-16.13C15.08,119.44,6.53,104.28,3.54,86c-.19-1.13,0-2.39-.83-3.36V67.76a68.14,68.14,0,0,1,3-15.29A72.84,72.84,0,0,1,62.1,3.36c1.73-.31,3.52,0,5.21-.62Z"/><path class="cls-2" d="M75,143.84a68.79,68.79,0,1,1,68.78-68.61C143.8,113,112.86,143.85,75,143.84Z"/><path class="cls-3" d="M74.86,139.3a64.27,64.27,0,1,1,64.35-63.88A64.2,64.2,0,0,1,74.86,139.3Z"/><path class="cls-2" d="M117,63.89c1.28-3.21,2.57-6.41,4-10,2.15,3,3.63,6.07,5.36,9a6.7,6.7,0,0,1,.18,6.77c-1.39,2.94-2.71,5.91-4.28,8.77s-3.14,5.62-4.88,8.37c4.25-3.46,7.28-8,11-12.43a15.91,15.91,0,0,1,.41,2,100,100,0,0,1-.31,15.48A8.41,8.41,0,0,1,126.33,96a63.62,63.62,0,0,1-12.72,12.72c-.2.15-.36.34-.9.84,3.93-1.1,7.06-2.91,10.48-4.12-5.67,14.57-21.75,29.74-42.91,31.51-26.4,2.22-45.18-12.7-53.69-31.5,3.61,1.07,6.71,3.12,10.82,4.09A75.4,75.4,0,0,1,25.17,97.94c-2.36-2.79-3.9-5.68-4-9.49a126,126,0,0,1,.31-14.15c3.87,4.55,7.09,9.11,11.39,12.77-1-1.57-1.95-3.13-2.9-4.71a86.76,86.76,0,0,1-7.28-14.83,3,3,0,0,1,0-2.41A90.92,90.92,0,0,1,29,53.85c1.73,3.82,2.75,7.61,4.71,11a113.1,113.1,0,0,1-1.34-13.48,5.13,5.13,0,0,1,1.17-3.71A140.86,140.86,0,0,1,44.23,37l.64,12c1.13-2.27.76-4.42,1.08-6.44,1.25-7.72,1.19-7.74,7.83-11.71,2.66-1.59,5.35-3.14,8.55-5-4.14,14.42-5.71,28.49-1.53,42.81q1.48-4.29,3-8.56c1-2.93,2.2-5.82,3.1-8.8.52-1.75,1.38-2.53,3.24-2.49,3.54.08,7.08,0,10.62-.06,1.14,0,1.59.48,1.94,1.48,2.11,6.08,4.28,12.13,6.59,18.65a35.35,35.35,0,0,0,2.18-10.71c.22-3.6.09-7.22.1-10.83A49.68,49.68,0,0,0,90.29,36.8c-.74-3.5-1.59-7-2.46-10.77,5,2.74,9.68,5.4,14.14,8.46.81.55.82,1.44,1,2.25,1,4,1.21,8.22,1.91,12.32a82.17,82.17,0,0,0,.69-11.87,12.84,12.84,0,0,1,3.58,3c2.22,2.19,4.38,4.43,6.58,6.63a6.16,6.16,0,0,1,2,5.7c-.54,3.49-.79,7-1.16,10.54-.21.89,0,1.85-.41,2.39A4.33,4.33,0,0,1,117,63.89Z"/><path class="cls-4" d="M64.93,16.65l3.87,4a23.07,23.07,0,0,0,2.31-3.83c.66-1.82,1.45-1.37,2.34-.38a17.38,17.38,0,0,1,3,4.33c1.18,2.53,1.87,2.54,3.47.26A8.29,8.29,0,0,1,84,17.53c.84-.28,1.16-.14,1.18.77.13,4.5-1.84,9.61-7,10.69-5.66,1.17-10.8-1.25-12.48-6.13A12.37,12.37,0,0,1,64.93,16.65Z"/><path class="cls-5" d="M75.1,31.23c2.19,0,4.39.06,6.58,0,1.17,0,1.41.47,1.42,1.51s-.3,1.5-1.44,1.49q-6.69-.08-13.37,0c-1.16,0-1.41-.46-1.42-1.51s.29-1.52,1.44-1.49C70.57,31.28,72.84,31.23,75.1,31.23Z"/><path class="cls-5" d="M74.94,40.16c-1.42,0-2.83-.06-4.24,0-1.21.07-1.79-.19-1.77-1.6s.72-1.42,1.74-1.41c3,0,5.94,0,8.91,0,1.14,0,1.44.44,1.43,1.5s-.23,1.58-1.41,1.52C78.05,40.1,76.49,40.16,74.94,40.16Z"/><path class="cls-6" d="M75,46.11c-.78,0-1.56-.06-2.32,0-1.19.12-1.59-.32-1.6-1.53s.61-1.5,1.69-1.46c1.47.06,3,0,4.43,0,1,0,1.69.11,1.71,1.44s-.65,1.64-1.8,1.55C76.39,46.07,75.68,46.11,75,46.11Z"/><path class="cls-7" d="M117,63.89a3.76,3.76,0,0,1-1.12,2.36,6.12,6.12,0,0,1,.68-3.2C116.64,63.35,116.61,63.73,117,63.89Z"/><path class="cls-8" d="M80.6,85.6c3.47,0,6.94.05,10.41,0a2.13,2.13,0,0,1,2.46,1.67c3.46,9.94,7,19.84,10.54,29.76.94,2.67.92,2.68-2,2.68-5.45,0-10.9,0-16.35,0-1.38,0-1.78-.4-1.86-1.79-.47-8.18-1.08-16.35-1.6-24.53-.06-1-.37-1.38-1.38-1.37-3.89,0-7.79,0-11.68,0-1.18,0-1.37.54-1.44,1.54-.52,8.18-1.12,16.36-1.62,24.54-.07,1.15-.35,1.62-1.58,1.61-5.95,0-11.9-.07-17.84,0-1.88,0-1.27-.95-1-1.84q4.66-13.2,9.34-26.39,6.87-19.49,13.69-39A2,2,0,0,1,71,50.84c2.82.16,5.65.22,8.48.24a1.61,1.61,0,0,1,1.7,1.25c1.83,5.34,3.65,10.68,5.56,16,.44,1.23.28,1.59-1.07,1.56-6.18-.18-4.92.92-5.25-4.92a24.08,24.08,0,0,1-.29-3.37c.15-2-.59-2.59-2.53-2.43a52.57,52.57,0,0,1-6.15,0c-1.18,0-1.58.36-1.65,1.56q-.67,11.87-1.5,23.7c-.1,1.31.66,1.16,1.44,1.16Z"/><path class="cls-9" d="M104.92,72.05,96.57,89.26c-.33-.73-.5-1.09-.65-1.46-1.66-4.35-1.66-4.36-6.2-4.36-5.73,0-11.47,0-17.2,0-1.43,0-2-.25-1.85-1.84q.72-9.4,1.2-18.84c.07-1.2.44-1.5,1.6-1.52,4.63-.06,4.61-.1,4.86,4.44.12,2-.39,4.71.69,5.94s3.87.36,5.9.37C91.43,72.08,97.94,72.05,104.92,72.05Z"/><path class="cls-9" d="M75,130.23c-2.26-3.45-4.31-6.57-6.34-9.7a2.81,2.81,0,0,1-.4-1.81c.52-7.69,1-15.37,1.49-23.06.07-1.28.56-1.5,1.66-1.47,2.4.07,4.81.09,7.21,0,1.25-.05,1.54.44,1.61,1.56.46,7.69,1,15.38,1.47,23.06a2.51,2.51,0,0,1-.35,1.61Z"/><path class="cls-10" d="M57.11,69.87H49.47c-.67-.31-.76-.9-.88-1.56A69.55,69.55,0,0,1,48,48.93c.32-3.37.74-6.72,1.37-10a4.85,4.85,0,0,1,2.51-3.68c1.23-.68,2.33-1.59,3.63-2.15,1.49-.65,2-.33,1.8,1.28-.3,2.44-.81,4.86-1.12,7.31a71,71,0,0,0,1.25,26A2.23,2.23,0,0,1,57.11,69.87Z"/><path class="cls-10" d="M100.47,69.87H92.82a2.2,2.2,0,0,1-.23-2.21,74.48,74.48,0,0,0,.15-32.75c-.14-.68-.49-1.46.16-2s1.45,0,2.13.37c.12.06.24.14.37.19,3.73,1.61,5.39,4.4,5.85,8.49.81,7.18,1.51,14.34.83,21.53C101.88,65.64,102.29,68.08,100.47,69.87Z"/><path class="cls-11" d="M75.48,134c2-4,4.74-7.62,7-11.47.58-1,1.6-.74,2.49-.74l21.37,0c.6.87-.1,1.3-.63,1.72A47.52,47.52,0,0,1,76,134.3.83.83,0,0,1,75.48,134Z"/><path class="cls-10" d="M43.58,121.8c7.12,0,14.24,0,21.37,0a3.1,3.1,0,0,1,3.1,1.63c2.1,3.56,4.61,6.87,6.39,10.62-1.72.76-3.47.17-5.16,0a47.11,47.11,0,0,1-24.86-10.39C43.9,123.19,42.93,122.83,43.58,121.8Z"/><path class="cls-10" d="M46,69.85c-4.17.08-4.27.13-2.52,3.88,2.68,5.72,5.52,11.36,8.27,17,.29.61,1.13,1.22.28,2-1.62-.53-2.32-2-3.2-3.25A69.52,69.52,0,0,1,35,52.56a5,5,0,0,1,1.49-4.22c1.09-1.09,2.1-2.29,3.28-3.31,1.34-1.16,1.92-.92,2.12.84.34,3,.62,6,1.09,9a104.47,104.47,0,0,0,2.87,12.36C46.1,68.08,46.75,69,46,69.85Z"/><path class="cls-10" d="M97.9,92.81c-.73-.65,0-1.18.21-1.67,3.07-6.44,6.1-12.89,9.29-19.26.93-1.84.42-2.17-1.33-2a18.77,18.77,0,0,1-2.12,0c-.71-.64-.23-1.33,0-2A89.39,89.39,0,0,0,108,46.5c.05-.73-.15-1.75.7-2.07s1.34.58,1.94,1c3.51,2.67,4.73,5.95,4.1,10.51A71,71,0,0,1,99.4,91.73,2.25,2.25,0,0,1,97.9,92.81Z"/><path class="cls-11" d="M50.82,97l-1.38,3.85c-1.08.7-1.55-.32-2.1-.83a80.7,80.7,0,0,1-13-15.84,94.6,94.6,0,0,1-8.53-16.29c-.61-1.52.64-5.42,2-6.31,1.07-.73,1.36.21,1.66.88,1,2.19,1.93,4.4,3,6.56a100.29,100.29,0,0,0,17.41,25.4C50.5,95.2,51.22,95.89,50.82,97Z"/><path class="cls-11" d="M100.49,100.86c-.33-1.58-1.25-3-1.36-4.63-.12-.84.51-1.27,1-1.76a97.85,97.85,0,0,0,16.43-23.31q2-3.87,3.68-7.87c.3-.7.57-1.6,1.49-1.61s1.19.87,1.62,1.51a5.68,5.68,0,0,1,.43,6A96.54,96.54,0,0,1,103.21,99.5C102.5,100.2,102,101.55,100.49,100.86Z"/><path class="cls-10" d="M104.3,111.07l-2.52-6.7c1.23-1.81,3.22-2.7,4.91-3.93a115.71,115.71,0,0,0,16.46-15.21c.19-.21.32-.47.52-.67.49-.49.92-1.3,1.69-1.06s.61,1.15.7,1.83c.61,4.85-1.22,8.75-4.46,12.26a71.49,71.49,0,0,1-15.74,13.08C105.39,111,104.93,111.37,104.3,111.07Z"/><path class="cls-10" d="M48.16,104.33c-.83,2.23-1.36,4.58-2.57,6.67-.81.38-1.35-.22-1.91-.58A64.26,64.26,0,0,1,25.58,94c-2.15-2.94-1.84-6.44-1.52-9.8.13-1.31,1.16-.64,1.72-.13,1.47,1.34,2.66,2.93,4,4.37a105.08,105.08,0,0,0,16.85,14.52A3.76,3.76,0,0,1,48.16,104.33Z"/><path class="cls-12" d="M43.58,121.8c2,2.84,5,4.37,7.93,6A45.24,45.24,0,0,0,72,133.68c.83,0,1.66.22,2.49.34h1c4.39-.48,8.8-.82,13.08-2.07A50.16,50.16,0,0,0,106,122.71a1.07,1.07,0,0,0,.39-.93c.57-.07,1.26,0,1.31-.84a6.44,6.44,0,0,1,2.07-2.63,33,33,0,0,0,4.34-5.18,29.51,29.51,0,0,1-6.72,1.6c-.62.07-1.26.31-1.81-.21-.7-.83.17-1,.58-1.1a58.54,58.54,0,0,0,11.43-3.2c-6.5,13.14-23.21,24.37-40.6,24.66-19.46.34-34.24-8-44.59-24.42a85.49,85.49,0,0,0,11.39,3c.7.12,1.4.58.68,1.51a52.94,52.94,0,0,1-8.39-1.6,45.14,45.14,0,0,0,4.28,5.15c.71.75,1.69,1.33,1.9,2.48C42.3,121.85,43,121.7,43.58,121.8Z"/><path class="cls-13" d="M45.07,72.05c4.68,0,8.92,0,13.16,0,.72,0,1.46-.15,1,1.06-1.89,5.27-3.73,10.55-5.76,16.32C50.58,83.42,47.89,77.87,45.07,72.05Z"/><path class="cls-14" d="M100.49,100.86c2.79-1.39,4.68-3.83,6.61-6.1A108.68,108.68,0,0,0,123,69.82c1.49-3.2.88-5.46-1.4-8.21-5.5,13-12.51,24.76-22.44,34.62-.75-.76-.13-1.26.35-1.78A106.71,106.71,0,0,0,113.1,76.24a130.9,130.9,0,0,0,7.65-15.54c.19-.44.14-1.12.72-1.17s.83.5,1,.94c.86,1.69,1.68,3.41,2.56,5.09a2.26,2.26,0,0,1-.12,2,93.69,93.69,0,0,1-15,25.33c-2.49,3-4.78,6.07-7.94,8.43C101,102.12,100.77,101.77,100.49,100.86Z"/><path class="cls-14" d="M50.82,97a2.56,2.56,0,0,0-.93-1.83A101.36,101.36,0,0,1,28.82,62.28a6.12,6.12,0,0,0-.31-.56c-2.31,2.13-3,4.54-1.84,7.13C31.8,80.44,38.5,91,47.73,99.77c.49.48.88,1.15,1.71,1.12-.3.91-.55,1.27-1.54.43-5.76-4.9-10.17-10.9-14.25-17.18a89.33,89.33,0,0,1-8.17-15.51c-.89-2.22.66-7.4,2.51-8.85,1-.76,1.07.31,1.24.75,1.14,2.9,2.51,5.69,3.83,8.5A98.12,98.12,0,0,0,45.17,88.31c1.67,2.09,3.46,4.09,5.24,6.09C51.15,95.23,51.49,96,50.82,97Z"/><path class="cls-14" d="M97.9,92.81a71,71,0,0,0,15.41-31.43c.64-3,.76-6,1.15-9A4.12,4.12,0,0,0,113,48.61c-1.38-1.3-2.65-2.7-4.29-4.4A104.08,104.08,0,0,1,104,69.84c-1.33-.1-1-1-.71-1.68A81,81,0,0,0,106.63,54c.55-3.88.8-7.81,1.23-12.24C110,44,111.9,46.12,114,48c2.67,2.4,1.47,5.43,1.21,8.05a65.11,65.11,0,0,1-6.64,22.51,81,81,0,0,1-9.27,14.32C98.88,93.39,98.27,94.25,97.9,92.81Z"/><path class="cls-12" d="M46,69.85a114.36,114.36,0,0,1-3.94-17.71c-.27-2.45-.55-4.9-.87-7.78a58.68,58.68,0,0,0-5.4,5.73,2.69,2.69,0,0,0-.31,1.85,67.89,67.89,0,0,0,5.8,23.69A74.94,74.94,0,0,0,52,92.8c-.24,1.17-.69.81-1.21.19a71.38,71.38,0,0,1-10.13-16,70.07,70.07,0,0,1-5.42-17.5,52,52,0,0,1-.72-8.62c0-1.37,1-2,1.64-2.83,1.6-2.25,3.76-4,5.86-6.17.51,4.58.89,8.81,1.48,13a80.67,80.67,0,0,0,3.29,13.51C47.12,69.28,47.53,70,46,69.85Z"/><path class="cls-15" d="M100.47,69.87a22.65,22.65,0,0,0,1.18-7,96.8,96.8,0,0,0-1.56-24,4.06,4.06,0,0,0-2-3,32.6,32.6,0,0,0-5.21-3A87.82,87.82,0,0,1,94.65,44.9a68.67,68.67,0,0,1-.37,16.46c-.39,2.85-1,5.67-1.46,8.51-1.34.1-1.27-.53-1-1.58A62.36,62.36,0,0,0,94,51a76.36,76.36,0,0,0-2.15-17.34c-.2-.82-.33-1.65-.57-2.82,2.75.9,4.74,2.71,7.09,3.8,2.91,1.36,3,4.14,3.25,6.6.69,5.8,1.62,11.6,1.35,17.46-.15,3.16-.52,6.31-.91,9.45C102,68.91,101.86,70.08,100.47,69.87Z"/><path class="cls-15" d="M57.11,69.87c-.11-3-1.19-5.9-1.53-8.92a77.42,77.42,0,0,1,.07-19.18c.39-2.9.83-5.79,1.27-8.79-2.27.81-4,2.24-5.92,3.42-.88.55-.9,1.56-1.08,2.43A91.7,91.7,0,0,0,48.27,62a29.54,29.54,0,0,0,1.2,7.9c-.71,0-1.19-.09-1.3-1-.63-5.15-1.42-10.23-1-15.5S48.1,42.92,49,37.72a2.82,2.82,0,0,1,1.38-2.15c2.66-1.72,5.32-3.44,8.3-5C58,35,56.87,39.14,56.5,43.44a78.72,78.72,0,0,0,0,16,41.28,41.28,0,0,0,1.74,9.08C58.61,69.45,58.18,70,57.11,69.87Z"/><path class="cls-14" d="M104.3,111.07a69.93,69.93,0,0,0,19.1-16.56c2.64-3.36,1.93-7,2.23-11.26-7.44,8.18-14.79,15.64-23.85,21.12-.28-1.17.56-1.6,1.35-2.11a92,92,0,0,0,15.5-13,76.8,76.8,0,0,0,8-9.36c0,3.21-.06,5.89,0,8.57.14,4.75-3.19,7.51-5.9,10.7-4,4.74-8.93,8.33-14,11.7C106.15,111.23,105.23,112.74,104.3,111.07Z"/><path class="cls-14" d="M48.16,104.33c-7.94-4.76-14.59-11-20.79-17.85-.85-.93-1.69-1.87-2.87-3.19-.24,4.81-.18,8.85,3,12.54A75.24,75.24,0,0,0,45.59,111c-.21,1.69-1.17.58-1.59.3-2.46-1.63-4.94-3.26-7.26-5.08a72.29,72.29,0,0,1-12-12.43c-1.69-2.16-1-4.76-1.51-7.12a21.88,21.88,0,0,1-.07-4.86c0-.41-.12-1,.41-1.08s.76.3,1,.64c4.56,6.15,10.21,11.24,15.94,16.24A72.05,72.05,0,0,0,47,102.35C47.69,102.87,48.35,103.3,48.16,104.33Z"/><path class="cls-10" d="M42.24,121a32.1,32.1,0,0,1-7.1-8.41c3,1.29,6.38.92,9.31,2.38Z"/><path class="cls-10" d="M105.56,114.52a43.32,43.32,0,0,0,9.76-2.36,35.23,35.23,0,0,1-7.64,8.78C107,118.8,106.27,116.66,105.56,114.52Z"/><path class="cls-16" d="M83.68,19.56c-.47,5.3-3.1,7.93-7.88,8.09-5,.16-8.4-2.35-9.2-7l4,2.88a12.66,12.66,0,0,1,2-5.13c1.33,1,1.75,2.47,2.47,3.73,1.74,3.09,4,3.18,5.91.2C81.61,21.26,82.16,20.1,83.68,19.56Z"/></g></svg>