<svg id="Layer_1" data-name="Layer 1" xmlns="http://www.w3.org/2000/svg" viewBox="0 0 150 150"><defs><style>.cls-1{fill:#c61012;}.cls-2{fill:#00000f;}.cls-3{fill:#06060a;}.cls-4{fill:#fef6f7;}.cls-5{fill:#fdfdfd;}.cls-6{fill:#0b090b;}.cls-7{fill:#fefdfd;}.cls-8{fill:#fcf5f4;}.cls-9{fill:#fdf6f6;}.cls-10{fill:#fefefe;}.cls-11{fill:#fcf6f6;}.cls-12{fill:#fdf7f6;}.cls-13{fill:#fdf8f7;}.cls-14{fill:#fdf7f7;}.cls-15{fill:#f5f5f5;}.cls-16{fill:#fbf4f5;}.cls-17{fill:#1f100e;}.cls-18{fill:#8c8a7c;}.cls-19{fill:#8b897b;}.cls-20{fill:#fcfcfc;}.cls-21{fill:#8b8a7c;}.cls-22{fill:#8b897c;}.cls-23{fill:#f1f0f2;}.cls-24{fill:#8a887b;}.cls-25{fill:#8a887c;}.cls-26{fill:#88877a;}.cls-27{fill:#efeff1;}.cls-28{fill:#b9b6bf;}.cls-29{fill:#323139;}.cls-30{fill:#89877a;}.cls-31{fill:#89877c;}.cls-32{fill:#89877b;}.cls-33{fill:#af1113;}.cls-34{fill:#fbfbfb;}</style></defs><g id="_6Jqne9.tif" data-name="6Jqne9.tif"><path class="cls-1" d="M65.85,147.08c-5.52-2.05-11.38-2.82-16.93-4.91C18.9,130.9-.56,98.91,3.47,67c6-48,54.24-76.83,98.84-58.48,24.94,10.26,39.48,29.57,44,56.26.11.66-.22,1.51.74,1.83V84.16a64.36,64.36,0,0,1-5.88,21.63,73.23,73.23,0,0,1-36.08,35.67,61.63,61.63,0,0,1-21.69,5.62Z"/><path class="cls-2" d="M28.23,73.44c-6.21,0-12.41-.21-18.62-.1-2.47,0-3.07-.78-2.93-3.16,1.85-31.91,28-59.4,59.94-62.91,37-4.06,69,19.67,75.82,56.37.15.83.18,1.69.25,2.54.65,7.11.65,7.09-6.69,7.12-4.75,0-9.49.09-14.24.14a3.7,3.7,0,0,1-.88,4.19l-.31,0a1.12,1.12,0,0,1-1.4.14,1.26,1.26,0,0,1-.37-.58c-.26-1.54-.32-1.57-1.53-.79a1.73,1.73,0,0,1-1.18-.82c-.25-.65-.21-1.57-1.34-1.41A1.59,1.59,0,0,1,112.82,73c-.21-2.83,1-5.35,1.45-7.62-1.34,2-2.1,5.25-5.44,6.17a1.84,1.84,0,0,1-1.74-1c-.56-1.5,0-2.87.45-4.27a43.65,43.65,0,0,0,2-13.29c-1.56,2.18-2,5.37-5.27,6.13a2,2,0,0,1-1.78-1.28c-.89-5.76-.11-11.59-.55-16.73-.51,3.39,0,7.65-3.86,10.5-1.87-.17-2.27-1.55-2.46-3A19.48,19.48,0,0,0,95.22,45c-.81-5.25-2-10.43-3.14-15,.23,6.56-2,13.4-3,20.42-.14.92-.83,1.62-1,2.53a37.52,37.52,0,0,0-.88,12.93A2.62,2.62,0,0,1,86,67.72c-1.88.79-3.55-.26-5.3-.6-1.54-.3-3.08-.71-4.65-.08a3.42,3.42,0,0,1-2.1,0c-1.94-.71-3.8-.15-5.67.34-1.39.36-2.75,1-4.23.37a2.53,2.53,0,0,1-1.23-1.84,38.32,38.32,0,0,0-.9-13c-.18-.9-.86-1.61-1-2.52-1-7-3.22-13.9-3-21.16-.14.6,0,1.21-.22,1.76a115.46,115.46,0,0,0-2.94,13.89,23.25,23.25,0,0,0-.5,3.9c-.2,1.37-.69,2.55-2.3,2.77-3.95-2.73-3.65-6.92-3.78-11,0,0-.13,0-.2-.06-.37,5.7.27,11.44-.5,17.14a2,2,0,0,1-1.7,1.37c-3.55-.62-3.78-4.28-6-6.72a92.69,92.69,0,0,0,2.66,13.8c.4,1.38,1,2.75.53,4.24a1.85,1.85,0,0,1-1.66,1.15c-3.53-.83-4.22-4.2-5.69-6.3a24.37,24.37,0,0,1,1.58,7.7,1.57,1.57,0,0,1-1.95,1.18c-1.37-.42-1.11.74-1.34,1.42a1.79,1.79,0,0,1-1.17.82c-2.56-2.25-.87,1.44-1.89,1.35a1.12,1.12,0,0,1-1.42-.12l-.31,0A3.7,3.7,0,0,1,28.23,73.44Z"/><path class="cls-3" d="M40.74,71.08a2,2,0,0,0,1.76-1c.61-.23,1.71.56,1.85-.5.43-3.19,3.34-6.21.71-9.64a1.28,1.28,0,0,1,.12-1.38,1.88,1.88,0,0,0,1.72-.94,1.44,1.44,0,0,1,1,.36c.88.65.93,2.71,2.48,2s1.83-2.38,1.92-4-1.49-3.12-.35-4.81c2.94-1.49.41-4.72,2.1-6.6,1.85,1.91.62,4.36,1.17,6.5.2.8.13,1.82,1,2.19s1.4-.62,2-1.12c1-.81,1.65-2.15,3.27-1.72L62.92,52a19.34,19.34,0,0,0-4,8.75c-.86,4.7.21,5.86,4.68,5.11a1.73,1.73,0,0,0,1,1.64c-.82,2.27-3.26,2.79-4.73,4.38a32.28,32.28,0,0,0-4.47,5.29c-.25.44-.49.89-.7,1.36-3.12,7.15-3,14.13,1.08,20.91a1.67,1.67,0,0,1-1.5,1.92c-2.8-.3-3-2.8-3.88-4.69s-1.41-4.13-3.68-5.12c.41,5.32,3.39,9.3,7.44,10a2.4,2.4,0,0,1,2.2,1.28l.18.51a1.52,1.52,0,0,1-.32,1c-3.8,2.19-8.33,2.27-12.23,4.2-1.41.69-3,1.08-3.38,2.91-.27.47-.57.89-1.21.61l-2-1.46c-1.8-1-1-2.12.07-3a3.83,3.83,0,0,1,3.59-.83c3.78-1.62,1.24-2.9-.23-4.23-1.72-1.11-3.59-2.09-3.64-4.54l-2.19-3.68c-1.8-1-2.92-2.41-2.4-4.65l.06-1a1.49,1.49,0,0,1,1.46-.42c1.39.57,1.82,1.88,2.38,3.09,1.7,3.7,4.41,6.69,6.93,9.81a4.28,4.28,0,0,0,4.17,1.74c-4.64-6.51-5.42-14.85-11.77-20.22-1.65-1.4-3.76-3.27-3.13-6.16l.91-1c3.09.88-.45-2.16,1.25-2.1.56,0,1.2.66,1.67-.18,2.31.56,1.91,2.84,2.73,4.33s1.4,2.83,2.11,4.27c.36-.41,0-.87.11-1.28C42.62,77.17,41.6,74.13,40.74,71.08Z"/><path class="cls-3" d="M87.07,52l1.46-1.47c1.62-.43,2.31.91,3.28,1.72.6.5,1,1.55,2,1.12s.78-1.39,1-2.19c.55-2.14-.68-4.59,1.17-6.5,1.7,1.88-.84,5.11,2.1,6.6.87,1,.24,2,0,3a5.55,5.55,0,0,0-.24,2.82c.32,1.16.62,2.49,1.8,3,1.46.58,1.57-1.08,2.25-1.78a1.56,1.56,0,0,1,1.21-.62,1.89,1.89,0,0,0,1.72.94A15.55,15.55,0,0,0,105.36,69c.52,1.38,1.22,1.16,2.13,1.17a2,2,0,0,0,1.76,1,15.87,15.87,0,0,0-.64,10.4,57,57,0,0,0,2.68-5.78c.4-1,.42-2.52,2.08-2.62.47.84,1.11.16,1.67.18a1.36,1.36,0,0,1,.21,1.32c-1.14,2.28,1,.14,1,.78l.91,1c.63,1.35-.18,2.36-.87,3.33a53.27,53.27,0,0,1-3.62,4.59c-2.92,3.28-5.64,6.63-6.5,11.18-.49,2.62-2.15,4.83-4.35,7.18,2.68.43,4-.76,5.08-2.18,2.49-3.14,5.18-6.15,6.76-9.92a4,4,0,0,1,2.07-2.44,1.51,1.51,0,0,1,1.48.42l-.67,1c.68,2,.43,3.66-1.68,4.64l-2.19,3.68c0,2.45-1.92,3.43-3.64,4.54-1.47,1.33-4,2.61-.23,4.23,2-.28,3.62.14,4.51,2.06.31.68.31,1.5-.91,1.1L109.76,112a1.64,1.64,0,0,1-1.14-1c-.69-2.22-2.8-2.47-4.53-3.28-3.39-1.6-7.44-1.36-10.56-3.73-.21-1.59.66-2.3,2.08-2.56,3.22.4,4.38-2.08,5.74-4.2a13.73,13.73,0,0,0,2.23-5.85c-2.64,1-3.16,3.15-4,5.13s-1.08,4.38-3.84,4.79a1.71,1.71,0,0,1-1.59-1.87c4-6.82,4.19-13.84,1.08-21-.21-.47-.42-.94-.65-1.39a27.5,27.5,0,0,0-6.8-7c-.93-.73-2.17-1.18-2.43-2.56a1.74,1.74,0,0,0,1-1.64c4.46.75,5.53-.41,4.67-5.11A19.34,19.34,0,0,0,87.07,52Z"/><path class="cls-4" d="M36.38,130.64h78c-3.13,2.39-5.53,4.65-9.12,4.65q-30.3,0-60.6,0C41.07,135.3,38.88,132.78,36.38,130.64Z"/><path class="cls-5" d="M79.63,127.21H70.36c-1.79-1.83-.91-4.14-1-6.23s-.74-2.66-2.58-1.47c-1.65,1.08-3.24,2.09-5.3.61-4.07-2.93-4-4.71.68-8.13a8,8,0,0,1,7.11-1.39,26.16,26.16,0,0,0,11.48,0A8,8,0,0,1,87.85,112a12.12,12.12,0,0,1,1.17.86c1.62,1.27,3.63,2.35,1.81,4.94-2.06,2.93-4,3.66-6.68,2.31-3.41-1.72-3.35-1.72-3.49,2C80.59,123.82,81.24,125.76,79.63,127.21Z"/><path class="cls-6" d="M62.28,112.92l-3.73,2.94a22,22,0,0,1,1.53,1.66c2.05,2.79,4.25,3.5,6.94.77.73-.74,1.72-1.7,2.86-1.05,1,.54.44,1.76.46,2.68.07,2.43,0,4.86,0,7.29H68.75c-1.13-1.22-.88-2.75-1-4.2-.14-2.71-1.18-.51-1.85-.33-3.32,1.73-6.54,3.7-10.25,4.53l-1.35-.31a6.37,6.37,0,0,1-5-4.63L46,119A8.06,8.06,0,0,1,41,114.07L39.48,112c.27-.28.53-.56.8-.83,2.62.44,4.87-.47,7.21-1.59,3.21-1.53,6.47-3.3,10.29-2.26a1.68,1.68,0,0,1,.43,1.48c-.57,1.49-2,1.66-3.24,2a31.2,31.2,0,0,0-5.83,2.11c-1,.54-3.1.7-2,2.64,1,1.7,2.47,2.78,4.5,1.15a39.86,39.86,0,0,1,6.77-4.32c1.07-.55,2.09-1.32,3.41-.79C62.3,112,62.65,112.32,62.28,112.92Z"/><path class="cls-6" d="M79.63,127.21c0-2.67.05-5.35,0-8,0-2.08.57-2.79,2.5-1.56,1.52,1,3.41,3,4.52,2.6,1.85-.6,3.21-2.71,4.9-4.3l-3.82-3c-.36-.61,0-1,.45-1.29,3.9,0,6.56,2.7,9.53,4.66,1.34.88,2.55,1.94,4.17.46,1.46-1.34,2-2.44-.27-3.51a48.82,48.82,0,0,0-6.48-2.37c-1.25-.39-2.65-.55-3.3-2a1.75,1.75,0,0,1,.31-1.53c3.74-1.25,6.88.66,10.06,2,2.25,1,4.38,2.13,6.93,1.84l.65.77-1.47,2.06c-.34,2.61-2,4-4.33,4.9l-3.29,3.3a6.37,6.37,0,0,1-5,4.63l-1.35.31c-3.71-.85-6.94-2.8-10.27-4.53-.67-.21-1.69-2.38-1.84.34-.06,1.46.18,3-.94,4.19Z"/><path class="cls-7" d="M52.68,139.11H97.26A69.23,69.23,0,0,1,52.68,139.11Z"/><path class="cls-8" d="M32.69,89.59l2.4,4.66c-7.88,0-15.77,0-23.65.15-2.88,0-2.71-2-2.84-3.68-.18-2.16,1.7-1.19,2.62-1.2C18.38,89.47,25.53,89.55,32.69,89.59Z"/><path class="cls-8" d="M114.9,94.24c.64-1.51,1.61-2.91,1.68-4.64,7.41,0,14.83-.11,22.24-.1,1,0,2.78-.65,2.51,1.48-.19,1.59-.07,3.46-2.72,3.41C130.71,94.25,122.8,94.28,114.9,94.24Z"/><path class="cls-9" d="M49.32,122.26l5,4.63c-7.49.9-15,.32-22.52.31-2.46,0-3.55-2.65-5.37-4l.18-1Z"/><path class="cls-10" d="M37.28,97.92q1.83,2.27,3.64,4.54-13.32.12-26.63.23c-3,0-2.59-2.58-3.59-4.77Z"/><path class="cls-9" d="M95.64,126.89l5-4.63h23.2c-2.47,3.25-4.45,5.36-8.28,5.09C109,126.89,102.28,127.81,95.64,126.89Z"/><path class="cls-10" d="M109.07,102.46c1.21-1.52,2.43-3,3.64-4.54H139c-.27,3.54-1.56,5-5.08,4.86C125.61,102.45,117.34,102.54,109.07,102.46Z"/><path class="cls-11" d="M31.28,86.24c-7,0-14-.18-21.07,0-2.6.06-3-1.15-3.07-3.23-.09-2.73,1.94-1.62,3.06-1.65,6.41-.19,12.82-.22,19.22-.31C31.58,82.22,32.4,83.88,31.28,86.24Z"/><path class="cls-11" d="M120.57,81q9.86.14,19.71.27c1.25,0,2.83-.46,2.54,1.87-.2,1.64-.14,3.06-2.54,3-7.18-.09-14.37,0-21.56,0C117.59,83.88,118.41,82.22,120.57,81Z"/><path class="cls-12" d="M104,119c1.44-1.63,2.88-3.27,4.33-4.9h22.35c-1.62,3.71-3.62,5.32-7.41,5.1C116.82,118.8,110.38,119,104,119Z"/><path class="cls-12" d="M41,114.07A22.53,22.53,0,0,1,46,119c-7,0-14.07,0-21.1.15-3.33.09-3.94-2.53-6-5Z"/><path class="cls-13" d="M41.15,106.69c-1.34,1.16-4.81.28-3.66,3.83-6.33.08-12.66.12-19,.26-2.94.06-2.78-2.46-4.78-4.65C23.6,106.54,32.37,105.6,41.15,106.69Z"/><path class="cls-14" d="M112.44,109.85c.07-1.66.07-1.66-3.59-3.16,5-1.08,10.09-.26,15.13-.45,3.71-.13,7.43,0,11.32,0-.63,3.37-2.12,4.81-5.47,4.62-4.71-.28-9.45,0-14.18-.11C114.56,110.72,113.16,111.38,112.44,109.85Z"/><path class="cls-15" d="M28.23,73.44c.29,1.4.58,2.79.88,4.19-6.68.05-13.36.08-20,.15-1.47,0-2.49,0-2.55-2-.07-2.3,1.23-2.17,2.77-2.18C15.61,73.55,21.92,73.49,28.23,73.44Z"/><path class="cls-15" d="M120.88,77.63c.29-1.4.59-2.79.88-4.19,6.18,0,12.35.08,18.53.14,1.5,0,3.19-.48,3.14,2.17-.05,2.4-1.52,2-2.92,2Z"/><path class="cls-16" d="M55.7,127.2a41.75,41.75,0,0,1,9.79-5c1.15-.36,2.36-1.15,3.26.42v4.6Z"/><path class="cls-16" d="M84.5,122.18a41.75,41.75,0,0,1,9.79,5H81.24c0-1.53,0-3.06,0-4.6C82.14,121,83.35,121.82,84.5,122.18Z"/><path class="cls-17" d="M120.57,81c-1.25,1.52-1.51,3.39-1.85,5.22-.49.78-1,1.55-1.47,2.33h-1.57c.12-4,.53-7.89,3.44-11l1.45,0Z"/><path class="cls-17" d="M31.28,86.24c-.35-1.83-.61-3.7-1.86-5.22V77.59l1.45,0c2.91,3.12,3.33,7,3.44,11H32.75Z"/><path d="M88.74,111.88l-1,1c-2.32-2-4.79-2-7.69-1.19a19.5,19.5,0,0,1-10.06,0c-2.9-.79-5.36-.78-7.68,1.2l-1-1c.55-3-2-2.33-3.45-2.92l-.09-1.59c-.58-1-1.49-1.86-1.5-3.15L56.5,103c1.71-.62,2.68.75,3.81,1.52a27.3,27.3,0,0,0,11.25,4.74c-3.6-7.48-8.91-9.64-15-6.22-1,0-1.45-.89-2.19-1.31a.57.57,0,0,1-.48-.63,2.51,2.51,0,0,0,1.74-1.55c-.59-2,.74-3.52,1.59-5.06,2.24-4,3-7.81-.27-11.78a17.3,17.3,0,0,1-2.78-5.11l.79-.75c2.58-1.64,5.47-1,8.21-.91s4.46-1,5.9-3.38c1.33-2.15,1.62-5.27,4.8-6l2.23,0c2.67.32,3.16,2.81,4,4.57,1.78,3.6,4.27,5.15,8.32,4.75,2.19-.22,4.6-.67,6.63.9l.78.75A33.58,33.58,0,0,1,92.33,84c-1.93,2.7-1.92,5.21-.63,8.19,1,2.38,3.16,4.43,2.68,7.37a2.51,2.51,0,0,0,1.74,1.55.57.57,0,0,1-.48.63l-2,2.22c.12,1.48-1.11,2.43-1.47,3.72V109C91,110,88.1,108.81,88.74,111.88Z"/><path class="cls-18" d="M119.12,77.55q-1.71,5.51-3.44,11a53,53,0,0,1-8.93,13.58c-1.84,1.92-3.66,2.59-6.23.94A23.82,23.82,0,0,0,106.64,91c.62-3.06,3.65-4.7,5.38-7.15s3.9-4.61,5.18-7.39l2.68-4.13C119.55,74.55,119.34,76.05,119.12,77.55Z"/><path class="cls-18" d="M34.31,88.56q-1.73-5.5-3.44-11c-.22-1.5-.43-3-.76-5.27l2.68,4.13c2.05,4.19,5.29,7.49,8.26,11a10.23,10.23,0,0,1,2.79,5.32c.59,4.08,2.85,7.33,5.66,10.36-2.6,1.67-4.42,1-6.25-.92A52.82,52.82,0,0,1,34.31,88.56Z"/><path class="cls-19" d="M61.46,50.49c-1.71.45-2.36,2-3.24,3.25-.6.84-1.22,1.73-2.24,1.55S54.84,53.85,54.6,53c-.75-2.73-.35-5.54-.58-8.31.72-6.11,1.88-12.1,4.69-17.7-.38,7,1.33,13.66,2.7,20.37C61.62,48.36,62.09,49.42,61.46,50.49Z"/><path class="cls-19" d="M96,44.64c-.22,2.77.17,5.58-.58,8.31-.24.9-.29,2.14-1.38,2.34s-1.64-.71-2.23-1.55c-.89-1.25-1.54-2.8-3.25-3.25-.87-2.62.54-5,1-7.44,1-5.32,2-10.61,1.78-16.11C94.09,32.54,95.25,38.53,96,44.64Z"/><path class="cls-20" d="M95.06,76.82c-4.11,0-8.91,1.26-12.13-.45S78.3,70,76.08,66.6c0-.95.4-1.24,1.33-1,2.63.65,5.27,1.25,7.91,1.87C89.13,70,93.12,72.33,95.06,76.82Z"/><path class="cls-5" d="M73.85,66.58c-1.64,2.65-3.44,5.21-4.86,8a3.63,3.63,0,0,1-3.91,2.34c-3.37-.18-6.76-.07-10.14-.07,1.93-4.49,5.93-6.83,9.74-9.36,2.57-.66,5-1.67,7.74-1.88C73.27,65.51,73.87,65.53,73.85,66.58Z"/><path class="cls-21" d="M45.18,58.61c2.19,2.86,3.09,5.73.6,9-1,1.3.16,3.33-1,4.73-1.47-.12-1.44-1.6-2.28-2.2C40.85,63.52,38.66,57,38.9,49.29,41.93,52.38,42.63,56.14,45.18,58.61Z"/><path class="cls-21" d="M107.49,70.13c-.84.6-.81,2.08-2.47,2.21-.56-2.82-1-5.68-2.48-8.36-1.06-1.9,1.76-3.42,2.27-5.37,2.51-2.51,3.39-6.14,5.79-9.38C111.08,56.94,109.4,63.55,107.49,70.13Z"/><path class="cls-22" d="M103.09,57.67l-.22.28c-1,1.43-1.09,4.72-3.47,3.47A5.42,5.42,0,0,1,96.82,55c.42-1.26.83-2.51,1.25-3.76,2.33-3.52,2.6-7.74,4-12.18C103.86,45.55,103.1,51.63,103.09,57.67Z"/><path class="cls-22" d="M51.92,51.24c.55,2.78,2.91,5.46.17,8.41-.68.73-.73,2.15-2.08,2.15s-1.55-1.37-2.14-2.21a14.38,14.38,0,0,1-1-1.92c0-6.05-.72-12.14,1-18.47C49.45,43.36,49.49,47.72,51.92,51.24Z"/><path class="cls-23" d="M73.83,29.86a10.06,10.06,0,0,1,1.06-4.94,232.54,232.54,0,0,1,4.87,30.45c.23,2.17.49,4.35.6,6.53,0,.78.78,2.15-.92,2.17-1.26,0-1.84-.67-1.88-2.08-.14-4.85-.31-9.71-.71-14.55-.38-4.59-1-9.16-1.6-13.73C74.53,33,74.46,32,74,31.19,73.78,30.76,73.51,30.34,73.83,29.86Z"/><path class="cls-24" d="M63.64,65.82c-1.4.76-2.6,2.89-4.24,1.89-1.34-.81-1.54-3-1.41-4.62.35-4.24.39-8.71,4.93-11.13C63.75,56.55,64.49,61.15,63.64,65.82Z"/><path class="cls-25" d="M87.07,52c4.15,2.47,6.53,11.57,4.05,15.33-.64,1-1.29.88-2.08.35s-1.79-1.21-2.68-1.82C85.51,61.15,86.24,56.55,87.07,52Z"/><path class="cls-26" d="M40.74,71.08c4.81,3.66.59,8.52,1.6,12.76-3.06-3-3.85-7.16-5.72-10.75-.53-3.44-1.88-6.72-2-10.78C36.84,65.5,38.33,68.63,40.74,71.08Z"/><path class="cls-26" d="M113.37,73.08c-1.79,3.61-2.77,7.64-5.62,10.79.88-4.25-3.35-9,1.5-12.79a38,38,0,0,0,6-9.14C115.37,66.41,113.84,69.66,113.37,73.08Z"/><path class="cls-27" d="M73.83,29.86l1,1c.1,2.21-.78,4.28-.88,6.46A137.9,137.9,0,0,0,72.38,61c0,1.23.58,3-1.55,3-2.32-.08-1.22-2.06-1.12-3C70.8,50.54,71.27,40.06,73.83,29.86Z"/><path class="cls-28" d="M35,73.26c.64,1.46,1.5,2.86,1.57,4.57-1.77,0-1.77-1.83-2.82-2.47C33.2,74.12,33.07,73.09,35,73.26Z"/><path class="cls-28" d="M116.29,75.36c-1,.66-1.1,2.37-2.83,2.53.08-1.77,1-3.17,1.58-4.63C116.92,73.09,116.79,74.12,116.29,75.36Z"/><path class="cls-29" d="M74,37.34a16.48,16.48,0,0,1,.88-6.46,3.78,3.78,0,0,1,.39,2.83C74.17,34.69,75.18,36.4,74,37.34Z"/><path class="cls-20" d="M54.15,77.57c3.21,2.57,4.17,6.62,6.45,9.81.66.91-.12,1.81-.53,2.67-1.51,3.15-3,6.32-4.46,9.47-4.55-4.93-4.54-10.81-3.34-16.85A34.08,34.08,0,0,1,54.15,77.57Z"/><path class="cls-30" d="M56.22,104.22c.26,1.17,3,1.17,1.5,3.15a31.43,31.43,0,0,0-12.34,4.16c-2,1.21-3.51,1.28-5.1-.38-1.13-1.32-.61-1.92.84-2.52A65.72,65.72,0,0,1,56.22,104.22Z"/><path class="cls-26" d="M50.56,80.3c-4.2-5.77-4.64-12.31-.12-16.06C50.1,69.94,55.75,74.7,50.56,80.3Z"/><path class="cls-31" d="M56.33,57.12c.09,4.7-.3,8.41,1.17,12,.7,1.71-1.3,2.94-2.53,3.44s-1.38-1.3-1.65-2.23C52,65.84,52.23,61.6,56.33,57.12Z"/><path class="cls-32" d="M49.43,89.38c-5.42-3-6.77-8-3.56-13.86C47.73,80.09,51.43,84,49.43,89.38Z"/><path class="cls-32" d="M53.87,101.07l.48.63c-1.14,1.7-2.33.79-3.31-.08a16.11,16.11,0,0,1-5.7-12.08c2.93,1.4,5.22,2.74,5.75,6.11A9.6,9.6,0,0,0,53.87,101.07Z"/><path class="cls-20" d="M94.38,99.52c-.76-1.63-1.58-3.24-2.28-4.9-1-2.3-3.53-4.74-2.64-6.83,1.54-3.63,3.12-7.54,6.38-10.22,3.35,6.86,3.55,13.72,0,20.57C95.49,98.76,95.34,99.56,94.38,99.52Z"/><path class="cls-30" d="M92.18,107.64c-1.77-2.13,1.5-2.27,1.47-3.72,4.7,1.35,9.53,2.26,14,4.23,1.59.7,2.49,1.33,1.41,3.08-1.35,1.47-2.65,1.32-4.38.36C100.84,109.44,96.78,107.63,92.18,107.64Z"/><path class="cls-26" d="M99.71,64.43c4.59,3.73,3.66,10.38-.39,16.11-1.46-3.07-3.65-5.5-1.2-9.18C99.3,69.61,99.17,67,99.71,64.43Z"/><path class="cls-31" d="M93.68,57.79c4.35,3.74,4.9,9.34,1.7,15.12-2.4-1.45-3.62-3.12-2.27-6.1C94.34,64.09,93.43,61.08,93.68,57.79Z"/><path class="cls-32" d="M100.66,89.65c-2.11-5.71,1.6-9.57,3.48-14.14C107.22,81.21,106.17,85.46,100.66,89.65Z"/><path class="cls-32" d="M95.64,101.7l.48-.63A9.25,9.25,0,0,0,98.78,96c.59-3.22,2.53-5,5.38-6.22.66,4-2.34,10.43-5.77,12.31C97.41,102.62,96.38,103.14,95.64,101.7Z"/><path class="cls-24" d="M57.81,109a16.57,16.57,0,0,0,1.7-.5,2.61,2.61,0,0,1,3.19,1c.82,1.21-1.11,1.52-1.44,2.47a38,38,0,0,0-8.95,5.37c-2.18,1.92-3.71,2.1-5.4-.36a24.26,24.26,0,0,0-2.21-2.44C48.72,111.38,53.4,110.51,57.81,109Z"/><path class="cls-24" d="M61.19,121.52a9.76,9.76,0,0,1-5.65,3c-1.95.35-3.95-2-3.9-3.47.08-1.9,2.59-2.91,4.37-3.86C56.81,116.73,61.05,120.22,61.19,121.52Z"/><path class="cls-33" d="M68.75,122.6l-3.26-.42c.84-.73,1.1-2.4,2.61-2C69.37,120.51,68.66,121.75,68.75,122.6Z"/><path class="cls-24" d="M88.74,111.88c-.32-.95-2.3-1.26-1.46-2.5,1.3-1.91,3.24-.46,4.9-.42,4.41,1.55,9.09,2.42,12.92,5.35a2.75,2.75,0,0,1-.29.73c-3.87,4.49-3.82,4.42-8.59,1.17C93.84,114.59,91.24,113.31,88.74,111.88Z"/><path class="cls-24" d="M98.81,121.07c-1.58,1.3-2.42,4-4.43,3.39s-5.24-.92-5.23-3.32c0-1.56,2.39-4,4.59-3.91C95.76,117.33,97.33,119.3,98.81,121.07Z"/><path class="cls-33" d="M84.5,122.18l-3.25.42c.08-.85-.63-2.09.64-2.42C83.4,119.78,83.67,121.45,84.5,122.18Z"/><path class="cls-34" d="M56.54,103c.15-.81-1-2.21,1.17-2.07,2.67.18,5.37.06,8.05,0,1,0,1.94,0,2.51,1.07.29.53.75,1,1.08,1.47,1.45,2.19,2.88,4.4,4.52,6.92a24.64,24.64,0,0,1-14.44-5.58c-.9-.73-1.44-2.07-2.93-1.88Z"/><path class="cls-34" d="M76.24,110.17c1.9-2.81,3.73-5.47,5.51-8.18a2.3,2.3,0,0,1,2.16-1c3.12,0,6.25,0,9.46,0C91,106.17,83.42,110.22,76.24,110.17Z"/></g></svg>