<svg id="Layer_1" data-name="Layer 1" xmlns="http://www.w3.org/2000/svg" viewBox="0 0 150 150"><defs><style>.cls-1{fill:#d52027;}.cls-2{fill:#e77f82;}.cls-3{fill:#e47074;}.cls-4{fill:#e5767a;}.cls-5{fill:#e5757a;}.cls-6{fill:#1a1751;}.cls-7{fill:#fef2fe;}.cls-8{fill:#dfe7f5;}.cls-9{fill:#fefefe;}.cls-10{fill:#fdfdfd;}.cls-11{fill:#dfe6f5;}.cls-12{fill:#dee6f4;}.cls-13{fill:#b4bad1;}.cls-14{fill:#a0a5c0;}.cls-15{fill:#a1a6c1;}.cls-16{fill:#9fa4c0;}.cls-17{fill:#dfe6f4;}.cls-18{fill:#1c1952;}</style></defs><g id="SUHSDX.tif"><path class="cls-1" d="M147.24,82.06c-1.08,2.5-1,5.23-1.57,7.84a72.33,72.33,0,0,1-59,56.39C49.29,152.68,12.61,127.83,4.46,90.6A72.28,72.28,0,0,1,57,5c3-.77,6.14-1.16,9.21-1.75.43-.08,1,.14,1.23-.51H70a.55.55,0,0,0,.84,0h8.35a.55.55,0,0,0,.84,0h2.08A65.43,65.43,0,0,1,96.56,5.44,71.38,71.38,0,0,1,121.2,18.73,72.29,72.29,0,0,1,143.74,51,51.87,51.87,0,0,1,147,66.88c0,.34-.06.7.21,1v1.67a1,1,0,0,0,0,1.25v7.94a1,1,0,0,0,0,1.25Z"/><path class="cls-2" d="M147.24,70.78c-.49-.41-.63-.83,0-1.25Z"/><path class="cls-3" d="M147.24,80c-.64-.42-.49-.83,0-1.25Z"/><path class="cls-4" d="M80,2.71c-.28.52-.56.44-.84,0Z"/><path class="cls-5" d="M70.82,2.71c-.28.44-.56.52-.84,0Z"/><path class="cls-6" d="M141.42,75A66.43,66.43,0,1,1,75.19,8.53,66.34,66.34,0,0,1,141.42,75Z"/><path class="cls-7" d="M74.91,99.55a19,19,0,1,1-19,19A19.07,19.07,0,0,1,74.91,99.55Z"/><path class="cls-8" d="M109.66,123a24.5,24.5,0,0,1-15.87,4.26,23.72,23.72,0,0,0,1.8-9.32A20.37,20.37,0,0,0,82,99.23c-1.3-.47-1.78-1-1.6-2.35a11.62,11.62,0,0,0,0-1.67c0-3.71.23-3.93,3.91-4.93,1.12-.31,1.29.57,1.73,1.06,1.78,2,1.75,2,3.83.24.79-.68,1.57-1.37,2.35-2.06a1.24,1.24,0,0,1,1.17-.26c3.43,1,7,1.4,10.46,2.35.93.29,1.7-.56,2.79-.31a37.41,37.41,0,0,1-3.66,10c-.64,1.2-.45,1.58.9,1.56a21,21,0,0,0,9-2.15c-2.13,5.33-5,9.62-9.74,13a29.67,29.67,0,0,0,6-1.14,30.05,30.05,0,0,0,5.85-2.45c-2.87,5.84-6.81,9.63-12.49,11.86a18.65,18.65,0,0,0,6.26.49C109.2,122.39,109.7,122.19,109.66,123Z"/><path class="cls-8" d="M57.77,89.52l4.45,3.81c.26-.29.45-.49.63-.7,2.33-2.73,3.11-3.08,6-1,1.85,1.33.31,3.85.72,5.79.19.94-.27,1.37-1.13,1.62a18.39,18.39,0,0,0-5.2,2.56,20.59,20.59,0,0,0-7.66,23.94c.18.51.37,1,.66,1.82-5.86.05-11.22-.93-15.93-4.39,0-.81.46-.6.91-.5a18.8,18.8,0,0,0,6-.41c-7.46-4.45-9.71-6.6-12-11.61,1.94.74,3.65,1.51,5.43,2a39.44,39.44,0,0,0,5.76,1.19,29.37,29.37,0,0,1-9.33-12.86,22.78,22.78,0,0,0,8.38,2c2.19,0,2.23,0,1.3-1.89a44.45,44.45,0,0,1-3.46-9.57c1-.53,1.87.56,2.82.21,3.51-1,7.17-1.3,10.66-2.35A1.08,1.08,0,0,1,57.77,89.52Z"/><path class="cls-8" d="M69.52,75.48c-1-11.9-1.87-23.81-2.88-35.71-.13-1.62.35-2,1.9-1.94,4.37.1,8.75.08,13.12,0,1.35,0,1.81.29,1.69,1.73-.81,9.68-1.54,19.38-2.3,29.07-.18,2.28-.38,4.56-.58,6.84a3.51,3.51,0,0,1-2.81.33c-.89-.46-2.2,0-2.79-1.15,1-3.24,2.37-6.36,3.08-9.7a33.89,33.89,0,0,0-2.22-20.58c-.16-.37-.28-.8-1-.94a34.71,34.71,0,0,0-3.35,12.69,36.28,36.28,0,0,0,3,16.44,2.78,2.78,0,0,1,.29,2.2A4.77,4.77,0,0,1,69.52,75.48Z"/><path class="cls-1" d="M69.52,75.48c1.76-.22,3.59-.07,5.24-.94l.1,0c.7,1,2,.12,2.76.81-.39.56-1,.57-1.61.7a2.14,2.14,0,0,0-1.87,1.07c-1.11,1.74-2.68,3.1-3.89,4.76-1.08,1.12-2.44,1.9-3.5,3a46.44,46.44,0,0,1-5.32,3.44,2.74,2.74,0,0,1-2.31.52l-1.35.65c-3.84.93-7.59,2.32-11.63,2.09.18-.41.37-.81.56-1.22a9.18,9.18,0,0,1,4.24-5L52.41,84a4.45,4.45,0,0,1,3.51-2.83l1.18-.81a4.11,4.11,0,0,1,3.41-2A85.81,85.81,0,0,1,69.52,75.48Z"/><path class="cls-1" d="M75.76,75.94c.43-.77,1.21-.49,1.86-.61l2.85.15a86.69,86.69,0,0,1,9,2.87,4.2,4.2,0,0,1,3.4,2l1.18.81a4.68,4.68,0,0,1,3.51,2.83L99,85.34a9.2,9.2,0,0,1,4.25,5l.56,1.22c-4,.26-7.79-1.19-11.63-2.09l-1.35-.65c-1.21.36-2.11-.4-3-.91a48.11,48.11,0,0,1-4.6-3,34,34,0,0,0-3.51-3.06c-1-1.23-2-2.4-3-3.59C76.15,77.64,75.39,77,75.76,75.94Z"/><path class="cls-9" d="M60.51,78.36l-3.41,2C56.55,78.1,55.33,77.05,53,78c-1.06.43-1.36-.05-1.41-1a16.05,16.05,0,0,0-.33-1.62c-.17-1.09-.69-2.31-.38-3.25.37-1.14,1.87-.76,2.9-1,.79-.17.88-.74,1-1.4a20.1,20.1,0,0,1,1-5.08c.54-1.39-.72-1.67-1.51-2-1.61-.68-1.87-1.54-.73-2.87a8.59,8.59,0,0,0,.72-1.26c1.48-2.58,1.49-2.6,4.22-1.18a1.16,1.16,0,0,0,1.72-.29,8.11,8.11,0,0,1,2.27-2.11c2.17-1.15,3-2.52,1.54-4.8-.74-1.19.55-1.15,1.11-1.41.86-.4,1,.19,1.1.92.13,2,.29,4,.45,6a1.38,1.38,0,0,1-.7,1.52A16.36,16.36,0,0,0,60.51,78.36Z"/><path class="cls-9" d="M92.89,80.3l-3.4-2c3.56-8.6,1.86-15.44-5.27-21a1.74,1.74,0,0,1-.85-1.69c.21-2,.35-4,.47-6,0-.79.33-1.25,1.14-.89.59.26,1.79.3,1,1.46-1.45,2.3-.59,3.71,1.61,4.76a2.79,2.79,0,0,1,1.08,1C90,57.72,91.36,58,93,56.48c.82-.74,1.41-.55,1.85.46a15.39,15.39,0,0,0,.93,1.62c1.59,2.74,1.62,2.78-1,4.58a1.22,1.22,0,0,0-.55,1.56,14.11,14.11,0,0,1,.7,3c.09,2.1.27,3.9,3.1,3.7.93-.06,1.31.58,1.06,1.53a20.33,20.33,0,0,0-.38,2c-.48,3.15-.48,3.2-3.67,2.71-.79-.13-1.14,0-1.37.72A14.5,14.5,0,0,1,92.89,80.3Z"/><path class="cls-9" d="M83.45,84.57a48.54,48.54,0,0,0,7.42,4.3c-.25.24-.53.45-.76.7-1.47,1.71-2.79,1.89-4-.31a1.19,1.19,0,0,0-2-.46,11.17,11.17,0,0,1-1.29.66c-1.25.69-3.23.33-3.82,1.62s-.3,2.88-.14,4.31c.25,2.06-.38,2.91-2.53,2.56-1.69-.27-4,.76-5-.42-.82-1-.3-3.2-.2-4.86.08-1.44-.2-2.39-1.86-2.51a3.64,3.64,0,0,1-1.55-.54c-2.06-1.23-3.87-1.56-5.13,1.06-.34.71-.81.55-1.32.08-.71-.66-1.46-1.26-2.2-1.89a48,48,0,0,0,7.41-4.3,3.27,3.27,0,0,1,1.62.34,15.4,15.4,0,0,0,13.69,0A3.21,3.21,0,0,1,83.45,84.57Z"/><path class="cls-10" d="M71.32,16.56c1.09-1.6,2-3,2.94-4.36.55-.83,1-.81,1.51,0,.22.36.5.67.74,1,.68,1,1.19,2.45,2.08,2.74s1.5-1.36,2.33-2.06c.66-.56,1-.49,1.43.24,1.79,3.33,2.45,6.79.91,10.38-1.31,3-5.2,4.55-9.94,4-4.14-.47-6.36-2.32-7.16-5.81a12.23,12.23,0,0,1,1.28-8.24c.59-1.23,1.13-1.15,1.89-.19C69.92,15,70.59,15.73,71.32,16.56Z"/><path class="cls-8" d="M40.84,88C29.36,82,25,74.27,26.63,62l1.13,2.8A32.62,32.62,0,0,0,38.83,79.34a2.59,2.59,0,0,1,1.32,2C40.32,83.44,40.59,85.57,40.84,88Z"/><path class="cls-8" d="M123.79,65a34,34,0,0,1-.94,8.24c-1.5,5.75-7.74,12.47-13.68,14.67.26-2.4.52-4.71.75-7,.08-.83.71-1.14,1.25-1.54a33.1,33.1,0,0,0,11.88-16.88C124.32,63,123.23,64.25,123.79,65Z"/><path class="cls-8" d="M29.43,53.26a40.48,40.48,0,0,0,9.75,15.12,2.1,2.1,0,0,1,.88,1.56c0,2.62,0,5.23,0,8.26-9-6.54-12.13-15.06-11.34-25.34C29.16,52.61,29.24,53,29.43,53.26Z"/><path class="cls-8" d="M121.28,52.86c.77,9.8-2.1,18.11-10,24.36-.3.24-.52.68-1.36.5,0-2.55,0-5.16,0-7.77a2.12,2.12,0,0,1,.88-1.57,40.6,40.6,0,0,0,9.75-15.12C120.74,53,120.83,52.61,121.28,52.86Z"/><path class="cls-8" d="M117.29,42.05c1.61,9.48.08,18-7.49,25.06-.48-2.82-.92-5.44-1.37-8.06a1.45,1.45,0,0,1,.4-1.33,34.77,34.77,0,0,0,5-7.37A75.64,75.64,0,0,0,117.29,42.05Z"/><path class="cls-8" d="M40.19,67.1c-7.56-7-9.11-15.55-7.69-25.07.75.15.62.81.77,1.28a37.83,37.83,0,0,0,7.55,14,2,2,0,0,1,.74,1.83C41.08,61.72,40.66,64.3,40.19,67.1Z"/><path class="cls-8" d="M112.3,31.07c2.82,7.94,2.55,18.75-4.4,25.14-.72-2.36-1.4-4.65-2.14-6.92a1.25,1.25,0,0,1,.36-1.31c3.87-4.76,5.52-10.33,6-16.33A2.29,2.29,0,0,1,112.3,31.07Z"/><path class="cls-8" d="M37.83,31c.47,6.51,2.1,12.18,6,17a1.62,1.62,0,0,1,.26,1.72c-.69,2.1-1.31,4.22-2,6.34C36.5,52.38,34.06,39,37.83,31Z"/><path class="cls-8" d="M97.58,83.94l-3.51-2.83c.43-1.58,1.21-2.35,3-1.65,1.54.61,2.65.3,2.61-1.73a3.1,3.1,0,0,1,2.23-3.09,35.86,35.86,0,0,0,6.35-3.93,54.54,54.54,0,0,1,.16,8.15c0,.81-.71.94-1.22,1.24A34.46,34.46,0,0,1,97.58,83.94Z"/><path class="cls-8" d="M55.92,81.12,52.41,84a38.1,38.1,0,0,1-9.63-3.82A2.07,2.07,0,0,1,41.52,78c.07-2.34,0-4.69,0-7.41a55.4,55.4,0,0,0,7.82,4.73c.93.43.89,1.43.89,2.18,0,2,.9,2.63,2.68,2S55.52,79.5,55.92,81.12Z"/><path class="cls-8" d="M49.83,73.73a35.26,35.26,0,0,1-7.23-4.4,1.64,1.64,0,0,1-.71-1.77c.36-2.47.65-4.94,1-7.51,1.17.12,1.68,1.05,2.42,1.59a33.64,33.64,0,0,0,7,4.13c1,.41,1.71.78,1.34,2.08-.29,1-.14,2.23-1.81,2.18C49.46,70,48.48,71,49.83,73.73Z"/><path class="cls-8" d="M106.93,59.79c.22,1.08.41,1.87.55,2.66,1.09,6.49,1,6.75-4.8,10-.66.37-1.34.7-2.07,1.08,0-.32-.16-.56-.09-.72,1-2.29-.42-2.82-2.15-2.8s-1.68-1.13-2-2.26c-.35-1.35.5-1.64,1.42-2A35.71,35.71,0,0,0,106.93,59.79Z"/><path class="cls-11" d="M106.69,97.31c.61-2.24,1.19-4.42,1.82-6.59a1.32,1.32,0,0,1,.66-.72c4.74-2.33,8.58-5.8,12.29-9.62C121.07,87.64,114.09,95.63,106.69,97.31Z"/><path class="cls-12" d="M75.19,30.74c2.37,0,4.73.07,7.1,0,1.27,0,1.7.27,1.57,1.62-.35,3.53.35,2.92-3.11,2.95-4.25,0-8.5-.09-12.74,0-2.84.09-1.51-2-1.84-3.18-.45-1.58.73-1.42,1.71-1.41C70.32,30.75,72.76,30.74,75.19,30.74Z"/><path class="cls-11" d="M43.14,97.32c-7.48-2-13.47-8.79-14.79-17.12a61.38,61.38,0,0,0,6.88,6.28,6.72,6.72,0,0,0,1.53,1.07C41.31,89.15,42.6,92.93,43.14,97.32Z"/><path class="cls-8" d="M96.74,63.74c2.69-1.7,2.69-1.69,1.08-4.49-.66-1.14-1.87-2.35-1.76-3.42S98.13,54.64,99.2,54a24.58,24.58,0,0,0,4-2.91c.8-.77,1.12-.94,1.58.37,2.27,6.51,2,7.38-4,11-1.06.64-2.21,1.13-3.31,1.69C97.12,64.35,96.73,64.48,96.74,63.74Z"/><path class="cls-8" d="M52.44,64.11a28.54,28.54,0,0,1-8-5.2,1.89,1.89,0,0,1-.76-2.16c.63-2.12,1.2-4.25,1.88-6.67a26,26,0,0,0,8,5.16c.93.35.45.8.19,1.26a39.23,39.23,0,0,1-2.2,3.78c-1.06,1.44-.78,2.3.81,2.91a5.94,5.94,0,0,1,.89.55C53.26,64.49,52.87,64.34,52.44,64.11Z"/><path class="cls-12" d="M50.94,85.34l-4.24,5c-4.26-1.34-4.27-1.34-4.68-5.9-.08-.88-.14-1.77-.25-3.16A53.58,53.58,0,0,0,50.94,85.34Z"/><path class="cls-12" d="M103.29,90.39l-4.25-5A51.57,51.57,0,0,0,108,81.46C108.44,87.59,107.67,89,103.29,90.39Z"/><path class="cls-13" d="M52.44,64.11l.81-.37c.43.14,1.18.41.83.81C53.54,65.19,53,64.44,52.44,64.11Z"/><path class="cls-13" d="M96.74,63.74l.81.36c-.52.34-1.1,1.09-1.64.45C95.56,64.14,96.31,63.89,96.74,63.74Z"/><path class="cls-14" d="M109.66,123l-.92-.5c.51-.27,1.09-.59,1.55-.08C110.45,122.58,110,122.92,109.66,123Z"/><path class="cls-15" d="M29.43,53.26l-.73-.4.09-1A1.54,1.54,0,0,1,29.43,53.26Z"/><path class="cls-8" d="M121.28,52.86l-.72.4a1.5,1.5,0,0,1,.64-1.38Z"/><path class="cls-16" d="M41.24,122.49l-.91.5c-.34-.08-.79-.41-.63-.59C40.16,121.9,40.74,122.21,41.24,122.49Z"/><path class="cls-6" d="M61,110.47c2.87,0,5.37-.07,7.86,0a2.16,2.16,0,0,0,2.27-1.35C72.29,107,73.55,105,75,102.48c1.33,2.26,2.63,4.25,3.69,6.36a2.65,2.65,0,0,0,2.92,1.66c2.34-.11,4.69,0,7.36,0a37.76,37.76,0,0,1-2.9,5c-1.78,2.21-1.53,4.11.07,6.25A48.21,48.21,0,0,1,89,126.67c-2.79,0-5.26.07-7.73,0a2.33,2.33,0,0,0-2.44,1.43c-1.13,2.13-2.39,4.19-3.78,6.6-1.35-2.32-2.64-4.34-3.73-6.46a2.56,2.56,0,0,0-2.78-1.57c-2.35.12-4.71,0-7.49,0,1.36-2.35,2.52-4.52,3.83-6.59a2.43,2.43,0,0,0,0-3C63.56,115,62.41,112.91,61,110.47Z"/><path class="cls-1" d="M74.86,74.52l-.1,0q-8-16.29-.05-32.52a.56.56,0,0,1,.74.35,34.86,34.86,0,0,1,.11,31.47C75.41,74.15,75.29,74.49,74.86,74.52Z"/><path class="cls-17" d="M75.76,75.94c1,2.19,3,3.68,4.33,5.63.84,2.63.33,3.59-2.3,4.18a12.56,12.56,0,0,1-5.59,0c-2.63-.6-3.14-1.55-2.3-4.19,1.5-1.89,3.06-3.73,4.48-5.68C75,75,75.32,75.56,75.76,75.94Z"/><path class="cls-18" d="M69.9,81.56c.3,3.49.82,3.87,5.2,3.85s4.68-.36,5-3.84l3.36,3a15.42,15.42,0,0,1-16.92,0Z"/><path class="cls-1" d="M75,16.28c2.86,4.57,3.38,4.77,5.7,2.36,1.6,2.69,1.45,5-.45,6.73a8.07,8.07,0,0,1-9.65.32c-2.56-2-3-4.81-1.32-8.28,1,.95,1.17,3.17,3.14,2.53C73.85,19.46,74.14,17.74,75,16.28Z"/></g></svg>