<?xml version="1.0" encoding="UTF-8"?>
<svg width="30px" height="27px" viewBox="0 0 30 27" version="1.1" xmlns="http://www.w3.org/2000/svg" xmlns:xlink="http://www.w3.org/1999/xlink">
    <title>Waze</title>
    <g id="2022" stroke="none" stroke-width="1" fill="none" fill-rule="evenodd">
        <g id="OpenbaseComplete" transform="translate(-24.000000, -250.000000)">
            <g id="Group-7" transform="translate(-10.000000, 63.000000)">
                <g id="Header" transform="translate(0.000000, 160.000000)">
                    <g id="Waze" transform="translate(34.000000, 27.000000)">
                        <path d="M16.7142857,23.4473684 C4.22383929,23.4473684 1.54467857,20.0041579 0.400446429,18.5333684 C0.141986401,18.2175787 0,17.8193027 0,17.4078947 C0,16.4287895 0.780696429,15.6315789 1.74107143,15.6315789 C2.34348214,15.6315789 4.17857143,15.6315789 4.17857143,12.1379211 L4.17857143,11.7236842 C4.17857143,5.25931579 9.80223214,0 16.7142857,0 C23.6263393,0 29.25,5.25931579 29.25,11.7236842 C29.25,18.1880526 23.6263393,23.4473684 16.7142857,23.4473684 Z" id="Path" fill="#37474F" fill-rule="nonzero"></path>
                        <path d="M16.7142857,22.0263158 C22.8581786,22.0263158 27.8571429,17.4043421 27.8571429,11.7236842 C27.8571429,6.04302632 22.8581786,1.42105263 16.7142857,1.42105263 C10.5703929,1.42105263 5.57142857,6.04302632 5.57142857,11.7236842 L5.57142857,12.1379211 C5.57142857,16.5737368 2.89226786,17.0526316 1.74107143,17.0526316 C1.54875799,17.0526316 1.39285714,17.2116883 1.39285714,17.4078947 C1.39332441,17.4910295 1.42353908,17.5711273 1.47782143,17.6331316 C2.50992857,18.9596842 4.89658929,22.0263158 16.7142857,22.0263158 Z" id="Path" fill="#F4F6F7" fill-rule="nonzero"></path>
                        <ellipse id="Oval" fill="#37474F" fill-rule="nonzero" cx="20.1964286" cy="9.23684211" rx="1.39285714" ry="1.42105263"></ellipse>
                        <ellipse id="Oval" fill="#37474F" fill-rule="nonzero" cx="13.2321429" cy="9.23684211" rx="1.39285714" ry="1.42105263"></ellipse>
                        <path d="M20.8928571,13.1447368 C20.8928571,13.1447368 20.3705357,16.3421053 16.7142857,16.3421053 C13.0580357,16.3421053 12.5357143,13.1447368 12.5357143,13.1447368" id="Path" stroke="#37474F" stroke-width="1.24000001" stroke-linecap="round" stroke-linejoin="round"></path>
                        <ellipse id="Oval" fill="#37474F" fill-rule="nonzero" cx="9.40178571" cy="23.8026316" rx="3.13392857" ry="3.19736842"></ellipse>
                        <ellipse id="Oval" fill="#607D8B" fill-rule="nonzero" cx="9.40178571" cy="23.8026316" rx="1.04464286" ry="1.06578947"></ellipse>
                        <ellipse id="Oval" fill="#37474F" fill-rule="nonzero" cx="20.5446429" cy="23.8026316" rx="3.13392857" ry="3.19736842"></ellipse>
                        <ellipse id="Oval" fill="#607D8B" fill-rule="nonzero" cx="20.5446429" cy="23.8026316" rx="1.04464286" ry="1.06578947"></ellipse>
                    </g>
                </g>
            </g>
        </g>
    </g>
</svg>