<svg xmlns="http://www.w3.org/2000/svg" width="29" height="29" viewBox="0 0 29 29">
    <g transform="translate(1.5 1.5)">
        <rect width="21" height="22" fill="#3ab4f2" stroke="#3ab4f2" stroke-linejoin="round" stroke-width="3px" rx="3" transform="translate(5)"/>
        <rect width="21" height="22" fill="#1a2239" stroke="#1a2239" stroke-linejoin="round" stroke-width="3px" rx="3" transform="translate(0 4)"/>
        <path fill="#fff" d="M318.314 121.9a6.107 6.107 0 0 1 .133-1.3 2.958 2.958 0 0 1 .406-.968 5.556 5.556 0 0 1 .786-.9 11.065 11.065 0 0 0 .96-1.01 1.778 1.778 0 0 0 .4-1.175 1.674 1.674 0 0 0-.381-1.176 1.434 1.434 0 0 0-1.109-.414 1.735 1.735 0 0 0-1.076.364 1.357 1.357 0 0 0-.488 1.151h-2.053a3.157 3.157 0 0 1 .488-1.78 3 3 0 0 1 1.3-1.068 4.46 4.46 0 0 1 1.83-.364 3.752 3.752 0 0 1 2.607.844 3 3 0 0 1 .935 2.359 2.936 2.936 0 0 1-.29 1.316 4.758 4.758 0 0 1-.762 1.093q-.464.5-1 1.01a2.158 2.158 0 0 0-.621.9 3.79 3.79 0 0 0-.166 1.118zm-.166 2.566a1.1 1.1 0 0 1 .306-.786 1.148 1.148 0 0 1 .861-.323 1.118 1.118 0 0 1 .852.323 1.084 1.084 0 0 1 .315.786 1.065 1.065 0 0 1-.315.786 1.134 1.134 0 0 1-.852.315 1.164 1.164 0 0 1-.861-.315 1.081 1.081 0 0 1-.306-.783z" transform="translate(-308.789 -104.696)"/>
    </g>
</svg>
