<svg xmlns="http://www.w3.org/2000/svg" width="930.581" height="125.939" viewBox="0 0 930.581 125.939">
    <defs>
        <linearGradient id="linear-gradient" x1="35.068" x2="-8.979" y1="-.663" y2="1" gradientUnits="objectBoundingBox">
            <stop offset="0" stop-color="#7bd1fc"/>
            <stop offset="1" stop-color="#3bb5f2"/>
        </linearGradient>
        <style>
            .cls-2{fill:url(#linear-gradient)}
        </style>
    </defs>
    <g id="quiz_patern" opacity="0.568" transform="translate(301.138 -512.755)">
        <g id="Group_545" transform="translate(-301.138 512.755)">
            <path id="Path_76" d="M-263.052 564.014a16.493 16.493 0 0 1-1.12-3.328 7.965 7.965 0 0 1-.082-2.82 14.936 14.936 0 0 1 .923-3.075 29.766 29.766 0 0 0 1.226-3.538 4.779 4.779 0 0 0-.329-3.319 4.5 4.5 0 0 0-2.239-2.454 3.847 3.847 0 0 0-3.172.221 4.655 4.655 0 0 0-2.228 2.086 3.646 3.646 0 0 0 .085 3.357l-5.022 2.283a8.493 8.493 0 0 1-.786-4.9 8.07 8.07 0 0 1 1.994-4.058 11.956 11.956 0 0 1 4.072-2.925 10.083 10.083 0 0 1 7.315-.834 8.061 8.061 0 0 1 4.909 4.732 7.876 7.876 0 0 1 .753 3.541 12.771 12.771 0 0 1-.649 3.522q-.578 1.738-1.323 3.582a5.8 5.8 0 0 0-.52 2.893 10.174 10.174 0 0 0 .837 2.919zm2.447 6.461a2.955 2.955 0 0 1-.126-2.263 3.087 3.087 0 0 1 1.747-1.747 3.007 3.007 0 0 1 2.444-.157 2.916 2.916 0 0 1 1.644 1.573 2.865 2.865 0 0 1 .1 2.273 3.047 3.047 0 0 1-1.734 1.717 3.127 3.127 0 0 1-2.457.187 2.909 2.909 0 0 1-1.618-1.575z" class="cls-2" transform="translate(316.633 -495.814)"/>
            <path id="Path_76-2" d="M-238.45 581.183a16.242 16.242 0 0 1-1.12-3.327 7.929 7.929 0 0 1-.084-2.82 14.938 14.938 0 0 1 .923-3.075 29.768 29.768 0 0 0 1.226-3.538 4.787 4.787 0 0 0-.328-3.319 4.5 4.5 0 0 0-2.239-2.454 3.857 3.857 0 0 0-3.173.219 4.667 4.667 0 0 0-2.228 2.088 3.646 3.646 0 0 0 .085 3.357l-5.022 2.283a8.483 8.483 0 0 1-.784-4.9 8.062 8.062 0 0 1 1.992-4.057 11.974 11.974 0 0 1 4.072-2.923 10.078 10.078 0 0 1 7.317-.834 8.06 8.06 0 0 1 4.909 4.732 7.92 7.92 0 0 1 .753 3.541 12.751 12.751 0 0 1-.65 3.52q-.578 1.74-1.323 3.583a5.814 5.814 0 0 0-.52 2.893 10.24 10.24 0 0 0 .837 2.919zm2.446 6.463a2.963 2.963 0 0 1-.126-2.264 3.088 3.088 0 0 1 1.747-1.747 3.006 3.006 0 0 1 2.444-.156 2.91 2.91 0 0 1 1.644 1.573 2.862 2.862 0 0 1 .1 2.272 3.045 3.045 0 0 1-1.734 1.718 3.133 3.133 0 0 1-2.457.187 2.906 2.906 0 0 1-1.614-1.577z" class="cls-2" transform="translate(331.721 -485.283)"/>
            <path id="Path_76-3" d="M-277.58 591.055a16.388 16.388 0 0 1-1.12-3.328 7.93 7.93 0 0 1-.082-2.82 14.929 14.929 0 0 1 .921-3.075 29.776 29.776 0 0 0 1.226-3.538 4.77 4.77 0 0 0-.328-3.319 4.5 4.5 0 0 0-2.239-2.454 3.851 3.851 0 0 0-3.173.221 4.655 4.655 0 0 0-2.228 2.086 3.646 3.646 0 0 0 .086 3.357l-5.022 2.283a8.492 8.492 0 0 1-.784-4.9 8.066 8.066 0 0 1 1.993-4.059 11.988 11.988 0 0 1 4.072-2.923 10.087 10.087 0 0 1 7.317-.834 8.065 8.065 0 0 1 4.909 4.732 7.876 7.876 0 0 1 .753 3.541 12.833 12.833 0 0 1-.649 3.522q-.581 1.738-1.325 3.582a5.794 5.794 0 0 0-.518 2.893 10.18 10.18 0 0 0 .836 2.918zm2.446 6.461a2.955 2.955 0 0 1-.124-2.263 3.084 3.084 0 0 1 1.747-1.747 3 3 0 0 1 2.443-.156 2.907 2.907 0 0 1 1.644 1.573 2.865 2.865 0 0 1 .1 2.273 3.042 3.042 0 0 1-1.734 1.717 3.13 3.13 0 0 1-2.456.187 2.9 2.9 0 0 1-1.62-1.576z" class="cls-2" transform="translate(307.722 -479.228)"/>
            <path id="Path_76-4" d="M-251.215 536.612a16.226 16.226 0 0 1-1.12-3.328 7.918 7.918 0 0 1-.084-2.819 14.931 14.931 0 0 1 .923-3.075 29.884 29.884 0 0 0 1.226-3.538 4.788 4.788 0 0 0-.328-3.319 4.5 4.5 0 0 0-2.239-2.454 3.856 3.856 0 0 0-3.173.219 4.666 4.666 0 0 0-2.228 2.088 3.646 3.646 0 0 0 .085 3.357l-5.022 2.283a8.484 8.484 0 0 1-.784-4.9 8.061 8.061 0 0 1 1.993-4.058 12 12 0 0 1 4.072-2.925 10.086 10.086 0 0 1 7.317-.832 8.061 8.061 0 0 1 4.909 4.732 7.916 7.916 0 0 1 .753 3.541 12.765 12.765 0 0 1-.65 3.52q-.578 1.74-1.323 3.583a5.81 5.81 0 0 0-.519 2.891 10.235 10.235 0 0 0 .837 2.92zm2.446 6.463a2.963 2.963 0 0 1-.126-2.263 3.087 3.087 0 0 1 1.747-1.747 3.007 3.007 0 0 1 2.444-.157 2.914 2.914 0 0 1 1.644 1.571 2.866 2.866 0 0 1 .1 2.273 3.05 3.05 0 0 1-1.734 1.718 3.133 3.133 0 0 1-2.457.187 2.906 2.906 0 0 1-1.618-1.576z" class="cls-2" transform="translate(323.893 -512.621)"/>
            <path id="Path_76-5" d="M-288.314 550.035a16.382 16.382 0 0 1-1.12-3.328 7.966 7.966 0 0 1-.084-2.82 15.036 15.036 0 0 1 .923-3.075 29.767 29.767 0 0 0 1.226-3.538 4.779 4.779 0 0 0-.328-3.319 4.5 4.5 0 0 0-2.239-2.454 3.857 3.857 0 0 0-3.173.22 4.666 4.666 0 0 0-2.228 2.088 3.646 3.646 0 0 0 .085 3.357l-5.022 2.283a8.483 8.483 0 0 1-.784-4.9 8.062 8.062 0 0 1 1.993-4.058 11.972 11.972 0 0 1 4.072-2.923 10.079 10.079 0 0 1 7.317-.834 8.06 8.06 0 0 1 4.909 4.732 7.9 7.9 0 0 1 .753 3.541 12.809 12.809 0 0 1-.649 3.52q-.581 1.74-1.325 3.583a5.794 5.794 0 0 0-.512 2.89 10.184 10.184 0 0 0 .836 2.919zm2.446 6.462a2.955 2.955 0 0 1-.124-2.263 3.08 3.08 0 0 1 1.746-1.747 3.007 3.007 0 0 1 2.444-.157 2.907 2.907 0 0 1 1.644 1.573 2.861 2.861 0 0 1 .1 2.272 3.045 3.045 0 0 1-1.734 1.718 3.129 3.129 0 0 1-2.456.187 2.9 2.9 0 0 1-1.62-1.576z" class="cls-2" transform="translate(301.138 -504.388)"/>
            <path id="Path_76-6" d="M-248.78 550.194a10.773 10.773 0 0 1 1.8-1.462 5.259 5.259 0 0 1 1.723-.705 9.855 9.855 0 0 1 2.112-.142 19.739 19.739 0 0 0 2.47-.063 3.147 3.147 0 0 0 1.973-.971 2.969 2.969 0 0 0 1-1.952 2.539 2.539 0 0 0-.871-1.909 3.064 3.064 0 0 0-1.805-.892 2.4 2.4 0 0 0-2.054.831l-2.573-2.573a5.6 5.6 0 0 1 2.843-1.62 5.319 5.319 0 0 1 2.969.292 7.914 7.914 0 0 1 2.749 1.836 6.66 6.66 0 0 1 2.21 4.325 5.322 5.322 0 0 1-1.786 4.129 5.184 5.184 0 0 1-2.012 1.286 8.389 8.389 0 0 1-2.325.415q-1.21.046-2.52.013a3.816 3.816 0 0 0-1.905.35 6.712 6.712 0 0 0-1.61 1.194zm-3.42 3.006a1.952 1.952 0 0 1 1.368-.6 2.033 2.033 0 0 1 1.484.674 1.989 1.989 0 0 1 .663 1.473 1.921 1.921 0 0 1-.59 1.38 1.894 1.894 0 0 1-1.381.59 2.012 2.012 0 0 1-1.462-.673 2.058 2.058 0 0 1-.684-1.475 1.92 1.92 0 0 1 .6-1.365z" class="cls-2" transform="translate(330.783 -496.875)"/>
            <path id="Path_76-7" d="M-264.42 580.69a10.842 10.842 0 0 1 1.8-1.462 5.258 5.258 0 0 1 1.723-.705 9.871 9.871 0 0 1 2.113-.142 19.652 19.652 0 0 0 2.468-.063 3.147 3.147 0 0 0 1.973-.971 2.969 2.969 0 0 0 1-1.952 2.539 2.539 0 0 0-.871-1.909 3.073 3.073 0 0 0-1.8-.892 2.4 2.4 0 0 0-2.055.831l-2.573-2.573a5.614 5.614 0 0 1 2.843-1.62 5.319 5.319 0 0 1 2.969.292 7.881 7.881 0 0 1 2.749 1.838 6.649 6.649 0 0 1 2.21 4.324 5.315 5.315 0 0 1-1.784 4.128 5.2 5.2 0 0 1-2.013 1.286 8.446 8.446 0 0 1-2.325.416q-1.208.043-2.52.011a3.839 3.839 0 0 0-1.905.35 6.711 6.711 0 0 0-1.61 1.194zm-3.423 3.009a1.951 1.951 0 0 1 1.368-.6 2.036 2.036 0 0 1 1.484.674 1.983 1.983 0 0 1 .663 1.473 1.92 1.92 0 0 1-.59 1.379 1.89 1.89 0 0 1-1.379.591 2.016 2.016 0 0 1-1.463-.673 2.064 2.064 0 0 1-.684-1.475 1.915 1.915 0 0 1 .6-1.365z" class="cls-2" transform="translate(321.19 -478.171)"/>
            <path id="Path_76-8" d="M-275.927 536.772a10.851 10.851 0 0 1 1.8-1.462 5.259 5.259 0 0 1 1.723-.7 9.856 9.856 0 0 1 2.112-.144 19.429 19.429 0 0 0 2.47-.061 3.156 3.156 0 0 0 1.973-.971 2.97 2.97 0 0 0 1-1.952 2.539 2.539 0 0 0-.871-1.909 3.064 3.064 0 0 0-1.805-.892 2.4 2.4 0 0 0-2.054.831l-2.573-2.573a5.6 5.6 0 0 1 2.843-1.62 5.335 5.335 0 0 1 2.969.29 7.926 7.926 0 0 1 2.749 1.838 6.66 6.66 0 0 1 2.21 4.325 5.317 5.317 0 0 1-1.786 4.129 5.186 5.186 0 0 1-2.012 1.286 8.385 8.385 0 0 1-2.325.415q-1.21.046-2.52.013a3.816 3.816 0 0 0-1.905.35 6.7 6.7 0 0 0-1.61 1.192zm-3.424 3.009a1.946 1.946 0 0 1 1.368-.6 2.032 2.032 0 0 1 1.484.674 1.982 1.982 0 0 1 .663 1.471 1.924 1.924 0 0 1-.59 1.381 1.894 1.894 0 0 1-1.381.59 2.012 2.012 0 0 1-1.462-.673 2.058 2.058 0 0 1-.684-1.475 1.914 1.914 0 0 1 .6-1.365z" class="cls-2" transform="translate(314.132 -505.108)"/>
            <path id="Path_76-9" d="M-292.688 565.492a10.942 10.942 0 0 1 1.8-1.463 5.225 5.225 0 0 1 1.723-.7 9.856 9.856 0 0 1 2.112-.144 19.739 19.739 0 0 0 2.47-.063 3.147 3.147 0 0 0 1.973-.971 2.962 2.962 0 0 0 1-1.951 2.539 2.539 0 0 0-.871-1.909 3.075 3.075 0 0 0-1.805-.894 2.41 2.41 0 0 0-2.054.831l-2.573-2.572a5.585 5.585 0 0 1 2.843-1.62 5.319 5.319 0 0 1 2.969.29 7.883 7.883 0 0 1 2.749 1.838 6.66 6.66 0 0 1 2.21 4.325 5.314 5.314 0 0 1-1.786 4.128 5.185 5.185 0 0 1-2.012 1.286 8.444 8.444 0 0 1-2.325.415q-1.208.046-2.52.013a3.8 3.8 0 0 0-1.905.35 6.707 6.707 0 0 0-1.61 1.192zm-3.424 3.007a1.952 1.952 0 0 1 1.368-.6 2.046 2.046 0 0 1 1.484.674 1.985 1.985 0 0 1 .663 1.473 1.924 1.924 0 0 1-.59 1.381 1.888 1.888 0 0 1-1.379.589 2 2 0 0 1-1.463-.673 2.06 2.06 0 0 1-.684-1.473 1.914 1.914 0 0 1 .6-1.365z" class="cls-2" transform="translate(303.852 -487.493)"/>
            <path id="Path_76-10" d="M-200.469 563.795a16.358 16.358 0 0 1-1.12-3.328 7.921 7.921 0 0 1-.082-2.819 14.979 14.979 0 0 1 .921-3.077 29.735 29.735 0 0 0 1.226-3.536 4.774 4.774 0 0 0-.328-3.32 4.5 4.5 0 0 0-2.239-2.452 3.851 3.851 0 0 0-3.173.219 4.663 4.663 0 0 0-2.228 2.086 3.649 3.649 0 0 0 .086 3.359l-5.022 2.281a8.488 8.488 0 0 1-.784-4.9 8.055 8.055 0 0 1 1.992-4.058 11.991 11.991 0 0 1 4.072-2.925 10.079 10.079 0 0 1 7.317-.832 8.062 8.062 0 0 1 4.909 4.73 7.882 7.882 0 0 1 .753 3.543 12.834 12.834 0 0 1-.649 3.52q-.581 1.74-1.325 3.583a5.791 5.791 0 0 0-.518 2.891 10.178 10.178 0 0 0 .836 2.92zm2.446 6.461a2.951 2.951 0 0 1-.124-2.262 3.078 3.078 0 0 1 1.747-1.747 3 3 0 0 1 2.443-.158 2.916 2.916 0 0 1 1.644 1.573 2.865 2.865 0 0 1 .1 2.273 3.049 3.049 0 0 1-1.734 1.718 3.122 3.122 0 0 1-2.456.186 2.9 2.9 0 0 1-1.62-1.575z" class="cls-2" transform="translate(355.018 -495.948)"/>
            <path id="Path_76-11" d="M-175.869 580.965a16.49 16.49 0 0 1-1.12-3.328 7.966 7.966 0 0 1-.082-2.82 14.939 14.939 0 0 1 .921-3.075 29.38 29.38 0 0 0 1.226-3.538 4.77 4.77 0 0 0-.328-3.319 4.506 4.506 0 0 0-2.239-2.454 3.851 3.851 0 0 0-3.173.221 4.658 4.658 0 0 0-2.226 2.086 3.645 3.645 0 0 0 .086 3.359l-5.022 2.281a8.48 8.48 0 0 1-.786-4.9 8.057 8.057 0 0 1 1.994-4.058 11.955 11.955 0 0 1 4.072-2.925 10.083 10.083 0 0 1 7.315-.834 8.065 8.065 0 0 1 4.909 4.732 7.876 7.876 0 0 1 .753 3.541 12.772 12.772 0 0 1-.649 3.522q-.581 1.737-1.325 3.582a5.8 5.8 0 0 0-.518 2.893 10.1 10.1 0 0 0 .837 2.919zm2.446 6.461a2.955 2.955 0 0 1-.124-2.263 3.087 3.087 0 0 1 1.747-1.747 3 3 0 0 1 2.443-.157 2.906 2.906 0 0 1 1.644 1.573 2.852 2.852 0 0 1 .1 2.273 3.04 3.04 0 0 1-1.733 1.717 3.127 3.127 0 0 1-2.457.187 2.911 2.911 0 0 1-1.62-1.575z" class="cls-2" transform="translate(370.106 -485.417)"/>
            <path id="Path_76-12" d="M-215 590.836a16.456 16.456 0 0 1-1.12-3.328 7.958 7.958 0 0 1-.082-2.819 14.918 14.918 0 0 1 .923-3.077 29.671 29.671 0 0 0 1.226-3.538 4.78 4.78 0 0 0-.329-3.319 4.491 4.491 0 0 0-2.239-2.452 3.847 3.847 0 0 0-3.172.219 4.656 4.656 0 0 0-2.228 2.086 3.649 3.649 0 0 0 .086 3.359l-5.022 2.281a8.492 8.492 0 0 1-.786-4.9 8.071 8.071 0 0 1 1.994-4.058 11.977 11.977 0 0 1 4.072-2.925 10.074 10.074 0 0 1 7.315-.832 8.054 8.054 0 0 1 4.909 4.73 7.883 7.883 0 0 1 .753 3.543 12.772 12.772 0 0 1-.649 3.52q-.578 1.74-1.323 3.582a5.8 5.8 0 0 0-.52 2.893 10.181 10.181 0 0 0 .837 2.92zm2.447 6.461a2.951 2.951 0 0 1-.126-2.262 3.078 3.078 0 0 1 1.747-1.747 3.006 3.006 0 0 1 2.444-.158 2.921 2.921 0 0 1 1.644 1.573 2.866 2.866 0 0 1 .1 2.273 3.054 3.054 0 0 1-1.734 1.718 3.126 3.126 0 0 1-2.457.186 2.908 2.908 0 0 1-1.618-1.575z" class="cls-2" transform="translate(346.107 -479.363)"/>
            <path id="Path_76-13" d="M-188.633 536.394a16.486 16.486 0 0 1-1.12-3.328 7.968 7.968 0 0 1-.082-2.82 14.836 14.836 0 0 1 .923-3.075 29.761 29.761 0 0 0 1.225-3.538 4.769 4.769 0 0 0-.328-3.319 4.5 4.5 0 0 0-2.239-2.454 3.852 3.852 0 0 0-3.173.221 4.659 4.659 0 0 0-2.226 2.086 3.641 3.641 0 0 0 .086 3.357l-5.022 2.283a8.48 8.48 0 0 1-.786-4.9 8.056 8.056 0 0 1 1.994-4.057 11.955 11.955 0 0 1 4.072-2.925 10.084 10.084 0 0 1 7.315-.834 8.061 8.061 0 0 1 4.909 4.732 7.877 7.877 0 0 1 .753 3.541 12.771 12.771 0 0 1-.649 3.522q-.581 1.738-1.325 3.582a5.794 5.794 0 0 0-.518 2.893 10.134 10.134 0 0 0 .837 2.919zm2.446 6.462a2.956 2.956 0 0 1-.124-2.264 3.087 3.087 0 0 1 1.747-1.747 3 3 0 0 1 2.443-.157 2.906 2.906 0 0 1 1.644 1.573 2.851 2.851 0 0 1 .1 2.273 3.039 3.039 0 0 1-1.733 1.717 3.134 3.134 0 0 1-2.457.187 2.909 2.909 0 0 1-1.62-1.576z" class="cls-2" transform="translate(362.277 -512.755)"/>
            <path id="Path_76-14" d="M-225.732 549.816a16.488 16.488 0 0 1-1.12-3.328 7.966 7.966 0 0 1-.082-2.82 14.838 14.838 0 0 1 .923-3.075 29.667 29.667 0 0 0 1.225-3.538 4.77 4.77 0 0 0-.328-3.319 4.5 4.5 0 0 0-2.239-2.454 3.851 3.851 0 0 0-3.173.221 4.658 4.658 0 0 0-2.226 2.086 3.65 3.65 0 0 0 .086 3.359l-5.022 2.281a8.493 8.493 0 0 1-.786-4.9 8.057 8.057 0 0 1 1.994-4.058 11.956 11.956 0 0 1 4.072-2.925 10.083 10.083 0 0 1 7.315-.834 8.061 8.061 0 0 1 4.909 4.732 7.877 7.877 0 0 1 .753 3.541 12.771 12.771 0 0 1-.649 3.522q-.578 1.738-1.323 3.582a5.8 5.8 0 0 0-.519 2.893 10.157 10.157 0 0 0 .837 2.919zm2.447 6.461a2.948 2.948 0 0 1-.126-2.263 3.087 3.087 0 0 1 1.747-1.747 3 3 0 0 1 2.443-.157 2.914 2.914 0 0 1 1.646 1.573 2.866 2.866 0 0 1 .1 2.273 3.047 3.047 0 0 1-1.734 1.717 3.127 3.127 0 0 1-2.457.187 2.909 2.909 0 0 1-1.618-1.575z" class="cls-2" transform="translate(339.523 -504.522)"/>
            <path id="Path_76-15" d="M-186.2 549.976a10.881 10.881 0 0 1 1.8-1.463 5.25 5.25 0 0 1 1.721-.705 9.863 9.863 0 0 1 2.113-.142 19.7 19.7 0 0 0 2.468-.063 3.155 3.155 0 0 0 1.975-.971 2.97 2.97 0 0 0 1-1.952 2.544 2.544 0 0 0-.871-1.909 3.083 3.083 0 0 0-1.8-.892 2.415 2.415 0 0 0-2.055.831l-2.572-2.573a5.588 5.588 0 0 1 2.843-1.618 5.315 5.315 0 0 1 2.967.291 7.881 7.881 0 0 1 2.749 1.838 6.642 6.642 0 0 1 2.21 4.325 5.32 5.32 0 0 1-1.784 4.129 5.24 5.24 0 0 1-2.013 1.286 8.439 8.439 0 0 1-2.325.415q-1.208.044-2.518.013a3.826 3.826 0 0 0-1.907.348 6.713 6.713 0 0 0-1.609 1.194zm-3.424 3.007a1.952 1.952 0 0 1 1.368-.6 2.036 2.036 0 0 1 1.484.675 1.977 1.977 0 0 1 .663 1.473 1.918 1.918 0 0 1-.59 1.379 1.883 1.883 0 0 1-1.379.59 2.01 2.01 0 0 1-1.463-.673 2.071 2.071 0 0 1-.684-1.475 1.921 1.921 0 0 1 .6-1.365z" class="cls-2" transform="translate(369.168 -497.009)"/>
            <path id="Path_76-16" d="M-201.836 580.472a10.8 10.8 0 0 1 1.8-1.463 5.21 5.21 0 0 1 1.721-.7 9.765 9.765 0 0 1 2.113-.144 19.682 19.682 0 0 0 2.468-.063 3.151 3.151 0 0 0 1.975-.971 2.965 2.965 0 0 0 1-1.95 2.55 2.55 0 0 0-.871-1.91 3.092 3.092 0 0 0-1.805-.892 2.409 2.409 0 0 0-2.054.831l-2.573-2.573a5.593 5.593 0 0 1 2.843-1.618 5.312 5.312 0 0 1 2.967.29 7.9 7.9 0 0 1 2.751 1.838 6.647 6.647 0 0 1 2.209 4.325 5.32 5.32 0 0 1-1.784 4.129 5.21 5.21 0 0 1-2.013 1.286 8.435 8.435 0 0 1-2.325.415q-1.208.046-2.518.013a3.824 3.824 0 0 0-1.907.349 6.776 6.776 0 0 0-1.609 1.194zm-3.425 3.007a1.955 1.955 0 0 1 1.37-.6 2.035 2.035 0 0 1 1.483.674 1.977 1.977 0 0 1 .663 1.473 1.917 1.917 0 0 1-.59 1.379 1.881 1.881 0 0 1-1.379.59 2 2 0 0 1-1.462-.673 2.065 2.065 0 0 1-.686-1.473 1.916 1.916 0 0 1 .6-1.365z" class="cls-2" transform="translate(359.575 -478.305)"/>
            <path id="Path_76-17" d="M-213.345 536.553a10.792 10.792 0 0 1 1.8-1.462 5.253 5.253 0 0 1 1.721-.705 9.858 9.858 0 0 1 2.113-.142 19.721 19.721 0 0 0 2.468-.063 3.155 3.155 0 0 0 1.975-.971 2.971 2.971 0 0 0 1-1.952 2.541 2.541 0 0 0-.871-1.909 3.074 3.074 0 0 0-1.8-.892 2.4 2.4 0 0 0-2.054.831l-2.573-2.573a5.589 5.589 0 0 1 2.843-1.618 5.3 5.3 0 0 1 2.967.291 7.9 7.9 0 0 1 2.751 1.838 6.647 6.647 0 0 1 2.209 4.324 5.316 5.316 0 0 1-1.784 4.129 5.2 5.2 0 0 1-2.013 1.286 8.448 8.448 0 0 1-2.325.416q-1.208.044-2.518.011a3.843 3.843 0 0 0-1.907.35 6.7 6.7 0 0 0-1.609 1.194zm-3.424 3.009a1.952 1.952 0 0 1 1.368-.6 2.036 2.036 0 0 1 1.484.674 1.977 1.977 0 0 1 .663 1.473 1.921 1.921 0 0 1-.591 1.38 1.89 1.89 0 0 1-1.379.59 2.016 2.016 0 0 1-1.463-.673 2.071 2.071 0 0 1-.684-1.475 1.922 1.922 0 0 1 .6-1.365z" class="cls-2" transform="translate(352.517 -505.242)"/>
            <path id="Path_76-18" d="M-230.1 565.273a10.7 10.7 0 0 1 1.8-1.462 5.251 5.251 0 0 1 1.721-.7 9.859 9.859 0 0 1 2.113-.142 19.713 19.713 0 0 0 2.468-.063 3.16 3.16 0 0 0 1.975-.971 2.974 2.974 0 0 0 1-1.952 2.543 2.543 0 0 0-.87-1.909 3.072 3.072 0 0 0-1.805-.892 2.4 2.4 0 0 0-2.054.831l-2.573-2.573a5.59 5.59 0 0 1 2.843-1.62 5.328 5.328 0 0 1 2.967.29 7.949 7.949 0 0 1 2.751 1.838 6.651 6.651 0 0 1 2.209 4.325 5.316 5.316 0 0 1-1.784 4.129 5.2 5.2 0 0 1-2.013 1.286 8.387 8.387 0 0 1-2.325.415q-1.208.046-2.518.013a3.825 3.825 0 0 0-1.907.35 6.7 6.7 0 0 0-1.609 1.192zm-3.425 3.009a1.946 1.946 0 0 1 1.37-.6 2.03 2.03 0 0 1 1.483.674 1.978 1.978 0 0 1 .663 1.473 1.923 1.923 0 0 1-.591 1.379 1.89 1.89 0 0 1-1.379.591 2.016 2.016 0 0 1-1.463-.673 2.071 2.071 0 0 1-.684-1.475 1.918 1.918 0 0 1 .6-1.365z" class="cls-2" transform="translate(342.237 -487.627)"/>
            <path id="Path_76-19" d="M-135.346 567.671a16.356 16.356 0 0 1-1.12-3.328 7.956 7.956 0 0 1-.084-2.818 15.032 15.032 0 0 1 .923-3.075 29.874 29.874 0 0 0 1.226-3.538 4.779 4.779 0 0 0-.327-3.319 4.5 4.5 0 0 0-2.239-2.454 3.856 3.856 0 0 0-3.173.219 4.67 4.67 0 0 0-2.228 2.086 3.649 3.649 0 0 0 .086 3.359l-5.022 2.283a8.482 8.482 0 0 1-.784-4.9 8.061 8.061 0 0 1 1.992-4.058 12 12 0 0 1 4.072-2.925 10.087 10.087 0 0 1 7.317-.833 8.061 8.061 0 0 1 4.907 4.73 7.894 7.894 0 0 1 .753 3.541 12.763 12.763 0 0 1-.65 3.52q-.578 1.74-1.323 3.583a5.792 5.792 0 0 0-.518 2.891 10.177 10.177 0 0 0 .836 2.92zm2.446 6.463a2.963 2.963 0 0 1-.126-2.264 3.088 3.088 0 0 1 1.747-1.747 3.007 3.007 0 0 1 2.444-.156 2.909 2.909 0 0 1 1.644 1.571 2.865 2.865 0 0 1 .1 2.273 3.049 3.049 0 0 1-1.734 1.718 3.123 3.123 0 0 1-2.456.186 2.9 2.9 0 0 1-1.62-1.575z" class="cls-2" transform="translate(394.961 -493.571)"/>
            <path id="Path_76-20" d="M-110.746 584.841a16.455 16.455 0 0 1-1.12-3.328 7.921 7.921 0 0 1-.082-2.819 14.946 14.946 0 0 1 .921-3.077 29.758 29.758 0 0 0 1.226-3.536 4.774 4.774 0 0 0-.328-3.32 4.5 4.5 0 0 0-2.239-2.452 3.851 3.851 0 0 0-3.173.219 4.669 4.669 0 0 0-2.228 2.086 3.644 3.644 0 0 0 .087 3.359l-5.022 2.281a8.476 8.476 0 0 1-.786-4.9 8.067 8.067 0 0 1 1.99-4.054 12.007 12.007 0 0 1 4.072-2.925 10.079 10.079 0 0 1 7.317-.833 8.062 8.062 0 0 1 4.909 4.73 7.883 7.883 0 0 1 .753 3.543 12.771 12.771 0 0 1-.649 3.52q-.581 1.74-1.325 3.582a5.8 5.8 0 0 0-.518 2.893 10.182 10.182 0 0 0 .836 2.92zm2.446 6.462a2.951 2.951 0 0 1-.124-2.262 3.078 3.078 0 0 1 1.747-1.747 3 3 0 0 1 2.443-.158 2.912 2.912 0 0 1 1.644 1.573 2.859 2.859 0 0 1 .1 2.273 3.05 3.05 0 0 1-1.734 1.718 3.122 3.122 0 0 1-2.455.186 2.907 2.907 0 0 1-1.62-1.575z" class="cls-2" transform="translate(410.049 -483.04)"/>
            <path id="Path_76-21" d="M-149.875 594.712a16.454 16.454 0 0 1-1.12-3.328 7.956 7.956 0 0 1-.082-2.819 14.843 14.843 0 0 1 .923-3.075 29.844 29.844 0 0 0 1.225-3.538 4.774 4.774 0 0 0-.328-3.32 4.491 4.491 0 0 0-2.239-2.452 3.856 3.856 0 0 0-3.173.219 4.666 4.666 0 0 0-2.226 2.086 3.649 3.649 0 0 0 .086 3.359l-5.022 2.281a8.489 8.489 0 0 1-.786-4.9 8.058 8.058 0 0 1 1.994-4.058 12 12 0 0 1 4.072-2.925 10.082 10.082 0 0 1 7.315-.832 8.056 8.056 0 0 1 4.909 4.732 7.872 7.872 0 0 1 .753 3.541 12.761 12.761 0 0 1-.649 3.52q-.578 1.74-1.323 3.583a5.793 5.793 0 0 0-.52 2.891 10.131 10.131 0 0 0 .837 2.92zm2.447 6.461a2.944 2.944 0 0 1-.126-2.262 3.084 3.084 0 0 1 1.747-1.747 3 3 0 0 1 2.443-.158 2.924 2.924 0 0 1 1.646 1.573 2.865 2.865 0 0 1 .1 2.273 3.054 3.054 0 0 1-1.734 1.718 3.127 3.127 0 0 1-2.457.185 2.9 2.9 0 0 1-1.618-1.575z" class="cls-2" transform="translate(386.05 -476.985)"/>
            <path id="Path_76-22" d="M-123.51 540.27a16.49 16.49 0 0 1-1.12-3.328 7.929 7.929 0 0 1-.082-2.82 14.933 14.933 0 0 1 .921-3.075 29.661 29.661 0 0 0 1.226-3.538 4.77 4.77 0 0 0-.327-3.319 4.506 4.506 0 0 0-2.239-2.454 3.857 3.857 0 0 0-3.173.221 4.67 4.67 0 0 0-2.228 2.086 3.645 3.645 0 0 0 .087 3.359l-5.022 2.281a8.481 8.481 0 0 1-.786-4.9 8.068 8.068 0 0 1 1.992-4.057 11.986 11.986 0 0 1 4.072-2.925 10.088 10.088 0 0 1 7.317-.834 8.069 8.069 0 0 1 4.909 4.732 7.879 7.879 0 0 1 .753 3.543 12.77 12.77 0 0 1-.649 3.52q-.581 1.738-1.325 3.582a5.8 5.8 0 0 0-.518 2.893 10.151 10.151 0 0 0 .836 2.919zm2.446 6.461a2.955 2.955 0 0 1-.124-2.264 3.088 3.088 0 0 1 1.747-1.747 3 3 0 0 1 2.443-.156 2.906 2.906 0 0 1 1.644 1.573 2.859 2.859 0 0 1 .1 2.273 3.042 3.042 0 0 1-1.734 1.717 3.123 3.123 0 0 1-2.456.187 2.907 2.907 0 0 1-1.62-1.575z" class="cls-2" transform="translate(402.22 -510.377)"/>
            <path id="Path_76-23" d="M-160.609 553.692a16.457 16.457 0 0 1-1.12-3.328 7.958 7.958 0 0 1-.082-2.819 14.853 14.853 0 0 1 .923-3.077 29.737 29.737 0 0 0 1.225-3.536 4.775 4.775 0 0 0-.328-3.32 4.5 4.5 0 0 0-2.239-2.452 3.851 3.851 0 0 0-3.173.219 4.659 4.659 0 0 0-2.226 2.086 3.645 3.645 0 0 0 .085 3.359l-5.022 2.281a8.476 8.476 0 0 1-.786-4.9 8.057 8.057 0 0 1 1.994-4.057 11.98 11.98 0 0 1 4.072-2.925 10.076 10.076 0 0 1 7.315-.833 8.059 8.059 0 0 1 4.909 4.73 7.883 7.883 0 0 1 .753 3.543 12.769 12.769 0 0 1-.649 3.52q-.578 1.74-1.325 3.583a5.791 5.791 0 0 0-.518 2.891 10.127 10.127 0 0 0 .837 2.92zm2.446 6.461a2.951 2.951 0 0 1-.124-2.262 3.078 3.078 0 0 1 1.747-1.747 3 3 0 0 1 2.443-.158 2.911 2.911 0 0 1 1.644 1.573 2.852 2.852 0 0 1 .1 2.273 3.046 3.046 0 0 1-1.733 1.718 3.127 3.127 0 0 1-2.457.186 2.9 2.9 0 0 1-1.618-1.575z" class="cls-2" transform="translate(379.466 -502.145)"/>
            <path id="Path_76-24" d="M-121.075 553.852a10.881 10.881 0 0 1 1.8-1.463 5.2 5.2 0 0 1 1.721-.7 9.77 9.77 0 0 1 2.113-.144 19.686 19.686 0 0 0 2.468-.063 3.154 3.154 0 0 0 1.975-.971 2.967 2.967 0 0 0 1-1.95 2.539 2.539 0 0 0-.871-1.909 3.074 3.074 0 0 0-1.8-.894 2.414 2.414 0 0 0-2.055.831l-2.573-2.572a5.592 5.592 0 0 1 2.843-1.62 5.319 5.319 0 0 1 2.969.29 7.882 7.882 0 0 1 2.749 1.838 6.646 6.646 0 0 1 2.21 4.325 5.318 5.318 0 0 1-1.784 4.129 5.223 5.223 0 0 1-2.013 1.286 8.446 8.446 0 0 1-2.325.415q-1.208.046-2.518.013a3.809 3.809 0 0 0-1.907.35 6.7 6.7 0 0 0-1.61 1.192zm-3.424 3.007a1.951 1.951 0 0 1 1.368-.6 2.042 2.042 0 0 1 1.484.674 1.983 1.983 0 0 1 .663 1.473 1.918 1.918 0 0 1-.59 1.379 1.884 1.884 0 0 1-1.379.591 2 2 0 0 1-1.463-.673 2.067 2.067 0 0 1-.684-1.473 1.909 1.909 0 0 1 .6-1.365z" class="cls-2" transform="translate(409.111 -494.632)"/>
            <path id="Path_76-25" d="M-136.713 584.348a10.81 10.81 0 0 1 1.8-1.463 5.248 5.248 0 0 1 1.721-.7 9.86 9.86 0 0 1 2.113-.144 19.713 19.713 0 0 0 2.468-.063 3.151 3.151 0 0 0 1.975-.971 2.966 2.966 0 0 0 1-1.95 2.543 2.543 0 0 0-.87-1.909 3.085 3.085 0 0 0-1.805-.894 2.406 2.406 0 0 0-2.054.833l-2.573-2.573a5.59 5.59 0 0 1 2.843-1.62 5.314 5.314 0 0 1 2.967.29 7.926 7.926 0 0 1 2.751 1.838 6.651 6.651 0 0 1 2.209 4.325 5.315 5.315 0 0 1-1.784 4.129 5.191 5.191 0 0 1-2.013 1.286 8.446 8.446 0 0 1-2.325.415q-1.208.046-2.518.013a3.81 3.81 0 0 0-1.907.35 6.7 6.7 0 0 0-1.609 1.192zm-3.425 3.007a1.945 1.945 0 0 1 1.37-.6 2.034 2.034 0 0 1 1.483.673 1.98 1.98 0 0 1 .663 1.473 1.924 1.924 0 0 1-.59 1.381 1.888 1.888 0 0 1-1.379.589 2 2 0 0 1-1.463-.673 2.067 2.067 0 0 1-.684-1.473 1.916 1.916 0 0 1 .6-1.365z" class="cls-2" transform="translate(399.518 -475.927)"/>
            <path id="Path_76-26" d="M-148.222 540.43a10.876 10.876 0 0 1 1.8-1.463 5.2 5.2 0 0 1 1.721-.7 9.767 9.767 0 0 1 2.113-.144 19.709 19.709 0 0 0 2.468-.063 3.156 3.156 0 0 0 1.975-.971 2.971 2.971 0 0 0 1-1.952 2.544 2.544 0 0 0-.871-1.909 3.081 3.081 0 0 0-1.8-.892 2.414 2.414 0 0 0-2.055.831l-2.572-2.573a5.59 5.59 0 0 1 2.841-1.618 5.318 5.318 0 0 1 2.969.29 7.883 7.883 0 0 1 2.749 1.838 6.642 6.642 0 0 1 2.21 4.325 5.32 5.32 0 0 1-1.784 4.128 5.24 5.24 0 0 1-2.013 1.286 8.446 8.446 0 0 1-2.325.415q-1.208.044-2.518.013a3.825 3.825 0 0 0-1.907.349 6.711 6.711 0 0 0-1.608 1.194zm-3.424 3.007a1.951 1.951 0 0 1 1.368-.6 2.036 2.036 0 0 1 1.484.674 1.983 1.983 0 0 1 .663 1.473 1.918 1.918 0 0 1-.59 1.379 1.883 1.883 0 0 1-1.379.59 2.009 2.009 0 0 1-1.463-.673 2.07 2.07 0 0 1-.684-1.475 1.915 1.915 0 0 1 .6-1.365z" class="cls-2" transform="translate(392.46 -502.865)"/>
            <path id="Path_76-27" d="M-164.983 569.149a10.778 10.778 0 0 1 1.8-1.462 5.247 5.247 0 0 1 1.721-.7 9.855 9.855 0 0 1 2.113-.142 19.71 19.71 0 0 0 2.468-.063 3.155 3.155 0 0 0 1.975-.971 2.974 2.974 0 0 0 1-1.952 2.538 2.538 0 0 0-.871-1.908 3.073 3.073 0 0 0-1.8-.892 2.4 2.4 0 0 0-2.055.831l-2.572-2.573a5.6 5.6 0 0 1 2.841-1.62 5.318 5.318 0 0 1 2.969.292 7.883 7.883 0 0 1 2.749 1.838 6.642 6.642 0 0 1 2.21 4.324 5.316 5.316 0 0 1-1.784 4.129 5.2 5.2 0 0 1-2.013 1.286 8.446 8.446 0 0 1-2.325.416q-1.208.044-2.518.011a3.846 3.846 0 0 0-1.907.35 6.672 6.672 0 0 0-1.609 1.194zm-3.424 3.009a1.953 1.953 0 0 1 1.368-.6 2.036 2.036 0 0 1 1.484.675 1.977 1.977 0 0 1 .663 1.473 1.921 1.921 0 0 1-.591 1.379 1.89 1.89 0 0 1-1.379.59 2.016 2.016 0 0 1-1.463-.673 2.071 2.071 0 0 1-.684-1.475 1.915 1.915 0 0 1 .6-1.365z" class="cls-2" transform="translate(382.18 -485.249)"/>
            <path id="Path_76-28" d="M-70.027 564.014a16.389 16.389 0 0 1-1.12-3.328 7.966 7.966 0 0 1-.084-2.82 15.037 15.037 0 0 1 .923-3.075 29.768 29.768 0 0 0 1.226-3.538 4.779 4.779 0 0 0-.327-3.319 4.506 4.506 0 0 0-2.239-2.454 3.85 3.85 0 0 0-3.173.221 4.662 4.662 0 0 0-2.228 2.086 3.646 3.646 0 0 0 .085 3.357l-5.022 2.283a8.479 8.479 0 0 1-.784-4.9 8.055 8.055 0 0 1 1.992-4.058 11.956 11.956 0 0 1 4.072-2.925 10.087 10.087 0 0 1 7.317-.834 8.069 8.069 0 0 1 4.909 4.732 7.9 7.9 0 0 1 .753 3.541 12.833 12.833 0 0 1-.649 3.522q-.581 1.738-1.325 3.582a5.8 5.8 0 0 0-.518 2.893 10.169 10.169 0 0 0 .836 2.919zm2.446 6.461a2.955 2.955 0 0 1-.124-2.263 3.083 3.083 0 0 1 1.747-1.747 3 3 0 0 1 2.443-.157 2.907 2.907 0 0 1 1.644 1.573 2.865 2.865 0 0 1 .1 2.273 3.042 3.042 0 0 1-1.734 1.717 3.123 3.123 0 0 1-2.456.187 2.906 2.906 0 0 1-1.62-1.575z" class="cls-2" transform="translate(435.024 -495.814)"/>
            <path id="Path_76-29" d="M-45.427 581.183a16.439 16.439 0 0 1-1.12-3.327 7.929 7.929 0 0 1-.082-2.82 14.932 14.932 0 0 1 .921-3.075 29.77 29.77 0 0 0 1.226-3.538 4.77 4.77 0 0 0-.328-3.319 4.5 4.5 0 0 0-2.239-2.454 3.857 3.857 0 0 0-3.173.219 4.663 4.663 0 0 0-2.226 2.088 3.636 3.636 0 0 0 .085 3.357l-5.022 2.283a8.484 8.484 0 0 1-.786-4.9 8.074 8.074 0 0 1 1.992-4.057 12 12 0 0 1 4.072-2.923 10.079 10.079 0 0 1 7.317-.834 8.06 8.06 0 0 1 4.909 4.732 7.876 7.876 0 0 1 .753 3.541 12.751 12.751 0 0 1-.649 3.52q-.581 1.74-1.325 3.583a5.8 5.8 0 0 0-.518 2.893 10.185 10.185 0 0 0 .836 2.919zm2.446 6.463a2.956 2.956 0 0 1-.124-2.264 3.083 3.083 0 0 1 1.747-1.747 3 3 0 0 1 2.443-.156 2.905 2.905 0 0 1 1.644 1.573 2.855 2.855 0 0 1 .1 2.272 3.045 3.045 0 0 1-1.734 1.718 3.129 3.129 0 0 1-2.456.187 2.9 2.9 0 0 1-1.62-1.576z" class="cls-2" transform="translate(450.113 -485.283)"/>
            <path id="Path_76-30" d="M-84.556 591.055a16.489 16.489 0 0 1-1.12-3.328 7.967 7.967 0 0 1-.082-2.82 14.834 14.834 0 0 1 .923-3.075 29.77 29.77 0 0 0 1.225-3.538 4.77 4.77 0 0 0-.328-3.319 4.489 4.489 0 0 0-2.239-2.454 3.847 3.847 0 0 0-3.172.221 4.648 4.648 0 0 0-2.228 2.086 3.646 3.646 0 0 0 .086 3.357l-5.022 2.283a8.493 8.493 0 0 1-.786-4.9 8.068 8.068 0 0 1 1.994-4.059 11.973 11.973 0 0 1 4.072-2.923 10.083 10.083 0 0 1 7.315-.834 8.057 8.057 0 0 1 4.909 4.732 7.877 7.877 0 0 1 .753 3.541 12.772 12.772 0 0 1-.649 3.522q-.578 1.738-1.323 3.582a5.8 5.8 0 0 0-.52 2.893 10.186 10.186 0 0 0 .837 2.918zm2.447 6.461a2.948 2.948 0 0 1-.126-2.263 3.088 3.088 0 0 1 1.747-1.747 3 3 0 0 1 2.443-.156 2.914 2.914 0 0 1 1.646 1.573 2.865 2.865 0 0 1 .1 2.273 3.047 3.047 0 0 1-1.734 1.717 3.134 3.134 0 0 1-2.457.187 2.906 2.906 0 0 1-1.618-1.576z" class="cls-2" transform="translate(426.113 -479.228)"/>
            <path id="Path_76-31" d="M-58.191 536.612a16.422 16.422 0 0 1-1.12-3.328 7.919 7.919 0 0 1-.082-2.819 14.929 14.929 0 0 1 .921-3.075 29.881 29.881 0 0 0 1.226-3.538 4.77 4.77 0 0 0-.328-3.319 4.5 4.5 0 0 0-2.239-2.454 3.856 3.856 0 0 0-3.173.219 4.663 4.663 0 0 0-2.226 2.088 3.641 3.641 0 0 0 .086 3.357l-5.022 2.283a8.484 8.484 0 0 1-.786-4.9 8.073 8.073 0 0 1 1.992-4.058 12.029 12.029 0 0 1 4.072-2.925 10.087 10.087 0 0 1 7.317-.832 8.061 8.061 0 0 1 4.909 4.732 7.872 7.872 0 0 1 .753 3.541 12.761 12.761 0 0 1-.649 3.52q-.581 1.74-1.325 3.583a5.792 5.792 0 0 0-.518 2.891 10.181 10.181 0 0 0 .836 2.92zm2.446 6.463a2.955 2.955 0 0 1-.124-2.263 3.083 3.083 0 0 1 1.747-1.747 3 3 0 0 1 2.443-.157 2.909 2.909 0 0 1 1.644 1.571 2.859 2.859 0 0 1 .1 2.273 3.05 3.05 0 0 1-1.734 1.718 3.129 3.129 0 0 1-2.456.187 2.9 2.9 0 0 1-1.62-1.576z" class="cls-2" transform="translate(442.284 -512.621)"/>
            <path id="Path_76-32" d="M-95.29 550.035a16.485 16.485 0 0 1-1.12-3.328 7.966 7.966 0 0 1-.082-2.82 14.837 14.837 0 0 1 .923-3.075 29.761 29.761 0 0 0 1.225-3.538 4.77 4.77 0 0 0-.328-3.319 4.489 4.489 0 0 0-2.239-2.454 3.857 3.857 0 0 0-3.173.22 4.662 4.662 0 0 0-2.226 2.088 3.641 3.641 0 0 0 .086 3.357l-5.022 2.283a8.483 8.483 0 0 1-.786-4.9 8.064 8.064 0 0 1 1.994-4.058 11.972 11.972 0 0 1 4.072-2.923 10.075 10.075 0 0 1 7.315-.834 8.056 8.056 0 0 1 4.909 4.732 7.876 7.876 0 0 1 .753 3.541 12.751 12.751 0 0 1-.649 3.52q-.578 1.74-1.325 3.583a5.8 5.8 0 0 0-.517 2.89 10.137 10.137 0 0 0 .837 2.919zm2.446 6.462a2.955 2.955 0 0 1-.124-2.263 3.083 3.083 0 0 1 1.747-1.747 3 3 0 0 1 2.443-.157 2.915 2.915 0 0 1 1.646 1.573 2.854 2.854 0 0 1 .1 2.272 3.042 3.042 0 0 1-1.733 1.718 3.134 3.134 0 0 1-2.457.187 2.9 2.9 0 0 1-1.618-1.576z" class="cls-2" transform="translate(419.529 -504.388)"/>
            <path id="Path_76-33" d="M-55.756 550.194a10.786 10.786 0 0 1 1.8-1.462 5.236 5.236 0 0 1 1.721-.705 9.863 9.863 0 0 1 2.113-.142 19.721 19.721 0 0 0 2.468-.063 3.155 3.155 0 0 0 1.975-.971 2.974 2.974 0 0 0 1-1.952 2.539 2.539 0 0 0-.871-1.909 3.064 3.064 0 0 0-1.8-.892 2.406 2.406 0 0 0-2.055.831l-2.572-2.573a5.593 5.593 0 0 1 2.841-1.62 5.318 5.318 0 0 1 2.969.292 7.9 7.9 0 0 1 2.749 1.836 6.646 6.646 0 0 1 2.21 4.325A5.316 5.316 0 0 1-43 549.318a5.2 5.2 0 0 1-2.013 1.286 8.389 8.389 0 0 1-2.325.415q-1.208.046-2.518.013a3.826 3.826 0 0 0-1.907.35 6.671 6.671 0 0 0-1.609 1.194zm-3.424 3.009a1.952 1.952 0 0 1 1.368-.6 2.03 2.03 0 0 1 1.484.674 1.983 1.983 0 0 1 .663 1.473 1.921 1.921 0 0 1-.59 1.38 1.89 1.89 0 0 1-1.379.59 2.015 2.015 0 0 1-1.463-.673 2.07 2.07 0 0 1-.684-1.475 1.915 1.915 0 0 1 .6-1.365z" class="cls-2" transform="translate(449.174 -496.875)"/>
            <path id="Path_76-34" d="M-71.394 580.69a10.711 10.711 0 0 1 1.8-1.462 5.25 5.25 0 0 1 1.721-.705 9.871 9.871 0 0 1 2.113-.142 19.644 19.644 0 0 0 2.468-.063 3.151 3.151 0 0 0 1.975-.971 2.967 2.967 0 0 0 1-1.952 2.537 2.537 0 0 0-.87-1.909 3.082 3.082 0 0 0-1.813-.892 2.4 2.4 0 0 0-2.054.831l-2.573-2.573a5.6 5.6 0 0 1 2.843-1.62 5.312 5.312 0 0 1 2.967.292 7.9 7.9 0 0 1 2.751 1.838 6.647 6.647 0 0 1 2.209 4.324 5.315 5.315 0 0 1-1.784 4.128 5.191 5.191 0 0 1-2.013 1.286 8.446 8.446 0 0 1-2.325.416q-1.208.043-2.518.011a3.845 3.845 0 0 0-1.907.35 6.7 6.7 0 0 0-1.609 1.194zm-3.425 3.009a1.952 1.952 0 0 1 1.37-.6 2.035 2.035 0 0 1 1.483.674 1.977 1.977 0 0 1 .663 1.473 1.92 1.92 0 0 1-.59 1.379 1.887 1.887 0 0 1-1.379.591 2.016 2.016 0 0 1-1.463-.673 2.07 2.07 0 0 1-.684-1.475 1.922 1.922 0 0 1 .6-1.365z" class="cls-2" transform="translate(439.581 -478.171)"/>
            <path id="Path_76-35" d="M-82.9 536.772a10.8 10.8 0 0 1 1.8-1.462 5.237 5.237 0 0 1 1.721-.7 9.864 9.864 0 0 1 2.113-.144 19.411 19.411 0 0 0 2.466-.066 3.164 3.164 0 0 0 1.975-.971 2.975 2.975 0 0 0 1-1.952 2.539 2.539 0 0 0-.871-1.909 3.064 3.064 0 0 0-1.8-.892 2.4 2.4 0 0 0-2.055.831l-2.572-2.573a5.594 5.594 0 0 1 2.841-1.62 5.333 5.333 0 0 1 2.969.29 7.927 7.927 0 0 1 2.749 1.838 6.645 6.645 0 0 1 2.21 4.325 5.316 5.316 0 0 1-1.784 4.129 5.2 5.2 0 0 1-2.013 1.286 8.385 8.385 0 0 1-2.325.415q-1.208.046-2.518.013a3.826 3.826 0 0 0-1.907.35 6.661 6.661 0 0 0-1.609 1.192zm-3.424 3.009a1.946 1.946 0 0 1 1.368-.6 2.03 2.03 0 0 1 1.484.674 1.976 1.976 0 0 1 .663 1.471 1.924 1.924 0 0 1-.59 1.381 1.89 1.89 0 0 1-1.379.59 2.015 2.015 0 0 1-1.463-.673 2.071 2.071 0 0 1-.684-1.475 1.91 1.91 0 0 1 .6-1.365z" class="cls-2" transform="translate(432.523 -505.108)"/>
            <path id="Path_76-36" d="M-99.664 565.492a10.886 10.886 0 0 1 1.8-1.463 5.217 5.217 0 0 1 1.721-.7 9.864 9.864 0 0 1 2.113-.144 19.721 19.721 0 0 0 2.468-.063 3.156 3.156 0 0 0 1.975-.971 2.967 2.967 0 0 0 1-1.951 2.539 2.539 0 0 0-.871-1.909 3.076 3.076 0 0 0-1.8-.894 2.41 2.41 0 0 0-2.054.831l-2.573-2.572a5.579 5.579 0 0 1 2.843-1.62 5.314 5.314 0 0 1 2.967.29 7.884 7.884 0 0 1 2.749 1.838 6.646 6.646 0 0 1 2.21 4.325 5.318 5.318 0 0 1-1.784 4.128 5.2 5.2 0 0 1-2.013 1.286 8.443 8.443 0 0 1-2.325.415q-1.208.046-2.518.013a3.81 3.81 0 0 0-1.907.35 6.7 6.7 0 0 0-1.609 1.192zm-3.424 3.007a1.952 1.952 0 0 1 1.368-.6 2.043 2.043 0 0 1 1.484.674 1.98 1.98 0 0 1 .663 1.473 1.924 1.924 0 0 1-.59 1.381 1.888 1.888 0 0 1-1.379.589 2 2 0 0 1-1.463-.673 2.067 2.067 0 0 1-.684-1.473 1.916 1.916 0 0 1 .6-1.365z" class="cls-2" transform="translate(422.243 -487.493)"/>
            <path id="Path_76-37" d="M-7.445 563.795a16.457 16.457 0 0 1-1.12-3.328 7.957 7.957 0 0 1-.082-2.819 14.883 14.883 0 0 1 .923-3.077 29.734 29.734 0 0 0 1.224-3.536 4.774 4.774 0 0 0-.328-3.32 4.491 4.491 0 0 0-2.239-2.452 3.851 3.851 0 0 0-3.173.219 4.66 4.66 0 0 0-2.226 2.086 3.649 3.649 0 0 0 .086 3.359l-5.022 2.281a8.489 8.489 0 0 1-.786-4.9 8.057 8.057 0 0 1 1.994-4.058 11.976 11.976 0 0 1 4.072-2.925 10.075 10.075 0 0 1 7.315-.832 8.054 8.054 0 0 1 4.909 4.73 7.883 7.883 0 0 1 .753 3.543 12.772 12.772 0 0 1-.649 3.52q-.578 1.74-1.323 3.583a5.793 5.793 0 0 0-.519 2.891 10.18 10.18 0 0 0 .837 2.92zM-5 570.256a2.944 2.944 0 0 1-.126-2.262 3.083 3.083 0 0 1 1.747-1.747 3 3 0 0 1 2.443-.158 2.924 2.924 0 0 1 1.646 1.573 2.866 2.866 0 0 1 .1 2.273 3.054 3.054 0 0 1-1.734 1.718 3.127 3.127 0 0 1-2.457.186 2.9 2.9 0 0 1-1.618-1.575z" class="cls-2" transform="translate(473.409 -495.948)"/>
            <path id="Path_76-38" d="M17.156 580.965a16.4 16.4 0 0 1-1.121-3.328 7.966 7.966 0 0 1-.082-2.82 14.94 14.94 0 0 1 .923-3.075A29.663 29.663 0 0 0 18.1 568.2a4.788 4.788 0 0 0-.328-3.319 4.512 4.512 0 0 0-2.239-2.454 3.85 3.85 0 0 0-3.173.221 4.655 4.655 0 0 0-2.228 2.086 3.65 3.65 0 0 0 .086 3.359L5.2 570.378a8.479 8.479 0 0 1-.784-4.9 8.055 8.055 0 0 1 1.992-4.058 11.955 11.955 0 0 1 4.072-2.925 10.086 10.086 0 0 1 7.317-.834A8.069 8.069 0 0 1 22.7 562.4a7.92 7.92 0 0 1 .753 3.541 12.775 12.775 0 0 1-.65 3.522q-.578 1.737-1.323 3.582a5.816 5.816 0 0 0-.519 2.893 10.209 10.209 0 0 0 .837 2.919zm2.446 6.461a2.962 2.962 0 0 1-.126-2.263 3.092 3.092 0 0 1 1.747-1.747 3.006 3.006 0 0 1 2.444-.157 2.911 2.911 0 0 1 1.644 1.573 2.865 2.865 0 0 1 .1 2.273 3.043 3.043 0 0 1-1.734 1.717 3.126 3.126 0 0 1-2.457.187 2.908 2.908 0 0 1-1.618-1.575z" class="cls-2" transform="translate(488.498 -485.417)"/>
            <path id="Path_76-39" d="M-21.973 590.836a16.356 16.356 0 0 1-1.12-3.328 7.958 7.958 0 0 1-.084-2.819 15.018 15.018 0 0 1 .923-3.077 29.672 29.672 0 0 0 1.226-3.538 4.779 4.779 0 0 0-.328-3.319 4.5 4.5 0 0 0-2.239-2.452 3.85 3.85 0 0 0-3.173.219A4.663 4.663 0 0 0-29 574.609a3.649 3.649 0 0 0 .086 3.359l-5.022 2.281a8.477 8.477 0 0 1-.784-4.9 8.055 8.055 0 0 1 1.992-4.058 11.976 11.976 0 0 1 4.072-2.925 10.079 10.079 0 0 1 7.317-.832 8.062 8.062 0 0 1 4.909 4.73 7.883 7.883 0 0 1 .753 3.543 12.832 12.832 0 0 1-.649 3.52q-.581 1.74-1.325 3.582a5.8 5.8 0 0 0-.518 2.893 10.178 10.178 0 0 0 .836 2.92zm2.446 6.461a2.951 2.951 0 0 1-.124-2.262 3.073 3.073 0 0 1 1.747-1.747 3 3 0 0 1 2.443-.158 2.911 2.911 0 0 1 1.644 1.573 2.866 2.866 0 0 1 .1 2.273 3.049 3.049 0 0 1-1.734 1.718 3.122 3.122 0 0 1-2.456.186 2.906 2.906 0 0 1-1.62-1.575z" class="cls-2" transform="translate(464.498 -479.363)"/>
            <path id="Path_76-40" d="M4.392 536.394a16.288 16.288 0 0 1-1.12-3.328 7.929 7.929 0 0 1-.084-2.82 14.933 14.933 0 0 1 .923-3.075 29.771 29.771 0 0 0 1.226-3.538 4.787 4.787 0 0 0-.328-3.319 4.5 4.5 0 0 0-2.239-2.454 3.851 3.851 0 0 0-3.173.221 4.656 4.656 0 0 0-2.228 2.086 3.646 3.646 0 0 0 .086 3.357l-5.022 2.283a8.479 8.479 0 0 1-.784-4.9 8.054 8.054 0 0 1 1.992-4.057 11.954 11.954 0 0 1 4.072-2.925 10.087 10.087 0 0 1 7.317-.834 8.065 8.065 0 0 1 4.909 4.732 7.92 7.92 0 0 1 .753 3.541 12.774 12.774 0 0 1-.65 3.522q-.578 1.738-1.323 3.582a5.814 5.814 0 0 0-.519 2.893 10.238 10.238 0 0 0 .837 2.919zm2.446 6.462a2.963 2.963 0 0 1-.126-2.264 3.092 3.092 0 0 1 1.747-1.747 3.007 3.007 0 0 1 2.444-.157 2.911 2.911 0 0 1 1.644 1.573 2.865 2.865 0 0 1 .1 2.273 3.042 3.042 0 0 1-1.734 1.717 3.133 3.133 0 0 1-2.457.187 2.906 2.906 0 0 1-1.618-1.576z" class="cls-2" transform="translate(480.669 -512.755)"/>
            <path id="Path_76-41" d="M-32.707 549.816a16.39 16.39 0 0 1-1.12-3.328 7.929 7.929 0 0 1-.084-2.82 14.935 14.935 0 0 1 .923-3.075 29.671 29.671 0 0 0 1.226-3.538 4.788 4.788 0 0 0-.328-3.319 4.511 4.511 0 0 0-2.239-2.454 3.85 3.85 0 0 0-3.173.221 4.662 4.662 0 0 0-2.228 2.086 3.65 3.65 0 0 0 .086 3.359l-5.022 2.281a8.479 8.479 0 0 1-.784-4.9 8.055 8.055 0 0 1 1.992-4.058 11.956 11.956 0 0 1 4.072-2.925 10.086 10.086 0 0 1 7.317-.834 8.069 8.069 0 0 1 4.909 4.732 7.9 7.9 0 0 1 .753 3.541 12.775 12.775 0 0 1-.65 3.522q-.578 1.738-1.323 3.582a5.816 5.816 0 0 0-.519 2.893 10.208 10.208 0 0 0 .837 2.919zm2.446 6.461a2.962 2.962 0 0 1-.126-2.263 3.092 3.092 0 0 1 1.747-1.747 3.007 3.007 0 0 1 2.444-.157 2.907 2.907 0 0 1 1.644 1.573 2.865 2.865 0 0 1 .1 2.273 3.042 3.042 0 0 1-1.734 1.717 3.123 3.123 0 0 1-2.456.187 2.906 2.906 0 0 1-1.62-1.575z" class="cls-2" transform="translate(457.914 -504.522)"/>
            <path id="Path_76-42" d="M6.827 549.976a10.868 10.868 0 0 1 1.8-1.463 5.25 5.25 0 0 1 1.721-.705 9.877 9.877 0 0 1 2.113-.142 19.716 19.716 0 0 0 2.47-.063 3.147 3.147 0 0 0 1.973-.971 2.965 2.965 0 0 0 1-1.952 2.544 2.544 0 0 0-.871-1.909 3.083 3.083 0 0 0-1.805-.892 2.41 2.41 0 0 0-2.054.831l-2.573-2.573a5.594 5.594 0 0 1 2.843-1.618 5.313 5.313 0 0 1 2.967.291 7.888 7.888 0 0 1 2.751 1.838 6.647 6.647 0 0 1 2.209 4.325 5.321 5.321 0 0 1-1.784 4.129 5.222 5.222 0 0 1-2.012 1.286 8.439 8.439 0 0 1-2.325.415q-1.21.044-2.52.013a3.826 3.826 0 0 0-1.907.348 6.777 6.777 0 0 0-1.609 1.194zM3.4 552.983a1.956 1.956 0 0 1 1.37-.6 2.039 2.039 0 0 1 1.484.675 1.988 1.988 0 0 1 .663 1.473 1.918 1.918 0 0 1-.59 1.379 1.887 1.887 0 0 1-1.381.59 2.006 2.006 0 0 1-1.462-.673 2.059 2.059 0 0 1-.684-1.475 1.92 1.92 0 0 1 .6-1.365z" class="cls-2" transform="translate(487.559 -497.009)"/>
            <path id="Path_76-43" d="M-8.813 580.472a10.929 10.929 0 0 1 1.8-1.463 5.218 5.218 0 0 1 1.723-.7 9.751 9.751 0 0 1 2.112-.144 19.716 19.716 0 0 0 2.47-.063 3.147 3.147 0 0 0 1.973-.971 2.965 2.965 0 0 0 1-1.95 2.545 2.545 0 0 0-.871-1.91 3.083 3.083 0 0 0-1.805-.892 2.411 2.411 0 0 0-2.054.831l-2.573-2.573a5.593 5.593 0 0 1 2.838-1.623 5.319 5.319 0 0 1 2.969.29 7.883 7.883 0 0 1 2.749 1.838 6.649 6.649 0 0 1 2.21 4.325 5.316 5.316 0 0 1-1.789 4.133 5.2 5.2 0 0 1-2.012 1.286A8.446 8.446 0 0 1-.4 581.3q-1.208.046-2.52.013a3.815 3.815 0 0 0-1.905.349 6.752 6.752 0 0 0-1.61 1.194zm-3.424 3.007a1.951 1.951 0 0 1 1.368-.6 2.039 2.039 0 0 1 1.484.674 1.983 1.983 0 0 1 .663 1.473 1.918 1.918 0 0 1-.59 1.379 1.884 1.884 0 0 1-1.379.59 2.007 2.007 0 0 1-1.463-.673 2.063 2.063 0 0 1-.684-1.473 1.914 1.914 0 0 1 .6-1.365z" class="cls-2" transform="translate(477.966 -478.305)"/>
            <path id="Path_76-44" d="M-20.32 536.553a10.781 10.781 0 0 1 1.8-1.462 5.267 5.267 0 0 1 1.721-.705 9.873 9.873 0 0 1 2.113-.142 19.739 19.739 0 0 0 2.47-.063 3.147 3.147 0 0 0 1.973-.971 2.966 2.966 0 0 0 1-1.952 2.541 2.541 0 0 0-.871-1.909 3.073 3.073 0 0 0-1.805-.892 2.4 2.4 0 0 0-2.054.831l-2.573-2.573a5.6 5.6 0 0 1 2.836-1.615 5.3 5.3 0 0 1 2.969.291 7.894 7.894 0 0 1 2.749 1.838 6.647 6.647 0 0 1 2.209 4.324 5.316 5.316 0 0 1-1.784 4.129 5.185 5.185 0 0 1-2.012 1.286 8.448 8.448 0 0 1-2.325.416q-1.21.044-2.52.011a3.834 3.834 0 0 0-1.905.35 6.713 6.713 0 0 0-1.61 1.194zm-3.424 3.009a1.952 1.952 0 0 1 1.368-.6 2.039 2.039 0 0 1 1.484.674 1.989 1.989 0 0 1 .663 1.473 1.921 1.921 0 0 1-.59 1.38 1.894 1.894 0 0 1-1.381.59 2.013 2.013 0 0 1-1.462-.673 2.058 2.058 0 0 1-.684-1.475 1.92 1.92 0 0 1 .6-1.365z" class="cls-2" transform="translate(470.909 -505.242)"/>
            <path id="Path_76-45" d="M-37.081 565.273a10.839 10.839 0 0 1 1.8-1.462 5.26 5.26 0 0 1 1.723-.7 9.851 9.851 0 0 1 2.112-.142 19.739 19.739 0 0 0 2.47-.063 3.156 3.156 0 0 0 1.973-.971 2.969 2.969 0 0 0 1-1.952 2.539 2.539 0 0 0-.871-1.909 3.063 3.063 0 0 0-1.805-.892 2.4 2.4 0 0 0-2.054.831l-2.573-2.573a5.6 5.6 0 0 1 2.843-1.62 5.333 5.333 0 0 1 2.969.29 7.927 7.927 0 0 1 2.749 1.838 6.66 6.66 0 0 1 2.21 4.325 5.322 5.322 0 0 1-1.786 4.129 5.185 5.185 0 0 1-2.012 1.286 8.387 8.387 0 0 1-2.325.415q-1.21.046-2.52.013a3.816 3.816 0 0 0-1.905.35 6.706 6.706 0 0 0-1.61 1.192zm-3.424 3.009a1.945 1.945 0 0 1 1.368-.6 2.034 2.034 0 0 1 1.484.674 1.989 1.989 0 0 1 .663 1.473 1.923 1.923 0 0 1-.59 1.379 1.894 1.894 0 0 1-1.381.591 2.012 2.012 0 0 1-1.462-.673 2.058 2.058 0 0 1-.684-1.475 1.917 1.917 0 0 1 .6-1.365z" class="cls-2" transform="translate(460.628 -487.627)"/>
            <path id="Path_76-46" d="M57.678 567.671a16.456 16.456 0 0 1-1.12-3.328 7.955 7.955 0 0 1-.082-2.818 14.836 14.836 0 0 1 .923-3.075 29.869 29.869 0 0 0 1.225-3.538 4.77 4.77 0 0 0-.328-3.319 4.5 4.5 0 0 0-2.239-2.454 3.857 3.857 0 0 0-3.173.219 4.666 4.666 0 0 0-2.226 2.086 3.645 3.645 0 0 0 .086 3.359l-5.022 2.283a8.483 8.483 0 0 1-.786-4.9 8.064 8.064 0 0 1 1.994-4.058A12 12 0 0 1 51 545.2a10.083 10.083 0 0 1 7.315-.833 8.057 8.057 0 0 1 4.909 4.732 7.872 7.872 0 0 1 .753 3.541 12.76 12.76 0 0 1-.649 3.52q-.578 1.74-1.325 3.583a5.792 5.792 0 0 0-.518 2.891 10.13 10.13 0 0 0 .837 2.92zm2.446 6.463A2.956 2.956 0 0 1 60 571.87a3.083 3.083 0 0 1 1.747-1.747 3 3 0 0 1 2.443-.156 2.909 2.909 0 0 1 1.644 1.571 2.852 2.852 0 0 1 .1 2.273 3.047 3.047 0 0 1-1.733 1.718 3.127 3.127 0 0 1-2.457.186 2.893 2.893 0 0 1-1.618-1.575z" class="cls-2" transform="translate(513.352 -493.571)"/>
            <path id="Path_76-47" d="M82.278 584.841a16.455 16.455 0 0 1-1.12-3.328 7.958 7.958 0 0 1-.082-2.819 14.949 14.949 0 0 1 .924-3.077 29.758 29.758 0 0 0 1.226-3.536 4.784 4.784 0 0 0-.329-3.32 4.491 4.491 0 0 0-2.239-2.452 3.847 3.847 0 0 0-3.172.219 4.654 4.654 0 0 0-2.228 2.086 3.649 3.649 0 0 0 .086 3.359l-5.022 2.281a8.475 8.475 0 0 1-.784-4.9 8.054 8.054 0 0 1 1.992-4.058 11.976 11.976 0 0 1 4.072-2.925 10.074 10.074 0 0 1 7.315-.833 8.054 8.054 0 0 1 4.909 4.73 7.884 7.884 0 0 1 .753 3.543 12.771 12.771 0 0 1-.649 3.52q-.578 1.74-1.323 3.582a5.8 5.8 0 0 0-.519 2.893 10.185 10.185 0 0 0 .837 2.92zm2.447 6.462a2.952 2.952 0 0 1-.126-2.262 3.078 3.078 0 0 1 1.747-1.747 3.006 3.006 0 0 1 2.444-.158 2.921 2.921 0 0 1 1.644 1.573 2.865 2.865 0 0 1 .1 2.273A3.054 3.054 0 0 1 88.8 592.7a3.127 3.127 0 0 1-2.457.186 2.909 2.909 0 0 1-1.618-1.575z" class="cls-2" transform="translate(528.441 -483.04)"/>
            <path id="Path_76-48" d="M43.15 594.712a16.356 16.356 0 0 1-1.12-3.328 7.919 7.919 0 0 1-.084-2.819 14.94 14.94 0 0 1 .923-3.075 29.859 29.859 0 0 0 1.226-3.538 4.792 4.792 0 0 0-.328-3.32 4.5 4.5 0 0 0-2.239-2.452 3.855 3.855 0 0 0-3.173.219 4.669 4.669 0 0 0-2.228 2.086 3.649 3.649 0 0 0 .086 3.359l-5.022 2.281a8.475 8.475 0 0 1-.784-4.9 8.056 8.056 0 0 1 1.992-4.058 12 12 0 0 1 4.072-2.925 10.085 10.085 0 0 1 7.317-.832 8.06 8.06 0 0 1 4.909 4.732 7.893 7.893 0 0 1 .753 3.541 12.762 12.762 0 0 1-.65 3.52q-.578 1.74-1.323 3.583a5.81 5.81 0 0 0-.52 2.891 10.233 10.233 0 0 0 .837 2.92zm2.446 6.461a2.958 2.958 0 0 1-.126-2.262 3.088 3.088 0 0 1 1.747-1.747 3.007 3.007 0 0 1 2.444-.158 2.916 2.916 0 0 1 1.644 1.573 2.865 2.865 0 0 1 .1 2.273 3.05 3.05 0 0 1-1.734 1.718 3.123 3.123 0 0 1-2.456.185 2.9 2.9 0 0 1-1.62-1.575z" class="cls-2" transform="translate(504.441 -476.985)"/>
            <path id="Path_76-49" d="M69.514 540.27a16.49 16.49 0 0 1-1.12-3.328 7.966 7.966 0 0 1-.082-2.82 14.936 14.936 0 0 1 .923-3.075 29.667 29.667 0 0 0 1.226-3.538 4.779 4.779 0 0 0-.329-3.319 4.5 4.5 0 0 0-2.239-2.454 3.853 3.853 0 0 0-3.172.221 4.656 4.656 0 0 0-2.228 2.086 3.65 3.65 0 0 0 .086 3.359l-5.022 2.281a8.48 8.48 0 0 1-.784-4.9 8.054 8.054 0 0 1 1.992-4.057 11.955 11.955 0 0 1 4.072-2.925 10.083 10.083 0 0 1 7.315-.834 8.061 8.061 0 0 1 4.909 4.732 7.879 7.879 0 0 1 .753 3.543 12.771 12.771 0 0 1-.649 3.52q-.578 1.738-1.323 3.582a5.8 5.8 0 0 0-.519 2.893 10.154 10.154 0 0 0 .837 2.919zm2.447 6.461a2.955 2.955 0 0 1-.126-2.264 3.088 3.088 0 0 1 1.747-1.747 3.007 3.007 0 0 1 2.444-.156 2.915 2.915 0 0 1 1.644 1.573 2.866 2.866 0 0 1 .1 2.273 3.047 3.047 0 0 1-1.734 1.717 3.127 3.127 0 0 1-2.457.187 2.909 2.909 0 0 1-1.618-1.575z" class="cls-2" transform="translate(520.612 -510.377)"/>
            <path id="Path_76-50" d="M32.416 553.692a16.261 16.261 0 0 1-1.12-3.328 7.921 7.921 0 0 1-.084-2.819 14.952 14.952 0 0 1 .923-3.077 29.745 29.745 0 0 0 1.226-3.536 4.793 4.793 0 0 0-.328-3.32 4.5 4.5 0 0 0-2.239-2.452 3.85 3.85 0 0 0-3.173.219 4.656 4.656 0 0 0-2.228 2.086 3.649 3.649 0 0 0 .086 3.359l-5.022 2.276a8.475 8.475 0 0 1-.784-4.9 8.055 8.055 0 0 1 1.992-4.057 11.979 11.979 0 0 1 4.072-2.925 10.079 10.079 0 0 1 7.317-.833 8.063 8.063 0 0 1 4.909 4.73 7.927 7.927 0 0 1 .753 3.543 12.772 12.772 0 0 1-.65 3.52q-.578 1.74-1.323 3.583a5.81 5.81 0 0 0-.519 2.891 10.23 10.23 0 0 0 .837 2.92zm2.446 6.461a2.959 2.959 0 0 1-.126-2.262 3.083 3.083 0 0 1 1.747-1.747 3.007 3.007 0 0 1 2.444-.158 2.916 2.916 0 0 1 1.644 1.573 2.865 2.865 0 0 1 .1 2.273 3.049 3.049 0 0 1-1.734 1.718 3.126 3.126 0 0 1-2.457.186 2.908 2.908 0 0 1-1.618-1.575z" class="cls-2" transform="translate(497.857 -502.145)"/>
            <path id="Path_76-51" d="M71.951 553.852a10.8 10.8 0 0 1 1.8-1.463 5.217 5.217 0 0 1 1.721-.7 9.777 9.777 0 0 1 2.113-.144 19.67 19.67 0 0 0 2.468-.063 3.15 3.15 0 0 0 1.975-.971 2.962 2.962 0 0 0 1-1.95 2.545 2.545 0 0 0-.871-1.909 3.083 3.083 0 0 0-1.805-.894 2.409 2.409 0 0 0-2.054.831l-2.573-2.572a5.586 5.586 0 0 1 2.843-1.62 5.312 5.312 0 0 1 2.967.29 7.9 7.9 0 0 1 2.751 1.838 6.651 6.651 0 0 1 2.209 4.325 5.318 5.318 0 0 1-1.784 4.129 5.2 5.2 0 0 1-2.013 1.286 8.435 8.435 0 0 1-2.325.415q-1.208.046-2.518.013a3.808 3.808 0 0 0-1.907.35 6.728 6.728 0 0 0-1.609 1.192zm-3.425 3.007a1.955 1.955 0 0 1 1.37-.6 2.041 2.041 0 0 1 1.483.674 1.977 1.977 0 0 1 .663 1.473 1.918 1.918 0 0 1-.59 1.379 1.881 1.881 0 0 1-1.379.591 2 2 0 0 1-1.462-.673 2.063 2.063 0 0 1-.686-1.473 1.916 1.916 0 0 1 .6-1.365z" class="cls-2" transform="translate(527.502 -494.632)"/>
            <path id="Path_76-52" d="M56.31 584.348a10.945 10.945 0 0 1 1.8-1.463 5.256 5.256 0 0 1 1.723-.7 9.852 9.852 0 0 1 2.112-.144 19.739 19.739 0 0 0 2.47-.063 3.147 3.147 0 0 0 1.969-.978 2.961 2.961 0 0 0 1-1.95 2.539 2.539 0 0 0-.871-1.909 3.075 3.075 0 0 0-1.805-.894 2.406 2.406 0 0 0-2.054.833l-2.573-2.573a5.6 5.6 0 0 1 2.843-1.62 5.32 5.32 0 0 1 2.969.29 7.9 7.9 0 0 1 2.749 1.838 6.66 6.66 0 0 1 2.21 4.325 5.317 5.317 0 0 1-1.786 4.129 5.186 5.186 0 0 1-2.012 1.286 8.446 8.446 0 0 1-2.325.415q-1.21.046-2.52.013a3.8 3.8 0 0 0-1.905.35 6.708 6.708 0 0 0-1.61 1.192zm-3.424 3.007a1.944 1.944 0 0 1 1.368-.6 2.037 2.037 0 0 1 1.484.673 1.985 1.985 0 0 1 .662 1.472 1.924 1.924 0 0 1-.59 1.381 1.891 1.891 0 0 1-1.381.589 2 2 0 0 1-1.462-.673 2.055 2.055 0 0 1-.684-1.473 1.915 1.915 0 0 1 .6-1.365z" class="cls-2" transform="translate(517.91 -475.927)"/>
            <path id="Path_76-53" d="M44.8 540.43a10.865 10.865 0 0 1 1.8-1.463 5.214 5.214 0 0 1 1.721-.7 9.773 9.773 0 0 1 2.113-.144 19.727 19.727 0 0 0 2.47-.063 3.151 3.151 0 0 0 1.973-.971 2.966 2.966 0 0 0 1-1.952 2.549 2.549 0 0 0-.877-1.912 3.09 3.09 0 0 0-1.805-.892 2.409 2.409 0 0 0-2.054.831l-2.573-2.573a5.6 5.6 0 0 1 2.843-1.618 5.312 5.312 0 0 1 2.967.29 7.9 7.9 0 0 1 2.751 1.838 6.647 6.647 0 0 1 2.209 4.325 5.32 5.32 0 0 1-1.784 4.128 5.222 5.222 0 0 1-2.012 1.286 8.457 8.457 0 0 1-2.326.415q-1.208.044-2.518.013a3.825 3.825 0 0 0-1.907.349 6.775 6.775 0 0 0-1.609 1.194zm-3.425 3.007a1.955 1.955 0 0 1 1.37-.6 2.032 2.032 0 0 1 1.483.674 1.977 1.977 0 0 1 .663 1.473 1.923 1.923 0 0 1-.589 1.379 1.887 1.887 0 0 1-1.381.59 2.006 2.006 0 0 1-1.462-.673 2.066 2.066 0 0 1-.686-1.475 1.921 1.921 0 0 1 .6-1.365z" class="cls-2" transform="translate(510.851 -502.865)"/>
            <path id="Path_76-54" d="M28.042 569.149a10.767 10.767 0 0 1 1.8-1.462 5.247 5.247 0 0 1 1.721-.7 9.869 9.869 0 0 1 2.113-.142 19.727 19.727 0 0 0 2.47-.063 3.148 3.148 0 0 0 1.973-.971 2.969 2.969 0 0 0 1-1.952 2.544 2.544 0 0 0-.871-1.908 3.073 3.073 0 0 0-1.805-.892 2.4 2.4 0 0 0-2.054.831l-2.573-2.573a5.608 5.608 0 0 1 2.843-1.62 5.313 5.313 0 0 1 2.967.292 7.889 7.889 0 0 1 2.751 1.838 6.647 6.647 0 0 1 2.209 4.324 5.316 5.316 0 0 1-1.784 4.129 5.186 5.186 0 0 1-2.012 1.286 8.445 8.445 0 0 1-2.325.416q-1.21.044-2.52.011a3.846 3.846 0 0 0-1.907.35 6.736 6.736 0 0 0-1.609 1.194zm-3.425 3.009a1.957 1.957 0 0 1 1.37-.6 2.038 2.038 0 0 1 1.484.675 1.988 1.988 0 0 1 .663 1.473 1.921 1.921 0 0 1-.59 1.379 1.894 1.894 0 0 1-1.381.59A2.013 2.013 0 0 1 24.7 575a2.058 2.058 0 0 1-.684-1.475 1.92 1.92 0 0 1 .6-1.365z" class="cls-2" transform="translate(500.571 -485.249)"/>
            <path id="Path_76-55" d="M123 564.014a16.489 16.489 0 0 1-1.12-3.328 7.966 7.966 0 0 1-.082-2.82 14.839 14.839 0 0 1 .923-3.075 29.761 29.761 0 0 0 1.225-3.538 4.77 4.77 0 0 0-.328-3.319 4.5 4.5 0 0 0-2.239-2.454 3.851 3.851 0 0 0-3.173.221 4.658 4.658 0 0 0-2.226 2.086 3.641 3.641 0 0 0 .086 3.357l-5.022 2.283a8.48 8.48 0 0 1-.786-4.9 8.058 8.058 0 0 1 1.994-4.058 11.956 11.956 0 0 1 4.072-2.925 10.083 10.083 0 0 1 7.315-.834 8.065 8.065 0 0 1 4.909 4.732 7.877 7.877 0 0 1 .753 3.541 12.773 12.773 0 0 1-.649 3.522q-.578 1.738-1.323 3.582a5.781 5.781 0 0 0-.519 2.893 10.12 10.12 0 0 0 .837 2.919zm2.446 6.461a2.955 2.955 0 0 1-.124-2.263 3.087 3.087 0 0 1 1.747-1.747 3 3 0 0 1 2.443-.157 2.914 2.914 0 0 1 1.646 1.573 2.858 2.858 0 0 1 .1 2.273 3.039 3.039 0 0 1-1.733 1.717 3.127 3.127 0 0 1-2.457.187 2.908 2.908 0 0 1-1.618-1.575z" class="cls-2" transform="translate(553.415 -495.814)"/>
            <path id="Path_76-56" d="M147.6 581.183a16.438 16.438 0 0 1-1.12-3.327 7.966 7.966 0 0 1-.082-2.82 14.938 14.938 0 0 1 .923-3.075 29.766 29.766 0 0 0 1.226-3.538 4.779 4.779 0 0 0-.329-3.319 4.489 4.489 0 0 0-2.239-2.454 3.853 3.853 0 0 0-3.172.219 4.66 4.66 0 0 0-2.228 2.088 3.646 3.646 0 0 0 .086 3.357l-5.022 2.283a8.483 8.483 0 0 1-.784-4.9 8.061 8.061 0 0 1 1.993-4.057 11.973 11.973 0 0 1 4.072-2.923 10.075 10.075 0 0 1 7.315-.834 8.059 8.059 0 0 1 4.911 4.732 7.9 7.9 0 0 1 .752 3.541 12.751 12.751 0 0 1-.649 3.52q-.578 1.74-1.323 3.583a5.8 5.8 0 0 0-.519 2.893 10.187 10.187 0 0 0 .837 2.919zm2.447 6.463a2.963 2.963 0 0 1-.126-2.264 3.083 3.083 0 0 1 1.747-1.747 3.006 3.006 0 0 1 2.444-.156 2.915 2.915 0 0 1 1.644 1.573 2.862 2.862 0 0 1 .1 2.272 3.05 3.05 0 0 1-1.734 1.718 3.133 3.133 0 0 1-2.457.187 2.906 2.906 0 0 1-1.618-1.576z" class="cls-2" transform="translate(568.504 -485.283)"/>
            <path id="Path_76-57" d="M108.469 591.055a16.388 16.388 0 0 1-1.12-3.328 7.929 7.929 0 0 1-.084-2.82 14.936 14.936 0 0 1 .923-3.075 29.776 29.776 0 0 0 1.226-3.538 4.788 4.788 0 0 0-.328-3.319 4.5 4.5 0 0 0-2.239-2.454 3.851 3.851 0 0 0-3.173.221 4.655 4.655 0 0 0-2.228 2.086 3.646 3.646 0 0 0 .086 3.357l-5.022 2.283a8.479 8.479 0 0 1-.784-4.9 8.066 8.066 0 0 1 1.992-4.059 11.973 11.973 0 0 1 4.072-2.923 10.087 10.087 0 0 1 7.317-.834 8.065 8.065 0 0 1 4.909 4.732 7.9 7.9 0 0 1 .753 3.541 12.773 12.773 0 0 1-.65 3.522q-.578 1.738-1.323 3.582a5.813 5.813 0 0 0-.519 2.893 10.237 10.237 0 0 0 .837 2.918zm2.446 6.461a2.963 2.963 0 0 1-.126-2.263 3.093 3.093 0 0 1 1.747-1.747 3.008 3.008 0 0 1 2.444-.156 2.907 2.907 0 0 1 1.644 1.573 2.865 2.865 0 0 1 .1 2.273 3.042 3.042 0 0 1-1.734 1.717 3.13 3.13 0 0 1-2.456.187 2.9 2.9 0 0 1-1.62-1.576z" class="cls-2" transform="translate(544.504 -479.228)"/>
            <path id="Path_76-58" d="M134.833 536.612a16.423 16.423 0 0 1-1.12-3.328 7.957 7.957 0 0 1-.082-2.819 14.933 14.933 0 0 1 .923-3.075 29.881 29.881 0 0 0 1.226-3.538 4.779 4.779 0 0 0-.329-3.319 4.489 4.489 0 0 0-2.239-2.454 3.853 3.853 0 0 0-3.172.219 4.659 4.659 0 0 0-2.228 2.088 3.646 3.646 0 0 0 .085 3.357l-5.022 2.283a8.483 8.483 0 0 1-.784-4.9 8.06 8.06 0 0 1 1.992-4.058 12 12 0 0 1 4.072-2.925 10.083 10.083 0 0 1 7.315-.832 8.059 8.059 0 0 1 4.911 4.732 7.915 7.915 0 0 1 .753 3.541 12.822 12.822 0 0 1-.65 3.52q-.578 1.74-1.323 3.583a5.793 5.793 0 0 0-.52 2.891 10.235 10.235 0 0 0 .837 2.92zm2.447 6.463a2.963 2.963 0 0 1-.126-2.263 3.087 3.087 0 0 1 1.747-1.747 3.007 3.007 0 0 1 2.444-.157 2.919 2.919 0 0 1 1.644 1.571 2.866 2.866 0 0 1 .1 2.273 3.054 3.054 0 0 1-1.734 1.718 3.133 3.133 0 0 1-2.457.187 2.906 2.906 0 0 1-1.618-1.576z" class="cls-2" transform="translate(560.675 -512.621)"/>
            <path id="Path_76-59" d="M97.735 550.035a16.287 16.287 0 0 1-1.12-3.328 7.929 7.929 0 0 1-.084-2.82 14.936 14.936 0 0 1 .923-3.075 29.771 29.771 0 0 0 1.226-3.538 4.788 4.788 0 0 0-.328-3.319 4.5 4.5 0 0 0-2.239-2.454 3.856 3.856 0 0 0-3.173.22 4.659 4.659 0 0 0-2.228 2.088 3.646 3.646 0 0 0 .085 3.357l-5.022 2.283a8.483 8.483 0 0 1-.784-4.9 8.062 8.062 0 0 1 1.992-4.058 11.972 11.972 0 0 1 4.072-2.923 10.078 10.078 0 0 1 7.317-.834 8.061 8.061 0 0 1 4.909 4.732 7.92 7.92 0 0 1 .753 3.541 12.752 12.752 0 0 1-.65 3.52q-.578 1.74-1.323 3.583a5.813 5.813 0 0 0-.519 2.893 10.24 10.24 0 0 0 .837 2.919zm2.446 6.462a2.963 2.963 0 0 1-.126-2.263 3.088 3.088 0 0 1 1.747-1.747 3.007 3.007 0 0 1 2.444-.157 2.912 2.912 0 0 1 1.644 1.573 2.861 2.861 0 0 1 .1 2.272 3.045 3.045 0 0 1-1.734 1.718 3.133 3.133 0 0 1-2.457.187 2.906 2.906 0 0 1-1.618-1.576z" class="cls-2" transform="translate(537.921 -504.388)"/>
            <path id="Path_76-60" d="M137.27 550.194a10.776 10.776 0 0 1 1.8-1.462 5.25 5.25 0 0 1 1.721-.705 9.87 9.87 0 0 1 2.113-.142 19.7 19.7 0 0 0 2.468-.063 3.151 3.151 0 0 0 1.975-.971 2.969 2.969 0 0 0 1-1.952 2.544 2.544 0 0 0-.871-1.909 3.073 3.073 0 0 0-1.805-.892 2.4 2.4 0 0 0-2.054.831l-2.573-2.573a5.6 5.6 0 0 1 2.843-1.62 5.312 5.312 0 0 1 2.967.292 7.921 7.921 0 0 1 2.751 1.836 6.651 6.651 0 0 1 2.209 4.325 5.316 5.316 0 0 1-1.784 4.129 5.178 5.178 0 0 1-2.013 1.286 8.379 8.379 0 0 1-2.325.415q-1.208.046-2.518.013a3.826 3.826 0 0 0-1.907.35 6.734 6.734 0 0 0-1.608 1.194zm-3.425 3.009a1.955 1.955 0 0 1 1.37-.6 2.026 2.026 0 0 1 1.483.674 1.977 1.977 0 0 1 .663 1.473 1.925 1.925 0 0 1-.589 1.38 1.894 1.894 0 0 1-1.381.59 2.012 2.012 0 0 1-1.462-.673 2.066 2.066 0 0 1-.686-1.475 1.921 1.921 0 0 1 .6-1.365z" class="cls-2" transform="translate(567.565 -496.875)"/>
            <path id="Path_76-61" d="M121.629 580.69a10.842 10.842 0 0 1 1.8-1.462 5.259 5.259 0 0 1 1.723-.705 9.863 9.863 0 0 1 2.112-.142 19.669 19.669 0 0 0 2.47-.063 3.147 3.147 0 0 0 1.973-.971 2.969 2.969 0 0 0 1-1.952 2.539 2.539 0 0 0-.871-1.909 3.073 3.073 0 0 0-1.805-.892 2.4 2.4 0 0 0-2.054.831l-2.573-2.573a5.607 5.607 0 0 1 2.843-1.62 5.319 5.319 0 0 1 2.969.292 7.881 7.881 0 0 1 2.749 1.838 6.656 6.656 0 0 1 2.21 4.324 5.317 5.317 0 0 1-1.786 4.128 5.186 5.186 0 0 1-2.012 1.286 8.445 8.445 0 0 1-2.325.416q-1.21.043-2.52.011a3.836 3.836 0 0 0-1.905.35 6.712 6.712 0 0 0-1.61 1.194zm-3.424 3.009a1.952 1.952 0 0 1 1.368-.6 2.039 2.039 0 0 1 1.484.674 1.983 1.983 0 0 1 .663 1.473 1.92 1.92 0 0 1-.59 1.379 1.891 1.891 0 0 1-1.381.591 2.013 2.013 0 0 1-1.462-.673 2.064 2.064 0 0 1-.684-1.475 1.92 1.92 0 0 1 .6-1.365z" class="cls-2" transform="translate(557.973 -478.171)"/>
            <path id="Path_76-62" d="M110.122 536.772a10.784 10.784 0 0 1 1.8-1.462 5.251 5.251 0 0 1 1.721-.7 9.878 9.878 0 0 1 2.113-.144 19.429 19.429 0 0 0 2.47-.061 3.16 3.16 0 0 0 1.973-.971 2.97 2.97 0 0 0 1-1.952 2.544 2.544 0 0 0-.871-1.909 3.073 3.073 0 0 0-1.805-.892 2.4 2.4 0 0 0-2.054.831l-2.573-2.573a5.6 5.6 0 0 1 2.843-1.62 5.327 5.327 0 0 1 2.967.29 7.948 7.948 0 0 1 2.751 1.838 6.65 6.65 0 0 1 2.209 4.325 5.316 5.316 0 0 1-1.784 4.129 5.186 5.186 0 0 1-2.012 1.286 8.386 8.386 0 0 1-2.326.415q-1.208.046-2.518.013a3.826 3.826 0 0 0-1.907.35 6.725 6.725 0 0 0-1.609 1.192zm-3.425 3.009a1.949 1.949 0 0 1 1.37-.6 2.033 2.033 0 0 1 1.484.674 1.98 1.98 0 0 1 .661 1.471 1.929 1.929 0 0 1-.589 1.381 1.893 1.893 0 0 1-1.381.59 2.012 2.012 0 0 1-1.462-.673 2.058 2.058 0 0 1-.684-1.475 1.908 1.908 0 0 1 .6-1.365z" class="cls-2" transform="translate(550.915 -505.108)"/>
            <path id="Path_76-63" d="M93.361 565.492a10.875 10.875 0 0 1 1.8-1.463 5.216 5.216 0 0 1 1.721-.7 9.878 9.878 0 0 1 2.113-.144 19.739 19.739 0 0 0 2.47-.063 3.147 3.147 0 0 0 1.973-.971 2.962 2.962 0 0 0 1-1.951 2.539 2.539 0 0 0-.871-1.909 3.075 3.075 0 0 0-1.805-.894 2.41 2.41 0 0 0-2.054.831l-2.573-2.572a5.585 5.585 0 0 1 2.843-1.62 5.312 5.312 0 0 1 2.967.29 7.89 7.89 0 0 1 2.751 1.838 6.651 6.651 0 0 1 2.209 4.325 5.318 5.318 0 0 1-1.784 4.128 5.185 5.185 0 0 1-2.021 1.283 8.443 8.443 0 0 1-2.325.415q-1.21.046-2.52.013a3.81 3.81 0 0 0-1.907.35 6.729 6.729 0 0 0-1.609 1.192zm-3.425 3.008a1.956 1.956 0 0 1 1.37-.6 2.046 2.046 0 0 1 1.484.674 1.991 1.991 0 0 1 .663 1.473 1.924 1.924 0 0 1-.59 1.381 1.892 1.892 0 0 1-1.381.589 2 2 0 0 1-1.462-.673 2.054 2.054 0 0 1-.684-1.473 1.914 1.914 0 0 1 .6-1.365z" class="cls-2" transform="translate(540.635 -487.493)"/>
            <path id="Path_76-64" d="M185.58 563.795a16.356 16.356 0 0 1-1.12-3.328 7.921 7.921 0 0 1-.084-2.819 14.981 14.981 0 0 1 .923-3.077 29.743 29.743 0 0 0 1.226-3.536 4.792 4.792 0 0 0-.327-3.32 4.5 4.5 0 0 0-2.239-2.452 3.85 3.85 0 0 0-3.173.219 4.663 4.663 0 0 0-2.228 2.086 3.649 3.649 0 0 0 .085 3.359l-5.022 2.281a8.475 8.475 0 0 1-.784-4.9 8.055 8.055 0 0 1 1.992-4.058 11.975 11.975 0 0 1 4.072-2.925 10.079 10.079 0 0 1 7.317-.832 8.062 8.062 0 0 1 4.909 4.73 7.9 7.9 0 0 1 .753 3.543 12.774 12.774 0 0 1-.65 3.52q-.578 1.74-1.323 3.583a5.811 5.811 0 0 0-.519 2.891 10.233 10.233 0 0 0 .837 2.92zm2.446 6.461a2.959 2.959 0 0 1-.126-2.262 3.087 3.087 0 0 1 1.747-1.747 3.007 3.007 0 0 1 2.444-.158 2.916 2.916 0 0 1 1.644 1.573 2.866 2.866 0 0 1 .1 2.273 3.049 3.049 0 0 1-1.734 1.718 3.123 3.123 0 0 1-2.456.186 2.9 2.9 0 0 1-1.62-1.575z" class="cls-2" transform="translate(591.8 -495.948)"/>
            <path id="Path_76-65" d="M210.18 580.965a16.393 16.393 0 0 1-1.12-3.328 7.929 7.929 0 0 1-.082-2.82 14.936 14.936 0 0 1 .921-3.075 29.669 29.669 0 0 0 1.226-3.538 4.769 4.769 0 0 0-.328-3.319 4.506 4.506 0 0 0-2.239-2.454 3.85 3.85 0 0 0-3.173.221 4.662 4.662 0 0 0-2.228 2.086 3.65 3.65 0 0 0 .086 3.359l-5.022 2.281a8.492 8.492 0 0 1-.784-4.9 8.054 8.054 0 0 1 1.992-4.058 11.971 11.971 0 0 1 4.071-2.92 10.087 10.087 0 0 1 7.317-.834 8.069 8.069 0 0 1 4.909 4.732 7.877 7.877 0 0 1 .753 3.541 12.833 12.833 0 0 1-.649 3.522q-.581 1.737-1.325 3.582a5.8 5.8 0 0 0-.518 2.893 10.153 10.153 0 0 0 .836 2.919zm2.446 6.461a2.955 2.955 0 0 1-.124-2.263 3.087 3.087 0 0 1 1.747-1.747 3 3 0 0 1 2.443-.157 2.906 2.906 0 0 1 1.644 1.573 2.858 2.858 0 0 1 .1 2.273 3.043 3.043 0 0 1-1.734 1.717 3.122 3.122 0 0 1-2.456.187 2.906 2.906 0 0 1-1.62-1.575z" class="cls-2" transform="translate(606.889 -485.417)"/>
            <path id="Path_76-66" d="M171.051 590.836a16.453 16.453 0 0 1-1.12-3.328 7.957 7.957 0 0 1-.082-2.819 14.821 14.821 0 0 1 .923-3.077 29.668 29.668 0 0 0 1.228-3.538 4.77 4.77 0 0 0-.327-3.319 4.491 4.491 0 0 0-2.239-2.452 3.851 3.851 0 0 0-3.173.219 4.659 4.659 0 0 0-2.226 2.086 3.644 3.644 0 0 0 .086 3.359l-5.022 2.281a8.478 8.478 0 0 1-.786-4.9 8.057 8.057 0 0 1 1.994-4.058 11.976 11.976 0 0 1 4.072-2.925 10.074 10.074 0 0 1 7.315-.832 8.058 8.058 0 0 1 4.909 4.73 7.882 7.882 0 0 1 .753 3.543 12.771 12.771 0 0 1-.649 3.52q-.578 1.74-1.323 3.582a5.8 5.8 0 0 0-.519 2.893 10.129 10.129 0 0 0 .837 2.92zm2.449 6.464a2.951 2.951 0 0 1-.124-2.262 3.078 3.078 0 0 1 1.747-1.747 3 3 0 0 1 2.443-.158 2.919 2.919 0 0 1 1.646 1.573 2.859 2.859 0 0 1 .1 2.273 3.047 3.047 0 0 1-1.733 1.718 3.126 3.126 0 0 1-2.457.186 2.908 2.908 0 0 1-1.618-1.575z" class="cls-2" transform="translate(582.889 -479.363)"/>
            <path id="Path_76-67" d="M197.416 536.394a16.384 16.384 0 0 1-1.12-3.328 7.928 7.928 0 0 1-.082-2.82 14.926 14.926 0 0 1 .921-3.075 29.777 29.777 0 0 0 1.226-3.538 4.769 4.769 0 0 0-.328-3.319 4.5 4.5 0 0 0-2.239-2.454 3.851 3.851 0 0 0-3.173.221 4.663 4.663 0 0 0-2.228 2.086 3.646 3.646 0 0 0 .085 3.357l-5.022 2.283a8.492 8.492 0 0 1-.784-4.9 8.067 8.067 0 0 1 1.993-4.057 11.97 11.97 0 0 1 4.072-2.925 10.088 10.088 0 0 1 7.317-.834 8.065 8.065 0 0 1 4.909 4.732 7.876 7.876 0 0 1 .753 3.541 12.832 12.832 0 0 1-.649 3.522q-.581 1.738-1.325 3.582a5.8 5.8 0 0 0-.518 2.893 10.185 10.185 0 0 0 .836 2.919zm2.446 6.462a2.955 2.955 0 0 1-.124-2.264 3.087 3.087 0 0 1 1.747-1.747 3 3 0 0 1 2.443-.157 2.906 2.906 0 0 1 1.644 1.573 2.858 2.858 0 0 1 .1 2.273 3.042 3.042 0 0 1-1.734 1.717 3.13 3.13 0 0 1-2.456.187 2.9 2.9 0 0 1-1.62-1.576z" class="cls-2" transform="translate(599.06 -512.755)"/>
            <path id="Path_76-68" d="M160.317 549.816a16.488 16.488 0 0 1-1.12-3.328 7.966 7.966 0 0 1-.082-2.82 14.93 14.93 0 0 1 .921-3.075 29.391 29.391 0 0 0 1.226-3.538 4.77 4.77 0 0 0-.328-3.319 4.506 4.506 0 0 0-2.239-2.454 3.851 3.851 0 0 0-3.173.221 4.658 4.658 0 0 0-2.226 2.086 3.645 3.645 0 0 0 .086 3.359l-5.022 2.281a8.48 8.48 0 0 1-.786-4.9 8.057 8.057 0 0 1 1.994-4.058 11.956 11.956 0 0 1 4.072-2.925 10.083 10.083 0 0 1 7.315-.834 8.065 8.065 0 0 1 4.909 4.732 7.877 7.877 0 0 1 .753 3.541 12.774 12.774 0 0 1-.649 3.522q-.581 1.738-1.325 3.582a5.8 5.8 0 0 0-.518 2.893 10.154 10.154 0 0 0 .836 2.919zm2.446 6.461a2.955 2.955 0 0 1-.124-2.263 3.087 3.087 0 0 1 1.747-1.747 3 3 0 0 1 2.443-.157 2.906 2.906 0 0 1 1.644 1.573 2.852 2.852 0 0 1 .1 2.273 3.042 3.042 0 0 1-1.734 1.717 3.122 3.122 0 0 1-2.455.187 2.911 2.911 0 0 1-1.62-1.575z" class="cls-2" transform="translate(576.305 -504.522)"/>
            <path id="Path_76-69" d="M199.851 549.976a10.935 10.935 0 0 1 1.8-1.463 5.258 5.258 0 0 1 1.723-.705 9.863 9.863 0 0 1 2.113-.142 19.7 19.7 0 0 0 2.468-.063 3.155 3.155 0 0 0 1.975-.971 2.97 2.97 0 0 0 1-1.952 2.544 2.544 0 0 0-.871-1.909 3.083 3.083 0 0 0-1.8-.892 2.415 2.415 0 0 0-2.055.831l-2.573-2.573a5.6 5.6 0 0 1 2.843-1.618 5.32 5.32 0 0 1 2.969.291 7.882 7.882 0 0 1 2.749 1.838 6.649 6.649 0 0 1 2.21 4.325 5.32 5.32 0 0 1-1.802 4.127 5.24 5.24 0 0 1-2.013 1.286 8.439 8.439 0 0 1-2.325.415q-1.208.044-2.52.013a3.823 3.823 0 0 0-1.905.348 6.753 6.753 0 0 0-1.61 1.194zm-3.424 3.007a1.952 1.952 0 0 1 1.368-.6 2.036 2.036 0 0 1 1.484.675 1.982 1.982 0 0 1 .663 1.473 1.918 1.918 0 0 1-.59 1.379 1.883 1.883 0 0 1-1.379.59 2.01 2.01 0 0 1-1.463-.673 2.065 2.065 0 0 1-.684-1.475 1.915 1.915 0 0 1 .6-1.365z" class="cls-2" transform="translate(605.95 -497.009)"/>
            <path id="Path_76-70" d="M184.211 580.472a10.872 10.872 0 0 1 1.8-1.463 5.21 5.21 0 0 1 1.721-.7 9.759 9.759 0 0 1 2.113-.144 19.7 19.7 0 0 0 2.468-.063 3.151 3.151 0 0 0 1.975-.971 2.97 2.97 0 0 0 1-1.95 2.545 2.545 0 0 0-.871-1.91 3.083 3.083 0 0 0-1.8-.892 2.409 2.409 0 0 0-2.054.831l-2.573-2.573a5.587 5.587 0 0 1 2.843-1.618 5.314 5.314 0 0 1 2.967.29 7.9 7.9 0 0 1 2.751 1.838 6.647 6.647 0 0 1 2.209 4.325 5.32 5.32 0 0 1-1.784 4.129 5.222 5.222 0 0 1-2.013 1.286 8.446 8.446 0 0 1-2.325.415q-1.208.046-2.518.013a3.824 3.824 0 0 0-1.907.349 6.744 6.744 0 0 0-1.609 1.194zm-3.424 3.007a1.951 1.951 0 0 1 1.368-.6 2.036 2.036 0 0 1 1.484.674 1.977 1.977 0 0 1 .663 1.473 1.918 1.918 0 0 1-.591 1.379 1.884 1.884 0 0 1-1.379.59 2.01 2.01 0 0 1-1.463-.673 2.07 2.07 0 0 1-.684-1.473 1.916 1.916 0 0 1 .6-1.365z" class="cls-2" transform="translate(596.358 -478.305)"/>
            <path id="Path_76-71" d="M172.7 536.553a10.846 10.846 0 0 1 1.8-1.462 5.261 5.261 0 0 1 1.723-.705 9.859 9.859 0 0 1 2.113-.142 19.721 19.721 0 0 0 2.468-.063 3.155 3.155 0 0 0 1.975-.971 2.971 2.971 0 0 0 1-1.952 2.541 2.541 0 0 0-.871-1.909 3.074 3.074 0 0 0-1.8-.892 2.406 2.406 0 0 0-2.055.831l-2.573-2.573a5.6 5.6 0 0 1 2.843-1.618 5.3 5.3 0 0 1 2.969.291 7.879 7.879 0 0 1 2.749 1.838 6.642 6.642 0 0 1 2.21 4.324 5.316 5.316 0 0 1-1.784 4.129 5.2 5.2 0 0 1-2.013 1.286 8.448 8.448 0 0 1-2.325.416q-1.208.044-2.518.011a3.843 3.843 0 0 0-1.907.35 6.712 6.712 0 0 0-1.61 1.194zm-3.424 3.009a1.952 1.952 0 0 1 1.368-.6 2.036 2.036 0 0 1 1.484.674 1.983 1.983 0 0 1 .663 1.473 1.921 1.921 0 0 1-.59 1.38 1.89 1.89 0 0 1-1.379.59 2.016 2.016 0 0 1-1.463-.673 2.064 2.064 0 0 1-.684-1.475 1.915 1.915 0 0 1 .6-1.365z" class="cls-2" transform="translate(589.3 -505.242)"/>
            <path id="Path_76-72" d="M155.943 565.273a10.785 10.785 0 0 1 1.8-1.462 5.237 5.237 0 0 1 1.721-.7 9.859 9.859 0 0 1 2.114-.142 19.721 19.721 0 0 0 2.468-.063 3.164 3.164 0 0 0 1.975-.971 2.974 2.974 0 0 0 1-1.952 2.539 2.539 0 0 0-.871-1.909 3.063 3.063 0 0 0-1.8-.892 2.4 2.4 0 0 0-2.055.831l-2.572-2.573a5.592 5.592 0 0 1 2.841-1.62 5.332 5.332 0 0 1 2.969.29 7.927 7.927 0 0 1 2.749 1.838 6.645 6.645 0 0 1 2.21 4.325 5.316 5.316 0 0 1-1.792 4.127 5.2 5.2 0 0 1-2.013 1.286 8.387 8.387 0 0 1-2.325.415q-1.208.046-2.518.013a3.826 3.826 0 0 0-1.907.35 6.666 6.666 0 0 0-1.609 1.192zm-3.424 3.009a1.945 1.945 0 0 1 1.368-.6 2.031 2.031 0 0 1 1.484.674 1.983 1.983 0 0 1 .663 1.473 1.923 1.923 0 0 1-.59 1.379 1.89 1.89 0 0 1-1.379.591 2.016 2.016 0 0 1-1.463-.673 2.071 2.071 0 0 1-.684-1.475 1.912 1.912 0 0 1 .6-1.365z" class="cls-2" transform="translate(579.019 -487.627)"/>
            <path id="Path_76-73" d="M250.7 567.671a16.259 16.259 0 0 1-1.12-3.328 7.918 7.918 0 0 1-.084-2.818 14.936 14.936 0 0 1 .923-3.075 29.869 29.869 0 0 0 1.226-3.538 4.787 4.787 0 0 0-.328-3.319 4.5 4.5 0 0 0-2.239-2.454 3.856 3.856 0 0 0-3.173.219 4.663 4.663 0 0 0-2.228 2.086 3.649 3.649 0 0 0 .086 3.359l-5.022 2.283a8.482 8.482 0 0 1-.784-4.9 8.061 8.061 0 0 1 1.993-4.058 12 12 0 0 1 4.072-2.925 10.086 10.086 0 0 1 7.317-.833 8.061 8.061 0 0 1 4.909 4.732 7.916 7.916 0 0 1 .753 3.541 12.764 12.764 0 0 1-.65 3.52q-.578 1.74-1.323 3.583a5.81 5.81 0 0 0-.519 2.891 10.231 10.231 0 0 0 .837 2.92zm2.446 6.463a2.963 2.963 0 0 1-.126-2.264 3.088 3.088 0 0 1 1.747-1.747 3.007 3.007 0 0 1 2.444-.156 2.914 2.914 0 0 1 1.644 1.571 2.866 2.866 0 0 1 .1 2.273 3.049 3.049 0 0 1-1.734 1.718 3.126 3.126 0 0 1-2.457.186 2.9 2.9 0 0 1-1.618-1.575z" class="cls-2" transform="translate(631.744 -493.571)"/>
            <path id="Path_76-74" d="M275.3 584.841a16.353 16.353 0 0 1-1.12-3.328 7.958 7.958 0 0 1-.084-2.819 15.049 15.049 0 0 1 .923-3.077 29.755 29.755 0 0 0 1.226-3.536 4.783 4.783 0 0 0-.328-3.32 4.5 4.5 0 0 0-2.239-2.452 3.851 3.851 0 0 0-3.174.219 4.662 4.662 0 0 0-2.228 2.086 3.649 3.649 0 0 0 .085 3.359l-5.022 2.281a8.475 8.475 0 0 1-.784-4.9 8.054 8.054 0 0 1 1.992-4.058 11.99 11.99 0 0 1 4.072-2.925 10.079 10.079 0 0 1 7.317-.833 8.062 8.062 0 0 1 4.909 4.73 7.884 7.884 0 0 1 .753 3.543 12.834 12.834 0 0 1-.649 3.52q-.581 1.74-1.325 3.582a5.8 5.8 0 0 0-.518 2.893 10.182 10.182 0 0 0 .836 2.92zm2.446 6.462a2.951 2.951 0 0 1-.124-2.262 3.074 3.074 0 0 1 1.747-1.747 3 3 0 0 1 2.443-.158 2.911 2.911 0 0 1 1.644 1.573 2.865 2.865 0 0 1 .1 2.273 3.05 3.05 0 0 1-1.734 1.718 3.122 3.122 0 0 1-2.456.186 2.907 2.907 0 0 1-1.62-1.575z" class="cls-2" transform="translate(646.832 -483.04)"/>
            <path id="Path_76-75" d="M236.174 594.712a16.456 16.456 0 0 1-1.12-3.328 7.957 7.957 0 0 1-.082-2.819 14.937 14.937 0 0 1 .921-3.075 29.57 29.57 0 0 0 1.226-3.538 4.774 4.774 0 0 0-.327-3.32 4.5 4.5 0 0 0-2.239-2.452 3.856 3.856 0 0 0-3.173.219 4.666 4.666 0 0 0-2.226 2.086 3.645 3.645 0 0 0 .085 3.359l-5.022 2.281a8.476 8.476 0 0 1-.786-4.9 8.068 8.068 0 0 1 1.992-4.058 12.021 12.021 0 0 1 4.074-2.925 10.081 10.081 0 0 1 7.315-.832 8.056 8.056 0 0 1 4.909 4.732 7.871 7.871 0 0 1 .753 3.541 12.761 12.761 0 0 1-.649 3.52q-.581 1.74-1.325 3.583a5.791 5.791 0 0 0-.518 2.891 10.179 10.179 0 0 0 .836 2.92zm2.446 6.461a2.951 2.951 0 0 1-.124-2.262 3.083 3.083 0 0 1 1.747-1.747 3 3 0 0 1 2.443-.158 2.916 2.916 0 0 1 1.644 1.573 2.852 2.852 0 0 1 .1 2.273 3.05 3.05 0 0 1-1.734 1.718 3.122 3.122 0 0 1-2.456.185 2.9 2.9 0 0 1-1.62-1.575z" class="cls-2" transform="translate(622.832 -476.985)"/>
            <path id="Path_76-76" d="M262.539 540.27a16.394 16.394 0 0 1-1.12-3.328 7.966 7.966 0 0 1-.084-2.82 15.036 15.036 0 0 1 .923-3.075 29.669 29.669 0 0 0 1.226-3.538 4.778 4.778 0 0 0-.328-3.319 4.506 4.506 0 0 0-2.239-2.454 3.857 3.857 0 0 0-3.173.221 4.663 4.663 0 0 0-2.228 2.086 3.65 3.65 0 0 0 .086 3.359l-5.022 2.281a8.479 8.479 0 0 1-.784-4.9 8.054 8.054 0 0 1 1.992-4.057 11.97 11.97 0 0 1 4.072-2.925 10.088 10.088 0 0 1 7.317-.834 8.069 8.069 0 0 1 4.909 4.732 7.879 7.879 0 0 1 .753 3.543 12.829 12.829 0 0 1-.649 3.52q-.581 1.738-1.324 3.582a5.8 5.8 0 0 0-.518 2.893 10.151 10.151 0 0 0 .836 2.919zm2.446 6.461a2.955 2.955 0 0 1-.124-2.264 3.083 3.083 0 0 1 1.747-1.747 3 3 0 0 1 2.443-.156 2.906 2.906 0 0 1 1.644 1.573 2.866 2.866 0 0 1 .1 2.273 3.042 3.042 0 0 1-1.734 1.717 3.123 3.123 0 0 1-2.456.187 2.907 2.907 0 0 1-1.62-1.575z" class="cls-2" transform="translate(639.003 -510.377)"/>
            <path id="Path_76-77" d="M225.44 553.692a16.455 16.455 0 0 1-1.12-3.328 7.92 7.92 0 0 1-.082-2.819 14.947 14.947 0 0 1 .921-3.077 29.743 29.743 0 0 0 1.226-3.536 4.775 4.775 0 0 0-.328-3.32 4.5 4.5 0 0 0-2.239-2.452 3.85 3.85 0 0 0-3.173.219 4.67 4.67 0 0 0-2.228 2.086 3.645 3.645 0 0 0 .087 3.359l-5.022 2.281a8.476 8.476 0 0 1-.786-4.9 8.067 8.067 0 0 1 1.992-4.057 12.011 12.011 0 0 1 4.072-2.925 10.08 10.08 0 0 1 7.317-.833 8.063 8.063 0 0 1 4.909 4.73 7.884 7.884 0 0 1 .753 3.543 12.768 12.768 0 0 1-.649 3.52q-.581 1.74-1.325 3.583a5.792 5.792 0 0 0-.518 2.891 10.178 10.178 0 0 0 .836 2.92zm2.446 6.461a2.951 2.951 0 0 1-.124-2.262 3.078 3.078 0 0 1 1.747-1.747 3 3 0 0 1 2.443-.158 2.911 2.911 0 0 1 1.644 1.573 2.858 2.858 0 0 1 .1 2.273 3.049 3.049 0 0 1-1.734 1.718 3.122 3.122 0 0 1-2.456.186 2.906 2.906 0 0 1-1.62-1.575z" class="cls-2" transform="translate(616.249 -502.145)"/>
            <path id="Path_76-78" d="M264.974 553.852a10.937 10.937 0 0 1 1.8-1.463 5.225 5.225 0 0 1 1.723-.7 9.762 9.762 0 0 1 2.112-.144 19.7 19.7 0 0 0 2.47-.063 3.146 3.146 0 0 0 1.973-.971 2.962 2.962 0 0 0 1-1.95 2.539 2.539 0 0 0-.871-1.909 3.074 3.074 0 0 0-1.805-.894 2.411 2.411 0 0 0-2.054.831l-2.573-2.572a5.586 5.586 0 0 1 2.843-1.62 5.319 5.319 0 0 1 2.969.29 7.881 7.881 0 0 1 2.749 1.838 6.653 6.653 0 0 1 2.21 4.325 5.314 5.314 0 0 1-1.786 4.129 5.2 5.2 0 0 1-2.012 1.286 8.446 8.446 0 0 1-2.325.415q-1.208.046-2.52.013a3.8 3.8 0 0 0-1.905.35 6.706 6.706 0 0 0-1.61 1.192zm-3.424 3.007a1.951 1.951 0 0 1 1.368-.6 2.042 2.042 0 0 1 1.484.674 1.983 1.983 0 0 1 .663 1.473 1.918 1.918 0 0 1-.59 1.379 1.884 1.884 0 0 1-1.379.591 2 2 0 0 1-1.463-.673 2.061 2.061 0 0 1-.684-1.473 1.914 1.914 0 0 1 .6-1.365z" class="cls-2" transform="translate(645.893 -494.632)"/>
            <path id="Path_76-79" d="M249.334 584.348a10.891 10.891 0 0 1 1.8-1.463 5.234 5.234 0 0 1 1.721-.7 9.86 9.86 0 0 1 2.113-.144 19.721 19.721 0 0 0 2.468-.063 3.155 3.155 0 0 0 1.974-.978 2.966 2.966 0 0 0 1-1.95 2.539 2.539 0 0 0-.871-1.909 3.076 3.076 0 0 0-1.8-.894 2.411 2.411 0 0 0-2.055.833l-2.584-2.57a5.592 5.592 0 0 1 2.841-1.62 5.318 5.318 0 0 1 2.969.29 7.9 7.9 0 0 1 2.749 1.838 6.646 6.646 0 0 1 2.21 4.325 5.316 5.316 0 0 1-1.784 4.129 5.2 5.2 0 0 1-2.013 1.286 8.446 8.446 0 0 1-2.325.415q-1.208.046-2.518.013a3.81 3.81 0 0 0-1.907.35 6.669 6.669 0 0 0-1.609 1.192zm-3.423 3.007a1.944 1.944 0 0 1 1.368-.6 2.035 2.035 0 0 1 1.484.673 1.985 1.985 0 0 1 .663 1.473 1.924 1.924 0 0 1-.59 1.381 1.888 1.888 0 0 1-1.379.589 2 2 0 0 1-1.463-.673 2.067 2.067 0 0 1-.684-1.473 1.91 1.91 0 0 1 .6-1.365z" class="cls-2" transform="translate(636.301 -475.927)"/>
            <path id="Path_76-80" d="M237.827 540.43a10.931 10.931 0 0 1 1.8-1.463 5.222 5.222 0 0 1 1.723-.7 9.766 9.766 0 0 1 2.113-.144 19.71 19.71 0 0 0 2.468-.063 3.148 3.148 0 0 0 1.973-.971 2.966 2.966 0 0 0 1-1.952 2.544 2.544 0 0 0-.871-1.909 3.081 3.081 0 0 0-1.805-.892 2.413 2.413 0 0 0-2.054.831l-2.573-2.573a5.6 5.6 0 0 1 2.843-1.618 5.319 5.319 0 0 1 2.969.29 7.883 7.883 0 0 1 2.749 1.838 6.649 6.649 0 0 1 2.21 4.325 5.32 5.32 0 0 1-1.784 4.128 5.24 5.24 0 0 1-2.013 1.286 8.445 8.445 0 0 1-2.325.415q-1.208.044-2.52.013a3.818 3.818 0 0 0-1.905.349 6.752 6.752 0 0 0-1.61 1.194zm-3.424 3.007a1.952 1.952 0 0 1 1.368-.6 2.036 2.036 0 0 1 1.484.674 1.983 1.983 0 0 1 .663 1.473 1.918 1.918 0 0 1-.591 1.379 1.883 1.883 0 0 1-1.379.59 2.009 2.009 0 0 1-1.463-.673 2.064 2.064 0 0 1-.684-1.475 1.92 1.92 0 0 1 .6-1.365z" class="cls-2" transform="translate(629.243 -502.865)"/>
            <path id="Path_76-81" d="M221.066 569.149a10.831 10.831 0 0 1 1.8-1.462 5.256 5.256 0 0 1 1.723-.7 9.855 9.855 0 0 1 2.113-.142 19.709 19.709 0 0 0 2.468-.063 3.156 3.156 0 0 0 1.975-.971 2.974 2.974 0 0 0 1-1.952 2.538 2.538 0 0 0-.871-1.908 3.073 3.073 0 0 0-1.8-.892 2.4 2.4 0 0 0-2.055.831l-2.573-2.573a5.614 5.614 0 0 1 2.843-1.62 5.32 5.32 0 0 1 2.969.292 7.883 7.883 0 0 1 2.749 1.838 6.649 6.649 0 0 1 2.21 4.324 5.316 5.316 0 0 1-1.784 4.129 5.2 5.2 0 0 1-2.013 1.286 8.446 8.446 0 0 1-2.325.416q-1.208.044-2.52.011a3.843 3.843 0 0 0-1.905.35 6.712 6.712 0 0 0-1.61 1.194zm-3.424 3.009a1.953 1.953 0 0 1 1.368-.6 2.036 2.036 0 0 1 1.484.675 1.983 1.983 0 0 1 .663 1.473 1.921 1.921 0 0 1-.59 1.379 1.89 1.89 0 0 1-1.379.59 2.016 2.016 0 0 1-1.463-.673 2.065 2.065 0 0 1-.684-1.475 1.915 1.915 0 0 1 .6-1.365z" class="cls-2" transform="translate(618.963 -485.249)"/>
        </g>
    </g>
</svg>
