<svg xmlns="http://www.w3.org/2000/svg" xmlns:xlink="http://www.w3.org/1999/xlink" viewBox="0 0 248.77 35.7"><defs><style>.cls-1{fill:url(#linear-gradient);}.cls-2{fill:url(#linear-gradient-2);}.cls-3{fill:#f2f2f2;}.cls-4{fill:#455453;}.cls-5{fill:#ea211c;}.cls-6{fill:none;}.cls-7{fill:#75838e;}.cls-8{fill:#fff;}</style><linearGradient id="linear-gradient" x1="1220.32" y1="1068.76" x2="1221.9" y2="1069.86" gradientTransform="matrix(217.86, 0, 0, -32.71, -265839.44, 34998.92)" gradientUnits="userSpaceOnUse"><stop offset="0" stop-color="#f5a623"/><stop offset="1" stop-color="#f8d447"/></linearGradient><linearGradient id="linear-gradient-2" x1="1134.34" y1="1049.81" x2="1134.34" y2="1048.81" gradientTransform="matrix(16.04, 0, 0, -14.93, -18163.17, 15682.5)" gradientUnits="userSpaceOnUse"><stop offset="0" stop-color="#f8d447"/><stop offset="1" stop-color="#f5a623"/></linearGradient></defs><g id="Layer_2" data-name="Layer 2"><g id="Layer_1-2" data-name="Layer 1"><g id="quiz_baner" data-name="quiz baner"><path id="string-2" class="cls-1" d="M243.11,35.3c-67-23.66-163.36,16.48-206.62-7.64,2.25-2,6.16-3.09,3.43-5.43-3.48-3-7.78-6.22-9-9.15,70.53,22.39,154.44-30.62,217.87-.66-2,4.52-6.61,8.67-8.66,11.29C239.65,26.62,243.51,30,243.11,35.3Z"/><path id="flag" class="cls-2" d="M31.07,13.07l-9.27,3,.07-.37L37.34,28,21.64,16.06l-.34-.26.4-.11Z"/><g id="icon_efroni" data-name="icon efroni"><path id="Fill_1-2" data-name="Fill 1-2" class="cls-3" d="M24.4,17v0l-1.32,3.37a.27.27,0,0,1-.33.16l-.8-.24c-.13,0-.79-.25-.79-.72,0-.25,0-1.85,0-2.36l-1.27-.7c-.45-.08-3.69-.62-5.16-1l-.46-.14-.45,1.56s0,0,0,0l-3.26,7.21a.28.28,0,0,1-.32.15l-1.94-.54h0a.56.56,0,0,1-.42-.6c0-.2,1.46-6.95,1.52-7.24l.53-1.82-1.34-.39a20.57,20.57,0,0,1-2.31-.85.3.3,0,0,1-.17.12,3,3,0,0,0-.43.12.29.29,0,0,1-.24,0A.94.94,0,0,1,5,12.2C3.26,11.3,3.33,11,3.38,10.87s.13-.43,2.09-.26a.94.94,0,0,1,.81-.47.27.27,0,0,1,.22.11,3.17,3.17,0,0,0,.3.34.27.27,0,0,1,.08.19,18,18,0,0,1,2.4.52l1.33.39.53-1.83c.1-.28,2.52-6.74,2.6-6.93a.57.57,0,0,1,.68-.27h0l1.93.58a.28.28,0,0,1,.19.29l-1.11,7.84a0,0,0,0,0,0,0L15,13l.46.13c1.48.43,4.5,1.71,4.92,1.89l1.45.09,1.23-2c.26-.4.93-.23,1.06-.19l.8.23a.27.27,0,0,1,.19.31L24.41,17Z"/><path id="Fill_3" data-name="Fill 3" class="cls-4" d="M24.66,17v.05l-1.32,3.36a.54.54,0,0,1-.65.31l-.8-.23a3,3,0,0,1-.41-.17.93.93,0,0,1-.58-.81c0-.17,0-.93,0-2.21l-1.09-.6c-.6-.1-3.7-.62-5.15-1l-.2-.06-.37,1.3,0,.07-3.26,7.21a.55.55,0,0,1-.63.29L8.26,24h0a.84.84,0,0,1-.6-.9c0-.17,1-4.83,1.39-6.58l.14-.66v0l.45-1.56-1.08-.3a19,19,0,0,1-2.18-.8.36.36,0,0,1-.17.07h0l-.38.11a.54.54,0,0,1-.48,0,1.23,1.23,0,0,1-.56-.9,10.67,10.67,0,0,1-1-.57c-.3-.2-.79-.53-.65-1s.73-.49,1.08-.49a9.27,9.27,0,0,1,1.13,0,1.19,1.19,0,0,1,1-.47.59.59,0,0,1,.43.22,2.61,2.61,0,0,0,.27.31.76.76,0,0,1,.11.14,19.39,19.39,0,0,1,2.26.5l1.07.31.46-1.55v0l.23-.63c.63-1.68,2.3-6.14,2.37-6.3a.84.84,0,0,1,1-.44l0,0L16.46,3a.54.54,0,0,1,.38.58l-1.11,7.83s0,0,0,.07l-.38,1.3.2.06c1.45.42,4.34,1.64,4.9,1.88l1.24.08,1.15-1.89a.93.93,0,0,1,.93-.37,2,2,0,0,1,.43.08l.8.23a.52.52,0,0,1,.38.6L24.69,17Zm-15-1.11c0,.07-1.48,7-1.52,7.23s.26.31.26.31l1.94.54,3.25-7.21L14.12,15l.72.21c1.53.45,5.14,1,5.18,1l1.45.8s0,2.22,0,2.52S22,20,22,20l.8.23,1.32-3.37.69-3.55-.8-.23s-.6-.17-.76.07-1.2,2-1.31,2.15h0l-1.65-.1s-3.4-1.45-4.93-1.9l-.72-.21.53-1.81,1.11-7.83L14.38,2.9s-.3-.06-.38.12-2.57,6.85-2.59,6.92L10.81,12l-1.6-.46A19.49,19.49,0,0,0,6.28,11a.84.84,0,0,1,.33-.19h0a2.67,2.67,0,0,1-.31-.36.75.75,0,0,0-.66.49c-1.13-.11-1.94-.09-2,0s.64.6,1.65,1.11a.73.73,0,0,0,.29.76,3.64,3.64,0,0,1,.47-.14h0a1.06,1.06,0,0,1-.18-.33,20.1,20.1,0,0,0,2.79,1.08l1.6.46Z"/><path id="Fill_5" data-name="Fill 5" class="cls-5" d="M8.86,12a.89.89,0,0,1-.63-.71c-.08-.58-1.06.66-1.06.66Z"/><path id="Fill_7" data-name="Fill 7" class="cls-5" d="M8.63,12.83a.91.91,0,0,0-.92.27c-.38.44-.54-1.13-.54-1.13Z"/><path id="Fill_9" data-name="Fill 9" class="cls-5" d="M5.88,12.33c.56.27,1.2.53,1.83.76l.52-1.8C7.57,11.14,6.9,11,6.28,11a1,1,0,0,1,.33-.19c-.11-.11-.22-.24-.32-.36a.72.72,0,0,0-.66.48,4.17,4.17,0,0,0-2,0h0c0,.14.65.6,1.65,1.11a.71.71,0,0,0,.29.76,3.62,3.62,0,0,1,.47-.13.8.8,0,0,1-.18-.34"/><path id="Clip_12-2" data-name="Clip 12-2" class="cls-6" d="M21.53,27.83,27.8,6.26,6.27,0,0,21.57Z"/><g id="Group_526" data-name="Group 526"><g id="icon_efroni-2" data-name="icon efroni-2"><path id="Fill_11" data-name="Fill 11" class="cls-4" d="M3.81,12.8l1-3.35-.27-.08-1,3.36Z"/><path id="Fill_13" data-name="Fill 13" class="cls-7" d="M5.31,12a.76.76,0,0,0,.27.84,2.79,2.79,0,0,1,.47-.14s-.24-.28-.18-.49A.65.65,0,0,0,5.31,12"/><path id="Fill_14" data-name="Fill 14" class="cls-7" d="M5.61,11a.72.72,0,0,1,.68-.56,2.74,2.74,0,0,0,.32.36s-.35.11-.42.33A.71.71,0,0,1,5.61,11"/><path id="Fill_15" data-name="Fill 15" class="cls-5" d="M9,19c-.4,1.92-.84,4-.86,4.14s.25.31.25.31l1.94.54,1.84-4.07Z"/><path id="Fill_16" data-name="Fill 16" class="cls-5" d="M14,3c0,.1-.79,2.1-1.47,3.93l3.15.91.62-4.38L14.38,2.9s-.3-.06-.38.12"/><path id="Fill_17" data-name="Fill 17" class="cls-5" d="M21.45,18.38c0,.53,0,1.05,0,1.18,0,.29.6.47.6.47l.8.23.52-1.33Z"/><path id="Fill_18" data-name="Fill 18" class="cls-5" d="M23.28,13.18c-.07.11-.32.53-.6,1l1.89.55.26-1.36-.8-.23s-.6-.17-.76.07"/><path id="Fill_19" data-name="Fill 19" class="cls-3" d="M16.34,15.56l.52.11L17.34,14l-.5-.19Z"/><path id="Fill_20" data-name="Fill 20" class="cls-5" d="M4.27,11.47l.19-.65,4.82,1.29L9,13Z"/><path id="Fill_21" data-name="Fill 21" class="cls-4" d="M10.55,12.18a1.3,1.3,0,0,0-.44,1.4l.06.18-.41-.12c-.83-.24-1.15-.64-1-1.21s.65-.74,1.48-.5l.44.12Z"/><path id="Fill_22" data-name="Fill 22" class="cls-3" d="M10.93,12h0l-.31.25a1.17,1.17,0,0,0-.4,1.28l.11.37L10,13.81l-.21-.06c-.89-.26-1.25-.72-1.07-1.35s.73-.83,1.62-.57l.25.07.39.11ZM10,12.8a1.47,1.47,0,0,1,.48-.7l-.15,0-.1,0c-.77-.22-1.2-.08-1.35.43s.14.87.91,1.09l.09,0,.13,0A1.49,1.49,0,0,1,10,12.8Z"/><path id="Fill_23" data-name="Fill 23" class="cls-4" d="M12.57,12.72l-1.92-.57a1.25,1.25,0,0,0-.47,1.5l2,.56a1.41,1.41,0,0,0,.4-1.5"/><path id="Fill_24" data-name="Fill 24" class="cls-4" d="M12.72,13.59a1.44,1.44,0,0,1-.4.67l2.92.82a2,2,0,0,0,.42-1.43l-2.93-.88a1.43,1.43,0,0,1,0,.82"/><path id="Fill_25" data-name="Fill 25" class="cls-4" d="M24.66,17v.05l-1.32,3.36a.54.54,0,0,1-.65.31l-.8-.23a3,3,0,0,1-.41-.17.93.93,0,0,1-.58-.81c0-.17,0-.93,0-2.21l-1.09-.6c-.6-.1-3.7-.62-5.15-1l-.2-.06-.38,1.3a.19.19,0,0,1,0,.07l-3.26,7.21a.55.55,0,0,1-.63.29L8.26,24h0a.84.84,0,0,1-.6-.9c0-.17,1-4.83,1.39-6.58l.14-.66v0l.45-1.56-1.08-.3a19,19,0,0,1-2.18-.8.36.36,0,0,1-.17.07h0l-.38.11a.54.54,0,0,1-.48,0,1.2,1.2,0,0,1-.56-.9,10.67,10.67,0,0,1-1-.57c-.3-.2-.79-.53-.65-1s.73-.49,1.08-.49a9.27,9.27,0,0,1,1.13,0,1.19,1.19,0,0,1,1-.47.59.59,0,0,1,.43.22,1.93,1.93,0,0,0,.27.3l.11.15a19.39,19.39,0,0,1,2.26.5l1.07.31.46-1.55v0l.23-.63,2.36-6.3a.85.85,0,0,1,1-.44l0,0L16.46,3a.54.54,0,0,1,.38.58l-1.11,7.83s0,0,0,.07l-.38,1.3.2.06c1.45.42,4.34,1.64,4.9,1.88l1.24.08,1.15-1.89a.93.93,0,0,1,.93-.37,2,2,0,0,1,.43.08l.8.23a.52.52,0,0,1,.38.6L24.69,17Zm-15-1.11c0,.07-1.48,7-1.52,7.23s.26.31.26.31l1.93.54,3.26-7.21L14.12,15l.72.21c1.53.45,5.14,1,5.18,1l1.45.8s0,2.22,0,2.52S22,20,22,20l.8.23,1.32-3.37.69-3.55-.8-.23s-.6-.17-.76.07-1.2,2-1.31,2.15h0l-1.66-.1s-3.4-1.45-4.93-1.9l-.71-.21.52-1.81L16.3,3.48,14.38,2.9s-.3-.06-.38.12-2.57,6.85-2.59,6.92L10.81,12l-1.6-.46A19.49,19.49,0,0,0,6.28,11a.84.84,0,0,1,.33-.19h0a2.67,2.67,0,0,1-.31-.36.75.75,0,0,0-.66.49c-1.13-.11-1.94-.09-2,0s.64.59,1.64,1.11a.73.73,0,0,0,.3.76,3.64,3.64,0,0,1,.47-.14h0a1.06,1.06,0,0,1-.18-.33,20.1,20.1,0,0,0,2.79,1.08l1.6.46Z"/><path id="Fill_26" data-name="Fill 26" class="cls-3" d="M10.81,12l3.55,1,.31-1.1-3.54-1Z"/><path id="Fill_27" data-name="Fill 27" class="cls-3" d="M9.94,15l3.55,1,.32-1.11-3.55-1Z"/><path id="Fill_28" data-name="Fill 28" class="cls-7" d="M4.46,10.82c-.48,0-.79,0-.81.12h0c0,.08.21.28.62.53Z"/></g></g></g><g id="text"><path id="Path_373" data-name="Path 373" class="cls-8" d="M55.4,29.29a.86.86,0,0,1-.14,1.2,1,1,0,0,1-1.3-.16.83.83,0,0,1-.17-.63.87.87,0,0,1,.32-.57,1,1,0,0,1,1.29.16Zm-1.16-1.53.65-6.47,1.65.21-.95,6.42Z"/><path id="Path_374" data-name="Path 374" class="cls-8" d="M62.23,25.52a1.28,1.28,0,0,0-.28-1,1.36,1.36,0,0,0-1-.41l-2.65-.2.1-1.4,2.75.2a3.61,3.61,0,0,1,1.6.46,2.38,2.38,0,0,1,1,1A2.87,2.87,0,0,1,64,25.76l-.41,5.55-1.79-.13Z"/><path id="Path_375" data-name="Path 375" class="cls-8" d="M67.14,24.83l-1.49,0,0-1.47,3.36.09-.14,5L67,28.33Z"/><path id="Path_376" data-name="Path 376" class="cls-8" d="M72.58,24.56h-.93V23h2.9l0,9.22h-2Z"/><path id="Path_377" data-name="Path 377" class="cls-8" d="M77.62,24.15l-1,0-.05-1.61,3-.1.3,9.64-2.06.06Z"/><path id="Path_378" data-name="Path 378" class="cls-8" d="M88.93,27.29l3.34,4.1-2.39.16-4.47-5.5a1.52,1.52,0,0,0-.39.63,2.17,2.17,0,0,0-.08.84l.29,4.34L83.16,32l-.23-3.47a4.75,4.75,0,0,1,.29-2.21,2.86,2.86,0,0,1,1.28-1.38l-2.4-3,2.4-.16,3,3.69,1.77-4,2.41-.16Z"/><path id="Path_379" data-name="Path 379" class="cls-8" d="M99.77,24.21a2,2,0,0,0-.64-1.43,2.12,2.12,0,0,0-1.57-.32l-3.89.39-.16-1.68,4-.4a4.24,4.24,0,0,1,3.06.66,3.6,3.6,0,0,1,1.31,2.65l.62,6.3-2.13.21Zm-5.62,3.54a4.79,4.79,0,0,1,0-1.31,4.57,4.57,0,0,1,.3-.88l1.72-.17a8.57,8.57,0,0,0,0,2L96.55,31l-2.06.21Z"/><path id="Path_380" data-name="Path 380" class="cls-8" d="M115.36,21.52,113,30.58l-2.26.28,2.4-8.74-5.59.7-.57-4.59,2.13-.26.36,2.91,5.76-.71Z"/><path id="Path_381" data-name="Path 381" class="cls-8" d="M118.78,20.77l-1.69.22-.21-1.67,3.81-.5.73,5.63-2.13.28Z"/><path id="Path_382" data-name="Path 382" class="cls-8" d="M122.72,18l4.23-.55c2.74-.36,4.28.77,4.64,3.4l.85,6.44-2.21.29L129.35,21a2.23,2.23,0,0,0-.66-1.5,1.9,1.9,0,0,0-1.5-.31l-2,.27,1.13,8.65-2.22.29Z"/><path id="Path_383" data-name="Path 383" class="cls-8" d="M138.63,17l-1.08.13-.21-1.74,3.26-.4,1.73,14-2.18.27Z"/><path id="Path_384" data-name="Path 384" class="cls-8" d="M144.19,16l-1.09.13-.21-1.81,3.4-.4,1.26,10.82-2.31.27Z"/><path id="Path_385" data-name="Path 385" class="cls-8" d="M157.85,12.28l.2,1.88-1.93.2.95,9.37-2.4.25-.95-9.37-5,.51-.19-1.88Z"/><path id="Path_386" data-name="Path 386" class="cls-8" d="M161.25,13.56l-2,.16-.15-2,4.47-.36.54,6.6-2.5.19Z"/><path id="Path_387" data-name="Path 387" class="cls-8" d="M167.1,10.69l5-.25c3.19-.17,4.88,1.29,5.06,4.36l.38,7.52-2.58.14-.41-7.7a2.59,2.59,0,0,0-.63-1.79,2.15,2.15,0,0,0-1.7-.5l-2.38.12.51,10.1-2.59.13Z"/><path id="Path_388" data-name="Path 388" class="cls-8" d="M189.45,11.37,185.1,22.25h-2.85l4.3-10.48h-7V6h2.68V9.68h7.25Z"/><path id="Path_389" data-name="Path 389" class="cls-8" d="M198.87,11.57l-1.35-.11.18-2.23,4.2.33-1.07,13.37L198,22.7Z"/><path id="Path_390" data-name="Path 390" class="cls-8" d="M213.36,18.05l3.12,6.31-3.15-.5-4.19-8.47a2.07,2.07,0,0,0-.68.7,3,3,0,0,0-.36,1.08l-.91,5.72-2.73-.43.73-4.58a6.35,6.35,0,0,1,1-2.78,3.84,3.84,0,0,1,2.08-1.41l-2.25-4.55,3.16.5,2.8,5.69,3.49-4.69,3.18.5Z"/><path id="Path_391" data-name="Path 391" class="cls-8" d="M222.16,13.66l-1.31-.33.55-2.17,4.09,1-3.3,13-2.78-.7Z"/><path id="Path_392" data-name="Path 392" class="cls-8" d="M235.77,27.41l-.72,2L224.4,25.66l.75-2.12,6.46,2.29,2.1-5.93a2.71,2.71,0,0,0,.06-2.09,2.9,2.9,0,0,0-1.71-1.28l-3.24-1.15.75-2.11L233,14.48A5.67,5.67,0,0,1,236.3,17a4.78,4.78,0,0,1,.06,3.95l-2,5.72Z"/></g></g></g></g></svg>