<?xml version="1.0" encoding="utf-8"?>
<!-- Generator: Adobe Illustrator 21.1.0, SVG Export Plug-In . SVG Version: 6.00 Build 0)  -->
<svg version="1.1" id="Layer_1" xmlns="http://www.w3.org/2000/svg" xmlns:xlink="http://www.w3.org/1999/xlink" x="0px" y="0px"
	 viewBox="0 0 216 292" style="enable-background:new 0 0 216 292;" xml:space="preserve">
<style type="text/css">
	.st0{fill:#CAE0E0;}
	.st1{fill:#596B6A;}
	.st2{fill:#A8C1C0;}
</style>
<title>Asset 1</title>
<g>
	<g>
		<path class="st0" d="M121,260.3c-0.5,0-1-0.1-1.4-0.4c-0.6-0.4-1-1-1.1-1.7l-2.8-19.3l-1.5,2.8c-0.4,0.8-1.3,1.3-2.2,1.3h-9.8
			c-0.9,0-1.8-0.5-2.2-1.3l-1.5-2.8l-2.8,19.3c-0.1,0.7-0.5,1.3-1.1,1.7c-0.4,0.3-0.9,0.4-1.4,0.4c-0.2,0-0.4,0-0.6-0.1l-39.4-9.1
			c-1.1-0.3-1.9-1.3-1.9-2.4v-11.4c0-0.8,0.4-1.6,1.1-2l17-12v-1.5c0-0.4,0.1-0.8,0.3-1.2l4.2-7.8l-40.4-10
			c-1.1-0.3-1.9-1.3-1.9-2.4v-27.9c0-0.8,0.4-1.6,1.1-2.1l42.2-28.4l3.5-5.9l3.5-42.1c0-0.3,0.1-0.6,0.3-0.9l6.7-13.2
			c0.4-0.8,1.2-1.3,2-1.4c0.1,0,0.1,0,0.2,0c0.8,0,1.6,0.4,2,1.1l0.7,1c0.5-6.4,1.3-15.4,1.8-19.6c1.6-12.3,8.8-26.9,9.1-27.5
			c0.4-0.9,1.3-1.4,2.2-1.4s1.8,0.5,2.2,1.4c0.3,0.6,7.5,15.3,9.1,27.5c0.5,4.2,1.3,13.2,1.8,19.6l0.7-1c0.5-0.7,1.2-1.1,2-1.1
			c0.1,0,0.1,0,0.2,0c0.9,0.1,1.7,0.6,2,1.4l6.7,13.2c0.1,0.3,0.2,0.6,0.3,0.9l3.5,42.1l3.5,5.9l42.2,28.4c0.7,0.5,1.1,1.2,1.1,2.1
			v27.9c0,1.1-0.8,2.1-1.9,2.4l-40.4,10l4.2,7.8c0.2,0.4,0.3,0.8,0.3,1.2v1.5l17,12c0.7,0.5,1.1,1.2,1.1,2v11.4
			c0,1.2-0.8,2.2-1.9,2.4l-39.4,9.1C121.4,260.2,121.2,260.3,121,260.3z"/>
		<path class="st1" d="M107,34.4c0,0,7.3,14.8,8.9,26.8c0.9,6.7,2.4,26.4,2.4,26.4l4.7-6.7l6.7,13.2l3.5,42.7l4.1,6.9l42.7,28.7
			v27.9l-43.5,10.8l5.7,10.6v2.8l18.1,12.8v11.4l-39.4,9.1l-3.9-26.8l-5.1,9.4H107h-4.9L97,231l-3.9,26.8l-39.4-9.1v-11.4l18.1-12.8
			v-2.8l5.7-10.6L34,200.3v-27.9l42.7-28.7l4.1-6.9L84.4,94l6.7-13.2l4.7,6.7c0,0,1.5-19.7,2.4-26.4C99.8,49.2,107,34.4,107,34.4
			 M107,29.4c-1.9,0-3.6,1.1-4.5,2.8c-0.3,0.6-7.7,15.6-9.3,28.3c-0.4,3.3-1,9.7-1.5,15.4c-0.2,0-0.4,0-0.6,0c-0.1,0-0.2,0-0.4,0
			C89,76,87.4,77,86.6,78.6l-6.7,13.2c-0.3,0.6-0.5,1.2-0.5,1.8L76,135.2l-3,4.9l-41.8,28.1c-1.4,0.9-2.2,2.5-2.2,4.1v27.9
			c0,2.3,1.6,4.3,3.8,4.9l37.2,9.3l-2.7,5c-0.4,0.7-0.6,1.5-0.6,2.4v0.2l-16,11.3c-1.3,0.9-2.1,2.5-2.1,4.1v11.4
			c0,2.3,1.6,4.4,3.9,4.9l39.4,9.1c0.4,0.1,0.7,0.1,1.1,0.1c1,0,2-0.3,2.8-0.9c1.2-0.8,1.9-2,2.1-3.4l2-13.5
			c0.7,0.3,1.4,0.5,2.1,0.5h4.9h4.9c0.7,0,1.5-0.2,2.1-0.5l2,13.5c0.2,1.4,1,2.6,2.1,3.4c0.8,0.6,1.8,0.9,2.8,0.9
			c0.4,0,0.7,0,1.1-0.1l39.4-9.1c2.3-0.5,3.9-2.5,3.9-4.9v-11.4c0-1.6-0.8-3.1-2.1-4.1l-16-11.3v-0.2c0-0.8-0.2-1.6-0.6-2.4l-2.7-5
			l37.2-9.3c2.2-0.6,3.8-2.6,3.8-4.9v-27.9c0-1.7-0.8-3.2-2.2-4.1l-41.8-28.1l-3-4.9l-3.4-41.5c-0.1-0.6-0.2-1.3-0.5-1.8l-6.7-13.2
			c-0.8-1.6-2.3-2.6-4.1-2.7c-0.1,0-0.2,0-0.4,0c-0.2,0-0.4,0-0.6,0c-0.5-5.7-1.1-12-1.5-15.4c-1.7-12.7-9-27.7-9.3-28.3
			C110.7,30.5,108.9,29.4,107,29.4L107,29.4z"/>
	</g>
	<polygon class="st1" points="97,231 102.1,240.4 107,240.4 112,240.4 117.1,231 	"/>
	<path class="st2" d="M107,34.4c0,0-4.1,8.4-6.9,17.7l4.5,4l2.4-1.8l2.4,1.8l4.5-4C111.2,42.8,107,34.4,107,34.4z"/>
	<g>
		<path class="st1" d="M107,74.7c3.1,0,5.9,0.9,7.8,2.4c-0.7-7.5-4.1-13-4.1-13l-3.7-3l-3.7,3c0,0-3.4,5.5-4.1,13
			C101.1,75.6,103.9,74.7,107,74.7z"/>
		<path class="st1" d="M107,75.5c-3.3,0-6.2,1.1-7.9,2.6c-0.5,7.9-0.1,22-0.1,22l8,6.1l8-6.1c0,0,0.5-14.1-0.1-22
			C113.2,76.5,110.3,75.5,107,75.5z"/>
	</g>
	<g>
		<path class="st1" d="M107,34.4c0,0,7.3,14.8,8.9,26.8c0.9,6.7,2.4,26.4,2.4,26.4l4.7-6.7l6.7,13.2l3.5,42.7l4.1,6.9l42.7,28.7
			v27.9l-43.5,10.8l5.7,10.6v2.8l18.1,12.8v11.4l-39.4,9.1l-3.9-26.8l-5.1,9.4H107h-4.9L97,231l-3.9,26.8l-39.4-9.1v-11.4l18.1-12.8
			v-2.8l5.7-10.6L34,200.3v-27.9l42.7-28.7l4.1-6.9L84.4,94l6.7-13.2l4.7,6.7c0,0,1.5-19.7,2.4-26.4C99.8,49.2,107,34.4,107,34.4
			 M107,29.4c-1.9,0-3.6,1.1-4.5,2.8c-0.3,0.6-7.7,15.6-9.3,28.3c-0.4,3.3-1,9.7-1.5,15.4c-0.2,0-0.4,0-0.6,0c-0.1,0-0.2,0-0.4,0
			C89,76,87.4,77,86.6,78.6l-6.7,13.2c-0.3,0.6-0.5,1.2-0.5,1.8L76,135.2l-3,4.9l-41.8,28.1c-1.4,0.9-2.2,2.5-2.2,4.1v27.9
			c0,2.3,1.6,4.3,3.8,4.9l37.2,9.3l-2.7,5c-0.4,0.7-0.6,1.5-0.6,2.4v0.2l-16,11.3c-1.3,0.9-2.1,2.5-2.1,4.1v11.4
			c0,2.3,1.6,4.4,3.9,4.9l39.4,9.1c0.4,0.1,0.7,0.1,1.1,0.1c1,0,2-0.3,2.8-0.9c1.2-0.8,1.9-2,2.1-3.4l2-13.5
			c0.7,0.3,1.4,0.5,2.1,0.5h4.9h4.9c0.7,0,1.5-0.2,2.1-0.5l2,13.5c0.2,1.4,1,2.6,2.1,3.4c0.8,0.6,1.8,0.9,2.8,0.9
			c0.4,0,0.7,0,1.1-0.1l39.4-9.1c2.3-0.5,3.9-2.5,3.9-4.9v-11.4c0-1.6-0.8-3.1-2.1-4.1l-16-11.3v-0.2c0-0.8-0.2-1.6-0.6-2.4l-2.7-5
			l37.2-9.3c2.2-0.6,3.8-2.6,3.8-4.9v-27.9c0-1.7-0.8-3.2-2.2-4.1l-41.8-28.1l-3-4.9l-3.4-41.5c-0.1-0.6-0.2-1.3-0.5-1.8l-6.7-13.2
			c-0.8-1.6-2.3-2.6-4.1-2.7c-0.1,0-0.2,0-0.4,0c-0.2,0-0.4,0-0.6,0c-0.5-5.7-1.1-12-1.5-15.4c-1.7-12.7-9-27.7-9.3-28.3
			C110.7,30.5,108.9,29.4,107,29.4L107,29.4z"/>
	</g>
</g>
</svg>
