<?xml version="1.0" encoding="UTF-8" standalone="no"?>
<!-- Created with Inkscape (http://www.inkscape.org/) -->

<svg
   xmlns:dc="http://purl.org/dc/elements/1.1/"
   xmlns:cc="http://creativecommons.org/ns#"
   xmlns:rdf="http://www.w3.org/1999/02/22-rdf-syntax-ns#"
   xmlns:svg="http://www.w3.org/2000/svg"
   xmlns="http://www.w3.org/2000/svg"
   xmlns:sodipodi="http://sodipodi.sourceforge.net/DTD/sodipodi-0.dtd"
   xmlns:inkscape="http://www.inkscape.org/namespaces/inkscape"
   width="70"
   height="70"
   viewBox="0 0 18.520833 18.520834"
   version="1.1"
   id="svg5209"
   inkscape:version="0.92.3 (2405546, 2018-03-11)"
   sodipodi:docname="airTractor.svg">
  <defs
     id="defs5203">
    <clipPath
       id="clipPath5229"
       clipPathUnits="userSpaceOnUse">
      <path
         style="clip-rule:evenodd"
         inkscape:connector-curvature="0"
         id="path5227"
         d="m 3.7658,0.8713 c -0.178,0 -0.345,0.069 -0.471,0.194 l -2.554,2.555 c -0.485,0.486 -0.485,1.275 0,1.76 l 11.456,11.457 c -0.033,0.017 -0.064,0.039 -0.092,0.067 l -0.224,0.224 c -0.142,0.141 -0.148,0.37 -0.013,0.518 l 0.744,0.822 -0.043,0.043 -1.72,2.538 c -0.029,-0.015 -0.062,-0.028 -0.096,-0.038 l -0.199,-0.055 c -0.033,-0.009 -0.095,-0.018 -0.129,-0.018 -0.131,0 -0.257,0.055 -0.347,0.15 -0.071,0.075 -0.136,0.252 -0.13,0.356 l 0.023,0.431 c 0.006,0.113 0.041,0.221 0.099,0.314 l -0.193,0.284 c -0.207,0.304 -0.172,0.717 0.083,0.982 l 0.281,0.293 0.303,0.292 c 0.147,0.141 0.34,0.218 0.543,0.218 0.158,0 0.309,-0.046 0.44,-0.135 l 0.285,-0.193 c 0.093,0.057 0.2,0.091 0.312,0.096 0,0 0.439,0.024 0.443,0.024 0.126,0 0.322,-0.093 0.394,-0.189 0.092,-0.12 0.12,-0.273 0.08,-0.419 l -0.056,-0.199 c -0.009,-0.032 -0.02,-0.062 -0.035,-0.091 l 2.483,-1.676 0.095,-0.092 0.825,0.748 c 0.072,0.065 0.163,0.097 0.253,0.097 0.097,0 0.193,-0.037 0.266,-0.11 l 0.224,-0.224 c 0.027,-0.027 0.05,-0.059 0.067,-0.092 l 11.457,11.456 c 0.235,0.235 0.547,0.364 0.88,0.364 0.332,0 0.645,-0.129 0.88,-0.364 l 2.554,-2.554 c 0.259,-0.26 0.259,-0.682 0,-0.941 l -13.045,-13.045 4.833,-6.21 3.978,3.979 c 0.12,0.12 0.28,0.186 0.45,0.186 0.17,0 0.33,-0.066 0.45,-0.186 l 1.491,-1.569 c 0.182,-0.191 0.179,-0.5 -0.009,-0.687 l -4.341,-4.342 0.278,-0.332 c 0.094,-0.112 0.12,-0.303 0.058,-0.436 -0.062,-0.132 -0.226,-0.237 -0.372,-0.237 -0.088,0 -0.196,0.04 -0.264,0.097 l -0.331,0.278 -4.342,-4.343 c -0.071,-0.07 -0.248,-0.144 -0.348,-0.144 -0.126,0 -0.246,0.048 -0.339,0.136 l -1.562,1.484 c -0.254,0.255 -0.254,0.659 -0.006,0.907 l 3.978,3.978 -6.21,4.833 -13.044,-13.045 c -0.127,-0.126 -0.294,-0.195 -0.471,-0.195" />
    </clipPath>
    <clipPath
       id="clipPath5235"
       clipPathUnits="userSpaceOnUse">
      <path
         inkscape:connector-curvature="0"
         id="path5233"
         d="M -135,-597 H 240 V 70 h -375 z" />
    </clipPath>
    <clipPath
       id="clipPath5245"
       clipPathUnits="userSpaceOnUse">
      <path
         style="clip-rule:evenodd"
         inkscape:connector-curvature="0"
         id="path5243"
         d="M 0,34.0002 H 33.5047 V 0.4952 H 0 Z" />
    </clipPath>
    <clipPath
       id="clipPath5251"
       clipPathUnits="userSpaceOnUse">
      <path
         inkscape:connector-curvature="0"
         id="path5249"
         d="M -135,-597 H 240 V 70 h -375 z" />
    </clipPath>
    <clipPath
       id="clipPath5257"
       clipPathUnits="userSpaceOnUse">
      <path
         inkscape:connector-curvature="0"
         id="path5255"
         d="M 0,0 H 34 V 34 H 0 Z" />
    </clipPath>
    <clipPath
       id="clipPath5261"
       clipPathUnits="userSpaceOnUse">
      <path
         style="clip-rule:evenodd"
         inkscape:connector-curvature="0"
         id="path5259"
         d="m 29.4997,34.0002 c -0.433,0 -0.84,-0.169 -1.146,-0.475 l -11.178,-11.178 -0.038,0.038 c -0.146,0.147 -0.339,0.22 -0.532,0.22 -0.181,0 -0.361,-0.064 -0.505,-0.194 l -0.589,-0.534 -2.118,1.43 0.01,0.035 c 0.071,0.256 0.018,0.535 -0.143,0.747 -0.16,0.211 -0.415,0.338 -0.681,0.338 l -0.478,-0.025 c -0.086,-0.004 -0.17,-0.02 -0.25,-0.045 l -0.113,0.077 c -0.193,0.131 -0.419,0.201 -0.652,0.201 -0.3,0 -0.586,-0.115 -0.803,-0.323 l -0.293,-0.281 -0.303,-0.315 c -0.376,-0.393 -0.428,-1.005 -0.122,-1.455 l 0.075,-0.111 c -0.026,-0.082 -0.041,-0.168 -0.046,-0.255 l -0.023,-0.432 c -0.013,-0.234 0.072,-0.464 0.233,-0.634 0.161,-0.17 0.387,-0.267 0.62,-0.267 0.069,0 0.164,0.013 0.23,0.032 l 0.039,0.01 1.429,-2.116 -0.533,-0.589 c -0.27,-0.297 -0.258,-0.753 0.025,-1.037 l 0.038,-0.038 -11.178,-11.178 c -0.306,-0.306 -0.475,-0.713 -0.475,-1.146 0,-0.433 0.169,-0.839 0.475,-1.146 l 2.554,-2.554 c 0.197,-0.196 0.459,-0.305 0.737,-0.305 0.278,0 0.54,0.109 0.736,0.305 l 12.81,12.81 5.612,-4.367 -3.677,-3.677 c -0.192,-0.191 -0.297,-0.445 -0.297,-0.716 0,-0.271 0.105,-0.525 0.297,-0.716 l 1.575,-1.498 c 0.162,-0.154 0.375,-0.239 0.598,-0.239 0.232,0 0.45,0.091 0.614,0.254 l 4.098,4.099 0.069,-0.057 c 0.135,-0.114 0.327,-0.184 0.504,-0.184 0.304,0 0.584,0.178 0.712,0.454 0.125,0.265 0.078,0.612 -0.109,0.836 l -0.058,0.069 4.099,4.098 c 0.335,0.335 0.342,0.868 0.015,1.212 l -1.484,1.562 c -0.205,0.205 -0.459,0.31 -0.73,0.31 -0.27,0 -0.525,-0.105 -0.716,-0.297 l -3.677,-3.676 -4.367,5.611 12.81,12.81 c 0.196,0.196 0.305,0.458 0.305,0.736 0,0.279 -0.109,0.54 -0.305,0.737 l -2.554,2.554 c -0.306,0.306 -0.713,0.475 -1.146,0.475 m 0,-0.752 c 0.222,0 0.444,-0.085 0.614,-0.255 l 2.554,-2.554 c 0.113,-0.113 0.113,-0.296 0,-0.409 l -13.28,-13.28 5.299,-6.808 4.279,4.28 c 0.051,0.05 0.117,0.076 0.184,0.076 0.067,0 0.134,-0.026 0.184,-0.076 l 1.484,-1.562 c 0.044,-0.046 0.043,-0.118 -0.002,-0.162 l -4.348,-4.349 -0.619,0.62 -0.183,-0.183 1.065,-1.27 c 0.02,-0.024 -10e-4,-0.055 -0.026,-0.055 -0.007,0 -0.014,0.003 -0.021,0.009 l -1.27,1.064 -0.183,-0.183 0.62,-0.619 -4.349,-4.348 c -0.023,-0.023 -0.052,-0.034 -0.082,-0.034 -0.028,0 -0.057,0.01 -0.08,0.032 l -1.561,1.484 c -0.102,0.102 -0.102,0.266 0,0.368 l 4.279,4.279 -6.808,5.299 -13.279,-13.28 c -0.057,-0.056 -0.131,-0.084 -0.205,-0.084 -0.074,0 -0.148,0.028 -0.205,0.084 l -2.554,2.554 c -0.339,0.34 -0.339,0.889 0,1.228 l 12.745,12.746 -0.31,0.31 -1.071,-1 -0.224,0.224 0.985,1.086 -0.297,0.297 -2.031,3.01 -0.052,-0.052 c -0.023,-0.023 -0.034,-0.054 -0.032,-0.086 l 0.008,-0.171 c 0.002,-0.048 -0.029,-0.091 -0.075,-0.104 l -0.2,-0.056 c -0.009,-0.002 -0.018,-0.004 -0.028,-0.004 -0.056,0 -0.105,0.048 -0.102,0.109 l 0.023,0.432 c 0.004,0.068 0.033,0.133 0.081,0.182 l 0.12,0.12 -0.041,0.059 -0.318,0.468 c -0.108,0.159 -0.09,0.372 0.043,0.511 l 0.281,0.293 0.293,0.281 c 0.078,0.075 0.18,0.113 0.282,0.113 0.08,0 0.16,-0.023 0.229,-0.07 l 0.468,-0.318 0.059,-0.041 0.117,0.117 c 0.049,0.049 0.114,0.077 0.183,0.081 l 0.432,0.023 h 0.005 c 0.067,0 0.117,-0.064 0.099,-0.13 l -0.056,-0.2 c -0.012,-0.044 -0.053,-0.075 -0.099,-0.075 h -0.004 l -0.172,0.008 c -0.003,0 -0.005,0 -0.008,0 -0.029,0 -0.057,-0.011 -0.078,-0.032 l -0.049,-0.049 3.01,-2.031 0.297,-0.297 1.086,0.985 0.224,-0.224 -1,-1.071 0.31,-0.31 12.746,12.745 c 0.17,0.17 0.392,0.255 0.614,0.255" />
    </clipPath>
    <clipPath
       id="clipPath5265"
       clipPathUnits="userSpaceOnUse">
      <path
         inkscape:connector-curvature="0"
         id="path5263"
         d="M 0,0 H 34 V 34 H 0 Z" />
    </clipPath>
    <clipPath
       id="clipPath5287"
       clipPathUnits="userSpaceOnUse">
      <path
         style="clip-rule:evenodd"
         inkscape:connector-curvature="0"
         id="path5285"
         d="m 16.6681,15.5197 0.15,-0.016 c 0,0 -0.002,0.22 0.297,0.538 l -0.433,0.315 c 0,0 -0.252,-0.386 -0.014,-0.837" />
    </clipPath>
    <clipPath
       id="clipPath5293"
       clipPathUnits="userSpaceOnUse">
      <path
         inkscape:connector-curvature="0"
         id="path5291"
         d="M -135,-597 H 240 V 70 h -375 z" />
    </clipPath>
    <clipPath
       id="clipPath5303"
       clipPathUnits="userSpaceOnUse">
      <path
         style="clip-rule:evenodd"
         inkscape:connector-curvature="0"
         id="path5301"
         d="m 18.4767,17.3283 0.016,-0.15 c 0,0 -0.22,0.002 -0.538,-0.297 l -0.315,0.433 c 0,0 0.386,0.252 0.837,0.014" />
    </clipPath>
    <clipPath
       id="clipPath5309"
       clipPathUnits="userSpaceOnUse">
      <path
         inkscape:connector-curvature="0"
         id="path5307"
         d="M -135,-597 H 240 V 70 h -375 z" />
    </clipPath>
    <clipPath
       id="clipPath5319"
       clipPathUnits="userSpaceOnUse">
      <path
         style="clip-rule:evenodd"
         inkscape:connector-curvature="0"
         id="path5317"
         d="m 16.7316,16.4069 0.438,-0.31 0.737,0.737 -0.315,0.433 z" />
    </clipPath>
    <clipPath
       id="clipPath5325"
       clipPathUnits="userSpaceOnUse">
      <path
         inkscape:connector-curvature="0"
         id="path5323"
         d="M -135,-597 H 240 V 70 h -375 z" />
    </clipPath>
    <clipPath
       id="clipPath5335"
       clipPathUnits="userSpaceOnUse">
      <path
         style="clip-rule:evenodd"
         inkscape:connector-curvature="0"
         id="path5333"
         d="m 16.9567,15.2282 1,-0.89 0.583,0.063 -0.741,0.686 z" />
    </clipPath>
    <clipPath
       id="clipPath5341"
       clipPathUnits="userSpaceOnUse">
      <path
         inkscape:connector-curvature="0"
         id="path5339"
         d="M -135,-597 H 240 V 70 h -375 z" />
    </clipPath>
    <clipPath
       id="clipPath5351"
       clipPathUnits="userSpaceOnUse">
      <path
         style="clip-rule:evenodd"
         inkscape:connector-curvature="0"
         id="path5349"
         d="m 18.3195,14.1339 1.346,-1.166 0.574,0.054 -1.418,1.188 z" />
    </clipPath>
    <clipPath
       id="clipPath5357"
       clipPathUnits="userSpaceOnUse">
      <path
         inkscape:connector-curvature="0"
         id="path5355"
         d="M -135,-597 H 240 V 70 h -375 z" />
    </clipPath>
    <clipPath
       id="clipPath5367"
       clipPathUnits="userSpaceOnUse">
      <path
         style="clip-rule:evenodd"
         inkscape:connector-curvature="0"
         id="path5365"
         d="m 18.7702,17.0422 0.891,-1.001 -0.063,-0.582 -0.686,0.741 z" />
    </clipPath>
    <clipPath
       id="clipPath5373"
       clipPathUnits="userSpaceOnUse">
      <path
         inkscape:connector-curvature="0"
         id="path5371"
         d="M -135,-597 H 240 V 70 h -375 z" />
    </clipPath>
    <clipPath
       id="clipPath5383"
       clipPathUnits="userSpaceOnUse">
      <path
         style="clip-rule:evenodd"
         inkscape:connector-curvature="0"
         id="path5381"
         d="m 19.8649,15.6789 1.166,-1.346 -0.055,-0.573 -1.187,1.418 z" />
    </clipPath>
    <clipPath
       id="clipPath5389"
       clipPathUnits="userSpaceOnUse">
      <path
         inkscape:connector-curvature="0"
         id="path5387"
         d="M -135,-597 H 240 V 70 h -375 z" />
    </clipPath>
    <clipPath
       id="clipPath5399"
       clipPathUnits="userSpaceOnUse">
      <path
         style="clip-rule:evenodd"
         inkscape:connector-curvature="0"
         id="path5397"
         d="m 16.8395,21.6149 0.594,0.594 -0.884,0.884 c -0.148,0.147 -0.387,0.147 -0.535,0 l -0.059,-0.06 c -0.148,-0.147 -0.148,-0.386 0,-0.534 z" />
    </clipPath>
    <clipPath
       id="clipPath5405"
       clipPathUnits="userSpaceOnUse">
      <path
         inkscape:connector-curvature="0"
         id="path5403"
         d="M -135,-597 H 240 V 70 h -375 z" />
    </clipPath>
    <clipPath
       id="clipPath5415"
       clipPathUnits="userSpaceOnUse">
      <path
         style="clip-rule:evenodd"
         inkscape:connector-curvature="0"
         id="path5413"
         d="m 11.8,16.5754 0.594,0.594 -0.884,0.884 c -0.148,0.147 -0.387,0.147 -0.535,0 l -0.059,-0.06 c -0.148,-0.147 -0.148,-0.386 0,-0.534 z" />
    </clipPath>
    <clipPath
       id="clipPath5421"
       clipPathUnits="userSpaceOnUse">
      <path
         inkscape:connector-curvature="0"
         id="path5419"
         d="M -135,-597 H 240 V 70 h -375 z" />
    </clipPath>
    <clipPath
       id="clipPath5431"
       clipPathUnits="userSpaceOnUse">
      <path
         style="clip-rule:evenodd"
         inkscape:connector-curvature="0"
         id="path5429"
         d="m 10.9635,23.863 c 0,0 -0.7,0.565 -1.26,0.433 -0.131,-0.559 0.433,-1.26 0.433,-1.26" />
    </clipPath>
    <clipPath
       id="clipPath5437"
       clipPathUnits="userSpaceOnUse">
      <path
         inkscape:connector-curvature="0"
         id="path5435"
         d="M -135,-597 H 240 V 70 h -375 z" />
    </clipPath>
    <clipPath
       id="clipPath5447"
       clipPathUnits="userSpaceOnUse">
      <path
         style="clip-rule:evenodd"
         inkscape:connector-curvature="0"
         id="path5445"
         d="m 5.4147,2.7765 -0.804,-0.803 -3.368,3.367 0.804,0.804 z" />
    </clipPath>
    <clipPath
       id="clipPath5453"
       clipPathUnits="userSpaceOnUse">
      <path
         inkscape:connector-curvature="0"
         id="path5451"
         d="M -135,-597 H 240 V 70 h -375 z" />
    </clipPath>
    <clipPath
       id="clipPath5463"
       clipPathUnits="userSpaceOnUse">
      <path
         style="clip-rule:evenodd"
         inkscape:connector-curvature="0"
         id="path5461"
         d="m 32.0099,29.3722 -0.804,-0.804 -3.367,3.368 0.803,0.804 z" />
    </clipPath>
    <clipPath
       id="clipPath5469"
       clipPathUnits="userSpaceOnUse">
      <path
         inkscape:connector-curvature="0"
         id="path5467"
         d="M -135,-597 H 240 V 70 h -375 z" />
    </clipPath>
    <clipPath
       id="clipPath5479"
       clipPathUnits="userSpaceOnUse">
      <path
         style="clip-rule:evenodd"
         inkscape:connector-curvature="0"
         id="path5477"
         d="m 12.3073,25.8312 -4.178,-4.179 c -0.061,-0.06 -0.158,-0.06 -0.219,0 -0.06,0.06 -0.06,0.158 0,0.219 l 4.179,4.178 c 0.06,0.06 0.158,0.06 0.218,0 0.061,-0.06 0.061,-0.158 0,-0.218" />
    </clipPath>
    <clipPath
       id="clipPath5485"
       clipPathUnits="userSpaceOnUse">
      <path
         inkscape:connector-curvature="0"
         id="path5483"
         d="M -135,-597 H 240 V 70 h -375 z" />
    </clipPath>
    <clipPath
       id="clipPath5495"
       clipPathUnits="userSpaceOnUse">
      <path
         style="clip-rule:evenodd"
         inkscape:connector-curvature="0"
         id="path5493"
         d="m 13.3996,17.5446 2.19,-1.155 c 0.042,-0.022 0.08,0.037 0.041,0.066 l -1.897,1.423 z" />
    </clipPath>
    <clipPath
       id="clipPath5501"
       clipPathUnits="userSpaceOnUse">
      <path
         inkscape:connector-curvature="0"
         id="path5499"
         d="M -135,-597 H 240 V 70 h -375 z" />
    </clipPath>
    <clipPath
       id="clipPath5511"
       clipPathUnits="userSpaceOnUse">
      <path
         style="clip-rule:evenodd"
         inkscape:connector-curvature="0"
         id="path5509"
         d="m 16.4548,20.6003 1.155,-2.19 c 0.022,-0.043 -0.037,-0.081 -0.066,-0.042 l -1.423,1.898 z" />
    </clipPath>
    <clipPath
       id="clipPath5517"
       clipPathUnits="userSpaceOnUse">
      <path
         inkscape:connector-curvature="0"
         id="path5515"
         d="M -135,-597 H 240 V 70 h -375 z" />
    </clipPath>
  </defs>
  <sodipodi:namedview
     id="base"
     pagecolor="#ffffff"
     bordercolor="#666666"
     borderopacity="1.0"
     inkscape:pageopacity="0.0"
     inkscape:pageshadow="2"
     inkscape:zoom="22.4"
     inkscape:cx="20.0937"
     inkscape:cy="36.715716"
     inkscape:document-units="mm"
     inkscape:current-layer="g5219"
     showgrid="false"
     units="px"
     inkscape:window-width="3840"
     inkscape:window-height="2004"
     inkscape:window-x="-16"
     inkscape:window-y="-16"
     inkscape:window-maximized="1" />
  <metadata
     id="metadata5206">
    <rdf:RDF>
      <cc:Work
         rdf:about="">
        <dc:format>image/svg+xml</dc:format>
        <dc:type
           rdf:resource="http://purl.org/dc/dcmitype/StillImage" />
        <dc:title></dc:title>
      </cc:Work>
    </rdf:RDF>
  </metadata>
  <g
     inkscape:label="Layer 1"
     inkscape:groupmode="layer"
     id="layer1"
     transform="translate(0,-278.47915)">
    <g
       transform="matrix(0.35277777,0,0,-0.35277777,2.8933334,293.54637)"
       inkscape:label="airTractor"
       id="g5219"
       inkscape:transform-center-x="0.41346439"
       inkscape:transform-center-y="0.81497591">
      <g
         id="g5221" />
      <g
         id="g5223"
         transform="rotate(-45,17.50235,15.43694)">
        <g
           clip-path="url(#clipPath5229)"
           id="g5225">
          <g
             clip-path="url(#clipPath5235)"
             id="g5231">
            <path
               inkscape:connector-curvature="0"
               id="path5237"
               style="fill:#fee857;fill-opacity:1;fill-rule:nonzero;stroke:none"
               d="m -4.62295,-4.1287 h 42.751 v 42.752 h -42.751 z" />
          </g>
        </g>
      </g>
      <g
         id="g5239"
         transform="rotate(-45,17.50235,15.43694)">
        <g
           clip-path="url(#clipPath5245)"
           id="g5241">
          <g
             clip-path="url(#clipPath5251)"
             id="g5247">
            <g
               id="g5253" />
            <g
               id="g5279">
              <g
                 id="g5277"
                 clip-path="url(#clipPath5257)">
                <g
                   id="g5267" />
                <g
                   id="g5275">
                  <g
                     id="g5273"
                     clip-path="url(#clipPath5261)">
                    <g
                       id="g5271"
                       clip-path="url(#clipPath5265)">
                      <path
                         inkscape:connector-curvature="0"
                         id="path5269"
                         style="fill:#203c75;fill-opacity:1;fill-rule:nonzero;stroke:none"
                         d="m -5.0003,-4.5048 h 43.505 v 43.505 h -43.505 z" />
                    </g>
                  </g>
                </g>
              </g>
            </g>
          </g>
        </g>
      </g>
      <g
         id="g5281"
         transform="rotate(-45,17.50235,15.43694)">
        <g
           clip-path="url(#clipPath5287)"
           id="g5283">
          <g
             clip-path="url(#clipPath5293)"
             id="g5289">
            <path
               inkscape:connector-curvature="0"
               id="path5295"
               style="fill:#203c75;fill-opacity:1;fill-rule:nonzero;stroke:none"
               d="M 11.56583,10.5037 H 22.1151 v 10.853 H 11.56583 Z" />
          </g>
        </g>
      </g>
      <g
         id="g5297"
         transform="rotate(-45,17.50235,15.43694)">
        <g
           clip-path="url(#clipPath5303)"
           id="g5299">
          <g
             clip-path="url(#clipPath5309)"
             id="g5305">
            <path
               inkscape:connector-curvature="0"
               id="path5311"
               style="fill:#203c75;fill-opacity:1;fill-rule:nonzero;stroke:none"
               d="m 12.6397,11.8813 h 10.853 v 10.54927 h -10.853 z" />
          </g>
        </g>
      </g>
      <g
         id="g5313"
         transform="rotate(-45,17.50235,15.43694)">
        <g
           clip-path="url(#clipPath5319)"
           id="g5315">
          <g
             clip-path="url(#clipPath5325)"
             id="g5321">
            <path
               inkscape:connector-curvature="0"
               id="path5327"
               style="fill:#203c75;fill-opacity:1;fill-rule:nonzero;stroke:none"
               d="m 11.7316,11.0969 h 11.175 v 11.17 h -11.175 z" />
          </g>
        </g>
      </g>
      <g
         id="g5329"
         transform="rotate(-45,17.50235,15.43694)">
        <g
           clip-path="url(#clipPath5335)"
           id="g5331">
          <g
             clip-path="url(#clipPath5341)"
             id="g5337">
            <path
               inkscape:connector-curvature="0"
               id="path5343"
               style="fill:#203c75;fill-opacity:1;fill-rule:nonzero;stroke:none"
               d="m 11.9567,9.3382 h 11.583 v 10.89 h -11.583 z" />
          </g>
        </g>
      </g>
      <g
         id="g5345"
         transform="rotate(-45,17.50235,15.43694)">
        <g
           clip-path="url(#clipPath5351)"
           id="g5347">
          <g
             clip-path="url(#clipPath5357)"
             id="g5353">
            <path
               inkscape:connector-curvature="0"
               id="path5359"
               style="fill:#203c75;fill-opacity:1;fill-rule:nonzero;stroke:none"
               d="m 13.3195,7.9679 h 11.92 v 11.242 h -11.92 z" />
          </g>
        </g>
      </g>
      <g
         id="g5361"
         transform="rotate(-45,17.50235,15.43694)">
        <g
           clip-path="url(#clipPath5367)"
           id="g5363">
          <g
             clip-path="url(#clipPath5373)"
             id="g5369">
            <path
               inkscape:connector-curvature="0"
               id="path5375"
               style="fill:#203c75;fill-opacity:1;fill-rule:nonzero;stroke:none"
               d="m 13.7702,10.4592 h 10.891 v 11.583 h -10.891 z" />
          </g>
        </g>
      </g>
      <g
         id="g5377"
         transform="rotate(-45,17.50235,15.43694)">
        <g
           clip-path="url(#clipPath5383)"
           id="g5379">
          <g
             clip-path="url(#clipPath5389)"
             id="g5385">
            <path
               inkscape:connector-curvature="0"
               id="path5391"
               style="fill:#203c75;fill-opacity:1;fill-rule:nonzero;stroke:none"
               d="m 14.7889,8.7599 h 11.242 v 11.919 h -11.242 z" />
          </g>
        </g>
      </g>
      <g
         id="g5393"
         transform="rotate(-45,17.50235,15.43694)">
        <g
           clip-path="url(#clipPath5399)"
           id="g5395">
          <g
             clip-path="url(#clipPath5405)"
             id="g5401">
            <path
               inkscape:connector-curvature="0"
               id="path5407"
               style="fill:#203c75;fill-opacity:1;fill-rule:nonzero;stroke:none"
               d="m 10.8445,16.6149 h 11.589 v 11.58825 h -11.589 z" />
          </g>
        </g>
      </g>
      <g
         id="g5409"
         transform="rotate(-45,17.50235,15.43694)">
        <g
           clip-path="url(#clipPath5415)"
           id="g5411">
          <g
             clip-path="url(#clipPath5421)"
             id="g5417">
            <path
               inkscape:connector-curvature="0"
               id="path5423"
               style="fill:#203c75;fill-opacity:1;fill-rule:nonzero;stroke:none"
               d="M 5.805,11.5754 H 17.394 V 23.16365 H 5.805 Z" />
          </g>
        </g>
      </g>
      <g
         id="g5425"
         transform="rotate(-45,17.50235,15.43694)">
        <g
           clip-path="url(#clipPath5431)"
           id="g5427">
          <g
             clip-path="url(#clipPath5437)"
             id="g5433">
            <path
               inkscape:connector-curvature="0"
               id="path5439"
               style="fill:#203c75;fill-opacity:1;fill-rule:nonzero;stroke:none"
               d="m 4.683763,18.036 h 11.27974 V 29.31599 H 4.683763 Z" />
          </g>
        </g>
      </g>
      <g
         id="g5441"
         transform="rotate(-45,17.50235,15.43694)">
        <g
           clip-path="url(#clipPath5447)"
           id="g5443">
          <g
             clip-path="url(#clipPath5453)"
             id="g5449">
            <path
               inkscape:connector-curvature="0"
               id="path5455"
               style="fill:#203c75;fill-opacity:1;fill-rule:nonzero;stroke:none"
               d="m -3.7573,-3.0265 h 14.172 v 14.171 h -14.172 z" />
          </g>
        </g>
      </g>
      <g
         id="g5457"
         transform="rotate(-45,17.50235,15.43694)">
        <g
           clip-path="url(#clipPath5463)"
           id="g5459">
          <g
             clip-path="url(#clipPath5469)"
             id="g5465">
            <path
               inkscape:connector-curvature="0"
               id="path5471"
               style="fill:#203c75;fill-opacity:1;fill-rule:nonzero;stroke:none"
               d="m 22.8389,23.5682 h 14.171 v 14.172 h -14.171 z" />
          </g>
        </g>
      </g>
      <g
         id="g5473"
         transform="rotate(-45,17.50235,15.43694)">
        <g
           clip-path="url(#clipPath5479)"
           id="g5475">
          <g
             clip-path="url(#clipPath5485)"
             id="g5481">
            <path
               inkscape:connector-curvature="0"
               id="path5487"
               style="fill:#203c75;fill-opacity:1;fill-rule:nonzero;stroke:none"
               d="m 2.8653,16.6072 h 14.48775 v 14.487 H 2.8653 Z" />
          </g>
        </g>
      </g>
      <g
         id="g5489"
         transform="rotate(-45,17.50235,15.43694)">
        <g
           clip-path="url(#clipPath5495)"
           id="g5491">
          <g
             clip-path="url(#clipPath5501)"
             id="g5497">
            <path
               inkscape:connector-curvature="0"
               id="path5503"
               style="fill:#203c75;fill-opacity:1;fill-rule:nonzero;stroke:none"
               d="M 8.3996,11.38479 H 20.64689 V 22.8786 H 8.3996 Z" />
          </g>
        </g>
      </g>
      <g
         id="g5505"
         transform="rotate(-45,17.50235,15.43694)">
        <g
           clip-path="url(#clipPath5511)"
           id="g5507">
          <g
             clip-path="url(#clipPath5517)"
             id="g5513">
            <path
               inkscape:connector-curvature="0"
               id="path5519"
               style="fill:#203c75;fill-opacity:1;fill-rule:nonzero;stroke:none"
               d="M 11.1208,13.35204 H 22.61461 V 25.6003 H 11.1208 Z" />
          </g>
        </g>
      </g>
    </g>
  </g>
</svg>
