<?xml version="1.0" encoding="UTF-8" standalone="no"?>
<!-- Generator: Adobe Illustrator 21.1.0, SVG Export Plug-In . SVG Version: 6.00 Build 0)  -->

<svg
   xmlns:dc="http://purl.org/dc/elements/1.1/"
   xmlns:cc="http://creativecommons.org/ns#"
   xmlns:rdf="http://www.w3.org/1999/02/22-rdf-syntax-ns#"
   xmlns:svg="http://www.w3.org/2000/svg"
   xmlns="http://www.w3.org/2000/svg"
   xmlns:sodipodi="http://sodipodi.sourceforge.net/DTD/sodipodi-0.dtd"
   xmlns:inkscape="http://www.inkscape.org/namespaces/inkscape"
   version="1.1"
   id="Layer_1"
   x="0px"
   y="0px"
   viewBox="0 0 70 70"
   xml:space="preserve"
   inkscape:version="0.91pre4 r13712"
   sodipodi:docname="atalef.svg"
   width="70"
   height="70"><metadata
     id="metadata53"><rdf:RDF><cc:Work
         rdf:about=""><dc:format>image/svg+xml</dc:format><dc:type
           rdf:resource="http://purl.org/dc/dcmitype/StillImage" /><dc:title></dc:title></cc:Work></rdf:RDF></metadata><defs
     id="defs51" /><sodipodi:namedview
     pagecolor="#ffffff"
     bordercolor="#666666"
     borderopacity="1"
     objecttolerance="10"
     gridtolerance="10"
     guidetolerance="10"
     inkscape:pageopacity="0"
     inkscape:pageshadow="2"
     inkscape:window-width="1280"
     inkscape:window-height="961"
     id="namedview49"
     showgrid="false"
     inkscape:zoom="0.70238095"
     inkscape:cx="141"
     inkscape:cy="168"
     inkscape:window-x="-8"
     inkscape:window-y="-8"
     inkscape:window-maximized="1"
     inkscape:current-layer="Layer_1" /><style
     type="text/css"
     id="style3">
	.st0{fill:#6AD6EF;}
	.st1{fill:#596B6A;}
	.st2{fill:none;stroke:#90C9E0;stroke-width:2;stroke-miterlimit:10;}
  .iaf {
		transform-box: fill-box;
		animation: 1s rot infinite linear;
		transform-origin: center;
	}
	@keyframes rot {
		from { transform: rotate(-360deg) }
	}
</style><g
     id="g5"
     transform="matrix(0.2,0,0,0.2,6.6548151,8.12)"><g
       id="g7"><path
         class="st0"
         d="m 141.7,306.8 c -0.9,0 -1.7,-0.5 -2.2,-1.2 0,-0.1 -4,-7.5 -4,-14.1 l 0,-26.2 -23.2,0 c -1.4,0 -2.5,-1.1 -2.5,-2.5 l 0,-11.2 c 0,-1.4 1.1,-2.5 2.5,-2.5 l 21.1,0 -10.4,-75.3 c -1.4,-1 -2.9,-2.7 -2.9,-5.2 l 0,-38.4 c 0,-14.2 2.1,-21.7 4,-26.7 1.5,-4 4.4,-9.7 5.1,-11.1 0.2,-1.2 1,-4.9 2.5,-8.7 2.6,-6.8 6,-10.2 10.1,-10.2 4.1,0 7.5,3.4 10.1,10.2 1.5,3.8 2.3,7.5 2.5,8.7 0.7,1.4 3.6,7.1 5.1,11.1 1.4,3.8 3.3,10 3.8,20.6 1,-1.8 3,-3 5.2,-3 l 1,0 c 3.3,0 6,2.7 6,6 l 0,9.4 c 0,1.9 -1.6,9.6 -6,9.6 l -1,0 c -2.6,0 -4.2,-2.5 -5.1,-5 l 0,26.8 c 0,2.5 -1.5,4.2 -2.9,5.2 l -10.6,76.1 21.2,0 c 1.4,0 2.5,1.1 2.5,2.5 l 0,11.2 c 0,1.4 -1.1,2.5 -2.5,2.5 l -23.2,0 0,26.2 c 0,6.2 -3.5,13.2 -3.9,14 -0.5,0.7 -1.3,1.2 -2.3,1.2 0.1,0 0.1,0 0,0 z"
         id="path9"
         inkscape:connector-curvature="0"
         style="fill:#6ad6ef" /><path
         class="st1"
         d="m 141.7,76 c 7.1,0 10.2,17.2 10.2,17.2 0,0 3.5,6.8 5.1,11.2 1.6,4.2 3.7,11.2 3.8,24.3 l 4.1,0 0,-1.6 c 0,-1.9 1.6,-3.5 3.5,-3.5 l 1,0 c 1.9,0 3.5,1.6 3.5,3.5 l 0,9.4 c 0,1.9 -1.6,7.1 -3.5,7.1 l -1,0 c -1.9,0 -3.5,-5.1 -3.5,-7.1 l 0,-2.4 -4,0 c 0,12.3 0,20.9 0,28.6 0,2.7 0,4.6 0,5.2 0,2.6 -2.7,3.7 -2.7,3.7 l -11.1,80.1 24,0 0,11.2 -25.6,0 -0.1,0.9 c 0,0 0,22 0,27.8 0,5.9 -3.7,12.8 -3.7,12.8 l 0,0 0,0 0,0 0,0 c 0,0 -3.7,-7 -3.7,-12.8 0,-5.9 0,-27.8 0,-27.8 l -0.1,-0.9 -25.6,0 0,-11.2 24,0 -11.1,-79.4 c 0,0 -2.7,-1.1 -2.7,-3.7 0,-0.6 0,-2.5 0,-5.2 0,-8.5 0,-18.8 0,-33.2 0,-14.1 2.2,-21.4 3.8,-25.8 1.6,-4.4 5.1,-11.2 5.1,-11.2 0,0 3.2,-17.2 10.3,-17.2 0,0 0,0 0,0 l 0,0 m 0,-5 c 0,0 0,0 0,0 -5.2,0 -9.4,4 -12.5,11.8 -1.4,3.6 -2.2,7.2 -2.6,8.8 -0.9,1.8 -3.6,7.2 -5,11.1 -1.9,5.2 -4.2,13 -4.2,27.5 l 0,33.2 0,5.2 c 0,2.8 1.3,5 3.1,6.6 l 10,71.5 -18.3,0 c -2.8,0 -5,2.2 -5,5 l 0,11.2 c 0,2.8 2.2,5 5,5 l 20.7,0 0,23.7 c 0,6.9 3.8,14.3 4.2,15.1 0.8,1.6 2.5,2.6 4.3,2.7 0.1,0 0.1,0 0.2,0 1.7,0 3.4,-0.9 4.3,-2.4 0,-0.1 4.4,-8 4.4,-15.4 l 0,-23.7 20.7,0 c 2.8,0 5,-2.2 5,-5 l 0,-11.2 c 0,-2.8 -2.2,-5 -5,-5 l -18.3,0 10,-72.2 c 1.8,-1.5 3.1,-3.8 3.1,-6.6 l 0,-5.2 0,-14.7 c 0.8,0.3 1.6,0.5 2.6,0.5 l 1,0 c 6.4,0 8.5,-9 8.5,-12.1 l 0,-9.4 c 0,-4.7 -3.8,-8.5 -8.5,-8.5 l -1,0 c -1.1,0 -2.1,0.2 -3.1,0.6 -0.8,-8 -2.4,-13.1 -3.6,-16.5 -1.4,-3.8 -4.1,-9.2 -5,-11.1 -0.3,-1.5 -1.1,-5.1 -2.6,-8.8 C 151.2,75 147,71 141.7,71 l 0,0 z"
         id="path11"
         inkscape:connector-curvature="0"
         style="fill:#596b6a" /></g><path
       class="st1"
       d="m 122.9,120.9 3.4,3 2.7,-6.6 -4.6,-6.1 c -0.7,2.6 -1.2,5.8 -1.5,9.7 z"
       id="path13"
       inkscape:connector-curvature="0"
       style="fill:#596b6a" /><path
       class="st1"
       d="m 159.1,111.2 -4.6,6.1 2.7,6.6 3.4,-3 c -0.3,-3.9 -0.9,-7.1 -1.5,-9.7 z"
       id="path15"
       inkscape:connector-curvature="0"
       style="fill:#596b6a" /><path
       class="st1"
       d="m 152,93.2 c 0,0 -3.1,-17.2 -10.2,-17.2 l 0,0 c 0,0 0,0 0,0 -7.1,0 -10.2,17.2 -10.2,17.2 0,0 0,0.1 -0.1,0.2 l 20.7,0 C 152,93.3 152,93.2 152,93.2 Z"
       id="path17"
       inkscape:connector-curvature="0"
       style="fill:#596b6a" /><g
       id="g19"><path
         class="st1"
         d="m 140.6,101.8 c -0.7,-0.7 -1.6,-1.6 -2.4,-2.5 -9.2,1.9 -12.5,11.4 -12.5,11.4 l 4.3,5.7 c 0,0 6.8,-3.4 10.6,-4 l 0,-10.6 z"
         id="path21"
         inkscape:connector-curvature="0"
         style="fill:#596b6a" /><path
         class="st1"
         d="m 145.3,99.3 c -0.8,0.8 -1.7,1.8 -2.4,2.5 l 0,10.6 c 3.8,0.6 10.6,4 10.6,4 l 4.3,-5.7 c -0.1,0 -3.3,-9.5 -12.5,-11.4 z"
         id="path23"
         inkscape:connector-curvature="0"
         style="fill:#596b6a" /></g><g
       id="g25"><path
         class="st1"
         d="m 158.2,148.7 0,17.7 2.7,0 c 0,-0.9 0,-2.2 0,-3.8 0,-4.5 0,-9.3 0,-15 l -2.7,1.1 z"
         id="path27"
         inkscape:connector-curvature="0"
         style="fill:#596b6a" /></g><g
       id="g29"><path
         class="st1"
         d="m 122.5,147.7 c 0,6 0,11.1 0,15.7 0,1.2 0,2.2 0,3 l 2.7,0 0,-17.7 -2.7,-1 z"
         id="path31"
         inkscape:connector-curvature="0"
         style="fill:#596b6a" /></g><g
       id="g33"><g
         id="g35" class="iaf"><circle
           transform="matrix(0.3229,-0.9464,0.9464,0.3229,-54.3775,241.7227)"
           class="st1"
           cx="141.7"
           cy="158.89999"
           id="ellipse37"
           r="5.9000001"
           style="fill:#596b6a" /><polygon
           class="st1"
           points="137,158.3 137.8,156.2 121.6,150.4 116.6,147.5 37.2,120.5 33.1,121.8 31.9,125.4 34.2,127.4 114.4,154.8 121.2,152.9 "
           id="polygon39"
           style="fill:#596b6a" /><polygon
           class="st1"
           points="146.3,159.2 145.6,161.3 161.8,167.1 166.7,170.1 246.2,197 250.2,195.7 251.5,192.1 249.2,190.1 169,162.7 162.1,164.6 "
           id="polygon41"
           style="fill:#596b6a" /><polygon
           class="st1"
           points="141.2,163.4 139.1,162.7 133.4,178.9 130.4,183.8 103.4,263.3 104.7,267.3 108.3,268.5 110.4,266.3 137.7,186.1 135.8,179.2 "
           id="polygon43"
           style="fill:#596b6a" /><polygon
           class="st1"
           points="142.2,154.1 144.2,154.8 150,138.6 153,133.7 180,54.3 178.6,50.2 175.1,49 173,51.3 145.6,131.5 147.6,138.3 "
           id="polygon45"
           style="fill:#596b6a" /></g><circle
         transform="matrix(0.8976,-0.4409,0.4409,0.8976,-55.523,78.7728)"
         class="st2"
         cx="141.7"
         cy="158.89999"
         id="ellipse47"
         r="113.6"
         style="fill:none;stroke:#90c9e0;stroke-width:2;stroke-miterlimit:10" /></g></g></svg>