<?xml version="1.0" encoding="utf-8"?>
<!-- Generator: Adobe Illustrator 21.1.0, SVG Export Plug-In . SVG Version: 6.00 Build 0)  -->
<svg version="1.1" id="Layer_1" xmlns="http://www.w3.org/2000/svg" xmlns:xlink="http://www.w3.org/1999/xlink" x="0px" y="0px"
	 viewBox="0 0 282 336" style="enable-background:new 0 0 282 336;" xml:space="preserve">
<style type="text/css">
	.st0{fill:#6AD6EF;}
	.st1{fill:#596B6A;}
	.st2{fill:none;stroke:#90C9E0;stroke-width:2;stroke-miterlimit:10;}
</style>
<g>
	<g>
		<path class="st0" d="M141.7,306.8c-0.9,0-1.7-0.5-2.2-1.2c0-0.1-4-7.5-4-14.1v-26.2h-23.2c-1.4,0-2.5-1.1-2.5-2.5v-11.2
			c0-1.4,1.1-2.5,2.5-2.5h21.1L123,173.8c-1.4-1-2.9-2.7-2.9-5.2v-38.4c0-14.2,2.1-21.7,4-26.7c1.5-4,4.4-9.7,5.1-11.1
			c0.2-1.2,1-4.9,2.5-8.7c2.6-6.8,6-10.2,10.1-10.2c4.1,0,7.5,3.4,10.1,10.2c1.5,3.8,2.3,7.5,2.5,8.7c0.7,1.4,3.6,7.1,5.1,11.1
			c1.4,3.8,3.3,10,3.8,20.6c1-1.8,3-3,5.2-3h1c3.3,0,6,2.7,6,6v9.4c0,1.9-1.6,9.6-6,9.6h-1c-2.6,0-4.2-2.5-5.1-5v26.8
			c0,2.5-1.5,4.2-2.9,5.2l-10.6,76.1h21.2c1.4,0,2.5,1.1,2.5,2.5v11.2c0,1.4-1.1,2.5-2.5,2.5h-23.2v26.2c0,6.2-3.5,13.2-3.9,14
			C143.5,306.3,142.7,306.8,141.7,306.8C141.8,306.8,141.8,306.8,141.7,306.8z"/>
		<path class="st1" d="M141.7,76c7.1,0,10.2,17.2,10.2,17.2s3.5,6.8,5.1,11.2c1.6,4.2,3.7,11.2,3.8,24.3h4.1v-1.6
			c0-1.9,1.6-3.5,3.5-3.5h1c1.9,0,3.5,1.6,3.5,3.5v9.4c0,1.9-1.6,7.1-3.5,7.1h-1c-1.9,0-3.5-5.1-3.5-7.1v-2.4h-4
			c0,12.3,0,20.9,0,28.6c0,2.7,0,4.6,0,5.2c0,2.6-2.7,3.7-2.7,3.7l-11.1,80.1h24v11.2h-25.6l-0.1,0.9c0,0,0,22,0,27.8
			c0,5.9-3.7,12.8-3.7,12.8v0l0,0l0,0v0c0,0-3.7-7-3.7-12.8c0-5.9,0-27.8,0-27.8l-0.1-0.9h-25.6v-11.2h24l-11.1-79.4
			c0,0-2.7-1.1-2.7-3.7c0-0.6,0-2.5,0-5.2c0-8.5,0-18.8,0-33.2c0-14.1,2.2-21.4,3.8-25.8c1.6-4.4,5.1-11.2,5.1-11.2
			S134.6,76,141.7,76C141.7,76,141.7,76,141.7,76L141.7,76 M141.7,71C141.7,71,141.7,71,141.7,71c-5.2,0-9.4,4-12.5,11.8
			c-1.4,3.6-2.2,7.2-2.6,8.8c-0.9,1.8-3.6,7.2-5,11.1c-1.9,5.2-4.2,13-4.2,27.5v33.2v5.2c0,2.8,1.3,5,3.1,6.6l10,71.5h-18.3
			c-2.8,0-5,2.2-5,5v11.2c0,2.8,2.2,5,5,5h20.7v23.7c0,6.9,3.8,14.3,4.2,15.1c0.8,1.6,2.5,2.6,4.3,2.7c0.1,0,0.1,0,0.2,0
			c1.7,0,3.4-0.9,4.3-2.4c0-0.1,4.4-8,4.4-15.4v-23.7h20.7c2.8,0,5-2.2,5-5v-11.2c0-2.8-2.2-5-5-5h-18.3l10-72.2
			c1.8-1.5,3.1-3.8,3.1-6.6v-5.2V148c0.8,0.3,1.6,0.5,2.6,0.5h1c6.4,0,8.5-9,8.5-12.1v-9.4c0-4.7-3.8-8.5-8.5-8.5h-1
			c-1.1,0-2.1,0.2-3.1,0.6c-0.8-8-2.4-13.1-3.6-16.5c-1.4-3.8-4.1-9.2-5-11.1c-0.3-1.5-1.1-5.1-2.6-8.8C151.2,75,147,71,141.7,71
			L141.7,71z"/>
	</g>
	<path class="st1" d="M122.9,120.9l3.4,3l2.7-6.6l-4.6-6.1C123.7,113.8,123.2,117,122.9,120.9z"/>
	<path class="st1" d="M159.1,111.2l-4.6,6.1l2.7,6.6l3.4-3C160.3,117,159.7,113.8,159.1,111.2z"/>
	<path class="st1" d="M152,93.2c0,0-3.1-17.2-10.2-17.2h0c0,0,0,0,0,0c-7.1,0-10.2,17.2-10.2,17.2s0,0.1-0.1,0.2h20.7
		C152,93.3,152,93.2,152,93.2z"/>
	<g>
		<path class="st1" d="M140.6,101.8c-0.7-0.7-1.6-1.6-2.4-2.5c-9.2,1.9-12.5,11.4-12.5,11.4l4.3,5.7c0,0,6.8-3.4,10.6-4V101.8z"/>
		<path class="st1" d="M145.3,99.3c-0.8,0.8-1.7,1.8-2.4,2.5v10.6c3.8,0.6,10.6,4,10.6,4l4.3-5.7
			C157.7,110.7,154.5,101.2,145.3,99.3z"/>
	</g>
	<g>
		<path class="st1" d="M158.2,148.7v17.7h2.7c0-0.9,0-2.2,0-3.8c0-4.5,0-9.3,0-15L158.2,148.7z"/>
	</g>
	<g>
		<path class="st1" d="M122.5,147.7c0,6,0,11.1,0,15.7c0,1.2,0,2.2,0,3h2.7v-17.7L122.5,147.7z"/>
	</g>
	<g>
		<g>
			
				<ellipse transform="matrix(0.3229 -0.9464 0.9464 0.3229 -54.3775 241.7227)" class="st1" cx="141.7" cy="158.9" rx="5.9" ry="5.9"/>
			<polygon class="st1" points="137.8,156.2 121.6,150.4 116.6,147.5 37.2,120.5 33.1,121.8 31.9,125.4 34.2,127.4 114.4,154.8 
				121.2,152.9 137,158.3 			"/>
			<polygon class="st1" points="145.6,161.3 161.8,167.1 166.7,170.1 246.2,197 250.2,195.7 251.5,192.1 249.2,190.1 169,162.7 
				162.1,164.6 146.3,159.2 			"/>
			<polygon class="st1" points="139.1,162.7 133.4,178.9 130.4,183.8 103.4,263.3 104.7,267.3 108.3,268.5 110.4,266.3 137.7,186.1 
				135.8,179.2 141.2,163.4 			"/>
			<polygon class="st1" points="144.2,154.8 150,138.6 153,133.7 180,54.3 178.6,50.2 175.1,49 173,51.3 145.6,131.5 147.6,138.3 
				142.2,154.1 			"/>
		</g>
		
			<ellipse transform="matrix(0.8976 -0.4409 0.4409 0.8976 -55.523 78.7728)" class="st2" cx="141.7" cy="158.9" rx="113.6" ry="113.6"/>
	</g>
</g>
</svg>
