<?xml version="1.0" encoding="UTF-8" standalone="no"?>
<!-- Generator: Adobe Illustrator 21.1.0, SVG Export Plug-In . SVG Version: 6.00 Build 0)  -->

<svg
   xmlns:dc="http://purl.org/dc/elements/1.1/"
   xmlns:cc="http://creativecommons.org/ns#"
   xmlns:rdf="http://www.w3.org/1999/02/22-rdf-syntax-ns#"
   xmlns:svg="http://www.w3.org/2000/svg"
   xmlns="http://www.w3.org/2000/svg"
   xmlns:sodipodi="http://sodipodi.sourceforge.net/DTD/sodipodi-0.dtd"
   xmlns:inkscape="http://www.inkscape.org/namespaces/inkscape"
   version="1.1"
   id="Layer_1"
   x="0px"
   y="0px"
   viewBox="0 0 350 350"
   xml:space="preserve"
   inkscape:version="0.91pre4 r13712"
   sodipodi:docname="barak.svg"
   width="350"
   height="350"><metadata
     id="metadata51"><rdf:RDF><cc:Work
         rdf:about=""><dc:format>image/svg+xml</dc:format><dc:type
           rdf:resource="http://purl.org/dc/dcmitype/StillImage" /><dc:title>Asset 1</dc:title></cc:Work></rdf:RDF></metadata><defs
     id="defs49"><filter
       inkscape:collect="always"
       style="color-interpolation-filters:sRGB"
       id="filter4307"
       x="-0.3036173"
       width="1.6072346"
       y="-0.19842398"
       height="1.396848"><feGaussianBlur
         inkscape:collect="always"
         stdDeviation="19.305"
         id="feGaussianBlur4309" /></filter></defs><sodipodi:namedview
     pagecolor="#ffffff"
     bordercolor="#666666"
     borderopacity="1"
     objecttolerance="10"
     gridtolerance="10"
     guidetolerance="10"
     inkscape:pageopacity="0"
     inkscape:pageshadow="2"
     inkscape:window-width="1280"
     inkscape:window-height="961"
     id="namedview47"
     showgrid="false"
     inkscape:zoom="0.80821918"
     inkscape:cx="-172.86441"
     inkscape:cy="127.44068"
     inkscape:window-x="494"
     inkscape:window-y="712"
     inkscape:window-maximized="1"
     inkscape:current-layer="Layer_1" /><style
     type="text/css"
     id="style3">
	.st0{fill:#EDE2B2;}
	.st1{fill:#596B6A;}
	.st2{fill:#DBCF9E;}
	.st3{fill:#C8EAB2;}
	.st4{fill:#CAE0E0;}
	.st5{fill:#BFB073;}
	.st6{fill:none;stroke:#EDE2B2;stroke-width:2;stroke-miterlimit:10;}
</style><title
     id="title5">Asset 1</title><g
     id="g7"
     style="opacity:0.5;fill:#405453;fill-opacity:1;filter:url(#filter4307)"
     transform="translate(67.8,27.85)"><g
       id="g9"
       style="fill:#405453;fill-opacity:1"><path
         class="st0"
         d="m 106.3,261.2 c -1.4,0 -2.5,-1.1 -2.5,-2.5 l 0,-2.9 -2.8,0 c -1.2,0 -2.3,-0.9 -2.5,-2.1 l -0.4,-2.8 c -0.1,0 -0.3,0 -0.4,0 l -3.9,0 0,2.3 c 0,1.4 -1.1,2.5 -2.5,2.5 l -23.6,0 c -0.6,0 -1.1,-0.2 -1.5,-0.5 l -3.9,-3.1 c -0.6,-0.5 -1,-1.2 -1,-2 l 0,-10 c 0,-0.7 0.3,-1.4 0.8,-1.9 L 88.5,214.5 88.3,200 36,200 c -1.4,0 -2.5,-1.1 -2.5,-2.5 l 0,-18.2 c 0,-0.7 0.3,-1.5 0.9,-1.9 l 48.8,-40.2 0,-1.3 c 0,-3.1 2.1,-10.5 4.7,-19.2 0.7,-2.4 1.3,-4.4 1.6,-5.5 1.4,-5.6 2.2,-9.3 2.5,-11.3 0.1,-0.9 0.4,-4 0.7,-7.3 0.7,-7.5 1.2,-12.9 1.4,-14.1 0.4,-1.7 1.3,-4.4 1.7,-5.4 0.1,-2 0.6,-10.9 2.1,-18.2 1.9,-9.6 6.8,-20 7,-20.4 0.4,-0.9 1.3,-1.4 2.3,-1.4 1,0 1.8,0.6 2.3,1.4 0.2,0.4 5.1,10.8 7,20.4 1.5,7.4 2,16.2 2.1,18.2 0.4,1 1.3,3.7 1.7,5.4 0.3,1.3 0.8,6.7 1.4,14.1 0.3,3.3 0.6,6.3 0.7,7.3 0.2,1.9 1.1,5.7 2.5,11.3 0.3,1 0.9,3.1 1.6,5.5 2.6,8.7 4.7,16.1 4.7,19.2 l 0,1.3 48.8,40.2 c 0.6,0.5 0.9,1.2 0.9,1.9 l 0,18.2 c 0,1.4 -1.1,2.5 -2.5,2.5 l -52.2,0 -0.2,14.5 26.4,23.7 c 0.5,0.5 0.8,1.1 0.8,1.9 l 0,10 c 0,0.8 -0.4,1.5 -1,2 l -3.9,3.1 c -0.4,0.3 -1,0.5 -1.5,0.5 l -23.7,0 c -1.4,0 -2.5,-1.1 -2.5,-2.5 l 0,-2.3 -3.9,0 c -0.1,0 -0.3,0 -0.4,0 l -0.4,2.8 c -0.2,1.2 -1.2,2.1 -2.5,2.1 l -2.8,0 0,2.9 c 0,1.4 -1.1,2.5 -2.5,2.5 l -1.8,0 z"
         id="path11"
         style="fill:#405453;fill-opacity:1"
         inkscape:connector-curvature="0" /><path
         class="st1"
         d="m 107.2,35.4 0,0 c 0,0 4.9,10.4 6.9,19.9 1.6,8.1 2.1,18.2 2.1,18.2 0,0 1.3,3.5 1.7,5.5 0.4,2 1.7,18.6 2.1,21.2 0.3,2.6 1.5,7.6 2.5,11.6 1,3.9 6.2,20 6.2,24.1 0,1.6 0,2.5 0,2.5 l 49.7,40.9 0,18.2 -54.7,0 -0.2,18.1 27.2,24.5 0,10 -3.9,3.1 -23.7,0 0,-10.5 -0.1,5.7 -6.3,0 0,-18 -3.3,22.9 -5.4,0 0,5.4 -0.9,0 0,0 -0.9,0 0,-5.4 -5.2,0 -3.3,-22.9 0,18 -6.3,0 -0.1,-5.7 0,10.5 -23.6,0 -3.9,-3.1 0,-10 27.2,-24.5 -0.2,-18.1 -54.8,0 0,-18.2 49.7,-40.9 c 0,0 0,-0.9 0,-2.5 0,-4.1 5.2,-20.2 6.2,-24.1 1,-3.9 2.2,-9 2.5,-11.6 C 94.7,97.6 96,81 96.5,79 c 0.4,-2 1.7,-5.5 1.7,-5.5 0,0 0.4,-10.2 2.1,-18.2 1.9,-9.5 6.9,-19.9 6.9,-19.9 l 0,0 0,0 0,0 m 0,-5 c 0,0 0,0 0,0 -1.9,0 -3.7,1.1 -4.5,2.9 -0.2,0.4 -5.2,11.1 -7.2,21 -1.4,7.1 -2,15.6 -2.1,18.2 -0.4,1.2 -1.3,3.7 -1.7,5.4 -0.3,1.3 -0.7,5.3 -1.5,14.5 -0.3,3.2 -0.6,6.3 -0.7,7.2 -0.2,1.8 -1,5.5 -2.4,11 -0.2,1 -0.9,3 -1.6,5.4 -2.7,9.2 -4.8,16.5 -4.8,20 l 0,0.2 -47.8,39.4 c -1.2,0.9 -1.8,2.4 -1.8,3.9 l 0,18.2 c 0,2.8 2.2,5 5,5 l 49.8,0 0.1,10.9 -25.5,23 c -1.1,0.9 -1.7,2.3 -1.7,3.7 l 0,10 c 0,1.5 0.7,3 1.9,3.9 l 3.9,3.1 c 0.9,0.7 2,1.1 3.1,1.1 l 23.7,0 c 2.3,0 4.2,-1.6 4.8,-3.7 0.5,2.2 2.5,3.8 4.9,3.8 l 0.3,0 0,0.4 c 0,2.8 2.2,5 5,5 l 0.9,0 0.9,0 c 2.8,0 5,-2.2 5,-5 l 0,-0.4 0.3,0 c 2.3,0 4.3,-1.6 4.9,-3.8 0.6,2.1 2.5,3.7 4.8,3.7 l 23.7,0 c 1.1,0 2.2,-0.4 3.1,-1.1 l 3.9,-3.1 c 1.2,-0.9 1.9,-2.4 1.9,-3.9 l 0,-10 c 0,-1.4 -0.6,-2.8 -1.7,-3.7 l -25.5,-23 0.1,-10.9 49.8,0 c 2.8,0 5,-2.2 5,-5 l 0,-18.2 c 0,-1.5 -0.7,-2.9 -1.8,-3.9 l -48,-39.6 0,-0.2 c 0,-3.4 -2.1,-10.8 -4.8,-20 -0.7,-2.4 -1.3,-4.4 -1.6,-5.4 -1.4,-5.5 -2.2,-9.1 -2.4,-11 -0.1,-0.9 -0.4,-4 -0.7,-7.2 -0.8,-9.1 -1.2,-13.1 -1.5,-14.5 -0.4,-1.7 -1.2,-4.1 -1.7,-5.4 -0.1,-2.6 -0.7,-11.1 -2.1,-18.2 -2,-9.9 -7,-20.6 -7.2,-21 -0.8,-1.6 -2.6,-2.7 -4.5,-2.7 l 0,0 z"
         id="path13"
         style="fill:#405453;fill-opacity:1"
         inkscape:connector-curvature="0" /></g><path
       class="st2"
       d="m 128.7,138.3 c 0,0 0,-0.9 0,-2.5 0,-4.1 -5.2,-20.2 -6.2,-24.1 -0.2,-0.8 -0.4,-1.6 -0.6,-2.5 -4.3,5.4 -9.1,10.6 -11.9,11.2 -3,0.6 -11.4,-0.1 -20.3,-0.6 -1.8,6 -3.9,13.4 -3.9,16 0,1.6 0,2.5 0,2.5 l -49.8,40.9 0,18.2 16,0 c 1.7,-3.8 4.4,-7.9 8.5,-11.1 9.7,-7.3 22.7,-1 32.3,-1 9.7,0 30.7,-13 44,-25.3 2.6,-2.4 5,-5.6 7.1,-9.1 l -15.2,-12.6 z"
       id="path15"
       style="fill:#405453;fill-opacity:1"
       inkscape:connector-curvature="0" /><path
       class="st3"
       d="M 178.3,179.2 164,167.5 c -0.8,0.7 -1.5,1.5 -2.2,2.3 -5.7,7.7 -6.7,18.7 -6.3,21.7 0.1,1.2 0.6,3.6 1.1,6.1 l 21.6,0 0,-18.4 z"
       id="path17"
       style="fill:#405453;fill-opacity:1"
       inkscape:connector-curvature="0" /><path
       class="st2"
       d="m 108,253.3 5.3,0 3.3,-22.9 0,18 6.3,0 0.1,-5.7 0,10.5 23.7,0 3.9,-3.1 0,-10 -27.2,-24.5 0.2,-12.8 c -2.3,0 -4.5,0.3 -6.4,0.9 -7.3,2.3 -14,12 -22,13.7 -2.4,0.5 -5.1,1.1 -8,1.6 l -23.5,21.1 0,10 3.9,3.1 23.7,0 0,-10.5 0.1,5.7 6.3,0 0,-18 3.3,22.9 5.3,0 0,5.4 0.9,0 0,0 0.9,0 0,-5.4 z"
       id="path19"
       style="fill:#405453;fill-opacity:1"
       inkscape:connector-curvature="0" /><path
       class="st4"
       d="m 114,55.2 c -1.9,-9.4 -6.9,-19.9 -6.9,-19.9 l 0,0 0,0 0,0 c 0,0 -4.9,10.4 -6.9,19.9 -0.4,2.1 -0.8,4.3 -1,6.4 l 15.8,0 c -0.2,-2.1 -0.5,-4.3 -1,-6.4 z"
       id="path21"
       style="fill:#405453;fill-opacity:1"
       inkscape:connector-curvature="0" /><polyline
       class="st1"
       points="108,253.3 113.4,253.3 116.7,230.3 97.7,230.3 101,253.3 106.3,253.3  "
       id="polyline23"
       style="fill:#405453;fill-opacity:1" /><g
       id="g25"
       style="fill:#405453;fill-opacity:1"><path
         class="st5"
         d="m 105.3,259.7 0,-17.8 -1.6,0 0,-32.1 c -0.4,-1.3 -3.2,-10.8 -3.2,-15.6 0,-5 -0.2,-52.8 -0.2,-53.3 l 0,-10.1 13.8,0 0,10.1 c 0,0.5 -0.2,48.3 -0.2,53.3 0,4.8 -2.8,14.3 -3.2,15.6 l 0,32.1 -1.7,0 0,17.8 -3.7,0 z"
         id="path27"
         style="fill:#405453;fill-opacity:1"
         inkscape:connector-curvature="0" /><path
         class="st0"
         d="m 113.1,131.9 c 0,0 0,5.8 0,9.1 0,0 -0.2,48.2 -0.2,53.3 0,5 -3.2,15.5 -3.2,15.5 l 0,31.2 -1.7,0 0,12.3 0,5.4 -0.9,0 0,0 -0.9,0 0,-5.4 0,-12.3 -1.6,0 0,-31.2 c 0,0 -3.2,-10.5 -3.2,-15.5 0,-5 -0.2,-53.3 -0.2,-53.3 0,-3.3 0,-9.1 0,-9.1 l 5.9,0 6,0 m 2,-2 -2,0 -5.9,0 -5.9,0 -2,0 0,2 0,9.1 c 0,0.5 0.2,48.3 0.2,53.3 0,4.8 2.6,14 3.2,15.8 l 0,30.9 0,2 1.6,0 0,10.3 0,5.4 0,2 2,0 0.9,0 0.9,0 2,0 0,-2 0,-5.4 0,-10.3 1.6,0 0,-2 0,-31 c 0.5,-1.8 3.2,-11 3.2,-15.8 0,-5 0.2,-52.8 0.2,-53.3 l 0,-9.1 0,-1.9 0,0 z"
         id="path29"
         style="fill:#405453;fill-opacity:1"
         inkscape:connector-curvature="0" /></g><path
       class="st1"
       d="m 113.1,101.8 c 0,-6.1 0,-11.3 0,-13.5 0,-6.7 -3.3,-15.3 -3.3,-15.3 l -2.6,0 -2.6,0 c 0,0 -3.3,8.6 -3.3,15.3 0,2.1 0,7.4 0,13.5 l 11.8,0 z"
       id="path31"
       style="fill:#405453;fill-opacity:1"
       inkscape:connector-curvature="0" /><path
       class="st1"
       d="m 101.3,102.8 c 0,12.9 0,29.1 0,29.1 0,0 1.3,3.4 5.9,3.4 4.6,0 5.9,-3.4 5.9,-3.4 0,0 0,-16.2 0,-29.1 l -11.8,0 z"
       id="path33"
       style="fill:#405453;fill-opacity:1"
       inkscape:connector-curvature="0" /><path
       class="st6"
       d="m 100.3,131.6 c 0,0 1.5,4 6.9,4 5.4,0 6.9,-4 6.9,-4"
       id="path35"
       style="fill:#405453;fill-opacity:1;stroke:#ede2b2;stroke-width:2;stroke-miterlimit:10"
       inkscape:connector-curvature="0" /><path
       class="st6"
       d="m 100.3,131.6 c 0,0 1.5,4 6.9,4 5.4,0 6.9,-4 6.9,-4"
       id="path37"
       style="fill:#405453;fill-opacity:1;stroke:#ede2b2;stroke-width:2;stroke-miterlimit:10"
       inkscape:connector-curvature="0" /><g
       id="g39"
       style="fill:#405453;fill-opacity:1"><path
         class="st1"
         d="m 107.2,35.4 0,0 c 0,0 4.9,10.4 6.9,19.9 1.6,8.1 2.1,18.2 2.1,18.2 0,0 1.3,3.5 1.7,5.5 0.4,2 1.7,18.6 2.1,21.2 0.3,2.6 1.5,7.6 2.5,11.6 1,3.9 6.2,20 6.2,24.1 0,1.6 0,2.5 0,2.5 l 49.7,40.9 0,18.2 -54.7,0 -0.2,18.1 27.2,24.5 0,10 -3.9,3.1 -23.7,0 0,-10.5 -0.1,5.7 -6.3,0 0,-18 -3.3,22.9 -5.4,0 0,5.4 -0.9,0 0,0 -0.9,0 0,-5.4 -5.2,0 -3.3,-22.9 0,18 -6.3,0 -0.1,-5.7 0,10.5 -23.6,0 -3.9,-3.1 0,-10 27.2,-24.5 -0.2,-18.1 -54.8,0 0,-18.2 49.7,-40.9 c 0,0 0,-0.9 0,-2.5 0,-4.1 5.2,-20.2 6.2,-24.1 1,-3.9 2.2,-9 2.5,-11.6 C 94.7,97.6 96,81 96.5,79 c 0.4,-2 1.7,-5.5 1.7,-5.5 0,0 0.4,-10.2 2.1,-18.2 1.9,-9.5 6.9,-19.9 6.9,-19.9 l 0,0 0,0 0,0 m 0,-5 c 0,0 0,0 0,0 -1.9,0 -3.7,1.1 -4.5,2.9 -0.2,0.4 -5.2,11.1 -7.2,21 -1.4,7.1 -2,15.6 -2.1,18.2 -0.4,1.2 -1.3,3.7 -1.7,5.4 -0.3,1.3 -0.7,5.3 -1.5,14.5 -0.3,3.2 -0.6,6.3 -0.7,7.2 -0.2,1.8 -1,5.5 -2.4,11 -0.2,1 -0.9,3 -1.6,5.4 -2.7,9.2 -4.8,16.5 -4.8,20 l 0,0.2 -47.8,39.4 c -1.2,0.9 -1.8,2.4 -1.8,3.9 l 0,18.2 c 0,2.8 2.2,5 5,5 l 49.8,0 0.1,10.9 -25.5,23 c -1.1,0.9 -1.7,2.3 -1.7,3.7 l 0,10 c 0,1.5 0.7,3 1.9,3.9 l 3.9,3.1 c 0.9,0.7 2,1.1 3.1,1.1 l 23.7,0 c 2.3,0 4.2,-1.6 4.8,-3.7 0.5,2.2 2.5,3.8 4.9,3.8 l 0.3,0 0,0.4 c 0,2.8 2.2,5 5,5 l 0.9,0 0.9,0 c 2.8,0 5,-2.2 5,-5 l 0,-0.4 0.3,0 c 2.3,0 4.3,-1.6 4.9,-3.8 0.6,2.1 2.5,3.7 4.8,3.7 l 23.7,0 c 1.1,0 2.2,-0.4 3.1,-1.1 l 3.9,-3.1 c 1.2,-0.9 1.9,-2.4 1.9,-3.9 l 0,-10 c 0,-1.4 -0.6,-2.8 -1.7,-3.7 l -25.5,-23 0.1,-10.9 49.8,0 c 2.8,0 5,-2.2 5,-5 l 0,-18.2 c 0,-1.5 -0.7,-2.9 -1.8,-3.9 l -48,-39.6 0,-0.2 c 0,-3.4 -2.1,-10.8 -4.8,-20 -0.7,-2.4 -1.3,-4.4 -1.6,-5.4 -1.4,-5.5 -2.2,-9.1 -2.4,-11 -0.1,-0.9 -0.4,-4 -0.7,-7.2 -0.8,-9.1 -1.2,-13.1 -1.5,-14.5 -0.4,-1.7 -1.2,-4.1 -1.7,-5.4 -0.1,-2.6 -0.7,-11.1 -2.1,-18.2 -2,-9.9 -7,-20.6 -7.2,-21 -0.8,-1.6 -2.6,-2.7 -4.5,-2.7 l 0,0 z"
         id="path41"
         style="fill:#405453;fill-opacity:1"
         inkscape:connector-curvature="0" /></g><rect
       x="30.9"
       y="159.5"
       class="st1"
       width="2.5"
       height="45.5"
       id="rect43"
       style="fill:#405453;fill-opacity:1" /><rect
       x="180.89999"
       y="159.5"
       class="st1"
       width="2.5"
       height="45.5"
       id="rect45"
       style="fill:#405453;fill-opacity:1" /></g><g
     id="g4179"
     transform="translate(67.8,27.85)"><g
       id="g4181"><path
         id="path4183"
         d="m 106.3,261.2 c -1.4,0 -2.5,-1.1 -2.5,-2.5 l 0,-2.9 -2.8,0 c -1.2,0 -2.3,-0.9 -2.5,-2.1 l -0.4,-2.8 c -0.1,0 -0.3,0 -0.4,0 l -3.9,0 0,2.3 c 0,1.4 -1.1,2.5 -2.5,2.5 l -23.6,0 c -0.6,0 -1.1,-0.2 -1.5,-0.5 l -3.9,-3.1 c -0.6,-0.5 -1,-1.2 -1,-2 l 0,-10 c 0,-0.7 0.3,-1.4 0.8,-1.9 L 88.5,214.5 88.3,200 36,200 c -1.4,0 -2.5,-1.1 -2.5,-2.5 l 0,-18.2 c 0,-0.7 0.3,-1.5 0.9,-1.9 l 48.8,-40.2 0,-1.3 c 0,-3.1 2.1,-10.5 4.7,-19.2 0.7,-2.4 1.3,-4.4 1.6,-5.5 1.4,-5.6 2.2,-9.3 2.5,-11.3 0.1,-0.9 0.4,-4 0.7,-7.3 0.7,-7.5 1.2,-12.9 1.4,-14.1 0.4,-1.7 1.3,-4.4 1.7,-5.4 0.1,-2 0.6,-10.9 2.1,-18.2 1.9,-9.6 6.8,-20 7,-20.4 0.4,-0.9 1.3,-1.4 2.3,-1.4 1,0 1.8,0.6 2.3,1.4 0.2,0.4 5.1,10.8 7,20.4 1.5,7.4 2,16.2 2.1,18.2 0.4,1 1.3,3.7 1.7,5.4 0.3,1.3 0.8,6.7 1.4,14.1 0.3,3.3 0.6,6.3 0.7,7.3 0.2,1.9 1.1,5.7 2.5,11.3 0.3,1 0.9,3.1 1.6,5.5 2.6,8.7 4.7,16.1 4.7,19.2 l 0,1.3 48.8,40.2 c 0.6,0.5 0.9,1.2 0.9,1.9 l 0,18.2 c 0,1.4 -1.1,2.5 -2.5,2.5 l -52.2,0 -0.2,14.5 26.4,23.7 c 0.5,0.5 0.8,1.1 0.8,1.9 l 0,10 c 0,0.8 -0.4,1.5 -1,2 l -3.9,3.1 c -0.4,0.3 -1,0.5 -1.5,0.5 l -23.7,0 c -1.4,0 -2.5,-1.1 -2.5,-2.5 l 0,-2.3 -3.9,0 c -0.1,0 -0.3,0 -0.4,0 l -0.4,2.8 c -0.2,1.2 -1.2,2.1 -2.5,2.1 l -2.8,0 0,2.9 c 0,1.4 -1.1,2.5 -2.5,2.5 l -1.8,0 z"
         class="st0"
         inkscape:connector-curvature="0"
         style="fill:#ede2b2" /><path
         id="path4185"
         d="m 107.2,35.4 0,0 c 0,0 4.9,10.4 6.9,19.9 1.6,8.1 2.1,18.2 2.1,18.2 0,0 1.3,3.5 1.7,5.5 0.4,2 1.7,18.6 2.1,21.2 0.3,2.6 1.5,7.6 2.5,11.6 1,3.9 6.2,20 6.2,24.1 0,1.6 0,2.5 0,2.5 l 49.7,40.9 0,18.2 -54.7,0 -0.2,18.1 27.2,24.5 0,10 -3.9,3.1 -23.7,0 0,-10.5 -0.1,5.7 -6.3,0 0,-18 -3.3,22.9 -5.4,0 0,5.4 -0.9,0 0,0 -0.9,0 0,-5.4 -5.2,0 -3.3,-22.9 0,18 -6.3,0 -0.1,-5.7 0,10.5 -23.6,0 -3.9,-3.1 0,-10 27.2,-24.5 -0.2,-18.1 -54.8,0 0,-18.2 49.7,-40.9 c 0,0 0,-0.9 0,-2.5 0,-4.1 5.2,-20.2 6.2,-24.1 1,-3.9 2.2,-9 2.5,-11.6 C 94.7,97.6 96,81 96.5,79 c 0.4,-2 1.7,-5.5 1.7,-5.5 0,0 0.4,-10.2 2.1,-18.2 1.9,-9.5 6.9,-19.9 6.9,-19.9 l 0,0 0,0 0,0 m 0,-5 c 0,0 0,0 0,0 -1.9,0 -3.7,1.1 -4.5,2.9 -0.2,0.4 -5.2,11.1 -7.2,21 -1.4,7.1 -2,15.6 -2.1,18.2 -0.4,1.2 -1.3,3.7 -1.7,5.4 -0.3,1.3 -0.7,5.3 -1.5,14.5 -0.3,3.2 -0.6,6.3 -0.7,7.2 -0.2,1.8 -1,5.5 -2.4,11 -0.2,1 -0.9,3 -1.6,5.4 -2.7,9.2 -4.8,16.5 -4.8,20 l 0,0.2 -47.8,39.4 c -1.2,0.9 -1.8,2.4 -1.8,3.9 l 0,18.2 c 0,2.8 2.2,5 5,5 l 49.8,0 0.1,10.9 -25.5,23 c -1.1,0.9 -1.7,2.3 -1.7,3.7 l 0,10 c 0,1.5 0.7,3 1.9,3.9 l 3.9,3.1 c 0.9,0.7 2,1.1 3.1,1.1 l 23.7,0 c 2.3,0 4.2,-1.6 4.8,-3.7 0.5,2.2 2.5,3.8 4.9,3.8 l 0.3,0 0,0.4 c 0,2.8 2.2,5 5,5 l 0.9,0 0.9,0 c 2.8,0 5,-2.2 5,-5 l 0,-0.4 0.3,0 c 2.3,0 4.3,-1.6 4.9,-3.8 0.6,2.1 2.5,3.7 4.8,3.7 l 23.7,0 c 1.1,0 2.2,-0.4 3.1,-1.1 l 3.9,-3.1 c 1.2,-0.9 1.9,-2.4 1.9,-3.9 l 0,-10 c 0,-1.4 -0.6,-2.8 -1.7,-3.7 l -25.5,-23 0.1,-10.9 49.8,0 c 2.8,0 5,-2.2 5,-5 l 0,-18.2 c 0,-1.5 -0.7,-2.9 -1.8,-3.9 l -48,-39.6 0,-0.2 c 0,-3.4 -2.1,-10.8 -4.8,-20 -0.7,-2.4 -1.3,-4.4 -1.6,-5.4 -1.4,-5.5 -2.2,-9.1 -2.4,-11 -0.1,-0.9 -0.4,-4 -0.7,-7.2 -0.8,-9.1 -1.2,-13.1 -1.5,-14.5 -0.4,-1.7 -1.2,-4.1 -1.7,-5.4 -0.1,-2.6 -0.7,-11.1 -2.1,-18.2 -2,-9.9 -7,-20.6 -7.2,-21 -0.8,-1.6 -2.6,-2.7 -4.5,-2.7 l 0,0 z"
         class="st1"
         inkscape:connector-curvature="0"
         style="fill:#596b6a" /></g><path
       id="path4187"
       d="m 128.7,138.3 c 0,0 0,-0.9 0,-2.5 0,-4.1 -5.2,-20.2 -6.2,-24.1 -0.2,-0.8 -0.4,-1.6 -0.6,-2.5 -4.3,5.4 -9.1,10.6 -11.9,11.2 -3,0.6 -11.4,-0.1 -20.3,-0.6 -1.8,6 -3.9,13.4 -3.9,16 0,1.6 0,2.5 0,2.5 l -49.8,40.9 0,18.2 16,0 c 1.7,-3.8 4.4,-7.9 8.5,-11.1 9.7,-7.3 22.7,-1 32.3,-1 9.7,0 30.7,-13 44,-25.3 2.6,-2.4 5,-5.6 7.1,-9.1 l -15.2,-12.6 z"
       class="st2"
       inkscape:connector-curvature="0"
       style="fill:#dbcf9e" /><path
       id="path4189"
       d="M 178.3,179.2 164,167.5 c -0.8,0.7 -1.5,1.5 -2.2,2.3 -5.7,7.7 -6.7,18.7 -6.3,21.7 0.1,1.2 0.6,3.6 1.1,6.1 l 21.6,0 0,-18.4 z"
       class="st3"
       inkscape:connector-curvature="0"
       style="fill:#c8eab2" /><path
       id="path4191"
       d="m 108,253.3 5.3,0 3.3,-22.9 0,18 6.3,0 0.1,-5.7 0,10.5 23.7,0 3.9,-3.1 0,-10 -27.2,-24.5 0.2,-12.8 c -2.3,0 -4.5,0.3 -6.4,0.9 -7.3,2.3 -14,12 -22,13.7 -2.4,0.5 -5.1,1.1 -8,1.6 l -23.5,21.1 0,10 3.9,3.1 23.7,0 0,-10.5 0.1,5.7 6.3,0 0,-18 3.3,22.9 5.3,0 0,5.4 0.9,0 0,0 0.9,0 0,-5.4 z"
       class="st2"
       inkscape:connector-curvature="0"
       style="fill:#dbcf9e" /><path
       id="path4193"
       d="m 114,55.2 c -1.9,-9.4 -6.9,-19.9 -6.9,-19.9 l 0,0 0,0 0,0 c 0,0 -4.9,10.4 -6.9,19.9 -0.4,2.1 -0.8,4.3 -1,6.4 l 15.8,0 c -0.2,-2.1 -0.5,-4.3 -1,-6.4 z"
       class="st4"
       inkscape:connector-curvature="0"
       style="fill:#cae0e0" /><polyline
       id="polyline4195"
       points="108,253.3 113.4,253.3 116.7,230.3 97.7,230.3 101,253.3 106.3,253.3  "
       class="st1"
       style="fill:#596b6a" /><g
       id="g4197"><path
         id="path4199"
         d="m 105.3,259.7 0,-17.8 -1.6,0 0,-32.1 c -0.4,-1.3 -3.2,-10.8 -3.2,-15.6 0,-5 -0.2,-52.8 -0.2,-53.3 l 0,-10.1 13.8,0 0,10.1 c 0,0.5 -0.2,48.3 -0.2,53.3 0,4.8 -2.8,14.3 -3.2,15.6 l 0,32.1 -1.7,0 0,17.8 -3.7,0 z"
         class="st5"
         inkscape:connector-curvature="0"
         style="fill:#bfb073" /><path
         id="path4201"
         d="m 113.1,131.9 c 0,0 0,5.8 0,9.1 0,0 -0.2,48.2 -0.2,53.3 0,5 -3.2,15.5 -3.2,15.5 l 0,31.2 -1.7,0 0,12.3 0,5.4 -0.9,0 0,0 -0.9,0 0,-5.4 0,-12.3 -1.6,0 0,-31.2 c 0,0 -3.2,-10.5 -3.2,-15.5 0,-5 -0.2,-53.3 -0.2,-53.3 0,-3.3 0,-9.1 0,-9.1 l 5.9,0 6,0 m 2,-2 -2,0 -5.9,0 -5.9,0 -2,0 0,2 0,9.1 c 0,0.5 0.2,48.3 0.2,53.3 0,4.8 2.6,14 3.2,15.8 l 0,30.9 0,2 1.6,0 0,10.3 0,5.4 0,2 2,0 0.9,0 0.9,0 2,0 0,-2 0,-5.4 0,-10.3 1.6,0 0,-2 0,-31 c 0.5,-1.8 3.2,-11 3.2,-15.8 0,-5 0.2,-52.8 0.2,-53.3 l 0,-9.1 0,-1.9 0,0 z"
         class="st0"
         inkscape:connector-curvature="0"
         style="fill:#ede2b2" /></g><path
       id="path4203"
       d="m 113.1,101.8 c 0,-6.1 0,-11.3 0,-13.5 0,-6.7 -3.3,-15.3 -3.3,-15.3 l -2.6,0 -2.6,0 c 0,0 -3.3,8.6 -3.3,15.3 0,2.1 0,7.4 0,13.5 l 11.8,0 z"
       class="st1"
       inkscape:connector-curvature="0"
       style="fill:#596b6a" /><path
       id="path4205"
       d="m 101.3,102.8 c 0,12.9 0,29.1 0,29.1 0,0 1.3,3.4 5.9,3.4 4.6,0 5.9,-3.4 5.9,-3.4 0,0 0,-16.2 0,-29.1 l -11.8,0 z"
       class="st1"
       inkscape:connector-curvature="0"
       style="fill:#596b6a" /><path
       id="path4207"
       d="m 100.3,131.6 c 0,0 1.5,4 6.9,4 5.4,0 6.9,-4 6.9,-4"
       class="st6"
       inkscape:connector-curvature="0"
       style="fill:none;stroke:#ede2b2;stroke-width:2;stroke-miterlimit:10" /><path
       id="path4209"
       d="m 100.3,131.6 c 0,0 1.5,4 6.9,4 5.4,0 6.9,-4 6.9,-4"
       class="st6"
       inkscape:connector-curvature="0"
       style="fill:none;stroke:#ede2b2;stroke-width:2;stroke-miterlimit:10" /><g
       id="g4211"><path
         id="path4213"
         d="m 107.2,35.4 0,0 c 0,0 4.9,10.4 6.9,19.9 1.6,8.1 2.1,18.2 2.1,18.2 0,0 1.3,3.5 1.7,5.5 0.4,2 1.7,18.6 2.1,21.2 0.3,2.6 1.5,7.6 2.5,11.6 1,3.9 6.2,20 6.2,24.1 0,1.6 0,2.5 0,2.5 l 49.7,40.9 0,18.2 -54.7,0 -0.2,18.1 27.2,24.5 0,10 -3.9,3.1 -23.7,0 0,-10.5 -0.1,5.7 -6.3,0 0,-18 -3.3,22.9 -5.4,0 0,5.4 -0.9,0 0,0 -0.9,0 0,-5.4 -5.2,0 -3.3,-22.9 0,18 -6.3,0 -0.1,-5.7 0,10.5 -23.6,0 -3.9,-3.1 0,-10 27.2,-24.5 -0.2,-18.1 -54.8,0 0,-18.2 49.7,-40.9 c 0,0 0,-0.9 0,-2.5 0,-4.1 5.2,-20.2 6.2,-24.1 1,-3.9 2.2,-9 2.5,-11.6 C 94.7,97.6 96,81 96.5,79 c 0.4,-2 1.7,-5.5 1.7,-5.5 0,0 0.4,-10.2 2.1,-18.2 1.9,-9.5 6.9,-19.9 6.9,-19.9 l 0,0 0,0 0,0 m 0,-5 c 0,0 0,0 0,0 -1.9,0 -3.7,1.1 -4.5,2.9 -0.2,0.4 -5.2,11.1 -7.2,21 -1.4,7.1 -2,15.6 -2.1,18.2 -0.4,1.2 -1.3,3.7 -1.7,5.4 -0.3,1.3 -0.7,5.3 -1.5,14.5 -0.3,3.2 -0.6,6.3 -0.7,7.2 -0.2,1.8 -1,5.5 -2.4,11 -0.2,1 -0.9,3 -1.6,5.4 -2.7,9.2 -4.8,16.5 -4.8,20 l 0,0.2 -47.8,39.4 c -1.2,0.9 -1.8,2.4 -1.8,3.9 l 0,18.2 c 0,2.8 2.2,5 5,5 l 49.8,0 0.1,10.9 -25.5,23 c -1.1,0.9 -1.7,2.3 -1.7,3.7 l 0,10 c 0,1.5 0.7,3 1.9,3.9 l 3.9,3.1 c 0.9,0.7 2,1.1 3.1,1.1 l 23.7,0 c 2.3,0 4.2,-1.6 4.8,-3.7 0.5,2.2 2.5,3.8 4.9,3.8 l 0.3,0 0,0.4 c 0,2.8 2.2,5 5,5 l 0.9,0 0.9,0 c 2.8,0 5,-2.2 5,-5 l 0,-0.4 0.3,0 c 2.3,0 4.3,-1.6 4.9,-3.8 0.6,2.1 2.5,3.7 4.8,3.7 l 23.7,0 c 1.1,0 2.2,-0.4 3.1,-1.1 l 3.9,-3.1 c 1.2,-0.9 1.9,-2.4 1.9,-3.9 l 0,-10 c 0,-1.4 -0.6,-2.8 -1.7,-3.7 l -25.5,-23 0.1,-10.9 49.8,0 c 2.8,0 5,-2.2 5,-5 l 0,-18.2 c 0,-1.5 -0.7,-2.9 -1.8,-3.9 l -48,-39.6 0,-0.2 c 0,-3.4 -2.1,-10.8 -4.8,-20 -0.7,-2.4 -1.3,-4.4 -1.6,-5.4 -1.4,-5.5 -2.2,-9.1 -2.4,-11 -0.1,-0.9 -0.4,-4 -0.7,-7.2 -0.8,-9.1 -1.2,-13.1 -1.5,-14.5 -0.4,-1.7 -1.2,-4.1 -1.7,-5.4 -0.1,-2.6 -0.7,-11.1 -2.1,-18.2 -2,-9.9 -7,-20.6 -7.2,-21 -0.8,-1.6 -2.6,-2.7 -4.5,-2.7 l 0,0 z"
         class="st1"
         inkscape:connector-curvature="0"
         style="fill:#596b6a" /></g><rect
       id="rect4215"
       height="45.5"
       width="2.5"
       class="st1"
       y="159.5"
       x="30.9"
       style="fill:#596b6a" /><rect
       id="rect4217"
       height="45.5"
       width="2.5"
       class="st1"
       y="159.5"
       x="180.89999"
       style="fill:#596b6a" /></g></svg>