<?xml version="1.0" encoding="UTF-8" standalone="no"?>
<!-- Generator: Adobe Illustrator 21.1.0, SVG Export Plug-In . SVG Version: 6.00 Build 0)  -->

<svg
   xmlns:dc="http://purl.org/dc/elements/1.1/"
   xmlns:cc="http://creativecommons.org/ns#"
   xmlns:rdf="http://www.w3.org/1999/02/22-rdf-syntax-ns#"
   xmlns:svg="http://www.w3.org/2000/svg"
   xmlns="http://www.w3.org/2000/svg"
   xmlns:sodipodi="http://sodipodi.sourceforge.net/DTD/sodipodi-0.dtd"
   xmlns:inkscape="http://www.inkscape.org/namespaces/inkscape"
   version="1.1"
   id="Layer_1"
   x="0px"
   y="0px"
   viewBox="0 0 350 350"
   xml:space="preserve"
   inkscape:version="0.91pre4 r13712"
   sodipodi:docname="baz.svg"
   width="350"
   height="350"><metadata
     id="metadata41"><rdf:RDF><cc:Work
         rdf:about=""><dc:format>image/svg+xml</dc:format><dc:type
           rdf:resource="http://purl.org/dc/dcmitype/StillImage" /><dc:title>Asset 1</dc:title></cc:Work></rdf:RDF></metadata><defs
     id="defs39"><filter
       inkscape:collect="always"
       style="color-interpolation-filters:sRGB"
       id="filter4227"
       x="-0.29562017"
       width="1.5912403"
       y="-0.20199514"
       height="1.4039903"><feGaussianBlur
         inkscape:collect="always"
         stdDeviation="19.627194"
         id="feGaussianBlur4229" /></filter></defs><sodipodi:namedview
     pagecolor="#ffffff"
     bordercolor="#666666"
     borderopacity="1"
     objecttolerance="10"
     gridtolerance="10"
     guidetolerance="10"
     inkscape:pageopacity="0"
     inkscape:pageshadow="2"
     inkscape:window-width="1280"
     inkscape:window-height="961"
     id="namedview37"
     showgrid="false"
     inkscape:zoom="0.80821918"
     inkscape:cx="108"
     inkscape:cy="146"
     inkscape:window-x="494"
     inkscape:window-y="712"
     inkscape:window-maximized="1"
     inkscape:current-layer="Layer_1" /><style
     type="text/css"
     id="style3">
	.st0{fill:#CAE0E0;}
	.st1{fill:#596B6A;}
	.st2{fill:#A8C1C0;}
</style><title
     id="title5">Asset 1</title><g
     transform="translate(68.716422,32)"
     id="g4169"
     style="fill:#000000;fill-opacity:1;filter:url(#filter4227);opacity:0.5"><g
       id="g4171"
       style="fill:#000000;fill-opacity:1"><path
         style="fill:#000000;fill-opacity:1"
         inkscape:connector-curvature="0"
         id="path4173"
         d="m 147.5,257.2 c -0.2,0 -0.5,0 -0.7,-0.1 L 125,250.4 c -0.7,-0.2 -1.3,-0.7 -1.6,-1.4 l -4.2,-10.3 -10.6,0 c -0.9,0 -1.7,-0.5 -2.2,-1.3 -0.4,0.8 -1.3,1.3 -2.2,1.3 l -10.6,0 -4.3,10.3 c -0.3,0.7 -0.9,1.2 -1.6,1.4 l -21.8,6.7 c -0.2,0.1 -0.5,0.1 -0.7,0.1 -0.8,0 -1.5,-0.4 -2,-1 0,0 -5,-6.8 -6.3,-8.7 -2.1,-2.8 -1.4,-6.6 0.4,-8.8 1.2,-1.5 16.1,-18.8 17.7,-20.8 0.5,-0.6 1.2,-0.9 1.9,-0.9 0.3,0 0.6,0.1 0.9,0.2 0.3,0.1 0.6,0.3 0.8,0.5 l 1.6,-1.6 -1.5,-9.1 -16.8,0 -20.3,5.9 c -0.2,0.1 -0.5,0.1 -0.7,0.1 -0.8,0 -1.6,-0.4 -2.1,-1.2 -0.3,-0.5 -7.4,-11.6 -8.6,-13.8 -1.7,-3.2 -1.1,-6.3 1.9,-9.6 2.2,-2.3 40.5,-42.3 46.3,-48.5 l 0,-6.2 c 0,-12 5.4,-21 7.1,-23.6 0,-2 -0.1,-6.9 -0.1,-9.7 0,-3.9 1.1,-6.5 1.2,-6.8 0.4,-0.9 1.3,-1.5 2.3,-1.5 l 6.3,0 0,-18.2 c 0,-25.3 8.6,-42.9 8.9,-43.6 0.4,-0.9 1.3,-1.4 2.2,-1.4 0.9,0 1.8,0.5 2.2,1.4 0.4,0.7 8.9,18.3 8.9,43.6 l 0,18.3 6.3,0 c 1,0 1.9,0.6 2.3,1.5 0.1,0.3 1.2,2.9 1.2,6.8 0,2.8 -0.1,7.8 -0.1,9.7 1.7,2.6 7.1,11.6 7.1,23.6 l 0,6.2 c 5.9,6.1 44.1,46.1 46.3,48.5 3,3.2 3.6,6.3 1.9,9.6 -1.2,2.2 -8.3,13.4 -8.6,13.8 -0.5,0.7 -1.3,1.2 -2.1,1.2 -0.2,0 -0.5,0 -0.7,-0.1 l -20.3,-5.9 -16.7,0 -1.5,9.1 1.6,1.6 c 0.2,-0.2 0.5,-0.4 0.8,-0.5 0.3,-0.1 0.6,-0.2 0.9,-0.2 0.7,0 1.4,0.3 1.9,0.9 1.7,2 16.6,19.3 17.7,20.8 1.7,2.2 2.4,6 0.4,8.8 -1.3,1.8 -6.3,8.7 -6.3,8.7 -0.5,0.5 -1.2,0.9 -2,0.9 z"
         class="st0" /><g
         id="g4175"
         style="fill:#000000;fill-opacity:1"><path
           style="fill:#000000;fill-opacity:1"
           inkscape:connector-curvature="0"
           id="path4177"
           d="m 106.3,31.4 c 0,0 8.7,17.5 8.7,42.5 0,15.3 0,20.8 0,20.8 l 8.8,0 c 0,0 1,2.3 1,5.8 0,3.5 -0.2,10.5 -0.2,10.5 0,0 7.2,9.5 7.2,22.8 0,4.5 0,7.2 0,7.2 0,0 44.7,46.7 47,49.2 2.3,2.5 2.7,4.5 1.5,6.7 -1.2,2.2 -8.5,13.7 -8.5,13.7 l -20.7,-6 -19.1,0 -2.1,12.4 5.9,5.9 0,-3.3 c 0,0 16.5,19.2 17.7,20.7 1.2,1.5 1.7,4 0.3,5.8 -1.4,1.8 -6.3,8.7 -6.3,8.7 l -21.8,-6.7 -5.5,-13.3 -0.8,1.5 -10.8,0 -0.6,-1.3 -1.7,-0.3 -1.7,0.3 -0.5,1.2 -10.8,0 -0.8,-1.5 -5.5,13.3 -21.8,6.7 c 0,0 -5,-6.8 -6.3,-8.7 -1.3,-1.9 -0.8,-4.3 0.3,-5.8 1.2,-1.5 17.7,-20.7 17.7,-20.7 l 0,3.3 5.9,-5.9 -2.1,-12.4 -19.2,0 -20.7,6 c 0,0 -7.3,-11.5 -8.5,-13.7 -1.2,-2.2 -0.8,-4.2 1.5,-6.7 2.3,-2.5 47,-49.2 47,-49.2 0,0 0,-2.7 0,-7.2 0,-13.3 7.2,-22.8 7.2,-22.8 0,0 -0.2,-7 -0.2,-10.5 0,-3.5 1,-5.8 1,-5.8 l 8.8,0 c 0,0 0,-5.5 0,-20.8 0.1,-24.9 8.7,-42.4 8.7,-42.4 m 0,-5 c -1.9,0 -3.6,1.1 -4.5,2.8 -0.4,0.8 -9.2,18.8 -9.2,44.7 l 0,15.8 -3.8,0 c -2,0 -3.8,1.2 -4.6,3 -0.1,0.3 -1.4,3.4 -1.4,7.8 0,2.5 0.1,6.7 0.1,9 -2.2,3.5 -7.1,12.6 -7.1,24.3 l 0,5.2 c -7.7,8 -43.5,45.5 -45.7,47.8 -4.7,5 -3.8,9.5 -2.2,12.4 1.2,2.3 7.9,12.8 8.7,14 0.9,1.5 2.5,2.3 4.2,2.3 0.5,0 0.9,-0.1 1.4,-0.2 l 20,-5.8 14.2,0 0.8,5 c -0.1,0 -0.3,0 -0.4,0 -1.4,0 -2.8,0.6 -3.8,1.7 -2.8,3.2 -16.6,19.3 -17.8,20.9 -2.8,3.5 -2.9,8.4 -0.4,11.8 1.3,1.8 6.3,8.7 6.3,8.7 1,1.3 2.5,2 4,2 0.5,0 1,-0.1 1.5,-0.2 l 21.8,-6.7 c 1.4,-0.4 2.6,-1.5 3.2,-2.9 l 3.6,-8.7 8.9,0 c 0.8,0 1.5,-0.2 2.2,-0.5 0.7,0.3 1.4,0.5 2.2,0.5 l 8.9,0 3.6,8.7 c 0.6,1.4 1.7,2.4 3.2,2.9 l 21.8,6.7 c 0.5,0.1 1,0.2 1.5,0.2 1.6,0 3.1,-0.7 4,-2 0,0 5,-6.8 6.3,-8.7 2.5,-3.4 2.3,-8.3 -0.4,-11.8 -1.2,-1.5 -15.1,-17.6 -17.8,-20.9 -1,-1.1 -2.4,-1.7 -3.8,-1.7 -0.1,0 -0.3,0 -0.4,0 l 0.8,-5 14.2,0 20,5.8 c 0.5,0.1 0.9,0.2 1.4,0.2 1.7,0 3.3,-0.8 4.2,-2.3 0.8,-1.2 7.5,-11.7 8.7,-14 1.6,-2.9 2.4,-7.4 -2.2,-12.4 -2.1,-2.3 -38,-39.7 -45.7,-47.8 l 0,-5.2 c 0,-11.8 -4.9,-20.8 -7.1,-24.3 0,-2.3 0.1,-6.5 0.1,-9 0,-4.4 -1.3,-7.5 -1.4,-7.8 -0.8,-1.8 -2.6,-3 -4.6,-3 l -3.8,0 0,-15.8 c 0,-25.9 -8.8,-44 -9.2,-44.7 -0.8,-1.8 -2.6,-2.8 -4.5,-2.8 l 0,0 z"
           class="st1" /></g></g><path
       style="fill:#000000;fill-opacity:1"
       inkscape:connector-curvature="0"
       id="path4179"
       d="m 131.8,133.9 c 0,-9.5 -3.6,-17 -5.7,-20.6 -5,6.9 -12.3,15.9 -16.1,16.7 -3.9,0.8 -17.4,-0.7 -28.9,-0.9 -0.2,1.5 -0.3,3.1 -0.3,4.8 0,4.5 0,7.2 0,7.2 0,0 -44.7,46.7 -47,49.2 -2.3,2.5 -2.7,4.5 -1.5,6.7 1.2,2.2 8.5,13.7 8.5,13.7 L 52,207.4 c 1.7,-3.8 4.4,-8 8.6,-11.2 9.7,-7.3 22.7,-1 32.3,-1 9.7,0 30.7,-13 44,-25.3 3.6,-3.4 6.8,-8.1 9.5,-13.3 -8.2,-8.5 -14.7,-15.3 -14.7,-15.3 0,0 0.1,-2.9 0.1,-7.4 z"
       class="st0" /><path
       style="fill:#000000;fill-opacity:1"
       inkscape:connector-curvature="0"
       id="path4181"
       d="m 180.3,196.9 c 1.2,-2.2 0.8,-4.2 -1.5,-6.7 -0.8,-0.8 -6.4,-6.7 -13.4,-14.1 -1.3,0.9 -2.5,2 -3.4,3.3 -5.7,7.7 -6.7,18.7 -6.3,21.7 0.1,1 0.5,2.9 0.9,5.1 l 15.2,4.4 c 0,-0.1 7.4,-11.6 8.5,-13.7 z"
       class="st0" /><path
       style="fill:#000000;fill-opacity:1"
       inkscape:connector-curvature="0"
       id="path4183"
       d="m 108.5,236.2 10.8,0 0.8,-1.5 5.5,13.3 21.8,6.7 c 0,0 5,-6.8 6.3,-8.7 1.3,-1.9 0.8,-4.3 -0.3,-5.8 -1.2,-1.5 -17.7,-20.7 -17.7,-20.7 l 0,3.3 -5.9,-5.9 0.7,-4.1 c -4.2,-0.5 -9.5,-0.7 -13.3,0.5 -7.3,2.3 -14,12 -22,13.7 -7.1,1.5 -15.8,3.2 -28.4,4.1 -3.7,4.4 -7.2,8.4 -7.7,9.1 -1.2,1.5 -1.7,4 -0.3,5.8 1.4,1.8 6.3,8.7 6.3,8.7 L 87,248 l 5.5,-13.3 0.8,1.5 10.8,0 0.5,-1.2 1.7,-0.3 1.7,0.3 0.5,1.2 z"
       class="st0" /><polygon
       style="fill:#000000;fill-opacity:1"
       id="polygon4185"
       points="93.3,236.2 92.5,234.7 91.6,226.3 105.3,226.3 104.7,235 104.2,236.2 "
       class="st1" /><polygon
       style="fill:#000000;fill-opacity:1"
       id="polygon4187"
       points="119.4,236.2 120.2,234.7 121.1,226.3 107.4,226.3 108,235 108.5,236.2 "
       class="st1" /><g
       id="g4189"
       style="fill:#000000;fill-opacity:1"><path
         style="fill:#000000;fill-opacity:1"
         inkscape:connector-curvature="0"
         id="path4191"
         d="m 111.3,82.5 c 0,-1.6 0,-2.9 0,-3.8 0,-4.2 -2.3,-6.5 -5,-6.5 -2.7,0 -5,2.3 -5,6.5 0,1 0,2.3 0,3.8 l 10,0 z"
         class="st1" /><path
         style="fill:#000000;fill-opacity:1"
         inkscape:connector-curvature="0"
         id="path4193"
         d="m 101.3,100.9 c 0,1.4 0,2.9 0,4.3 0,11.5 5,11.5 5,11.5 0,0 5,0 5,-11.5 0,-1.5 0,-2.9 0,-4.3 l -10,0 z"
         class="st1" /><path
         style="fill:#000000;fill-opacity:1"
         inkscape:connector-curvature="0"
         id="path4195"
         d="m 111.3,99.9 c 0,-6.3 0,-12.1 0,-16.3 l -10,0 c 0,4.2 0,10 0,16.3 l 10,0 z"
         class="st1" /></g><path
       style="fill:#000000;fill-opacity:1"
       inkscape:connector-curvature="0"
       id="path4197"
       d="m 114.3,61 c -2.1,-17.9 -7.9,-29.7 -7.9,-29.7 0,0 -5.8,11.7 -7.9,29.7 l 15.8,0 z"
       class="st2" /></g><g
     id="g7"
     transform="translate(68.716422,32)"><g
       id="g9"><path
         class="st0"
         d="m 147.5,257.2 c -0.2,0 -0.5,0 -0.7,-0.1 L 125,250.4 c -0.7,-0.2 -1.3,-0.7 -1.6,-1.4 l -4.2,-10.3 -10.6,0 c -0.9,0 -1.7,-0.5 -2.2,-1.3 -0.4,0.8 -1.3,1.3 -2.2,1.3 l -10.6,0 -4.3,10.3 c -0.3,0.7 -0.9,1.2 -1.6,1.4 l -21.8,6.7 c -0.2,0.1 -0.5,0.1 -0.7,0.1 -0.8,0 -1.5,-0.4 -2,-1 0,0 -5,-6.8 -6.3,-8.7 -2.1,-2.8 -1.4,-6.6 0.4,-8.8 1.2,-1.5 16.1,-18.8 17.7,-20.8 0.5,-0.6 1.2,-0.9 1.9,-0.9 0.3,0 0.6,0.1 0.9,0.2 0.3,0.1 0.6,0.3 0.8,0.5 l 1.6,-1.6 -1.5,-9.1 -16.8,0 -20.3,5.9 c -0.2,0.1 -0.5,0.1 -0.7,0.1 -0.8,0 -1.6,-0.4 -2.1,-1.2 -0.3,-0.5 -7.4,-11.6 -8.6,-13.8 -1.7,-3.2 -1.1,-6.3 1.9,-9.6 2.2,-2.3 40.5,-42.3 46.3,-48.5 l 0,-6.2 c 0,-12 5.4,-21 7.1,-23.6 0,-2 -0.1,-6.9 -0.1,-9.7 0,-3.9 1.1,-6.5 1.2,-6.8 0.4,-0.9 1.3,-1.5 2.3,-1.5 l 6.3,0 0,-18.2 c 0,-25.3 8.6,-42.9 8.9,-43.6 0.4,-0.9 1.3,-1.4 2.2,-1.4 0.9,0 1.8,0.5 2.2,1.4 0.4,0.7 8.9,18.3 8.9,43.6 l 0,18.3 6.3,0 c 1,0 1.9,0.6 2.3,1.5 0.1,0.3 1.2,2.9 1.2,6.8 0,2.8 -0.1,7.8 -0.1,9.7 1.7,2.6 7.1,11.6 7.1,23.6 l 0,6.2 c 5.9,6.1 44.1,46.1 46.3,48.5 3,3.2 3.6,6.3 1.9,9.6 -1.2,2.2 -8.3,13.4 -8.6,13.8 -0.5,0.7 -1.3,1.2 -2.1,1.2 -0.2,0 -0.5,0 -0.7,-0.1 l -20.3,-5.9 -16.7,0 -1.5,9.1 1.6,1.6 c 0.2,-0.2 0.5,-0.4 0.8,-0.5 0.3,-0.1 0.6,-0.2 0.9,-0.2 0.7,0 1.4,0.3 1.9,0.9 1.7,2 16.6,19.3 17.7,20.8 1.7,2.2 2.4,6 0.4,8.8 -1.3,1.8 -6.3,8.7 -6.3,8.7 -0.5,0.5 -1.2,0.9 -2,0.9 z"
         id="path11"
         inkscape:connector-curvature="0"
         style="fill:#cae0e0" /><g
         id="g13"><path
           class="st1"
           d="m 106.3,31.4 c 0,0 8.7,17.5 8.7,42.5 0,15.3 0,20.8 0,20.8 l 8.8,0 c 0,0 1,2.3 1,5.8 0,3.5 -0.2,10.5 -0.2,10.5 0,0 7.2,9.5 7.2,22.8 0,4.5 0,7.2 0,7.2 0,0 44.7,46.7 47,49.2 2.3,2.5 2.7,4.5 1.5,6.7 -1.2,2.2 -8.5,13.7 -8.5,13.7 l -20.7,-6 -19.1,0 -2.1,12.4 5.9,5.9 0,-3.3 c 0,0 16.5,19.2 17.7,20.7 1.2,1.5 1.7,4 0.3,5.8 -1.4,1.8 -6.3,8.7 -6.3,8.7 l -21.8,-6.7 -5.5,-13.3 -0.8,1.5 -10.8,0 -0.6,-1.3 -1.7,-0.3 -1.7,0.3 -0.5,1.2 -10.8,0 -0.8,-1.5 -5.5,13.3 -21.8,6.7 c 0,0 -5,-6.8 -6.3,-8.7 -1.3,-1.9 -0.8,-4.3 0.3,-5.8 1.2,-1.5 17.7,-20.7 17.7,-20.7 l 0,3.3 5.9,-5.9 -2.1,-12.4 -19.2,0 -20.7,6 c 0,0 -7.3,-11.5 -8.5,-13.7 -1.2,-2.2 -0.8,-4.2 1.5,-6.7 2.3,-2.5 47,-49.2 47,-49.2 0,0 0,-2.7 0,-7.2 0,-13.3 7.2,-22.8 7.2,-22.8 0,0 -0.2,-7 -0.2,-10.5 0,-3.5 1,-5.8 1,-5.8 l 8.8,0 c 0,0 0,-5.5 0,-20.8 0.1,-24.9 8.7,-42.4 8.7,-42.4 m 0,-5 c -1.9,0 -3.6,1.1 -4.5,2.8 -0.4,0.8 -9.2,18.8 -9.2,44.7 l 0,15.8 -3.8,0 c -2,0 -3.8,1.2 -4.6,3 -0.1,0.3 -1.4,3.4 -1.4,7.8 0,2.5 0.1,6.7 0.1,9 -2.2,3.5 -7.1,12.6 -7.1,24.3 l 0,5.2 c -7.7,8 -43.5,45.5 -45.7,47.8 -4.7,5 -3.8,9.5 -2.2,12.4 1.2,2.3 7.9,12.8 8.7,14 0.9,1.5 2.5,2.3 4.2,2.3 0.5,0 0.9,-0.1 1.4,-0.2 l 20,-5.8 14.2,0 0.8,5 c -0.1,0 -0.3,0 -0.4,0 -1.4,0 -2.8,0.6 -3.8,1.7 -2.8,3.2 -16.6,19.3 -17.8,20.9 -2.8,3.5 -2.9,8.4 -0.4,11.8 1.3,1.8 6.3,8.7 6.3,8.7 1,1.3 2.5,2 4,2 0.5,0 1,-0.1 1.5,-0.2 l 21.8,-6.7 c 1.4,-0.4 2.6,-1.5 3.2,-2.9 l 3.6,-8.7 8.9,0 c 0.8,0 1.5,-0.2 2.2,-0.5 0.7,0.3 1.4,0.5 2.2,0.5 l 8.9,0 3.6,8.7 c 0.6,1.4 1.7,2.4 3.2,2.9 l 21.8,6.7 c 0.5,0.1 1,0.2 1.5,0.2 1.6,0 3.1,-0.7 4,-2 0,0 5,-6.8 6.3,-8.7 2.5,-3.4 2.3,-8.3 -0.4,-11.8 -1.2,-1.5 -15.1,-17.6 -17.8,-20.9 -1,-1.1 -2.4,-1.7 -3.8,-1.7 -0.1,0 -0.3,0 -0.4,0 l 0.8,-5 14.2,0 20,5.8 c 0.5,0.1 0.9,0.2 1.4,0.2 1.7,0 3.3,-0.8 4.2,-2.3 0.8,-1.2 7.5,-11.7 8.7,-14 1.6,-2.9 2.4,-7.4 -2.2,-12.4 -2.1,-2.3 -38,-39.7 -45.7,-47.8 l 0,-5.2 c 0,-11.8 -4.9,-20.8 -7.1,-24.3 0,-2.3 0.1,-6.5 0.1,-9 0,-4.4 -1.3,-7.5 -1.4,-7.8 -0.8,-1.8 -2.6,-3 -4.6,-3 l -3.8,0 0,-15.8 c 0,-25.9 -8.8,-44 -9.2,-44.7 -0.8,-1.8 -2.6,-2.8 -4.5,-2.8 l 0,0 z"
           id="path15"
           inkscape:connector-curvature="0"
           style="fill:#596b6a" /></g></g><path
       class="st0"
       d="m 131.8,133.9 c 0,-9.5 -3.6,-17 -5.7,-20.6 -5,6.9 -12.3,15.9 -16.1,16.7 -3.9,0.8 -17.4,-0.7 -28.9,-0.9 -0.2,1.5 -0.3,3.1 -0.3,4.8 0,4.5 0,7.2 0,7.2 0,0 -44.7,46.7 -47,49.2 -2.3,2.5 -2.7,4.5 -1.5,6.7 1.2,2.2 8.5,13.7 8.5,13.7 L 52,207.4 c 1.7,-3.8 4.4,-8 8.6,-11.2 9.7,-7.3 22.7,-1 32.3,-1 9.7,0 30.7,-13 44,-25.3 3.6,-3.4 6.8,-8.1 9.5,-13.3 -8.2,-8.5 -14.7,-15.3 -14.7,-15.3 0,0 0.1,-2.9 0.1,-7.4 z"
       id="path17"
       inkscape:connector-curvature="0"
       style="fill:#cae0e0" /><path
       class="st0"
       d="m 180.3,196.9 c 1.2,-2.2 0.8,-4.2 -1.5,-6.7 -0.8,-0.8 -6.4,-6.7 -13.4,-14.1 -1.3,0.9 -2.5,2 -3.4,3.3 -5.7,7.7 -6.7,18.7 -6.3,21.7 0.1,1 0.5,2.9 0.9,5.1 l 15.2,4.4 c 0,-0.1 7.4,-11.6 8.5,-13.7 z"
       id="path19"
       inkscape:connector-curvature="0"
       style="fill:#cae0e0" /><path
       class="st0"
       d="m 108.5,236.2 10.8,0 0.8,-1.5 5.5,13.3 21.8,6.7 c 0,0 5,-6.8 6.3,-8.7 1.3,-1.9 0.8,-4.3 -0.3,-5.8 -1.2,-1.5 -17.7,-20.7 -17.7,-20.7 l 0,3.3 -5.9,-5.9 0.7,-4.1 c -4.2,-0.5 -9.5,-0.7 -13.3,0.5 -7.3,2.3 -14,12 -22,13.7 -7.1,1.5 -15.8,3.2 -28.4,4.1 -3.7,4.4 -7.2,8.4 -7.7,9.1 -1.2,1.5 -1.7,4 -0.3,5.8 1.4,1.8 6.3,8.7 6.3,8.7 L 87,248 l 5.5,-13.3 0.8,1.5 10.8,0 0.5,-1.2 1.7,-0.3 1.7,0.3 0.5,1.2 z"
       id="path21"
       inkscape:connector-curvature="0"
       style="fill:#cae0e0" /><polygon
       class="st1"
       points="93.3,236.2 92.5,234.7 91.6,226.3 105.3,226.3 104.7,235 104.2,236.2 "
       id="polygon23"
       style="fill:#596b6a" /><polygon
       class="st1"
       points="119.4,236.2 120.2,234.7 121.1,226.3 107.4,226.3 108,235 108.5,236.2 "
       id="polygon25"
       style="fill:#596b6a" /><g
       id="g27"><path
         class="st1"
         d="m 111.3,82.5 c 0,-1.6 0,-2.9 0,-3.8 0,-4.2 -2.3,-6.5 -5,-6.5 -2.7,0 -5,2.3 -5,6.5 0,1 0,2.3 0,3.8 l 10,0 z"
         id="path29"
         inkscape:connector-curvature="0"
         style="fill:#596b6a" /><path
         class="st1"
         d="m 101.3,100.9 c 0,1.4 0,2.9 0,4.3 0,11.5 5,11.5 5,11.5 0,0 5,0 5,-11.5 0,-1.5 0,-2.9 0,-4.3 l -10,0 z"
         id="path31"
         inkscape:connector-curvature="0"
         style="fill:#596b6a" /><path
         class="st1"
         d="m 111.3,99.9 c 0,-6.3 0,-12.1 0,-16.3 l -10,0 c 0,4.2 0,10 0,16.3 l 10,0 z"
         id="path33"
         inkscape:connector-curvature="0"
         style="fill:#596b6a" /></g><path
       class="st2"
       d="m 114.3,61 c -2.1,-17.9 -7.9,-29.7 -7.9,-29.7 0,0 -5.8,11.7 -7.9,29.7 l 15.8,0 z"
       id="path35"
       inkscape:connector-curvature="0"
       style="fill:#a8c1c0" /></g></svg>