<?xml version="1.0" encoding="utf-8"?>
<!-- Generator: Adobe Illustrator 21.1.0, SVG Export Plug-In . SVG Version: 6.00 Build 0)  -->
<svg version="1.1" id="Layer_1" xmlns="http://www.w3.org/2000/svg" xmlns:xlink="http://www.w3.org/1999/xlink" x="0px" y="0px"
	 viewBox="0 0 216 292" style="enable-background:new 0 0 216 292;" xml:space="preserve">
<style type="text/css">
	.st0{fill:#CAE0E0;}
	.st1{fill:#596B6A;}
	.st2{fill:#A8C1C0;}
</style>
<title>Asset 1</title>
<g>
	<g>
		<path class="st0" d="M147.5,257.2c-0.2,0-0.5,0-0.7-0.1l-21.8-6.7c-0.7-0.2-1.3-0.7-1.6-1.4l-4.2-10.3h-10.6
			c-0.9,0-1.7-0.5-2.2-1.3c-0.4,0.8-1.3,1.3-2.2,1.3H93.6L89.3,249c-0.3,0.7-0.9,1.2-1.6,1.4l-21.8,6.7c-0.2,0.1-0.5,0.1-0.7,0.1
			c-0.8,0-1.5-0.4-2-1c0,0-5-6.8-6.3-8.7c-2.1-2.8-1.4-6.6,0.4-8.8c1.2-1.5,16.1-18.8,17.7-20.8c0.5-0.6,1.2-0.9,1.9-0.9
			c0.3,0,0.6,0.1,0.9,0.2c0.3,0.1,0.6,0.3,0.8,0.5l1.6-1.6l-1.5-9.1H61.9l-20.3,5.9c-0.2,0.1-0.5,0.1-0.7,0.1
			c-0.8,0-1.6-0.4-2.1-1.2c-0.3-0.5-7.4-11.6-8.6-13.8c-1.7-3.2-1.1-6.3,1.9-9.6c2.2-2.3,40.5-42.3,46.3-48.5v-6.2
			c0-12,5.4-21,7.1-23.6c0-2-0.1-6.9-0.1-9.7c0-3.9,1.1-6.5,1.2-6.8c0.4-0.9,1.3-1.5,2.3-1.5h6.3V73.9c0-25.3,8.6-42.9,8.9-43.6
			c0.4-0.9,1.3-1.4,2.2-1.4s1.8,0.5,2.2,1.4c0.4,0.7,8.9,18.3,8.9,43.6v18.3h6.3c1,0,1.9,0.6,2.3,1.5c0.1,0.3,1.2,2.9,1.2,6.8
			c0,2.8-0.1,7.8-0.1,9.7c1.7,2.6,7.1,11.6,7.1,23.6v6.2c5.9,6.1,44.1,46.1,46.3,48.5c3,3.2,3.6,6.3,1.9,9.6
			c-1.2,2.2-8.3,13.4-8.6,13.8c-0.5,0.7-1.3,1.2-2.1,1.2c-0.2,0-0.5,0-0.7-0.1l-20.3-5.9h-16.7l-1.5,9.1l1.6,1.6
			c0.2-0.2,0.5-0.4,0.8-0.5c0.3-0.1,0.6-0.2,0.9-0.2c0.7,0,1.4,0.3,1.9,0.9c1.7,2,16.6,19.3,17.7,20.8c1.7,2.2,2.4,6,0.4,8.8
			c-1.3,1.8-6.3,8.7-6.3,8.7C149,256.8,148.3,257.2,147.5,257.2z"/>
		<g>
			<path class="st1" d="M106.3,31.4c0,0,8.7,17.5,8.7,42.5c0,15.3,0,20.8,0,20.8h8.8c0,0,1,2.3,1,5.8s-0.2,10.5-0.2,10.5
				s7.2,9.5,7.2,22.8c0,4.5,0,7.2,0,7.2s44.7,46.7,47,49.2s2.7,4.5,1.5,6.7c-1.2,2.2-8.5,13.7-8.5,13.7l-20.7-6H132l-2.1,12.4
				l5.9,5.9v-3.3c0,0,16.5,19.2,17.7,20.7c1.2,1.5,1.7,4,0.3,5.8s-6.3,8.7-6.3,8.7l-21.8-6.7l-5.5-13.3l-0.8,1.5h-10.8L108,235
				l-1.7-0.3l-1.7,0.3l-0.5,1.2H93.3l-0.8-1.5L87,248l-21.8,6.7c0,0-5-6.8-6.3-8.7s-0.8-4.3,0.3-5.8c1.2-1.5,17.7-20.7,17.7-20.7
				v3.3l5.9-5.9l-2.1-12.4H61.5l-20.7,6c0,0-7.3-11.5-8.5-13.7c-1.2-2.2-0.8-4.2,1.5-6.7s47-49.2,47-49.2s0-2.7,0-7.2
				c0-13.3,7.2-22.8,7.2-22.8s-0.2-7-0.2-10.5s1-5.8,1-5.8h8.8c0,0,0-5.5,0-20.8C97.7,48.9,106.3,31.4,106.3,31.4 M106.3,26.4
				c-1.9,0-3.6,1.1-4.5,2.8c-0.4,0.8-9.2,18.8-9.2,44.7v15.8h-3.8c-2,0-3.8,1.2-4.6,3c-0.1,0.3-1.4,3.4-1.4,7.8c0,2.5,0.1,6.7,0.1,9
				c-2.2,3.5-7.1,12.6-7.1,24.3v5.2c-7.7,8-43.5,45.5-45.7,47.8c-4.7,5-3.8,9.5-2.2,12.4c1.2,2.3,7.9,12.8,8.7,14
				c0.9,1.5,2.5,2.3,4.2,2.3c0.5,0,0.9-0.1,1.4-0.2l20-5.8h14.2l0.8,5c-0.1,0-0.3,0-0.4,0c-1.4,0-2.8,0.6-3.8,1.7
				c-2.8,3.2-16.6,19.3-17.8,20.9c-2.8,3.5-2.9,8.4-0.4,11.8c1.3,1.8,6.3,8.7,6.3,8.7c1,1.3,2.5,2,4,2c0.5,0,1-0.1,1.5-0.2l21.8-6.7
				c1.4-0.4,2.6-1.5,3.2-2.9l3.6-8.7h8.9c0.8,0,1.5-0.2,2.2-0.5c0.7,0.3,1.4,0.5,2.2,0.5h8.9l3.6,8.7c0.6,1.4,1.7,2.4,3.2,2.9
				l21.8,6.7c0.5,0.1,1,0.2,1.5,0.2c1.6,0,3.1-0.7,4-2c0,0,5-6.8,6.3-8.7c2.5-3.4,2.3-8.3-0.4-11.8c-1.2-1.5-15.1-17.6-17.8-20.9
				c-1-1.1-2.4-1.7-3.8-1.7c-0.1,0-0.3,0-0.4,0l0.8-5h14.2l20,5.8c0.5,0.1,0.9,0.2,1.4,0.2c1.7,0,3.3-0.8,4.2-2.3
				c0.8-1.2,7.5-11.7,8.7-14c1.6-2.9,2.4-7.4-2.2-12.4c-2.1-2.3-38-39.7-45.7-47.8v-5.2c0-11.8-4.9-20.8-7.1-24.3
				c0-2.3,0.1-6.5,0.1-9c0-4.4-1.3-7.5-1.4-7.8c-0.8-1.8-2.6-3-4.6-3H120V73.9c0-25.9-8.8-44-9.2-44.7
				C110,27.4,108.2,26.4,106.3,26.4L106.3,26.4z"/>
		</g>
	</g>
	<path class="st0" d="M131.8,133.9c0-9.5-3.6-17-5.7-20.6c-5,6.9-12.3,15.9-16.1,16.7c-3.9,0.8-17.4-0.7-28.9-0.9
		c-0.2,1.5-0.3,3.1-0.3,4.8c0,4.5,0,7.2,0,7.2s-44.7,46.7-47,49.2s-2.7,4.5-1.5,6.7c1.2,2.2,8.5,13.7,8.5,13.7l11.2-3.3
		c1.7-3.8,4.4-8,8.6-11.2c9.7-7.3,22.7-1,32.3-1c9.7,0,30.7-13,44-25.3c3.6-3.4,6.8-8.1,9.5-13.3c-8.2-8.5-14.7-15.3-14.7-15.3
		S131.8,138.4,131.8,133.9z"/>
	<path class="st0" d="M180.3,196.9c1.2-2.2,0.8-4.2-1.5-6.7c-0.8-0.8-6.4-6.7-13.4-14.1c-1.3,0.9-2.5,2-3.4,3.3
		c-5.7,7.7-6.7,18.7-6.3,21.7c0.1,1,0.5,2.9,0.9,5.1l15.2,4.4C171.8,210.5,179.2,199,180.3,196.9z"/>
	<path class="st0" d="M108.5,236.2h10.8l0.8-1.5l5.5,13.3l21.8,6.7c0,0,5-6.8,6.3-8.7s0.8-4.3-0.3-5.8c-1.2-1.5-17.7-20.7-17.7-20.7
		v3.3l-5.9-5.9l0.7-4.1c-4.2-0.5-9.5-0.7-13.3,0.5c-7.3,2.3-14,12-22,13.7c-7.1,1.5-15.8,3.2-28.4,4.1c-3.7,4.4-7.2,8.4-7.7,9.1
		c-1.2,1.5-1.7,4-0.3,5.8s6.3,8.7,6.3,8.7L87,248l5.5-13.3l0.8,1.5h10.8l0.5-1.2l1.7-0.3l1.7,0.3L108.5,236.2z"/>
	<polygon class="st1" points="104.7,235 104.2,236.2 93.3,236.2 92.5,234.7 91.6,226.3 105.3,226.3 	"/>
	<polygon class="st1" points="108,235 108.5,236.2 119.4,236.2 120.2,234.7 121.1,226.3 107.4,226.3 	"/>
	<g>
		<path class="st1" d="M111.3,82.5c0-1.6,0-2.9,0-3.8c0-4.2-2.3-6.5-5-6.5s-5,2.3-5,6.5c0,1,0,2.3,0,3.8H111.3z"/>
		<path class="st1" d="M101.3,100.9c0,1.4,0,2.9,0,4.3c0,11.5,5,11.5,5,11.5s5,0,5-11.5c0-1.5,0-2.9,0-4.3H101.3z"/>
		<path class="st1" d="M111.3,99.9c0-6.3,0-12.1,0-16.3h-10c0,4.2,0,10,0,16.3H111.3z"/>
	</g>
	<path class="st2" d="M114.3,61c-2.1-17.9-7.9-29.7-7.9-29.7s-5.8,11.7-7.9,29.7H114.3z"/>
</g>
</svg>
