<?xml version="1.0" encoding="UTF-8" standalone="no"?>
<!-- Created with Inkscape (http://www.inkscape.org/) -->

<svg width="51" height="51" viewBox="0 0 51 51" fill="none" xmlns="http://www.w3.org/2000/svg">
<g clip-path="url(#clip0_973_94271)">
<mask id="mask0_973_94271" style="mask-type:alpha" maskUnits="userSpaceOnUse" x="9" y="1" width="34" height="49">
<path fill-rule="evenodd" clip-rule="evenodd" d="M9.37775 41.1543C9.29215 41.0687 9.23763 40.9532 9.22884 40.8248C9.19425 40.2532 8.90463 35.1949 9.60698 33.6284C9.68613 33.4531 9.8579 33.3364 10.0496 33.3276C10.1956 33.3212 10.3345 33.3768 10.4342 33.4765C10.467 33.5093 10.4952 33.5469 10.5186 33.5879C10.6476 33.8177 10.7426 34.1003 10.8123 34.3811L22.0869 19.9959C22.3747 18.872 22.8813 18.0993 23.104 17.7991L23.3755 14.3876L20.4424 15.3251C20.2853 15.3755 20.1147 15.3468 19.9828 15.2489C19.9628 15.2336 19.9435 15.2178 19.9259 15.2002C19.8286 15.1029 19.774 14.9698 19.7758 14.8308L19.7934 13.7873C19.8004 13.3382 19.9792 12.9143 20.2958 12.5942L23.9354 8.91482C23.9846 4.72418 25.4819 1.82918 25.5476 1.70607C25.6355 1.5384 25.8097 1.43345 25.999 1.43287C26.1368 1.43345 26.2658 1.48856 26.3602 1.58295C26.3959 1.61871 26.4264 1.65975 26.4505 1.70607C26.5155 1.82977 28.014 4.72359 28.0627 8.91482L31.7034 12.5942C32.02 12.9132 32.1976 13.337 32.2047 13.7873L32.2217 14.8303C32.2246 14.995 32.1478 15.1504 32.0153 15.2489C31.8834 15.3468 31.7122 15.3749 31.5557 15.3251L28.6226 14.3888L28.8934 17.7985C29.1162 18.0987 29.6239 18.8714 29.9118 19.9953L41.1857 34.3811C41.2555 34.1003 41.3505 33.8177 41.4794 33.5879C41.5738 33.4196 41.7544 33.3188 41.9473 33.3276C42.0768 33.3329 42.197 33.3874 42.2861 33.4765C42.3289 33.5193 42.3653 33.5709 42.3905 33.6289C43.094 35.1955 42.8038 40.2532 42.7681 40.8248C42.7522 41.0939 42.5283 41.3038 42.2586 41.3038L41.6272 41.3032C41.4871 41.3038 41.3587 41.2469 41.266 41.1543C41.1781 41.0663 41.1224 40.9462 41.1171 40.8119L41.0995 40.3253L30.2917 40.8418L30.3028 41.6596C30.3046 41.822 30.2301 41.9751 30.1017 42.073L29.5237 42.5115C29.4815 43.1939 29.3367 45.0248 28.9697 45.9031C28.8905 46.0936 28.7041 46.2167 28.4983 46.2173L26.7752 46.2167C26.7711 47.0064 26.7248 48.339 26.4839 49.0748C26.4159 49.2846 26.2195 49.4259 25.9984 49.4265C25.8601 49.4265 25.7311 49.3714 25.6373 49.2776C25.5816 49.2219 25.5388 49.1521 25.5136 49.0742C25.2732 48.339 25.2269 47.0064 25.2222 46.2173L23.5004 46.2167C23.3614 46.2173 23.2324 46.161 23.1386 46.0672C23.0929 46.0215 23.0554 45.9652 23.029 45.9025C22.6614 45.0248 22.5166 43.1927 22.4738 42.5109L21.8969 42.0724C21.8787 42.0589 21.8612 42.0436 21.8447 42.0272C21.748 41.9305 21.6935 41.7986 21.6952 41.6596L21.7064 40.8418L10.8985 40.3253L10.8804 40.8125C10.8698 41.0869 10.6447 41.3038 10.3703 41.3038L9.73889 41.3032C9.59819 41.3032 9.47038 41.2469 9.37775 41.1543Z" fill="#CAE0E0"/>
</mask>
<g mask="url(#mask0_973_94271)">
<rect x="25.9985" y="0.5" width="41.4554" height="41.4554" transform="rotate(45 25.9985 0.5)" fill="#012169"/>
<mask id="mask1_973_94271" style="mask-type:luminance" maskUnits="userSpaceOnUse" x="9" y="25" width="34" height="17">
<path d="M9.58313 25.1233L9.58313 41.5388L42.4141 41.5388L42.4141 25.1233L9.58313 25.1233Z" fill="white"/>
</mask>
<g mask="url(#mask1_973_94271)">
<path d="M9.58313 25.1233L9.58313 41.5388L42.4141 41.5388L42.4141 25.1233L9.58313 25.1233Z" fill="#012169"/>
<path fill-rule="evenodd" clip-rule="evenodd" d="M22.328 33.331L8.849 26.5915L10.3172 23.655L25.9986 31.4957L41.68 23.655L43.1482 26.5915L29.6692 33.331L43.1482 40.0705L41.68 43.007L25.9986 35.1663L10.3172 43.007L8.849 40.0705L22.328 33.331Z" fill="white"/>
<mask id="mask2_973_94271" style="mask-type:luminance" maskUnits="userSpaceOnUse" x="9" y="25" width="34" height="17">
<path d="M25.9985 33.331L42.414 33.331L42.414 41.5388L25.9985 33.331ZM25.9985 33.331L25.9985 41.5388L9.58301 41.5388L25.9985 33.331ZM25.9985 33.331L9.58301 33.331L9.58301 25.1233L25.9985 33.331ZM25.9985 33.331L25.9985 25.1233L42.414 25.1233L25.9985 33.331Z" fill="white"/>
</mask>
<g mask="url(#mask2_973_94271)">
<path fill-rule="evenodd" clip-rule="evenodd" d="M23.5513 33.3311L9.09351 26.1022L10.0723 24.1445L25.9984 32.1076L41.9245 24.1445L42.9033 26.1022L28.4455 33.3311L42.9033 40.56L41.9245 42.5177L25.9984 34.5547L10.0723 42.5177L9.09351 40.56L23.5513 33.3311Z" fill="#C8102E"/>
</g>
<path fill-rule="evenodd" clip-rule="evenodd" d="M23.2627 30.5951L23.2627 25.1233L28.7345 25.1233L28.7345 30.5951L42.4141 30.5951L42.4141 36.0669L28.7345 36.0669L28.7345 41.5388L23.2627 41.5388L23.2627 36.0669L9.58313 36.0669L9.58313 30.5951L23.2627 30.5951Z" fill="white"/>
<path fill-rule="evenodd" clip-rule="evenodd" d="M24.3571 31.6895L24.3571 25.1233L27.6402 25.1233L27.6402 31.6895L42.4141 31.6895L42.4141 34.9726L27.6402 34.9726L27.6402 41.5388L24.3571 41.5388L24.3571 34.9726L9.58313 34.9726L9.58313 31.6895L24.3571 31.6895Z" fill="#C8102E"/>
</g>
</g>
<mask id="mask3_973_94271" style="mask-type:luminance" maskUnits="userSpaceOnUse" x="-3" y="0" width="58" height="59">
<path fill-rule="evenodd" clip-rule="evenodd" d="M25.9985 0.5L54.997 29.4984L25.9984 58.497L-3.00004 29.4986L25.9985 0.5Z" fill="white"/>
</mask>
<g mask="url(#mask3_973_94271)">
<path fill-rule="evenodd" clip-rule="evenodd" d="M26.7206 1.22204C26.5318 1.03327 26.2733 0.92246 25.9989 0.92246C25.6196 0.923047 25.2713 1.13293 25.0949 1.46886C25.0292 1.59432 23.5248 4.49987 23.4281 8.70165L19.9316 12.2357C19.5218 12.649 19.2914 13.1972 19.2826 13.7793L19.2656 14.8223C19.2615 15.1008 19.3705 15.3669 19.5646 15.561C19.5998 15.5962 19.6373 15.629 19.6777 15.6589C19.9421 15.8553 20.2839 15.9122 20.5976 15.8119L22.8049 15.1066L22.6062 17.6153C22.3394 17.9969 21.8985 18.7356 21.6195 19.7639L10.9705 33.3513C10.9681 33.3466 10.9664 33.3425 10.964 33.339C10.9171 33.2557 10.8603 33.1801 10.7952 33.115C10.5959 32.9157 10.318 32.8043 10.0272 32.8172C9.64259 32.8348 9.29904 33.0681 9.14134 33.4193C8.40381 35.0632 8.66001 39.9028 8.71981 40.8561C8.73622 41.1141 8.84644 41.345 9.01646 41.5151C9.20172 41.7003 9.45733 41.8141 9.73815 41.8146L10.3702 41.8135C10.9095 41.8146 11.3539 41.3949 11.3885 40.8596L21.1886 41.3286L21.1845 41.6528C21.1809 41.9307 21.2894 42.1951 21.4834 42.3892C21.5157 42.4214 21.5503 42.4513 21.5878 42.4795L21.9788 42.7767C22.0392 43.6262 22.1969 45.2367 22.5575 46.1003C22.6091 46.2257 22.6853 46.3359 22.7773 46.428C22.9655 46.6162 23.2235 46.7276 23.4996 46.7282L24.7191 46.7282C24.7408 47.539 24.8134 48.5778 25.028 49.2333C25.0796 49.3892 25.1658 49.527 25.2766 49.6378C25.4636 49.8248 25.721 49.9368 25.9989 49.9368C26.4403 49.9374 26.8314 49.6531 26.9697 49.2333C27.1837 48.5773 27.2564 47.5396 27.2781 46.7276L28.4976 46.7276C28.9097 46.727 29.2808 46.4802 29.4403 46.1003C29.8014 45.2373 29.958 43.6256 30.0183 42.7773L30.4094 42.4801C30.6679 42.2837 30.8168 41.9776 30.8133 41.6528L30.808 41.3286L40.6081 40.8596C40.6251 41.1158 40.7353 41.3456 40.9047 41.5151C41.09 41.7003 41.3456 41.8141 41.6276 41.8146L42.259 41.8141C42.7984 41.8141 43.2445 41.3949 43.2774 40.8567C43.3366 39.9028 43.5934 35.0638 42.8564 33.4193C42.8043 33.305 42.7327 33.2018 42.6465 33.1156C42.4689 32.938 42.2291 32.8283 41.9694 32.8172C41.5842 32.8002 41.2219 33.0019 41.0331 33.3396C41.0314 33.3425 41.029 33.3472 41.0267 33.3507L30.3783 19.7639C30.0981 18.7356 29.6578 17.9975 29.391 17.6147L29.1923 15.106L31.4002 15.8119C31.7126 15.9122 32.055 15.8547 32.3189 15.6589C32.5833 15.4637 32.7369 15.1518 32.7316 14.8229L32.7146 13.7787C32.7052 13.1972 32.4748 12.649 32.0656 12.2351L28.5691 8.70106C28.4718 4.49987 26.9686 1.59315 26.9023 1.46828C26.8537 1.37623 26.7921 1.29357 26.7206 1.22204M25.9989 1.9437C25.9989 1.9437 27.5531 4.8979 27.5531 9.12607L31.3398 12.9526C31.562 13.1772 31.6886 13.4797 31.6939 13.7957L31.7109 14.8387L28.0532 13.6702L28.3967 17.991C28.3967 17.991 29.1079 18.8241 29.4415 20.2247L41.5092 35.6224C41.5092 35.6224 41.5813 34.4505 41.9243 33.8378C42.5961 35.3352 42.2584 40.7933 42.2584 40.7933L41.627 40.7927L41.5901 39.7908L29.7739 40.3554L29.792 41.6669L29.0276 42.2473C29.0276 42.2473 28.9062 44.7301 28.4982 45.7068L26.499 45.7068L26.2598 45.6177C26.2598 45.6177 26.3172 47.9405 25.9983 48.9161C25.68 47.9411 25.7368 45.6177 25.7368 45.6177L25.4982 45.7063L23.499 45.7063C23.0916 44.7301 22.9696 42.2479 22.9696 42.2479L22.2057 41.6669L22.2233 40.356L10.4065 39.7908L10.3702 40.7933L9.73875 40.7927C9.73875 40.7927 9.40106 35.3346 10.0723 33.8378C10.4165 34.4505 10.488 35.623 10.488 35.623L22.5552 20.2247C22.8893 18.8235 23.6011 17.991 23.6011 17.991L23.9446 13.6702L20.2863 14.8392L20.3033 13.7951C20.308 13.4797 20.4352 13.1778 20.6574 12.9532L24.4441 9.12665C24.4447 4.8979 25.9989 1.9437 25.9989 1.9437" fill="#596B6A"/>
</g>
</g>
<defs>
<clipPath id="clip0_973_94271">
<rect width="50" height="50" fill="white" transform="translate(0.998535 0.493408)"/>
</clipPath>
</defs>
</svg>
