<?xml version="1.0" encoding="utf-8"?>
<!-- Generator: Adobe Illustrator 21.1.0, SVG Export Plug-In . SVG Version: 6.00 Build 0)  -->
<svg version="1.1" id="Layer_1" xmlns="http://www.w3.org/2000/svg" xmlns:xlink="http://www.w3.org/1999/xlink" x="0px" y="0px"
	 viewBox="0 0 249 263" style="enable-background:new 0 0 249 263;" xml:space="preserve">
<style type="text/css">
	.st0{fill:#F2F2F2;}
	.st1{fill:#455453;}
	.st2{fill:#EA211C;}
	.st3{fill:#75838E;}
</style>
<g>
	<g>
		<path class="st0" d="M123.9,233.5c-0.1,0-0.1,0-0.2,0l-34.3-3.1c-1.3-0.1-2.3-1.2-2.3-2.5v-7.7c0-1.3,0.2-7.7,4.5-9
			c2.3-0.7,17-4.5,21.7-5.8l3-13.1c-0.5-4.2-4.2-34.6-4.2-48.8V139H96.8c-0.1,0-0.2,0-0.3,0l-74.6-10.4c-1.2-0.2-2.1-1.2-2.2-2.5
			l-0.2-18.7c0-0.1,0-0.1,0-0.2c0.2-2.5,1.6-5.1,4.4-5.4c1.9-0.2,67.4-5,70.2-5.2c0.1,0,0.1,0,0.2,0h17.9V83.7
			c0-8.2,0.8-16.4,1.7-22.8c-0.7-0.2-1.2-0.6-1.6-1.2c0,0-1.1-2-2.3-3.5c-0.5-0.6-0.6-1.4-0.4-2.2c0.9-3.3,3.6-5.3,6.5-6.1
			c3.7-18,6.3-18,7.9-18c1.6,0,4.2,0,7.9,18c2.8,0.8,5.6,2.8,6.5,6.1c0.2,0.8,0,1.6-0.4,2.2c-1.2,1.5-2.3,3.5-2.3,3.5
			c-0.3,0.6-0.9,1-1.6,1.2c0.9,6.5,1.7,14.6,1.7,22.8v12.9h17.9c0.1,0,0.1,0,0.2,0c2.8,0.2,68.3,5,70.2,5.2c2.8,0.3,4.2,2.9,4.4,5.4
			c0,0.1,0,0.1,0,0.2l-0.2,18.7c0,1.2-0.9,2.3-2.2,2.5L151.5,139c-0.1,0-0.2,0-0.3,0h-15.4v4.4c0,14.3-3.7,44.6-4.2,48.8l3,13.1
			c4.8,1.3,19.4,5.1,21.7,5.8c4.3,1.2,4.5,7.7,4.5,9v7.7c0,1.3-1,2.4-2.3,2.5l-34.3,3.1C124.1,233.5,124,233.5,123.9,233.5z"/>
		<g>
			<path class="st1" d="M123.9,32.5L123.9,32.5c1.4,0,3.8,7.3,5.8,17.6c2.7,0.3,5.5,1.9,6.2,4.6c-1.3,1.7-2.5,3.9-2.5,3.9
				s-1.1-1.7-2.6-2.5c1.4,8.7,2.4,18.6,2.4,27.7c0,5.2,0,10.4,0,15.4h20.4c0,0,68.2,5,70.2,5.2c1.9,0.2,2.1,3.1,2.1,3.1l-0.2,18.7
				l-74.6,10.4h-17.9c0,2.4,0,4.8,0,6.9c0,15-4.2,49-4.2,49l3.5,15c0,0,20.4,5.4,23.1,6.2c2.7,0.8,2.7,6.6,2.7,6.6v7.7l-34.3,3.1h0
				l-34.3-3.1v-7.7c0,0,0-5.8,2.7-6.6c2.7-0.8,23.1-6.2,23.1-6.2l3.5-15c0,0-4.2-33.9-4.2-49c0-2.2,0-4.5,0-6.9H96.8l-74.6-10.4
				L22,107.4c0,0,0.2-2.9,2.1-3.1c1.9-0.2,70.2-5.2,70.2-5.2h20.4c0-5,0-10.2,0-15.4c0-9.1,1-19.1,2.4-27.7
				c-1.5,0.8-2.6,2.5-2.6,2.5s-1.2-2.1-2.5-3.9c0.7-2.6,3.5-4.3,6.2-4.6C120.2,39.8,122.6,32.5,123.9,32.5L123.9,32.5L123.9,32.5
				 M123.9,27.5c-4.7,0-6.4,5.3-7.4,8.4c-0.9,2.7-1.8,6.2-2.6,10.2c-3.3,1.4-5.9,4-6.7,7.3c-0.4,1.5-0.1,3.1,0.9,4.4
				c1.1,1.4,2.1,3.2,2.1,3.2c0.3,0.5,0.6,1,1.1,1.4c-0.8,6.3-1.5,13.8-1.5,21.5v10.4H94.2c-0.1,0-0.2,0-0.4,0
				c-7,0.5-68.4,5-70.3,5.2c-4.2,0.4-6.4,4.3-6.6,7.7c0,0.1,0,0.3,0,0.4l0.2,18.7c0,2.5,1.9,4.6,4.3,4.9l74.6,10.4
				c0.2,0,0.5,0,0.7,0h12.9v1.9c0,14,3.5,43.1,4.2,48.7l-2.6,11.2c-5.8,1.5-18.2,4.8-20.3,5.4c-2.1,0.6-4.8,2.3-5.9,7.3
				c-0.4,2-0.5,3.9-0.5,4.1v7.7c0,2.6,2,4.7,4.6,5l34.3,3.1c0.1,0,0.3,0,0.4,0c0.1,0,0.3,0,0.4,0l34.3-3.1c2.6-0.2,4.6-2.4,4.6-5
				v-7.7c0-0.2,0-2-0.5-4.1c-1.1-5-3.8-6.7-5.9-7.3c-2.1-0.6-14.5-3.9-20.3-5.4l-2.6-11.2c0.7-5.6,4.2-34.7,4.2-48.7v-1.9h12.9
				c0.2,0,0.5,0,0.7,0l74.6-10.4c2.5-0.3,4.3-2.4,4.3-4.9l0.2-18.7c0-0.1,0-0.3,0-0.4c-0.2-3.4-2.4-7.3-6.6-7.7
				c-1.9-0.2-63.3-4.7-70.3-5.2c-0.1,0-0.2,0-0.4,0h-15.4V83.7c0-7.7-0.7-15.2-1.5-21.5c0.4-0.4,0.8-0.8,1.1-1.4c0,0,1-1.8,2.1-3.2
				c1-1.2,1.3-2.8,0.9-4.4c-0.9-3.3-3.4-6-6.7-7.3c-0.8-4-1.7-7.4-2.6-10.2C130.3,32.7,128.6,27.5,123.9,27.5
				C123.9,27.5,123.9,27.5,123.9,27.5L123.9,27.5z"/>
		</g>
	</g>
	<path class="st2" d="M128,81.8c0,0-0.2-5.3,4.9-7.5c5.1-2.2-8.9-7.7-8.9-7.7L128,81.8z"/>
	<path class="st2" d="M119.8,81.8c0,0,0.2-5.3-4.9-7.5c-5.1-2.2,8.9-7.7,8.9-7.7L119.8,81.8z"/>
	<path class="st2" d="M117.1,56c-0.9,5.8-1.7,12.1-2.1,18.4h17.8c-0.4-6.3-1.2-12.6-2.1-18.4c1.5,0.8,2.6,2.5,2.6,2.5
		s1.2-2.1,2.5-3.9c-0.7-2.6-3.5-4.3-6.2-4.6c-2-10.2-4.4-17.6-5.8-17.6v0h0v0c-1.4,0-3.8,7.3-5.8,17.6c-2.7,0.3-5.5,1.9-6.2,4.6
		c1.3,1.7,2.5,3.9,2.5,3.9S115.6,56.8,117.1,56z"/>
	<rect x="107.3" y="36.2" class="st1" width="33.3" height="1.3"/>
	<path class="st3" d="M118.9,50c-2.9,0-6.2,1.7-6.9,4.6c1.3,1.7,2.5,3.9,2.5,3.9s1.9-2.9,4-2.9C120.3,53.3,118.9,50,118.9,50z"/>
	<path class="st3" d="M128.9,50c2.9,0,6.2,1.7,6.9,4.6c-1.3,1.7-2.5,3.9-2.5,3.9s-1.9-2.9-4-2.9C127.6,53.3,128.9,50,128.9,50z"/>
	<path class="st2" d="M64.2,101.3c-18.6,1.4-39.1,2.9-40.2,3c-1.9,0.2-2.1,3.1-2.1,3.1l0.2,18.7l42.1,5.9V101.3z"/>
	<path class="st2" d="M223.8,104.3c-1-0.1-21.3-1.6-39.8-3v30.6l41.7-5.8l0.2-18.7C225.9,107.4,225.7,104.5,223.8,104.3z"/>
	<path class="st2" d="M103.1,210.7c-4.9,1.3-9.6,2.6-10.8,2.9c-2.7,0.8-2.7,6.6-2.7,6.6v7.7l13.5,1.2V210.7z"/>
	<path class="st2" d="M155.5,213.6c-1.2-0.3-5.7-1.5-10.4-2.8v18.2l13.1-1.2v-7.7C158.2,220.2,158.2,214.4,155.5,213.6z"/>
	<path class="st0" d="M115.4,157.8c0.1,1.6,0.3,3.3,0.4,4.9h16.3c0.1-1.7,0.3-3.3,0.4-4.9H115.4z"/>
	<polygon class="st2" points="120.7,39.3 127.2,39.3 128.2,85.8 119.7,85.8 	"/>
	<g>
		<g>
			<path class="st1" d="M130.9,97.3c-2.1-1.5-4.6-2.2-7.1-2.2c-2.4,0-4.7,0.7-6.8,2l-1.5,1l0-3.9c0-8.1,2.8-12,8.5-12
				c5.7,0,8.5,3.9,8.5,12l0,4.2L130.9,97.3z"/>
			<path class="st0" d="M123.9,83.1c4,0,7.5,2.1,7.5,11c0,0.6,0,1.4,0,2.3c-2.2-1.5-4.8-2.4-7.7-2.4c-2.7,0-5.2,0.8-7.3,2.2
				c0-0.8,0-1.5,0-2.1C116.4,85.3,119.9,83.1,123.9,83.1 M123.9,81.1c-6.3,0-9.5,4.4-9.5,13c0,0.6,0,1.3,0,2.1l0,3.7l3.1-2
				c1.9-1.2,4-1.8,6.2-1.8c2.4,0,4.6,0.7,6.6,2.1l3.1,2.2l0-3.8c0-0.9,0-1.7,0-2.4C133.4,85.5,130.2,81.1,123.9,81.1L123.9,81.1z"/>
		</g>
		<g>
			<path class="st1" d="M131.3,116.8c0.1-7.2,0.1-14.1,0.1-18.7c-2.1-1.7-4.8-2.7-7.7-2.7c-2.7,0-5.3,0.9-7.3,2.4
				c0,4.6,0.1,11.8,0.1,19.2c2,1.3,4.5,2.1,7.2,2.1C126.6,119.1,129.3,118.2,131.3,116.8z"/>
		</g>
		<g>
			<path class="st1" d="M123.7,120.4c-2.7,0-5.1-0.7-7.2-1.8c0.1,13.9,0.2,28.2,0.2,28.2s3.7,1.3,7.1,1.3c3.5,0,7.1-1.3,7.1-1.3
				s0.1-14.4,0.2-28.4C129.2,119.7,126.6,120.4,123.7,120.4z"/>
		</g>
	</g>
	<g>
		<g>
			<path class="st1" d="M123.9,32.5L123.9,32.5c1.4,0,3.8,7.3,5.8,17.6c2.7,0.3,5.5,1.9,6.2,4.6c-1.3,1.7-2.5,3.9-2.5,3.9
				s-1.1-1.7-2.6-2.5c1.4,8.7,2.4,18.6,2.4,27.7c0,5.2,0,10.4,0,15.4h20.4c0,0,68.2,5,70.2,5.2c1.9,0.2,2.1,3.1,2.1,3.1l-0.2,18.7
				l-74.6,10.4h-17.9c0,2.4,0,4.8,0,6.9c0,15-4.2,49-4.2,49l3.5,15c0,0,20.4,5.4,23.1,6.2c2.7,0.8,2.7,6.6,2.7,6.6v7.7l-34.3,3.1h0
				l-34.3-3.1v-7.7c0,0,0-5.8,2.7-6.6c2.7-0.8,23.1-6.2,23.1-6.2l3.5-15c0,0-4.2-33.9-4.2-49c0-2.2,0-4.5,0-6.9H96.8l-74.6-10.4
				L22,107.4c0,0,0.2-2.9,2.1-3.1c1.9-0.2,70.2-5.2,70.2-5.2h20.4c0-5,0-10.2,0-15.4c0-9.1,1-19.1,2.4-27.7
				c-1.5,0.8-2.6,2.5-2.6,2.5s-1.2-2.1-2.5-3.9c0.7-2.6,3.5-4.3,6.2-4.6C120.2,39.8,122.6,32.5,123.9,32.5L123.9,32.5L123.9,32.5
				 M123.9,27.5c-4.7,0-6.4,5.3-7.4,8.4c-0.9,2.7-1.8,6.2-2.6,10.2c-3.3,1.4-5.9,4-6.7,7.3c-0.4,1.5-0.1,3.1,0.9,4.4
				c1.1,1.4,2.1,3.2,2.1,3.2c0.3,0.5,0.6,1,1.1,1.4c-0.8,6.3-1.5,13.8-1.5,21.5v10.4H94.2c-0.1,0-0.2,0-0.4,0
				c-7,0.5-68.4,5-70.3,5.2c-4.2,0.4-6.4,4.3-6.6,7.7c0,0.1,0,0.3,0,0.4l0.2,18.7c0,2.5,1.9,4.6,4.3,4.9l74.6,10.4
				c0.2,0,0.5,0,0.7,0h12.9v1.9c0,14,3.5,43.1,4.2,48.7l-2.6,11.2c-5.8,1.5-18.2,4.8-20.3,5.4c-2.1,0.6-4.8,2.3-5.9,7.3
				c-0.4,2-0.5,3.9-0.5,4.1v7.7c0,2.6,2,4.7,4.6,5l34.3,3.1c0.1,0,0.3,0,0.4,0c0.1,0,0.3,0,0.4,0l34.3-3.1c2.6-0.2,4.6-2.4,4.6-5
				v-7.7c0-0.2,0-2-0.5-4.1c-1.1-5-3.8-6.7-5.9-7.3c-2.1-0.6-14.5-3.9-20.3-5.4l-2.6-11.2c0.7-5.6,4.2-34.7,4.2-48.7v-1.9h12.9
				c0.2,0,0.5,0,0.7,0l74.6-10.4c2.5-0.3,4.3-2.4,4.3-4.9l0.2-18.7c0-0.1,0-0.3,0-0.4c-0.2-3.4-2.4-7.3-6.6-7.7
				c-1.9-0.2-63.3-4.7-70.3-5.2c-0.1,0-0.2,0-0.4,0h-15.4V83.7c0-7.7-0.7-15.2-1.5-21.5c0.4-0.4,0.8-0.8,1.1-1.4c0,0,1-1.8,2.1-3.2
				c1-1.2,1.3-2.8,0.9-4.4c-0.9-3.3-3.4-6-6.7-7.3c-0.8-4-1.7-7.4-2.6-10.2C130.3,32.7,128.6,27.5,123.9,27.5
				C123.9,27.5,123.9,27.5,123.9,27.5L123.9,27.5z"/>
		</g>
	</g>
	<polygon class="st0" points="133.2,99.1 133.2,133.5 144.2,133.5 144.2,99.2 	"/>
	<polygon class="st0" points="103.7,99.1 103.7,133.5 114.7,133.5 114.7,99.2 	"/>
	<path class="st3" d="M127.2,39.3c-1.2-4.3-2.4-6.9-3.2-6.9v0h0v0c-0.8,0-2,2.6-3.2,6.9H127.2z"/>
</g>
</svg>
