<?xml version="1.0" encoding="UTF-8" standalone="no"?>
<!-- Generator: Adobe Illustrator 21.1.0, SVG Export Plug-In . SVG Version: 6.00 Build 0)  -->

<svg
   xmlns:dc="http://purl.org/dc/elements/1.1/"
   xmlns:cc="http://creativecommons.org/ns#"
   xmlns:rdf="http://www.w3.org/1999/02/22-rdf-syntax-ns#"
   xmlns:svg="http://www.w3.org/2000/svg"
   xmlns="http://www.w3.org/2000/svg"
   xmlns:sodipodi="http://sodipodi.sourceforge.net/DTD/sodipodi-0.dtd"
   xmlns:inkscape="http://www.inkscape.org/namespaces/inkscape"
   version="1.1"
   id="Layer_1"
   x="0px"
   y="0px"
   viewBox="0 0 70 70"
   xml:space="preserve"
   inkscape:version="0.91pre4 r13712"
   sodipodi:docname="efroni.svg"
   width="70"
   height="70"><metadata
     id="metadata71"><rdf:RDF><cc:Work
         rdf:about=""><dc:format>image/svg+xml</dc:format><dc:type
           rdf:resource="http://purl.org/dc/dcmitype/StillImage" /><dc:title></dc:title></cc:Work></rdf:RDF></metadata><defs
     id="defs69" /><sodipodi:namedview
     pagecolor="#ffffff"
     bordercolor="#666666"
     borderopacity="1"
     objecttolerance="10"
     gridtolerance="10"
     guidetolerance="10"
     inkscape:pageopacity="0"
     inkscape:pageshadow="2"
     inkscape:window-width="1280"
     inkscape:window-height="961"
     id="namedview67"
     showgrid="false"
     inkscape:zoom="0.8973384"
     inkscape:cx="124.5"
     inkscape:cy="131.5"
     inkscape:window-x="-8"
     inkscape:window-y="-8"
     inkscape:window-maximized="1"
     inkscape:current-layer="Layer_1" /><style
     type="text/css"
     id="style3">
	.st0{fill:#F2F2F2;}
	.st1{fill:#455453;}
	.st2{fill:#EA211C;}
	.st3{fill:#75838E;}
</style><g
     id="g5"
     transform="matrix(0.2,0,0,0.2,10.24,8.65)"><g
       id="g7"><path
         class="st0"
         d="m 123.9,233.5 c -0.1,0 -0.1,0 -0.2,0 l -34.3,-3.1 c -1.3,-0.1 -2.3,-1.2 -2.3,-2.5 l 0,-7.7 c 0,-1.3 0.2,-7.7 4.5,-9 2.3,-0.7 17,-4.5 21.7,-5.8 l 3,-13.1 c -0.5,-4.2 -4.2,-34.6 -4.2,-48.8 l 0,-4.5 -15.3,0 c -0.1,0 -0.2,0 -0.3,0 L 21.9,128.6 c -1.2,-0.2 -2.1,-1.2 -2.2,-2.5 l -0.2,-18.7 c 0,-0.1 0,-0.1 0,-0.2 0.2,-2.5 1.6,-5.1 4.4,-5.4 1.9,-0.2 67.4,-5 70.2,-5.2 0.1,0 0.1,0 0.2,0 l 17.9,0 0,-12.9 c 0,-8.2 0.8,-16.4 1.7,-22.8 -0.7,-0.2 -1.2,-0.6 -1.6,-1.2 0,0 -1.1,-2 -2.3,-3.5 -0.5,-0.6 -0.6,-1.4 -0.4,-2.2 0.9,-3.3 3.6,-5.3 6.5,-6.1 3.7,-18 6.3,-18 7.9,-18 1.6,0 4.2,0 7.9,18 2.8,0.8 5.6,2.8 6.5,6.1 0.2,0.8 0,1.6 -0.4,2.2 -1.2,1.5 -2.3,3.5 -2.3,3.5 -0.3,0.6 -0.9,1 -1.6,1.2 0.9,6.5 1.7,14.6 1.7,22.8 l 0,12.9 17.9,0 c 0.1,0 0.1,0 0.2,0 2.8,0.2 68.3,5 70.2,5.2 2.8,0.3 4.2,2.9 4.4,5.4 0,0.1 0,0.1 0,0.2 l -0.2,18.7 c 0,1.2 -0.9,2.3 -2.2,2.5 L 151.5,139 c -0.1,0 -0.2,0 -0.3,0 l -15.4,0 0,4.4 c 0,14.3 -3.7,44.6 -4.2,48.8 l 3,13.1 c 4.8,1.3 19.4,5.1 21.7,5.8 4.3,1.2 4.5,7.7 4.5,9 l 0,7.7 c 0,1.3 -1,2.4 -2.3,2.5 l -34.3,3.1 c -0.1,0.1 -0.2,0.1 -0.3,0.1 z"
         id="path9"
         inkscape:connector-curvature="0"
         style="fill:#f2f2f2" /><g
         id="g11"><path
           class="st1"
           d="m 123.9,32.5 0,0 c 1.4,0 3.8,7.3 5.8,17.6 2.7,0.3 5.5,1.9 6.2,4.6 -1.3,1.7 -2.5,3.9 -2.5,3.9 0,0 -1.1,-1.7 -2.6,-2.5 1.4,8.7 2.4,18.6 2.4,27.7 0,5.2 0,10.4 0,15.4 l 20.4,0 c 0,0 68.2,5 70.2,5.2 1.9,0.2 2.1,3.1 2.1,3.1 l -0.2,18.7 -74.6,10.4 -17.9,0 c 0,2.4 0,4.8 0,6.9 0,15 -4.2,49 -4.2,49 l 3.5,15 c 0,0 20.4,5.4 23.1,6.2 2.7,0.8 2.7,6.6 2.7,6.6 l 0,7.7 -34.3,3.1 0,0 -34.3,-3.1 0,-7.7 c 0,0 0,-5.8 2.7,-6.6 2.7,-0.8 23.1,-6.2 23.1,-6.2 l 3.5,-15 c 0,0 -4.2,-33.9 -4.2,-49 0,-2.2 0,-4.5 0,-6.9 l -18,0 L 22.2,126.2 22,107.4 c 0,0 0.2,-2.9 2.1,-3.1 1.9,-0.2 70.2,-5.2 70.2,-5.2 l 20.4,0 c 0,-5 0,-10.2 0,-15.4 0,-9.1 1,-19.1 2.4,-27.7 -1.5,0.8 -2.6,2.5 -2.6,2.5 0,0 -1.2,-2.1 -2.5,-3.9 0.7,-2.6 3.5,-4.3 6.2,-4.6 2,-10.2 4.4,-17.5 5.7,-17.5 l 0,0 0,0 m 0,-5 c -4.7,0 -6.4,5.3 -7.4,8.4 -0.9,2.7 -1.8,6.2 -2.6,10.2 -3.3,1.4 -5.9,4 -6.7,7.3 -0.4,1.5 -0.1,3.1 0.9,4.4 1.1,1.4 2.1,3.2 2.1,3.2 0.3,0.5 0.6,1 1.1,1.4 -0.8,6.3 -1.5,13.8 -1.5,21.5 l 0,10.4 -15.6,0 c -0.1,0 -0.2,0 -0.4,0 -7,0.5 -68.4,5 -70.3,5.2 -4.2,0.4 -6.4,4.3 -6.6,7.7 0,0.1 0,0.3 0,0.4 l 0.2,18.7 c 0,2.5 1.9,4.6 4.3,4.9 L 96,141.6 c 0.2,0 0.5,0 0.7,0 l 12.9,0 0,1.9 c 0,14 3.5,43.1 4.2,48.7 l -2.6,11.2 c -5.8,1.5 -18.2,4.8 -20.3,5.4 -2.1,0.6 -4.8,2.3 -5.9,7.3 -0.4,2 -0.5,3.9 -0.5,4.1 l 0,7.7 c 0,2.6 2,4.7 4.6,5 l 34.3,3.1 c 0.1,0 0.3,0 0.4,0 0.1,0 0.3,0 0.4,0 l 34.3,-3.1 c 2.6,-0.2 4.6,-2.4 4.6,-5 l 0,-7.7 c 0,-0.2 0,-2 -0.5,-4.1 -1.1,-5 -3.8,-6.7 -5.9,-7.3 -2.1,-0.6 -14.5,-3.9 -20.3,-5.4 l -2.6,-11.2 c 0.7,-5.6 4.2,-34.7 4.2,-48.7 l 0,-1.9 12.9,0 c 0.2,0 0.5,0 0.7,0 l 74.6,-10.4 c 2.5,-0.3 4.3,-2.4 4.3,-4.9 l 0.2,-18.7 c 0,-0.1 0,-0.3 0,-0.4 -0.2,-3.4 -2.4,-7.3 -6.6,-7.7 -1.9,-0.2 -63.3,-4.7 -70.3,-5.2 -0.1,0 -0.2,0 -0.4,0 l -15.4,0 0,-10.6 c 0,-7.7 -0.7,-15.2 -1.5,-21.5 0.4,-0.4 0.8,-0.8 1.1,-1.4 0,0 1,-1.8 2.1,-3.2 1,-1.2 1.3,-2.8 0.9,-4.4 -0.9,-3.3 -3.4,-6 -6.7,-7.3 -0.8,-4 -1.7,-7.4 -2.6,-10.2 -1,-3 -2.7,-8.2 -7.4,-8.2 0,0 0,0 0,0 l 0,0 z"
           id="path13"
           inkscape:connector-curvature="0"
           style="fill:#455453" /></g></g><path
       class="st2"
       d="m 128,81.8 c 0,0 -0.2,-5.3 4.9,-7.5 5.1,-2.2 -8.9,-7.7 -8.9,-7.7 l 4,15.2 z"
       id="path15"
       inkscape:connector-curvature="0"
       style="fill:#ea211c" /><path
       class="st2"
       d="m 119.8,81.8 c 0,0 0.2,-5.3 -4.9,-7.5 -5.1,-2.2 8.9,-7.7 8.9,-7.7 l -4,15.2 z"
       id="path17"
       inkscape:connector-curvature="0"
       style="fill:#ea211c" /><path
       class="st2"
       d="m 117.1,56 c -0.9,5.8 -1.7,12.1 -2.1,18.4 l 17.8,0 c -0.4,-6.3 -1.2,-12.6 -2.1,-18.4 1.5,0.8 2.6,2.5 2.6,2.5 0,0 1.2,-2.1 2.5,-3.9 -0.7,-2.6 -3.5,-4.3 -6.2,-4.6 -2,-10.2 -4.4,-17.6 -5.8,-17.6 l 0,0 0,0 0,0 c -1.4,0 -3.8,7.3 -5.8,17.6 -2.7,0.3 -5.5,1.9 -6.2,4.6 1.3,1.7 2.5,3.9 2.5,3.9 0,0 1.3,-1.7 2.8,-2.5 z"
       id="path19"
       inkscape:connector-curvature="0"
       style="fill:#ea211c" /><rect
       x="107.3"
       y="36.200001"
       class="st1"
       width="33.299999"
       height="1.3"
       id="rect21"
       style="fill:#455453" /><path
       class="st3"
       d="m 118.9,50 c -2.9,0 -6.2,1.7 -6.9,4.6 1.3,1.7 2.5,3.9 2.5,3.9 0,0 1.9,-2.9 4,-2.9 1.8,-2.3 0.4,-5.6 0.4,-5.6 z"
       id="path23"
       inkscape:connector-curvature="0"
       style="fill:#75838e" /><path
       class="st3"
       d="m 128.9,50 c 2.9,0 6.2,1.7 6.9,4.6 -1.3,1.7 -2.5,3.9 -2.5,3.9 0,0 -1.9,-2.9 -4,-2.9 -1.7,-2.3 -0.4,-5.6 -0.4,-5.6 z"
       id="path25"
       inkscape:connector-curvature="0"
       style="fill:#75838e" /><path
       class="st2"
       d="m 64.2,101.3 c -18.6,1.4 -39.1,2.9 -40.2,3 -1.9,0.2 -2.1,3.1 -2.1,3.1 l 0.2,18.7 42.1,5.9 0,-30.7 z"
       id="path27"
       inkscape:connector-curvature="0"
       style="fill:#ea211c" /><path
       class="st2"
       d="m 223.8,104.3 c -1,-0.1 -21.3,-1.6 -39.8,-3 l 0,30.6 41.7,-5.8 0.2,-18.7 c 0,0 -0.2,-2.9 -2.1,-3.1 z"
       id="path29"
       inkscape:connector-curvature="0"
       style="fill:#ea211c" /><path
       class="st2"
       d="m 103.1,210.7 c -4.9,1.3 -9.6,2.6 -10.8,2.9 -2.7,0.8 -2.7,6.6 -2.7,6.6 l 0,7.7 13.5,1.2 0,-18.4 z"
       id="path31"
       inkscape:connector-curvature="0"
       style="fill:#ea211c" /><path
       class="st2"
       d="m 155.5,213.6 c -1.2,-0.3 -5.7,-1.5 -10.4,-2.8 l 0,18.2 13.1,-1.2 0,-7.7 c 0,0.1 0,-5.7 -2.7,-6.5 z"
       id="path33"
       inkscape:connector-curvature="0"
       style="fill:#ea211c" /><path
       class="st0"
       d="m 115.4,157.8 c 0.1,1.6 0.3,3.3 0.4,4.9 l 16.3,0 c 0.1,-1.7 0.3,-3.3 0.4,-4.9 l -17.1,0 z"
       id="path35"
       inkscape:connector-curvature="0"
       style="fill:#f2f2f2" /><polygon
       class="st2"
       points="127.2,39.3 128.2,85.8 119.7,85.8 120.7,39.3 "
       id="polygon37"
       style="fill:#ea211c" /><g
       id="g39"><g
         id="g41"><path
           class="st1"
           d="m 130.9,97.3 c -2.1,-1.5 -4.6,-2.2 -7.1,-2.2 -2.4,0 -4.7,0.7 -6.8,2 l -1.5,1 0,-3.9 c 0,-8.1 2.8,-12 8.5,-12 5.7,0 8.5,3.9 8.5,12 l 0,4.2 -1.6,-1.1 z"
           id="path43"
           inkscape:connector-curvature="0"
           style="fill:#455453" /><path
           class="st0"
           d="m 123.9,83.1 c 4,0 7.5,2.1 7.5,11 0,0.6 0,1.4 0,2.3 -2.2,-1.5 -4.8,-2.4 -7.7,-2.4 -2.7,0 -5.2,0.8 -7.3,2.2 0,-0.8 0,-1.5 0,-2.1 0,-8.8 3.5,-11 7.5,-11 m 0,-2 c -6.3,0 -9.5,4.4 -9.5,13 0,0.6 0,1.3 0,2.1 l 0,3.7 3.1,-2 c 1.9,-1.2 4,-1.8 6.2,-1.8 2.4,0 4.6,0.7 6.6,2.1 l 3.1,2.2 0,-3.8 c 0,-0.9 0,-1.7 0,-2.4 0,-8.7 -3.2,-13.1 -9.5,-13.1 l 0,0 z"
           id="path45"
           inkscape:connector-curvature="0"
           style="fill:#f2f2f2" /></g><g
         id="g47"><path
           class="st1"
           d="m 131.3,116.8 c 0.1,-7.2 0.1,-14.1 0.1,-18.7 -2.1,-1.7 -4.8,-2.7 -7.7,-2.7 -2.7,0 -5.3,0.9 -7.3,2.4 0,4.6 0.1,11.8 0.1,19.2 2,1.3 4.5,2.1 7.2,2.1 2.9,0 5.6,-0.9 7.6,-2.3 z"
           id="path49"
           inkscape:connector-curvature="0"
           style="fill:#455453" /></g><g
         id="g51"><path
           class="st1"
           d="m 123.7,120.4 c -2.7,0 -5.1,-0.7 -7.2,-1.8 0.1,13.9 0.2,28.2 0.2,28.2 0,0 3.7,1.3 7.1,1.3 3.5,0 7.1,-1.3 7.1,-1.3 0,0 0.1,-14.4 0.2,-28.4 -1.9,1.3 -4.5,2 -7.4,2 z"
           id="path53"
           inkscape:connector-curvature="0"
           style="fill:#455453" /></g></g><g
       id="g55"><g
         id="g57"><path
           class="st1"
           d="m 123.9,32.5 0,0 c 1.4,0 3.8,7.3 5.8,17.6 2.7,0.3 5.5,1.9 6.2,4.6 -1.3,1.7 -2.5,3.9 -2.5,3.9 0,0 -1.1,-1.7 -2.6,-2.5 1.4,8.7 2.4,18.6 2.4,27.7 0,5.2 0,10.4 0,15.4 l 20.4,0 c 0,0 68.2,5 70.2,5.2 1.9,0.2 2.1,3.1 2.1,3.1 l -0.2,18.7 -74.6,10.4 -17.9,0 c 0,2.4 0,4.8 0,6.9 0,15 -4.2,49 -4.2,49 l 3.5,15 c 0,0 20.4,5.4 23.1,6.2 2.7,0.8 2.7,6.6 2.7,6.6 l 0,7.7 -34.3,3.1 0,0 -34.3,-3.1 0,-7.7 c 0,0 0,-5.8 2.7,-6.6 2.7,-0.8 23.1,-6.2 23.1,-6.2 l 3.5,-15 c 0,0 -4.2,-33.9 -4.2,-49 0,-2.2 0,-4.5 0,-6.9 l -18,0 L 22.2,126.2 22,107.4 c 0,0 0.2,-2.9 2.1,-3.1 1.9,-0.2 70.2,-5.2 70.2,-5.2 l 20.4,0 c 0,-5 0,-10.2 0,-15.4 0,-9.1 1,-19.1 2.4,-27.7 -1.5,0.8 -2.6,2.5 -2.6,2.5 0,0 -1.2,-2.1 -2.5,-3.9 0.7,-2.6 3.5,-4.3 6.2,-4.6 2,-10.2 4.4,-17.5 5.7,-17.5 l 0,0 0,0 m 0,-5 c -4.7,0 -6.4,5.3 -7.4,8.4 -0.9,2.7 -1.8,6.2 -2.6,10.2 -3.3,1.4 -5.9,4 -6.7,7.3 -0.4,1.5 -0.1,3.1 0.9,4.4 1.1,1.4 2.1,3.2 2.1,3.2 0.3,0.5 0.6,1 1.1,1.4 -0.8,6.3 -1.5,13.8 -1.5,21.5 l 0,10.4 -15.6,0 c -0.1,0 -0.2,0 -0.4,0 -7,0.5 -68.4,5 -70.3,5.2 -4.2,0.4 -6.4,4.3 -6.6,7.7 0,0.1 0,0.3 0,0.4 l 0.2,18.7 c 0,2.5 1.9,4.6 4.3,4.9 L 96,141.6 c 0.2,0 0.5,0 0.7,0 l 12.9,0 0,1.9 c 0,14 3.5,43.1 4.2,48.7 l -2.6,11.2 c -5.8,1.5 -18.2,4.8 -20.3,5.4 -2.1,0.6 -4.8,2.3 -5.9,7.3 -0.4,2 -0.5,3.9 -0.5,4.1 l 0,7.7 c 0,2.6 2,4.7 4.6,5 l 34.3,3.1 c 0.1,0 0.3,0 0.4,0 0.1,0 0.3,0 0.4,0 l 34.3,-3.1 c 2.6,-0.2 4.6,-2.4 4.6,-5 l 0,-7.7 c 0,-0.2 0,-2 -0.5,-4.1 -1.1,-5 -3.8,-6.7 -5.9,-7.3 -2.1,-0.6 -14.5,-3.9 -20.3,-5.4 l -2.6,-11.2 c 0.7,-5.6 4.2,-34.7 4.2,-48.7 l 0,-1.9 12.9,0 c 0.2,0 0.5,0 0.7,0 l 74.6,-10.4 c 2.5,-0.3 4.3,-2.4 4.3,-4.9 l 0.2,-18.7 c 0,-0.1 0,-0.3 0,-0.4 -0.2,-3.4 -2.4,-7.3 -6.6,-7.7 -1.9,-0.2 -63.3,-4.7 -70.3,-5.2 -0.1,0 -0.2,0 -0.4,0 l -15.4,0 0,-10.6 c 0,-7.7 -0.7,-15.2 -1.5,-21.5 0.4,-0.4 0.8,-0.8 1.1,-1.4 0,0 1,-1.8 2.1,-3.2 1,-1.2 1.3,-2.8 0.9,-4.4 -0.9,-3.3 -3.4,-6 -6.7,-7.3 -0.8,-4 -1.7,-7.4 -2.6,-10.2 -1,-3 -2.7,-8.2 -7.4,-8.2 0,0 0,0 0,0 l 0,0 z"
           id="path59"
           inkscape:connector-curvature="0"
           style="fill:#455453" /></g></g><polygon
       class="st0"
       points="133.2,133.5 144.2,133.5 144.2,99.2 133.2,99.1 "
       id="polygon61"
       style="fill:#f2f2f2" /><polygon
       class="st0"
       points="103.7,133.5 114.7,133.5 114.7,99.2 103.7,99.1 "
       id="polygon63"
       style="fill:#f2f2f2" /><path
       class="st3"
       d="M 127.2,39.3 C 126,35 124.8,32.4 124,32.4 l 0,0 0,0 0,0 c -0.8,0 -2,2.6 -3.2,6.9 l 6.4,0 z"
       id="path65"
       inkscape:connector-curvature="0"
       style="fill:#75838e" /></g></svg>