<?xml version="1.0" encoding="UTF-8"?>
<svg width="50px" height="50px" viewBox="0 0 50 50" version="1.1" xmlns="http://www.w3.org/2000/svg" xmlns:xlink="http://www.w3.org/1999/xlink">
    <title>Planes/Eitan@3x</title>
    <defs>
        <polygon id="path-1" points="0 0 42.9640493 0 42.9640493 19.5976365 0 19.5976365"></polygon>
    </defs>
    <g id="Planes/Eitan" stroke="none" stroke-width="1" fill="none" fill-rule="evenodd">
        <g id="Group-10" transform="translate(25.000000, 25.000000) rotate(-360.000000) translate(-25.000000, -25.000000) translate(3.517975, 15.201182)">
            <polygon id="Fill-1" fill="#596B6A" points="19.3252472 14.0420286 23.6388021 14.0420286 23.6388021 13.4920286 19.3252472 13.4920286"></polygon>
            <g id="Group-9">
                <path d="M18.1364382,16.6199337 L24.827765,16.6199337 C24.7846726,15.1380168 24.6884842,11.8286893 24.6179973,9.38178888 L22.9841797,9.38178888 L22.9841797,9.81307929 C22.9841797,10.5092943 22.6956145,11.724134 22.6609866,11.8671287 C22.6101992,12.137281 22.4145904,12.4205028 22.087396,12.4963053 C21.9698153,12.7203303 21.7658959,12.8593273 21.6292314,12.9159102 C21.5821375,12.9354374 21.5319657,12.9451241 21.4819477,12.9451241 C21.4319297,12.9451241 21.3817579,12.9354374 21.334664,12.9159102 C21.1981535,12.8593273 20.9943879,12.7203303 20.8766533,12.4963053 C20.5496128,12.4205028 20.3540041,12.1374348 20.3032166,11.8671287 C20.2687427,11.7244416 19.9800236,10.509448 19.9800236,9.81307929 L19.9800236,9.38178888 L18.3462059,9.38178888 C18.275719,11.8286893 18.1795306,15.1380168 18.1364382,16.6199337 M24.8446942,19.2132115 C24.7629725,19.2132115 24.6821742,19.1872264 24.6150732,19.1372552 C24.5588992,19.0955868 24.5159607,19.0399265 24.4896435,18.9771934 L18.4745597,18.9771934 C18.4482425,19.0399265 18.405304,19.0955868 18.34913,19.1372552 C18.282029,19.1872264 18.2012307,19.2132115 18.1195091,19.2132115 C18.0824188,19.2132115 18.0453286,19.2079837 18.0090078,19.1970669 L17.1494683,18.939369 C16.9867945,18.8906278 16.8753698,18.7410215 16.8753698,18.571273 L16.8753698,17.2618722 C16.8753698,17.1599308 16.9158459,17.0619872 16.9880257,16.9900285 L17.0725176,16.9056156 C17.0345039,15.60052 16.9284658,11.9523105 16.8529002,9.32858871 L0.996434871,8.04963197 C0.895167724,8.04148281 0.801287846,7.99366415 0.735264128,7.91663153 C0.699405093,7.87496319 0.38483055,7.49210646 0.38483055,6.93657981 C0.38483055,6.38120691 0.699405093,5.99850394 0.735264128,5.95668183 C0.808367312,5.87150006 0.91502101,5.82245134 1.02736906,5.82245134 L16.9098437,5.82245134 C17.0800587,5.46896234 17.3507714,5.28122416 17.3880155,5.25662292 C17.4523463,5.21403203 17.5263729,5.19281346 17.6003995,5.19281346 C17.6744261,5.19281346 17.7482988,5.21403203 17.8126296,5.25662292 C17.8500276,5.28137791 18.1205864,5.46896234 18.2908014,5.82245134 L19.9800236,5.82245134 L19.9800236,3.14429932 C19.9800236,1.43435967 20.8549532,0.384501939 21.4821016,0.384501939 C22.10925,0.384501939 22.9841797,1.43435967 22.9841797,3.14429932 L22.9841797,5.82245134 L24.6734019,5.82245134 C24.8436169,5.46896234 25.1141756,5.28122416 25.1515736,5.25662292 C25.2159044,5.21403203 25.289931,5.19281346 25.3638037,5.19281346 C25.4378303,5.19281346 25.5118569,5.21403203 25.5761877,5.25662292 C25.6134319,5.28137791 25.8841445,5.46896234 26.0543595,5.82245134 L41.9368342,5.82245134 C42.0491822,5.82245134 42.1558359,5.87150006 42.2289391,5.95668183 C42.2647981,5.99850394 42.5793727,6.38120691 42.5793727,6.93657981 C42.5793727,7.49210646 42.2647981,7.87496319 42.2289391,7.91663153 C42.1629154,7.99366415 42.0690355,8.04148281 41.9677683,8.04963197 L26.1111491,9.32858871 C26.0368147,11.9106422 25.8916857,16.9056156 25.8916857,16.9056156 L25.9760237,16.9900285 C26.0483573,17.0621409 26.0888334,17.1599308 26.0888334,17.2618722 L26.0888334,18.571273 C26.0888334,18.7410215 25.9774088,18.8906278 25.814581,18.939369 L24.9551954,19.1970669 C24.9188747,19.2079837 24.8817844,19.2132115 24.8446942,19.2132115" id="Fill-2" fill="#CAE0E0"></path>
                <g id="Group-6">
                    <mask id="mask-2" fill="white">
                        <use xlink:href="#path-1"></use>
                    </mask>
                    <g id="Clip-5"></g>
                    <path d="M23.3688563,9.76622932 L24.2440938,9.76622932 C24.3075012,11.9611208 24.3870682,14.7055424 24.4315458,16.2354318 L21.6647057,16.2354318 L21.4820247,16.2354318 L21.2994976,16.2354318 L18.5325036,16.2354318 C18.5769811,14.7055424 18.656702,11.9611208 18.7199555,9.76622932 L19.595193,9.76622932 L19.595193,9.81312542 C19.595193,10.5417833 19.8752936,11.7341744 19.9273123,11.949589 C19.9982609,12.3055381 20.2435798,12.6582583 20.6198688,12.8153987 C20.7762327,13.0368099 20.9920025,13.1901063 21.1873034,13.2709829 C21.2814911,13.3100373 21.3818348,13.3295646 21.4820247,13.3295646 C21.5822145,13.3295646 21.6822504,13.3100373 21.776592,13.2709829 C21.9720468,13.1901063 22.1878167,13.0368099 22.3441805,12.8153987 C22.7206234,12.6584121 22.9659423,12.3055381 23.0368909,11.949589 C23.0889096,11.7340207 23.3688563,10.5417833 23.3688563,9.81312542 L23.3688563,9.76622932 Z M21.4820247,2.27373675e-12 C20.5709281,2.27373675e-12 19.595193,1.26342721 19.595193,3.14434544 L19.595193,5.43810316 L18.5141893,5.43810316 C18.3185806,5.14258082 18.0884979,4.97806005 18.0250905,4.93608419 C17.8964289,4.85105617 17.7483757,4.80846528 17.6004764,4.80846528 C17.4524233,4.80846528 17.304524,4.85090242 17.1757085,4.93608419 C17.112455,4.97790629 16.8822184,5.14242706 16.6864558,5.43810316 L1.02729211,5.43810316 C0.80274991,5.43810316 0.589288613,5.53604683 0.443082245,5.70656415 C0.369055652,5.79282223 -1.36424205e-12,6.25747807 -1.36424205e-12,6.93677969 C-1.36424205e-12,7.61608131 0.369209554,8.08058339 0.443082245,8.16684148 C0.575283582,8.32090672 0.763043338,8.41654402 0.965423731,8.43284234 L16.4783811,9.68396893 C16.5497913,12.1673099 16.6436712,15.3916094 16.6832239,16.7529803 C16.5594871,16.8930536 16.4905393,17.0738726 16.4905393,17.2617646 L16.4905393,18.5713191 C16.4905393,18.9108162 16.7133886,19.2100287 17.0388901,19.3076648 L17.8984296,19.565209 C17.9709172,19.5870426 18.0454055,19.5976519 18.1194321,19.5976519 C18.2830293,19.5976519 18.4444719,19.545528 18.5788279,19.4455855 C18.6133018,19.4200617 18.6451594,19.3919241 18.6744007,19.36148 L21.2994976,19.36148 L21.6647057,19.36148 L24.2896486,19.36148 C24.3188899,19.3919241 24.3509014,19.4200617 24.3852214,19.4455855 C24.5197313,19.545528 24.68102,19.5976519 24.8446172,19.5976519 C24.9186438,19.5976519 24.9931321,19.5870426 25.0657736,19.565209 L25.9251592,19.3076648 C26.2508147,19.2100287 26.473664,18.9108162 26.473664,18.5713191 L26.473664,17.2617646 C26.473664,17.0738726 26.4047161,16.8930536 26.2809794,16.7529803 C26.320532,15.3916094 26.414258,12.1671562 26.4858222,9.68396893 L41.9987795,8.43284234 C42.2011599,8.41654402 42.3889196,8.32090672 42.5209671,8.16684148 C42.5949937,8.08058339 42.9640493,7.61608131 42.9640493,6.93677969 C42.9640493,6.25747807 42.5949937,5.79282223 42.5209671,5.70656415 C42.3749146,5.53604683 42.1614533,5.43810316 41.9367572,5.43810316 L26.2775935,5.43810316 C26.0819848,5.14242706 25.8519021,4.97790629 25.7886486,4.93608419 C25.6598331,4.85090242 25.51178,4.80846528 25.3638807,4.80846528 C25.2158275,4.80846528 25.0679282,4.85090242 24.9391127,4.93608419 C24.8758592,4.97790629 24.6457766,5.14242706 24.4500139,5.43810316 L23.3688563,5.43810316 L23.3688563,3.14434544 C23.3688563,1.26342721 22.3932751,2.27373675e-12 21.4820247,2.27373675e-12 L21.4820247,2.27373675e-12 Z M21.4820247,12.5607759 C21.4820247,12.5607759 21.1786849,12.4351559 21.1686813,12.1314844 L21.0523318,12.1314844 C20.7371417,12.1314844 20.6798904,11.7879896 20.6798904,11.7879896 C20.6798904,11.7879896 20.3647002,10.4999612 20.3647002,9.81312542 L20.3647002,8.9974407 L17.9723023,8.9974407 C17.8942743,11.7106495 17.7765397,15.7590903 17.7403729,17.0043741 L21.2994976,17.0042204 L21.4820247,17.0042204 L21.6647057,17.0042204 L25.2238304,17.0043741 C25.1875096,15.7590903 25.0699289,11.7106495 24.9919009,8.9974407 L22.5993491,8.9974407 L22.5993491,9.81312542 C22.5993491,10.4999612 22.284159,11.7879896 22.284159,11.7879896 C22.284159,11.7879896 22.2269076,12.1314844 21.9117175,12.1314844 L21.795368,12.1314844 C21.7855183,12.4351559 21.4820247,12.5607759 21.4820247,12.5607759 L21.4820247,12.5607759 Z M21.4820247,0.768788617 C21.7972148,0.768788617 22.5993491,1.54157493 22.5993491,3.14434544 L22.5993491,6.20689178 L24.9443453,6.20689178 C25.0366862,5.79359102 25.3638807,5.5772539 25.3638807,5.5772539 C25.3638807,5.5772539 25.6909212,5.79359102 25.7832621,6.20689178 L41.9367572,6.20689178 C41.9367572,6.20689178 42.1945421,6.50733437 42.1945421,6.93677969 C42.1945421,7.36607125 41.9367572,7.66651385 41.9367572,7.66651385 L25.7364761,8.97314698 C25.6572168,11.7280241 25.5364042,15.881174 25.5020842,17.0601882 L25.7041568,17.2617646 L25.7041568,18.5713191 L24.8446172,18.8288633 L24.8446172,18.5926914 L21.6647057,18.5926914 L21.2994976,18.5926914 L18.119586,18.5926914 L18.119586,18.8288633 L17.2600465,18.5713191 L17.2600465,17.2617646 L17.4619652,17.0601882 C17.4276451,15.881174 17.3068325,11.7281779 17.2277272,8.97314698 L1.02729211,7.66651385 C1.02729211,7.66651385 0.769507199,7.36607125 0.769507199,6.93677969 C0.769507199,6.50733437 1.02729211,6.20689178 1.02729211,6.20689178 L17.1807872,6.20689178 C17.2731281,5.79359102 17.6004764,5.5772539 17.6004764,5.5772539 C17.6004764,5.5772539 17.927517,5.79359102 18.0198579,6.20689178 L20.3647002,6.20689178 L20.3647002,3.14434544 C20.3647002,1.54157493 21.1668345,0.768788617 21.4820247,0.768788617 L21.4820247,0.768788617 Z" id="Fill-4" fill="#596B6A" mask="url(#mask-2)"></path>
                </g>
                <path d="M21.1686967,12.1314536 C21.1785464,12.4351251 21.48204,12.5607452 21.48204,12.5607452 C21.48204,12.5607452 21.7853798,12.4351251 21.7953834,12.1314536 L21.1686967,12.1314536 Z" id="Fill-7" fill="#596B6A"></path>
            </g>
        </g>
    </g>
</svg>