<?xml version="1.0" encoding="utf-8"?>
<!-- Generator: Adobe Illustrator 21.1.0, SVG Export Plug-In . SVG Version: 6.00 Build 0)  -->
<svg version="1.1" id="Layer_1" xmlns="http://www.w3.org/2000/svg" xmlns:xlink="http://www.w3.org/1999/xlink" x="0px" y="0px"
	 viewBox="0 0 309 294" style="enable-background:new 0 0 309 294;" xml:space="preserve">
<style type="text/css">
	.st0{fill:#F2F2F2;}
	.st1{fill:#596B6A;}
	.st2{fill:#A8C1C0;}
</style>
<g>
	<g>
		<path class="st0" d="M192.8,260.8c-0.4,0-0.8-0.1-1.1-0.3l-32.3-16l-0.9,2.5c-0.3,1-1.3,1.7-2.4,1.7l0,0c-1.1,0-2-0.7-2.4-1.7
			l-0.9-2.5l-32.3,16c-0.4,0.2-0.7,0.3-1.1,0.3c-0.4,0-0.9-0.1-1.3-0.4c-0.7-0.4-1.2-1.2-1.2-2.1c0-2,0-12.1,4.2-15.9
			c1.8-1.6,21.6-18.4,27-22.9c-0.6-1.8-1.4-4.8-1.7-8.1l-1.9-1.1c-0.5,0.5-1.1,0.8-1.8,0.8h-8.3c-1.1,0-2.1-0.8-2.4-1.9
			c-0.2-0.6-3.9-15-3.9-23.1c0-8.1,2.7-16.8,2.8-17.1c0.3-1,1.2-1.7,2.3-1.7c0,0,2.7-0.1,4.8-0.1h1.2c1.8,0,4,0.1,4.6,0.1
			c-0.4-2.1-0.7-4.4-1-7l-17.6,1.5c-0.5,2.2-1.1,3.7-1.2,3.7c-0.4,0.9-1.3,1.5-2.3,1.5c0,0,0,0,0,0c-1,0-1.9-0.6-2.3-1.5
			c0-0.1-0.5-1-0.9-2.6l-14.6,4.1c-0.5,2.1-1.1,3.5-1.1,3.5c-0.4,0.9-1.3,1.5-2.3,1.5c0,0,0,0,0,0c-1,0-1.9-0.6-2.3-1.5
			c0-0.1-0.2-0.5-0.4-1.1l-16.1,7.9c-0.5,2.7-1.3,4.6-1.4,4.7c-0.4,0.9-1.3,1.5-2.3,1.5s-1.9-0.6-2.3-1.5c0-0.1-0.3-0.7-0.6-1.5
			l-22.5,11l-3.7,6.9c-0.4,0.8-1.3,1.3-2.2,1.3c-0.2,0-0.4,0-0.6-0.1c-1.1-0.3-1.9-1.3-1.9-2.4v-4.3c0-0.2,0-0.4,0.1-0.6l3.1-12.1
			c0.1-0.6,0.5-1,0.9-1.4l90.1-67v-35c0-2.7,1.5-5,3.8-6.1c0.1-3.2,0.4-6.4,1.1-9.5v-12c0-6.8,5.5-15.1,12.4-15.1
			s12.4,8.2,12.4,15.1v12c0.7,3.1,1.1,6.3,1.1,9.6c2.2,1.1,3.6,3.4,3.6,6v34.8l90.4,67.2c0.5,0.3,0.8,0.8,0.9,1.4l3.1,12.1
			c0.1,0.2,0.1,0.4,0.1,0.6v4.3c0,1.1-0.8,2.1-1.9,2.4c-0.2,0-0.4,0.1-0.6,0.1c-0.9,0-1.8-0.5-2.2-1.3l-3.7-6.9l-22.5-11
			c-0.3,0.9-0.5,1.4-0.6,1.5c-0.4,0.9-1.3,1.5-2.3,1.5c-1,0-1.9-0.6-2.3-1.5c0-0.1-0.9-2-1.4-4.7l-16.1-7.9c-0.2,0.6-0.4,1-0.4,1.1
			c-0.4,0.9-1.3,1.5-2.3,1.5c0,0,0,0,0,0c-1,0-1.9-0.6-2.3-1.5c0-0.1-0.7-1.5-1.1-3.5l-14.6-4.1c-0.4,1.5-0.9,2.5-0.9,2.6
			c-0.4,0.9-1.3,1.5-2.3,1.5c0,0,0,0,0,0c-1,0-1.9-0.6-2.3-1.5c0-0.1-0.7-1.6-1.2-3.7l-17.6-1.5c-0.2,2.6-0.6,4.9-1,7
			c0.6,0,2.8-0.1,4.6-0.1h1.2c2.1,0,4.8,0.1,4.8,0.1c1.1,0,2,0.7,2.3,1.7c0.1,0.4,2.8,9,2.8,17.1c0,8.1-3.7,22.5-3.9,23.1
			c-0.3,1.1-1.3,1.9-2.4,1.9h-8.3c-0.7,0-1.4-0.3-1.8-0.8l-1.9,1.1c-0.3,3.3-1.1,6.3-1.7,8.1c5.4,4.6,25.2,21.4,27,22.9
			c4.3,3.7,4.3,13.9,4.2,15.9c0,0.9-0.5,1.6-1.2,2.1C193.7,260.7,193.2,260.8,192.8,260.8z"/>
		<path class="st1" d="M156.2,37c5.4,0,9.9,7.1,9.9,12.6v12.3c0.7,3.1,1.1,6.5,1.1,10.2c0,0.3,0,0.6,0,0.9c2,0.3,3.6,2.1,3.6,4.2
			v36.1l91.4,67.9l3.1,12.1v4.3l-4-7.6l-26-12.7c-0.4,2.4-1.2,4.1-1.2,4.1s-1-2.3-1.3-5.3l-20-9.8c-0.4,2.2-1.1,3.6-1.1,3.6
			s-0.8-1.9-1.2-4.5l-18.7-5.2c-0.4,2.7-1.3,4.7-1.3,4.7s-1-2.1-1.3-5l-22.1-1.9c-0.4,5.9-1.3,10.5-2.1,14l2.8,0.1
			c0.3-1.2,0.6-1.9,0.6-1.9s2.6-0.1,4.7-0.1c0.2,0,0.3,0,0.5,0c0,0,0.1,0,0.1,0c0,0,0.1,0,0.1,0c0.2,0,0.3,0,0.5,0
			c2.1,0,4.7,0.1,4.7,0.1s2.7,8.5,2.7,16.4c0,7.9-3.8,22.4-3.8,22.4h-2.5h-3.4h-2.5c0,0-0.2-0.7-0.5-1.9l-5.6,3.2
			c-0.2,5.3-2.2,10.4-2.2,10.4s26.3,22.2,28.3,24c3.6,3.1,3.4,13.9,3.4,13.9L158,241l-1.8,5.2v0l0,0v0l-1.8-5.2l-34.8,17.3
			c0,0-0.2-10.8,3.4-13.9c2-1.8,28.3-24,28.3-24s-2-5.2-2.2-10.4l-5.6-3.2c-0.3,1.2-0.5,1.9-0.5,1.9h-2.5h-3.4h-2.5
			c0,0-3.8-14.6-3.8-22.4c0-7.9,2.7-16.4,2.7-16.4s2.6-0.1,4.7-0.1c0.2,0,0.3,0,0.5,0c0,0,0.1,0,0.1,0c0,0,0.1,0,0.1,0
			c0.2,0,0.3,0,0.5,0c2.1,0,4.7,0.1,4.7,0.1s0.2,0.7,0.6,1.9l2.8-0.1c-0.8-3.6-1.8-8.2-2.1-14l-22.1,1.9c-0.3,2.9-1.3,5-1.3,5
			s-0.9-1.9-1.3-4.7l-18.7,5.2c-0.4,2.6-1.2,4.5-1.2,4.5s-0.7-1.5-1.1-3.6l-20,9.8c-0.3,3.1-1.3,5.3-1.3,5.3s-0.8-1.7-1.2-4.1
			l-26,12.7l-4,7.6v-4.3l3.1-12.1l91.1-67.8V77.1c0-2.2,1.7-4,3.8-4.2c0-0.3,0-0.6,0-0.9c0-3.7,0.4-7.1,1.1-10.2V49.5
			C146.3,44.1,150.7,37,156.2,37 M156.2,32c-4.1,0-8.1,2.3-11,6.3c-2.4,3.3-3.9,7.5-3.9,11.3v11.7c-0.6,2.7-0.9,5.5-1.1,8.3
			c-2.4,1.7-3.9,4.4-3.9,7.5v33.7l-89.1,66.3c-0.9,0.7-1.6,1.7-1.9,2.8L42.2,192c-0.1,0.4-0.2,0.8-0.2,1.3v4.3
			c0,2.3,1.6,4.3,3.8,4.9c0.4,0.1,0.8,0.1,1.2,0.1c1.8,0,3.5-1,4.4-2.7l3.3-6.2l19.4-9.5c0.9,1.3,2.4,2.1,4.1,2.1c0,0,0,0,0,0
			c2,0,3.7-1.1,4.5-2.9c0.1-0.2,0.8-1.8,1.3-4.1l12.8-6.3c0.9,1.1,2.3,1.7,3.8,1.7c0,0,0,0,0,0c2,0,3.7-1.1,4.5-2.9
			c0.1-0.2,0.5-1.1,0.9-2.5l11-3.1c0.1,0.3,0.2,0.5,0.2,0.6c0.8,1.8,2.6,2.9,4.5,2.9c0,0,0,0,0,0c2,0,3.7-1.1,4.5-2.9
			c0.1-0.2,0.5-1.1,0.9-2.4l13.4-1.2c0.1,0.6,0.1,1.2,0.2,1.7c-0.5,0-1.1,0-1.6,0l-0.5,0h-0.1h-0.1l-0.5,0c-2.1,0-4.7,0.1-4.8,0.1
			c-2.1,0.1-4,1.5-4.6,3.5c-0.1,0.4-2.9,9.4-2.9,17.9c0,8.4,3.8,23.1,4,23.7c0.6,2.2,2.6,3.7,4.8,3.7h2.5h3.4h2.5
			c0.5,0,1-0.1,1.4-0.2c0.3,2,0.7,3.8,1.1,5.2c-6.7,5.7-24.1,20.4-25.8,21.9c-5,4.3-5.1,14.7-5.1,17.8c0,1.7,0.9,3.3,2.4,4.2
			c0.8,0.5,1.7,0.7,2.6,0.7c0.8,0,1.5-0.2,2.2-0.5l29.7-14.8c0.8,1.9,2.6,3.2,4.6,3.2c2.1,0,3.9-1.3,4.6-3.2l29.7,14.8
			c0.7,0.3,1.5,0.5,2.2,0.5c0.9,0,1.8-0.2,2.6-0.7c1.5-0.9,2.4-2.5,2.4-4.2c0.1-3.1-0.1-13.4-5.1-17.8c-1.7-1.5-19.1-16.3-25.8-21.9
			c0.4-1.5,0.8-3.3,1.1-5.2c0.5,0.1,0.9,0.2,1.4,0.2h2.5h3.4h2.5c2.3,0,4.3-1.5,4.8-3.7c0.2-0.6,4-15.3,4-23.7
			c0-8.5-2.8-17.5-2.9-17.9c-0.6-2-2.5-3.4-4.6-3.5c-0.1,0-2.7-0.1-4.8-0.1l-0.5,0h-0.1h-0.1l-0.5,0c-0.5,0-1.1,0-1.6,0
			c0.1-0.6,0.2-1.1,0.2-1.7l13.4,1.2c0.4,1.4,0.8,2.3,0.9,2.4c0.8,1.8,2.6,2.9,4.5,2.9c0,0,0,0,0,0c2,0,3.7-1.1,4.5-2.9
			c0-0.1,0.1-0.3,0.2-0.6l11,3.1c0.4,1.4,0.8,2.4,0.9,2.5c0.8,1.8,2.6,2.9,4.5,2.9c0,0,0,0,0,0c1.5,0,2.9-0.7,3.8-1.7l12.8,6.3
			c0.5,2.3,1.2,3.8,1.3,4.1c0.8,1.8,2.6,2.9,4.5,2.9c1.6,0,3.2-0.8,4.1-2.1l19.4,9.5l3.3,6.2c0.9,1.7,2.6,2.7,4.4,2.7
			c0.4,0,0.8,0,1.2-0.1c2.2-0.6,3.8-2.6,3.8-4.9v-4.3c0-0.4-0.1-0.8-0.2-1.3l-3.1-12.1c-0.3-1.1-0.9-2.1-1.9-2.8l-89.3-66.4V77.1
			c0-3-1.4-5.7-3.6-7.4c-0.1-2.9-0.5-5.7-1.1-8.5V49.5C171,41.4,164.5,32,156.2,32L156.2,32z"/>
	</g>
	<path class="st2" d="M144.6,171.8c-0.3-1.2-0.5-1.9-0.5-1.9s-2.6-0.1-4.7-0.1c-0.2,0-0.3,0-0.5,0c0,0-0.1,0-0.1,0c0,0-0.1,0-0.1,0
		c-0.2,0-0.3,0-0.5,0c-2.1,0-4.7,0.1-4.7,0.1s-0.2,0.7-0.5,1.9H144.6z"/>
	<g>
		<path class="st1" d="M149.3,60.4c-0.9,1.6-1.7,3.6-2,5.9c0.7,0.4,1.6,0.8,1.6,0.8s0.8-2.1,2.1-4L149.3,60.4z"/>
		<path class="st1" d="M150.1,59.2l1.7,2.8c1.1-1.3,2.4-2.4,3.9-2.4v-5.6C155.7,53.9,152.6,55.6,150.1,59.2z"/>
	</g>
	<path class="st2" d="M167.7,171.8c0.3-1.2,0.5-1.9,0.5-1.9s2.6-0.1,4.7-0.1c0.2,0,0.3,0,0.5,0c0,0,0.1,0,0.1,0c0,0,0.1,0,0.1,0
		c0.2,0,0.3,0,0.5,0c2.1,0,4.7,0.1,4.7,0.1s0.2,0.7,0.5,1.9H167.7z"/>
	<g>
		<path class="st1" d="M160.5,61.9l1.7-2.8c-2.5-3.6-5.6-5.3-5.6-5.3v5.6C158.1,59.5,159.5,60.6,160.5,61.9z"/>
		<path class="st1" d="M163,60.4l-1.6,2.7c1.3,2,2.1,4,2.1,4s0.9-0.3,1.6-0.8C164.7,64,163.9,62.1,163,60.4z"/>
	</g>
</g>
</svg>
