<?xml version="1.0" encoding="UTF-8" standalone="no"?>

<svg xmlns="http://www.w3.org/2000/svg" xmlns:xlink="http://www.w3.org/1999/xlink" width="50px" height="50px" viewBox="0 0 50 50" version="1.1">
    <title>Planes/Eitan</title>
    <defs>
        <polygon id="path-1" points="2.27373675e-13 9.09494702e-13 57 9.09494702e-13 57 26 2.27373675e-13 26"/>
    </defs>
    <g id="Planes/Eitan" stroke="none" stroke-width="1" fill="none" fill-rule="evenodd">
        <g id="Group-10" transform="translate(26.500000, 26.000000) rotate(-45.000000) translate(-26.500000, -26.000000) translate(-2.000000, 13.000000)">
            <polygon id="Fill-1" fill="#596B6A" points="25.7071068 17.9997475 32.7071068 17.9997475 32.7071068 17.8997475 25.7071068 17.8997475"/>
            <g id="Group-9" transform="translate(0.000000, 0.000000)">
                <path d="M24.0614419,22.0495097 L32.9387622,22.0495097 C32.881592,20.0834644 32.7539797,15.6930108 32.6604655,12.446731 L30.4928949,12.446731 L30.4928949,13.01892 C30.4928949,13.9425818 30.1100582,15.5542983 30.0641178,15.744008 C29.9967385,16.1024166 29.7372262,16.4781642 29.3031404,16.5787307 C29.1471472,16.8759426 28.8766093,17.0603486 28.6952978,17.1354165 C28.6328188,17.1613231 28.5662563,17.1741744 28.4998979,17.1741744 C28.4335395,17.1741744 28.366977,17.1613231 28.304498,17.1354165 C28.1233907,17.0603486 27.853057,16.8759426 27.6968596,16.5787307 C27.2629779,16.4781642 27.0034657,16.1026206 26.9360864,15.744008 C26.8903502,15.5547063 26.5073093,13.9427858 26.5073093,13.01892 L26.5073093,12.446731 L24.3397387,12.446731 C24.2462245,15.6930108 24.1186122,20.0834644 24.0614419,22.0495097 M32.961222,25.4899869 C32.8528026,25.4899869 32.7456083,25.4555128 32.656586,25.3892164 C32.5820605,25.3339354 32.5250944,25.2600914 32.4901797,25.1768639 L24.5100245,25.1768639 C24.4751098,25.2600914 24.4181437,25.3339354 24.3436181,25.3892164 C24.2545958,25.4555128 24.1474015,25.4899869 24.0389822,25.4899869 C23.9897749,25.4899869 23.9405676,25.4830513 23.8923812,25.4685681 L22.7520382,25.1266826 C22.5362204,25.0620181 22.3883944,24.8635369 22.3883944,24.6383331 L22.3883944,22.9011634 C22.3883944,22.7659188 22.4420936,22.6359778 22.5378538,22.540511 L22.6499484,22.4285211 C22.5995161,20.6970631 22.4588363,15.8570179 22.3585841,12.3761509 L1.32196077,10.679371 C1.1876106,10.6685596 1.06306105,10.605119 0.975468001,10.5029206 C0.927894156,10.4476396 0.51055107,9.93970715 0.51055107,9.20269516 C0.51055107,8.46588717 0.927894156,7.95815873 0.975468001,7.90267375 C1.07245331,7.78966388 1.21394976,7.72459141 1.36300087,7.72459141 L22.4341306,7.72459141 C22.6599532,7.25562088 23.0191051,7.0065504 23.0685166,6.97391217 C23.1538637,6.91740724 23.252074,6.88925677 23.3502844,6.88925677 C23.4484948,6.88925677 23.546501,6.91740724 23.6318481,6.97391217 C23.6814637,7.00675439 24.0404114,7.25562088 24.2662341,7.72459141 L26.5073093,7.72459141 L26.5073093,4.17151232 C26.5073093,1.90295148 27.6680703,0.510115105 28.5001021,0.510115105 C29.3321339,0.510115105 30.4928949,1.90295148 30.4928949,4.17151232 L30.4928949,7.72459141 L32.7339701,7.72459141 C32.9597927,7.25562088 33.3187405,7.0065504 33.3683561,6.97391217 C33.4537032,6.91740724 33.5519136,6.88925677 33.6499198,6.88925677 C33.7481301,6.88925677 33.8463405,6.91740724 33.9316876,6.97391217 C33.9810991,7.00675439 34.340251,7.25562088 34.5660736,7.72459141 L55.6372033,7.72459141 C55.7862544,7.72459141 55.9277509,7.78966388 56.0247362,7.90267375 C56.07231,7.95815873 56.4896531,8.46588717 56.4896531,9.20269516 C56.4896531,9.93970715 56.07231,10.4476396 56.0247362,10.5029206 C55.9371431,10.605119 55.8125936,10.6685596 55.6782434,10.679371 L34.6414159,12.3761509 C34.5427971,15.8017369 34.3502558,22.4285211 34.3502558,22.4285211 L34.4621462,22.540511 C34.5581106,22.6361818 34.6118098,22.7659188 34.6118098,22.9011634 L34.6118098,24.6383331 C34.6118098,24.8635369 34.4639838,25.0620181 34.2479618,25.1266826 L33.1078229,25.4685681 C33.0596366,25.4830513 33.0104293,25.4899869 32.961222,25.4899869" id="Fill-2" fill="#CAE0E0"/>
                <g id="Group-6" transform="translate(0.000000, 0.000000)">
                    <mask id="mask-2" fill="white">
                        <use xlink:href="#path-1"/>
                    </mask>
                    <g id="Clip-5"/>
                    <path d="M31.0032418,12.9567645 L32.1644111,12.9567645 C32.2485331,15.8687065 32.354094,19.5097048 32.4131019,21.5393946 L28.7423612,21.5393946 L28.5,21.5393946 L28.257843,21.5393946 L24.5868981,21.5393946 C24.645906,19.5097048 24.751671,15.8687065 24.8355889,12.9567645 L25.9967582,12.9567645 L25.9967582,13.0189812 C25.9967582,13.9856847 26.3683651,15.5676188 26.4373778,15.8534073 C26.5315046,16.3256416 26.8569668,16.7935922 27.3561859,17.0020689 C27.5636324,17.295813 27.8498922,17.4991899 28.1089961,17.6064881 C28.233954,17.6583013 28.3670791,17.6842079 28.5,17.6842079 C28.6329209,17.6842079 28.7656376,17.6583013 28.8907997,17.6064881 C29.1501078,17.4991899 29.4363676,17.295813 29.6438141,17.0020689 C30.1432374,16.7937962 30.4686996,16.3256416 30.5628264,15.8534073 C30.6318391,15.5674148 31.0032418,13.9856847 31.0032418,13.0189812 L31.0032418,12.9567645 Z M28.5,4.54747351e-12 C27.2912568,4.54747351e-12 25.9967582,1.676177 25.9967582,4.17157352 L25.9967582,7.2146803 L24.5626007,7.2146803 C24.3030885,6.82261358 23.99784,6.60434543 23.913718,6.54865646 C23.7430239,6.43585058 23.5466031,6.37934565 23.3503865,6.37934565 C23.1539657,6.37934565 22.9577492,6.43564659 22.7868508,6.54865646 C22.702933,6.60414145 22.3974804,6.8224096 22.1377639,7.2146803 L1.36289878,7.2146803 C1.06500075,7.2146803 0.781803658,7.34462124 0.587833046,7.57084496 C0.489622662,7.68528275 -1.59161573e-12,8.30173728 -1.59161573e-12,9.20296035 C-1.59161573e-12,10.1041834 0.489826841,10.720434 0.587833046,10.8348717 C0.763223315,11.0392687 1.01232242,11.1661498 1.28081858,11.1877726 L21.8617131,12.8476305 C21.9564524,16.1422556 22.081002,20.4199034 22.1334761,22.2260213 C21.9693157,22.4118552 21.8778433,22.6517462 21.8778433,22.9010207 L21.8778433,24.6383943 C21.8778433,25.0888019 22.1734953,25.4857643 22.6053352,25.6152973 L23.7456782,25.9569787 C23.8418468,25.9859452 23.9406697,26.0000204 24.0388801,26.0000204 C24.255923,26.0000204 24.4701074,25.9308682 24.6483562,25.7982754 C24.6940924,25.7644132 24.7363576,25.7270832 24.7751517,25.6866934 L28.257843,25.6866934 L28.7423612,25.6866934 L32.2248483,25.6866934 C32.2636424,25.7270832 32.3061118,25.7644132 32.3516438,25.7982754 C32.5300968,25.9308682 32.744077,26.0000204 32.9611199,26.0000204 C33.0593303,26.0000204 33.1581532,25.9859452 33.254526,25.9569787 L34.3946648,25.6152973 C34.8267088,25.4857643 35.1223609,25.0888019 35.1223609,24.6383943 L35.1223609,22.9010207 C35.1223609,22.6517462 35.0308884,22.4118552 34.866728,22.2260213 C34.9192022,20.4199034 35.0435476,16.1420516 35.1384911,12.8476305 L55.7193856,11.1877726 C55.9878818,11.1661498 56.2369809,11.0392687 56.412167,10.8348717 C56.5103773,10.720434 57,10.1041834 57,9.20296035 C57,8.30173728 56.5103773,7.68528275 56.412167,7.57084496 C56.2184005,7.34462124 55.9352034,7.2146803 55.6371012,7.2146803 L34.8622361,7.2146803 C34.6027238,6.8224096 34.2974753,6.60414145 34.2135575,6.54865646 C34.0426592,6.43564659 33.8462384,6.37934565 33.6500219,6.37934565 C33.4536011,6.37934565 33.2573845,6.43564659 33.0864862,6.54865646 C33.0025684,6.60414145 32.6973199,6.8224096 32.4376034,7.2146803 L31.0032418,7.2146803 L31.0032418,4.17157352 C31.0032418,1.676177 29.7089474,4.54747351e-12 28.5,4.54747351e-12 L28.5,4.54747351e-12 Z M28.5,16.6642633 C28.5,16.6642633 28.097562,16.4976043 28.0842904,16.0947262 L27.9299306,16.0947262 C27.5117708,16.0947262 27.435816,15.6390149 27.435816,15.6390149 C27.435816,15.6390149 27.0176562,13.9301997 27.0176562,13.0189812 L27.0176562,11.9368199 L23.8436844,11.9368199 C23.7401653,15.5364085 23.583968,20.9074369 23.5359858,22.5595432 L28.257843,22.5593392 L28.5,22.5593392 L28.7423612,22.5593392 L33.4642184,22.5595432 C33.416032,20.9074369 33.2600388,15.5364085 33.1565198,11.9368199 L29.9823438,11.9368199 L29.9823438,13.0189812 C29.9823438,13.9301997 29.564184,15.6390149 29.564184,15.6390149 C29.564184,15.6390149 29.4882292,16.0947262 29.0700694,16.0947262 L28.9157096,16.0947262 C28.9026422,16.4976043 28.5,16.6642633 28.5,16.6642633 L28.5,16.6642633 Z M28.5,1.01994462 C28.9181598,1.01994462 29.9823438,2.04519296 29.9823438,4.17157352 L29.9823438,8.23462492 L33.0934283,8.23462492 C33.215936,7.68630269 33.6500219,7.39929028 33.6500219,7.39929028 C33.6500219,7.39929028 34.0839035,7.68630269 34.2064112,8.23462492 L55.6371012,8.23462492 C55.6371012,8.23462492 55.979102,8.63321928 55.979102,9.20296035 C55.979102,9.77249743 55.6371012,10.1710918 55.6371012,10.1710918 L34.1443406,11.9045897 C34.0391882,15.5594592 33.8789072,21.0694041 33.8333751,22.6335912 L34.1014629,22.9010207 L34.1014629,24.6383943 L32.9611199,24.9800758 L32.9611199,24.6667488 L28.7423612,24.6667488 L28.257843,24.6667488 L24.0390843,24.6667488 L24.0390843,24.9800758 L22.8987413,24.6383943 L22.8987413,22.9010207 L23.1666249,22.6335912 C23.1210928,21.0694041 22.9608118,15.5596632 22.8558635,11.9045897 L1.36289878,10.1710918 C1.36289878,10.1710918 1.02089796,9.77249743 1.02089796,9.20296035 C1.02089796,8.63321928 1.36289878,8.23462492 1.36289878,8.23462492 L22.7935888,8.23462492 C22.9160965,7.68630269 23.3503865,7.39929028 23.3503865,7.39929028 C23.3503865,7.39929028 23.7842681,7.68630269 23.9067759,8.23462492 L27.0176562,8.23462492 L27.0176562,4.17157352 C27.0176562,2.04519296 28.0818402,1.01994462 28.5,1.01994462 L28.5,1.01994462 Z" id="Fill-4" fill="#596B6A" mask="url(#mask-2)"/>
                </g>
                <path d="M28.0843108,16.0946854 C28.0973783,16.4975635 28.5000204,16.6642225 28.5000204,16.6642225 C28.5000204,16.6642225 28.9024584,16.4975635 28.9157301,16.0946854 L28.0843108,16.0946854 Z" id="Fill-7" fill="#596B6A"/>
            </g>
        </g>
    </g>
</svg>