<?xml version="1.0" encoding="UTF-8"?>
<svg width="50px" height="50px" viewBox="0 0 50 50" version="1.1" xmlns="http://www.w3.org/2000/svg" xmlns:xlink="http://www.w3.org/1999/xlink">
    <title>Planes/Eitan@3x</title>
    <defs>
        <polygon id="path-1" points="0 0 50 0 50 22.8070175 0 22.8070175"></polygon>
    </defs>
    <g id="Planes/Eitan" stroke="none" stroke-width="1" fill="none" fill-rule="evenodd">
        <g id="Group-10" transform="translate(25.000000, 25.000000) rotate(-360.000000) translate(-25.000000, -25.000000) translate(-0.000000, 13.596491)">
            <polygon id="Fill-1" fill="#596B6A" points="22.4900207 16.3416029 27.5099793 16.3416029 27.5099793 15.7015329 22.4900207 15.7015329"></polygon>
            <g id="Group-9">
                <path d="M21.106528,19.3416752 L28.8936511,19.3416752 C28.8435017,17.6170741 28.7315611,13.7657989 28.6495311,10.9181851 L26.7481534,10.9181851 L26.7481534,11.4201052 C26.7481534,12.2303349 26.4123317,13.6441213 26.3720331,13.8105334 C26.3129285,14.1249268 26.0852862,14.45453 25.7045091,14.5427462 C25.567673,14.8034584 25.330359,14.965218 25.1713138,15.0310671 C25.1165077,15.0537922 25.0581195,15.0650652 24.9999104,15.0650652 C24.9417014,15.0650652 24.8833132,15.0537922 24.8285071,15.0310671 C24.669641,14.965218 24.4325061,14.8034584 24.2954909,14.5427462 C23.9148929,14.45453 23.6872506,14.1251057 23.628146,13.8105334 C23.5880265,13.6444792 23.2520257,12.2305139 23.2520257,11.4201052 L23.2520257,10.9181851 L21.350648,10.9181851 C21.268618,13.7657989 21.1566774,17.6170741 21.106528,19.3416752 M28.9133526,22.3596376 C28.8182479,22.3596376 28.7242178,22.3293972 28.6461281,22.2712424 C28.5807548,22.2227503 28.5307846,22.1579749 28.5001576,22.0849683 L21.5000215,22.0849683 C21.4693946,22.1579749 21.4194243,22.2227503 21.354051,22.2712424 C21.2759613,22.3293972 21.1819312,22.3596376 21.0868265,22.3596376 C21.0436622,22.3596376 21.0004979,22.3535537 20.9582292,22.3408492 L19.9579283,22.0409497 C19.7686144,21.9842264 19.6389424,21.8101201 19.6389424,21.6125729 L19.6389424,20.0887399 C19.6389424,19.9701042 19.686047,19.8561209 19.7700472,19.7723781 L19.8683758,19.6741413 C19.8241369,18.1553185 19.7007336,13.9096648 19.6127931,10.8562727 L1.15961471,9.36786929 C1.04176368,9.3583856 0.93250969,9.30273599 0.855673685,9.21308822 C0.813942242,9.16459612 0.447851816,8.71904136 0.447851816,8.07253962 C0.447851816,7.42621681 0.813942242,6.98084099 0.855673685,6.93216995 C0.940748515,6.83303849 1.06486821,6.77595738 1.1956148,6.77595738 L19.6790619,6.77595738 C19.8771519,6.36457972 20.1921975,6.14609684 20.2355409,6.11746682 C20.3104067,6.06790109 20.3965562,6.04320769 20.4827056,6.04320769 C20.5688551,6.04320769 20.6548254,6.06790109 20.7296913,6.11746682 C20.7732138,6.14627578 21.0880802,6.36457972 21.2861702,6.77595738 L23.2520257,6.77595738 L23.2520257,3.65922133 C23.2520257,1.66925569 24.2702371,0.44746939 25.0000896,0.44746939 C25.729942,0.44746939 26.7481534,1.66925569 26.7481534,3.65922133 L26.7481534,6.77595738 L28.7140089,6.77595738 C28.9120989,6.36457972 29.2269653,6.14609684 29.2704878,6.11746682 C29.3453537,6.06790109 29.4315031,6.04320769 29.5174735,6.04320769 C29.6036229,6.04320769 29.6897724,6.06790109 29.7646382,6.11746682 C29.8079816,6.14627578 30.1230272,6.36457972 30.3211172,6.77595738 L48.8045643,6.77595738 C48.9353109,6.77595738 49.0594306,6.83303849 49.1445054,6.93216995 C49.1862369,6.98084099 49.5523273,7.42621681 49.5523273,8.07253962 C49.5523273,8.71904136 49.1862369,9.16459612 49.1445054,9.21308822 C49.0676694,9.30273599 48.9584154,9.3583856 48.8405644,9.36786929 L30.3872069,10.8562727 C30.3006992,13.8611727 30.1318033,19.6741413 30.1318033,19.6741413 L30.2299528,19.7723781 C30.3141321,19.8562999 30.3612367,19.9701042 30.3612367,20.0887399 L30.3612367,21.6125729 C30.3612367,21.8101201 30.2315647,21.9842264 30.0420717,22.0409497 L29.04195,22.3408492 C28.9996812,22.3535537 28.9565169,22.3596376 28.9133526,22.3596376" id="Fill-2" fill="#CAE0E0"></path>
                <g id="Group-6">
                    <mask id="mask-2" fill="white">
                        <use xlink:href="#path-1"></use>
                    </mask>
                    <g id="Clip-5"></g>
                    <path d="M27.1958261,11.3655829 L28.2143957,11.3655829 C28.288187,13.9199179 28.3807842,17.1137761 28.4325455,18.8942058 L25.2125975,18.8942058 L25,18.8942058 L24.7875816,18.8942058 L21.5674545,18.8942058 C21.6192158,17.1137761 21.7119921,13.9199179 21.7856043,11.3655829 L22.8041739,11.3655829 L22.8041739,11.4201589 C22.8041739,12.2681445 23.1301448,13.655806 23.1906822,13.9064976 C23.2732496,14.3207383 23.5587428,14.7312213 23.9966543,14.9140955 C24.1786249,15.1717658 24.42973,15.3501666 24.6570141,15.4442878 C24.7666263,15.489738 24.8834027,15.5124631 25,15.5124631 C25.1165973,15.5124631 25.2330155,15.489738 25.3428068,15.4442878 C25.57027,15.3501666 25.8213751,15.1717658 26.0033457,14.9140955 C26.4414363,14.7314002 26.7269295,14.3207383 26.8094969,13.9064976 C26.8700343,13.655627 27.1958261,12.2681445 27.1958261,11.4201589 L27.1958261,11.3655829 Z M25,2.72848411e-12 C23.939699,2.72848411e-12 22.8041739,1.4703307 22.8041739,3.65927501 L22.8041739,6.32866693 L21.546141,6.32866693 C21.3184987,5.98474876 21.0507368,5.79328547 20.9769456,5.74443549 C20.8272139,5.64548297 20.654915,5.59591724 20.4827952,5.59591724 C20.3104963,5.59591724 20.1383764,5.64530403 19.9884656,5.74443549 C19.9148535,5.79310653 19.6469126,5.98456982 19.4190912,6.32866693 L1.19552524,6.32866693 C0.934211186,6.32866693 0.685792682,6.44265021 0.515643022,6.64109207 C0.429493563,6.74147609 -1.59161573e-12,7.28222568 -1.59161573e-12,8.07277224 C-1.59161573e-12,8.86331879 0.429672668,9.40388944 0.515643022,9.50427346 C0.669494136,9.68356899 0.888002121,9.79486821 1.12352507,9.81383561 L19.1769413,11.2698513 C19.260046,14.1598733 19.3693,17.9121959 19.4153299,19.4965099 C19.2713296,19.6595221 19.1910906,19.8699528 19.1910906,20.0886146 L19.1910906,21.6126266 C19.1910906,22.0077209 19.4504345,22.3559336 19.8292414,22.469559 L20.8295423,22.7692796 C20.9139007,22.7946887 21.0005875,22.8070354 21.0867369,22.8070354 C21.2771254,22.8070354 21.4650065,22.7463756 21.6213651,22.6300661 C21.6614846,22.6003624 21.6985593,22.5676169 21.7325892,22.5321872 L24.7875816,22.5321872 L25.2125975,22.5321872 L28.2674108,22.5321872 C28.3014407,22.5676169 28.3386945,22.6003624 28.3786349,22.6300661 C28.5351726,22.7463756 28.7228746,22.8070354 28.9132631,22.8070354 C28.9994125,22.8070354 29.0860993,22.7946887 29.1706368,22.7692796 L30.1707586,22.469559 C30.5497446,22.3559336 30.8090885,22.0077209 30.8090885,21.6126266 L30.8090885,20.0886146 C30.8090885,19.8699528 30.7288495,19.6595221 30.5848492,19.4965099 C30.6308791,17.9121959 30.739954,14.1596944 30.8232378,11.2698513 L48.876654,9.81383561 C49.112177,9.79486821 49.330685,9.68356899 49.484357,9.50427346 C49.5705064,9.40388944 50,8.86331879 50,8.07277224 C50,7.28222568 49.5705064,6.74147609 49.484357,6.64109207 C49.3143864,6.44265021 49.0659679,6.32866693 48.8044748,6.32866693 L30.5809088,6.32866693 C30.3532665,5.98456982 30.0855047,5.79310653 30.0118926,5.74443549 C29.8619818,5.64530403 29.6896828,5.59591724 29.517563,5.59591724 C29.3452641,5.59591724 29.1731443,5.64530403 29.0232335,5.74443549 C28.9496214,5.79310653 28.6818595,5.98456982 28.4540381,6.32866693 L27.1958261,6.32866693 L27.1958261,3.65927501 C27.1958261,1.4703307 26.0604801,2.72848411e-12 25,2.72848411e-12 L25,2.72848411e-12 Z M25,14.6177748 C25,14.6177748 24.6469842,14.4715827 24.6353424,14.1181809 L24.4999391,14.1181809 C24.1331323,14.1181809 24.0665052,13.7184341 24.0665052,13.7184341 C24.0665052,13.7184341 23.6996984,12.2194734 23.6996984,11.4201589 L23.6996984,10.4708947 L20.9155126,10.4708947 C20.8247064,13.6284285 20.6876912,18.3398569 20.6456015,19.789073 L24.7875816,19.788894 L25,19.788894 L25.2125975,19.788894 L29.3545776,19.789073 C29.3123088,18.3398569 29.1754727,13.6284285 29.0846665,10.4708947 L26.3003016,10.4708947 L26.3003016,11.4201589 C26.3003016,12.2194734 25.9334948,13.7184341 25.9334948,13.7184341 C25.9334948,13.7184341 25.8668677,14.1181809 25.5000609,14.1181809 L25.3646576,14.1181809 C25.3531949,14.4715827 25,14.6177748 25,14.6177748 L25,14.6177748 Z M25,0.894688267 C25.3668068,0.894688267 26.3003016,1.79402891 26.3003016,3.65927501 L26.3003016,7.2233552 L29.0293231,7.2233552 C29.136786,6.74237078 29.517563,6.4906055 29.517563,6.4906055 C29.517563,6.4906055 29.898161,6.74237078 30.0056239,7.2233552 L48.8044748,7.2233552 C48.8044748,7.2233552 49.1044755,7.57299937 49.1044755,8.07277224 C49.1044755,8.57236617 48.8044748,8.92201034 48.8044748,8.92201034 L29.951176,10.4426225 C29.858937,13.6486485 29.7183396,18.4819334 29.6783992,19.8540273 L29.913564,20.0886146 L29.913564,21.6126266 L28.9132631,21.9123472 L28.9132631,21.6374989 L25.2125975,21.6374989 L24.7875816,21.6374989 L21.086916,21.6374989 L21.086916,21.9123472 L20.0866151,21.6126266 L20.0866151,20.0886146 L20.3216008,19.8540273 C20.2816604,18.4819334 20.141063,13.6488274 20.0490031,10.4426225 L1.19552524,8.92201034 C1.19552524,8.92201034 0.895524527,8.57236617 0.895524527,8.07277224 C0.895524527,7.57299937 1.19552524,7.2233552 1.19552524,7.2233552 L19.9943761,7.2233552 C20.101839,6.74237078 20.4827952,6.4906055 20.4827952,6.4906055 C20.4827952,6.4906055 20.8633931,6.74237078 20.970856,7.2233552 L23.6996984,7.2233552 L23.6996984,3.65927501 C23.6996984,1.79402891 24.6331932,0.894688267 25,0.894688267 L25,0.894688267 Z" id="Fill-4" fill="#596B6A" mask="url(#mask-2)"></path>
                </g>
                <path d="M24.6353603,14.1181451 C24.646823,14.4715469 25.0000179,14.617739 25.0000179,14.617739 C25.0000179,14.617739 25.3530337,14.4715469 25.3646755,14.1181451 L24.6353603,14.1181451 Z" id="Fill-7" fill="#596B6A"></path>
            </g>
        </g>
    </g>
</svg>