<?xml version="1.0" encoding="UTF-8" standalone="no"?>
<!-- Generator: Adobe Illustrator 21.1.0, SVG Export Plug-In . SVG Version: 6.00 Build 0)  -->

<svg
   xmlns:dc="http://purl.org/dc/elements/1.1/"
   xmlns:cc="http://creativecommons.org/ns#"
   xmlns:rdf="http://www.w3.org/1999/02/22-rdf-syntax-ns#"
   xmlns:svg="http://www.w3.org/2000/svg"
   xmlns="http://www.w3.org/2000/svg"
   xmlns:sodipodi="http://sodipodi.sourceforge.net/DTD/sodipodi-0.dtd"
   xmlns:inkscape="http://www.inkscape.org/namespaces/inkscape"
   version="1.1"
   id="Layer_1"
   x="0px"
   y="0px"
   viewBox="0 0 70 70"
   xml:space="preserve"
   inkscape:version="0.91pre4 r13712"
   sodipodi:docname="eitam.svg"
   width="70"
   height="70"><metadata
     id="metadata33"><rdf:RDF><cc:Work
         rdf:about=""><dc:format>image/svg+xml</dc:format><dc:type
           rdf:resource="http://purl.org/dc/dcmitype/StillImage" /><dc:title></dc:title></cc:Work></rdf:RDF></metadata><defs
     id="defs31" /><sodipodi:namedview
     pagecolor="#ffffff"
     bordercolor="#666666"
     borderopacity="1"
     objecttolerance="10"
     gridtolerance="10"
     guidetolerance="10"
     inkscape:pageopacity="0"
     inkscape:pageshadow="2"
     inkscape:window-width="1280"
     inkscape:window-height="961"
     id="namedview29"
     showgrid="false"
     inkscape:zoom="0.80272109"
     inkscape:cx="154.5"
     inkscape:cy="147"
     inkscape:window-x="-8"
     inkscape:window-y="-8"
     inkscape:window-maximized="1"
     inkscape:current-layer="Layer_1" /><style
     type="text/css"
     id="style3">
	.st0{fill:#F2F2F2;}
	.st1{fill:#596B6A;}
	.st2{fill:#A8C1C0;}
</style><g
     id="g5"
     transform="matrix(0.2,0,0,0.2,3.82,5.46)"><g
       id="g7"><path
         class="st0"
         d="m 192.8,260.8 c -0.4,0 -0.8,-0.1 -1.1,-0.3 l -32.3,-16 -0.9,2.5 c -0.3,1 -1.3,1.7 -2.4,1.7 l 0,0 c -1.1,0 -2,-0.7 -2.4,-1.7 l -0.9,-2.5 -32.3,16 c -0.4,0.2 -0.7,0.3 -1.1,0.3 -0.4,0 -0.9,-0.1 -1.3,-0.4 -0.7,-0.4 -1.2,-1.2 -1.2,-2.1 0,-2 0,-12.1 4.2,-15.9 1.8,-1.6 21.6,-18.4 27,-22.9 -0.6,-1.8 -1.4,-4.8 -1.7,-8.1 l -1.9,-1.1 c -0.5,0.5 -1.1,0.8 -1.8,0.8 l -8.3,0 c -1.1,0 -2.1,-0.8 -2.4,-1.9 -0.2,-0.6 -3.9,-15 -3.9,-23.1 0,-8.1 2.7,-16.8 2.8,-17.1 0.3,-1 1.2,-1.7 2.3,-1.7 0,0 2.7,-0.1 4.8,-0.1 l 1.2,0 c 1.8,0 4,0.1 4.6,0.1 -0.4,-2.1 -0.7,-4.4 -1,-7 l -17.6,1.5 c -0.5,2.2 -1.1,3.7 -1.2,3.7 -0.4,0.9 -1.3,1.5 -2.3,1.5 0,0 0,0 0,0 -1,0 -1.9,-0.6 -2.3,-1.5 0,-0.1 -0.5,-1 -0.9,-2.6 l -14.6,4.1 c -0.5,2.1 -1.1,3.5 -1.1,3.5 -0.4,0.9 -1.3,1.5 -2.3,1.5 0,0 0,0 0,0 -1,0 -1.9,-0.6 -2.3,-1.5 0,-0.1 -0.2,-0.5 -0.4,-1.1 l -16.1,7.9 c -0.5,2.7 -1.3,4.6 -1.4,4.7 -0.4,0.9 -1.3,1.5 -2.3,1.5 -1,0 -1.9,-0.6 -2.3,-1.5 0,-0.1 -0.3,-0.7 -0.6,-1.5 l -22.5,11 -3.7,6.9 c -0.4,0.8 -1.3,1.3 -2.2,1.3 -0.2,0 -0.4,0 -0.6,-0.1 -1.1,-0.3 -1.9,-1.3 -1.9,-2.4 l 0,-4.3 c 0,-0.2 0,-0.4 0.1,-0.6 l 3.1,-12.1 c 0.1,-0.6 0.5,-1 0.9,-1.4 l 90.1,-67 0,-35 c 0,-2.7 1.5,-5 3.8,-6.1 0.1,-3.2 0.4,-6.4 1.1,-9.5 l 0,-12 c 0,-6.8 5.5,-15.1 12.4,-15.1 6.9,0 12.4,8.2 12.4,15.1 l 0,12 c 0.7,3.1 1.1,6.3 1.1,9.6 2.2,1.1 3.6,3.4 3.6,6 l 0,34.8 90.4,67.2 c 0.5,0.3 0.8,0.8 0.9,1.4 l 3.1,12.1 c 0.1,0.2 0.1,0.4 0.1,0.6 l 0,4.3 c 0,1.1 -0.8,2.1 -1.9,2.4 -0.2,0 -0.4,0.1 -0.6,0.1 -0.9,0 -1.8,-0.5 -2.2,-1.3 l -3.7,-6.9 -22.5,-11 c -0.3,0.9 -0.5,1.4 -0.6,1.5 -0.4,0.9 -1.3,1.5 -2.3,1.5 -1,0 -1.9,-0.6 -2.3,-1.5 0,-0.1 -0.9,-2 -1.4,-4.7 l -16.1,-7.9 c -0.2,0.6 -0.4,1 -0.4,1.1 -0.4,0.9 -1.3,1.5 -2.3,1.5 0,0 0,0 0,0 -1,0 -1.9,-0.6 -2.3,-1.5 0,-0.1 -0.7,-1.5 -1.1,-3.5 L 193,162.9 c -0.4,1.5 -0.9,2.5 -0.9,2.6 -0.4,0.9 -1.3,1.5 -2.3,1.5 0,0 0,0 0,0 -1,0 -1.9,-0.6 -2.3,-1.5 0,-0.1 -0.7,-1.6 -1.2,-3.7 l -17.6,-1.5 c -0.2,2.6 -0.6,4.9 -1,7 0.6,0 2.8,-0.1 4.6,-0.1 l 1.2,0 c 2.1,0 4.8,0.1 4.8,0.1 1.1,0 2,0.7 2.3,1.7 0.1,0.4 2.8,9 2.8,17.1 0,8.1 -3.7,22.5 -3.9,23.1 -0.3,1.1 -1.3,1.9 -2.4,1.9 l -8.3,0 c -0.7,0 -1.4,-0.3 -1.8,-0.8 l -1.9,1.1 c -0.3,3.3 -1.1,6.3 -1.7,8.1 5.4,4.6 25.2,21.4 27,22.9 4.3,3.7 4.3,13.9 4.2,15.9 0,0.9 -0.5,1.6 -1.2,2.1 0.3,0.3 -0.2,0.4 -0.6,0.4 z"
         id="path9"
         inkscape:connector-curvature="0"
         style="fill:#f2f2f2" /><path
         class="st1"
         d="m 156.2,37 c 5.4,0 9.9,7.1 9.9,12.6 l 0,12.3 c 0.7,3.1 1.1,6.5 1.1,10.2 0,0.3 0,0.6 0,0.9 2,0.3 3.6,2.1 3.6,4.2 l 0,36.1 91.4,67.9 3.1,12.1 0,4.3 -4,-7.6 -26,-12.7 c -0.4,2.4 -1.2,4.1 -1.2,4.1 0,0 -1,-2.3 -1.3,-5.3 l -20,-9.8 c -0.4,2.2 -1.1,3.6 -1.1,3.6 0,0 -0.8,-1.9 -1.2,-4.5 l -18.7,-5.2 c -0.4,2.7 -1.3,4.7 -1.3,4.7 0,0 -1,-2.1 -1.3,-5 L 167.1,158 c -0.4,5.9 -1.3,10.5 -2.1,14 l 2.8,0.1 c 0.3,-1.2 0.6,-1.9 0.6,-1.9 0,0 2.6,-0.1 4.7,-0.1 0.2,0 0.3,0 0.5,0 0,0 0.1,0 0.1,0 0,0 0.1,0 0.1,0 0.2,0 0.3,0 0.5,0 2.1,0 4.7,0.1 4.7,0.1 0,0 2.7,8.5 2.7,16.4 0,7.9 -3.8,22.4 -3.8,22.4 l -2.5,0 -3.4,0 -2.5,0 c 0,0 -0.2,-0.7 -0.5,-1.9 l -5.6,3.2 c -0.2,5.3 -2.2,10.4 -2.2,10.4 0,0 26.3,22.2 28.3,24 3.6,3.1 3.4,13.9 3.4,13.9 L 158,241 l -1.8,5.2 0,0 0,0 0,0 -1.8,-5.2 -34.8,17.3 c 0,0 -0.2,-10.8 3.4,-13.9 2,-1.8 28.3,-24 28.3,-24 0,0 -2,-5.2 -2.2,-10.4 l -5.6,-3.2 c -0.3,1.2 -0.5,1.9 -0.5,1.9 l -2.5,0 -3.4,0 -2.5,0 c 0,0 -3.8,-14.6 -3.8,-22.4 0,-7.9 2.7,-16.4 2.7,-16.4 0,0 2.6,-0.1 4.7,-0.1 0.2,0 0.3,0 0.5,0 0,0 0.1,0 0.1,0 0,0 0.1,0 0.1,0 0.2,0 0.3,0 0.5,0 2.1,0 4.7,0.1 4.7,0.1 0,0 0.2,0.7 0.6,1.9 l 2.8,-0.1 c -0.8,-3.6 -1.8,-8.2 -2.1,-14 l -22.1,1.9 c -0.3,2.9 -1.3,5 -1.3,5 0,0 -0.9,-1.9 -1.3,-4.7 l -18.7,5.2 c -0.4,2.6 -1.2,4.5 -1.2,4.5 0,0 -0.7,-1.5 -1.1,-3.6 l -20,9.8 c -0.3,3.1 -1.3,5.3 -1.3,5.3 0,0 -0.8,-1.7 -1.2,-4.1 l -26,12.7 -4,7.6 0,-4.3 3.1,-12.1 91.1,-67.8 0,-36 c 0,-2.2 1.7,-4 3.8,-4.2 0,-0.3 0,-0.6 0,-0.9 0,-3.7 0.4,-7.1 1.1,-10.2 l 0,-12.3 c 0,-5.4 4.4,-12.5 9.9,-12.5 m 0,-5 c -4.1,0 -8.1,2.3 -11,6.3 -2.4,3.3 -3.9,7.5 -3.9,11.3 l 0,11.7 c -0.6,2.7 -0.9,5.5 -1.1,8.3 -2.4,1.7 -3.9,4.4 -3.9,7.5 l 0,33.7 -89.1,66.3 c -0.9,0.7 -1.6,1.7 -1.9,2.8 L 42.2,192 c -0.1,0.4 -0.2,0.8 -0.2,1.3 l 0,4.3 c 0,2.3 1.6,4.3 3.8,4.9 0.4,0.1 0.8,0.1 1.2,0.1 1.8,0 3.5,-1 4.4,-2.7 l 3.3,-6.2 19.4,-9.5 c 0.9,1.3 2.4,2.1 4.1,2.1 0,0 0,0 0,0 2,0 3.7,-1.1 4.5,-2.9 0.1,-0.2 0.8,-1.8 1.3,-4.1 L 96.8,173 c 0.9,1.1 2.3,1.7 3.8,1.7 0,0 0,0 0,0 2,0 3.7,-1.1 4.5,-2.9 0.1,-0.2 0.5,-1.1 0.9,-2.5 l 11,-3.1 c 0.1,0.3 0.2,0.5 0.2,0.6 0.8,1.8 2.6,2.9 4.5,2.9 0,0 0,0 0,0 2,0 3.7,-1.1 4.5,-2.9 0.1,-0.2 0.5,-1.1 0.9,-2.4 l 13.4,-1.2 c 0.1,0.6 0.1,1.2 0.2,1.7 -0.5,0 -1.1,0 -1.6,0 l -0.5,0 -0.1,0 -0.1,0 -0.5,0 c -2.1,0 -4.7,0.1 -4.8,0.1 -2.1,0.1 -4,1.5 -4.6,3.5 -0.1,0.4 -2.9,9.4 -2.9,17.9 0,8.4 3.8,23.1 4,23.7 0.6,2.2 2.6,3.7 4.8,3.7 l 2.5,0 3.4,0 2.5,0 c 0.5,0 1,-0.1 1.4,-0.2 0.3,2 0.7,3.8 1.1,5.2 -6.7,5.7 -24.1,20.4 -25.8,21.9 -5,4.3 -5.1,14.7 -5.1,17.8 0,1.7 0.9,3.3 2.4,4.2 0.8,0.5 1.7,0.7 2.6,0.7 0.8,0 1.5,-0.2 2.2,-0.5 l 29.7,-14.8 c 0.8,1.9 2.6,3.2 4.6,3.2 2.1,0 3.9,-1.3 4.6,-3.2 l 29.7,14.8 c 0.7,0.3 1.5,0.5 2.2,0.5 0.9,0 1.8,-0.2 2.6,-0.7 1.5,-0.9 2.4,-2.5 2.4,-4.2 0.1,-3.1 -0.1,-13.4 -5.1,-17.8 -1.7,-1.5 -19.1,-16.3 -25.8,-21.9 0.4,-1.5 0.8,-3.3 1.1,-5.2 0.5,0.1 0.9,0.2 1.4,0.2 l 2.5,0 3.4,0 2.5,0 c 2.3,0 4.3,-1.5 4.8,-3.7 0.2,-0.6 4,-15.3 4,-23.7 0,-8.5 -2.8,-17.5 -2.9,-17.9 -0.6,-2 -2.5,-3.4 -4.6,-3.5 -0.1,0 -2.7,-0.1 -4.8,-0.1 l -0.5,0 -0.1,0 -0.1,0 -0.5,0 c -0.5,0 -1.1,0 -1.6,0 0.1,-0.6 0.2,-1.1 0.2,-1.7 l 13.4,1.2 c 0.4,1.4 0.8,2.3 0.9,2.4 0.8,1.8 2.6,2.9 4.5,2.9 0,0 0,0 0,0 2,0 3.7,-1.1 4.5,-2.9 0,-0.1 0.1,-0.3 0.2,-0.6 l 11,3.1 c 0.4,1.4 0.8,2.4 0.9,2.5 0.8,1.8 2.6,2.9 4.5,2.9 0,0 0,0 0,0 1.5,0 2.9,-0.7 3.8,-1.7 l 12.8,6.3 c 0.5,2.3 1.2,3.8 1.3,4.1 0.8,1.8 2.6,2.9 4.5,2.9 1.6,0 3.2,-0.8 4.1,-2.1 l 19.4,9.5 3.3,6.2 c 0.9,1.7 2.6,2.7 4.4,2.7 0.4,0 0.8,0 1.2,-0.1 2.2,-0.6 3.8,-2.6 3.8,-4.9 l 0,-4.3 c 0,-0.4 -0.1,-0.8 -0.2,-1.3 l -3.1,-12.1 c -0.3,-1.1 -0.9,-2.1 -1.9,-2.8 l -89.3,-66.4 0,-33.6 c 0,-3 -1.4,-5.7 -3.6,-7.4 -0.1,-2.9 -0.5,-5.7 -1.1,-8.5 l 0,-11.7 C 171,41.4 164.5,32 156.2,32 l 0,0 z"
         id="path11"
         inkscape:connector-curvature="0"
         style="fill:#596b6a" /></g><path
       class="st2"
       d="m 144.6,171.8 c -0.3,-1.2 -0.5,-1.9 -0.5,-1.9 0,0 -2.6,-0.1 -4.7,-0.1 -0.2,0 -0.3,0 -0.5,0 0,0 -0.1,0 -0.1,0 0,0 -0.1,0 -0.1,0 -0.2,0 -0.3,0 -0.5,0 -2.1,0 -4.7,0.1 -4.7,0.1 0,0 -0.2,0.7 -0.5,1.9 l 11.6,0 z"
       id="path13"
       inkscape:connector-curvature="0"
       style="fill:#a8c1c0" /><g
       id="g15"><path
         class="st1"
         d="m 149.3,60.4 c -0.9,1.6 -1.7,3.6 -2,5.9 0.7,0.4 1.6,0.8 1.6,0.8 0,0 0.8,-2.1 2.1,-4 l -1.7,-2.7 z"
         id="path17"
         inkscape:connector-curvature="0"
         style="fill:#596b6a" /><path
         class="st1"
         d="m 150.1,59.2 1.7,2.8 c 1.1,-1.3 2.4,-2.4 3.9,-2.4 l 0,-5.6 c 0,-0.1 -3.1,1.6 -5.6,5.2 z"
         id="path19"
         inkscape:connector-curvature="0"
         style="fill:#596b6a" /></g><path
       class="st2"
       d="m 167.7,171.8 c 0.3,-1.2 0.5,-1.9 0.5,-1.9 0,0 2.6,-0.1 4.7,-0.1 0.2,0 0.3,0 0.5,0 0,0 0.1,0 0.1,0 0,0 0.1,0 0.1,0 0.2,0 0.3,0 0.5,0 2.1,0 4.7,0.1 4.7,0.1 0,0 0.2,0.7 0.5,1.9 l -11.6,0 z"
       id="path21"
       inkscape:connector-curvature="0"
       style="fill:#a8c1c0" /><g
       id="g23"><path
         class="st1"
         d="m 160.5,61.9 1.7,-2.8 c -2.5,-3.6 -5.6,-5.3 -5.6,-5.3 l 0,5.6 c 1.5,0.1 2.9,1.2 3.9,2.5 z"
         id="path25"
         inkscape:connector-curvature="0"
         style="fill:#596b6a" /><path
         class="st1"
         d="m 163,60.4 -1.6,2.7 c 1.3,2 2.1,4 2.1,4 0,0 0.9,-0.3 1.6,-0.8 -0.4,-2.3 -1.2,-4.2 -2.1,-5.9 z"
         id="path27"
         inkscape:connector-curvature="0"
         style="fill:#596b6a" /></g></g></svg>