<?xml version="1.0" encoding="UTF-8" standalone="no"?>

<svg xmlns="http://www.w3.org/2000/svg" xmlns:xlink="http://www.w3.org/1999/xlink" width="58px" height="28px" viewBox="0 0 58 28" version="1.1">
    <title>SpecificAirplanes/Heron2_Eitan/Color</title>
    <defs>
        <polygon id="path-1" points="0 1.85919344e-05 57.1333087 1.85919344e-05 57.1333087 26.9583049 0 26.9583049"/>
    </defs>
    <g id="2022" stroke="none" stroke-width="1" fill="none" fill-rule="evenodd">
        <g id="Planes" transform="translate(-165.000000, -288.000000)">
            <g id="Group" transform="translate(162.428571, 269.857143)">
                <g id="Heron2_Eitan" transform="translate(3.368421, 18.400000)">
                    <polygon id="Fill-1" fill="#596B6A" points="25.1573042 18.5202023 31.8504005 18.5202023 31.8504005 18.2002023 25.1573042 18.2002023"/>
                    <g id="Group-9">
                        <path d="M33.1238551,23.400199 C33.0931784,22.3636987 33.0212276,20.2637397 32.9461162,18.0615251 C32.895918,16.5996413 32.8440465,15.0797506 32.8003554,13.762698 L30.5890308,13.762698 L30.5890308,15.5895415 C30.5890308,15.5990234 30.5886589,15.6081334 30.5881012,15.6174294 C30.5633739,16.0316577 30.3906548,17.9475565 29.3257088,18.2918792 C29.3208749,18.315305 29.3156692,18.3387308 29.3093479,18.3621567 C29.3058154,18.3764725 29.3013534,18.3902305 29.2965195,18.4039885 L29.2470649,18.5410111 C29.2418592,18.5556987 29.2359098,18.5702004 29.2290308,18.5845162 C29.0856869,18.8829167 28.8280027,19.0541485 28.5214217,19.0541485 C28.1990376,19.0541485 27.9342884,18.880128 27.7954067,18.5768935 C27.7879699,18.5610904 27.7816487,18.5447295 27.7760711,18.5279967 L27.7312645,18.3909742 C27.7262447,18.3755429 27.7219686,18.3597397 27.718622,18.3437506 C27.7104416,18.306009 27.7041203,18.2686392 27.6992864,18.232199 C27.25308,18.0159748 26.6521887,17.393331 26.5462146,15.6172435 C26.5456569,15.6081334 26.545285,15.5988375 26.545285,15.5895415 L26.545285,13.762698 L24.3166699,13.762698 C24.2017717,17.0917698 24.0485742,21.7124232 23.9929843,23.400199 L33.1238551,23.400199 Z M23.1290171,26.4935251 C23.0044511,26.4935251 22.8852768,26.4435128 22.7977088,26.3546433 C22.7103267,26.2659598 22.6621736,26.1458559 22.6642187,26.02129 L22.6961969,24.029536 C22.6763035,23.2033105 22.5614053,19.7918764 22.4500396,16.4925517 L22.3563363,13.7000432 C16.2360574,13.179469 2.89151059,12.0407131 1.95113055,11.9276741 C0.570865345,11.7623918 0.460615174,11.0867609 0.46513048,10.3494048 L0.46513048,10.2530986 C0.46513048,9.48078961 1.12155844,9.15524484 1.56237321,9.12493999 C1.57315653,9.12419631 1.58356801,9.12382447 1.59435133,9.12382447 L22.3925906,9.12382447 C22.5247792,8.46659959 22.7428626,7.75304115 23.3355735,7.75304115 C23.9238223,7.75304115 24.1499002,8.47310677 24.2928722,9.12382447 L26.545285,9.12382447 L26.545285,4.22577936 C26.545285,2.9343836 27.3324675,0.464816951 28.5664142,0.464816951 L28.5671579,0.464816951 C29.8016623,0.464816951 30.5890308,2.9343836 30.5890308,4.22577936 L30.5890308,9.12382447 L32.8380971,9.12382447 C32.9700998,8.48965359 33.1790731,7.77033165 33.7552372,7.75322707 C33.7706685,7.75229747 33.7877731,7.75155379 33.7978127,7.75155379 C34.3903377,7.75155379 34.6074915,8.46790103 34.7396801,9.12233712 L55.5388489,9.12233712 C55.5496323,9.12233712 55.5602297,9.12270895 55.5708271,9.12345263 C56.0118278,9.1539434 56.6684315,9.47948817 56.6684315,10.2517971 L56.6684315,10.3477315 C56.672771,11.0852735 56.5623349,11.7609044 55.1822556,11.9265586 C54.2292331,12.0407131 40.6545181,13.1988046 34.8380314,13.693536 C34.8315243,13.6942797 34.7592016,13.7007869 34.7592016,13.7007869 C34.6162297,17.8453009 34.412648,24.0522182 34.412648,24.0522182 L34.4128339,26.0287267 C34.4128339,26.2854813 34.2046042,26.4935251 33.9480355,26.4935251 L23.1290171,26.4935251 Z" id="Fill-2" fill="#CAE0E0"/>
                        <g id="Group-6">
                            <mask id="mask-2" fill="white">
                                <use xlink:href="#path-1"/>
                            </mask>
                            <g id="Clip-5"/>
                            <path d="M31.0538663,14.2274964 L32.3508396,14.2274964 C32.3911841,15.440806 32.4374781,16.7928115 32.4822846,18.0972216 C32.5469846,19.9919256 32.6090816,21.8104027 32.6445922,22.9354007 L24.4730652,22.9354007 C24.5353482,21.0512941 24.6627029,17.2263754 24.7657023,14.2274964 L26.0805239,14.2274964 L26.0805239,15.5895415 C26.0805239,15.6081334 26.0810816,15.6265394 26.0821971,15.6451314 C26.1519169,16.8117753 26.5131582,18.0395866 27.2966223,18.5568142 L27.334178,18.6720842 C27.3453332,18.7057356 27.3581616,18.7388293 27.3728492,18.7709933 C27.587772,19.2393241 28.0172457,19.5189468 28.5214589,19.5189468 C29.0059647,19.5189468 29.427072,19.2450876 29.6477583,18.7864246 C29.6615163,18.757793 29.673787,18.7284178 29.6845703,18.6984848 L29.7079962,18.6335989 C30.5810734,18.1714034 30.978383,16.8744301 31.052193,15.6453173 C31.0533085,15.6267254 31.0538663,15.6081334 31.0538663,15.5895415 L31.0538663,14.2274964 Z M28.5671951,1.85919344e-05 L28.5668232,1.85919344e-05 L28.5664514,1.85919344e-05 C28.0358376,1.85919344e-05 27.2715232,0.298790977 26.6455327,1.72256131 C26.296934,2.51513548 26.0805239,3.47429337 26.0805239,4.22577936 L26.0805239,8.65902611 L24.655638,8.65902611 C24.4656284,7.98618401 24.1194466,7.28824279 23.3354247,7.28824279 C22.5460112,7.28824279 22.2055929,7.98023459 22.0241356,8.65902611 L1.59438852,8.65902611 C1.57319371,8.65902611 1.55181299,8.65976979 1.53043226,8.66125714 C0.770208066,8.71350048 0.000687901572,9.27720793 0.000687901572,10.2530986 L-9.76625017e-06,10.3464301 C-0.00321640465,10.9354226 -0.0106531784,12.160817 1.89594969,12.3893118 C2.82331538,12.5006775 15.6093605,13.5925818 21.9055191,14.1282154 C21.9311759,14.8906707 21.9588779,15.7155948 21.9869517,16.554091 C22.0966442,19.8084232 22.210055,23.1726338 22.2310638,24.0408771 L22.1996435,26.0138532 C22.1957392,26.2627992 22.2916735,26.5031929 22.4666237,26.6807459 C22.6412019,26.8582988 22.8799224,26.9583234 23.1290543,26.9583234 L33.9478868,26.9583234 C34.461396,26.9583234 34.8774835,26.54205 34.8774835,26.0287267 L34.8774835,24.0520323 C34.8886387,23.7170056 35.0725129,18.1156276 35.2097214,14.1284014 C42.4668971,13.5109632 54.3363598,12.4960295 55.2376968,12.3878245 C57.1441137,12.1593296 57.136677,10.9339352 57.1333087,10.3451286 L57.1333087,10.2517971 C57.1333087,9.65202133 56.8325129,9.14743623 56.3095218,8.86762761 C55.9923434,8.69806917 55.6885512,8.66571921 55.6028424,8.65976979 C55.5816476,8.65828243 55.5602668,8.65753876 55.5388861,8.65753876 L35.1082094,8.65753876 C34.927124,7.98097826 34.5876353,7.28675543 33.7978499,7.28675543 C33.78372,7.28675543 33.7608519,7.28749911 33.7387275,7.28880055 C32.974785,7.31055311 32.647381,8.00273083 32.4707576,8.65902611 L31.0538663,8.65902611 L31.0538663,4.22577936 C31.0538663,3.47429337 30.8372703,2.51513548 30.4886715,1.72237539 C29.8624951,0.298790977 29.0979948,1.85919344e-05 28.5671951,1.85919344e-05 L28.5671951,1.85919344e-05 Z M28.5214589,18.5893501 C28.3626838,18.5893501 28.2710256,18.4995511 28.2178526,18.3833515 L28.1730461,18.2463289 C28.1341889,18.0650576 28.1546401,17.8802537 28.1546401,17.8802537 C27.1469572,17.8802537 27.0101206,15.5895415 27.0101206,15.5895415 L27.0101206,13.2978997 L23.8677118,13.2978997 C23.7377542,17.0385969 23.5471869,22.8054431 23.5126059,23.8649974 L33.6015191,23.8649974 C33.5754904,22.7256837 33.3720946,17.0088498 33.2501315,13.2978997 L30.1242696,13.2978997 L30.1242696,15.5895415 C30.1242696,15.5895415 29.9865033,17.8802537 28.9795642,17.8802537 L28.9022217,17.8802537 C28.901664,17.9806502 28.892368,18.1180446 28.8592744,18.2463289 L28.8100057,18.3833515 C28.7527426,18.5021539 28.6635013,18.5893501 28.5214589,18.5893501 L28.5214589,18.5893501 Z M28.5671951,0.929615311 C29.3456394,0.929615311 30.1242696,2.94330772 30.1242696,4.22577936 L30.1242696,9.58862283 L33.2192689,9.58862283 L33.2188971,9.58713548 C33.2229873,9.56742802 33.2272634,9.54716282 33.2319114,9.52689761 C33.3127863,9.11582994 33.4728629,8.21783951 33.7760973,8.21783951 C33.7775847,8.21783951 33.7919005,8.21635215 33.7978499,8.21635215 C34.1144705,8.21635215 34.2751049,9.15598852 34.3522614,9.57505072 C34.353191,9.57895502 34.3541206,9.58323117 34.3550502,9.58713548 L55.5388861,9.58713548 C55.5388861,9.58713548 56.2031759,9.63287163 56.2031759,10.2517971 C56.2031759,10.8696071 56.2714083,11.3277124 55.1267029,11.4649208 C54.1162313,11.5861403 38.4408137,12.9206693 34.7782026,13.2320842 L34.7782026,13.232456 L34.3089422,13.2728005 C34.1654124,17.4039284 33.9478868,24.0369728 33.9478868,24.0369728 L33.9478868,26.0287267 L23.1290543,26.0287267 L23.1610324,24.0369728 C23.1337023,22.8939407 22.9306783,16.9818915 22.807042,13.271871 C20.2777952,13.0569482 3.06705564,11.593577 2.0065717,11.4662223 C0.861866302,11.3291997 0.930284621,10.8709085 0.930284621,10.2530986 C0.930284621,9.63435899 1.59438852,9.58862283 1.59438852,9.58862283 L22.7785963,9.58862283 C22.8550092,9.16788735 23.0160153,8.21783951 23.3354247,8.21783951 C23.6537187,8.21783951 23.828111,9.16788735 23.9145635,9.58862283 L27.0101206,9.58862283 L27.0101206,4.22577936 C27.0101206,2.94330772 27.7885649,0.929615311 28.5664514,0.929615311 L28.5671951,0.941514149 L28.5671951,0.929615311 L28.5671951,0.929615311 Z" id="Fill-4" fill="#596B6A" mask="url(#mask-2)"/>
                        </g>
                        <path d="M29.4958994,5.27858483 C29.4958994,5.79246589 29.0798119,6.20706603 28.5664886,6.20706603 C28.0535371,6.20706603 27.6376355,5.79246589 27.6376355,5.27858483 C27.6376355,4.76563336 28.0535371,4.34787259 28.5664886,4.34787259 C29.0798119,4.34787259 29.4958994,4.76563336 29.4958994,5.27858483" id="Fill-7" fill="#596B6A"/>
                    </g>
                </g>
            </g>
        </g>
    </g>
</svg>