<?xml version="1.0" encoding="UTF-8" standalone="no"?>
<!-- Created with Inkscape (http://www.inkscape.org/) -->

<svg width="50" height="50" viewBox="0 0 50 50" fill="none" xmlns="http://www.w3.org/2000/svg">
<g clip-path="url(#clip0_973_94268)">
<mask id="mask0_973_94268" style="mask-type:alpha" maskUnits="userSpaceOnUse" x="8" y="0" width="34" height="49">
<path fill-rule="evenodd" clip-rule="evenodd" d="M8.37921 40.4101C8.29362 40.3245 8.2391 40.209 8.2303 40.0807C8.19571 39.509 7.9061 34.4507 8.60844 32.8842C8.68759 32.7089 8.85937 32.5923 9.05108 32.5835C9.19706 32.577 9.336 32.6327 9.43567 32.7324C9.4685 32.7652 9.49664 32.8027 9.52009 32.8438C9.64907 33.0736 9.74405 33.3562 9.81381 33.637L21.0883 19.2517C21.3762 18.1279 21.8827 17.3552 22.1055 17.055L22.3769 13.6435L19.4438 14.5809C19.2867 14.6314 19.1161 14.6026 18.9842 14.5047C18.9643 14.4895 18.9449 14.4736 18.9273 14.4561C18.83 14.3587 18.7755 14.2257 18.7773 14.0867L18.7949 13.0432C18.8019 12.5941 18.9807 12.1702 19.2973 11.8501L22.9368 8.17068C22.9861 3.98003 24.4834 1.08504 24.5491 0.961927C24.637 0.794255 24.8111 0.689313 25.0005 0.688726C25.1383 0.689313 25.2672 0.744422 25.3616 0.838811C25.3974 0.874573 25.4279 0.915612 25.4519 0.961927C25.517 1.08563 27.0155 3.97945 27.0642 8.17068L30.7049 11.8501C31.0215 12.169 31.1991 12.5929 31.2061 13.0432L31.2231 14.0861C31.2261 14.2509 31.1493 14.4062 31.0168 14.5047C30.8849 14.6026 30.7137 14.6308 30.5571 14.5809L27.624 13.6447L27.8949 17.0544C28.1177 17.3546 28.6254 18.1273 28.9132 19.2511L40.1872 33.637C40.2569 33.3562 40.3519 33.0736 40.4809 32.8438C40.5753 32.6755 40.7559 32.5747 40.9487 32.5835C41.0783 32.5887 41.1985 32.6433 41.2876 32.7324C41.3304 32.7752 41.3668 32.8268 41.392 32.8848C42.0955 34.4513 41.8053 39.509 41.7695 40.0807C41.7537 40.3498 41.5297 40.5596 41.2601 40.5596L40.6286 40.5591C40.4885 40.5596 40.3601 40.5028 40.2675 40.4101C40.1796 40.3222 40.1239 40.202 40.1186 40.0678L40.101 39.5812L29.2932 40.0977L29.3043 40.9155C29.306 41.0779 29.2316 41.2309 29.1032 41.3288L28.5251 41.7674C28.4829 42.4498 28.3381 44.2807 27.9711 45.1589C27.892 45.3494 27.7055 45.4726 27.4998 45.4731L25.7767 45.4726C25.7726 46.2623 25.7263 47.5949 25.4853 48.3306C25.4173 48.5405 25.2209 48.6818 24.9999 48.6824C24.8616 48.6824 24.7326 48.6273 24.6388 48.5335C24.5831 48.4778 24.5403 48.408 24.5151 48.33C24.2747 47.5949 24.2284 46.2623 24.2237 45.4731L22.5018 45.4726C22.3629 45.4731 22.2339 45.4169 22.1401 45.3231C22.0944 45.2773 22.0568 45.2211 22.0305 45.1583C21.6629 44.2807 21.5181 42.4486 21.4753 41.7668L20.8984 41.3282C20.8802 41.3148 20.8626 41.2995 20.8462 41.2831C20.7495 41.1864 20.6949 41.0544 20.6967 40.9155L20.7078 40.0977L9.89999 39.5812L9.88182 40.0683C9.87127 40.3427 9.64614 40.5596 9.37177 40.5596L8.74036 40.5591C8.59965 40.5591 8.47184 40.5028 8.37921 40.4101Z" fill="#CAE0E0"/>
</mask>
<g mask="url(#mask0_973_94268)">
<path d="M56.0892 0.322754H-6.09387V48.8776H56.0892V0.322754Z" fill="black"/>
<path d="M56.0892 16.5077H-6.09387V48.8776H56.0892V16.5077Z" fill="#DD0000"/>
<path d="M56.0892 32.6927H-6.09387V48.8776H56.0892V32.6927Z" fill="#FFCE00"/>
<path d="M56.0892 13.6946H-6.09387V39.9541H56.0892V13.6946Z" fill="black"/>
<path d="M56.0892 22.4478H-6.09387V39.9541H56.0892V22.4478Z" fill="#DD0000"/>
<path d="M56.0892 31.2009H-6.09387V39.9541H56.0892V31.2009Z" fill="#FFCE00"/>
</g>
<mask id="mask1_973_94268" style="mask-type:luminance" maskUnits="userSpaceOnUse" x="-4" y="-1" width="58" height="59">
<path fill-rule="evenodd" clip-rule="evenodd" d="M25 -0.244141L53.9984 28.7543L24.9999 57.7529L-3.99857 28.7544L25 -0.244141Z" fill="white"/>
</mask>
<g mask="url(#mask1_973_94268)">
<path fill-rule="evenodd" clip-rule="evenodd" d="M25.722 0.477903C25.5333 0.289124 25.2747 0.17832 25.0003 0.17832C24.621 0.178906 24.2728 0.38879 24.0963 0.724722C24.0307 0.850183 22.5263 3.75573 22.4296 7.95751L18.9331 11.4915C18.5233 11.9049 18.2929 12.453 18.2841 13.0352L18.2671 14.0781C18.263 14.3566 18.372 14.6228 18.5661 14.8168C18.6012 14.852 18.6388 14.8849 18.6792 14.9148C18.9436 15.1112 19.2854 15.168 19.5991 15.0678L21.8064 14.3625L21.6076 16.8711C21.3409 17.2528 20.9 17.9915 20.6209 19.0198L9.97196 32.6071C9.96961 32.6025 9.96785 32.5983 9.96551 32.5948C9.91861 32.5116 9.86174 32.436 9.79666 32.3709C9.59733 32.1715 9.31944 32.0602 9.02865 32.0731C8.64406 32.0906 8.30051 32.324 8.1428 32.6752C7.40528 34.319 7.66147 39.1587 7.72127 40.112C7.73769 40.3699 7.84791 40.6009 8.01792 40.7709C8.20319 40.9562 8.4588 41.0699 8.73962 41.0705L9.37162 41.0693C9.91098 41.0705 10.3554 40.6507 10.39 40.1155L20.19 40.5845L20.1859 40.9087C20.1824 41.1866 20.2909 41.451 20.4849 41.6451C20.5172 41.6773 20.5517 41.7072 20.5893 41.7353L20.9803 42.0326C21.0407 42.8821 21.1984 44.4926 21.559 45.3561C21.6105 45.4816 21.6868 45.5918 21.7788 45.6838C21.967 45.872 22.225 45.9834 22.5011 45.984L23.7205 45.984C23.7422 46.7948 23.8149 47.8337 24.0295 48.4891C24.0811 48.6451 24.1673 48.7829 24.2781 48.8937C24.4651 49.0807 24.7225 49.1927 25.0003 49.1927C25.4418 49.1932 25.8328 48.9089 25.9712 48.4891C26.1852 47.8331 26.2579 46.7954 26.2796 45.9834L27.499 45.9834C27.9112 45.9828 28.2823 45.736 28.4417 45.3561C28.8029 44.4931 28.9594 42.8815 29.0198 42.0332L29.4108 41.7359C29.6694 41.5395 29.8183 41.2335 29.8148 40.9087L29.8095 40.5845L39.6096 40.1155C39.6266 40.3717 39.7368 40.6015 39.9062 40.7709C40.0915 40.9562 40.3471 41.0699 40.6291 41.0705L41.2605 41.0699C41.7999 41.0699 42.246 40.6507 42.2788 40.1125C42.3381 39.1587 42.5948 34.3196 41.8579 32.6751C41.8057 32.5608 41.7342 32.4576 41.648 32.3715C41.4704 32.1938 41.2306 32.0842 40.9709 32.0731C40.5857 32.0561 40.2234 32.2577 40.0346 32.5954C40.0328 32.5984 40.0305 32.603 40.0282 32.6066L29.3798 19.0198C29.0995 17.9915 28.6592 17.2534 28.3925 16.8705L28.1937 14.3619L30.4016 15.0678C30.7141 15.168 31.0565 15.1106 31.3203 14.9147C31.5847 14.7195 31.7383 14.4076 31.733 14.0787L31.716 13.0346C31.7067 12.453 31.4763 11.9049 31.067 11.4909L27.5705 7.95692C27.4732 3.75573 25.97 0.84901 25.9038 0.724135C25.8551 0.632091 25.7936 0.549427 25.722 0.477903M25.0003 1.19951C25.0003 1.19951 26.5545 4.15372 26.5545 8.38188L30.3412 12.2085C30.5634 12.433 30.69 12.7355 30.6953 13.0515L30.7123 14.0945L27.0546 12.926L27.3981 17.2468C27.3981 17.2468 28.1093 18.0799 28.4429 19.4805L40.5106 34.8783C40.5106 34.8783 40.5827 33.7063 40.9257 33.0937C41.5975 34.591 41.2599 40.0491 41.2599 40.0491L40.6284 40.0486L40.5915 39.0466L28.7753 39.6112L28.7935 40.9227L28.029 41.5031C28.029 41.5031 27.9076 43.9859 27.4996 44.9627L25.5004 44.9627L25.2612 44.8735C25.2612 44.8735 25.3186 47.1963 24.9997 48.1719C24.6814 47.1969 24.7382 44.8735 24.7382 44.8735L24.4996 44.9621L22.5005 44.9621C22.093 43.9859 21.9711 41.5037 21.9711 41.5037L21.2072 40.9227L21.2247 39.6118L9.40792 39.0466L9.37157 40.0491L8.74016 40.0486C8.74016 40.0486 8.40247 34.5904 9.07375 33.0937C9.41789 33.7063 9.48941 34.8788 9.48941 34.8788L21.5566 19.4805C21.8907 18.0793 22.6025 17.2468 22.6025 17.2468L22.946 12.926L19.2877 14.0951L19.3047 13.0509C19.3094 12.7355 19.4366 12.4336 19.6588 12.209L23.4455 8.38247C23.4461 4.15372 25.0003 1.19951 25.0003 1.19951" fill="#596B6A"/>
</g>
</g>
<defs>
<clipPath id="clip0_973_94268">
<rect width="50" height="50" fill="white"/>
</clipPath>
</defs>
</svg>
