<?xml version="1.0" encoding="UTF-8" standalone="no"?>
<svg
   xmlns:dc="http://purl.org/dc/elements/1.1/"
   xmlns:cc="http://creativecommons.org/ns#"
   xmlns:rdf="http://www.w3.org/1999/02/22-rdf-syntax-ns#"
   xmlns:svg="http://www.w3.org/2000/svg"
   xmlns="http://www.w3.org/2000/svg"
   xmlns:xlink="http://www.w3.org/1999/xlink"
   xmlns:sodipodi="http://sodipodi.sourceforge.net/DTD/sodipodi-0.dtd"
   xmlns:inkscape="http://www.inkscape.org/namespaces/inkscape"
   width="50"
   height="50"
   viewBox="0 0 50 50"
   version="1.1"
   id="svg26"
   sodipodi:docname="harvard.svg"
   inkscape:version="0.92.4 (5da689c313, 2019-01-14)">
  <metadata
     id="metadata30">
    <rdf:RDF>
      <cc:Work
         rdf:about="">
        <dc:format>image/svg+xml</dc:format>
        <dc:type
           rdf:resource="http://purl.org/dc/dcmitype/StillImage" />
      </cc:Work>
    </rdf:RDF>
  </metadata>
  <sodipodi:namedview
     pagecolor="#ffffff"
     bordercolor="#666666"
     borderopacity="1"
     objecttolerance="10"
     gridtolerance="10"
     guidetolerance="10"
     inkscape:pageopacity="0"
     inkscape:pageshadow="2"
     inkscape:window-width="1920"
     inkscape:window-height="1017"
     id="namedview28"
     showgrid="false"
     inkscape:zoom="4.72"
     inkscape:cx="23.305085"
     inkscape:cy="25"
     inkscape:window-x="-8"
     inkscape:window-y="-8"
     inkscape:window-maximized="1"
     inkscape:current-layer="svg26" />
  <defs
     id="defs4">
    <path
       id="a"
       d="M.08.145h1.673v1.949H.079z" />
    <path
       id="c"
       d="M0 33.005h45.332V.15H0z" />
    <filter
       inkscape:collect="always"
       style="color-interpolation-filters:sRGB"
       id="filter890"
       x="-0.15556883"
       width="1.3111377"
       y="-0.2135343"
       height="1.4270686">
      <feGaussianBlur
         inkscape:collect="always"
         stdDeviation="2.8897716"
         id="feGaussianBlur892" />
    </filter>
  </defs>
  <g
     id="g916"
     transform="translate(-2.1785414e-6,-3.8124998)">
    <g
       transform="translate(2.334999,12.423167)"
       id="g860"
       style="opacity:0.5;fill:#000000;fill-opacity:1;fill-rule:evenodd;filter:url(#filter890)">
      <path
         d="m 23.19,2.03 h 0.743 c 0.667,0 1.208,0.54 1.208,1.208 V 4.58 c 0.3,0.3 0.15,1.05 0.15,1.05 1.05,0.3 0.9,1.35 0.9,1.35 H 27.69 L 43.5,9.71 c 0.865,0.15 1.51,0.918 1.452,1.794 A 2.241,2.241 0 0 1 44.94,11.63 c -0.084,0.668 -0.26,1.428 -0.4,1.972 a 0.994,0.994 0 0 1 -0.94,0.745 l -18.626,0.43 a 0.153,0.153 0 0 0 -0.149,0.136 l -1.022,9.347 a 0.153,0.153 0 0 0 0.1,0.16 l 4.505,1.639 c 0.395,0.144 0.743,0.41 0.95,0.777 0.244,0.431 0.357,1.069 -0.168,1.894 -0.976,1.533 -3.376,1.9 -5.035,0.742 A 1.64,1.64 0 0 1 23.63,28.86 c -0.072,-0.144 -0.29,-0.093 -0.29,0.069 v 0.55 c 0,0 -0.15,3.15 -0.6,3.15 h -0.15 c -0.45,0 -0.6,-3.15 -0.6,-3.15 v -0.55 c 0,-0.162 -0.218,-0.213 -0.29,-0.069 a 1.637,1.637 0 0 1 -0.526,0.612 c -1.658,1.158 -4.058,0.791 -5.034,-0.742 -0.525,-0.825 -0.413,-1.463 -0.169,-1.894 0.207,-0.367 0.555,-0.633 0.951,-0.777 l 4.505,-1.638 a 0.153,0.153 0 0 0 0.1,-0.16 l -1.022,-9.348 a 0.153,0.153 0 0 0 -0.15,-0.136 L 1.73,14.347 A 0.994,0.994 0 0 1 0.79,13.602 C 0.65,13.058 0.473,12.298 0.39,11.63 A 2.39,2.39 0 0 1 0.378,11.504 C 0.32,10.628 0.966,9.86 1.83,9.71 L 17.64,6.979 h 1.5 c 0,0 -0.15,-1.05 0.9,-1.35 0,0 -0.15,-0.75 0.15,-1.05 V 3.238 c 0,-0.667 0.54,-1.208 1.208,-1.208 h 1.792"
         id="path840"
         inkscape:connector-curvature="0"
         style="fill:#000000;fill-opacity:1" />
      <path
         d="m 23.19,2.03 h 0.743 c 0.667,0 1.208,0.54 1.208,1.208 V 4.58 c 0.3,0.3 0.15,1.05 0.15,1.05 1.05,0.3 0.9,1.35 0.9,1.35 H 27.69 L 43.5,9.71 c 0.865,0.15 1.51,0.918 1.452,1.794 A 2.241,2.241 0 0 1 44.94,11.63 c -0.084,0.668 -0.26,1.428 -0.4,1.972 a 0.994,0.994 0 0 1 -0.94,0.745 l -18.626,0.43 a 0.153,0.153 0 0 0 -0.149,0.136 l -1.022,9.347 a 0.153,0.153 0 0 0 0.1,0.16 l 4.505,1.639 c 0.395,0.144 0.743,0.41 0.95,0.777 0.244,0.431 0.357,1.069 -0.168,1.894 -0.976,1.533 -3.376,1.9 -5.035,0.742 A 1.64,1.64 0 0 1 23.63,28.86 c -0.072,-0.144 -0.29,-0.093 -0.29,0.069 v 0.55 c 0,0 -0.15,3.15 -0.6,3.15 h -0.15 c -0.45,0 -0.6,-3.15 -0.6,-3.15 v -0.55 c 0,-0.162 -0.218,-0.213 -0.29,-0.069 a 1.637,1.637 0 0 1 -0.526,0.612 c -1.658,1.158 -4.058,0.791 -5.034,-0.742 -0.525,-0.825 -0.413,-1.463 -0.169,-1.894 0.207,-0.367 0.555,-0.633 0.951,-0.777 l 4.505,-1.638 a 0.153,0.153 0 0 0 0.1,-0.16 l -1.022,-9.348 a 0.153,0.153 0 0 0 -0.15,-0.136 L 1.73,14.347 A 0.994,0.994 0 0 1 0.79,13.602 C 0.65,13.058 0.473,12.298 0.39,11.63 A 2.39,2.39 0 0 1 0.378,11.504 C 0.32,10.628 0.966,9.86 1.83,9.71 L 17.64,6.979 h 1.5 c 0,0 -0.15,-1.05 0.9,-1.35 0,0 -0.15,-0.75 0.15,-1.05 V 3.238 c 0,-0.667 0.54,-1.208 1.208,-1.208 h 1.792"
         id="path842"
         inkscape:connector-curvature="0"
         style="fill:#000000;fill-opacity:1;stroke:#596b6a;stroke-width:0.75;stroke-linecap:round;stroke-linejoin:round" />
      <g
         style="fill:#000000;fill-opacity:1"
         transform="translate(21.75,0.005)"
         id="g850">
        <mask
           id="mask846"
           fill="#fff">
          <use
             xlink:href="#a"
             id="use844"
             x="0"
             y="0"
             width="100%"
             height="100%" />
        </mask>
        <path
           d="M 1.75,1.71 A 2.908,2.908 0 0 0 1.19,0.282 0.342,0.342 0 0 0 0.642,0.282 2.91,2.91 0 0 0 0.082,1.71 0.342,0.342 0 0 0 0.42,2.094 h 0.992 c 0.205,0 0.362,-0.18 0.338,-0.384"
           mask="url(#b)"
           id="path848"
           inkscape:connector-curvature="0"
           style="fill:#000000;fill-opacity:1" />
      </g>
      <mask
         id="mask854"
         fill="#fff">
        <use
           xlink:href="#c"
           id="use852"
           x="0"
           y="0"
           width="100%"
           height="100%" />
      </mask>
      <path
         d="m 18.441,1.28 h 8.45 V 0.998 h -8.45 z m 4.32,4.215 c 0.403,0 0.766,0.13 1.02,0.336 v -1.1 c 0,-0.7 -0.462,-1.273 -1.034,-1.287 h -0.023 c -0.58,0.003 -1.052,0.58 -1.052,1.287 v 1.16 c 0.255,-0.24 0.648,-0.396 1.09,-0.396"
         mask="url(#d)"
         id="path856"
         inkscape:connector-curvature="0"
         style="fill:#000000;fill-opacity:1" />
      <path
         d="M 23.78,6.106 C 23.571,5.868 23.193,5.708 22.761,5.708 c -0.484,0 -0.902,0.2 -1.089,0.489 v 3.546 l 0.002,10e-4 c 0.017,3.027 0.157,7.967 1.052,7.969 v 0.005 c 0.893,0 1.035,-4.9 1.053,-7.932 h 0.002 v -3.68 z"
         mask="url(#d)"
         id="path858"
         inkscape:connector-curvature="0"
         style="fill:#000000;fill-opacity:1" />
    </g>
    <g
       style="fill:none;fill-rule:evenodd"
       id="g24"
       transform="translate(2.334999,12.423167)">
      <path
         style="fill:#fee857"
         inkscape:connector-curvature="0"
         id="path6"
         d="m 23.19,2.03 h 0.743 c 0.667,0 1.208,0.54 1.208,1.208 V 4.58 c 0.3,0.3 0.15,1.05 0.15,1.05 1.05,0.3 0.9,1.35 0.9,1.35 H 27.69 L 43.5,9.71 c 0.865,0.15 1.51,0.918 1.452,1.794 A 2.241,2.241 0 0 1 44.94,11.63 c -0.084,0.668 -0.26,1.428 -0.4,1.972 a 0.994,0.994 0 0 1 -0.94,0.745 l -18.626,0.43 a 0.153,0.153 0 0 0 -0.149,0.136 l -1.022,9.347 a 0.153,0.153 0 0 0 0.1,0.16 l 4.505,1.639 c 0.395,0.144 0.743,0.41 0.95,0.777 0.244,0.431 0.357,1.069 -0.168,1.894 -0.976,1.533 -3.376,1.9 -5.035,0.742 A 1.64,1.64 0 0 1 23.63,28.86 c -0.072,-0.144 -0.29,-0.093 -0.29,0.069 v 0.55 c 0,0 -0.15,3.15 -0.6,3.15 h -0.15 c -0.45,0 -0.6,-3.15 -0.6,-3.15 v -0.55 c 0,-0.162 -0.218,-0.213 -0.29,-0.069 a 1.637,1.637 0 0 1 -0.526,0.612 c -1.658,1.158 -4.058,0.791 -5.034,-0.742 -0.525,-0.825 -0.413,-1.463 -0.169,-1.894 0.207,-0.367 0.555,-0.633 0.951,-0.777 l 4.505,-1.638 a 0.153,0.153 0 0 0 0.1,-0.16 l -1.022,-9.348 a 0.153,0.153 0 0 0 -0.15,-0.136 L 1.73,14.347 A 0.994,0.994 0 0 1 0.79,13.602 C 0.65,13.058 0.473,12.298 0.39,11.63 A 2.39,2.39 0 0 1 0.378,11.504 C 0.32,10.628 0.966,9.86 1.83,9.71 L 17.64,6.979 h 1.5 c 0,0 -0.15,-1.05 0.9,-1.35 0,0 -0.15,-0.75 0.15,-1.05 V 3.238 c 0,-0.667 0.54,-1.208 1.208,-1.208 h 1.792" />
      <path
         style="stroke:#596b6a;stroke-width:0.75;stroke-linecap:round;stroke-linejoin:round"
         inkscape:connector-curvature="0"
         id="path8"
         d="m 23.19,2.03 h 0.743 c 0.667,0 1.208,0.54 1.208,1.208 V 4.58 c 0.3,0.3 0.15,1.05 0.15,1.05 1.05,0.3 0.9,1.35 0.9,1.35 H 27.69 L 43.5,9.71 c 0.865,0.15 1.51,0.918 1.452,1.794 A 2.241,2.241 0 0 1 44.94,11.63 c -0.084,0.668 -0.26,1.428 -0.4,1.972 a 0.994,0.994 0 0 1 -0.94,0.745 l -18.626,0.43 a 0.153,0.153 0 0 0 -0.149,0.136 l -1.022,9.347 a 0.153,0.153 0 0 0 0.1,0.16 l 4.505,1.639 c 0.395,0.144 0.743,0.41 0.95,0.777 0.244,0.431 0.357,1.069 -0.168,1.894 -0.976,1.533 -3.376,1.9 -5.035,0.742 A 1.64,1.64 0 0 1 23.63,28.86 c -0.072,-0.144 -0.29,-0.093 -0.29,0.069 v 0.55 c 0,0 -0.15,3.15 -0.6,3.15 h -0.15 c -0.45,0 -0.6,-3.15 -0.6,-3.15 v -0.55 c 0,-0.162 -0.218,-0.213 -0.29,-0.069 a 1.637,1.637 0 0 1 -0.526,0.612 c -1.658,1.158 -4.058,0.791 -5.034,-0.742 -0.525,-0.825 -0.413,-1.463 -0.169,-1.894 0.207,-0.367 0.555,-0.633 0.951,-0.777 l 4.505,-1.638 a 0.153,0.153 0 0 0 0.1,-0.16 l -1.022,-9.348 a 0.153,0.153 0 0 0 -0.15,-0.136 L 1.73,14.347 A 0.994,0.994 0 0 1 0.79,13.602 C 0.65,13.058 0.473,12.298 0.39,11.63 A 2.39,2.39 0 0 1 0.378,11.504 C 0.32,10.628 0.966,9.86 1.83,9.71 L 17.64,6.979 h 1.5 c 0,0 -0.15,-1.05 0.9,-1.35 0,0 -0.15,-0.75 0.15,-1.05 V 3.238 c 0,-0.667 0.54,-1.208 1.208,-1.208 h 1.792" />
      <g
         id="g15"
         transform="translate(21.75,0.005)">
        <mask
           fill="#fff"
           id="b">
          <use
             height="100%"
             width="100%"
             y="0"
             x="0"
             id="use10"
             xlink:href="#a" />
        </mask>
        <path
           style="fill:#596b6a"
           inkscape:connector-curvature="0"
           id="path13"
           mask="url(#b)"
           d="M 1.75,1.71 A 2.908,2.908 0 0 0 1.19,0.282 0.342,0.342 0 0 0 0.642,0.282 2.91,2.91 0 0 0 0.082,1.71 0.342,0.342 0 0 0 0.42,2.094 h 0.992 c 0.205,0 0.362,-0.18 0.338,-0.384" />
      </g>
      <mask
         fill="#fff"
         id="d">
        <use
           height="100%"
           width="100%"
           y="0"
           x="0"
           id="use17"
           xlink:href="#c" />
      </mask>
      <path
         style="fill:#596b6a"
         inkscape:connector-curvature="0"
         id="path20"
         mask="url(#d)"
         d="m 18.441,1.28 h 8.45 V 0.998 h -8.45 z m 4.32,4.215 c 0.403,0 0.766,0.13 1.02,0.336 v -1.1 c 0,-0.7 -0.462,-1.273 -1.034,-1.287 h -0.023 c -0.58,0.003 -1.052,0.58 -1.052,1.287 v 1.16 c 0.255,-0.24 0.648,-0.396 1.09,-0.396" />
      <path
         style="fill:#596b6a"
         inkscape:connector-curvature="0"
         id="path22"
         mask="url(#d)"
         d="M 23.78,6.106 C 23.571,5.868 23.193,5.708 22.761,5.708 c -0.484,0 -0.902,0.2 -1.089,0.489 v 3.546 l 0.002,10e-4 c 0.017,3.027 0.157,7.967 1.052,7.969 v 0.005 c 0.893,0 1.035,-4.9 1.053,-7.932 h 0.002 v -3.68 z" />
    </g>
  </g>
</svg>
