<?xml version="1.0" encoding="UTF-8" standalone="no"?>

<svg width="50" height="50" viewBox="0 0 50 50" fill="none" xmlns="http://www.w3.org/2000/svg">
<path fill-rule="evenodd" clip-rule="evenodd" d="M24.9625 42.4396C24.703 42.4396 24.4848 42.2697 24.4196 42.0168L24.1129 40.8297L18.4318 40.2005C17.9099 40.1803 17.3878 39.8574 17.3878 39.2714V37.0015C17.3878 36.4038 17.9102 36.0858 18.3956 36.0432L23.6196 35.4727C23.3345 34.0236 22.4634 29.3264 22.409 25.7916L4.93509 22.698C4.62538 22.6435 4.40063 22.3739 4.40063 22.0571V18.8893C4.40063 17.874 5.25073 17.4758 5.82222 17.4557L19.571 16.7206L22.1849 15.5892C22.208 14.5438 22.33 11.1146 22.9462 9.97129C23.2702 9.37027 23.8944 9.20996 24.2123 9.20996H25.7127C26.0306 9.20996 26.6549 9.37027 26.9788 9.97129C27.5951 11.1146 27.717 14.5438 27.7401 15.5892L30.3541 16.7206L44.1102 17.4561C44.6743 17.4758 45.5244 17.874 45.5244 18.8893V22.0571C45.5244 22.3739 45.2997 22.6435 44.9899 22.698L27.516 25.7916C27.4617 29.3264 26.5906 34.0236 26.3054 35.4727L31.5379 36.044C32.0148 36.0858 32.5373 36.4038 32.5373 37.0015V39.2714C32.5373 39.8574 32.0152 40.1803 31.4932 40.2005L25.8123 40.8297L25.5055 42.0168C25.4402 42.2697 25.2221 42.4396 24.9625 42.4396" fill="#F2F2F2"/>
<path fill-rule="evenodd" clip-rule="evenodd" d="M25.7129 8.8064H24.2124C24.1004 8.8064 23.1036 8.83368 22.5941 9.77872C21.9795 10.9189 21.8277 13.9691 21.7904 15.3206L19.4786 16.3214L5.80007 17.0528C5.07324 17.0817 4 17.593 4 18.8893V22.0571C4 22.57 4.36405 23.0069 4.86581 23.0957L22.0158 26.1318C22.1083 29.3505 22.8102 33.3695 23.143 35.1187L18.3513 35.6421C17.6716 35.7055 16.987 36.1913 16.987 37.0015V39.2714C16.987 39.9072 17.473 40.5629 18.4025 40.6033L23.7947 41.2006L24.0318 42.1185C24.142 42.5452 24.5249 42.8432 24.9626 42.8432C25.4004 42.8432 25.7833 42.5452 25.8935 42.1185L26.1306 41.2006L31.5238 40.6031C32.2331 40.5697 32.9382 40.1075 32.9382 39.2714V37.0015C32.9382 36.1913 32.2537 35.7057 31.574 35.6421L26.7823 35.1187C27.1151 33.3695 27.8169 29.3505 27.9094 26.1318L45.0595 23.0957C45.5611 23.0069 45.9253 22.57 45.9253 22.0571V18.8893C45.9253 18.1808 45.5776 17.5952 44.9715 17.2829C44.5904 17.0866 44.2214 17.0572 44.1275 17.0528L30.4467 16.3214L28.1349 15.3206C28.0976 13.9691 27.9458 10.9189 27.3312 9.77872C26.8217 8.83368 25.8249 8.8064 25.7129 8.8064M25.7129 9.61357C25.7129 9.61357 26.3301 9.61357 26.6266 10.1637C27.2884 11.3913 27.3443 15.8571 27.3443 15.8571L30.2615 17.1198L44.0892 17.8592C44.0892 17.8592 45.1238 17.8953 45.1238 18.8893V22.0571C45.1238 22.1771 45.0382 22.2798 44.9208 22.3006L27.1181 25.4523C27.1181 29.6147 25.8256 35.8263 25.8256 35.8263L31.4948 36.4454C31.4948 36.4454 32.1366 36.5015 32.1366 37.0015V39.2714C32.1366 39.7808 31.465 39.7976 31.465 39.7976L25.4941 40.459L25.1178 41.9153C25.097 41.9958 25.0298 42.036 24.9626 42.036C24.8955 42.036 24.8283 41.9958 24.8075 41.9153L24.4312 40.459L18.4603 39.7976C18.4603 39.7976 17.7885 39.7808 17.7885 39.2714V37.0015C17.7885 36.5015 18.4305 36.4454 18.4305 36.4454L24.0997 35.8263C24.0997 35.8263 22.8072 29.6147 22.8072 25.4523L5.00447 22.3006C4.88713 22.2798 4.80153 22.1771 4.80153 22.0571V18.8893C4.80153 17.8953 5.83614 17.8592 5.83614 17.8592L19.6638 17.1198L22.581 15.8571C22.581 15.8571 22.6369 11.3913 23.2985 10.1637C23.5952 9.61357 24.2124 9.61357 24.2124 9.61357H25.7129" fill="#596B6A"/>
<path fill-rule="evenodd" clip-rule="evenodd" d="M27.135 25.4512L26.5914 25.6819L26.4968 27.2518L27.135 27.2904C27.2103 26.4162 27.135 25.4512 27.135 25.4512" fill="#596B6A"/>
<path fill-rule="evenodd" clip-rule="evenodd" d="M27.363 16.458L26.4495 18.3804V20.2277H27.363V16.458Z" fill="#596B6A"/>
<mask id="mask0_973_94310" style="mask-type:luminance" maskUnits="userSpaceOnUse" x="4" y="7" width="42" height="36">
<path fill-rule="evenodd" clip-rule="evenodd" d="M4 42.8432H45.9253V7L4 7L4 42.8432Z" fill="white"/>
</mask>
<g mask="url(#mask0_973_94310)">
<path fill-rule="evenodd" clip-rule="evenodd" d="M26.4495 22.9265H27.363V20.4116H26.4495V22.9265Z" fill="#596B6A"/>
<path fill-rule="evenodd" clip-rule="evenodd" d="M27.363 23.3477H26.6397L26.5913 25.0301H27.2191L27.363 23.3477Z" fill="#596B6A"/>
<path fill-rule="evenodd" clip-rule="evenodd" d="M22.8081 25.4512L23.3517 25.6819L23.4462 27.2518L22.7808 27.2904C22.7055 26.4162 22.8081 25.4512 22.8081 25.4512" fill="#596B6A"/>
<path fill-rule="evenodd" clip-rule="evenodd" d="M24.9627 14.3643C26.0165 14.3643 26.5457 14.7964 26.81 15.1969C27.0141 15.5064 27.0584 15.8955 26.937 16.2464L26.4016 17.7954H24.9627H23.5238L22.9884 16.2464C22.867 15.8955 22.9113 15.5064 23.1153 15.1969C23.3797 14.7964 23.909 14.3643 24.9627 14.3643" fill="#596B6A"/>
<path fill-rule="evenodd" clip-rule="evenodd" d="M22.5801 16.458L23.4937 18.3804V20.2277H22.5801V16.458Z" fill="#596B6A"/>
<path fill-rule="evenodd" clip-rule="evenodd" d="M22.5801 22.9265H23.4937V20.4116H22.5801V22.9265Z" fill="#596B6A"/>
<path fill-rule="evenodd" clip-rule="evenodd" d="M22.5801 23.3477H23.3034L23.3518 25.0301H22.724L22.5801 23.3477Z" fill="#596B6A"/>
<path fill-rule="evenodd" clip-rule="evenodd" d="M25.8775 9.27333C25.8775 7.75697 24.9625 7 24.9625 7C24.9625 7 24.0476 7.75697 24.0476 9.27333H25.8775Z" fill="#596B6A"/>
<path fill-rule="evenodd" clip-rule="evenodd" d="M20.448 8.39212H29.4774V8.08911H20.448V8.39212Z" fill="#596B6A"/>
</g>
</svg>
