<svg xmlns="http://www.w3.org/2000/svg" width="50" height="50" viewBox="0 0 50 50" fill="none">
<path fill-rule="evenodd" clip-rule="evenodd" d="M37.8824 38.9353C37.6989 39.1188 37.4245 39.153 37.1995 39.0202L36.1433 38.3977L31.6812 41.9699C31.2979 42.3247 30.7004 42.4656 30.286 42.0512L28.6809 40.4461C28.2583 40.0235 28.4029 39.4292 28.716 39.0559L32.0065 34.9585C30.7802 34.1355 26.8428 31.43 24.3049 28.969L9.76148 39.1374C9.5039 39.3178 9.15435 39.2861 8.93038 39.0622L6.69038 36.8222C5.97248 36.1043 6.29198 35.2215 6.68193 34.8033L15.8839 24.5616L16.9323 21.9133C16.2093 21.1577 13.8708 18.6466 13.4981 17.4025C13.3022 16.7484 13.6302 16.1937 13.855 15.9689L14.916 14.9079C15.1408 14.6831 15.6955 14.3551 16.3496 14.551C17.5938 14.9237 20.1048 17.2622 20.8604 17.9851L23.5087 16.9368L33.7558 7.72982C34.1687 7.34486 35.0514 7.02536 35.7693 7.74326L38.0093 9.98326C38.2332 10.2072 38.265 10.5568 38.0845 10.8144L27.9161 25.3578C30.3771 27.8957 33.0827 31.8331 33.9056 33.0594L38.0096 29.7634C38.3764 29.4558 38.9707 29.3112 39.3932 29.7338L40.9983 31.3389C41.4127 31.7533 41.2718 32.3508 40.917 32.7341L37.345 37.1961L37.9674 38.2524C38.1001 38.4774 38.0659 38.7518 37.8824 38.9353" fill="#F2F2F2"/>
<path fill-rule="evenodd" clip-rule="evenodd" d="M14.6307 14.6225L13.5697 15.6835C13.4904 15.7627 12.8049 16.4868 13.1129 17.5153C13.4846 18.7562 15.534 21.0203 16.4633 22.0024L15.5362 24.3447L6.38129 34.5341C5.88778 35.0685 5.4904 36.1889 6.40703 37.1055L8.64704 39.3455C9.0097 39.7082 9.57601 39.7597 9.99359 39.4676L24.2673 29.4876C26.6087 31.6982 29.9469 34.0438 31.4191 35.0453L28.4009 38.8036C27.9652 39.3291 27.8245 40.1567 28.3975 40.7296L30.0026 42.3347C30.4521 42.7842 31.2595 42.9042 31.9452 42.2755L36.1804 38.885L36.9972 39.3665C37.3768 39.5902 37.8583 39.5302 38.1678 39.2206C38.4774 38.9111 38.5373 38.4297 38.3136 38.05L37.8322 37.2333L41.2233 32.9972C41.7012 32.472 41.8729 31.6467 41.2817 31.0555L39.6767 29.4504C39.1037 28.8775 38.2763 29.0181 37.7508 29.4538L33.9924 32.4719C32.9909 30.9998 30.6453 27.6616 28.4347 25.3202L38.4148 11.0464C38.7067 10.629 38.6554 10.0625 38.2927 9.69986L36.0527 7.45986C35.5517 6.95885 34.8918 6.79068 34.2423 6.99838C33.8341 7.12902 33.5524 7.36918 33.4829 7.43252L23.2919 16.5891L20.9496 17.5161C19.9675 16.5868 17.7034 14.5374 16.4625 14.1657C15.434 13.8577 14.7099 14.5433 14.6307 14.6225M15.2014 15.1933C15.2014 15.1933 15.6378 14.7569 16.2366 14.9362C17.5725 15.3363 20.7698 18.4545 20.7698 18.4545L23.7255 17.2846L34.0259 8.0298C34.0259 8.0298 34.7831 7.32379 35.4859 8.02663L37.7259 10.2666C37.8107 10.3514 37.8228 10.4846 37.7546 10.5823L27.3947 25.3993C30.338 28.3426 33.8163 33.6487 33.8163 33.6487L38.2628 30.0778C38.2628 30.0778 38.7564 29.6636 39.1099 30.0172L40.715 31.6223C41.0751 31.9824 40.6121 32.4692 40.6121 32.4692L36.8577 37.159L37.6214 38.4548C37.6636 38.5265 37.6446 38.6024 37.5971 38.6499C37.5496 38.6974 37.4736 38.7164 37.4019 38.6742L36.1061 37.9105L31.4164 41.6649C31.4164 41.6649 30.9295 42.1281 30.5693 41.7679L28.9642 40.1628C28.6107 39.8093 29.025 39.3156 29.025 39.3156L32.5959 34.8691C32.5959 34.8691 27.2897 31.3908 24.3464 28.4476L9.52945 38.8074C9.43175 38.8756 9.29861 38.8636 9.2138 38.7788L6.9738 36.5388C6.27097 35.8359 6.97698 35.0788 6.97698 35.0788L16.2318 24.7784L17.4017 21.8227C17.4017 21.8227 14.2834 18.6253 13.8832 17.2895C13.704 16.6907 14.1404 16.2543 14.1404 16.2543L15.2014 15.1933" fill="#596B6A"/>
<path fill-rule="evenodd" clip-rule="evenodd" d="M27.406 25.3865L27.1847 25.934L28.228 27.111L28.7065 26.6871C28.1416 26.0157 27.406 25.3865 27.406 25.3865" fill="#596B6A"/>
<path fill-rule="evenodd" clip-rule="evenodd" d="M21.2079 18.866L21.9212 20.8713L23.2274 22.1776L23.8734 21.5316L21.2079 18.866Z" fill="#596B6A"/>
<mask id="mask0_0_722" style="mask-type:luminance" maskUnits="userSpaceOnUse" x="-2" y="-1" width="55" height="56">
<path fill-rule="evenodd" clip-rule="evenodd" d="M23.345 54.0435L52.9907 24.3978L27.6457 -0.947175L-2 28.6985L23.345 54.0435Z" fill="white"/>
</mask>
<g mask="url(#mask0_0_722)">
<path fill-rule="evenodd" clip-rule="evenodd" d="M25.1358 24.0859L25.7818 23.4399L24.0035 21.6617L23.3575 22.3077L25.1358 24.0859Z" fill="#596B6A"/>
<path fill-rule="evenodd" clip-rule="evenodd" d="M26.0796 23.7378L25.5682 24.2492L26.7236 25.4731L27.1675 25.0292L26.0796 23.7378Z" fill="#596B6A"/>
<path fill-rule="evenodd" clip-rule="evenodd" d="M24.3463 28.4462L24.8938 28.2249L26.0708 29.2682L25.6276 29.766C24.9562 29.2011 24.3463 28.4462 24.3463 28.4462" fill="#596B6A"/>
<path fill-rule="evenodd" clip-rule="evenodd" d="M18.0302 19.0831C18.7754 18.3379 19.4552 18.2693 19.9253 18.3656C20.2884 18.4401 20.5948 18.6839 20.7572 19.0179L21.4738 20.4918L20.4564 21.5093L19.4389 22.5267L17.9651 21.81C17.6311 21.6477 17.3873 21.3413 17.3127 20.9781C17.2164 20.508 17.2851 19.8281 18.0302 19.0831" fill="#596B6A"/>
<path fill-rule="evenodd" clip-rule="evenodd" d="M17.8258 22.2481L19.8311 22.9615L21.1374 24.2677L20.4914 24.9137L17.8258 22.2481Z" fill="#596B6A"/>
<path fill-rule="evenodd" clip-rule="evenodd" d="M22.3997 26.822L23.0457 26.1761L21.2675 24.3978L20.6215 25.0438L22.3997 26.822Z" fill="#596B6A"/>
<path fill-rule="evenodd" clip-rule="evenodd" d="M22.6975 27.1199L23.209 26.6084L24.4329 27.7639L23.989 28.2078L22.6975 27.1199Z" fill="#596B6A"/>
<path fill-rule="evenodd" clip-rule="evenodd" d="M15.0773 14.8362C14.0051 13.764 12.8228 13.8757 12.8228 13.8757C12.8228 13.8757 12.7112 15.0579 13.7834 16.1301L15.0773 14.8362Z" fill="#596B6A"/>
<path fill-rule="evenodd" clip-rule="evenodd" d="M10.6148 18.0523L16.9995 11.6676L16.7852 11.4534L10.4005 17.8381L10.6148 18.0523Z" fill="#596B6A"/>
</g>
</svg>