<?xml version="1.0" encoding="UTF-8" standalone="no"?>
<!-- Generator: Adobe Illustrator 21.1.0, SVG Export Plug-In . SVG Version: 6.00 Build 0)  -->

<svg width="50" height="50" viewBox="0 0 50 50" fill="none" xmlns="http://www.w3.org/2000/svg">
<g clip-path="url(#clip0_973_94266)">
<mask id="mask0_973_94266" style="mask-type:alpha" maskUnits="userSpaceOnUse" x="8" y="0" width="34" height="49">
<path fill-rule="evenodd" clip-rule="evenodd" d="M8.37774 40.6561C8.29214 40.5705 8.23761 40.455 8.22882 40.3266C8.19423 39.755 7.90459 34.6964 8.60698 33.1298C8.68613 32.9545 8.85792 32.8378 9.04964 32.829C9.19562 32.8226 9.33458 32.8783 9.43425 32.9779C9.46708 33.0108 9.49522 33.0483 9.51867 33.0893C9.64766 33.3192 9.74264 33.6018 9.81241 33.8826L21.0875 19.4966C21.3754 18.3727 21.882 17.5999 22.1047 17.2997L22.3762 13.8881L19.4429 14.8256C19.2858 14.876 19.1152 14.8473 18.9833 14.7493C18.9634 14.7341 18.944 14.7183 18.9264 14.7007C18.8291 14.6034 18.7746 14.4703 18.7763 14.3313L18.7939 13.2877C18.801 12.8386 18.9798 12.4147 19.2964 12.0946L22.9361 8.41498C22.9854 4.22411 24.4828 1.32897 24.5484 1.20585C24.6364 1.03817 24.8105 0.93322 24.9999 0.932634C25.1377 0.93322 25.2667 0.988332 25.361 1.08273C25.3968 1.11849 25.4273 1.15953 25.4513 1.20585C25.5164 1.32956 27.015 4.22353 27.0637 8.41497L30.7046 12.0946C31.0212 12.4135 31.1988 12.8374 31.2059 13.2877L31.2229 14.3307C31.2258 14.4955 31.149 14.6508 31.0165 14.7493C30.8846 14.8473 30.7134 14.8754 30.5568 14.8256L27.6236 13.8892L27.8944 17.2992C28.1172 17.5993 28.625 18.3721 28.9128 19.496L40.1874 33.8826C40.2571 33.6018 40.3521 33.3192 40.4811 33.0893C40.5755 32.9211 40.7561 32.8202 40.949 32.829C41.0785 32.8343 41.1987 32.8888 41.2878 32.9779C41.3306 33.0207 41.367 33.0723 41.3922 33.1304C42.0958 34.697 41.8055 39.755 41.7698 40.3266C41.7539 40.5957 41.53 40.8056 41.2603 40.8056L40.6288 40.805C40.4887 40.8056 40.3603 40.7487 40.2677 40.6561C40.1797 40.5682 40.124 40.448 40.1188 40.3137L40.1012 39.8271L29.2928 40.3436L29.3039 41.1615C29.3057 41.3239 29.2312 41.4769 29.1028 41.5748L28.5247 42.0134C28.4825 42.6958 28.3377 44.5269 27.9707 45.4051C27.8915 45.5957 27.7051 45.7188 27.4993 45.7194L25.7761 45.7188C25.772 46.5085 25.7257 47.8412 25.4848 48.577C25.4167 48.7869 25.2203 48.9282 24.9993 48.9288C24.8609 48.9288 24.7319 48.8737 24.6381 48.7799C24.5824 48.7242 24.5396 48.6544 24.5144 48.5764C24.274 47.8412 24.2277 46.5085 24.223 45.7194L22.5011 45.7188C22.3621 45.7194 22.2331 45.6631 22.1393 45.5693C22.0936 45.5236 22.0561 45.4673 22.0297 45.4045C21.6621 44.5269 21.5173 42.6947 21.4745 42.0128L20.8976 41.5743C20.8794 41.5608 20.8618 41.5455 20.8454 41.5291C20.7486 41.4324 20.6941 41.3005 20.6959 41.1615L20.707 40.3436L9.8986 39.8271L9.88042 40.3143C9.86987 40.5887 9.64473 40.8056 9.37034 40.8056L8.7389 40.805C8.59819 40.805 8.47037 40.7487 8.37774 40.6561Z" fill="#CAE0E0"/>
</mask>
<g mask="url(#mask0_973_94266)">
<path d="M42.5412 -2.63745H7.46191V49.9428H42.5412V-2.63745Z" fill="#009246"/>
<path d="M42.5412 -2.63745H19.155V49.9428H42.5412V-2.63745Z" fill="white"/>
<path d="M42.5412 -2.63745H30.8481V49.9428H42.5412V-2.63745Z" fill="#CE2B37"/>
</g>
<mask id="mask1_973_94266" style="mask-type:luminance" maskUnits="userSpaceOnUse" x="-4" y="0" width="59" height="58">
<path fill-rule="evenodd" clip-rule="evenodd" d="M25.0001 0L54.0001 29L25 58L-3.99996 29.0001L25.0001 0Z" fill="white"/>
</mask>
<g mask="url(#mask1_973_94266)">
<path fill-rule="evenodd" clip-rule="evenodd" d="M25.7222 0.722081C25.5334 0.533293 25.2749 0.422482 25.0005 0.422482C24.6211 0.423069 24.2729 0.632964 24.0964 0.968913C24.0307 1.09438 22.5263 4.00008 22.4296 8.20208L18.9329 11.7363C18.523 12.1496 18.2926 12.6978 18.2838 13.28L18.2668 14.323C18.2627 14.6015 18.3718 14.8677 18.5658 15.0618C18.601 15.0969 18.6385 15.1298 18.679 15.1597C18.9434 15.3561 19.2852 15.413 19.5989 15.3127L21.8063 14.6074L21.6076 17.1162C21.3408 17.4978 20.8999 18.2366 20.6208 19.2649L9.97129 32.853C9.96895 32.8483 9.96719 32.8442 9.96485 32.8407C9.91794 32.7574 9.86107 32.6818 9.79599 32.6167C9.59665 32.4174 9.31875 32.306 9.02794 32.3189C8.64333 32.3365 8.29976 32.5698 8.14204 32.921C7.40448 34.565 7.66069 39.4049 7.7205 40.3582C7.73691 40.6162 7.84713 40.8472 8.01716 41.0172C8.20243 41.2025 8.45806 41.3162 8.73889 41.3168L9.37092 41.3156C9.91032 41.3168 10.3547 40.897 10.3893 40.3617L20.1899 40.8308L20.1858 41.155C20.1823 41.4329 20.2907 41.6973 20.4848 41.8914C20.517 41.9236 20.5516 41.9535 20.5892 41.9817L20.9802 42.2789C21.0406 43.1285 21.1983 44.739 21.5589 45.6026C21.6105 45.7281 21.6867 45.8383 21.7788 45.9304C21.967 46.1186 22.2249 46.23 22.5011 46.2306L23.7206 46.2306C23.7423 47.0414 23.815 48.0803 24.0296 48.7358C24.0812 48.8918 24.1673 49.0296 24.2781 49.1404C24.4652 49.3274 24.7226 49.4394 25.0005 49.4394C25.442 49.44 25.833 49.1556 25.9714 48.7358C26.1854 48.0798 26.2581 47.042 26.2798 46.23L27.4993 46.23C27.9114 46.2294 28.2826 45.9826 28.442 45.6026C28.8032 44.7396 28.9597 43.1279 29.0201 42.2795L29.4112 41.9823C29.6698 41.7858 29.8187 41.4798 29.8152 41.155L29.8099 40.8308L39.6104 40.3617C39.6274 40.6179 39.7377 40.8478 39.9071 41.0172C40.0924 41.2025 40.348 41.3162 40.63 41.3168L41.2615 41.3162C41.8009 41.3162 42.247 40.897 42.2799 40.3588C42.3391 39.4049 42.5959 34.5656 41.8589 32.921C41.8067 32.8067 41.7352 32.7035 41.649 32.6173C41.4714 32.4397 41.2316 32.33 40.9718 32.3189C40.5866 32.3019 40.2243 32.5036 40.0355 32.8413C40.0337 32.8442 40.0314 32.8489 40.0291 32.8524L29.3801 19.2649C29.0999 18.2366 28.6596 17.4984 28.3928 17.1156L28.194 14.6068L30.402 15.3127C30.7145 15.413 31.0569 15.3555 31.3208 15.1597C31.5852 14.9644 31.7388 14.6525 31.7335 14.3236L31.7165 13.2794C31.7071 12.6978 31.4767 12.1496 31.0675 11.7357L27.5708 8.20149C27.4735 4.00008 25.9702 1.09321 25.904 0.968326C25.8553 0.876277 25.7937 0.793609 25.7222 0.722081M25.0005 1.44362C25.0005 1.44362 26.5548 4.39797 26.5548 8.62636L30.3417 12.4531C30.5639 12.6777 30.6905 12.9802 30.6958 13.2962L30.7128 14.3393L27.0549 13.1708L27.3984 17.4918C27.3984 17.4918 28.1096 18.3249 28.4432 19.7256L40.5116 35.1241C40.5116 35.1241 40.5837 33.9521 40.9267 33.3394C41.5986 34.8368 41.2609 40.2953 41.2609 40.2953L40.6294 40.2947L40.5925 39.2927L28.7757 39.8573L28.7938 41.1689L28.0293 41.7493C28.0293 41.7493 27.9079 44.2323 27.4999 45.209L25.5006 45.209L25.2614 45.1199C25.2614 45.1199 25.3188 47.4428 24.9999 48.4184C24.6815 47.4434 24.7384 45.1199 24.7384 45.1199L24.4998 45.2084L22.5005 45.2085C22.093 44.2323 21.9711 41.7499 21.9711 41.7499L21.2071 41.1689L21.2247 39.8579L9.40729 39.2927L9.37094 40.2953L8.73949 40.2947C8.73949 40.2947 8.40178 34.8362 9.0731 33.3394C9.41725 33.9521 9.48878 35.1247 9.48878 35.1247L21.5566 19.7256C21.8908 18.3243 22.6025 17.4918 22.6025 17.4918L22.9461 13.1708L19.2876 14.3398L19.3046 13.2956C19.3093 12.9802 19.4365 12.6783 19.6587 12.4537L23.4456 8.62694C23.4462 4.39797 25.0005 1.44362 25.0005 1.44362" fill="#596B6A"/>
</g>
</g>
<defs>
<clipPath id="clip0_973_94266">
<rect width="50" height="50" fill="white"/>
</clipPath>
</defs>
</svg>
