<svg xmlns="http://www.w3.org/2000/svg" width="70" height="70" viewBox="0 0 70 70" fill="none">
<g filter="url(#filter0_d_784_92393)">
<mask id="mask0_784_92393" style="mask-type:alpha" maskUnits="userSpaceOnUse" x="10" y="10" width="49" height="49">
<path fill-rule="evenodd" clip-rule="evenodd" d="M30.497 58.8472C30.351 58.8472 30.206 58.7952 30.089 58.6932C29.572 58.2352 25.011 54.1682 24.274 52.2332C24.192 52.0162 24.239 51.7702 24.395 51.5992C24.514 51.4692 24.68 51.3982 24.85 51.3982C24.906 51.3982 24.962 51.4062 25.017 51.4212C25.323 51.5072 25.645 51.6672 25.944 51.8472L23.291 29.9632C22.578 28.7592 22.351 27.6682 22.285 27.2222L19.607 24.0812L17.905 27.3822C17.814 27.5592 17.644 27.6802 17.448 27.7092C17.418 27.7132 17.388 27.7162 17.358 27.7162C17.192 27.7162 17.032 27.6492 16.915 27.5292L16.04 26.6242C15.663 26.2352 15.454 25.7212 15.451 25.1782L15.417 18.9362C11.885 15.3202 10.693 11.5742 10.644 11.4132C10.576 11.1952 10.635 10.9572 10.796 10.7952C10.914 10.6782 11.071 10.6152 11.232 10.6152C11.293 10.6152 11.354 10.6242 11.414 10.6432C11.575 10.6932 15.321 11.8832 18.937 15.4162L25.18 15.4492C25.722 15.4512 26.235 15.6612 26.625 16.0392L27.529 16.9142C27.672 17.0522 27.739 17.2502 27.71 17.4472C27.681 17.6432 27.559 17.8132 27.383 17.9042L24.083 19.6072L27.222 22.2842C27.668 22.3502 28.76 22.5762 29.964 23.2892L51.848 25.9432C51.668 25.6442 51.508 25.3222 51.422 25.0162C51.359 24.7922 51.427 24.5522 51.599 24.3952C51.714 24.2892 51.863 24.2332 52.015 24.2332C52.088 24.2332 52.163 24.2462 52.234 24.2742C54.17 25.0102 58.236 29.5712 58.693 30.0892C58.909 30.3322 58.897 30.7022 58.667 30.9322L58.128 31.4702C58.009 31.5902 57.851 31.6512 57.693 31.6512C57.543 31.6512 57.393 31.5962 57.274 31.4862L56.844 31.0862L48.067 40.7442L48.774 41.4322C48.914 41.5692 48.981 41.7632 48.955 41.9562L48.836 42.8232C49.382 43.4412 50.82 45.1262 51.256 46.1882C51.351 46.4182 51.297 46.6822 51.122 46.8582L49.652 48.3272C50.322 49.0042 51.419 50.1802 51.841 51.0132C51.962 51.2502 51.915 51.5382 51.727 51.7272C51.609 51.8452 51.452 51.9082 51.292 51.9082C51.197 51.9082 51.101 51.8852 51.013 51.8402C50.181 51.4182 49.005 50.3212 48.328 49.6522L46.859 51.1202C46.741 51.2392 46.583 51.3012 46.423 51.3012C46.345 51.3012 46.265 51.2852 46.189 51.2542C45.127 50.8192 43.441 49.3802 42.823 48.8352L41.957 48.9532C41.93 48.9572 41.902 48.9592 41.874 48.9592C41.709 48.9592 41.55 48.8932 41.433 48.7732L40.745 48.0662L31.087 56.8432L31.487 57.2742C31.712 57.5172 31.705 57.8942 31.471 58.1282L30.932 58.6662C30.812 58.7862 30.655 58.8472 30.497 58.8472Z" fill="#CAE0E0"/>
</mask>
<g mask="url(#mask0_784_92393)">
<path d="M22.7109 -7.20891L-7.20508 22.707L37.6357 67.5479L67.5517 37.6319L22.7109 -7.20891Z" fill="#009246"/>
<path d="M22.7109 -7.20891L2.7669 12.7351L47.6077 57.5759L67.5517 37.6319L22.7109 -7.20891Z" fill="white"/>
<path d="M22.7109 -7.20891L12.7389 2.76307L57.5797 47.6039L67.5517 37.6319L22.7109 -7.20891Z" fill="#CE2B37"/>
</g>
<mask id="mask1_784_92393" style="mask-type:luminance" maskUnits="userSpaceOnUse" x="10" y="10" width="50" height="50">
<path fill-rule="evenodd" clip-rule="evenodd" d="M10 10H59.4628V59.463H10V10Z" fill="white"/>
</mask>
<g mask="url(#mask1_784_92393)">
<path fill-rule="evenodd" clip-rule="evenodd" d="M11.2316 10C10.9096 10 10.5946 10.126 10.3606 10.36C10.0376 10.684 9.91959 11.16 10.0556 11.597C10.1066 11.76 11.3016 15.521 14.8026 19.187L14.8346 25.183C14.8376 25.885 15.1086 26.549 15.5976 27.053L16.4726 27.957C16.7066 28.198 17.0266 28.332 17.3576 28.332C17.4176 28.332 17.4776 28.328 17.5376 28.319C17.9306 28.261 18.2706 28.018 18.4526 27.665L19.7336 25.181L21.7036 27.49C21.8016 28.043 22.0556 29.049 22.6946 30.164L25.2006 50.834C25.1946 50.832 25.1896 50.83 25.1846 50.829C25.0736 50.798 24.9606 50.782 24.8496 50.782C24.5096 50.782 24.1776 50.924 23.9406 51.183C23.6276 51.526 23.5336 52.018 23.6986 52.452C24.4716 54.483 28.8176 58.392 29.6816 59.154C29.9156 59.36 30.2066 59.463 30.4966 59.463C30.8126 59.463 31.1276 59.342 31.3676 59.103L31.9056 58.563C32.3666 58.104 32.3876 57.367 31.9606 56.881L40.7186 48.923L40.9916 49.203C41.2256 49.443 41.5436 49.576 41.8746 49.576C41.9296 49.576 41.9846 49.572 42.0406 49.564L42.6276 49.484C43.4036 50.157 44.9116 51.396 45.9556 51.825C46.1066 51.888 46.2656 51.917 46.4226 51.917C46.7436 51.917 47.0586 51.792 47.2946 51.557L48.3346 50.517C49.0446 51.19 49.9926 52.014 50.7346 52.39C50.9116 52.479 51.1026 52.523 51.2916 52.523C51.6106 52.523 51.9256 52.399 52.1626 52.162C52.5396 51.786 52.6306 51.21 52.3906 50.734C52.0136 49.992 51.1906 49.045 50.5166 48.334L51.5566 47.294C51.9076 46.942 52.0136 46.415 51.8256 45.955C51.3976 44.911 50.1566 43.403 49.4846 42.628L49.5646 42.041C49.6176 41.653 49.4836 41.265 49.2036 40.991L48.9226 40.719L56.8806 31.961C57.1136 32.165 57.4036 32.267 57.6926 32.267C58.0086 32.267 58.3236 32.146 58.5646 31.906L59.1026 31.367C59.5626 30.907 59.5856 30.169 59.1546 29.682C58.3916 28.818 54.4836 24.472 52.4526 23.698C52.3106 23.645 52.1616 23.618 52.0146 23.618C51.7116 23.618 51.4136 23.729 51.1826 23.941C50.8396 24.255 50.7026 24.736 50.8296 25.185C50.8306 25.189 50.8326 25.195 50.8336 25.2L30.1646 22.694C29.0486 22.056 28.0436 21.802 27.4896 21.703L25.1806 19.733L27.6656 18.452C28.0176 18.271 28.2606 17.93 28.3186 17.538C28.3776 17.146 28.2426 16.749 27.9576 16.473L27.0526 15.597C26.5486 15.109 25.8846 14.838 25.1826 14.834L19.1866 14.802C15.5206 11.302 11.7596 10.105 11.5966 10.055C11.4766 10.018 11.3536 10 11.2316 10ZM11.2316 11.231C11.2316 11.231 15.0766 12.425 18.6826 16.031L25.1756 16.065C25.5566 16.067 25.9226 16.217 26.1966 16.482L27.1006 17.357L22.9846 19.48L26.9626 22.872C26.9626 22.872 28.2796 22.976 29.7586 23.886L53.1826 26.726C53.1826 26.726 52.2446 25.665 52.0146 24.85C53.8646 25.554 58.2316 30.497 58.2316 30.497L57.6926 31.035L56.8066 30.212L47.2106 40.771L48.3446 41.874L48.1876 43.021C48.1876 43.021 50.2016 45.242 50.6866 46.423L48.9816 48.128L48.7016 48.256C48.7016 48.256 50.7316 50.188 51.2916 51.292C50.1886 50.732 48.2556 48.702 48.2556 48.702L48.1276 48.981L46.4226 50.686C45.2426 50.201 43.0216 48.188 43.0216 48.188L41.8746 48.344L40.7716 47.211L30.2116 56.807L31.0356 57.693L30.4966 58.231C30.4966 58.231 25.5536 53.864 24.8496 52.015C25.6656 52.244 26.7266 53.183 26.7266 53.183L23.8856 29.759C22.9756 28.279 22.8726 26.962 22.8726 26.962L19.4806 22.984L17.3576 27.101L16.4816 26.196C16.2166 25.923 16.0676 25.557 16.0656 25.176L16.0316 18.683C12.4256 15.076 11.2316 11.231 11.2316 11.231Z" fill="#596B6A"/>
</g>
</g>
<defs>
<filter id="filter0_d_784_92393" x="0" y="0" width="69.4629" height="69.4629" filterUnits="userSpaceOnUse" color-interpolation-filters="sRGB">
<feFlood flood-opacity="0" result="BackgroundImageFix"/>
<feColorMatrix in="SourceAlpha" type="matrix" values="0 0 0 0 0 0 0 0 0 0 0 0 0 0 0 0 0 0 127 0" result="hardAlpha"/>
<feOffset/>
<feGaussianBlur stdDeviation="5"/>
<feColorMatrix type="matrix" values="0 0 0 0 0 0 0 0 0 0 0 0 0 0 0 0 0 0 0.2 0"/>
<feBlend mode="normal" in2="BackgroundImageFix" result="effect1_dropShadow_784_92393"/>
<feBlend mode="normal" in="SourceGraphic" in2="effect1_dropShadow_784_92393" result="shape"/>
</filter>
</defs>
</svg>