<?xml version="1.0" encoding="UTF-8" standalone="no"?>
<!-- Generator: Adobe Illustrator 21.1.0, SVG Export Plug-In . SVG Version: 6.00 Build 0)  -->

<svg
   xmlns:dc="http://purl.org/dc/elements/1.1/"
   xmlns:cc="http://creativecommons.org/ns#"
   xmlns:rdf="http://www.w3.org/1999/02/22-rdf-syntax-ns#"
   xmlns:svg="http://www.w3.org/2000/svg"
   xmlns="http://www.w3.org/2000/svg"
   xmlns:sodipodi="http://sodipodi.sourceforge.net/DTD/sodipodi-0.dtd"
   xmlns:inkscape="http://www.inkscape.org/namespaces/inkscape"
   version="1.1"
   id="Layer_1"
   x="0px"
   y="0px"
   viewBox="0 0 350 350"
   xml:space="preserve"
   inkscape:version="0.91pre4 r13712"
   sodipodi:docname="lavi.svg"
   width="350"
   height="350"><metadata
     id="metadata29"><rdf:RDF><cc:Work
         rdf:about=""><dc:format>image/svg+xml</dc:format><dc:type
           rdf:resource="http://purl.org/dc/dcmitype/StillImage" /><dc:title></dc:title></cc:Work></rdf:RDF></metadata><defs
     id="defs27"><filter
       inkscape:collect="always"
       style="color-interpolation-filters:sRGB"
       id="filter4177"
       x="-0.25671141"
       width="1.5134228"
       y="-0.22533137"
       height="1.4506627"><feGaussianBlur
         inkscape:collect="always"
         stdDeviation="19.125"
         id="feGaussianBlur4179" /></filter></defs><sodipodi:namedview
     pagecolor="#ffffff"
     bordercolor="#666666"
     borderopacity="1"
     objecttolerance="10"
     gridtolerance="10"
     guidetolerance="10"
     inkscape:pageopacity="0"
     inkscape:pageshadow="2"
     inkscape:window-width="1280"
     inkscape:window-height="961"
     id="namedview25"
     showgrid="false"
     inkscape:zoom="0.816609"
     inkscape:cx="124.5"
     inkscape:cy="144.5"
     inkscape:window-x="494"
     inkscape:window-y="712"
     inkscape:window-maximized="1"
     inkscape:current-layer="Layer_1" /><style
     type="text/css"
     id="style3">
	.st0{fill:#CAE0E0;}
	.st1{fill:#596B6A;}
	.st2{fill:#596B6A;stroke:#596B6A;stroke-miterlimit:10;}
</style><g
     transform="translate(51,29.55)"
     id="g4157"
     style="fill:#000000;fill-opacity:1;filter:url(#filter4177);opacity:0.5"><g
       id="g4159"
       style="fill:#000000;fill-opacity:1"><path
         style="fill:#000000;fill-opacity:1"
         inkscape:connector-curvature="0"
         id="path4161"
         d="m 81.8,244.6 c -1.4,0 -2.5,-1.1 -2.5,-2.5 l 0,-10.3 c 0,-1 0.5,-1.8 1.4,-2.2 l 31.9,-15.6 0,-1.3 c -0.4,-0.4 -0.8,-0.9 -1.3,-1.2 -4,-3.6 -6.2,-13.7 -7,-18.3 l -64.6,0 c -1.4,0 -2.5,-1.1 -2.5,-2.5 l 0,-16.1 c 0,-0.8 0.4,-1.6 1.1,-2.1 l 28.9,-19.8 c 0.4,-0.3 0.9,-0.4 1.4,-0.4 0.4,0 0.8,0.1 1.2,0.3 0.7,0.4 1.2,1.1 1.3,1.9 l 27.7,-18.9 c 0.8,-3.3 3.4,-14 6.5,-20.5 2.8,-6 5.1,-10.2 5.9,-11.7 l 0,-7.2 c 0,-30.3 10.3,-48 10.7,-48.8 0.5,-0.8 1.3,-1.2 2.2,-1.2 0.9,0 1.7,0.5 2.2,1.2 0.4,0.7 10.7,18.5 10.7,48.8 l 0,7.2 c 0.8,1.5 3.1,5.6 5.9,11.7 3.1,6.5 5.7,17.2 6.5,20.5 l 27.7,18.9 c 0.1,-0.8 0.6,-1.5 1.3,-1.9 0.4,-0.2 0.8,-0.3 1.2,-0.3 0.5,0 1,0.1 1.4,0.4 l 28.9,19.8 c 0.7,0.5 1.1,1.2 1.1,2.1 l 0,16.1 c 0,1.4 -1.1,2.5 -2.5,2.5 l -64.8,0 c -0.8,4.6 -3,14.7 -7,18.3 -0.4,0.4 -0.9,0.8 -1.3,1.2 l 0,1.3 31.9,15.6 c 0.9,0.4 1.4,1.3 1.4,2.2 l 0,10.3 c 0,1.4 -1.1,2.5 -2.5,2.5 l -84.4,0 z"
         class="st0" /><g
         id="g4163"
         style="fill:#000000;fill-opacity:1"><path
           style="fill:#000000;fill-opacity:1"
           inkscape:connector-curvature="0"
           id="path4165"
           d="m 124,48.6 c 0,0 10.4,17.6 10.4,47.5 0,10.3 0,4 0,7.8 0,0 2.7,4.6 6.2,12.1 3.5,7.5 6.5,21 6.5,21 l 32.4,22.1 0,-4.4 28.9,19.8 0,16.1 -66.9,0 c 0,0 -2.1,15 -6.5,19 -1,0.9 -2.1,2.1 -2.1,2.1 l 0,3.9 33.3,16.3 0,10.3 -42.2,0 -42.2,0 0,-10.3 33.3,-16.3 0,-3.9 c 0,0 -1.1,-1.2 -2.1,-2.1 -4.4,-4 -6.5,-19 -6.5,-19 l -66.8,0 0,-16.1 28.9,-19.8 0,4.4 L 101,137 c 0,0 3,-13.5 6.5,-21 3.5,-7.5 6.2,-12.1 6.2,-12.1 0,-3.8 0,2.4 0,-7.8 0,-30 10.3,-47.5 10.3,-47.5 m 0,-5 c -1.8,0 -3.4,0.9 -4.3,2.5 -0.5,0.8 -11.1,19.1 -11.1,50.1 l 0,6.5 c -1,1.9 -3.1,5.8 -5.7,11.3 -2.9,6.2 -5.4,15.9 -6.4,20.1 L 71.7,151 c -0.3,-0.2 -0.6,-0.4 -0.9,-0.6 -0.7,-0.4 -1.5,-0.6 -2.3,-0.6 -1,0 -2,0.3 -2.8,0.9 l -28.9,19.8 c -1.4,0.9 -2.2,2.5 -2.2,4.1 l 0,16.1 c 0,2.8 2.2,5 5,5 l 62.7,0 c 1.1,5.4 3.2,13.4 7,17.3 l -29.7,14.5 c -1.7,0.8 -2.8,2.6 -2.8,4.5 l 0,10.3 c 0,2.8 2.2,5 5,5 l 42.2,0 42.2,0 c 2.8,0 5,-2.2 5,-5 l 0,-10.3 c 0,-1.9 -1.1,-3.7 -2.8,-4.5 L 138.7,213 c 3.8,-3.8 5.9,-11.9 7,-17.3 l 62.7,0 c 2.8,0 5,-2.2 5,-5 l 0,-16.1 c 0,-1.6 -0.8,-3.2 -2.2,-4.1 l -28.9,-19.8 c -0.8,-0.6 -1.8,-0.9 -2.8,-0.9 -0.8,0 -1.6,0.2 -2.3,0.6 -0.3,0.2 -0.6,0.4 -0.9,0.6 l -24.7,-17 c -1,-4.1 -3.5,-13.9 -6.4,-20.1 -2.5,-5.4 -4.7,-9.4 -5.7,-11.3 l 0,-6.5 c 0,-31 -10.6,-49.3 -11.1,-50.1 -0.9,-1.5 -2.6,-2.4 -4.4,-2.4 l 0,0 z"
           class="st1" /></g></g><path
       style="fill:#000000;stroke:#596b6a;stroke-miterlimit:10;fill-opacity:1"
       inkscape:connector-curvature="0"
       id="path4167"
       d="m 129,59.4 c -2.5,-7.7 -5,-11.9 -5,-11.9 0,0 -2.5,4.2 -5,11.9 l 10,0 z"
       class="st2" /><path
       style="fill:#000000;fill-opacity:1"
       inkscape:connector-curvature="0"
       id="path4169"
       d="m 124.3,84.5 c 2.7,0 5.1,0.8 6.8,2.1 l 0,-6.7 c 0,-4.3 -3.1,-7.8 -6.9,-7.9 l -0.1,0 -0.1,0 c -3.9,0 -7,3.5 -7,7.9 l 0,7.1 c 1.7,-1.5 4.3,-2.5 7.3,-2.5 z"
       class="st1" /><g
       id="g4171"
       style="fill:#000000;fill-opacity:1"><path
         style="fill:#000000;fill-opacity:1"
         inkscape:connector-curvature="0"
         id="path4173"
         d="m 124.3,112 c 3.1,0 5.5,-0.6 6.8,-1.2 l 0,-22.5 c -1.4,-1.5 -3.9,-2.4 -6.8,-2.4 -3.2,0 -6,1.2 -7.3,3 l 0,21.7 c 1.2,0.7 3.8,1.4 7.3,1.4 z"
         class="st1" /><path
         style="fill:#000000;fill-opacity:1"
         inkscape:connector-curvature="0"
         id="path4175"
         d="m 124.3,113.3 c -2.7,0 -5.5,-0.4 -7.3,-1.3 l 0,0.4 0,20.4 0,0.5 c 2.1,1.4 3.9,2.3 7,2.8 3.1,-0.5 4.9,-1.3 7,-2.8 0,-0.2 0,-17.9 0,-21 l 0,-0.1 c -1.7,0.7 -4.2,1.1 -6.7,1.1 z"
         class="st1" /></g></g><g
     id="g5"
     transform="translate(51,29.55)"><g
       id="g7"><path
         class="st0"
         d="m 81.8,244.6 c -1.4,0 -2.5,-1.1 -2.5,-2.5 l 0,-10.3 c 0,-1 0.5,-1.8 1.4,-2.2 l 31.9,-15.6 0,-1.3 c -0.4,-0.4 -0.8,-0.9 -1.3,-1.2 -4,-3.6 -6.2,-13.7 -7,-18.3 l -64.6,0 c -1.4,0 -2.5,-1.1 -2.5,-2.5 l 0,-16.1 c 0,-0.8 0.4,-1.6 1.1,-2.1 l 28.9,-19.8 c 0.4,-0.3 0.9,-0.4 1.4,-0.4 0.4,0 0.8,0.1 1.2,0.3 0.7,0.4 1.2,1.1 1.3,1.9 l 27.7,-18.9 c 0.8,-3.3 3.4,-14 6.5,-20.5 2.8,-6 5.1,-10.2 5.9,-11.7 l 0,-7.2 c 0,-30.3 10.3,-48 10.7,-48.8 0.5,-0.8 1.3,-1.2 2.2,-1.2 0.9,0 1.7,0.5 2.2,1.2 0.4,0.7 10.7,18.5 10.7,48.8 l 0,7.2 c 0.8,1.5 3.1,5.6 5.9,11.7 3.1,6.5 5.7,17.2 6.5,20.5 l 27.7,18.9 c 0.1,-0.8 0.6,-1.5 1.3,-1.9 0.4,-0.2 0.8,-0.3 1.2,-0.3 0.5,0 1,0.1 1.4,0.4 l 28.9,19.8 c 0.7,0.5 1.1,1.2 1.1,2.1 l 0,16.1 c 0,1.4 -1.1,2.5 -2.5,2.5 l -64.8,0 c -0.8,4.6 -3,14.7 -7,18.3 -0.4,0.4 -0.9,0.8 -1.3,1.2 l 0,1.3 31.9,15.6 c 0.9,0.4 1.4,1.3 1.4,2.2 l 0,10.3 c 0,1.4 -1.1,2.5 -2.5,2.5 l -84.4,0 z"
         id="path9"
         inkscape:connector-curvature="0"
         style="fill:#cae0e0" /><g
         id="g11"><path
           class="st1"
           d="m 124,48.6 c 0,0 10.4,17.6 10.4,47.5 0,10.3 0,4 0,7.8 0,0 2.7,4.6 6.2,12.1 3.5,7.5 6.5,21 6.5,21 l 32.4,22.1 0,-4.4 28.9,19.8 0,16.1 -66.9,0 c 0,0 -2.1,15 -6.5,19 -1,0.9 -2.1,2.1 -2.1,2.1 l 0,3.9 33.3,16.3 0,10.3 -42.2,0 -42.2,0 0,-10.3 33.3,-16.3 0,-3.9 c 0,0 -1.1,-1.2 -2.1,-2.1 -4.4,-4 -6.5,-19 -6.5,-19 l -66.8,0 0,-16.1 28.9,-19.8 0,4.4 L 101,137 c 0,0 3,-13.5 6.5,-21 3.5,-7.5 6.2,-12.1 6.2,-12.1 0,-3.8 0,2.4 0,-7.8 0,-30 10.3,-47.5 10.3,-47.5 m 0,-5 c -1.8,0 -3.4,0.9 -4.3,2.5 -0.5,0.8 -11.1,19.1 -11.1,50.1 l 0,6.5 c -1,1.9 -3.1,5.8 -5.7,11.3 -2.9,6.2 -5.4,15.9 -6.4,20.1 L 71.7,151 c -0.3,-0.2 -0.6,-0.4 -0.9,-0.6 -0.7,-0.4 -1.5,-0.6 -2.3,-0.6 -1,0 -2,0.3 -2.8,0.9 l -28.9,19.8 c -1.4,0.9 -2.2,2.5 -2.2,4.1 l 0,16.1 c 0,2.8 2.2,5 5,5 l 62.7,0 c 1.1,5.4 3.2,13.4 7,17.3 l -29.7,14.5 c -1.7,0.8 -2.8,2.6 -2.8,4.5 l 0,10.3 c 0,2.8 2.2,5 5,5 l 42.2,0 42.2,0 c 2.8,0 5,-2.2 5,-5 l 0,-10.3 c 0,-1.9 -1.1,-3.7 -2.8,-4.5 L 138.7,213 c 3.8,-3.8 5.9,-11.9 7,-17.3 l 62.7,0 c 2.8,0 5,-2.2 5,-5 l 0,-16.1 c 0,-1.6 -0.8,-3.2 -2.2,-4.1 l -28.9,-19.8 c -0.8,-0.6 -1.8,-0.9 -2.8,-0.9 -0.8,0 -1.6,0.2 -2.3,0.6 -0.3,0.2 -0.6,0.4 -0.9,0.6 l -24.7,-17 c -1,-4.1 -3.5,-13.9 -6.4,-20.1 -2.5,-5.4 -4.7,-9.4 -5.7,-11.3 l 0,-6.5 c 0,-31 -10.6,-49.3 -11.1,-50.1 -0.9,-1.5 -2.6,-2.4 -4.4,-2.4 l 0,0 z"
           id="path13"
           inkscape:connector-curvature="0"
           style="fill:#596b6a" /></g></g><path
       class="st2"
       d="m 129,59.4 c -2.5,-7.7 -5,-11.9 -5,-11.9 0,0 -2.5,4.2 -5,11.9 l 10,0 z"
       id="path15"
       inkscape:connector-curvature="0"
       style="fill:#596b6a;stroke:#596b6a;stroke-miterlimit:10" /><path
       class="st1"
       d="m 124.3,84.5 c 2.7,0 5.1,0.8 6.8,2.1 l 0,-6.7 c 0,-4.3 -3.1,-7.8 -6.9,-7.9 l -0.1,0 -0.1,0 c -3.9,0 -7,3.5 -7,7.9 l 0,7.1 c 1.7,-1.5 4.3,-2.5 7.3,-2.5 z"
       id="path17"
       inkscape:connector-curvature="0"
       style="fill:#596b6a" /><g
       id="g19"><path
         class="st1"
         d="m 124.3,112 c 3.1,0 5.5,-0.6 6.8,-1.2 l 0,-22.5 c -1.4,-1.5 -3.9,-2.4 -6.8,-2.4 -3.2,0 -6,1.2 -7.3,3 l 0,21.7 c 1.2,0.7 3.8,1.4 7.3,1.4 z"
         id="path21"
         inkscape:connector-curvature="0"
         style="fill:#596b6a" /><path
         class="st1"
         d="m 124.3,113.3 c -2.7,0 -5.5,-0.4 -7.3,-1.3 l 0,0.4 0,20.4 0,0.5 c 2.1,1.4 3.9,2.3 7,2.8 3.1,-0.5 4.9,-1.3 7,-2.8 0,-0.2 0,-17.9 0,-21 l 0,-0.1 c -1.7,0.7 -4.2,1.1 -6.7,1.1 z"
         id="path23"
         inkscape:connector-curvature="0"
         style="fill:#596b6a" /></g></g></svg>