<?xml version="1.0" encoding="UTF-8" standalone="no"?>
<!-- Generator: Adobe Illustrator 21.1.0, SVG Export Plug-In . SVG Version: 6.00 Build 0)  -->

<svg
   xmlns:dc="http://purl.org/dc/elements/1.1/"
   xmlns:cc="http://creativecommons.org/ns#"
   xmlns:rdf="http://www.w3.org/1999/02/22-rdf-syntax-ns#"
   xmlns:svg="http://www.w3.org/2000/svg"
   xmlns="http://www.w3.org/2000/svg"
   xmlns:sodipodi="http://sodipodi.sourceforge.net/DTD/sodipodi-0.dtd"
   xmlns:inkscape="http://www.inkscape.org/namespaces/inkscape"
   version="1.1"
   id="Layer_1"
   x="0px"
   y="0px"
   viewBox="0 0 350 350"
   xml:space="preserve"
   inkscape:version="0.91pre4 r13712"
   sodipodi:docname="adir.svg"
   width="350"
   height="350"><metadata
     id="metadata33"><rdf:RDF><cc:Work
         rdf:about=""><dc:format>image/svg+xml</dc:format><dc:type
           rdf:resource="http://purl.org/dc/dcmitype/StillImage" /><dc:title>Asset 1</dc:title></cc:Work></rdf:RDF></metadata><defs
     id="defs31"><filter
       inkscape:collect="always"
       style="color-interpolation-filters:sRGB"
       id="filter4203"
       x="-0.29984596"
       width="1.5996919"
       y="-0.20006852"
       height="1.400137"><feGaussianBlur
         inkscape:collect="always"
         stdDeviation="19.465"
         id="feGaussianBlur4205" /></filter></defs><sodipodi:namedview
     pagecolor="#ffffff"
     bordercolor="#666666"
     borderopacity="1"
     objecttolerance="10"
     gridtolerance="10"
     guidetolerance="10"
     inkscape:pageopacity="0"
     inkscape:pageshadow="2"
     inkscape:window-width="1280"
     inkscape:window-height="961"
     id="namedview29"
     showgrid="false"
     inkscape:zoom="0.80821918"
     inkscape:cx="108"
     inkscape:cy="146"
     inkscape:window-x="494"
     inkscape:window-y="712"
     inkscape:window-maximized="1"
     inkscape:current-layer="Layer_1" /><style
     type="text/css"
     id="style3">
	.st0{fill:#CAE0E0;}
	.st1{fill:#596B6A;}
	.st2{fill:#A8C1C0;}
</style><title
     id="title5">Asset 1</title><g
     transform="translate(68.1,28.85)"
     id="g4161"
     style="fill:#000000;fill-opacity:1;filter:url(#filter4203);opacity:0.5"><g
       id="g4163"
       style="fill:#000000;fill-opacity:1"><path
         style="fill:#000000;fill-opacity:1"
         inkscape:connector-curvature="0"
         id="path4165"
         d="m 121,260.3 c -0.5,0 -1,-0.1 -1.4,-0.4 -0.6,-0.4 -1,-1 -1.1,-1.7 l -2.8,-19.3 -1.5,2.8 c -0.4,0.8 -1.3,1.3 -2.2,1.3 l -9.8,0 c -0.9,0 -1.8,-0.5 -2.2,-1.3 l -1.5,-2.8 -2.8,19.3 c -0.1,0.7 -0.5,1.3 -1.1,1.7 -0.4,0.3 -0.9,0.4 -1.4,0.4 -0.2,0 -0.4,0 -0.6,-0.1 l -39.4,-9.1 c -1.1,-0.3 -1.9,-1.3 -1.9,-2.4 l 0,-11.4 c 0,-0.8 0.4,-1.6 1.1,-2 l 17,-12 0,-1.5 c 0,-0.4 0.1,-0.8 0.3,-1.2 l 4.2,-7.8 -40.4,-10 c -1.1,-0.3 -1.9,-1.3 -1.9,-2.4 l 0,-27.9 c 0,-0.8 0.4,-1.6 1.1,-2.1 L 74.9,142 78.4,136.1 81.9,94 c 0,-0.3 0.1,-0.6 0.3,-0.9 l 6.7,-13.2 c 0.4,-0.8 1.2,-1.3 2,-1.4 0.1,0 0.1,0 0.2,0 0.8,0 1.6,0.4 2,1.1 l 0.7,1 c 0.5,-6.4 1.3,-15.4 1.8,-19.6 1.6,-12.3 8.8,-26.9 9.1,-27.5 0.4,-0.9 1.3,-1.4 2.2,-1.4 0.9,0 1.8,0.5 2.2,1.4 0.3,0.6 7.5,15.3 9.1,27.5 0.5,4.2 1.3,13.2 1.8,19.6 l 0.7,-1 c 0.5,-0.7 1.2,-1.1 2,-1.1 0.1,0 0.1,0 0.2,0 0.9,0.1 1.7,0.6 2,1.4 l 6.7,13.2 c 0.1,0.3 0.2,0.6 0.3,0.9 l 3.5,42.1 3.5,5.9 42.2,28.4 c 0.7,0.5 1.1,1.2 1.1,2.1 l 0,27.9 c 0,1.1 -0.8,2.1 -1.9,2.4 l -40.4,10 4.2,7.8 c 0.2,0.4 0.3,0.8 0.3,1.2 l 0,1.5 17,12 c 0.7,0.5 1.1,1.2 1.1,2 l 0,11.4 c 0,1.2 -0.8,2.2 -1.9,2.4 l -39.4,9.1 c 0.2,0 0,0.1 -0.2,0.1 z"
         class="st0" /><path
         style="fill:#000000;fill-opacity:1"
         inkscape:connector-curvature="0"
         id="path4167"
         d="m 107,34.4 c 0,0 7.3,14.8 8.9,26.8 0.9,6.7 2.4,26.4 2.4,26.4 l 4.7,-6.7 6.7,13.2 3.5,42.7 4.1,6.9 42.7,28.7 0,27.9 -43.5,10.8 5.7,10.6 0,2.8 18.1,12.8 0,11.4 -39.4,9.1 -3.9,-26.8 -5.1,9.4 -4.9,0 -4.9,0 -5.1,-9.4 -3.9,26.8 -39.4,-9.1 0,-11.4 18.1,-12.8 0,-2.8 5.7,-10.6 -43.5,-10.8 0,-27.9 42.7,-28.7 4.1,-6.9 3.6,-42.8 6.7,-13.2 4.7,6.7 c 0,0 1.5,-19.7 2.4,-26.4 1.6,-11.9 8.8,-26.7 8.8,-26.7 m 0,-5 c -1.9,0 -3.6,1.1 -4.5,2.8 -0.3,0.6 -7.7,15.6 -9.3,28.3 -0.4,3.3 -1,9.7 -1.5,15.4 -0.2,0 -0.4,0 -0.6,0 -0.1,0 -0.2,0 -0.4,0 C 89,76 87.4,77 86.6,78.6 l -6.7,13.2 c -0.3,0.6 -0.5,1.2 -0.5,1.8 l -3.4,41.6 -3,4.9 -41.8,28.1 c -1.4,0.9 -2.2,2.5 -2.2,4.1 l 0,27.9 c 0,2.3 1.6,4.3 3.8,4.9 l 37.2,9.3 -2.7,5 c -0.4,0.7 -0.6,1.5 -0.6,2.4 l 0,0.2 -16,11.3 c -1.3,0.9 -2.1,2.5 -2.1,4.1 l 0,11.4 c 0,2.3 1.6,4.4 3.9,4.9 l 39.4,9.1 c 0.4,0.1 0.7,0.1 1.1,0.1 1,0 2,-0.3 2.8,-0.9 1.2,-0.8 1.9,-2 2.1,-3.4 l 2,-13.5 c 0.7,0.3 1.4,0.5 2.1,0.5 l 4.9,0 4.9,0 c 0.7,0 1.5,-0.2 2.1,-0.5 l 2,13.5 c 0.2,1.4 1,2.6 2.1,3.4 0.8,0.6 1.8,0.9 2.8,0.9 0.4,0 0.7,0 1.1,-0.1 l 39.4,-9.1 c 2.3,-0.5 3.9,-2.5 3.9,-4.9 l 0,-11.4 c 0,-1.6 -0.8,-3.1 -2.1,-4.1 l -16,-11.3 0,-0.2 c 0,-0.8 -0.2,-1.6 -0.6,-2.4 l -2.7,-5 37.2,-9.3 c 2.2,-0.6 3.8,-2.6 3.8,-4.9 l 0,-27.9 c 0,-1.7 -0.8,-3.2 -2.2,-4.1 l -41.8,-28.1 -3,-4.9 -3.4,-41.5 c -0.1,-0.6 -0.2,-1.3 -0.5,-1.8 l -6.7,-13.2 c -0.8,-1.6 -2.3,-2.6 -4.1,-2.7 -0.1,0 -0.2,0 -0.4,0 -0.2,0 -0.4,0 -0.6,0 -0.5,-5.7 -1.1,-12 -1.5,-15.4 -1.7,-12.7 -9,-27.7 -9.3,-28.3 -0.6,-1.8 -2.4,-2.9 -4.3,-2.9 l 0,0 z"
         class="st1" /></g><polygon
       style="fill:#000000;fill-opacity:1"
       id="polygon4169"
       points="112,240.4 117.1,231 97,231 102.1,240.4 107,240.4 "
       class="st1" /><path
       style="fill:#000000;fill-opacity:1"
       inkscape:connector-curvature="0"
       id="path4171"
       d="m 107,34.4 c 0,0 -4.1,8.4 -6.9,17.7 l 4.5,4 2.4,-1.8 2.4,1.8 4.5,-4 C 111.2,42.8 107,34.4 107,34.4 Z"
       class="st2" /><g
       id="g4173"
       style="fill:#000000;fill-opacity:1"><path
         style="fill:#000000;fill-opacity:1"
         inkscape:connector-curvature="0"
         id="path4175"
         d="m 107,74.7 c 3.1,0 5.9,0.9 7.8,2.4 -0.7,-7.5 -4.1,-13 -4.1,-13 l -3.7,-3 -3.7,3 c 0,0 -3.4,5.5 -4.1,13 1.9,-1.5 4.7,-2.4 7.8,-2.4 z"
         class="st1" /><path
         style="fill:#000000;fill-opacity:1"
         inkscape:connector-curvature="0"
         id="path4177"
         d="m 107,75.5 c -3.3,0 -6.2,1.1 -7.9,2.6 -0.5,7.9 -0.1,22 -0.1,22 l 8,6.1 8,-6.1 c 0,0 0.5,-14.1 -0.1,-22 -1.7,-1.6 -4.6,-2.6 -7.9,-2.6 z"
         class="st1" /></g><g
       id="g4179"
       style="fill:#000000;fill-opacity:1"><path
         style="fill:#000000;fill-opacity:1"
         inkscape:connector-curvature="0"
         id="path4181"
         d="m 107,34.4 c 0,0 7.3,14.8 8.9,26.8 0.9,6.7 2.4,26.4 2.4,26.4 l 4.7,-6.7 6.7,13.2 3.5,42.7 4.1,6.9 42.7,28.7 0,27.9 -43.5,10.8 5.7,10.6 0,2.8 18.1,12.8 0,11.4 -39.4,9.1 -3.9,-26.8 -5.1,9.4 -4.9,0 -4.9,0 -5.1,-9.4 -3.9,26.8 -39.4,-9.1 0,-11.4 18.1,-12.8 0,-2.8 5.7,-10.6 -43.5,-10.8 0,-27.9 42.7,-28.7 4.1,-6.9 3.6,-42.8 6.7,-13.2 4.7,6.7 c 0,0 1.5,-19.7 2.4,-26.4 1.6,-11.9 8.8,-26.7 8.8,-26.7 m 0,-5 c -1.9,0 -3.6,1.1 -4.5,2.8 -0.3,0.6 -7.7,15.6 -9.3,28.3 -0.4,3.3 -1,9.7 -1.5,15.4 -0.2,0 -0.4,0 -0.6,0 -0.1,0 -0.2,0 -0.4,0 C 89,76 87.4,77 86.6,78.6 l -6.7,13.2 c -0.3,0.6 -0.5,1.2 -0.5,1.8 l -3.4,41.6 -3,4.9 -41.8,28.1 c -1.4,0.9 -2.2,2.5 -2.2,4.1 l 0,27.9 c 0,2.3 1.6,4.3 3.8,4.9 l 37.2,9.3 -2.7,5 c -0.4,0.7 -0.6,1.5 -0.6,2.4 l 0,0.2 -16,11.3 c -1.3,0.9 -2.1,2.5 -2.1,4.1 l 0,11.4 c 0,2.3 1.6,4.4 3.9,4.9 l 39.4,9.1 c 0.4,0.1 0.7,0.1 1.1,0.1 1,0 2,-0.3 2.8,-0.9 1.2,-0.8 1.9,-2 2.1,-3.4 l 2,-13.5 c 0.7,0.3 1.4,0.5 2.1,0.5 l 4.9,0 4.9,0 c 0.7,0 1.5,-0.2 2.1,-0.5 l 2,13.5 c 0.2,1.4 1,2.6 2.1,3.4 0.8,0.6 1.8,0.9 2.8,0.9 0.4,0 0.7,0 1.1,-0.1 l 39.4,-9.1 c 2.3,-0.5 3.9,-2.5 3.9,-4.9 l 0,-11.4 c 0,-1.6 -0.8,-3.1 -2.1,-4.1 l -16,-11.3 0,-0.2 c 0,-0.8 -0.2,-1.6 -0.6,-2.4 l -2.7,-5 37.2,-9.3 c 2.2,-0.6 3.8,-2.6 3.8,-4.9 l 0,-27.9 c 0,-1.7 -0.8,-3.2 -2.2,-4.1 l -41.8,-28.1 -3,-4.9 -3.4,-41.5 c -0.1,-0.6 -0.2,-1.3 -0.5,-1.8 l -6.7,-13.2 c -0.8,-1.6 -2.3,-2.6 -4.1,-2.7 -0.1,0 -0.2,0 -0.4,0 -0.2,0 -0.4,0 -0.6,0 -0.5,-5.7 -1.1,-12 -1.5,-15.4 -1.7,-12.7 -9,-27.7 -9.3,-28.3 -0.6,-1.8 -2.4,-2.9 -4.3,-2.9 l 0,0 z"
         class="st1" /></g></g><g
     id="g7"
     transform="translate(68.1,28.85)"><g
       id="g9"><path
         class="st0"
         d="m 121,260.3 c -0.5,0 -1,-0.1 -1.4,-0.4 -0.6,-0.4 -1,-1 -1.1,-1.7 l -2.8,-19.3 -1.5,2.8 c -0.4,0.8 -1.3,1.3 -2.2,1.3 l -9.8,0 c -0.9,0 -1.8,-0.5 -2.2,-1.3 l -1.5,-2.8 -2.8,19.3 c -0.1,0.7 -0.5,1.3 -1.1,1.7 -0.4,0.3 -0.9,0.4 -1.4,0.4 -0.2,0 -0.4,0 -0.6,-0.1 l -39.4,-9.1 c -1.1,-0.3 -1.9,-1.3 -1.9,-2.4 l 0,-11.4 c 0,-0.8 0.4,-1.6 1.1,-2 l 17,-12 0,-1.5 c 0,-0.4 0.1,-0.8 0.3,-1.2 l 4.2,-7.8 -40.4,-10 c -1.1,-0.3 -1.9,-1.3 -1.9,-2.4 l 0,-27.9 c 0,-0.8 0.4,-1.6 1.1,-2.1 L 74.9,142 78.4,136.1 81.9,94 c 0,-0.3 0.1,-0.6 0.3,-0.9 l 6.7,-13.2 c 0.4,-0.8 1.2,-1.3 2,-1.4 0.1,0 0.1,0 0.2,0 0.8,0 1.6,0.4 2,1.1 l 0.7,1 c 0.5,-6.4 1.3,-15.4 1.8,-19.6 1.6,-12.3 8.8,-26.9 9.1,-27.5 0.4,-0.9 1.3,-1.4 2.2,-1.4 0.9,0 1.8,0.5 2.2,1.4 0.3,0.6 7.5,15.3 9.1,27.5 0.5,4.2 1.3,13.2 1.8,19.6 l 0.7,-1 c 0.5,-0.7 1.2,-1.1 2,-1.1 0.1,0 0.1,0 0.2,0 0.9,0.1 1.7,0.6 2,1.4 l 6.7,13.2 c 0.1,0.3 0.2,0.6 0.3,0.9 l 3.5,42.1 3.5,5.9 42.2,28.4 c 0.7,0.5 1.1,1.2 1.1,2.1 l 0,27.9 c 0,1.1 -0.8,2.1 -1.9,2.4 l -40.4,10 4.2,7.8 c 0.2,0.4 0.3,0.8 0.3,1.2 l 0,1.5 17,12 c 0.7,0.5 1.1,1.2 1.1,2 l 0,11.4 c 0,1.2 -0.8,2.2 -1.9,2.4 l -39.4,9.1 c 0.2,0 0,0.1 -0.2,0.1 z"
         id="path11"
         inkscape:connector-curvature="0"
         style="fill:#cae0e0" /><path
         class="st1"
         d="m 107,34.4 c 0,0 7.3,14.8 8.9,26.8 0.9,6.7 2.4,26.4 2.4,26.4 l 4.7,-6.7 6.7,13.2 3.5,42.7 4.1,6.9 42.7,28.7 0,27.9 -43.5,10.8 5.7,10.6 0,2.8 18.1,12.8 0,11.4 -39.4,9.1 -3.9,-26.8 -5.1,9.4 -4.9,0 -4.9,0 -5.1,-9.4 -3.9,26.8 -39.4,-9.1 0,-11.4 18.1,-12.8 0,-2.8 5.7,-10.6 -43.5,-10.8 0,-27.9 42.7,-28.7 4.1,-6.9 3.6,-42.8 6.7,-13.2 4.7,6.7 c 0,0 1.5,-19.7 2.4,-26.4 1.6,-11.9 8.8,-26.7 8.8,-26.7 m 0,-5 c -1.9,0 -3.6,1.1 -4.5,2.8 -0.3,0.6 -7.7,15.6 -9.3,28.3 -0.4,3.3 -1,9.7 -1.5,15.4 -0.2,0 -0.4,0 -0.6,0 -0.1,0 -0.2,0 -0.4,0 C 89,76 87.4,77 86.6,78.6 l -6.7,13.2 c -0.3,0.6 -0.5,1.2 -0.5,1.8 l -3.4,41.6 -3,4.9 -41.8,28.1 c -1.4,0.9 -2.2,2.5 -2.2,4.1 l 0,27.9 c 0,2.3 1.6,4.3 3.8,4.9 l 37.2,9.3 -2.7,5 c -0.4,0.7 -0.6,1.5 -0.6,2.4 l 0,0.2 -16,11.3 c -1.3,0.9 -2.1,2.5 -2.1,4.1 l 0,11.4 c 0,2.3 1.6,4.4 3.9,4.9 l 39.4,9.1 c 0.4,0.1 0.7,0.1 1.1,0.1 1,0 2,-0.3 2.8,-0.9 1.2,-0.8 1.9,-2 2.1,-3.4 l 2,-13.5 c 0.7,0.3 1.4,0.5 2.1,0.5 l 4.9,0 4.9,0 c 0.7,0 1.5,-0.2 2.1,-0.5 l 2,13.5 c 0.2,1.4 1,2.6 2.1,3.4 0.8,0.6 1.8,0.9 2.8,0.9 0.4,0 0.7,0 1.1,-0.1 l 39.4,-9.1 c 2.3,-0.5 3.9,-2.5 3.9,-4.9 l 0,-11.4 c 0,-1.6 -0.8,-3.1 -2.1,-4.1 l -16,-11.3 0,-0.2 c 0,-0.8 -0.2,-1.6 -0.6,-2.4 l -2.7,-5 37.2,-9.3 c 2.2,-0.6 3.8,-2.6 3.8,-4.9 l 0,-27.9 c 0,-1.7 -0.8,-3.2 -2.2,-4.1 l -41.8,-28.1 -3,-4.9 -3.4,-41.5 c -0.1,-0.6 -0.2,-1.3 -0.5,-1.8 l -6.7,-13.2 c -0.8,-1.6 -2.3,-2.6 -4.1,-2.7 -0.1,0 -0.2,0 -0.4,0 -0.2,0 -0.4,0 -0.6,0 -0.5,-5.7 -1.1,-12 -1.5,-15.4 -1.7,-12.7 -9,-27.7 -9.3,-28.3 -0.6,-1.8 -2.4,-2.9 -4.3,-2.9 l 0,0 z"
         id="path13"
         inkscape:connector-curvature="0"
         style="fill:#596b6a" /></g><polygon
       class="st1"
       points="112,240.4 117.1,231 97,231 102.1,240.4 107,240.4 "
       id="polygon15"
       style="fill:#596b6a" /><path
       class="st2"
       d="m 107,34.4 c 0,0 -4.1,8.4 -6.9,17.7 l 4.5,4 2.4,-1.8 2.4,1.8 4.5,-4 C 111.2,42.8 107,34.4 107,34.4 Z"
       id="path17"
       inkscape:connector-curvature="0"
       style="fill:#a8c1c0" /><g
       id="g19"><path
         class="st1"
         d="m 107,74.7 c 3.1,0 5.9,0.9 7.8,2.4 -0.7,-7.5 -4.1,-13 -4.1,-13 l -3.7,-3 -3.7,3 c 0,0 -3.4,5.5 -4.1,13 1.9,-1.5 4.7,-2.4 7.8,-2.4 z"
         id="path21"
         inkscape:connector-curvature="0"
         style="fill:#596b6a" /><path
         class="st1"
         d="m 107,75.5 c -3.3,0 -6.2,1.1 -7.9,2.6 -0.5,7.9 -0.1,22 -0.1,22 l 8,6.1 8,-6.1 c 0,0 0.5,-14.1 -0.1,-22 -1.7,-1.6 -4.6,-2.6 -7.9,-2.6 z"
         id="path23"
         inkscape:connector-curvature="0"
         style="fill:#596b6a" /></g><g
       id="g25"><path
         class="st1"
         d="m 107,34.4 c 0,0 7.3,14.8 8.9,26.8 0.9,6.7 2.4,26.4 2.4,26.4 l 4.7,-6.7 6.7,13.2 3.5,42.7 4.1,6.9 42.7,28.7 0,27.9 -43.5,10.8 5.7,10.6 0,2.8 18.1,12.8 0,11.4 -39.4,9.1 -3.9,-26.8 -5.1,9.4 -4.9,0 -4.9,0 -5.1,-9.4 -3.9,26.8 -39.4,-9.1 0,-11.4 18.1,-12.8 0,-2.8 5.7,-10.6 -43.5,-10.8 0,-27.9 42.7,-28.7 4.1,-6.9 3.6,-42.8 6.7,-13.2 4.7,6.7 c 0,0 1.5,-19.7 2.4,-26.4 1.6,-11.9 8.8,-26.7 8.8,-26.7 m 0,-5 c -1.9,0 -3.6,1.1 -4.5,2.8 -0.3,0.6 -7.7,15.6 -9.3,28.3 -0.4,3.3 -1,9.7 -1.5,15.4 -0.2,0 -0.4,0 -0.6,0 -0.1,0 -0.2,0 -0.4,0 C 89,76 87.4,77 86.6,78.6 l -6.7,13.2 c -0.3,0.6 -0.5,1.2 -0.5,1.8 l -3.4,41.6 -3,4.9 -41.8,28.1 c -1.4,0.9 -2.2,2.5 -2.2,4.1 l 0,27.9 c 0,2.3 1.6,4.3 3.8,4.9 l 37.2,9.3 -2.7,5 c -0.4,0.7 -0.6,1.5 -0.6,2.4 l 0,0.2 -16,11.3 c -1.3,0.9 -2.1,2.5 -2.1,4.1 l 0,11.4 c 0,2.3 1.6,4.4 3.9,4.9 l 39.4,9.1 c 0.4,0.1 0.7,0.1 1.1,0.1 1,0 2,-0.3 2.8,-0.9 1.2,-0.8 1.9,-2 2.1,-3.4 l 2,-13.5 c 0.7,0.3 1.4,0.5 2.1,0.5 l 4.9,0 4.9,0 c 0.7,0 1.5,-0.2 2.1,-0.5 l 2,13.5 c 0.2,1.4 1,2.6 2.1,3.4 0.8,0.6 1.8,0.9 2.8,0.9 0.4,0 0.7,0 1.1,-0.1 l 39.4,-9.1 c 2.3,-0.5 3.9,-2.5 3.9,-4.9 l 0,-11.4 c 0,-1.6 -0.8,-3.1 -2.1,-4.1 l -16,-11.3 0,-0.2 c 0,-0.8 -0.2,-1.6 -0.6,-2.4 l -2.7,-5 37.2,-9.3 c 2.2,-0.6 3.8,-2.6 3.8,-4.9 l 0,-27.9 c 0,-1.7 -0.8,-3.2 -2.2,-4.1 l -41.8,-28.1 -3,-4.9 -3.4,-41.5 c -0.1,-0.6 -0.2,-1.3 -0.5,-1.8 l -6.7,-13.2 c -0.8,-1.6 -2.3,-2.6 -4.1,-2.7 -0.1,0 -0.2,0 -0.4,0 -0.2,0 -0.4,0 -0.6,0 -0.5,-5.7 -1.1,-12 -1.5,-15.4 -1.7,-12.7 -9,-27.7 -9.3,-28.3 -0.6,-1.8 -2.4,-2.9 -4.3,-2.9 l 0,0 z"
         id="path27"
         inkscape:connector-curvature="0"
         style="fill:#596b6a" /></g></g></svg>