<?xml version="1.0" encoding="UTF-8" standalone="no"?>
<!-- Generator: Adobe Illustrator 21.1.0, SVG Export Plug-In . SVG Version: 6.00 Build 0)  -->

<svg
   xmlns:dc="http://purl.org/dc/elements/1.1/"
   xmlns:cc="http://creativecommons.org/ns#"
   xmlns:rdf="http://www.w3.org/1999/02/22-rdf-syntax-ns#"
   xmlns:svg="http://www.w3.org/2000/svg"
   xmlns="http://www.w3.org/2000/svg"
   xmlns:sodipodi="http://sodipodi.sourceforge.net/DTD/sodipodi-0.dtd"
   xmlns:inkscape="http://www.inkscape.org/namespaces/inkscape"
   version="1.1"
   id="Layer_1"
   x="0px"
   y="0px"
   viewBox="0 0 70 70"
   xml:space="preserve"
   inkscape:version="0.91pre4 r13712"
   sodipodi:docname="nahshon.svg"
   width="70"
   height="70"><metadata
     id="metadata33"><rdf:RDF><cc:Work
         rdf:about=""><dc:format>image/svg+xml</dc:format><dc:type
           rdf:resource="http://purl.org/dc/dcmitype/StillImage" /><dc:title></dc:title></cc:Work></rdf:RDF></metadata><defs
     id="defs31"><filter
       inkscape:collect="always"
       style="color-interpolation-filters:sRGB"
       id="filter4205"
       x="-0.23899911"
       width="1.4779983"
       y="-0.24100929"
       height="1.4820186"><feGaussianBlur
         inkscape:collect="always"
         stdDeviation="22.685"
         id="feGaussianBlur4207" /></filter></defs><sodipodi:namedview
     pagecolor="#ffffff"
     bordercolor="#666666"
     borderopacity="1"
     objecttolerance="10"
     gridtolerance="10"
     guidetolerance="10"
     inkscape:pageopacity="0"
     inkscape:pageshadow="2"
     inkscape:window-width="1280"
     inkscape:window-height="961"
     id="namedview29"
     showgrid="false"
     inkscape:zoom="0.80272109"
     inkscape:cx="-43.364233"
     inkscape:cy="147"
     inkscape:window-x="-8"
     inkscape:window-y="-8"
     inkscape:window-maximized="1"
     inkscape:current-layer="Layer_1" /><style
     type="text/css"
     id="style3">
	.st0{fill:#F2F2F2;}
	.st1{fill:#596B6A;}
	.st2{fill:#A8C1C0;}
</style><g
     id="g4159"
     transform="matrix(0.2,0,0,0.2,-6.7889692e-7,56)"><g
       style="opacity:0.5;fill:#000000;fill-opacity:1;filter:url(#filter4205)"
       id="g4161"
       transform="translate(19.2,-250.45)"><g
         style="fill:#000000;fill-opacity:1"
         id="g4163"><path
           class="st0"
           d="m 192.6,255.8 c -0.4,0 -0.8,-0.1 -1.1,-0.3 l -32.3,-16 -0.9,2.5 c -0.3,1 -1.3,1.7 -2.4,1.7 -1.1,0 -2,-0.7 -2.4,-1.7 l -0.9,-2.5 -32.3,16 c -0.4,0.2 -0.7,0.3 -1.1,0.3 -0.4,0 -0.9,-0.1 -1.3,-0.4 -0.7,-0.4 -1.2,-1.2 -1.2,-2.1 0,-2 0,-12.1 4.2,-15.9 1.8,-1.6 21.6,-18.4 27,-22.9 -0.6,-1.8 -1.4,-4.8 -1.7,-8.1 l -1.9,-1.1 c -0.5,0.5 -1.1,0.8 -1.8,0.8 l -8.3,0 c -1.1,0 -2.1,-0.8 -2.4,-1.9 -0.2,-0.6 -3.9,-15 -3.9,-23.1 0,-8.1 2.7,-16.8 2.8,-17.1 0.3,-1 1.2,-1.7 2.3,-1.7 0,0 2.7,-0.1 4.8,-0.1 l 1.2,0 c 1.8,0 4,0.1 4.6,0.1 -0.4,-2.1 -0.7,-4.4 -1,-7 l -17.6,1.5 c -0.5,2.2 -1.1,3.7 -1.2,3.7 -0.4,0.9 -1.3,1.5 -2.3,1.5 0,0 0,0 0,0 -1,0 -1.9,-0.6 -2.3,-1.5 0,-0.1 -0.5,-1 -0.9,-2.6 l -14.6,4.1 c -0.5,2.1 -1.1,3.5 -1.1,3.5 -0.4,0.9 -1.3,1.5 -2.3,1.5 0,0 0,0 0,0 -1,0 -1.9,-0.6 -2.3,-1.5 0,-0.1 -0.2,-0.5 -0.4,-1.1 l -16.1,7.9 c -0.5,2.7 -1.3,4.6 -1.4,4.7 -0.4,0.9 -1.3,1.5 -2.3,1.5 -1,0 -1.9,-0.6 -2.3,-1.5 0,-0.1 -0.3,-0.7 -0.6,-1.5 l -22.5,11 -3.7,6.9 c -0.4,0.8 -1.3,1.3 -2.2,1.3 -0.2,0 -0.4,0 -0.6,-0.1 -1.1,-0.3 -1.9,-1.3 -1.9,-2.4 l 0,-4.3 c 0,-0.2 0,-0.4 0.1,-0.6 l 3.1,-12.1 c 0.1,-0.6 0.5,-1 0.9,-1.4 l 94,-69.9 0,-36.9 c 0,-20.1 11.7,-31.3 11.8,-31.4 0.5,-0.4 1.1,-0.6 1.7,-0.6 0.6,0 1.3,0.2 1.8,0.7 0.5,0.5 11.8,11.7 11.8,31.3 l 0,37.2 94,69.9 c 0.5,0.3 0.8,0.8 0.9,1.4 l 3.1,12.1 c 0.1,0.2 0.1,0.4 0.1,0.6 l 0,4.3 c 0,1.1 -0.8,2.1 -1.9,2.4 -0.2,0 -0.4,0.1 -0.6,0.1 -0.9,0 -1.8,-0.5 -2.2,-1.3 l -3.7,-6.9 -22.5,-11 c -0.3,0.9 -0.5,1.4 -0.6,1.5 -0.4,0.9 -1.3,1.5 -2.3,1.5 0,0 0,0 0,0 -1,0 -1.9,-0.6 -2.3,-1.5 0,-0.1 -0.9,-2 -1.4,-4.7 l -16.1,-7.9 c -0.2,0.6 -0.4,1 -0.4,1.1 -0.4,0.9 -1.3,1.5 -2.3,1.5 0,0 0,0 0,0 -1,0 -1.9,-0.6 -2.3,-1.5 0,-0.1 -0.7,-1.5 -1.1,-3.5 L 193,158.2 c -0.4,1.5 -0.9,2.5 -0.9,2.6 -0.4,0.9 -1.3,1.5 -2.3,1.5 -1,0 -1.9,-0.6 -2.3,-1.5 0,-0.1 -0.7,-1.6 -1.2,-3.7 l -17.6,-1.5 c -0.2,2.6 -0.6,4.9 -1,7 0.6,0 2.8,-0.1 4.6,-0.1 l 1.2,0 c 2.1,0 4.8,0.1 4.8,0.1 1.1,0 2,0.7 2.3,1.7 0.1,0.4 2.8,9 2.8,17.1 0,8.1 -3.7,22.5 -3.9,23.1 -0.3,1.1 -1.3,1.9 -2.4,1.9 l -8.3,0 c -0.7,0 -1.4,-0.3 -1.8,-0.8 l -1.9,1.1 c -0.3,3.3 -1.1,6.3 -1.7,8.1 5.4,4.6 25.2,21.4 27,22.9 4.3,3.7 4.3,13.9 4.2,15.9 0,0.9 -0.5,1.6 -1.2,2.1 0.1,0 -0.3,0.1 -0.8,0.1 z"
           id="path4165"
           inkscape:connector-curvature="0"
           style="fill:#000000;fill-opacity:1" /><path
           class="st1"
           d="m 156,37.5 0,0 c 0,0 11,10.7 11,29.5 0,8.7 0,23.6 0,38.5 l 95,70.6 3.1,12.1 0,4.3 -4,-7.6 -26,-12.7 c -0.4,2.4 -1.2,4.1 -1.2,4.1 0,0 -1,-2.3 -1.3,-5.3 l -20,-9.8 c -0.4,2.2 -1.1,3.6 -1.1,3.6 0,0 -0.8,-1.9 -1.2,-4.5 l -18.7,-5.2 c -0.4,2.7 -1.3,4.7 -1.3,4.7 0,0 -1,-2.1 -1.3,-5 l -22.1,-1.9 c -0.4,5.9 -1.3,10.5 -2.1,14 l 2.8,0.1 c 0.3,-1.2 0.6,-1.9 0.6,-1.9 0,0 2.6,-0.1 4.7,-0.1 0.2,0 0.3,0 0.5,0 0,0 0.1,0 0.1,0 0,0 0.1,0 0.1,0 0.2,0 0.3,0 0.5,0 2.1,0 4.7,0.1 4.7,0.1 0,0 2.7,8.5 2.7,16.4 0,7.9 -3.8,22.4 -3.8,22.4 l -2.5,0 -3.4,0 -2.5,0 c 0,0 -0.2,-0.7 -0.5,-1.9 l -5.6,3.2 c -0.2,5.3 -2.2,10.4 -2.2,10.4 0,0 26.3,22.2 28.3,24 3.6,3.1 3.4,13.9 3.4,13.9 l -34.9,-17.5 -1.8,5.2 0,0 0,0 0,0 -1.8,-5.2 -34.8,17.3 c 0,0 -0.2,-10.8 3.4,-13.9 2,-1.8 28.3,-24 28.3,-24 0,0 -2,-5.2 -2.2,-10.4 l -5.6,-3.2 c -0.3,1.2 -0.5,1.9 -0.5,1.9 l -2.5,0 -3.3,0 -2.5,0 c 0,0 -3.8,-14.6 -3.8,-22.4 0,-7.9 2.7,-16.4 2.7,-16.4 0,0 2.6,-0.1 4.7,-0.1 0.2,0 0.3,0 0.5,0 0,0 0.1,0 0.1,0 0,0 0.1,0 0.1,0 0.2,0 0.3,0 0.5,0 2.1,0 4.7,0.1 4.7,0.1 0,0 0.2,0.7 0.6,1.9 l 2.8,-0.1 c -0.8,-3.6 -1.8,-8.2 -2.1,-14 l -22.1,1.9 c -0.3,2.9 -1.3,5 -1.3,5 0,0 -0.9,-1.9 -1.3,-4.7 l -18.7,5.2 c -0.4,2.6 -1.2,4.5 -1.2,4.5 0,0 -0.7,-1.5 -1.1,-3.6 l -20,9.8 c -0.3,3.1 -1.3,5.3 -1.3,5.3 0,0 -0.8,-1.7 -1.2,-4.1 l -26,12.7 -4,7.6 0,-4.3 3.1,-12.1 95,-70.6 c 0,-14.9 0,-29.8 0,-38.5 C 145,48.1 156,37.5 156,37.5 l 0,0 0,0 m 0,-5 c -1.3,0 -2.5,0.5 -3.5,1.4 C 152,34.4 140,46.3 140,67 l 0,36 -92.9,69.1 c -0.9,0.7 -1.6,1.7 -1.9,2.8 L 42.1,187 c -0.1,0.4 -0.2,0.8 -0.2,1.3 l 0,4.3 c 0,2.3 1.6,4.3 3.8,4.9 0.4,0.1 0.8,0.1 1.2,0.1 1.8,0 3.5,-1 4.4,-2.7 l 3.3,-6.2 19.4,-9.5 c 0.9,1.3 2.4,2.1 4.1,2.1 2,0 3.7,-1.1 4.5,-2.9 0.1,-0.2 0.8,-1.8 1.3,-4.1 L 96.7,168 c 0.9,1.1 2.3,1.7 3.8,1.7 0,0 0,0 0,0 2,0 3.7,-1.1 4.5,-2.9 0.1,-0.2 0.5,-1.1 0.9,-2.5 l 11,-3.1 c 0.1,0.3 0.2,0.5 0.2,0.6 0.8,1.8 2.6,2.9 4.5,2.9 0,0 0,0 0,0 2,0 3.7,-1.1 4.5,-2.9 0.1,-0.2 0.5,-1.1 0.9,-2.4 l 13.4,-1.2 c 0.1,0.6 0.1,1.2 0.2,1.7 -0.5,0 -1.1,0 -1.6,0 l -0.5,0 -0.1,0 -0.1,0 -0.5,0 c -2.1,0 -4.7,0.1 -4.8,0.1 -2.1,0.1 -4,1.5 -4.6,3.5 -0.1,0.4 -2.9,9.4 -2.9,17.9 0,8.4 3.8,23.1 4,23.7 0.6,2.2 2.6,3.7 4.8,3.7 l 2.5,0 3.4,0 2.5,0 c 0.5,0 1,-0.1 1.4,-0.2 0.3,2 0.7,3.8 1.1,5.2 -6.7,5.7 -24.1,20.4 -25.8,21.9 -5,4.3 -5.1,14.7 -5.1,17.8 0,1.7 0.9,3.3 2.4,4.2 0.8,0.5 1.7,0.7 2.6,0.7 0.8,0 1.5,-0.2 2.2,-0.5 l 29.7,-14.8 c 0.8,1.9 2.6,3.2 4.6,3.2 2.1,0 3.9,-1.3 4.6,-3.2 l 29.7,14.8 c 0.7,0.3 1.5,0.5 2.2,0.5 0.9,0 1.8,-0.2 2.6,-0.7 1.5,-0.9 2.4,-2.5 2.4,-4.2 0.1,-3.1 -0.1,-13.4 -5.1,-17.8 -1.7,-1.5 -19.1,-16.3 -25.8,-21.9 0.4,-1.5 0.8,-3.3 1.1,-5.2 0.5,0.1 0.9,0.2 1.4,0.2 l 2.5,0 3.4,0 2.5,0 c 2.3,0 4.3,-1.5 4.8,-3.7 0.2,-0.6 4,-15.3 4,-23.7 0,-8.5 -2.8,-17.5 -2.9,-17.9 -0.6,-2 -2.5,-3.4 -4.6,-3.5 -0.1,0 -2.7,-0.1 -4.8,-0.1 l -0.5,0 -0.1,0 -0.1,0 -0.5,0 c -0.5,0 -1.1,0 -1.6,0 0.1,-0.6 0.2,-1.1 0.2,-1.7 l 13.4,1.2 c 0.4,1.4 0.8,2.3 0.9,2.4 0.8,1.8 2.6,2.9 4.5,2.9 0,0 0,0 0,0 2,0 3.7,-1.1 4.5,-2.9 0,-0.1 0.1,-0.3 0.2,-0.6 l 11,3.1 c 0.4,1.4 0.8,2.4 0.9,2.5 0.8,1.8 2.6,2.9 4.5,2.9 0,0 0,0 0,0 1.5,0 2.9,-0.7 3.8,-1.7 l 12.8,6.3 c 0.5,2.3 1.2,3.8 1.3,4.1 0.8,1.8 2.6,2.9 4.5,2.9 1.6,0 3.2,-0.8 4.1,-2.1 l 19.4,9.5 3.3,6.2 c 0.9,1.7 2.6,2.7 4.4,2.7 0.4,0 0.8,0 1.2,-0.1 2.2,-0.6 3.8,-2.6 3.8,-4.9 l 0,-4.3 c 0,-0.4 -0.1,-0.8 -0.2,-1.3 l -3.1,-12.1 c -0.3,-1.1 -0.9,-2.1 -1.9,-2.8 L 172,103 172,67 c 0,-20.7 -12,-32.6 -12.5,-33.1 -0.9,-1 -2.2,-1.4 -3.5,-1.4 l 0,0 z"
           id="path4167"
           inkscape:connector-curvature="0"
           style="fill:#000000;fill-opacity:1" /></g><path
         class="st2"
         d="m 144.5,166.8 c -0.3,-1.2 -0.5,-1.9 -0.5,-1.9 0,0 -2.6,-0.1 -4.7,-0.1 -0.2,0 -0.3,0 -0.5,0 0,0 -0.1,0 -0.1,0 0,0 -0.1,0 -0.1,0 -0.2,0 -0.3,0 -0.5,0 -2.1,0 -4.7,0.1 -4.7,0.1 0,0 -0.2,0.7 -0.5,1.9 l 11.6,0 z"
         id="path4169"
         inkscape:connector-curvature="0"
         style="fill:#000000;fill-opacity:1" /><g
         style="fill:#000000;fill-opacity:1"
         id="g4171"><path
           class="st1"
           d="m 149.2,55.4 c -0.9,1.6 -1.7,3.6 -2,5.9 0.7,0.4 1.6,0.8 1.6,0.8 0,0 0.8,-2.1 2.1,-4 l -1.7,-2.7 z"
           id="path4173"
           inkscape:connector-curvature="0"
           style="fill:#000000;fill-opacity:1" /><path
           class="st1"
           d="m 150,54.2 1.7,2.8 c 1.1,-1.3 2.4,-2.4 3.9,-2.4 l 0,-5.6 c 0,-0.1 -3.1,1.6 -5.6,5.2 z"
           id="path4175"
           inkscape:connector-curvature="0"
           style="fill:#000000;fill-opacity:1" /></g><path
         class="st2"
         d="m 167.6,166.8 c 0.3,-1.2 0.5,-1.9 0.5,-1.9 0,0 2.6,-0.1 4.7,-0.1 0.2,0 0.3,0 0.5,0 0,0 0.1,0 0.1,0 0,0 0.1,0 0.1,0 0.2,0 0.3,0 0.5,0 2.1,0 4.7,0.1 4.7,0.1 0,0 0.2,0.7 0.5,1.9 l -11.6,0 z"
         id="path4177"
         inkscape:connector-curvature="0"
         style="fill:#000000;fill-opacity:1" /><g
         style="fill:#000000;fill-opacity:1"
         id="g4179"><path
           class="st1"
           d="m 160.4,56.9 1.7,-2.8 c -2.5,-3.6 -5.6,-5.3 -5.6,-5.3 l 0,5.6 c 1.5,0.1 2.8,1.2 3.9,2.5 z"
           id="path4181"
           inkscape:connector-curvature="0"
           style="fill:#000000;fill-opacity:1" /><path
           class="st1"
           d="m 162.9,55.4 -1.6,2.7 c 1.3,2 2.1,4 2.1,4 0,0 0.9,-0.3 1.6,-0.8 -0.4,-2.3 -1.2,-4.2 -2.1,-5.9 z"
           id="path4183"
           inkscape:connector-curvature="0"
           style="fill:#000000;fill-opacity:1" /></g></g><g
       transform="translate(19.2,-250.45)"
       id="g5"><g
         id="g7"><path
           style="fill:#f2f2f2"
           inkscape:connector-curvature="0"
           id="path9"
           d="m 192.6,255.8 c -0.4,0 -0.8,-0.1 -1.1,-0.3 l -32.3,-16 -0.9,2.5 c -0.3,1 -1.3,1.7 -2.4,1.7 -1.1,0 -2,-0.7 -2.4,-1.7 l -0.9,-2.5 -32.3,16 c -0.4,0.2 -0.7,0.3 -1.1,0.3 -0.4,0 -0.9,-0.1 -1.3,-0.4 -0.7,-0.4 -1.2,-1.2 -1.2,-2.1 0,-2 0,-12.1 4.2,-15.9 1.8,-1.6 21.6,-18.4 27,-22.9 -0.6,-1.8 -1.4,-4.8 -1.7,-8.1 l -1.9,-1.1 c -0.5,0.5 -1.1,0.8 -1.8,0.8 l -8.3,0 c -1.1,0 -2.1,-0.8 -2.4,-1.9 -0.2,-0.6 -3.9,-15 -3.9,-23.1 0,-8.1 2.7,-16.8 2.8,-17.1 0.3,-1 1.2,-1.7 2.3,-1.7 0,0 2.7,-0.1 4.8,-0.1 l 1.2,0 c 1.8,0 4,0.1 4.6,0.1 -0.4,-2.1 -0.7,-4.4 -1,-7 l -17.6,1.5 c -0.5,2.2 -1.1,3.7 -1.2,3.7 -0.4,0.9 -1.3,1.5 -2.3,1.5 0,0 0,0 0,0 -1,0 -1.9,-0.6 -2.3,-1.5 0,-0.1 -0.5,-1 -0.9,-2.6 l -14.6,4.1 c -0.5,2.1 -1.1,3.5 -1.1,3.5 -0.4,0.9 -1.3,1.5 -2.3,1.5 0,0 0,0 0,0 -1,0 -1.9,-0.6 -2.3,-1.5 0,-0.1 -0.2,-0.5 -0.4,-1.1 l -16.1,7.9 c -0.5,2.7 -1.3,4.6 -1.4,4.7 -0.4,0.9 -1.3,1.5 -2.3,1.5 -1,0 -1.9,-0.6 -2.3,-1.5 0,-0.1 -0.3,-0.7 -0.6,-1.5 l -22.5,11 -3.7,6.9 c -0.4,0.8 -1.3,1.3 -2.2,1.3 -0.2,0 -0.4,0 -0.6,-0.1 -1.1,-0.3 -1.9,-1.3 -1.9,-2.4 l 0,-4.3 c 0,-0.2 0,-0.4 0.1,-0.6 l 3.1,-12.1 c 0.1,-0.6 0.5,-1 0.9,-1.4 l 94,-69.9 0,-36.9 c 0,-20.1 11.7,-31.3 11.8,-31.4 0.5,-0.4 1.1,-0.6 1.7,-0.6 0.6,0 1.3,0.2 1.8,0.7 0.5,0.5 11.8,11.7 11.8,31.3 l 0,37.2 94,69.9 c 0.5,0.3 0.8,0.8 0.9,1.4 l 3.1,12.1 c 0.1,0.2 0.1,0.4 0.1,0.6 l 0,4.3 c 0,1.1 -0.8,2.1 -1.9,2.4 -0.2,0 -0.4,0.1 -0.6,0.1 -0.9,0 -1.8,-0.5 -2.2,-1.3 l -3.7,-6.9 -22.5,-11 c -0.3,0.9 -0.5,1.4 -0.6,1.5 -0.4,0.9 -1.3,1.5 -2.3,1.5 0,0 0,0 0,0 -1,0 -1.9,-0.6 -2.3,-1.5 0,-0.1 -0.9,-2 -1.4,-4.7 l -16.1,-7.9 c -0.2,0.6 -0.4,1 -0.4,1.1 -0.4,0.9 -1.3,1.5 -2.3,1.5 0,0 0,0 0,0 -1,0 -1.9,-0.6 -2.3,-1.5 0,-0.1 -0.7,-1.5 -1.1,-3.5 L 193,158.2 c -0.4,1.5 -0.9,2.5 -0.9,2.6 -0.4,0.9 -1.3,1.5 -2.3,1.5 -1,0 -1.9,-0.6 -2.3,-1.5 0,-0.1 -0.7,-1.6 -1.2,-3.7 l -17.6,-1.5 c -0.2,2.6 -0.6,4.9 -1,7 0.6,0 2.8,-0.1 4.6,-0.1 l 1.2,0 c 2.1,0 4.8,0.1 4.8,0.1 1.1,0 2,0.7 2.3,1.7 0.1,0.4 2.8,9 2.8,17.1 0,8.1 -3.7,22.5 -3.9,23.1 -0.3,1.1 -1.3,1.9 -2.4,1.9 l -8.3,0 c -0.7,0 -1.4,-0.3 -1.8,-0.8 l -1.9,1.1 c -0.3,3.3 -1.1,6.3 -1.7,8.1 5.4,4.6 25.2,21.4 27,22.9 4.3,3.7 4.3,13.9 4.2,15.9 0,0.9 -0.5,1.6 -1.2,2.1 0.1,0 -0.3,0.1 -0.8,0.1 z"
           class="st0" /><path
           style="fill:#596b6a"
           inkscape:connector-curvature="0"
           id="path11"
           d="m 156,37.5 0,0 c 0,0 11,10.7 11,29.5 0,8.7 0,23.6 0,38.5 l 95,70.6 3.1,12.1 0,4.3 -4,-7.6 -26,-12.7 c -0.4,2.4 -1.2,4.1 -1.2,4.1 0,0 -1,-2.3 -1.3,-5.3 l -20,-9.8 c -0.4,2.2 -1.1,3.6 -1.1,3.6 0,0 -0.8,-1.9 -1.2,-4.5 l -18.7,-5.2 c -0.4,2.7 -1.3,4.7 -1.3,4.7 0,0 -1,-2.1 -1.3,-5 l -22.1,-1.9 c -0.4,5.9 -1.3,10.5 -2.1,14 l 2.8,0.1 c 0.3,-1.2 0.6,-1.9 0.6,-1.9 0,0 2.6,-0.1 4.7,-0.1 0.2,0 0.3,0 0.5,0 0,0 0.1,0 0.1,0 0,0 0.1,0 0.1,0 0.2,0 0.3,0 0.5,0 2.1,0 4.7,0.1 4.7,0.1 0,0 2.7,8.5 2.7,16.4 0,7.9 -3.8,22.4 -3.8,22.4 l -2.5,0 -3.4,0 -2.5,0 c 0,0 -0.2,-0.7 -0.5,-1.9 l -5.6,3.2 c -0.2,5.3 -2.2,10.4 -2.2,10.4 0,0 26.3,22.2 28.3,24 3.6,3.1 3.4,13.9 3.4,13.9 l -34.9,-17.5 -1.8,5.2 0,0 0,0 0,0 -1.8,-5.2 -34.8,17.3 c 0,0 -0.2,-10.8 3.4,-13.9 2,-1.8 28.3,-24 28.3,-24 0,0 -2,-5.2 -2.2,-10.4 l -5.6,-3.2 c -0.3,1.2 -0.5,1.9 -0.5,1.9 l -2.5,0 -3.3,0 -2.5,0 c 0,0 -3.8,-14.6 -3.8,-22.4 0,-7.9 2.7,-16.4 2.7,-16.4 0,0 2.6,-0.1 4.7,-0.1 0.2,0 0.3,0 0.5,0 0,0 0.1,0 0.1,0 0,0 0.1,0 0.1,0 0.2,0 0.3,0 0.5,0 2.1,0 4.7,0.1 4.7,0.1 0,0 0.2,0.7 0.6,1.9 l 2.8,-0.1 c -0.8,-3.6 -1.8,-8.2 -2.1,-14 l -22.1,1.9 c -0.3,2.9 -1.3,5 -1.3,5 0,0 -0.9,-1.9 -1.3,-4.7 l -18.7,5.2 c -0.4,2.6 -1.2,4.5 -1.2,4.5 0,0 -0.7,-1.5 -1.1,-3.6 l -20,9.8 c -0.3,3.1 -1.3,5.3 -1.3,5.3 0,0 -0.8,-1.7 -1.2,-4.1 l -26,12.7 -4,7.6 0,-4.3 3.1,-12.1 95,-70.6 c 0,-14.9 0,-29.8 0,-38.5 C 145,48.1 156,37.5 156,37.5 l 0,0 0,0 m 0,-5 c -1.3,0 -2.5,0.5 -3.5,1.4 C 152,34.4 140,46.3 140,67 l 0,36 -92.9,69.1 c -0.9,0.7 -1.6,1.7 -1.9,2.8 L 42.1,187 c -0.1,0.4 -0.2,0.8 -0.2,1.3 l 0,4.3 c 0,2.3 1.6,4.3 3.8,4.9 0.4,0.1 0.8,0.1 1.2,0.1 1.8,0 3.5,-1 4.4,-2.7 l 3.3,-6.2 19.4,-9.5 c 0.9,1.3 2.4,2.1 4.1,2.1 2,0 3.7,-1.1 4.5,-2.9 0.1,-0.2 0.8,-1.8 1.3,-4.1 L 96.7,168 c 0.9,1.1 2.3,1.7 3.8,1.7 0,0 0,0 0,0 2,0 3.7,-1.1 4.5,-2.9 0.1,-0.2 0.5,-1.1 0.9,-2.5 l 11,-3.1 c 0.1,0.3 0.2,0.5 0.2,0.6 0.8,1.8 2.6,2.9 4.5,2.9 0,0 0,0 0,0 2,0 3.7,-1.1 4.5,-2.9 0.1,-0.2 0.5,-1.1 0.9,-2.4 l 13.4,-1.2 c 0.1,0.6 0.1,1.2 0.2,1.7 -0.5,0 -1.1,0 -1.6,0 l -0.5,0 -0.1,0 -0.1,0 -0.5,0 c -2.1,0 -4.7,0.1 -4.8,0.1 -2.1,0.1 -4,1.5 -4.6,3.5 -0.1,0.4 -2.9,9.4 -2.9,17.9 0,8.4 3.8,23.1 4,23.7 0.6,2.2 2.6,3.7 4.8,3.7 l 2.5,0 3.4,0 2.5,0 c 0.5,0 1,-0.1 1.4,-0.2 0.3,2 0.7,3.8 1.1,5.2 -6.7,5.7 -24.1,20.4 -25.8,21.9 -5,4.3 -5.1,14.7 -5.1,17.8 0,1.7 0.9,3.3 2.4,4.2 0.8,0.5 1.7,0.7 2.6,0.7 0.8,0 1.5,-0.2 2.2,-0.5 l 29.7,-14.8 c 0.8,1.9 2.6,3.2 4.6,3.2 2.1,0 3.9,-1.3 4.6,-3.2 l 29.7,14.8 c 0.7,0.3 1.5,0.5 2.2,0.5 0.9,0 1.8,-0.2 2.6,-0.7 1.5,-0.9 2.4,-2.5 2.4,-4.2 0.1,-3.1 -0.1,-13.4 -5.1,-17.8 -1.7,-1.5 -19.1,-16.3 -25.8,-21.9 0.4,-1.5 0.8,-3.3 1.1,-5.2 0.5,0.1 0.9,0.2 1.4,0.2 l 2.5,0 3.4,0 2.5,0 c 2.3,0 4.3,-1.5 4.8,-3.7 0.2,-0.6 4,-15.3 4,-23.7 0,-8.5 -2.8,-17.5 -2.9,-17.9 -0.6,-2 -2.5,-3.4 -4.6,-3.5 -0.1,0 -2.7,-0.1 -4.8,-0.1 l -0.5,0 -0.1,0 -0.1,0 -0.5,0 c -0.5,0 -1.1,0 -1.6,0 0.1,-0.6 0.2,-1.1 0.2,-1.7 l 13.4,1.2 c 0.4,1.4 0.8,2.3 0.9,2.4 0.8,1.8 2.6,2.9 4.5,2.9 0,0 0,0 0,0 2,0 3.7,-1.1 4.5,-2.9 0,-0.1 0.1,-0.3 0.2,-0.6 l 11,3.1 c 0.4,1.4 0.8,2.4 0.9,2.5 0.8,1.8 2.6,2.9 4.5,2.9 0,0 0,0 0,0 1.5,0 2.9,-0.7 3.8,-1.7 l 12.8,6.3 c 0.5,2.3 1.2,3.8 1.3,4.1 0.8,1.8 2.6,2.9 4.5,2.9 1.6,0 3.2,-0.8 4.1,-2.1 l 19.4,9.5 3.3,6.2 c 0.9,1.7 2.6,2.7 4.4,2.7 0.4,0 0.8,0 1.2,-0.1 2.2,-0.6 3.8,-2.6 3.8,-4.9 l 0,-4.3 c 0,-0.4 -0.1,-0.8 -0.2,-1.3 l -3.1,-12.1 c -0.3,-1.1 -0.9,-2.1 -1.9,-2.8 L 172,103 172,67 c 0,-20.7 -12,-32.6 -12.5,-33.1 -0.9,-1 -2.2,-1.4 -3.5,-1.4 l 0,0 z"
           class="st1" /></g><path
         style="fill:#a8c1c0"
         inkscape:connector-curvature="0"
         id="path13"
         d="m 144.5,166.8 c -0.3,-1.2 -0.5,-1.9 -0.5,-1.9 0,0 -2.6,-0.1 -4.7,-0.1 -0.2,0 -0.3,0 -0.5,0 0,0 -0.1,0 -0.1,0 0,0 -0.1,0 -0.1,0 -0.2,0 -0.3,0 -0.5,0 -2.1,0 -4.7,0.1 -4.7,0.1 0,0 -0.2,0.7 -0.5,1.9 l 11.6,0 z"
         class="st2" /><g
         id="g15"><path
           style="fill:#596b6a"
           inkscape:connector-curvature="0"
           id="path17"
           d="m 149.2,55.4 c -0.9,1.6 -1.7,3.6 -2,5.9 0.7,0.4 1.6,0.8 1.6,0.8 0,0 0.8,-2.1 2.1,-4 l -1.7,-2.7 z"
           class="st1" /><path
           style="fill:#596b6a"
           inkscape:connector-curvature="0"
           id="path19"
           d="m 150,54.2 1.7,2.8 c 1.1,-1.3 2.4,-2.4 3.9,-2.4 l 0,-5.6 c 0,-0.1 -3.1,1.6 -5.6,5.2 z"
           class="st1" /></g><path
         style="fill:#a8c1c0"
         inkscape:connector-curvature="0"
         id="path21"
         d="m 167.6,166.8 c 0.3,-1.2 0.5,-1.9 0.5,-1.9 0,0 2.6,-0.1 4.7,-0.1 0.2,0 0.3,0 0.5,0 0,0 0.1,0 0.1,0 0,0 0.1,0 0.1,0 0.2,0 0.3,0 0.5,0 2.1,0 4.7,0.1 4.7,0.1 0,0 0.2,0.7 0.5,1.9 l -11.6,0 z"
         class="st2" /><g
         id="g23"><path
           style="fill:#596b6a"
           inkscape:connector-curvature="0"
           id="path25"
           d="m 160.4,56.9 1.7,-2.8 c -2.5,-3.6 -5.6,-5.3 -5.6,-5.3 l 0,5.6 c 1.5,0.1 2.8,1.2 3.9,2.5 z"
           class="st1" /><path
           style="fill:#596b6a"
           inkscape:connector-curvature="0"
           id="path27"
           d="m 162.9,55.4 -1.6,2.7 c 1.3,2 2.1,4 2.1,4 0,0 0.9,-0.3 1.6,-0.8 -0.4,-2.3 -1.2,-4.2 -2.1,-5.9 z"
           class="st1" /></g></g></g></svg>