<?xml version="1.0" encoding="utf-8"?>
<!-- Generator: Adobe Illustrator 21.1.0, SVG Export Plug-In . SVG Version: 6.00 Build 0)  -->
<svg version="1.1" id="Layer_1" xmlns="http://www.w3.org/2000/svg" xmlns:xlink="http://www.w3.org/1999/xlink" x="0px" y="0px"
	 viewBox="0 0 282 336" style="enable-background:new 0 0 282 336;" xml:space="preserve">
<style type="text/css">
	.st0{fill:#EDE2B2;}
	.st1{fill:#596B6A;}
	.st2{fill:#DBCF9E;}
	.st3{fill:#596B6A;stroke:#596B6A;stroke-width:2;stroke-miterlimit:10;}
	.st4{fill:none;stroke:#EDE2B2;stroke-width:2;stroke-miterlimit:10;}
</style>
<g>
	<g>
		<path class="st0" d="M140.8,296c-0.7,0-1.3-0.3-1.8-0.7c-0.5-0.5-0.7-1.1-0.7-1.8l0-1.6l-21.2-2.7c-1-0.1-1.8-0.8-2.1-1.8
			c-0.2-0.6-1.7-6.2-1.7-9.2c0-4,2.6-5.8,2.9-6c0.4-0.2,0.8-0.4,1.2-0.4l18.3-1.2l-4.5-84.9l-10.2-3.5c-0.8-0.3-1.4-0.9-1.6-1.6
			c0-0.1-0.8-2.7-0.8-5.6c0-1.2,0-5.9-0.1-11.1c0-3.7,0-7.7-0.1-10.5l-15.6-1.5c-1.3-0.1-2.3-1.2-2.3-2.5l0.1-14.7
			c0-0.2,0-0.3,0-0.5v-6c0-1.9,1.6-3.5,3.5-3.5s3.5,1.6,3.5,3.5v3.7l4.1-0.2v-3.5c0-1.9,1.6-3.5,3.5-3.5s3.5,1.6,3.5,3.5v3.1
			l4.2-0.2l0.2-31.9c0-0.1,0-0.1,0-0.2l0.9-10c0-0.5,0.1-2.3,0.5-4.5c1-5.6,4-8.8,6.4-10c0.5-1.9,1.8-3.3,2.8-4.1l4.5-6.8l0,0
			c0-1.4,1.1-2.5,2.5-2.5h1.9c1.4,0,2.5,1.1,2.5,2.5v0l4.5,6.8c1,0.7,2.3,2.1,2.8,4.1c2.5,1.3,5.5,4.4,6.4,10c0.4,2.2,0.4,4,0.5,4.5
			l0.9,10c0,0.1,0,0.1,0,0.2l0.2,31.9l4.2,0.2v-3.1c0-1.9,1.6-3.5,3.5-3.5c1.9,0,3.5,1.6,3.5,3.5v3.5l4.1,0.2v-3.7
			c0-1.9,1.6-3.5,3.5-3.5c1.9,0,3.5,1.6,3.5,3.5v6c0,0.2,0,0.3,0,0.5l0.1,14.7c0,1.3-1,2.4-2.3,2.5l-15.6,1.5c0,2.8,0,6.7-0.1,10.4
			c0,5.1-0.1,9.9-0.1,11.1c0,2.8-0.8,5.5-0.8,5.6c-0.2,0.8-0.8,1.4-1.6,1.6l-10.2,3.5l-4.5,84.9l18.3,1.2c0.4,0,0.9,0.2,1.2,0.4
			c0.3,0.2,2.9,2,2.9,6c0,3-1.5,8.6-1.7,9.2c-0.3,1-1.1,1.7-2.1,1.8l-21.2,2.7l0,1.6c0,0.7-0.3,1.3-0.7,1.8
			c-0.5,0.5-1.1,0.7-1.8,0.7H140.8z"/>
		<path class="st1" d="M142.8,63.8l0,0.8l5.1,7.8c0,0,2.4,1.3,2.4,4.1c0,0,0,0,0,0c1.2,0,5.1,2.3,6.2,8.6c0.4,2.4,0.4,4.2,0.4,4.2
			l0.9,10.1l0.2,34.2l9.2,0.5v-5.7c0-0.5,0.4-1,1-1c0.5,0,1,0.4,1,1v5.8l9.1,0.5v-6.4c0-0.5,0.4-1,1-1c0.5,0,1,0.4,1,1v6.5l0,0
			l0.1,14.7l-17.9,1.7c0,5.2-0.1,21.5-0.1,23.8c0,2.5-0.7,4.8-0.7,4.8l-11.8,4l-4.7,89l20.8,1.3c0,0,1.8,1.2,1.8,3.9
			c0,2.7-1.6,8.5-1.6,8.5l-21.5,2.7l0-3l-2,0l0,7.1h-2l0-7.1l-2,0l0,3l-21.5-2.7c0,0-1.6-5.8-1.6-8.5c0-2.7,1.8-3.9,1.8-3.9
			l20.8-1.3l-4.7-89l-11.8-4c0,0-0.7-2.4-0.7-4.8c0-2.3-0.1-18.6-0.1-23.8l-17.9-1.7l0.1-14.7l0,0v-6.5c0-0.5,0.4-1,1-1
			c0.5,0,1,0.4,1,1v6.4l9.1-0.5v-5.8c0-0.5,0.4-1,1-1c0.5,0,1,0.4,1,1v5.7l9.2-0.5l0.2-34.2l0.9-10.1c0,0,0-1.9,0.4-4.2
			c1.1-6.3,5-8.6,6.2-8.6c0,0,0,0,0,0c0-2.8,2.4-4.1,2.4-4.1l5.1-7.8l0-0.8H142.8 M142.8,58.8h-1.9c-2.5,0-4.5,1.8-4.9,4.2l-3.9,5.9
			c-1.2,0.9-2.4,2.3-3.1,4.1c-2.9,1.8-5.8,5.5-6.8,11.3c-0.4,2.3-0.5,4.1-0.5,4.8l-0.9,9.9c0,0.1,0,0.3,0,0.4l-0.2,26.1
			c-1-1.8-3-3-5.2-3c-2.5,0-4.7,1.5-5.5,3.7c-0.9-2.2-3-3.7-5.5-3.7c-3.3,0-6,2.7-6,6v5.8c0,0.2,0,0.4,0,0.7l-0.1,14.7
			c0,2.6,2,4.8,4.5,5l13.3,1.2c0,2.5,0,5.5,0,8.3c0,5.1,0.1,9.8,0.1,10.9c0,3.1,0.8,6,0.9,6.3c0.5,1.5,1.6,2.8,3.2,3.3l8.6,2.9
			l4.3,80.7l-15.9,1c-0.9,0.1-1.7,0.3-2.4,0.8c-1.8,1.2-4,4.1-4,8.1c0,3.3,1.5,8.8,1.8,9.9c0.5,1.9,2.2,3.4,4.2,3.6l19.1,2.4
			c0.1,1.1,0.6,2.1,1.4,2.9c0.9,0.9,2.2,1.5,3.5,1.5h2c1.3,0,2.6-0.5,3.5-1.5c0.8-0.8,1.3-1.8,1.4-2.9l19.1-2.4
			c2-0.2,3.6-1.7,4.2-3.6c0.3-1.1,1.8-6.6,1.8-9.9c0-4-2.2-6.8-4-8.1c-0.7-0.5-1.6-0.8-2.4-0.8l-15.9-1l4.3-80.7l8.6-2.9
			c1.5-0.5,2.7-1.7,3.2-3.3c0.1-0.3,0.9-3.2,0.9-6.3c0-1.1,0-5.9,0.1-10.9c0-2.9,0-5.8,0-8.3l13.3-1.2c2.6-0.2,4.6-2.4,4.5-5
			l-0.1-14.7c0-0.2,0-0.5,0-0.7v-5.8c0-3.3-2.7-6-6-6c-2.5,0-4.7,1.5-5.5,3.7c-0.9-2.2-3-3.7-5.5-3.7c-2.2,0-4.2,1.2-5.2,3
			l-0.2-26.1c0-0.1,0-0.3,0-0.4l-0.9-9.9c0-0.7-0.1-2.5-0.5-4.8c-1-5.8-3.9-9.5-6.8-11.3c-0.7-1.8-1.9-3.1-3.1-4.1l-3.9-5.9
			C147.3,60.6,145.2,58.8,142.8,58.8L142.8,58.8z"/>
	</g>
	<g>
		<path class="st2" d="M158.1,133.6l-0.2-34.2l-0.9-10.1c0,0,0-1.9-0.4-4.2c-0.4-2.4-1.3-4.3-2.2-5.6c-4.6,6-10.1,12.2-13.2,12.9
			c-2.3,0.5-8,0.2-14.6-0.2l-0.7,7.3l-0.2,34.2l-9.2,0.5v-5.7c0-0.5-0.4-1-1-1c-0.5,0-1,0.4-1,1v5.8l-9.1,0.5v-6.4c0-0.5-0.4-1-1-1
			c-0.5,0-1,0.4-1,1v6.5l0,0l-0.1,14.7l17.9,1.7c0,1.4,0,3.5,0,5.9c1,0.1,2,0.2,3,0.2c9.1,0,28.4-11.6,41.7-23.3L158.1,133.6z"/>
		<path class="st2" d="M168.1,132c0.4-0.4,0.8-0.8,1.2-1.2v-2.4c0-0.5-0.4-1-1-1c-0.5,0-1,0.4-1,1v4.3
			C167.5,132.5,167.8,132.2,168.1,132z"/>
	</g>
	<path class="st2" d="M161.8,179.9c0,0,0.7-2.2,0.7-4.6c-4.3-0.6-10.1-0.9-14.1,0.4c-5,1.6-9.6,6.5-14.6,10.1l3,56.9l1.6,0.6
		l8.6-3.2l3-56.3L161.8,179.9z"/>
	<rect x="129.1" y="251.6" class="st1" width="1.8" height="51.8"/>
	<rect x="125.4" y="251.6" class="st1" width="1.8" height="51.8"/>
	<path class="st1" d="M149.2,72.2h-14.5c-1,0-1.7-0.8-1.7-1.7V63c0-1,0.8-1.7,1.7-1.7h14.5c1,0,1.7,0.8,1.7,1.7v7.4
		C150.9,71.4,150.1,72.2,149.2,72.2z"/>
	<path class="st1" d="M147.9,72.4l-5.1-7.8l0-0.8h-1.9l0,0.8l-5.1,7.8c0,0-1.4,0.7-2,2.3h16.2C149.3,73.1,147.9,72.4,147.9,72.4z"/>
	<path class="st1" d="M158.8,145c0,0,0.7-1.8,0.7-3c0-1.2-0.7-2.9-0.7-2.9h-3.9c0,0-0.7,1.6-0.7,2.9c0,1.2,0.7,3,0.7,3H158.8z"/>
	<polygon class="st3" points="150.6,180.7 151.8,183.9 155,182.7 155.3,183.3 158.2,182.2 158.5,183 161.4,181.9 160,178.2 
		160,174.4 150.6,177.8 	"/>
	<path class="st1" d="M124.9,145c0,0-0.7-1.8-0.7-3c0-1.2,0.7-2.9,0.7-2.9h3.9c0,0,0.7,1.6,0.7,2.9c0,1.2-0.7,3-0.7,3H124.9z"/>
	<polygon class="st3" points="133.1,180.7 131.8,183.9 128.6,182.7 128.4,183.3 125.5,182.2 125.1,183 122.2,181.9 123.6,178.2 
		123.6,174.4 133.1,177.8 	"/>
	<polygon class="st1" points="147.2,86.3 148,83.9 141.9,83.9 135.9,83.9 136.6,86.3 	"/>
	<polygon class="st1" points="133.1,105.9 133.8,116.8 136.2,122.1 137.3,122.1 137.3,105 	"/>
	<polygon class="st1" points="137.2,103.6 135.6,86.7 134.7,83.9 133.1,83.9 133.1,92.1 134.5,104.2 	"/>
	<polygon class="st1" points="146.5,105 146.5,122.1 147.6,122.1 150.1,116.8 150.8,105.9 	"/>
	<polygon class="st1" points="149.2,83.9 148.3,86.7 146.6,103.6 149.4,104.2 150.8,92.1 150.8,83.9 	"/>
	<g>
		<polygon class="st1" points="142.6,104.9 141.3,104.9 138.5,104.9 138.5,116.7 141.9,116.7 145.4,116.7 145.4,104.9 		"/>
		<polygon class="st1" points="141.3,103.5 141.3,103.5 141.9,103.5 142.6,103.5 142.6,103.5 145.5,103.5 147,87.6 136.8,87.6 
			138.4,103.5 		"/>
	</g>
	<g>
		<ellipse transform="matrix(0.3057 -0.9521 0.9521 0.3057 -34.268 231.8293)" class="st1" cx="141.8" cy="139.4" rx="6" ry="6"/>
		
			<rect x="122.1" y="138.5" transform="matrix(0.3057 -0.9521 0.9521 0.3057 -34.268 231.8293)" class="st1" width="39.5" height="1.8"/>
		<polygon class="st1" points="144.1,129.4 170.4,47.5 176.1,49.3 152.3,123.4 		"/>
		<polygon class="st1" points="170.4,47.5 176.1,49.3 180,43.6 174.3,41.8 		"/>
		<polygon class="st1" points="139.6,149.4 113.3,231.3 107.6,229.5 131.4,155.4 		"/>
		<polygon class="st1" points="113.3,231.3 107.6,229.5 103.6,235.2 109.3,237.1 		"/>
		
			<rect x="122.1" y="138.5" transform="matrix(-0.9521 -0.3057 0.3057 -0.9521 234.2428 315.5039)" class="st1" width="39.5" height="1.8"/>
		<polygon class="st1" points="49.9,110.9 51.7,105.1 46,101.2 44.2,106.9 		"/>
		<polygon class="st1" points="131.8,137.2 49.9,110.9 51.7,105.1 125.8,128.9 		"/>
		<polygon class="st1" points="233.7,168 231.9,173.7 237.6,177.6 239.5,171.9 		"/>
		<polygon class="st1" points="151.9,141.7 233.7,168 231.9,173.7 157.8,149.9 		"/>
		<polygon class="st1" points="138.4,153.2 143.2,144.6 137.7,142.9 136.6,152.7 		"/>
		<polygon class="st1" points="145.3,125.6 140.4,134.2 146,136 147,126.2 		"/>
		<polygon class="st1" points="155.6,142.9 147.1,138 145.3,143.6 155.1,144.6 		"/>
		<polygon class="st1" points="128,135.9 136.6,140.8 138.4,135.2 128.6,134.2 		"/>
	</g>
	<circle class="st4" cx="141.8" cy="139.3" r="103.1"/>
</g>
</svg>
