<?xml version="1.0" encoding="UTF-8" standalone="no"?>
<!-- Generator: Adobe Illustrator 21.1.0, SVG Export Plug-In . SVG Version: 6.00 Build 0)  -->

<svg
   xmlns:dc="http://purl.org/dc/elements/1.1/"
   xmlns:cc="http://creativecommons.org/ns#"
   xmlns:rdf="http://www.w3.org/1999/02/22-rdf-syntax-ns#"
   xmlns:svg="http://www.w3.org/2000/svg"
   xmlns="http://www.w3.org/2000/svg"
   xmlns:sodipodi="http://sodipodi.sourceforge.net/DTD/sodipodi-0.dtd"
   xmlns:inkscape="http://www.inkscape.org/namespaces/inkscape"
   version="1.1"
   id="Layer_1"
   x="0px"
   y="0px"
   viewBox="0 0 70 70"
   xml:space="preserve"
   inkscape:version="0.91pre4 r13712"
   sodipodi:docname="peten.svg"
   width="70"
   height="70"><metadata
     id="metadata91"><rdf:RDF><cc:Work
         rdf:about=""><dc:format>image/svg+xml</dc:format><dc:type
           rdf:resource="http://purl.org/dc/dcmitype/StillImage" /><dc:title></dc:title></cc:Work></rdf:RDF></metadata><defs
     id="defs89" /><sodipodi:namedview
     pagecolor="#ffffff"
     bordercolor="#666666"
     borderopacity="1"
     objecttolerance="10"
     gridtolerance="10"
     guidetolerance="10"
     inkscape:pageopacity="0"
     inkscape:pageshadow="2"
     inkscape:window-width="1280"
     inkscape:window-height="961"
     id="namedview87"
     showgrid="false"
     inkscape:zoom="0.70238095"
     inkscape:cx="141"
     inkscape:cy="168"
     inkscape:window-x="-8"
     inkscape:window-y="-8"
     inkscape:window-maximized="1"
     inkscape:current-layer="Layer_1" /><style
     type="text/css"
     id="style3">
	.st0{fill:#EDE2B2;}
	.st1{fill:#596B6A;}
	.st2{fill:#DBCF9E;}
	.st3{fill:#596B6A;stroke:#596B6A;stroke-width:2;stroke-miterlimit:10;}
	.st4{fill:none;stroke:#EDE2B2;stroke-width:2;stroke-miterlimit:10;}
</style><g
     id="g5"
     transform="matrix(0.2,0,0,0.2,6.6399994,1.139999)"><g
       id="g7"><path
         class="st0"
         d="m 140.8,296 c -0.7,0 -1.3,-0.3 -1.8,-0.7 -0.5,-0.5 -0.7,-1.1 -0.7,-1.8 l 0,-1.6 -21.2,-2.7 c -1,-0.1 -1.8,-0.8 -2.1,-1.8 -0.2,-0.6 -1.7,-6.2 -1.7,-9.2 0,-4 2.6,-5.8 2.9,-6 0.4,-0.2 0.8,-0.4 1.2,-0.4 l 18.3,-1.2 -4.5,-84.9 -10.2,-3.5 c -0.8,-0.3 -1.4,-0.9 -1.6,-1.6 0,-0.1 -0.8,-2.7 -0.8,-5.6 0,-1.2 0,-5.9 -0.1,-11.1 0,-3.7 0,-7.7 -0.1,-10.5 l -15.6,-1.5 c -1.3,-0.1 -2.3,-1.2 -2.3,-2.5 l 0.1,-14.7 c 0,-0.2 0,-0.3 0,-0.5 l 0,-6 c 0,-1.9 1.6,-3.5 3.5,-3.5 1.9,0 3.5,1.6 3.5,3.5 l 0,3.7 4.1,-0.2 0,-3.5 c 0,-1.9 1.6,-3.5 3.5,-3.5 1.9,0 3.5,1.6 3.5,3.5 l 0,3.1 4.2,-0.2 0.2,-31.9 c 0,-0.1 0,-0.1 0,-0.2 L 124,89 c 0,-0.5 0.1,-2.3 0.5,-4.5 1,-5.6 4,-8.8 6.4,-10 0.5,-1.9 1.8,-3.3 2.8,-4.1 l 4.5,-6.8 0,0 c 0,-1.4 1.1,-2.5 2.5,-2.5 l 1.9,0 c 1.4,0 2.5,1.1 2.5,2.5 l 0,0 4.5,6.8 c 1,0.7 2.3,2.1 2.8,4.1 2.5,1.3 5.5,4.4 6.4,10 0.4,2.2 0.4,4 0.5,4.5 l 0.9,10 c 0,0.1 0,0.1 0,0.2 l 0.2,31.9 4.2,0.2 0,-3.1 c 0,-1.9 1.6,-3.5 3.5,-3.5 1.9,0 3.5,1.6 3.5,3.5 l 0,3.5 4.1,0.2 0,-3.7 c 0,-1.9 1.6,-3.5 3.5,-3.5 1.9,0 3.5,1.6 3.5,3.5 l 0,6 c 0,0.2 0,0.3 0,0.5 l 0.1,14.7 c 0,1.3 -1,2.4 -2.3,2.5 l -15.6,1.5 c 0,2.8 0,6.7 -0.1,10.4 0,5.1 -0.1,9.9 -0.1,11.1 0,2.8 -0.8,5.5 -0.8,5.6 -0.2,0.8 -0.8,1.4 -1.6,1.6 l -10.2,3.5 -4.5,84.9 18.3,1.2 c 0.4,0 0.9,0.2 1.2,0.4 0.3,0.2 2.9,2 2.9,6 0,3 -1.5,8.6 -1.7,9.2 -0.3,1 -1.1,1.7 -2.1,1.8 l -21.2,2.7 0,1.6 c 0,0.7 -0.3,1.3 -0.7,1.8 -0.5,0.5 -1.1,0.7 -1.8,0.7 l -1.7,0 z"
         id="path9"
         inkscape:connector-curvature="0"
         style="fill:#ede2b2" /><path
         class="st1"
         d="m 142.8,63.8 0,0.8 5.1,7.8 c 0,0 2.4,1.3 2.4,4.1 0,0 0,0 0,0 1.2,0 5.1,2.3 6.2,8.6 0.4,2.4 0.4,4.2 0.4,4.2 l 0.9,10.1 0.2,34.2 9.2,0.5 0,-5.7 c 0,-0.5 0.4,-1 1,-1 0.5,0 1,0.4 1,1 l 0,5.8 9.1,0.5 0,-6.4 c 0,-0.5 0.4,-1 1,-1 0.5,0 1,0.4 1,1 l 0,6.5 0,0 0.1,14.7 -17.9,1.7 c 0,5.2 -0.1,21.5 -0.1,23.8 0,2.5 -0.7,4.8 -0.7,4.8 l -11.8,4 -4.7,89 20.8,1.3 c 0,0 1.8,1.2 1.8,3.9 0,2.7 -1.6,8.5 -1.6,8.5 l -21.5,2.7 0,-3 -2,0 0,7.1 -2,0 0,-7.1 -2,0 0,3 -21.5,-2.7 c 0,0 -1.6,-5.8 -1.6,-8.5 0,-2.7 1.8,-3.9 1.8,-3.9 l 20.8,-1.3 -4.7,-89 -11.8,-4 c 0,0 -0.7,-2.4 -0.7,-4.8 0,-2.3 -0.1,-18.6 -0.1,-23.8 l -17.9,-1.7 0.1,-14.7 0,0 0,-6.5 c 0,-0.5 0.4,-1 1,-1 0.5,0 1,0.4 1,1 l 0,6.4 9.1,-0.5 0,-5.8 c 0,-0.5 0.4,-1 1,-1 0.5,0 1,0.4 1,1 l 0,5.7 9.2,-0.5 0.2,-34.2 0.9,-10.1 c 0,0 0,-1.9 0.4,-4.2 1.1,-6.3 5,-8.6 6.2,-8.6 0,0 0,0 0,0 0,-2.8 2.4,-4.1 2.4,-4.1 l 5.1,-7.8 0,-0.8 2.2,0 m 0,-5 -1.9,0 c -2.5,0 -4.5,1.8 -4.9,4.2 l -3.9,5.9 c -1.2,0.9 -2.4,2.3 -3.1,4.1 -2.9,1.8 -5.8,5.5 -6.8,11.3 -0.4,2.3 -0.5,4.1 -0.5,4.8 l -0.9,9.9 c 0,0.1 0,0.3 0,0.4 l -0.2,26.1 c -1,-1.8 -3,-3 -5.2,-3 -2.5,0 -4.7,1.5 -5.5,3.7 -0.9,-2.2 -3,-3.7 -5.5,-3.7 -3.3,0 -6,2.7 -6,6 l 0,5.8 c 0,0.2 0,0.4 0,0.7 l -0.1,14.7 c 0,2.6 2,4.8 4.5,5 l 13.3,1.2 c 0,2.5 0,5.5 0,8.3 0,5.1 0.1,9.8 0.1,10.9 0,3.1 0.8,6 0.9,6.3 0.5,1.5 1.6,2.8 3.2,3.3 l 8.6,2.9 4.3,80.7 -15.9,1 c -0.9,0.1 -1.7,0.3 -2.4,0.8 -1.8,1.2 -4,4.1 -4,8.1 0,3.3 1.5,8.8 1.8,9.9 0.5,1.9 2.2,3.4 4.2,3.6 l 19.1,2.4 c 0.1,1.1 0.6,2.1 1.4,2.9 0.9,0.9 2.2,1.5 3.5,1.5 l 2,0 c 1.3,0 2.6,-0.5 3.5,-1.5 0.8,-0.8 1.3,-1.8 1.4,-2.9 l 19.1,-2.4 c 2,-0.2 3.6,-1.7 4.2,-3.6 0.3,-1.1 1.8,-6.6 1.8,-9.9 0,-4 -2.2,-6.8 -4,-8.1 -0.7,-0.5 -1.6,-0.8 -2.4,-0.8 l -15.9,-1 4.3,-80.7 8.6,-2.9 c 1.5,-0.5 2.7,-1.7 3.2,-3.3 0.1,-0.3 0.9,-3.2 0.9,-6.3 0,-1.1 0,-5.9 0.1,-10.9 0,-2.9 0,-5.8 0,-8.3 l 13.3,-1.2 c 2.6,-0.2 4.6,-2.4 4.5,-5 L 185.4,135 c 0,-0.2 0,-0.5 0,-0.7 l 0,-5.8 c 0,-3.3 -2.7,-6 -6,-6 -2.5,0 -4.7,1.5 -5.5,3.7 -0.9,-2.2 -3,-3.7 -5.5,-3.7 -2.2,0 -4.2,1.2 -5.2,3 L 163,99.4 c 0,-0.1 0,-0.3 0,-0.4 l -0.9,-9.9 c 0,-0.7 -0.1,-2.5 -0.5,-4.8 -1,-5.8 -3.9,-9.5 -6.8,-11.3 -0.7,-1.8 -1.9,-3.1 -3.1,-4.1 L 147.8,63 c -0.5,-2.4 -2.6,-4.2 -5,-4.2 l 0,0 z"
         id="path11"
         inkscape:connector-curvature="0"
         style="fill:#596b6a" /></g><g
       id="g13"><path
         class="st2"
         d="M 158.1,133.6 157.9,99.4 157,89.3 c 0,0 0,-1.9 -0.4,-4.2 -0.4,-2.4 -1.3,-4.3 -2.2,-5.6 -4.6,6 -10.1,12.2 -13.2,12.9 -2.3,0.5 -8,0.2 -14.6,-0.2 l -0.7,7.3 -0.2,34.2 -9.2,0.5 0,-5.7 c 0,-0.5 -0.4,-1 -1,-1 -0.5,0 -1,0.4 -1,1 l 0,5.8 -9.1,0.5 0,-6.4 c 0,-0.5 -0.4,-1 -1,-1 -0.5,0 -1,0.4 -1,1 l 0,6.5 0,0 -0.1,14.7 17.9,1.7 c 0,1.4 0,3.5 0,5.9 1,0.1 2,0.2 3,0.2 9.1,0 28.4,-11.6 41.7,-23.3 l -7.8,-0.5 z"
         id="path15"
         inkscape:connector-curvature="0"
         style="fill:#dbcf9e" /><path
         class="st2"
         d="m 168.1,132 c 0.4,-0.4 0.8,-0.8 1.2,-1.2 l 0,-2.4 c 0,-0.5 -0.4,-1 -1,-1 -0.5,0 -1,0.4 -1,1 l 0,4.3 c 0.2,-0.2 0.5,-0.5 0.8,-0.7 z"
         id="path17"
         inkscape:connector-curvature="0"
         style="fill:#dbcf9e" /></g><path
       class="st2"
       d="m 161.8,179.9 c 0,0 0.7,-2.2 0.7,-4.6 -4.3,-0.6 -10.1,-0.9 -14.1,0.4 -5,1.6 -9.6,6.5 -14.6,10.1 l 3,56.9 1.6,0.6 8.6,-3.2 3,-56.3 11.8,-3.9 z"
       id="path19"
       inkscape:connector-curvature="0"
       style="fill:#dbcf9e" /><rect
       x="129.10001"
       y="251.60001"
       class="st1"
       width="1.8"
       height="51.799999"
       id="rect21"
       style="fill:#596b6a" /><rect
       x="125.4"
       y="251.60001"
       class="st1"
       width="1.8"
       height="51.799999"
       id="rect23"
       style="fill:#596b6a" /><path
       class="st1"
       d="m 149.2,72.2 -14.5,0 c -1,0 -1.7,-0.8 -1.7,-1.7 l 0,-7.5 c 0,-1 0.8,-1.7 1.7,-1.7 l 14.5,0 c 1,0 1.7,0.8 1.7,1.7 l 0,7.4 c 0,1 -0.8,1.8 -1.7,1.8 z"
       id="path25"
       inkscape:connector-curvature="0"
       style="fill:#596b6a" /><path
       class="st1"
       d="m 147.9,72.4 -5.1,-7.8 0,-0.8 -1.9,0 0,0.8 -5.1,7.8 c 0,0 -1.4,0.7 -2,2.3 l 16.2,0 c -0.7,-1.6 -2.1,-2.3 -2.1,-2.3 z"
       id="path27"
       inkscape:connector-curvature="0"
       style="fill:#596b6a" /><path
       class="st1"
       d="m 158.8,145 c 0,0 0.7,-1.8 0.7,-3 0,-1.2 -0.7,-2.9 -0.7,-2.9 l -3.9,0 c 0,0 -0.7,1.6 -0.7,2.9 0,1.2 0.7,3 0.7,3 l 3.9,0 z"
       id="path29"
       inkscape:connector-curvature="0"
       style="fill:#596b6a" /><polygon
       class="st3"
       points="150.6,177.8 150.6,180.7 151.8,183.9 155,182.7 155.3,183.3 158.2,182.2 158.5,183 161.4,181.9 160,178.2 160,174.4 "
       id="polygon31"
       style="fill:#596b6a;stroke:#596b6a;stroke-width:2;stroke-miterlimit:10" /><path
       class="st1"
       d="m 124.9,145 c 0,0 -0.7,-1.8 -0.7,-3 0,-1.2 0.7,-2.9 0.7,-2.9 l 3.9,0 c 0,0 0.7,1.6 0.7,2.9 0,1.2 -0.7,3 -0.7,3 l -3.9,0 z"
       id="path33"
       inkscape:connector-curvature="0"
       style="fill:#596b6a" /><polygon
       class="st3"
       points="133.1,177.8 133.1,180.7 131.8,183.9 128.6,182.7 128.4,183.3 125.5,182.2 125.1,183 122.2,181.9 123.6,178.2 123.6,174.4 "
       id="polygon35"
       style="fill:#596b6a;stroke:#596b6a;stroke-width:2;stroke-miterlimit:10" /><polygon
       class="st1"
       points="136.6,86.3 147.2,86.3 148,83.9 141.9,83.9 135.9,83.9 "
       id="polygon37"
       style="fill:#596b6a" /><polygon
       class="st1"
       points="137.3,105 133.1,105.9 133.8,116.8 136.2,122.1 137.3,122.1 "
       id="polygon39"
       style="fill:#596b6a" /><polygon
       class="st1"
       points="133.1,83.9 133.1,92.1 134.5,104.2 137.2,103.6 135.6,86.7 134.7,83.9 "
       id="polygon41"
       style="fill:#596b6a" /><polygon
       class="st1"
       points="150.8,105.9 146.5,105 146.5,122.1 147.6,122.1 150.1,116.8 "
       id="polygon43"
       style="fill:#596b6a" /><polygon
       class="st1"
       points="149.4,104.2 150.8,92.1 150.8,83.9 149.2,83.9 148.3,86.7 146.6,103.6 "
       id="polygon45"
       style="fill:#596b6a" /><g
       id="g47"><polygon
         class="st1"
         points="138.5,104.9 138.5,116.7 141.9,116.7 145.4,116.7 145.4,104.9 142.6,104.9 141.3,104.9 "
         id="polygon49"
         style="fill:#596b6a" /><polygon
         class="st1"
         points="141.3,103.5 141.3,103.5 141.9,103.5 142.6,103.5 142.6,103.5 145.5,103.5 147,87.6 136.8,87.6 138.4,103.5 "
         id="polygon51"
         style="fill:#596b6a" /></g><g
       id="g53"><circle
         transform="matrix(0.3057,-0.9521,0.9521,0.3057,-34.268,231.8293)"
         class="st1"
         cx="141.8"
         cy="139.39999"
         id="ellipse55"
         r="6"
         style="fill:#596b6a" /><rect
         x="122.1"
         y="138.5"
         transform="matrix(0.3057,-0.9521,0.9521,0.3057,-34.268,231.8293)"
         class="st1"
         width="39.5"
         height="1.8"
         id="rect57"
         style="fill:#596b6a" /><polygon
         class="st1"
         points="170.4,47.5 176.1,49.3 152.3,123.4 144.1,129.4 "
         id="polygon59"
         style="fill:#596b6a" /><polygon
         class="st1"
         points="176.1,49.3 180,43.6 174.3,41.8 170.4,47.5 "
         id="polygon61"
         style="fill:#596b6a" /><polygon
         class="st1"
         points="113.3,231.3 107.6,229.5 131.4,155.4 139.6,149.4 "
         id="polygon63"
         style="fill:#596b6a" /><polygon
         class="st1"
         points="107.6,229.5 103.6,235.2 109.3,237.1 113.3,231.3 "
         id="polygon65"
         style="fill:#596b6a" /><rect
         x="122.1"
         y="138.5"
         transform="matrix(-0.9521,-0.3057,0.3057,-0.9521,234.2428,315.5039)"
         class="st1"
         width="39.5"
         height="1.8"
         id="rect67"
         style="fill:#596b6a" /><polygon
         class="st1"
         points="51.7,105.1 46,101.2 44.2,106.9 49.9,110.9 "
         id="polygon69"
         style="fill:#596b6a" /><polygon
         class="st1"
         points="49.9,110.9 51.7,105.1 125.8,128.9 131.8,137.2 "
         id="polygon71"
         style="fill:#596b6a" /><polygon
         class="st1"
         points="231.9,173.7 237.6,177.6 239.5,171.9 233.7,168 "
         id="polygon73"
         style="fill:#596b6a" /><polygon
         class="st1"
         points="233.7,168 231.9,173.7 157.8,149.9 151.9,141.7 "
         id="polygon75"
         style="fill:#596b6a" /><polygon
         class="st1"
         points="143.2,144.6 137.7,142.9 136.6,152.7 138.4,153.2 "
         id="polygon77"
         style="fill:#596b6a" /><polygon
         class="st1"
         points="140.4,134.2 146,136 147,126.2 145.3,125.6 "
         id="polygon79"
         style="fill:#596b6a" /><polygon
         class="st1"
         points="147.1,138 145.3,143.6 155.1,144.6 155.6,142.9 "
         id="polygon81"
         style="fill:#596b6a" /><polygon
         class="st1"
         points="136.6,140.8 138.4,135.2 128.6,134.2 128,135.9 "
         id="polygon83"
         style="fill:#596b6a" /></g><circle
       class="st4"
       cx="141.8"
       cy="139.3"
       r="103.1"
       id="circle85"
       style="fill:none;stroke:#ede2b2;stroke-width:2;stroke-miterlimit:10" /></g></svg>