<?xml version="1.0" encoding="UTF-8" standalone="no"?>
<!-- Generator: Adobe Illustrator 21.1.0, SVG Export Plug-In . SVG Version: 6.00 Build 0)  -->

<svg
   xmlns:dc="http://purl.org/dc/elements/1.1/"
   xmlns:cc="http://creativecommons.org/ns#"
   xmlns:rdf="http://www.w3.org/1999/02/22-rdf-syntax-ns#"
   xmlns:svg="http://www.w3.org/2000/svg"
   xmlns="http://www.w3.org/2000/svg"
   xmlns:sodipodi="http://sodipodi.sourceforge.net/DTD/sodipodi-0.dtd"
   xmlns:inkscape="http://www.inkscape.org/namespaces/inkscape"
   version="1.1"
   id="Layer_1"
   x="0px"
   y="0px"
   viewBox="0 0 70 70"
   xml:space="preserve"
   inkscape:version="0.91pre4 r13712"
   sodipodi:docname="raam.svg"
   width="70"
   height="70"><metadata
     id="metadata37"><rdf:RDF><cc:Work
         rdf:about=""><dc:format>image/svg+xml</dc:format><dc:type
           rdf:resource="http://purl.org/dc/dcmitype/StillImage" /><dc:title>Asset 1</dc:title></cc:Work></rdf:RDF></metadata><defs
     id="defs35"><filter
       inkscape:collect="always"
       style="color-interpolation-filters:sRGB"
       id="filter4213"
       x="-0.29573554"
       width="1.5914711"
       y="-0.2019413"
       height="1.4038826"><feGaussianBlur
         inkscape:collect="always"
         stdDeviation="19.634855"
         id="feGaussianBlur4215" /></filter></defs><sodipodi:namedview
     pagecolor="#ffffff"
     bordercolor="#666666"
     borderopacity="1"
     objecttolerance="10"
     gridtolerance="10"
     guidetolerance="10"
     inkscape:pageopacity="0"
     inkscape:pageshadow="2"
     inkscape:window-width="1280"
     inkscape:window-height="961"
     id="namedview33"
     showgrid="false"
     inkscape:zoom="0.80821918"
     inkscape:cx="-164.8644"
     inkscape:cy="160.84746"
     inkscape:window-x="-8"
     inkscape:window-y="-8"
     inkscape:window-maximized="1"
     inkscape:current-layer="Layer_1" /><style
     type="text/css"
     id="style3">
	.st0{fill:#EDE2B2;}
	.st1{fill:#596B6A;}
	.st2{fill:#DBCF9E;}
	.st3{fill:#C8EAB2;}
	.st4{fill:#CAE0E0;}
</style><title
     id="title5">Asset 1</title><g
     id="g4190"
     transform="matrix(0.2,0,0,0.2,1.3420106e-8,56)"><g
       transform="translate(68.316422,-242.07661)"
       style="opacity:0.5;fill:#455453;fill-opacity:1;filter:url(#filter4213)"
       id="g4165"><g
         style="fill:#455453;fill-opacity:1"
         id="g4167"><path
           inkscape:connector-curvature="0"
           style="fill:#455453;fill-opacity:1"
           class="st0"
           d="m 147.8,251.3 c -0.2,0 -0.5,0 -0.7,-0.1 l -21.8,-6.7 c -0.7,-0.2 -1.3,-0.7 -1.6,-1.4 l -4.2,-10.3 -10.6,0 c -0.9,0 -1.7,-0.5 -2.2,-1.2 -0.4,0.8 -1.3,1.3 -2.2,1.2 l -10.6,0 -4.2,10.3 c -0.3,0.7 -0.9,1.2 -1.6,1.4 l -21.8,6.7 c -1,0.3 -2.1,-0.1 -2.8,-0.9 l -6.3,-8.7 c -1.8,-2.7 -1.7,-6.3 0.4,-8.8 1.2,-1.5 16,-18.8 17.8,-20.8 0.9,-1 2.5,-1.2 3.5,-0.3 0,0 0,0 0,0 l 1.6,-1.6 -1.5,-9.1 -16.8,0 -20.4,6 c -1.1,0.3 -2.2,-0.1 -2.8,-1.1 -0.3,-0.5 -7.4,-11.6 -8.6,-13.8 -1.7,-3.2 -1.1,-6.4 1.9,-9.6 2.2,-2.3 40.5,-42.3 46.3,-48.5 l 0,-6.2 c 0.1,-8.4 2.6,-16.6 7.1,-23.6 0,-2 -0.2,-6.9 -0.2,-9.7 0,-2.3 0.4,-4.6 1.2,-6.8 0.4,-0.9 1.3,-1.5 2.3,-1.5 l 6.3,0 0,-18.3 c 0,-25.3 8.6,-42.9 8.9,-43.6 0.6,-1.2 2.1,-1.7 3.4,-1.1 0.5,0.2 0.9,0.6 1.1,1.1 0.4,0.7 8.9,18.3 8.9,43.6 l 0,18.3 6.3,0 c 1,0 1.9,0.6 2.3,1.5 0.8,2.2 1.2,4.5 1.2,6.8 0,2.8 -0.1,7.8 -0.2,9.7 4.6,7 7.1,15.2 7.1,23.6 l 0,6.2 c 5.9,6.1 44.1,46.1 46.3,48.5 3,3.2 3.6,6.3 1.9,9.6 -1.2,2.2 -8.3,13.4 -8.6,13.8 -0.6,0.9 -1.7,1.4 -2.8,1.1 l -20.3,-5.9 -16.7,0 -1.5,9.1 1.6,1.6 c 1,-0.9 2.6,-0.8 3.5,0.2 0,0 0,0 0,0 1.7,2 16.6,19.3 17.8,20.8 2,2.6 2.2,6.1 0.4,8.8 l -6.3,8.7 c -0.2,0.6 -1,1 -1.8,1 z"
           id="path4169" /><path
           inkscape:connector-curvature="0"
           style="fill:#455453;fill-opacity:1"
           class="st1"
           d="m 106.7,25.4 c 0,0 8.7,17.5 8.7,42.5 l 0,20.8 8.8,0 c 0.7,1.9 1,3.8 1,5.8 0,3.5 -0.2,10.5 -0.2,10.5 4.6,6.7 7.1,14.7 7.2,22.8 l 0,7.2 c 0,0 44.7,46.7 47,49.2 2.3,2.5 2.7,4.5 1.5,6.7 -1.2,2.2 -8.5,13.7 -8.5,13.7 l -20.7,-6 -19.2,0 -2.1,12.4 5.9,5.9 0,-3.3 c 0,0 16.5,19.2 17.7,20.7 1.4,1.7 1.5,4 0.3,5.8 l -6.3,8.7 -21.8,-6.7 -5.5,-13.3 -0.8,1.5 -10.8,0 -0.5,-1.2 -1.7,-0.3 -1.7,0.3 -0.5,1.2 -10.8,0 -0.8,-1.5 -5.5,13.3 -21.8,6.7 -6.3,-8.7 c -1.2,-1.8 -1,-4.2 0.3,-5.8 1.2,-1.5 17.7,-20.7 17.7,-20.7 l 0,3.3 5.9,-5.9 -2.2,-12.4 -19.2,0 -20.7,6 c 0,0 -7.3,-11.5 -8.5,-13.7 -1.2,-2.2 -0.8,-4.2 1.5,-6.7 2.3,-2.5 47,-49.2 47,-49.2 l 0,-7.2 c 0.1,-8.2 2.6,-16.1 7.2,-22.8 0,0 -0.2,-7 -0.2,-10.5 0,-2 0.3,-4 1,-5.8 l 8.9,0 0,-20.8 c 0,-25 8.7,-42.5 8.7,-42.5 m 0,-5 c -1.9,0 -3.6,1.1 -4.5,2.8 C 101.8,24 93,42.1 93,67.9 l 0,15.8 -3.8,0 c -2,0 -3.8,1.2 -4.6,3 -1,2.5 -1.4,5.1 -1.4,7.8 0,2.5 0.1,6.7 0.1,9 -4.6,7.3 -7,15.7 -7.1,24.3 l 0,5.2 c -7.7,8 -43.5,45.5 -45.7,47.8 -4.7,5 -3.8,9.5 -2.2,12.4 1.2,2.3 7.9,12.8 8.7,14 1.2,1.9 3.5,2.8 5.6,2.2 l 20,-5.8 14.2,0 0.8,5 -0.4,0 c -1.5,0 -2.8,0.6 -3.8,1.7 -2.8,3.2 -16.6,19.3 -17.8,20.9 -2.7,3.4 -2.9,8.2 -0.4,11.8 l 6.3,8.7 c 1.3,1.7 3.5,2.5 5.5,1.8 l 21.8,-6.7 c 1.4,-0.4 2.6,-1.5 3.2,-2.9 l 3.6,-8.7 8.9,0 c 0.8,0 1.5,-0.2 2.2,-0.5 0.7,0.3 1.4,0.5 2.2,0.5 l 8.9,0 3.6,8.7 c 0.6,1.4 1.7,2.4 3.2,2.9 l 21.8,6.7 c 2,0.6 4.2,-0.1 5.5,-1.8 l 6.3,-8.7 c 2.5,-3.6 2.3,-8.4 -0.4,-11.8 -1.2,-1.5 -15.1,-17.6 -17.8,-20.9 -0.9,-1.1 -2.3,-1.7 -3.8,-1.7 l -0.4,0 0.8,-5 14.2,0 20,5.8 c 2.1,0.6 4.4,-0.2 5.6,-2.1 0.8,-1.2 7.5,-11.7 8.7,-14 1.6,-2.9 2.4,-7.4 -2.2,-12.4 -2.1,-2.3 -38,-39.7 -45.7,-47.8 l 0,-5.2 c -0.1,-8.6 -2.6,-17 -7.2,-24.3 0,-2.3 0.1,-6.5 0.1,-9 0,-2.7 -0.4,-5.3 -1.4,-7.8 -0.8,-1.8 -2.6,-3 -4.6,-3 l -3.8,0 0,-15.9 c 0,-25.9 -8.8,-44 -9.2,-44.7 -0.8,-1.7 -2.5,-2.7 -4.4,-2.8 z"
           id="path4171" /><path
           inkscape:connector-curvature="0"
           style="fill:#455453;fill-opacity:1"
           class="st2"
           d="m 132.1,127.9 c -0.1,-7.2 -2,-14.3 -5.7,-20.6 -5,6.9 -12.3,15.9 -16.1,16.7 -3.8,0.8 -17.4,-0.7 -28.9,-0.9 -0.2,1.6 -0.3,3.2 -0.3,4.8 l 0,7.2 c 0,0 -44.7,46.7 -47,49.2 -2.3,2.5 -2.7,4.5 -1.5,6.7 1.2,2.2 8.5,13.7 8.5,13.7 l 11.2,-3.3 c 1.9,-4.4 4.8,-8.3 8.6,-11.2 9.7,-7.3 22.7,-1 32.3,-1 9.6,0 30.7,-13 44,-25.3 3.6,-3.4 6.8,-8.1 9.5,-13.3 l -14.7,-15.3 0.1,-7.4 z"
           id="path4173" /><path
           inkscape:connector-curvature="0"
           style="fill:#455453;fill-opacity:1"
           class="st3"
           d="m 180.6,190.9 c 1.2,-2.2 0.8,-4.2 -1.5,-6.7 -0.8,-0.8 -6.4,-6.7 -13.4,-14.1 -1.3,0.9 -2.4,2 -3.4,3.2 -5.7,7.7 -6.7,18.7 -6.3,21.7 0.1,1 0.5,2.9 0.9,5.1 l 15.2,4.4 c 0,0.1 7.4,-11.4 8.5,-13.6 z"
           id="path4175" /><path
           inkscape:connector-curvature="0"
           style="fill:#455453;fill-opacity:1"
           class="st2"
           d="m 108.8,230.3 10.8,0 0.8,-1.5 5.5,13.3 21.8,6.7 6.3,-8.7 c 1.2,-1.8 1,-4.2 -0.3,-5.8 -1.2,-1.5 -17.7,-20.7 -17.7,-20.7 l 0,3.3 -5.9,-5.9 0.7,-4.1 c -4.2,-0.5 -9.5,-0.7 -13.3,0.5 -7.3,2.3 -14,12 -22,13.7 -9.4,2.1 -18.9,3.4 -28.4,4.1 -3.7,4.4 -7.2,8.4 -7.7,9.1 -1.4,1.7 -1.5,4 -0.3,5.8 l 6.3,8.7 21.8,-6.7 5.5,-13.3 0.8,1.5 10.8,0 0.5,-1.2 1.7,-0.3 1.7,0.3 0.6,1.2 z"
           id="path4177" /><polygon
           style="fill:#455453;fill-opacity:1"
           class="st1"
           points="105,229.1 104.5,230.3 93.7,230.3 92.8,228.8 91.9,220.4 105.6,220.4 "
           id="polygon4179" /><polygon
           style="fill:#455453;fill-opacity:1"
           class="st1"
           points="108.3,229.1 108.8,230.3 119.7,230.3 120.5,228.8 121.4,220.4 107.8,220.4 "
           id="polygon4181" /><path
           inkscape:connector-curvature="0"
           style="fill:#455453;fill-opacity:1"
           class="st1"
           d="m 111.7,76.6 0,-3.8 c 0,-4.2 -2.3,-6.5 -5,-6.5 -2.7,0 -5,2.3 -5,6.5 l 0,3.8 10,0 z"
           id="path4183" /><path
           inkscape:connector-curvature="0"
           style="fill:#455453;fill-opacity:1"
           class="st1"
           d="m 101.7,94.9 0,4.3 c 0,11.5 5,11.5 5,11.5 0,0 5,0 5,-11.5 l 0,-4.3 -10,0 z"
           id="path4185" /><path
           inkscape:connector-curvature="0"
           style="fill:#455453;fill-opacity:1"
           class="st1"
           d="m 111.7,93.9 0,-16.3 -10,0 0,16.3 10,0 z"
           id="path4187" /><path
           inkscape:connector-curvature="0"
           style="fill:#455453;fill-opacity:1"
           class="st4"
           d="m 114.6,55.1 c -2.1,-17.9 -7.9,-29.7 -7.9,-29.7 0,0 -5.8,11.7 -7.9,29.7 l 15.8,0 z"
           id="path4189" /><path
           inkscape:connector-curvature="0"
           style="fill:#455453;fill-opacity:1"
           class="st1"
           d="m 106.7,25.4 c 0,0 8.7,17.5 8.7,42.5 l 0,20.8 8.8,0 c 0.7,1.9 1,3.8 1,5.8 0,3.5 -0.2,10.5 -0.2,10.5 4.6,6.7 7.1,14.7 7.2,22.8 l 0,7.2 c 0,0 44.7,46.7 47,49.2 2.3,2.5 2.7,4.5 1.5,6.7 -1.2,2.2 -8.5,13.7 -8.5,13.7 l -20.7,-6 -19.2,0 -2.1,12.4 5.9,5.9 0,-3.3 c 0,0 16.5,19.2 17.7,20.7 1.4,1.7 1.5,4 0.3,5.8 l -6.3,8.7 -21.8,-6.7 -5.5,-13.3 -0.8,1.5 -10.8,0 -0.5,-1.2 -1.7,-0.3 -1.7,0.3 -0.5,1.2 -10.8,0 -0.8,-1.5 -5.5,13.3 -21.8,6.7 -6.3,-8.7 c -1.2,-1.8 -1,-4.2 0.3,-5.8 1.2,-1.5 17.7,-20.7 17.7,-20.7 l 0,3.3 5.9,-5.9 -2.2,-12.4 -19.2,0 -20.7,6 c 0,0 -7.3,-11.5 -8.5,-13.7 -1.2,-2.2 -0.8,-4.2 1.5,-6.7 2.3,-2.5 47,-49.2 47,-49.2 l 0,-7.2 c 0.1,-8.2 2.6,-16.1 7.2,-22.8 0,0 -0.2,-7 -0.2,-10.5 0,-2 0.3,-4 1,-5.8 l 8.9,0 0,-20.8 c 0,-25 8.7,-42.5 8.7,-42.5 m 0,-5 c -1.9,0 -3.6,1.1 -4.5,2.8 C 101.8,24 93,42.1 93,67.9 l 0,15.8 -3.8,0 c -2,0 -3.8,1.2 -4.6,3 -1,2.5 -1.4,5.1 -1.4,7.8 0,2.5 0.1,6.7 0.1,9 -4.6,7.3 -7,15.7 -7.1,24.3 l 0,5.2 c -7.7,8 -43.5,45.5 -45.7,47.8 -4.7,5 -3.8,9.5 -2.2,12.4 1.2,2.3 7.9,12.8 8.7,14 1.2,1.9 3.5,2.8 5.6,2.2 l 20,-5.8 14.2,0 0.8,5 -0.4,0 c -1.5,0 -2.8,0.6 -3.8,1.7 -2.8,3.2 -16.6,19.3 -17.8,20.9 -2.7,3.4 -2.9,8.2 -0.4,11.8 l 6.3,8.7 c 1.3,1.7 3.5,2.5 5.5,1.8 l 21.8,-6.7 c 1.4,-0.4 2.6,-1.5 3.2,-2.9 l 3.6,-8.7 8.9,0 c 0.8,0 1.5,-0.2 2.2,-0.5 0.7,0.3 1.4,0.5 2.2,0.5 l 8.9,0 3.6,8.7 c 0.6,1.4 1.7,2.4 3.2,2.9 l 21.8,6.7 c 2,0.6 4.2,-0.1 5.5,-1.8 l 6.3,-8.7 c 2.5,-3.6 2.3,-8.4 -0.4,-11.8 -1.2,-1.5 -15.1,-17.6 -17.8,-20.9 -0.9,-1.1 -2.3,-1.7 -3.8,-1.7 l -0.4,0 0.8,-5 14.2,0 20,5.8 c 2.1,0.6 4.4,-0.2 5.6,-2.1 0.8,-1.2 7.5,-11.7 8.7,-14 1.6,-2.9 2.4,-7.4 -2.2,-12.4 -2.1,-2.3 -38,-39.7 -45.7,-47.8 l 0,-5.2 c -0.1,-8.6 -2.6,-17 -7.2,-24.3 0,-2.3 0.1,-6.5 0.1,-9 0,-2.7 -0.4,-5.3 -1.4,-7.8 -0.8,-1.8 -2.6,-3 -4.6,-3 l -3.8,0 0,-15.9 c 0,-25.9 -8.8,-44 -9.2,-44.7 -0.8,-1.7 -2.5,-2.7 -4.4,-2.8 z"
           id="path4191" /></g></g><g
       transform="translate(68.316422,-242.07661)"
       id="Layer_2"><g
         id="Layer_24"><path
           style="fill:#ede2b2"
           inkscape:connector-curvature="0"
           id="path9"
           d="m 147.8,251.3 c -0.2,0 -0.5,0 -0.7,-0.1 l -21.8,-6.7 c -0.7,-0.2 -1.3,-0.7 -1.6,-1.4 l -4.2,-10.3 -10.6,0 c -0.9,0 -1.7,-0.5 -2.2,-1.2 -0.4,0.8 -1.3,1.3 -2.2,1.2 l -10.6,0 -4.2,10.3 c -0.3,0.7 -0.9,1.2 -1.6,1.4 l -21.8,6.7 c -1,0.3 -2.1,-0.1 -2.8,-0.9 l -6.3,-8.7 c -1.8,-2.7 -1.7,-6.3 0.4,-8.8 1.2,-1.5 16,-18.8 17.8,-20.8 0.9,-1 2.5,-1.2 3.5,-0.3 0,0 0,0 0,0 l 1.6,-1.6 -1.5,-9.1 -16.8,0 -20.4,6 c -1.1,0.3 -2.2,-0.1 -2.8,-1.1 -0.3,-0.5 -7.4,-11.6 -8.6,-13.8 -1.7,-3.2 -1.1,-6.4 1.9,-9.6 2.2,-2.3 40.5,-42.3 46.3,-48.5 l 0,-6.2 c 0.1,-8.4 2.6,-16.6 7.1,-23.6 0,-2 -0.2,-6.9 -0.2,-9.7 0,-2.3 0.4,-4.6 1.2,-6.8 0.4,-0.9 1.3,-1.5 2.3,-1.5 l 6.3,0 0,-18.3 c 0,-25.3 8.6,-42.9 8.9,-43.6 0.6,-1.2 2.1,-1.7 3.4,-1.1 0.5,0.2 0.9,0.6 1.1,1.1 0.4,0.7 8.9,18.3 8.9,43.6 l 0,18.3 6.3,0 c 1,0 1.9,0.6 2.3,1.5 0.8,2.2 1.2,4.5 1.2,6.8 0,2.8 -0.1,7.8 -0.2,9.7 4.6,7 7.1,15.2 7.1,23.6 l 0,6.2 c 5.9,6.1 44.1,46.1 46.3,48.5 3,3.2 3.6,6.3 1.9,9.6 -1.2,2.2 -8.3,13.4 -8.6,13.8 -0.6,0.9 -1.7,1.4 -2.8,1.1 l -20.3,-5.9 -16.7,0 -1.5,9.1 1.6,1.6 c 1,-0.9 2.6,-0.8 3.5,0.2 0,0 0,0 0,0 1.7,2 16.6,19.3 17.8,20.8 2,2.6 2.2,6.1 0.4,8.8 l -6.3,8.7 c -0.2,0.6 -1,1 -1.8,1 z"
           class="st0" /><path
           style="fill:#596b6a"
           inkscape:connector-curvature="0"
           id="path11"
           d="m 106.7,25.4 c 0,0 8.7,17.5 8.7,42.5 l 0,20.8 8.8,0 c 0.7,1.9 1,3.8 1,5.8 0,3.5 -0.2,10.5 -0.2,10.5 4.6,6.7 7.1,14.7 7.2,22.8 l 0,7.2 c 0,0 44.7,46.7 47,49.2 2.3,2.5 2.7,4.5 1.5,6.7 -1.2,2.2 -8.5,13.7 -8.5,13.7 l -20.7,-6 -19.2,0 -2.1,12.4 5.9,5.9 0,-3.3 c 0,0 16.5,19.2 17.7,20.7 1.4,1.7 1.5,4 0.3,5.8 l -6.3,8.7 -21.8,-6.7 -5.5,-13.3 -0.8,1.5 -10.8,0 -0.5,-1.2 -1.7,-0.3 -1.7,0.3 -0.5,1.2 -10.8,0 -0.8,-1.5 -5.5,13.3 -21.8,6.7 -6.3,-8.7 c -1.2,-1.8 -1,-4.2 0.3,-5.8 1.2,-1.5 17.7,-20.7 17.7,-20.7 l 0,3.3 5.9,-5.9 -2.2,-12.4 -19.2,0 -20.7,6 c 0,0 -7.3,-11.5 -8.5,-13.7 -1.2,-2.2 -0.8,-4.2 1.5,-6.7 2.3,-2.5 47,-49.2 47,-49.2 l 0,-7.2 c 0.1,-8.2 2.6,-16.1 7.2,-22.8 0,0 -0.2,-7 -0.2,-10.5 0,-2 0.3,-4 1,-5.8 l 8.9,0 0,-20.8 c 0,-25 8.7,-42.5 8.7,-42.5 m 0,-5 c -1.9,0 -3.6,1.1 -4.5,2.8 C 101.8,24 93,42.1 93,67.9 l 0,15.8 -3.8,0 c -2,0 -3.8,1.2 -4.6,3 -1,2.5 -1.4,5.1 -1.4,7.8 0,2.5 0.1,6.7 0.1,9 -4.6,7.3 -7,15.7 -7.1,24.3 l 0,5.2 c -7.7,8 -43.5,45.5 -45.7,47.8 -4.7,5 -3.8,9.5 -2.2,12.4 1.2,2.3 7.9,12.8 8.7,14 1.2,1.9 3.5,2.8 5.6,2.2 l 20,-5.8 14.2,0 0.8,5 -0.4,0 c -1.5,0 -2.8,0.6 -3.8,1.7 -2.8,3.2 -16.6,19.3 -17.8,20.9 -2.7,3.4 -2.9,8.2 -0.4,11.8 l 6.3,8.7 c 1.3,1.7 3.5,2.5 5.5,1.8 l 21.8,-6.7 c 1.4,-0.4 2.6,-1.5 3.2,-2.9 l 3.6,-8.7 8.9,0 c 0.8,0 1.5,-0.2 2.2,-0.5 0.7,0.3 1.4,0.5 2.2,0.5 l 8.9,0 3.6,8.7 c 0.6,1.4 1.7,2.4 3.2,2.9 l 21.8,6.7 c 2,0.6 4.2,-0.1 5.5,-1.8 l 6.3,-8.7 c 2.5,-3.6 2.3,-8.4 -0.4,-11.8 -1.2,-1.5 -15.1,-17.6 -17.8,-20.9 -0.9,-1.1 -2.3,-1.7 -3.8,-1.7 l -0.4,0 0.8,-5 14.2,0 20,5.8 c 2.1,0.6 4.4,-0.2 5.6,-2.1 0.8,-1.2 7.5,-11.7 8.7,-14 1.6,-2.9 2.4,-7.4 -2.2,-12.4 -2.1,-2.3 -38,-39.7 -45.7,-47.8 l 0,-5.2 c -0.1,-8.6 -2.6,-17 -7.2,-24.3 0,-2.3 0.1,-6.5 0.1,-9 0,-2.7 -0.4,-5.3 -1.4,-7.8 -0.8,-1.8 -2.6,-3 -4.6,-3 l -3.8,0 0,-15.9 c 0,-25.9 -8.8,-44 -9.2,-44.7 -0.8,-1.7 -2.5,-2.7 -4.4,-2.8 z"
           class="st1" /><path
           style="fill:#dbcf9e"
           inkscape:connector-curvature="0"
           id="path13"
           d="m 132.1,127.9 c -0.1,-7.2 -2,-14.3 -5.7,-20.6 -5,6.9 -12.3,15.9 -16.1,16.7 -3.8,0.8 -17.4,-0.7 -28.9,-0.9 -0.2,1.6 -0.3,3.2 -0.3,4.8 l 0,7.2 c 0,0 -44.7,46.7 -47,49.2 -2.3,2.5 -2.7,4.5 -1.5,6.7 1.2,2.2 8.5,13.7 8.5,13.7 l 11.2,-3.3 c 1.9,-4.4 4.8,-8.3 8.6,-11.2 9.7,-7.3 22.7,-1 32.3,-1 9.6,0 30.7,-13 44,-25.3 3.6,-3.4 6.8,-8.1 9.5,-13.3 l -14.7,-15.3 0.1,-7.4 z"
           class="st2" /><path
           style="fill:#c8eab2"
           inkscape:connector-curvature="0"
           id="path15"
           d="m 180.6,190.9 c 1.2,-2.2 0.8,-4.2 -1.5,-6.7 -0.8,-0.8 -6.4,-6.7 -13.4,-14.1 -1.3,0.9 -2.4,2 -3.4,3.2 -5.7,7.7 -6.7,18.7 -6.3,21.7 0.1,1 0.5,2.9 0.9,5.1 l 15.2,4.4 c 0,0.1 7.4,-11.4 8.5,-13.6 z"
           class="st3" /><path
           style="fill:#dbcf9e"
           inkscape:connector-curvature="0"
           id="path17"
           d="m 108.8,230.3 10.8,0 0.8,-1.5 5.5,13.3 21.8,6.7 6.3,-8.7 c 1.2,-1.8 1,-4.2 -0.3,-5.8 -1.2,-1.5 -17.7,-20.7 -17.7,-20.7 l 0,3.3 -5.9,-5.9 0.7,-4.1 c -4.2,-0.5 -9.5,-0.7 -13.3,0.5 -7.3,2.3 -14,12 -22,13.7 -9.4,2.1 -18.9,3.4 -28.4,4.1 -3.7,4.4 -7.2,8.4 -7.7,9.1 -1.4,1.7 -1.5,4 -0.3,5.8 l 6.3,8.7 21.8,-6.7 5.5,-13.3 0.8,1.5 10.8,0 0.5,-1.2 1.7,-0.3 1.7,0.3 0.6,1.2 z"
           class="st2" /><polygon
           style="fill:#596b6a"
           id="polygon19"
           points="105,229.1 104.5,230.3 93.7,230.3 92.8,228.8 91.9,220.4 105.6,220.4 "
           class="st1" /><polygon
           style="fill:#596b6a"
           id="polygon21"
           points="108.3,229.1 108.8,230.3 119.7,230.3 120.5,228.8 121.4,220.4 107.8,220.4 "
           class="st1" /><path
           style="fill:#596b6a"
           inkscape:connector-curvature="0"
           id="path23"
           d="m 111.7,76.6 0,-3.8 c 0,-4.2 -2.3,-6.5 -5,-6.5 -2.7,0 -5,2.3 -5,6.5 l 0,3.8 10,0 z"
           class="st1" /><path
           style="fill:#596b6a"
           inkscape:connector-curvature="0"
           id="path25"
           d="m 101.7,94.9 0,4.3 c 0,11.5 5,11.5 5,11.5 0,0 5,0 5,-11.5 l 0,-4.3 -10,0 z"
           class="st1" /><path
           style="fill:#596b6a"
           inkscape:connector-curvature="0"
           id="path27"
           d="m 111.7,93.9 0,-16.3 -10,0 0,16.3 10,0 z"
           class="st1" /><path
           style="fill:#cae0e0"
           inkscape:connector-curvature="0"
           id="path29"
           d="m 114.6,55.1 c -2.1,-17.9 -7.9,-29.7 -7.9,-29.7 0,0 -5.8,11.7 -7.9,29.7 l 15.8,0 z"
           class="st4" /><path
           style="fill:#596b6a"
           inkscape:connector-curvature="0"
           id="path31"
           d="m 106.7,25.4 c 0,0 8.7,17.5 8.7,42.5 l 0,20.8 8.8,0 c 0.7,1.9 1,3.8 1,5.8 0,3.5 -0.2,10.5 -0.2,10.5 4.6,6.7 7.1,14.7 7.2,22.8 l 0,7.2 c 0,0 44.7,46.7 47,49.2 2.3,2.5 2.7,4.5 1.5,6.7 -1.2,2.2 -8.5,13.7 -8.5,13.7 l -20.7,-6 -19.2,0 -2.1,12.4 5.9,5.9 0,-3.3 c 0,0 16.5,19.2 17.7,20.7 1.4,1.7 1.5,4 0.3,5.8 l -6.3,8.7 -21.8,-6.7 -5.5,-13.3 -0.8,1.5 -10.8,0 -0.5,-1.2 -1.7,-0.3 -1.7,0.3 -0.5,1.2 -10.8,0 -0.8,-1.5 -5.5,13.3 -21.8,6.7 -6.3,-8.7 c -1.2,-1.8 -1,-4.2 0.3,-5.8 1.2,-1.5 17.7,-20.7 17.7,-20.7 l 0,3.3 5.9,-5.9 -2.2,-12.4 -19.2,0 -20.7,6 c 0,0 -7.3,-11.5 -8.5,-13.7 -1.2,-2.2 -0.8,-4.2 1.5,-6.7 2.3,-2.5 47,-49.2 47,-49.2 l 0,-7.2 c 0.1,-8.2 2.6,-16.1 7.2,-22.8 0,0 -0.2,-7 -0.2,-10.5 0,-2 0.3,-4 1,-5.8 l 8.9,0 0,-20.8 c 0,-25 8.7,-42.5 8.7,-42.5 m 0,-5 c -1.9,0 -3.6,1.1 -4.5,2.8 C 101.8,24 93,42.1 93,67.9 l 0,15.8 -3.8,0 c -2,0 -3.8,1.2 -4.6,3 -1,2.5 -1.4,5.1 -1.4,7.8 0,2.5 0.1,6.7 0.1,9 -4.6,7.3 -7,15.7 -7.1,24.3 l 0,5.2 c -7.7,8 -43.5,45.5 -45.7,47.8 -4.7,5 -3.8,9.5 -2.2,12.4 1.2,2.3 7.9,12.8 8.7,14 1.2,1.9 3.5,2.8 5.6,2.2 l 20,-5.8 14.2,0 0.8,5 -0.4,0 c -1.5,0 -2.8,0.6 -3.8,1.7 -2.8,3.2 -16.6,19.3 -17.8,20.9 -2.7,3.4 -2.9,8.2 -0.4,11.8 l 6.3,8.7 c 1.3,1.7 3.5,2.5 5.5,1.8 l 21.8,-6.7 c 1.4,-0.4 2.6,-1.5 3.2,-2.9 l 3.6,-8.7 8.9,0 c 0.8,0 1.5,-0.2 2.2,-0.5 0.7,0.3 1.4,0.5 2.2,0.5 l 8.9,0 3.6,8.7 c 0.6,1.4 1.7,2.4 3.2,2.9 l 21.8,6.7 c 2,0.6 4.2,-0.1 5.5,-1.8 l 6.3,-8.7 c 2.5,-3.6 2.3,-8.4 -0.4,-11.8 -1.2,-1.5 -15.1,-17.6 -17.8,-20.9 -0.9,-1.1 -2.3,-1.7 -3.8,-1.7 l -0.4,0 0.8,-5 14.2,0 20,5.8 c 2.1,0.6 4.4,-0.2 5.6,-2.1 0.8,-1.2 7.5,-11.7 8.7,-14 1.6,-2.9 2.4,-7.4 -2.2,-12.4 -2.1,-2.3 -38,-39.7 -45.7,-47.8 l 0,-5.2 c -0.1,-8.6 -2.6,-17 -7.2,-24.3 0,-2.3 0.1,-6.5 0.1,-9 0,-2.7 -0.4,-5.3 -1.4,-7.8 -0.8,-1.8 -2.6,-3 -4.6,-3 l -3.8,0 0,-15.9 c 0,-25.9 -8.8,-44 -9.2,-44.7 -0.8,-1.7 -2.5,-2.7 -4.4,-2.8 z"
           class="st1" /></g></g></g></svg>