<?xml version="1.0" encoding="utf-8"?>
<!-- Generator: Adobe Illustrator 21.1.0, SVG Export Plug-In . SVG Version: 6.00 Build 0)  -->
<svg version="1.1" id="Layer_1" xmlns="http://www.w3.org/2000/svg" xmlns:xlink="http://www.w3.org/1999/xlink" x="0px" y="0px"
	 viewBox="0 0 216 292" style="enable-background:new 0 0 216 292;" xml:space="preserve">
<style type="text/css">
	.st0{fill:#EDE2B2;}
	.st1{fill:#596B6A;}
	.st2{fill:#DBCF9E;}
	.st3{fill:#C8EAB2;}
	.st4{fill:#CAE0E0;}
</style>
<title>Asset 1</title>
<g id="Layer_2">
	<g id="Layer_24">
		<path class="st0" d="M147.8,251.3c-0.2,0-0.5,0-0.7-0.1l-21.8-6.7c-0.7-0.2-1.3-0.7-1.6-1.4l-4.2-10.3h-10.6
			c-0.9,0-1.7-0.5-2.2-1.2c-0.4,0.8-1.3,1.3-2.2,1.2H93.9l-4.2,10.3c-0.3,0.7-0.9,1.2-1.6,1.4l-21.8,6.7c-1,0.3-2.1-0.1-2.8-0.9
			l-6.3-8.7c-1.8-2.7-1.7-6.3,0.4-8.8c1.2-1.5,16-18.8,17.8-20.8c0.9-1,2.5-1.2,3.5-0.3c0,0,0,0,0,0l1.6-1.6l-1.5-9.1H62.2L41.8,207
			c-1.1,0.3-2.2-0.1-2.8-1.1c-0.3-0.5-7.4-11.6-8.6-13.8c-1.7-3.2-1.1-6.4,1.9-9.6c2.2-2.3,40.5-42.3,46.3-48.5v-6.2
			c0.1-8.4,2.6-16.6,7.1-23.6c0-2-0.2-6.9-0.2-9.7c0-2.3,0.4-4.6,1.2-6.8c0.4-0.9,1.3-1.5,2.3-1.5h6.3V67.9
			c0-25.3,8.6-42.9,8.9-43.6c0.6-1.2,2.1-1.7,3.4-1.1c0.5,0.2,0.9,0.6,1.1,1.1c0.4,0.7,8.9,18.3,8.9,43.6v18.3h6.3
			c1,0,1.9,0.6,2.3,1.5c0.8,2.2,1.2,4.5,1.2,6.8c0,2.8-0.1,7.8-0.2,9.7c4.6,7,7.1,15.2,7.1,23.6v6.2c5.9,6.1,44.1,46.1,46.3,48.5
			c3,3.2,3.6,6.3,1.9,9.6c-1.2,2.2-8.3,13.4-8.6,13.8c-0.6,0.9-1.7,1.4-2.8,1.1l-20.3-5.9h-16.7l-1.5,9.1l1.6,1.6
			c1-0.9,2.6-0.8,3.5,0.2c0,0,0,0,0,0c1.7,2,16.6,19.3,17.8,20.8c2,2.6,2.2,6.1,0.4,8.8l-6.3,8.7
			C149.4,250.9,148.6,251.3,147.8,251.3z"/>
		<path class="st1" d="M106.7,25.4c0,0,8.7,17.5,8.7,42.5v20.8h8.8c0.7,1.9,1,3.8,1,5.8c0,3.5-0.2,10.5-0.2,10.5
			c4.6,6.7,7.1,14.7,7.2,22.8v7.2c0,0,44.7,46.7,47,49.2s2.7,4.5,1.5,6.7s-8.5,13.7-8.5,13.7l-20.7-6h-19.2l-2.1,12.4l5.9,5.9v-3.3
			c0,0,16.5,19.2,17.7,20.7c1.4,1.7,1.5,4,0.3,5.8l-6.3,8.7l-21.8-6.7l-5.5-13.3l-0.8,1.5h-10.8l-0.5-1.2l-1.7-0.3l-1.7,0.3
			l-0.5,1.2H93.7l-0.8-1.5l-5.5,13.3l-21.8,6.7l-6.3-8.7c-1.2-1.8-1-4.2,0.3-5.8c1.2-1.5,17.7-20.7,17.7-20.7v3.3l5.9-5.9L81,198.6
			H61.8l-20.7,6c0,0-7.3-11.5-8.5-13.7c-1.2-2.2-0.8-4.2,1.5-6.7c2.3-2.5,47-49.2,47-49.2v-7.2c0.1-8.2,2.6-16.1,7.2-22.8
			c0,0-0.2-7-0.2-10.5c0-2,0.3-4,1-5.8H98V67.9C98,42.9,106.7,25.4,106.7,25.4 M106.7,20.4c-1.9,0-3.6,1.1-4.5,2.8
			C101.8,24,93,42.1,93,67.9v15.8h-3.8c-2,0-3.8,1.2-4.6,3c-1,2.5-1.4,5.1-1.4,7.8c0,2.5,0.1,6.7,0.1,9c-4.6,7.3-7,15.7-7.1,24.3
			v5.2c-7.7,8-43.5,45.5-45.7,47.8c-4.7,5-3.8,9.5-2.2,12.4c1.2,2.3,7.9,12.8,8.7,14c1.2,1.9,3.5,2.8,5.6,2.2l20-5.8h14.2l0.8,5
			h-0.4c-1.5,0-2.8,0.6-3.8,1.7c-2.8,3.2-16.6,19.3-17.8,20.9c-2.7,3.4-2.9,8.2-0.4,11.8l6.3,8.7c1.3,1.7,3.5,2.5,5.5,1.8l21.8-6.7
			c1.4-0.4,2.6-1.5,3.2-2.9l3.6-8.7h8.9c0.8,0,1.5-0.2,2.2-0.5c0.7,0.3,1.4,0.5,2.2,0.5h8.9l3.6,8.7c0.6,1.4,1.7,2.4,3.2,2.9
			l21.8,6.7c2,0.6,4.2-0.1,5.5-1.8l6.3-8.7c2.5-3.6,2.3-8.4-0.4-11.8c-1.2-1.5-15.1-17.6-17.8-20.9c-0.9-1.1-2.3-1.7-3.8-1.7h-0.4
			l0.8-5h14.2l20,5.8c2.1,0.6,4.4-0.2,5.6-2.1c0.8-1.2,7.5-11.7,8.7-14c1.6-2.9,2.4-7.4-2.2-12.4c-2.1-2.3-38-39.7-45.7-47.8v-5.2
			c-0.1-8.6-2.6-17-7.2-24.3c0-2.3,0.1-6.5,0.1-9c0-2.7-0.4-5.3-1.4-7.8c-0.8-1.8-2.6-3-4.6-3h-3.8V67.9c0-25.9-8.8-44-9.2-44.7
			C110.3,21.5,108.6,20.5,106.7,20.4z"/>
		<path class="st2" d="M132.1,127.9c-0.1-7.2-2-14.3-5.7-20.6c-5,6.9-12.3,15.9-16.1,16.7s-17.4-0.7-28.9-0.9
			c-0.2,1.6-0.3,3.2-0.3,4.8v7.2c0,0-44.7,46.7-47,49.2s-2.7,4.5-1.5,6.7c1.2,2.2,8.5,13.7,8.5,13.7l11.2-3.3
			c1.9-4.4,4.8-8.3,8.6-11.2c9.7-7.3,22.7-1,32.3-1s30.7-13,44-25.3c3.6-3.4,6.8-8.1,9.5-13.3l-14.7-15.3L132.1,127.9z"/>
		<path class="st3" d="M180.6,190.9c1.2-2.2,0.8-4.2-1.5-6.7c-0.8-0.8-6.4-6.7-13.4-14.1c-1.3,0.9-2.4,2-3.4,3.2
			c-5.7,7.7-6.7,18.7-6.3,21.7c0.1,1,0.5,2.9,0.9,5.1l15.2,4.4C172.1,204.6,179.5,193.1,180.6,190.9z"/>
		<path class="st2" d="M108.8,230.3h10.8l0.8-1.5l5.5,13.3l21.8,6.7l6.3-8.7c1.2-1.8,1-4.2-0.3-5.8c-1.2-1.5-17.7-20.7-17.7-20.7
			v3.3l-5.9-5.9l0.7-4.1c-4.2-0.5-9.5-0.7-13.3,0.5c-7.3,2.3-14,12-22,13.7c-9.4,2.1-18.9,3.4-28.4,4.1c-3.7,4.4-7.2,8.4-7.7,9.1
			c-1.4,1.7-1.5,4-0.3,5.8l6.3,8.7l21.8-6.7l5.5-13.3l0.8,1.5h10.8l0.5-1.2l1.7-0.3l1.7,0.3L108.8,230.3z"/>
		<polygon class="st1" points="105,229.1 104.5,230.3 93.7,230.3 92.8,228.8 91.9,220.4 105.6,220.4 		"/>
		<polygon class="st1" points="108.3,229.1 108.8,230.3 119.7,230.3 120.5,228.8 121.4,220.4 107.8,220.4 		"/>
		<path class="st1" d="M111.7,76.6v-3.8c0-4.2-2.3-6.5-5-6.5s-5,2.3-5,6.5v3.8L111.7,76.6z"/>
		<path class="st1" d="M101.7,94.9v4.3c0,11.5,5,11.5,5,11.5s5,0,5-11.5v-4.3H101.7z"/>
		<path class="st1" d="M111.7,93.9V77.6h-10v16.3H111.7z"/>
		<path class="st4" d="M114.6,55.1c-2.1-17.9-7.9-29.7-7.9-29.7s-5.8,11.7-7.9,29.7H114.6z"/>
		<path class="st1" d="M106.7,25.4c0,0,8.7,17.5,8.7,42.5v20.8h8.8c0.7,1.9,1,3.8,1,5.8c0,3.5-0.2,10.5-0.2,10.5
			c4.6,6.7,7.1,14.7,7.2,22.8v7.2c0,0,44.7,46.7,47,49.2s2.7,4.5,1.5,6.7s-8.5,13.7-8.5,13.7l-20.7-6h-19.2l-2.1,12.4l5.9,5.9v-3.3
			c0,0,16.5,19.2,17.7,20.7c1.4,1.7,1.5,4,0.3,5.8l-6.3,8.7l-21.8-6.7l-5.5-13.3l-0.8,1.5h-10.8l-0.5-1.2l-1.7-0.3l-1.7,0.3
			l-0.5,1.2H93.7l-0.8-1.5l-5.5,13.3l-21.8,6.7l-6.3-8.7c-1.2-1.8-1-4.2,0.3-5.8c1.2-1.5,17.7-20.7,17.7-20.7v3.3l5.9-5.9L81,198.6
			H61.8l-20.7,6c0,0-7.3-11.5-8.5-13.7c-1.2-2.2-0.8-4.2,1.5-6.7c2.3-2.5,47-49.2,47-49.2v-7.2c0.1-8.2,2.6-16.1,7.2-22.8
			c0,0-0.2-7-0.2-10.5c0-2,0.3-4,1-5.8H98V67.9C98,42.9,106.7,25.4,106.7,25.4 M106.7,20.4c-1.9,0-3.6,1.1-4.5,2.8
			C101.8,24,93,42.1,93,67.9v15.8h-3.8c-2,0-3.8,1.2-4.6,3c-1,2.5-1.4,5.1-1.4,7.8c0,2.5,0.1,6.7,0.1,9c-4.6,7.3-7,15.7-7.1,24.3
			v5.2c-7.7,8-43.5,45.5-45.7,47.8c-4.7,5-3.8,9.5-2.2,12.4c1.2,2.3,7.9,12.8,8.7,14c1.2,1.9,3.5,2.8,5.6,2.2l20-5.8h14.2l0.8,5
			h-0.4c-1.5,0-2.8,0.6-3.8,1.7c-2.8,3.2-16.6,19.3-17.8,20.9c-2.7,3.4-2.9,8.2-0.4,11.8l6.3,8.7c1.3,1.7,3.5,2.5,5.5,1.8l21.8-6.7
			c1.4-0.4,2.6-1.5,3.2-2.9l3.6-8.7h8.9c0.8,0,1.5-0.2,2.2-0.5c0.7,0.3,1.4,0.5,2.2,0.5h8.9l3.6,8.7c0.6,1.4,1.7,2.4,3.2,2.9
			l21.8,6.7c2,0.6,4.2-0.1,5.5-1.8l6.3-8.7c2.5-3.6,2.3-8.4-0.4-11.8c-1.2-1.5-15.1-17.6-17.8-20.9c-0.9-1.1-2.3-1.7-3.8-1.7h-0.4
			l0.8-5h14.2l20,5.8c2.1,0.6,4.4-0.2,5.6-2.1c0.8-1.2,7.5-11.7,8.7-14c1.6-2.9,2.4-7.4-2.2-12.4c-2.1-2.3-38-39.7-45.7-47.8v-5.2
			c-0.1-8.6-2.6-17-7.2-24.3c0-2.3,0.1-6.5,0.1-9c0-2.7-0.4-5.3-1.4-7.8c-0.8-1.8-2.6-3-4.6-3h-3.8V67.9c0-25.9-8.8-44-9.2-44.7
			C110.3,21.5,108.6,20.5,106.7,20.4z"/>
	</g>
</g>
</svg>
