<?xml version="1.0" encoding="utf-8"?>
<!-- Generator: Adobe Illustrator 21.1.0, SVG Export Plug-In . SVG Version: 6.00 Build 0)  -->
<svg version="1.1" id="Layer_1" xmlns="http://www.w3.org/2000/svg" xmlns:xlink="http://www.w3.org/1999/xlink" x="0px" y="0px"
	 viewBox="0 0 309 294" style="enable-background:new 0 0 309 294;" xml:space="preserve">
<style type="text/css">
	.st0{fill:#F2F2F2;}
	.st1{fill:#596B6A;}
	.st2{fill:#A8C1C0;}
</style>
<g>
	<g>
		<path class="st0" d="M193.9,268.8c-0.3,0-0.6,0-0.8-0.1l-33.7-12l-0.1,0.4c-0.4,0.9-1.3,1.6-2.3,1.6s-1.9-0.6-2.3-1.6l-0.1-0.4
			l-33.7,12c-0.3,0.1-0.6,0.1-0.8,0.1c-0.5,0-1-0.2-1.5-0.5c-0.7-0.5-1.1-1.3-1-2.1c0-0.1,0.1-5.6,0.1-7.3c0-1.9,0.7-6.7,0.8-7.3
			c0.1-0.6,0.4-1.2,0.9-1.6l28.6-23.6c-0.9-4.8-3.7-20.4-3.7-33.9v-32.2h-7.7l-24.8,5.7l-68.3,34.3c-0.4,0.2-0.7,0.3-1.1,0.3
			c-0.4,0-0.8-0.1-1.2-0.3c-0.7-0.4-1.2-1.1-1.3-1.9c0-0.2-0.5-4.6-0.2-8.4c0.3-3.7,1.3-8.7,4-11c0.8-0.6,9.2-7.4,25.9-20.6
			c-0.1-1-0.1-1.8-0.1-2.5v-9.5c-0.4-0.4-0.6-1-0.6-1.7v-7.4c0-3.4,2.2-5.1,6.4-5.1c4,0,6,1.8,6,5.3v7.1c0,0.7-0.3,1.3-0.7,1.7
			l0,3.3c7.7-6.1,14.7-11.6,18.8-14.9c0-0.7-0.1-1.2-0.1-1.7v-9.5c-0.4-0.4-0.6-1-0.6-1.7v-7.4c0-3.4,2.2-5.1,6.4-5.1
			c4,0,6,1.8,6,5.3v7.1c0,0.7-0.3,1.3-0.7,1.7l0,3.8l33.9-27.3c0.1-4.5,0.4-21.2,0.4-34.1c0-9.6,1.2-20.6,3.1-29.6
			c3.2-14.3,6.6-16,8.9-16h0.5c2.3,0,5.7,1.7,8.9,16c2,8.9,3.1,20,3.1,29.6c0,12.9,0.3,29.6,0.4,34.1l33.9,27.3l0-3.8
			c-0.4-0.4-0.7-1-0.7-1.7v-7.1c0-3.5,2-5.3,6-5.3c4.3,0,6.4,1.7,6.4,5.1v7.4c0,0.6-0.2,1.2-0.6,1.7v9.5c0,0.5,0,1.1-0.1,1.7
			c4.1,3.3,11.1,8.8,18.8,14.9l0-3.3c-0.4-0.4-0.7-1-0.7-1.7v-7.1c0-3.5,2-5.3,6-5.3c4.3,0,6.4,1.7,6.4,5.1v7.4
			c0,0.6-0.2,1.2-0.6,1.7v9.5c0,0.7,0,1.5-0.1,2.5c16.4,13,25.2,20,25.9,20.6c2.8,2.3,3.7,7.3,4,11c0.3,3.8-0.1,8.2-0.2,8.4
			c-0.1,0.8-0.6,1.5-1.3,1.9c-0.4,0.2-0.8,0.3-1.2,0.3c-0.4,0-0.8-0.1-1.1-0.3l-68.3-34.3l-24.8-5.7h-7.7v32.2
			c0,13.5-2.8,29.1-3.7,33.9l28.6,23.6c0.5,0.4,0.8,1,0.9,1.6c0.1,0.5,0.8,5.3,0.8,7.3c0,1.8,0.1,7.2,0.1,7.3c0,0.8-0.4,1.6-1,2.1
			C195,268.6,194.4,268.8,193.9,268.8z"/>
		<path class="st1" d="M157.2,23c4.5,0,9.5,23,9.5,43c0,15.2,0.5,35.3,0.5,35.3l38.9,31.3l-0.1-10.7h-0.7c0,0,0-4.7,0-7.1
			c0-2.5,1.4-2.8,3.5-2.8c2.1,0,3.9,0.2,3.9,2.6c0,2.3,0,7.4,0,7.4h-0.6c0,2.4,0,9.5,0,11.1c0,0.9-0.1,1.9-0.2,2.9
			c4.6,3.6,14,11.1,24,19l-0.1-10.2h-0.7c0,0,0-4.7,0-7.1c0-2.5,1.4-2.8,3.5-2.8c2.1,0,3.9,0.2,3.9,2.6c0,2.3,0,7.4,0,7.4H242
			c0,2.4,0,9.5,0,11.1c0,1.1-0.1,2.5-0.3,3.6c13.4,10.6,26,20.6,26.9,21.4c2,1.7,2.9,5.7,3.2,9.3c0.3,3.6-0.2,8-0.2,8l-68.6-34.4
			l-25.4-5.9h-10.5c0,0,0,18.9,0,34.7c0,15.8-3.9,34.9-3.9,34.9L193,252c0,0,0.8,5.1,0.8,6.9s0.2,7.4,0.2,7.4L158,253.5l-1.1,2.6
			l0,0v0l-1.1-2.6l-35.9,12.8c0,0,0.2-5.6,0.2-7.4s0.8-6.9,0.8-6.9l29.8-24.5c0,0-3.9-19.1-3.9-34.9c0-15.8,0-34.7,0-34.7h-10.5
			l-25.4,5.9l-68.6,34.4c0,0-0.5-4.4-0.2-8c0.3-3.6,1.2-7.7,3.2-9.3c0.9-0.8,13.5-10.8,26.9-21.4c-0.1-1.1-0.3-2.5-0.3-3.6
			c0-1.7,0-8.7,0-11.1h-0.6c0,0,0-5,0-7.4c0-2.3,1.8-2.6,3.9-2.6c2.1,0,3.5,0.3,3.5,2.8c0,2.5,0,7.1,0,7.1H78l-0.1,10.2
			c9.9-7.9,19.4-15.3,24-19c-0.1-0.9-0.2-2-0.2-2.9c0-1.7,0-8.7,0-11.1h-0.6c0,0,0-5,0-7.4c0-2.3,1.8-2.6,3.9-2.6
			c2.1,0,3.5,0.3,3.5,2.8c0,2.5,0,7.1,0,7.1h-0.7l-0.1,10.7l38.9-31.3c0,0,0.5-20.2,0.5-35.3c0-20,5-43,9.5-43H157.2 M157.2,18h-0.5
			c-5.2,0-8.6,5.4-11.3,17.9c-2,9.1-3.2,20.3-3.2,30.1c0,12-0.3,27.2-0.4,32.9l-28.2,22.7v-6.8c0-1.8-0.6-7.8-8.5-7.8
			c-1.6,0-3.3,0.1-4.9,0.9c-2.5,1.2-4,3.7-4,6.6v7.4c0,0.9,0.2,1.7,0.6,2.4v8.7c0,0.2,0,0.4,0,0.6c-3.3,2.6-7.9,6.2-13.1,10.3v-6.4
			c0-1.8-0.6-7.8-8.5-7.8c-1.6,0-3.3,0.1-4.9,0.9c-2.5,1.2-4,3.7-4,6.6v7.4c0,0.9,0.2,1.7,0.6,2.4v8.7c0,0.4,0,0.9,0,1.4
			c-23.8,18.8-24.7,19.6-24.9,19.8c-2.7,2.3-4.4,6.6-4.9,12.7c-0.3,4,0.1,8.7,0.2,8.9c0.2,1.6,1.1,3.1,2.6,3.9
			c0.7,0.4,1.6,0.6,2.4,0.6c0.8,0,1.5-0.2,2.2-0.5l68-34.2l24.3-5.6h5v29.7c0,12.5,2.3,26.8,3.4,32.9l-27.5,22.6
			c-1,0.8-1.6,1.9-1.8,3.1c-0.1,0.9-0.8,5.6-0.8,7.6c0,1.7-0.1,7.2-0.1,7.2c0,1.6,0.7,3.2,2.1,4.2c0.9,0.6,1.9,1,2.9,1
			c0.6,0,1.1-0.1,1.7-0.3l31.9-11.3c0.9,0.9,2.1,1.4,3.5,1.4c1.3,0,2.6-0.5,3.5-1.4l31.9,11.3c0.5,0.2,1.1,0.3,1.7,0.3
			c1,0,2.1-0.3,2.9-1c1.3-1,2.1-2.5,2.1-4.2c0-0.1-0.1-5.5-0.1-7.2c0-2.1-0.7-6.7-0.8-7.6c-0.2-1.2-0.8-2.3-1.8-3.1l-27.5-22.6
			c1.1-6.1,3.4-20.4,3.4-32.9v-29.7h5l24.3,5.6l68,34.2c0.7,0.4,1.5,0.5,2.2,0.5c0.8,0,1.7-0.2,2.4-0.6c1.4-0.8,2.4-2.2,2.6-3.9
			c0-0.2,0.5-4.9,0.2-8.9c-0.5-6.1-2.2-10.4-4.9-12.7c-0.3-0.2-1.2-1-24.9-19.8c0-0.5,0-1,0-1.4v-8.7c0.4-0.7,0.6-1.6,0.6-2.4v-7.4
			c0-1.8-0.6-7.6-8.9-7.6c-1.6,0-3.5,0.1-5.2,1.2c-1.2,0.8-3.3,2.7-3.3,6.6v6.4c-5.2-4.1-9.8-7.8-13.1-10.3c0-0.2,0-0.4,0-0.6v-8.7
			c0.4-0.7,0.6-1.6,0.6-2.4v-7.4c0-1.8-0.6-7.6-8.9-7.6c-1.6,0-3.5,0.1-5.2,1.2c-1.2,0.8-3.3,2.7-3.3,6.6v6.8l-28.2-22.7
			c-0.1-5.7-0.4-21-0.4-32.9c0-9.8-1.2-21-3.2-30.1C165.7,23.3,162.3,18,157.2,18L157.2,18z"/>
	</g>
	<polygon class="st1" points="156.7,31.3 156.7,33.1 153.9,34.3 153.2,33.4 	"/>
	<path class="st1" d="M152.9,33.6l0.8,0.9l-2.2,5.2l-0.6-0.2C150.9,39.4,151.4,35.7,152.9,33.6z"/>
	<polygon class="st1" points="154.3,34.8 154.7,35.4 155,34.6 	"/>
	<polygon class="st1" points="153.6,35.4 154.1,35.8 153.7,36.8 153.1,36.8 	"/>
	<path class="st2" d="M75.1,134.8c-1.9,0-3.5,0.2-3.8,1.8h7.3C78.2,135,76.9,134.8,75.1,134.8z"/>
	<path class="st2" d="M105,112c-1.9,0-3.5,0.2-3.8,1.8h7.3C108.1,112.2,106.8,112,105,112z"/>
	<polygon class="st1" points="157.2,31.3 157.2,33.1 159.9,34.3 160.7,33.4 	"/>
	<path class="st1" d="M160.9,33.6l-0.8,0.9l2.2,5.2l0.6-0.2C163,39.4,162.4,35.7,160.9,33.6z"/>
	<polygon class="st1" points="159.5,34.8 159.2,35.4 158.8,34.6 	"/>
	<polygon class="st1" points="160.2,35.4 159.7,35.8 160.1,36.8 160.7,36.8 	"/>
	<path class="st2" d="M238.7,134.8c1.9,0,3.5,0.2,3.8,1.8h-7.3C235.6,135,236.9,134.8,238.7,134.8z"/>
	<path class="st2" d="M208.9,112c1.9,0,3.5,0.2,3.8,1.8h-7.3C205.8,112.2,207.1,112,208.9,112z"/>
</g>
</svg>
