<?xml version="1.0" encoding="UTF-8" standalone="no"?>
<!-- Generator: Adobe Illustrator 21.1.0, SVG Export Plug-In . SVG Version: 6.00 Build 0)  -->

<svg
   xmlns:dc="http://purl.org/dc/elements/1.1/"
   xmlns:cc="http://creativecommons.org/ns#"
   xmlns:rdf="http://www.w3.org/1999/02/22-rdf-syntax-ns#"
   xmlns:svg="http://www.w3.org/2000/svg"
   xmlns="http://www.w3.org/2000/svg"
   xmlns:sodipodi="http://sodipodi.sourceforge.net/DTD/sodipodi-0.dtd"
   xmlns:inkscape="http://www.inkscape.org/namespaces/inkscape"
   version="1.1"
   id="Layer_1"
   x="0px"
   y="0px"
   viewBox="0 0 70 70"
   xml:space="preserve"
   inkscape:version="0.91pre4 r13712"
   sodipodi:docname="reem.svg"
   width="70"
   height="70"><metadata
     id="metadata41"><rdf:RDF><cc:Work
         rdf:about=""><dc:format>image/svg+xml</dc:format><dc:type
           rdf:resource="http://purl.org/dc/dcmitype/StillImage" /><dc:title></dc:title></cc:Work></rdf:RDF></metadata><defs
     id="defs39"><filter
       inkscape:collect="always"
       style="color-interpolation-filters:sRGB"
       id="filter4217"
       x="-0.24639177"
       width="1.4927835"
       y="-0.23393147"
       height="1.4678628"><feGaussianBlur
         inkscape:collect="always"
         stdDeviation="24.660275"
         id="feGaussianBlur4219" /></filter></defs><sodipodi:namedview
     pagecolor="#ffffff"
     bordercolor="#666666"
     borderopacity="1"
     objecttolerance="10"
     gridtolerance="10"
     guidetolerance="10"
     inkscape:pageopacity="0"
     inkscape:pageshadow="2"
     inkscape:window-width="1280"
     inkscape:window-height="961"
     id="namedview37"
     showgrid="false"
     inkscape:zoom="0.80272109"
     inkscape:cx="67.665349"
     inkscape:cy="147"
     inkscape:window-x="-8"
     inkscape:window-y="-8"
     inkscape:window-maximized="1"
     inkscape:current-layer="Layer_1" /><style
     type="text/css"
     id="style3">
	.st0{fill:#F2F2F2;}
	.st1{fill:#596B6A;}
	.st2{fill:#A8C1C0;}
</style><g
     id="g4167"
     transform="matrix(0.2,0,0,0.2,1.7168901e-8,56.000002)"><g
       style="opacity:0.5;fill:#000000;fill-opacity:1;filter:url(#filter4217)"
       id="g4169"
       transform="translate(17.90689,-249.5)"><g
         style="fill:#000000;fill-opacity:1"
         id="g4171"><path
           class="st0"
           d="m 193.9,268.8 c -0.3,0 -0.6,0 -0.8,-0.1 l -33.7,-12 -0.1,0.4 c -0.4,0.9 -1.3,1.6 -2.3,1.6 -1,0 -1.9,-0.6 -2.3,-1.6 l -0.1,-0.4 -33.7,12 c -0.3,0.1 -0.6,0.1 -0.8,0.1 -0.5,0 -1,-0.2 -1.5,-0.5 -0.7,-0.5 -1.1,-1.3 -1,-2.1 0,-0.1 0.1,-5.6 0.1,-7.3 0,-1.9 0.7,-6.7 0.8,-7.3 0.1,-0.6 0.4,-1.2 0.9,-1.6 L 148,226.4 c -0.9,-4.8 -3.7,-20.4 -3.7,-33.9 l 0,-32.2 -7.7,0 -24.8,5.7 -68.3,34.3 c -0.4,0.2 -0.7,0.3 -1.1,0.3 -0.4,0 -0.8,-0.1 -1.2,-0.3 -0.7,-0.4 -1.2,-1.1 -1.3,-1.9 0,-0.2 -0.5,-4.6 -0.2,-8.4 0.3,-3.7 1.3,-8.7 4,-11 0.8,-0.6 9.2,-7.4 25.9,-20.6 -0.1,-1 -0.1,-1.8 -0.1,-2.5 l 0,-9.5 c -0.4,-0.4 -0.6,-1 -0.6,-1.7 l 0,-7.4 c 0,-3.4 2.2,-5.1 6.4,-5.1 4,0 6,1.8 6,5.3 l 0,7.1 c 0,0.7 -0.3,1.3 -0.7,1.7 l 0,3.3 c 7.7,-6.1 14.7,-11.6 18.8,-14.9 0,-0.7 -0.1,-1.2 -0.1,-1.7 l 0,-9.5 c -0.4,-0.4 -0.6,-1 -0.6,-1.7 l 0,-7.4 c 0,-3.4 2.2,-5.1 6.4,-5.1 4,0 6,1.8 6,5.3 l 0,7.1 c 0,0.7 -0.3,1.3 -0.7,1.7 l 0,3.8 33.9,-27.3 c 0.1,-4.5 0.4,-21.2 0.4,-34.1 0,-9.6 1.2,-20.6 3.1,-29.6 3.2,-14.3 6.6,-16 8.9,-16 l 0.5,0 c 2.3,0 5.7,1.7 8.9,16 2,8.9 3.1,20 3.1,29.6 0,12.9 0.3,29.6 0.4,34.1 l 33.9,27.3 0,-3.8 c -0.4,-0.4 -0.7,-1 -0.7,-1.7 l 0,-7.1 c 0,-3.5 2,-5.3 6,-5.3 4.3,0 6.4,1.7 6.4,5.1 l 0,7.4 c 0,0.6 -0.2,1.2 -0.6,1.7 l 0,9.5 c 0,0.5 0,1.1 -0.1,1.7 4.1,3.3 11.1,8.8 18.8,14.9 l 0,-3.3 c -0.4,-0.4 -0.7,-1 -0.7,-1.7 l 0,-7.1 c 0,-3.5 2,-5.3 6,-5.3 4.3,0 6.4,1.7 6.4,5.1 l 0,7.4 c 0,0.6 -0.2,1.2 -0.6,1.7 l 0,9.5 c 0,0.7 0,1.5 -0.1,2.5 16.4,13 25.2,20 25.9,20.6 2.8,2.3 3.7,7.3 4,11 0.3,3.8 -0.1,8.2 -0.2,8.4 -0.1,0.8 -0.6,1.5 -1.3,1.9 -0.4,0.2 -0.8,0.3 -1.2,0.3 -0.4,0 -0.8,-0.1 -1.1,-0.3 l -68.3,-34.3 -24.8,-5.7 -7.7,0 0,32.2 c 0,13.5 -2.8,29.1 -3.7,33.9 l 28.6,23.6 c 0.5,0.4 0.8,1 0.9,1.6 0.1,0.5 0.8,5.3 0.8,7.3 0,1.8 0.1,7.2 0.1,7.3 0,0.8 -0.4,1.6 -1,2.1 -0.3,0.3 -0.9,0.5 -1.4,0.5 z"
           id="path4173"
           inkscape:connector-curvature="0"
           style="fill:#000000;fill-opacity:1" /><path
           class="st1"
           d="m 157.2,23 c 4.5,0 9.5,23 9.5,43 0,15.2 0.5,35.3 0.5,35.3 l 38.9,31.3 -0.1,-10.7 -0.7,0 c 0,0 0,-4.7 0,-7.1 0,-2.5 1.4,-2.8 3.5,-2.8 2.1,0 3.9,0.2 3.9,2.6 0,2.3 0,7.4 0,7.4 l -0.6,0 c 0,2.4 0,9.5 0,11.1 0,0.9 -0.1,1.9 -0.2,2.9 4.6,3.6 14,11.1 24,19 l -0.1,-10.2 -0.7,0 c 0,0 0,-4.7 0,-7.1 0,-2.5 1.4,-2.8 3.5,-2.8 2.1,0 3.9,0.2 3.9,2.6 0,2.3 0,7.4 0,7.4 l -0.5,0 c 0,2.4 0,9.5 0,11.1 0,1.1 -0.1,2.5 -0.3,3.6 13.4,10.6 26,20.6 26.9,21.4 2,1.7 2.9,5.7 3.2,9.3 0.3,3.6 -0.2,8 -0.2,8 L 203,163.9 177.6,158 l -10.5,0 c 0,0 0,18.9 0,34.7 0,15.8 -3.9,34.9 -3.9,34.9 L 193,252 c 0,0 0.8,5.1 0.8,6.9 0,1.8 0.2,7.4 0.2,7.4 l -36,-12.8 -1.1,2.6 0,0 0,0 -1.1,-2.6 -35.9,12.8 c 0,0 0.2,-5.6 0.2,-7.4 0,-1.8 0.8,-6.9 0.8,-6.9 l 29.8,-24.5 c 0,0 -3.9,-19.1 -3.9,-34.9 0,-15.8 0,-34.7 0,-34.7 l -10.5,0 -25.4,5.9 -68.6,34.4 c 0,0 -0.5,-4.4 -0.2,-8 0.3,-3.6 1.2,-7.7 3.2,-9.3 0.9,-0.8 13.5,-10.8 26.9,-21.4 -0.1,-1.1 -0.3,-2.5 -0.3,-3.6 0,-1.7 0,-8.7 0,-11.1 l -0.6,0 c 0,0 0,-5 0,-7.4 0,-2.3 1.8,-2.6 3.9,-2.6 2.1,0 3.5,0.3 3.5,2.8 0,2.5 0,7.1 0,7.1 l -0.7,0 -0.1,10.2 c 9.9,-7.9 19.4,-15.3 24,-19 -0.1,-0.9 -0.2,-2 -0.2,-2.9 0,-1.7 0,-8.7 0,-11.1 l -0.6,0 c 0,0 0,-5 0,-7.4 0,-2.3 1.8,-2.6 3.9,-2.6 2.1,0 3.5,0.3 3.5,2.8 0,2.5 0,7.1 0,7.1 l -0.7,0 -0.1,10.7 38.9,-31.3 c 0,0 0.5,-20.2 0.5,-35.3 0,-20 5,-43 9.5,-43 l 0.6,0 m 0,-4.9 -0.5,0 c -5.2,0 -8.6,5.4 -11.3,17.9 -2,9.1 -3.2,20.3 -3.2,30.1 0,12 -0.3,27.2 -0.4,32.9 l -28.2,22.7 0,-6.8 c 0,-1.8 -0.6,-7.8 -8.5,-7.8 -1.6,0 -3.3,0.1 -4.9,0.9 -2.5,1.2 -4,3.7 -4,6.6 l 0,7.4 c 0,0.9 0.2,1.7 0.6,2.4 l 0,8.7 c 0,0.2 0,0.4 0,0.6 -3.3,2.6 -7.9,6.2 -13.1,10.3 l 0,-6.4 c 0,-1.8 -0.6,-7.8 -8.5,-7.8 -1.6,0 -3.3,0.1 -4.9,0.9 -2.5,1.2 -4,3.7 -4,6.6 l 0,7.4 c 0,0.9 0.2,1.7 0.6,2.4 l 0,8.7 c 0,0.4 0,0.9 0,1.4 -23.8,18.8 -24.7,19.6 -24.9,19.8 -2.7,2.3 -4.4,6.6 -4.9,12.7 -0.3,4 0.1,8.7 0.2,8.9 0.2,1.6 1.1,3.1 2.6,3.9 0.7,0.4 1.6,0.6 2.4,0.6 0.8,0 1.5,-0.2 2.2,-0.5 l 68,-34.2 24.3,-5.6 5,0 0,29.7 c 0,12.5 2.3,26.8 3.4,32.9 l -27.5,22.6 c -1,0.8 -1.6,1.9 -1.8,3.1 -0.1,0.9 -0.8,5.6 -0.8,7.6 0,1.7 -0.1,7.2 -0.1,7.2 0,1.6 0.7,3.2 2.1,4.2 0.9,0.6 1.9,1 2.9,1 0.6,0 1.1,-0.1 1.7,-0.3 l 31.9,-11.3 c 0.9,0.9 2.1,1.4 3.5,1.4 1.3,0 2.6,-0.5 3.5,-1.4 l 31.9,11.3 c 0.5,0.2 1.1,0.3 1.7,0.3 1,0 2.1,-0.3 2.9,-1 1.3,-1 2.1,-2.5 2.1,-4.2 0,-0.1 -0.1,-5.5 -0.1,-7.2 0,-2.1 -0.7,-6.7 -0.8,-7.6 -0.2,-1.2 -0.8,-2.3 -1.8,-3.1 L 169,225.3 c 1.1,-6.1 3.4,-20.4 3.4,-32.9 l 0,-29.7 5,0 24.3,5.6 68,34.2 c 0.7,0.4 1.5,0.5 2.2,0.5 0.8,0 1.7,-0.2 2.4,-0.6 1.4,-0.8 2.4,-2.2 2.6,-3.9 0,-0.2 0.5,-4.9 0.2,-8.9 -0.5,-6.1 -2.2,-10.4 -4.9,-12.7 -0.3,-0.2 -1.2,-1 -24.9,-19.8 0,-0.5 0,-1 0,-1.4 l 0,-8.7 c 0.4,-0.7 0.6,-1.6 0.6,-2.4 l 0,-7.4 c 0,-1.8 -0.6,-7.6 -8.9,-7.6 -1.6,0 -3.5,0.1 -5.2,1.2 -1.2,0.8 -3.3,2.7 -3.3,6.6 l 0,6.4 c -5.2,-4.1 -9.8,-7.8 -13.1,-10.3 0,-0.2 0,-0.4 0,-0.6 l 0,-8.7 c 0.4,-0.7 0.6,-1.6 0.6,-2.4 l 0,-7.4 c 0,-1.8 -0.6,-7.6 -8.9,-7.6 -1.6,0 -3.5,0.1 -5.2,1.2 -1.2,0.8 -3.3,2.7 -3.3,6.6 l 0,6.8 -28.2,-22.7 C 172.3,93 172,77.7 172,65.8 172,56 170.8,44.8 168.8,35.7 165.7,23.3 162.3,18 157.2,18 l 0,0 z"
           id="path4175"
           inkscape:connector-curvature="0"
           style="fill:#000000;fill-opacity:1" /></g><polygon
         class="st1"
         points="156.7,33.1 153.9,34.3 153.2,33.4 156.7,31.3 "
         id="polygon4177"
         style="fill:#000000;fill-opacity:1" /><path
         class="st1"
         d="m 152.9,33.6 0.8,0.9 -2.2,5.2 -0.6,-0.2 c 0,-0.1 0.5,-3.8 2,-5.9 z"
         id="path4179"
         inkscape:connector-curvature="0"
         style="fill:#000000;fill-opacity:1" /><polygon
         class="st1"
         points="155,34.6 154.3,34.8 154.7,35.4 "
         id="polygon4181"
         style="fill:#000000;fill-opacity:1" /><polygon
         class="st1"
         points="154.1,35.8 153.7,36.8 153.1,36.8 153.6,35.4 "
         id="polygon4183"
         style="fill:#000000;fill-opacity:1" /><path
         class="st2"
         d="m 75.1,134.8 c -1.9,0 -3.5,0.2 -3.8,1.8 l 7.3,0 c -0.4,-1.6 -1.7,-1.8 -3.5,-1.8 z"
         id="path4185"
         inkscape:connector-curvature="0"
         style="fill:#000000;fill-opacity:1" /><path
         class="st2"
         d="m 105,112 c -1.9,0 -3.5,0.2 -3.8,1.8 l 7.3,0 c -0.4,-1.6 -1.7,-1.8 -3.5,-1.8 z"
         id="path4187"
         inkscape:connector-curvature="0"
         style="fill:#000000;fill-opacity:1" /><polygon
         class="st1"
         points="157.2,33.1 159.9,34.3 160.7,33.4 157.2,31.3 "
         id="polygon4189"
         style="fill:#000000;fill-opacity:1" /><path
         class="st1"
         d="m 160.9,33.6 -0.8,0.9 2.2,5.2 0.6,-0.2 c 0.1,-0.1 -0.5,-3.8 -2,-5.9 z"
         id="path4191"
         inkscape:connector-curvature="0"
         style="fill:#000000;fill-opacity:1" /><polygon
         class="st1"
         points="158.8,34.6 159.5,34.8 159.2,35.4 "
         id="polygon4193"
         style="fill:#000000;fill-opacity:1" /><polygon
         class="st1"
         points="159.7,35.8 160.1,36.8 160.7,36.8 160.2,35.4 "
         id="polygon4195"
         style="fill:#000000;fill-opacity:1" /><path
         class="st2"
         d="m 238.7,134.8 c 1.9,0 3.5,0.2 3.8,1.8 l -7.3,0 c 0.4,-1.6 1.7,-1.8 3.5,-1.8 z"
         id="path4197"
         inkscape:connector-curvature="0"
         style="fill:#000000;fill-opacity:1" /><path
         class="st2"
         d="m 208.9,112 c 1.9,0 3.5,0.2 3.8,1.8 l -7.3,0 c 0.4,-1.6 1.7,-1.8 3.5,-1.8 z"
         id="path4199"
         inkscape:connector-curvature="0"
         style="fill:#000000;fill-opacity:1" /></g><g
       transform="translate(17.90689,-249.5)"
       id="g5"><g
         id="g7"><path
           style="fill:#f2f2f2"
           inkscape:connector-curvature="0"
           id="path9"
           d="m 193.9,268.8 c -0.3,0 -0.6,0 -0.8,-0.1 l -33.7,-12 -0.1,0.4 c -0.4,0.9 -1.3,1.6 -2.3,1.6 -1,0 -1.9,-0.6 -2.3,-1.6 l -0.1,-0.4 -33.7,12 c -0.3,0.1 -0.6,0.1 -0.8,0.1 -0.5,0 -1,-0.2 -1.5,-0.5 -0.7,-0.5 -1.1,-1.3 -1,-2.1 0,-0.1 0.1,-5.6 0.1,-7.3 0,-1.9 0.7,-6.7 0.8,-7.3 0.1,-0.6 0.4,-1.2 0.9,-1.6 L 148,226.4 c -0.9,-4.8 -3.7,-20.4 -3.7,-33.9 l 0,-32.2 -7.7,0 -24.8,5.7 -68.3,34.3 c -0.4,0.2 -0.7,0.3 -1.1,0.3 -0.4,0 -0.8,-0.1 -1.2,-0.3 -0.7,-0.4 -1.2,-1.1 -1.3,-1.9 0,-0.2 -0.5,-4.6 -0.2,-8.4 0.3,-3.7 1.3,-8.7 4,-11 0.8,-0.6 9.2,-7.4 25.9,-20.6 -0.1,-1 -0.1,-1.8 -0.1,-2.5 l 0,-9.5 c -0.4,-0.4 -0.6,-1 -0.6,-1.7 l 0,-7.4 c 0,-3.4 2.2,-5.1 6.4,-5.1 4,0 6,1.8 6,5.3 l 0,7.1 c 0,0.7 -0.3,1.3 -0.7,1.7 l 0,3.3 c 7.7,-6.1 14.7,-11.6 18.8,-14.9 0,-0.7 -0.1,-1.2 -0.1,-1.7 l 0,-9.5 c -0.4,-0.4 -0.6,-1 -0.6,-1.7 l 0,-7.4 c 0,-3.4 2.2,-5.1 6.4,-5.1 4,0 6,1.8 6,5.3 l 0,7.1 c 0,0.7 -0.3,1.3 -0.7,1.7 l 0,3.8 33.9,-27.3 c 0.1,-4.5 0.4,-21.2 0.4,-34.1 0,-9.6 1.2,-20.6 3.1,-29.6 3.2,-14.3 6.6,-16 8.9,-16 l 0.5,0 c 2.3,0 5.7,1.7 8.9,16 2,8.9 3.1,20 3.1,29.6 0,12.9 0.3,29.6 0.4,34.1 l 33.9,27.3 0,-3.8 c -0.4,-0.4 -0.7,-1 -0.7,-1.7 l 0,-7.1 c 0,-3.5 2,-5.3 6,-5.3 4.3,0 6.4,1.7 6.4,5.1 l 0,7.4 c 0,0.6 -0.2,1.2 -0.6,1.7 l 0,9.5 c 0,0.5 0,1.1 -0.1,1.7 4.1,3.3 11.1,8.8 18.8,14.9 l 0,-3.3 c -0.4,-0.4 -0.7,-1 -0.7,-1.7 l 0,-7.1 c 0,-3.5 2,-5.3 6,-5.3 4.3,0 6.4,1.7 6.4,5.1 l 0,7.4 c 0,0.6 -0.2,1.2 -0.6,1.7 l 0,9.5 c 0,0.7 0,1.5 -0.1,2.5 16.4,13 25.2,20 25.9,20.6 2.8,2.3 3.7,7.3 4,11 0.3,3.8 -0.1,8.2 -0.2,8.4 -0.1,0.8 -0.6,1.5 -1.3,1.9 -0.4,0.2 -0.8,0.3 -1.2,0.3 -0.4,0 -0.8,-0.1 -1.1,-0.3 l -68.3,-34.3 -24.8,-5.7 -7.7,0 0,32.2 c 0,13.5 -2.8,29.1 -3.7,33.9 l 28.6,23.6 c 0.5,0.4 0.8,1 0.9,1.6 0.1,0.5 0.8,5.3 0.8,7.3 0,1.8 0.1,7.2 0.1,7.3 0,0.8 -0.4,1.6 -1,2.1 -0.3,0.3 -0.9,0.5 -1.4,0.5 z"
           class="st0" /><path
           style="fill:#596b6a"
           inkscape:connector-curvature="0"
           id="path11"
           d="m 157.2,23 c 4.5,0 9.5,23 9.5,43 0,15.2 0.5,35.3 0.5,35.3 l 38.9,31.3 -0.1,-10.7 -0.7,0 c 0,0 0,-4.7 0,-7.1 0,-2.5 1.4,-2.8 3.5,-2.8 2.1,0 3.9,0.2 3.9,2.6 0,2.3 0,7.4 0,7.4 l -0.6,0 c 0,2.4 0,9.5 0,11.1 0,0.9 -0.1,1.9 -0.2,2.9 4.6,3.6 14,11.1 24,19 l -0.1,-10.2 -0.7,0 c 0,0 0,-4.7 0,-7.1 0,-2.5 1.4,-2.8 3.5,-2.8 2.1,0 3.9,0.2 3.9,2.6 0,2.3 0,7.4 0,7.4 l -0.5,0 c 0,2.4 0,9.5 0,11.1 0,1.1 -0.1,2.5 -0.3,3.6 13.4,10.6 26,20.6 26.9,21.4 2,1.7 2.9,5.7 3.2,9.3 0.3,3.6 -0.2,8 -0.2,8 L 203,163.9 177.6,158 l -10.5,0 c 0,0 0,18.9 0,34.7 0,15.8 -3.9,34.9 -3.9,34.9 L 193,252 c 0,0 0.8,5.1 0.8,6.9 0,1.8 0.2,7.4 0.2,7.4 l -36,-12.8 -1.1,2.6 0,0 0,0 -1.1,-2.6 -35.9,12.8 c 0,0 0.2,-5.6 0.2,-7.4 0,-1.8 0.8,-6.9 0.8,-6.9 l 29.8,-24.5 c 0,0 -3.9,-19.1 -3.9,-34.9 0,-15.8 0,-34.7 0,-34.7 l -10.5,0 -25.4,5.9 -68.6,34.4 c 0,0 -0.5,-4.4 -0.2,-8 0.3,-3.6 1.2,-7.7 3.2,-9.3 0.9,-0.8 13.5,-10.8 26.9,-21.4 -0.1,-1.1 -0.3,-2.5 -0.3,-3.6 0,-1.7 0,-8.7 0,-11.1 l -0.6,0 c 0,0 0,-5 0,-7.4 0,-2.3 1.8,-2.6 3.9,-2.6 2.1,0 3.5,0.3 3.5,2.8 0,2.5 0,7.1 0,7.1 l -0.7,0 -0.1,10.2 c 9.9,-7.9 19.4,-15.3 24,-19 -0.1,-0.9 -0.2,-2 -0.2,-2.9 0,-1.7 0,-8.7 0,-11.1 l -0.6,0 c 0,0 0,-5 0,-7.4 0,-2.3 1.8,-2.6 3.9,-2.6 2.1,0 3.5,0.3 3.5,2.8 0,2.5 0,7.1 0,7.1 l -0.7,0 -0.1,10.7 38.9,-31.3 c 0,0 0.5,-20.2 0.5,-35.3 0,-20 5,-43 9.5,-43 l 0.6,0 m 0,-4.9 -0.5,0 c -5.2,0 -8.6,5.4 -11.3,17.9 -2,9.1 -3.2,20.3 -3.2,30.1 0,12 -0.3,27.2 -0.4,32.9 l -28.2,22.7 0,-6.8 c 0,-1.8 -0.6,-7.8 -8.5,-7.8 -1.6,0 -3.3,0.1 -4.9,0.9 -2.5,1.2 -4,3.7 -4,6.6 l 0,7.4 c 0,0.9 0.2,1.7 0.6,2.4 l 0,8.7 c 0,0.2 0,0.4 0,0.6 -3.3,2.6 -7.9,6.2 -13.1,10.3 l 0,-6.4 c 0,-1.8 -0.6,-7.8 -8.5,-7.8 -1.6,0 -3.3,0.1 -4.9,0.9 -2.5,1.2 -4,3.7 -4,6.6 l 0,7.4 c 0,0.9 0.2,1.7 0.6,2.4 l 0,8.7 c 0,0.4 0,0.9 0,1.4 -23.8,18.8 -24.7,19.6 -24.9,19.8 -2.7,2.3 -4.4,6.6 -4.9,12.7 -0.3,4 0.1,8.7 0.2,8.9 0.2,1.6 1.1,3.1 2.6,3.9 0.7,0.4 1.6,0.6 2.4,0.6 0.8,0 1.5,-0.2 2.2,-0.5 l 68,-34.2 24.3,-5.6 5,0 0,29.7 c 0,12.5 2.3,26.8 3.4,32.9 l -27.5,22.6 c -1,0.8 -1.6,1.9 -1.8,3.1 -0.1,0.9 -0.8,5.6 -0.8,7.6 0,1.7 -0.1,7.2 -0.1,7.2 0,1.6 0.7,3.2 2.1,4.2 0.9,0.6 1.9,1 2.9,1 0.6,0 1.1,-0.1 1.7,-0.3 l 31.9,-11.3 c 0.9,0.9 2.1,1.4 3.5,1.4 1.3,0 2.6,-0.5 3.5,-1.4 l 31.9,11.3 c 0.5,0.2 1.1,0.3 1.7,0.3 1,0 2.1,-0.3 2.9,-1 1.3,-1 2.1,-2.5 2.1,-4.2 0,-0.1 -0.1,-5.5 -0.1,-7.2 0,-2.1 -0.7,-6.7 -0.8,-7.6 -0.2,-1.2 -0.8,-2.3 -1.8,-3.1 L 169,225.3 c 1.1,-6.1 3.4,-20.4 3.4,-32.9 l 0,-29.7 5,0 24.3,5.6 68,34.2 c 0.7,0.4 1.5,0.5 2.2,0.5 0.8,0 1.7,-0.2 2.4,-0.6 1.4,-0.8 2.4,-2.2 2.6,-3.9 0,-0.2 0.5,-4.9 0.2,-8.9 -0.5,-6.1 -2.2,-10.4 -4.9,-12.7 -0.3,-0.2 -1.2,-1 -24.9,-19.8 0,-0.5 0,-1 0,-1.4 l 0,-8.7 c 0.4,-0.7 0.6,-1.6 0.6,-2.4 l 0,-7.4 c 0,-1.8 -0.6,-7.6 -8.9,-7.6 -1.6,0 -3.5,0.1 -5.2,1.2 -1.2,0.8 -3.3,2.7 -3.3,6.6 l 0,6.4 c -5.2,-4.1 -9.8,-7.8 -13.1,-10.3 0,-0.2 0,-0.4 0,-0.6 l 0,-8.7 c 0.4,-0.7 0.6,-1.6 0.6,-2.4 l 0,-7.4 c 0,-1.8 -0.6,-7.6 -8.9,-7.6 -1.6,0 -3.5,0.1 -5.2,1.2 -1.2,0.8 -3.3,2.7 -3.3,6.6 l 0,6.8 -28.2,-22.7 C 172.3,93 172,77.7 172,65.8 172,56 170.8,44.8 168.8,35.7 165.7,23.3 162.3,18 157.2,18 l 0,0 z"
           class="st1" /></g><polygon
         style="fill:#596b6a"
         id="polygon13"
         points="156.7,33.1 153.9,34.3 153.2,33.4 156.7,31.3 "
         class="st1" /><path
         style="fill:#596b6a"
         inkscape:connector-curvature="0"
         id="path15"
         d="m 152.9,33.6 0.8,0.9 -2.2,5.2 -0.6,-0.2 c 0,-0.1 0.5,-3.8 2,-5.9 z"
         class="st1" /><polygon
         style="fill:#596b6a"
         id="polygon17"
         points="155,34.6 154.3,34.8 154.7,35.4 "
         class="st1" /><polygon
         style="fill:#596b6a"
         id="polygon19"
         points="154.1,35.8 153.7,36.8 153.1,36.8 153.6,35.4 "
         class="st1" /><path
         style="fill:#a8c1c0"
         inkscape:connector-curvature="0"
         id="path21"
         d="m 75.1,134.8 c -1.9,0 -3.5,0.2 -3.8,1.8 l 7.3,0 c -0.4,-1.6 -1.7,-1.8 -3.5,-1.8 z"
         class="st2" /><path
         style="fill:#a8c1c0"
         inkscape:connector-curvature="0"
         id="path23"
         d="m 105,112 c -1.9,0 -3.5,0.2 -3.8,1.8 l 7.3,0 c -0.4,-1.6 -1.7,-1.8 -3.5,-1.8 z"
         class="st2" /><polygon
         style="fill:#596b6a"
         id="polygon25"
         points="157.2,33.1 159.9,34.3 160.7,33.4 157.2,31.3 "
         class="st1" /><path
         style="fill:#596b6a"
         inkscape:connector-curvature="0"
         id="path27"
         d="m 160.9,33.6 -0.8,0.9 2.2,5.2 0.6,-0.2 c 0.1,-0.1 -0.5,-3.8 -2,-5.9 z"
         class="st1" /><polygon
         style="fill:#596b6a"
         id="polygon29"
         points="158.8,34.6 159.5,34.8 159.2,35.4 "
         class="st1" /><polygon
         style="fill:#596b6a"
         id="polygon31"
         points="159.7,35.8 160.1,36.8 160.7,36.8 160.2,35.4 "
         class="st1" /><path
         style="fill:#a8c1c0"
         inkscape:connector-curvature="0"
         id="path33"
         d="m 238.7,134.8 c 1.9,0 3.5,0.2 3.8,1.8 l -7.3,0 c 0.4,-1.6 1.7,-1.8 3.5,-1.8 z"
         class="st2" /><path
         style="fill:#a8c1c0"
         inkscape:connector-curvature="0"
         id="path35"
         d="m 208.9,112 c 1.9,0 3.5,0.2 3.8,1.8 l -7.3,0 c 0.4,-1.6 1.7,-1.8 3.5,-1.8 z"
         class="st2" /></g></g></svg>