<?xml version="1.0" encoding="UTF-8" standalone="no"?>
<!-- Generator: Adobe Illustrator 21.1.0, SVG Export Plug-In . SVG Version: 6.00 Build 0)  -->

<svg
   xmlns:dc="http://purl.org/dc/elements/1.1/"
   xmlns:cc="http://creativecommons.org/ns#"
   xmlns:rdf="http://www.w3.org/1999/02/22-rdf-syntax-ns#"
   xmlns:svg="http://www.w3.org/2000/svg"
   xmlns="http://www.w3.org/2000/svg"
   xmlns:sodipodi="http://sodipodi.sourceforge.net/DTD/sodipodi-0.dtd"
   xmlns:inkscape="http://www.inkscape.org/namespaces/inkscape"
   version="1.1"
   id="Layer_1"
   x="0px"
   y="0px"
   viewBox="0 0 70 70"
   xml:space="preserve"
   inkscape:version="0.91pre4 r13712"
   sodipodi:docname="saraf.svg"
   width="70"
   height="70"><metadata
     id="metadata97"><rdf:RDF><cc:Work
         rdf:about=""><dc:format>image/svg+xml</dc:format><dc:type
           rdf:resource="http://purl.org/dc/dcmitype/StillImage" /><dc:title></dc:title></cc:Work></rdf:RDF></metadata><defs
     id="defs95" /><sodipodi:namedview
     pagecolor="#ffffff"
     bordercolor="#666666"
     borderopacity="1"
     objecttolerance="10"
     gridtolerance="10"
     guidetolerance="10"
     inkscape:pageopacity="0"
     inkscape:pageshadow="2"
     inkscape:window-width="1280"
     inkscape:window-height="961"
     id="namedview93"
     showgrid="false"
     inkscape:zoom="0.70238095"
     inkscape:cx="141"
     inkscape:cy="168"
     inkscape:window-x="-8"
     inkscape:window-y="-8"
     inkscape:window-maximized="1"
     inkscape:current-layer="Layer_1" /><style
     type="text/css"
     id="style3">
	.st0{fill:#EDE2B2;}
	.st1{fill:#596B6A;}
	.st2{fill:#DBCF9E;}
	.st3{fill:#596B6A;stroke:#596B6A;stroke-width:2;stroke-miterlimit:10;}
	.st4{fill:none;stroke:#EDE2B2;stroke-width:2;stroke-miterlimit:10;}
  #g53 {
		transform-box: fill-box;
		animation: 0.7s rot infinite linear;
		transform-origin: center;
	}
	@keyframes rot {
		from { transform: rotate(360deg) }
	}
</style><g
     id="g4225"
     transform="matrix(0.2,0,0,0.2,6.6200012,54.339999)"><g
       transform="translate(0,-266)"
       id="g5"><g
         id="g7"><path
           style="fill:#ede2b2"
           inkscape:connector-curvature="0"
           id="path9"
           d="m 140.9,296 c -0.7,0 -1.3,-0.3 -1.8,-0.7 -0.5,-0.5 -0.7,-1.1 -0.7,-1.8 l 0,-1.6 -21.2,-2.7 c -1,-0.1 -1.8,-0.8 -2.1,-1.8 -0.2,-0.6 -1.7,-6.2 -1.7,-9.2 0,-4 2.6,-5.8 2.9,-6 0.4,-0.2 0.8,-0.4 1.2,-0.4 l 18.3,-1.2 -4.5,-84.9 -10.2,-3.5 c -0.8,-0.3 -1.4,-0.9 -1.6,-1.6 0,-0.1 -0.8,-2.7 -0.8,-5.6 0,-1.2 0,-5.9 -0.1,-10.9 0,-3.8 0,-7.8 -0.1,-10.6 L 102.9,152 c -1.3,-0.1 -2.3,-1.2 -2.3,-2.5 l 0.1,-14.7 c 0,-0.2 0,-0.3 0,-0.5 l 0,-6 c 0,-1.9 1.6,-3.5 3.5,-3.5 1.9,0 3.5,1.6 3.5,3.5 l 0,3.7 4.1,-0.2 0,-3.5 c 0,-1.9 1.6,-3.5 3.5,-3.5 1.9,0 3.5,1.6 3.5,3.5 l 0,3.1 4.2,-0.2 0.2,-31.9 c 0,-0.1 0,-0.1 0,-0.2 l 0.9,-10 c 0,-0.5 0.1,-2.3 0.5,-4.5 1,-5.6 4,-8.8 6.4,-10 0.5,-1.9 1.8,-3.3 2.8,-4.1 l 4.5,-6.8 0,0 c 0,-1.4 1.1,-2.5 2.5,-2.5 l 1.9,0 c 1.4,0 2.5,1.1 2.5,2.5 l 0,0 4.5,6.8 c 1,0.7 2.3,2.1 2.8,4.1 2.5,1.3 5.5,4.4 6.4,10 0.4,2.2 0.4,4 0.5,4.5 l 0.9,10 c 0,0.1 0,0.1 0,0.2 l 0.2,31.9 4.2,0.2 0,-3.1 c 0,-1.9 1.6,-3.5 3.5,-3.5 1.9,0 3.5,1.6 3.5,3.5 l 0,3.5 4.1,0.2 0,-3.7 c 0,-1.9 1.6,-3.5 3.5,-3.5 1.9,0 3.5,1.6 3.5,3.5 l 0,6 c 0,0.2 0,0.3 0,0.5 l 0.1,14.7 c 0,1.3 -1,2.4 -2.3,2.5 l -15.6,1.5 c 0,2.9 0,6.9 -0.1,10.7 0,5 -0.1,9.6 -0.1,10.8 0,2.8 -0.8,5.5 -0.8,5.6 -0.2,0.8 -0.8,1.4 -1.6,1.6 l -10.2,3.5 -4.5,84.9 18.3,1.2 c 0.4,0 0.9,0.2 1.2,0.4 0.3,0.2 2.9,2 2.9,6 0,3 -1.5,8.6 -1.7,9.2 -0.3,1 -1.1,1.7 -2.1,1.8 l -21.2,2.7 0,1.6 c 0,0.7 -0.3,1.3 -0.7,1.8 -0.5,0.5 -1.1,0.7 -1.8,0.7 l -1.7,0 z"
           class="st0" /><path
           style="fill:#596b6a"
           inkscape:connector-curvature="0"
           id="path11"
           d="m 142.8,63.8 0,0.8 5.1,7.8 c 0,0 2.4,1.3 2.4,4.1 0,0 0,0 0,0 1.2,0 5.1,2.3 6.2,8.6 0.4,2.4 0.4,4.2 0.4,4.2 l 0.9,10.1 0.2,34.2 9.2,0.5 0,-5.7 c 0,-0.5 0.4,-1 1,-1 0.5,0 1,0.4 1,1 l 0,5.8 9.1,0.5 0,-6.4 c 0,-0.5 0.4,-1 1,-1 0.5,0 1,0.4 1,1 l 0,6.5 0,0 0.1,14.7 -17.9,1.7 c 0,5.2 -0.1,21.5 -0.1,23.8 0,2.5 -0.7,4.8 -0.7,4.8 l -11.8,4 -4.7,89 20.8,1.3 c 0,0 1.8,1.2 1.8,3.9 0,2.7 -1.6,8.5 -1.6,8.5 l -21.5,2.7 0,-3 -2,0 0,7.1 -2,0 0,-7.1 -2,0 0,3 -21.5,-2.7 c 0,0 -1.6,-5.8 -1.6,-8.5 0,-2.7 1.8,-3.9 1.8,-3.9 l 20.8,-1.3 -4.7,-89 -11.8,-4 c 0,0 -0.7,-2.4 -0.7,-4.8 0,-2.3 -0.1,-18.6 -0.1,-23.8 l -17.9,-1.7 0.1,-14.7 0,0 0,-6.5 c 0,-0.5 0.4,-1 1,-1 0.6,0 1,0.4 1,1 l 0,6.4 9.1,-0.5 0,-5.8 c 0,-0.5 0.4,-1 1,-1 0.5,0 1,0.4 1,1 l 0,5.7 9.2,-0.5 0.2,-34.2 0.9,-10.1 c 0,0 0,-1.9 0.4,-4.2 1.1,-6.3 5,-8.6 6.2,-8.6 0,0 0,0 0,0 0,-2.8 2.4,-4.1 2.4,-4.1 l 5.1,-7.8 0,-0.8 2.2,0 m 0,-5 -1.9,0 c -2.5,0 -4.5,1.8 -4.9,4.2 l -3.9,5.9 c -1.2,0.9 -2.4,2.3 -3.1,4.1 -2.9,1.8 -5.8,5.5 -6.8,11.3 -0.4,2.3 -0.5,4.1 -0.5,4.8 l -0.9,9.9 c 0,0.1 0,0.3 0,0.4 l -0.2,26.1 c -1,-1.8 -3,-3 -5.2,-3 -2.5,0 -4.7,1.5 -5.5,3.7 -0.9,-2.2 -3,-3.7 -5.5,-3.7 -3.3,0 -6,2.7 -6,6 l 0,5.8 c 0,0.2 0,0.4 0,0.7 l -0.1,14.7 c 0,2.6 2,4.8 4.5,5 l 13.3,1.2 c 0,2.5 0,5.5 0,8.3 0,5.1 0.1,9.8 0.1,10.9 0,3.1 0.8,6 0.9,6.3 0.5,1.5 1.6,2.8 3.2,3.3 l 8.6,2.9 4.3,80.7 -15.9,1 c -0.9,0.1 -1.7,0.3 -2.4,0.8 -1.8,1.2 -4,4.1 -4,8.1 0,3.3 1.5,8.8 1.8,9.9 0.5,1.9 2.2,3.4 4.2,3.6 l 19.1,2.4 c 0.1,1.1 0.6,2.1 1.4,2.9 0.9,0.9 2.2,1.5 3.5,1.5 l 2,0 c 1.3,0 2.6,-0.5 3.5,-1.5 0.8,-0.8 1.3,-1.8 1.4,-2.9 l 19.1,-2.4 c 2,-0.2 3.6,-1.7 4.2,-3.6 0.3,-1.1 1.8,-6.6 1.8,-9.9 0,-4 -2.2,-6.8 -4,-8.1 -0.7,-0.5 -1.6,-0.8 -2.4,-0.8 l -15.9,-1 4.3,-80.7 8.6,-2.9 c 1.5,-0.5 2.7,-1.7 3.2,-3.3 0.1,-0.3 0.9,-3.2 0.9,-6.3 0,-1.1 0,-5.9 0.1,-10.9 0,-2.9 0,-5.8 0,-8.3 l 13.3,-1.2 c 2.6,-0.2 4.6,-2.4 4.5,-5 L 185.4,135 c 0,-0.2 0,-0.5 0,-0.7 l 0,-5.8 c 0,-3.3 -2.7,-6 -6,-6 -2.5,0 -4.7,1.5 -5.5,3.7 -0.9,-2.2 -3,-3.7 -5.5,-3.7 -2.2,0 -4.2,1.2 -5.2,3 L 163,99.4 c 0,-0.1 0,-0.3 0,-0.4 l -1,-10 c 0,-0.7 -0.1,-2.5 -0.5,-4.8 -1,-5.8 -3.9,-9.5 -6.8,-11.3 -0.7,-1.8 -1.9,-3.1 -3.1,-4.1 l -3.9,-5.9 c -0.4,-2.3 -2.4,-4.1 -4.9,-4.1 l 0,0 z"
           class="st1" /></g><g
         id="g13"><path
           style="fill:#dbcf9e"
           inkscape:connector-curvature="0"
           id="path15"
           d="M 158.1,133.6 157.9,99.4 157,89.3 c 0,0 0,-1.9 -0.4,-4.2 -0.4,-2.4 -1.3,-4.3 -2.2,-5.6 -4.6,6 -10.1,12.2 -13.2,12.9 -2.3,0.5 -8,0.2 -14.6,-0.2 l -0.7,7.3 -0.2,34.2 -9.2,0.5 0,-5.7 c 0,-0.5 -0.4,-1 -1,-1 -0.5,0 -1,0.4 -1,1 l 0,5.8 -9.1,0.5 0,-6.4 c 0,-0.5 -0.4,-1 -1,-1 -0.5,0 -1,0.4 -1,1 l 0,6.5 0,0 -0.1,14.7 17.9,1.7 c 0,1.4 0,3.5 0,5.9 1,0.1 2,0.2 3,0.2 9.1,0 28.4,-11.6 41.7,-23.3 l -7.8,-0.5 z"
           class="st2" /><path
           style="fill:#dbcf9e"
           inkscape:connector-curvature="0"
           id="path17"
           d="m 168.1,132 c 0.4,-0.4 0.8,-0.8 1.2,-1.2 l 0,-2.4 c 0,-0.5 -0.4,-1 -1,-1 -0.5,0 -1,0.4 -1,1 l 0,4.3 c 0.3,-0.2 0.5,-0.5 0.8,-0.7 z"
           class="st2" /></g><path
         style="fill:#dbcf9e"
         inkscape:connector-curvature="0"
         id="path19"
         d="m 161.8,179.9 c 0,0 0.7,-2.2 0.7,-4.6 -4.3,-0.6 -10.1,-0.9 -14.1,0.4 -5,1.6 -9.6,6.5 -14.6,10.1 l 3,56.9 1.6,0.6 8.6,-3.2 3,-56.3 11.8,-3.9 z"
         class="st2" /><rect
         style="fill:#596b6a"
         id="rect21"
         height="51.799999"
         width="1.8"
         class="st1"
         y="251.60001"
         x="129.10001" /><rect
         style="fill:#596b6a"
         id="rect23"
         height="51.799999"
         width="1.8"
         class="st1"
         y="251.60001"
         x="125.5" /><path
         style="fill:#596b6a"
         inkscape:connector-curvature="0"
         id="path25"
         d="m 149.2,72.2 -14.5,0 c -1,0 -1.7,-0.8 -1.7,-1.7 l 0,-7.5 c 0,-1 0.8,-1.7 1.7,-1.7 l 14.5,0 c 1,0 1.7,0.8 1.7,1.7 l 0,7.4 c 0.1,1 -0.7,1.8 -1.7,1.8 z"
         class="st1" /><path
         style="fill:#596b6a"
         inkscape:connector-curvature="0"
         id="path27"
         d="m 148,72.4 -5.1,-7.8 0,-0.8 -1.9,0 0,0.8 -5.1,7.8 c 0,0 -1.4,0.7 -2,2.3 l 16.1,0 c -0.7,-1.6 -2,-2.3 -2,-2.3 z"
         class="st1" /><path
         style="fill:#596b6a"
         inkscape:connector-curvature="0"
         id="path29"
         d="m 158.8,145 c 0,0 0.7,-1.8 0.7,-3 0,-1.2 -0.7,-2.9 -0.7,-2.9 l -3.9,0 c 0,0 -0.7,1.6 -0.7,2.9 0,1.2 0.7,3 0.7,3 l 3.9,0 z"
         class="st1" /><polygon
         style="fill:#596b6a;stroke:#596b6a;stroke-width:2;stroke-miterlimit:10"
         id="polygon31"
         points="150.6,177.8 150.6,180.7 151.9,183.9 155.1,182.7 155.3,183.3 158.2,182.2 158.5,183 161.5,181.9 160,178.2 160,174.4 "
         class="st3" /><path
         style="fill:#596b6a"
         inkscape:connector-curvature="0"
         id="path33"
         d="m 124.9,145 c 0,0 -0.7,-1.8 -0.7,-3 0,-1.2 0.7,-2.9 0.7,-2.9 l 3.9,0 c 0,0 0.7,1.6 0.7,2.9 0,1.2 -0.7,3 -0.7,3 l -3.9,0 z"
         class="st1" /><polygon
         style="fill:#596b6a;stroke:#596b6a;stroke-width:2;stroke-miterlimit:10"
         id="polygon35"
         points="133.1,177.8 133.1,180.7 131.9,183.9 128.6,182.7 128.4,183.3 125.5,182.2 125.2,183 122.2,181.9 123.7,178.2 123.7,174.4 "
         class="st3" /><polygon
         style="fill:#596b6a"
         id="polygon37"
         points="136.6,86.3 147.3,86.3 148,83.9 142,83.9 135.9,83.9 "
         class="st1" /><polygon
         style="fill:#596b6a"
         id="polygon39"
         points="137.4,105 133.1,105.9 133.8,116.8 136.3,122.1 137.4,122.1 "
         class="st1" /><polygon
         style="fill:#596b6a"
         id="polygon41"
         points="133.1,83.9 133.1,92.1 134.5,104.2 137.3,103.6 135.6,86.7 134.7,83.9 "
         class="st1" /><polygon
         style="fill:#596b6a"
         id="polygon43"
         points="150.8,105.9 146.6,105 146.6,122.1 147.7,122.1 150.1,116.8 "
         class="st1" /><polygon
         style="fill:#596b6a"
         id="polygon45"
         points="149.4,104.2 150.8,92.1 150.8,83.9 149.2,83.9 148.3,86.7 146.7,103.6 "
         class="st1" /><g
         id="g47"><polygon
           style="fill:#596b6a"
           id="polygon49"
           points="138.5,104.9 138.5,116.7 142,116.7 145.4,116.7 145.4,104.9 142.6,104.9 141.3,104.9 "
           class="st1" /><polygon
           style="fill:#596b6a"
           id="polygon51"
           points="141.3,103.5 141.3,103.5 142,103.5 142.6,103.5 142.6,103.5 145.5,103.5 147.1,87.6 136.9,87.6 138.4,103.5 "
           class="st1" /></g><g
         id="g53"><circle
           style="fill:#596b6a"
           r="6"
           id="ellipse55"
           cy="139.39999"
           cx="141.89999"
           class="st1"
           transform="matrix(0.3057,-0.9521,0.9521,0.3057,-34.2445,231.8615)" /><rect
           style="fill:#596b6a"
           id="rect57"
           height="1.8"
           width="39.5"
           class="st1"
           transform="matrix(0.3057,-0.9521,0.9521,0.3057,-34.2445,231.8615)"
           y="138.5"
           x="122.1" /><polygon
           style="fill:#596b6a"
           id="polygon59"
           points="170.4,47.5 176.1,49.3 152.3,123.4 144.1,129.4 "
           class="st1" /><polygon
           style="fill:#596b6a"
           id="polygon61"
           points="176.1,49.3 180.1,43.6 174.4,41.8 170.4,47.5 "
           class="st1" /><polygon
           style="fill:#596b6a"
           id="polygon63"
           points="113.3,231.3 107.6,229.5 131.4,155.4 139.6,149.4 "
           class="st1" /><polygon
           style="fill:#596b6a"
           id="polygon65"
           points="107.6,229.5 103.7,235.2 109.4,237.1 113.3,231.3 "
           class="st1" /><rect
           style="fill:#596b6a"
           id="rect67"
           height="1.8"
           width="39.5"
           class="st1"
           transform="matrix(-0.9521,-0.3057,0.3057,-0.9521,234.3087,315.5142)"
           y="138.5"
           x="122.1" /><polygon
           style="fill:#596b6a"
           id="polygon69"
           points="51.8,105.1 46,101.2 44.2,106.9 49.9,110.9 "
           class="st1" /><polygon
           style="fill:#596b6a"
           id="polygon71"
           points="49.9,110.9 51.8,105.1 125.9,128.9 131.8,137.2 "
           class="st1" /><polygon
           style="fill:#596b6a"
           id="polygon73"
           points="231.9,173.7 237.7,177.6 239.5,171.9 233.8,168 "
           class="st1" /><polygon
           style="fill:#596b6a"
           id="polygon75"
           points="233.8,168 231.9,173.7 157.8,149.9 151.9,141.7 "
           class="st1" /><polygon
           style="fill:#596b6a"
           id="polygon77"
           points="143.2,144.6 137.7,142.9 136.6,152.7 138.4,153.2 "
           class="st1" /><polygon
           style="fill:#596b6a"
           id="polygon79"
           points="140.5,134.2 146,136 147.1,126.2 145.3,125.6 "
           class="st1" /><polygon
           style="fill:#596b6a"
           id="polygon81"
           points="147.1,138 145.3,143.6 155.1,144.6 155.7,142.9 "
           class="st1" /><polygon
           style="fill:#596b6a"
           id="polygon83"
           points="136.6,140.8 138.4,135.2 128.6,134.2 128,135.9 "
           class="st1" /></g><g
         id="g85"><path
           style="fill:#596b6a"
           inkscape:connector-curvature="0"
           id="path87"
           d="m 141.9,155 c -8.7,0 -15.8,-7.1 -15.8,-15.8 0,-8.7 7.1,-15.8 15.8,-15.8 8.7,0 15.8,7.1 15.8,15.8 0,8.8 -7.1,15.8 -15.8,15.8 z"
           class="st1" /><path
           style="fill:#ede2b2"
           inkscape:connector-curvature="0"
           id="path89"
           d="m 141.9,124.5 c 8.2,0 14.8,6.6 14.8,14.8 0,8.2 -6.6,14.8 -14.8,14.8 -8.2,0 -14.8,-6.6 -14.8,-14.8 0,-8.2 6.6,-14.8 14.8,-14.8 m 0,-2 c -9.3,0 -16.8,7.5 -16.8,16.8 0,9.3 7.5,16.8 16.8,16.8 9.3,0 16.8,-7.5 16.8,-16.8 0,-9.3 -7.5,-16.8 -16.8,-16.8 l 0,0 z"
           class="st0" /></g><circle
         style="fill:none;stroke:#ede2b2;stroke-width:2;stroke-miterlimit:10"
         id="circle91"
         r="103.1"
         cy="139.3"
         cx="141.89999"
         class="st4" /></g></g></svg>