<?xml version="1.0" encoding="utf-8"?>
<!-- Generator: Adobe Illustrator 21.1.0, SVG Export Plug-In . SVG Version: 6.00 Build 0)  -->
<svg version="1.1" id="Layer_1" xmlns="http://www.w3.org/2000/svg" xmlns:xlink="http://www.w3.org/1999/xlink" x="0px" y="0px"
	 viewBox="0 0 249 289" style="enable-background:new 0 0 249 289;" xml:space="preserve">
<style type="text/css">
	.st0{fill:#CAE0E0;}
	.st1{fill:#596B6A;}
	.st2{fill:#FFFFFF;}
</style>
<g>
	<g>
		<path class="st0" d="M122.7,255.6c-1.2,0-2.2-0.9-2.5-2c-0.1-0.5-0.8-4.6-1.1-7.7c-0.5-0.5-0.8-1.1-0.8-1.8v-0.9l-34,11.4
			c-0.3,0.1-0.5,0.1-0.8,0.1c-0.9,0-1.8-0.5-2.2-1.3c-0.3-0.6-1.9-3.7-1.9-6.3c0-3.1,1.5-5.8,3.7-6.9c1.1-0.6,19.8-11.3,32.9-18.9
			c-0.1-0.6-0.1-1.3-0.2-2.2h-2.2c-1.6,2.7-5,3.1-5.4,3.1c-0.1,0-0.2,0-0.2,0s-0.2,0-0.2,0c-0.4,0-3.9-0.4-5.5-3.3
			c-1.4-2.6-2.4-15.6-2.4-20.4c0-5.8,0.7-14.2,0.9-15c0.2-0.8,0.6-1.4,1.1-1.9c-19.6-2.9-51-7.7-57.9-8.7c-0.9,5.8-3.1,9.2-3.2,9.3
			c-0.5,0.7-1.2,1.1-2.1,1.1c0,0,0,0,0,0c-0.8,0-1.6-0.4-2.1-1.1c-0.1-0.2-3.6-5.3-3.6-13.9v-19.7c0-8.6,3.4-13.7,3.6-13.9
			c0.5-0.7,1.2-1.1,2.1-1.1c0.8,0,1.6,0.4,2.1,1.1c0.1,0.2,3.6,5.3,3.6,13.9v4l66.2-10.8c0-4.5-0.1-9.5-0.1-14.5
			c-0.1-13.8-0.3-28.1-0.3-37.2c0-12.3,1.9-20.7,3.1-26.2c0.6-2.7,1.1-4.9,1.1-6.4c0-2.5-0.3-4.6-0.6-6.6c-0.3-1.9-0.6-3.7-0.6-5.7
			c0-5.4,3.3-11.1,9.5-11.1s9.5,5.7,9.5,11.1c0,2-0.3,3.8-0.6,5.7c-0.3,2-0.6,4.1-0.6,6.6c0,1.5,0.5,3.7,1.1,6.4
			c1.2,5.5,3.1,13.9,3.1,26.2c0,9-0.1,23.3-0.3,37.1c0,5.1-0.1,10.1-0.1,14.6l66.2,10.8v-4c0-8.6,3.4-13.7,3.6-13.9
			c0.5-0.7,1.2-1.1,2.1-1.1s1.6,0.4,2.1,1.1c0.1,0.2,3.6,5.3,3.6,13.9v19.7c0,8.6-3.4,13.7-3.6,13.9c-0.5,0.7-1.2,1.1-2.1,1.1
			c0,0,0,0,0,0c-0.8,0-1.6-0.4-2.1-1.1c-0.1-0.2-2.4-3.5-3.2-9.3c-6.7,1-38.4,5.7-57.9,8.7c0.6,0.5,1,1.1,1.1,1.9
			c0.2,0.8,0.9,9.3,0.9,15c0,4.7-1,17.8-2.4,20.4c-1.5,2.9-5.1,3.3-5.5,3.3c-0.1,0-0.2,0-0.2,0s-0.2,0-0.2,0c-0.4,0-3.8-0.4-5.4-3.1
			h-2.2c-0.1,0.9-0.2,1.6-0.2,2.2c13.1,7.6,31.8,18.3,32.9,18.9c2.2,1.1,3.7,3.8,3.7,6.9c0,2.6-1.6,5.7-1.9,6.3
			c-0.4,0.8-1.3,1.3-2.2,1.3c-0.3,0-0.5,0-0.8-0.1l-34-11.4v0.9c0,0.7-0.3,1.4-0.8,1.8c-0.3,3.1-1,7.2-1.1,7.7
			C124.9,254.8,123.9,255.6,122.7,255.6z"/>
		<path class="st1" d="M122.7,36.6c4.7,0,7,4.7,7,8.6c0,4-1.2,7.2-1.2,12.3s4.2,14.2,4.2,32.6c0,12.9-0.3,37.1-0.4,53.8l71.2,11.6
			v-6.9c0-7.9,3.1-12.5,3.1-12.5s3.1,4.5,3.1,12.5v19.7c0,7.9-3.1,12.5-3.1,12.5s-2.6-3.7-3.1-10.3c-0.3-0.2-0.6-0.3-1-0.3
			c-0.1,0-0.2,0-0.3,0c-1.7,0.2-61.4,9.2-71.6,10.7c-0.1,1.4-0.3,2.9-0.4,4.3c0.7,0,1.4,0,2.1,0c0.1-0.7,0.1-1.2,0.1-1.3
			c0.1-0.6,1-1.4,4.8-1.4c3.7,0,4.7,0.8,4.8,1.4c0.1,0.6,0.8,8.8,0.8,14.5c0,5.7-1.2,17.5-2.1,19.2c-0.9,1.7-3.5,2-3.5,2
			s-2.6-0.2-3.5-2c-0.1-0.2-0.2-0.6-0.4-1.2h-6.2c-0.4,3.8-0.6,6.1-0.6,6.1s33.1,19.1,34.5,19.8c1.4,0.7,2.3,2.6,2.3,4.7
			s-1.6,5.1-1.6,5.1l-35.4-11.9h-1.9v3.7c0,0,0,0-0.7,0c0,2.8-1.2,9.1-1.2,9.1s-1.2-6.3-1.2-9.1c-0.7,0-0.7,0-0.7,0v-3.7H119
			l-35.4,11.9c0,0-1.6-3-1.6-5.1s0.9-4,2.3-4.7c1.4-0.7,34.5-19.8,34.5-19.8s-0.2-2.3-0.6-6.1h-6.2c-0.1,0.5-0.3,0.9-0.4,1.2
			c-0.9,1.7-3.5,2-3.5,2s-2.6-0.2-3.5-2c-0.9-1.7-2.1-13.5-2.1-19.2c0-5.7,0.7-14,0.8-14.5c0.1-0.6,1-1.4,4.8-1.4s4.7,0.8,4.8,1.4
			c0,0.1,0.1,0.6,0.1,1.3c0.7,0,1.5,0,2.1,0c-0.1-1.5-0.3-2.9-0.4-4.3c-10.2-1.5-69.9-10.5-71.6-10.7c-0.1,0-0.2,0-0.3,0
			c-0.4,0-0.7,0.1-1,0.3c-0.5,6.6-3.1,10.3-3.1,10.3s-3.1-4.5-3.1-12.5v-19.7c0-7.9,3.1-12.5,3.1-12.5s3.1,4.5,3.1,12.5v6.9
			l71.2-11.6c-0.1-16.7-0.4-40.9-0.4-53.8c0-18.4,4.2-27.5,4.2-32.6s-1.2-8.4-1.2-12.3C115.7,41.3,118,36.6,122.7,36.6 M122.7,31.6
			c-3.8,0-7.1,1.8-9.3,5c-1.7,2.4-2.7,5.6-2.7,8.7c0,2.2,0.3,4.2,0.6,6.1c0.3,2,0.6,3.9,0.6,6.2c0,1.2-0.5,3.4-1,5.9
			c-1.3,5.6-3.2,14.1-3.2,26.7c0,9,0.1,23.4,0.3,37.2c0,4.3,0.1,8.5,0.1,12.4l-61.1,10v-1c0-9.2-3.6-14.7-4-15.3
			c-0.9-1.4-2.5-2.2-4.1-2.2c-1.6,0-3.2,0.8-4.1,2.2c-0.4,0.6-4,6.1-4,15.3v19.7c0,9.2,3.6,14.7,4,15.3c0.9,1.4,2.5,2.2,4.1,2.2
			c0,0,0,0,0,0c1.6,0,3.2-0.8,4.1-2.2c0.3-0.4,2.1-3.2,3.2-7.9c8.8,1.3,32.1,4.8,52.2,7.8c-0.3,2.3-0.8,10-0.8,15
			c0,2.8,0.7,17.9,2.7,21.6c1.4,2.6,3.9,3.8,5.6,4.3C94.6,230.8,83.1,237.4,82,238c-3.1,1.5-5.1,5.1-5.1,9.1c0,3.1,1.7,6.5,2.2,7.5
			c0.9,1.7,2.6,2.6,4.4,2.6c0.5,0,1.1-0.1,1.6-0.3l31.3-10.5c0.1,0.1,0.2,0.3,0.3,0.4c0.3,3.1,1,6.6,1.1,7.2
			c0.4,2.4,2.5,4.1,4.9,4.1s4.5-1.7,4.9-4.1c0.1-0.5,0.7-4.1,1.1-7.2c0.1-0.1,0.2-0.3,0.3-0.4l31.3,10.5c0.5,0.2,1.1,0.3,1.6,0.3
			c1.8,0,3.5-1,4.4-2.6c0.5-1,2.2-4.4,2.2-7.5c0-4-2-7.6-5.1-9.1c-1-0.5-12.5-7.2-23.7-13.6c1.7-0.5,4.2-1.6,5.6-4.3
			c2-3.7,2.7-18.8,2.7-21.6c0-5-0.5-12.7-0.8-15c20.1-3,43.3-6.5,52.2-7.8c1.1,4.8,2.9,7.6,3.2,7.9c0.9,1.4,2.5,2.2,4.1,2.2
			c0,0,0,0,0,0c1.6,0,3.2-0.8,4.1-2.2c0.4-0.6,4-6.1,4-15.3v-19.7c0-9.2-3.6-14.7-4-15.3c-0.9-1.4-2.5-2.2-4.1-2.2
			c-1.6,0-3.2,0.8-4.1,2.2c-0.4,0.6-4,6.1-4,15.3v1l-61.1-10c0-3.9,0.1-8.1,0.1-12.4c0.1-13.9,0.3-28.2,0.3-37.2
			c0-12.6-1.9-21.1-3.2-26.7c-0.6-2.5-1-4.6-1-5.9c0-2.4,0.3-4.2,0.6-6.2c0.3-1.9,0.6-3.9,0.6-6.1c0-3.1-1-6.3-2.7-8.7
			C129.8,33.4,126.5,31.6,122.7,31.6L122.7,31.6z"/>
	</g>
	<path class="st2" d="M112.8,184c-0.1-0.6-1-1.4-4.8-1.4s-4.7,0.8-4.8,1.4H112.8z"/>
	<path class="st1" d="M112.8,108.6h0.6c0.5,0,0.9-0.4,0.9-0.9v-2.4c0-0.5-0.4-0.9-0.9-0.9h-0.6C112.8,105.7,112.8,107.1,112.8,108.6
		z"/>
	<path class="st1" d="M112.9,117.9h0.5c0.5,0,0.9-0.4,0.9-0.9v-2.4c0-0.5-0.4-0.9-0.9-0.9h-0.6C112.8,115,112.8,116.4,112.9,117.9z"
		/>
	<path class="st1" d="M112.9,127.2h0.4c0.5,0,0.9-0.4,0.9-0.9v-2.4c0-0.5-0.4-0.9-0.9-0.9h-0.5C112.9,124.3,112.9,125.8,112.9,127.2
		z"/>
	<path class="st1" d="M113,136.5h0.4c0.5,0,0.9-0.4,0.9-0.9v-2.4c0-0.5-0.4-0.9-0.9-0.9H113C113,133.7,113,135.1,113,136.5z"/>
	<path class="st1" d="M117.7,86.8h-2.5c0,0,0.1-1.8,0.7-3.8h1.8V86.8z"/>
	<g>
		<path class="st1" d="M113.2,79c-0.2,2.4-0.4,5-0.5,7.8c0.8,0,1.5,0,1.5,0s0.1-3,1.5-5.6L113.2,79z"/>
		<path class="st1" d="M113.5,76.7c0,0.2,0,0.4-0.1,0.6l3.1,2.7c1.5-1.8,3.8-3.2,5.4-3.2v-6.2C122,70.6,116.6,70.8,113.5,76.7z"/>
	</g>
	<path class="st2" d="M132.6,184c0.1-0.6,1-1.4,4.8-1.4s4.7,0.8,4.8,1.4H132.6z"/>
	<path class="st1" d="M132.6,108.6H132c-0.5,0-0.9-0.4-0.9-0.9v-2.4c0-0.5,0.4-0.9,0.9-0.9h0.6C132.6,105.7,132.6,107.1,132.6,108.6
		z"/>
	<path class="st1" d="M132.5,117.9H132c-0.5,0-0.9-0.4-0.9-0.9v-2.4c0-0.5,0.4-0.9,0.9-0.9h0.6C132.6,115,132.6,116.4,132.5,117.9z"
		/>
	<path class="st1" d="M132.5,127.2H132c-0.5,0-0.9-0.4-0.9-0.9v-2.4c0-0.5,0.4-0.9,0.9-0.9h0.5C132.5,124.3,132.5,125.8,132.5,127.2
		z"/>
	<path class="st1" d="M132.4,136.5H132c-0.5,0-0.9-0.4-0.9-0.9v-2.4c0-0.5,0.4-0.9,0.9-0.9h0.4C132.4,133.7,132.4,135.1,132.4,136.5
		z"/>
	<path class="st1" d="M122.7,36.6c-4.7,0-7,4.7-7,8.6c0,3.9,1.1,7.1,1.2,12h5.8h5.8c0.1-4.9,1.2-8.1,1.2-12
		C129.7,41.3,127.4,36.6,122.7,36.6z"/>
	<path class="st1" d="M127.7,86.8h2.5c0,0-0.1-1.8-0.7-3.8h-1.8V86.8z"/>
	<g>
		<path class="st1" d="M128.8,80l3.1-2.7c0-0.2,0-0.4-0.1-0.6c-3.1-5.9-8.5-6.1-8.5-6.1v6.2C125.1,76.9,127.4,78.2,128.8,80z"/>
		<path class="st1" d="M129.6,81.2c1.4,2.6,1.5,5.6,1.5,5.6s0.7,0,1.5,0c-0.1-2.8-0.3-5.4-0.5-7.8L129.6,81.2z"/>
	</g>
</g>
</svg>
