<?xml version="1.0" encoding="UTF-8" standalone="no"?>
<!-- Generator: Adobe Illustrator 21.1.0, SVG Export Plug-In . SVG Version: 6.00 Build 0)  -->

<svg
   xmlns:dc="http://purl.org/dc/elements/1.1/"
   xmlns:cc="http://creativecommons.org/ns#"
   xmlns:rdf="http://www.w3.org/1999/02/22-rdf-syntax-ns#"
   xmlns:svg="http://www.w3.org/2000/svg"
   xmlns="http://www.w3.org/2000/svg"
   xmlns:sodipodi="http://sodipodi.sourceforge.net/DTD/sodipodi-0.dtd"
   xmlns:inkscape="http://www.inkscape.org/namespaces/inkscape"
   version="1.1"
   id="Layer_1"
   x="0px"
   y="0px"
   viewBox="0 0 70 70"
   xml:space="preserve"
   inkscape:version="0.91pre4 r13712"
   sodipodi:docname="shachaf.svg"
   width="70"
   height="70"><metadata
     id="metadata55"><rdf:RDF><cc:Work
         rdf:about=""><dc:format>image/svg+xml</dc:format><dc:type
           rdf:resource="http://purl.org/dc/dcmitype/StillImage" /><dc:title></dc:title></cc:Work></rdf:RDF></metadata><defs
     id="defs53" /><sodipodi:namedview
     pagecolor="#ffffff"
     bordercolor="#666666"
     borderopacity="1"
     objecttolerance="10"
     gridtolerance="10"
     guidetolerance="10"
     inkscape:pageopacity="0"
     inkscape:pageshadow="2"
     inkscape:window-width="1280"
     inkscape:window-height="961"
     id="namedview51"
     showgrid="false"
     inkscape:zoom="0.816609"
     inkscape:cx="124.5"
     inkscape:cy="144.5"
     inkscape:window-x="-8"
     inkscape:window-y="-8"
     inkscape:window-maximized="1"
     inkscape:current-layer="Layer_1" /><style
     type="text/css"
     id="style3">
	.st0{fill:#CAE0E0;}
	.st1{fill:#596B6A;}
	.st2{fill:#FFFFFF;}
</style><g
     id="g5"
     transform="matrix(0.2,0,0,0.2,10.44,6.03)"><g
       id="g7"><path
         class="st0"
         d="m 122.7,255.6 c -1.2,0 -2.2,-0.9 -2.5,-2 -0.1,-0.5 -0.8,-4.6 -1.1,-7.7 -0.5,-0.5 -0.8,-1.1 -0.8,-1.8 l 0,-0.9 -34,11.4 c -0.3,0.1 -0.5,0.1 -0.8,0.1 -0.9,0 -1.8,-0.5 -2.2,-1.3 -0.3,-0.6 -1.9,-3.7 -1.9,-6.3 0,-3.1 1.5,-5.8 3.7,-6.9 1.1,-0.6 19.8,-11.3 32.9,-18.9 -0.1,-0.6 -0.1,-1.3 -0.2,-2.2 l -2.2,0 c -1.6,2.7 -5,3.1 -5.4,3.1 -0.1,0 -0.2,0 -0.2,0 0,0 -0.2,0 -0.2,0 -0.4,0 -3.9,-0.4 -5.5,-3.3 -1.4,-2.6 -2.4,-15.6 -2.4,-20.4 0,-5.8 0.7,-14.2 0.9,-15 0.2,-0.8 0.6,-1.4 1.1,-1.9 -19.6,-2.9 -51,-7.7 -57.9,-8.7 -0.9,5.8 -3.1,9.2 -3.2,9.3 -0.5,0.7 -1.2,1.1 -2.1,1.1 0,0 0,0 0,0 -0.8,0 -1.6,-0.4 -2.1,-1.1 C 36.5,182 33,176.9 33,168.3 l 0,-19.7 c 0,-8.6 3.4,-13.7 3.6,-13.9 0.5,-0.7 1.2,-1.1 2.1,-1.1 0.8,0 1.6,0.4 2.1,1.1 0.1,0.2 3.6,5.3 3.6,13.9 l 0,4 66.2,-10.8 c 0,-4.5 -0.1,-9.5 -0.1,-14.5 -0.1,-13.8 -0.3,-28.1 -0.3,-37.2 0,-12.3 1.9,-20.7 3.1,-26.2 0.6,-2.7 1.1,-4.9 1.1,-6.4 0,-2.5 -0.3,-4.6 -0.6,-6.6 -0.3,-1.9 -0.6,-3.7 -0.6,-5.7 0,-5.4 3.3,-11.1 9.5,-11.1 6.2,0 9.5,5.7 9.5,11.1 0,2 -0.3,3.8 -0.6,5.7 -0.3,2 -0.6,4.1 -0.6,6.6 0,1.5 0.5,3.7 1.1,6.4 1.2,5.5 3.1,13.9 3.1,26.2 0,9 -0.1,23.3 -0.3,37.1 0,5.1 -0.1,10.1 -0.1,14.6 l 66.2,10.8 0,-4 c 0,-8.6 3.4,-13.7 3.6,-13.9 0.5,-0.7 1.2,-1.1 2.1,-1.1 0.9,0 1.6,0.4 2.1,1.1 0.1,0.2 3.6,5.3 3.6,13.9 l 0,19.7 c 0,8.6 -3.4,13.7 -3.6,13.9 -0.5,0.7 -1.2,1.1 -2.1,1.1 0,0 0,0 0,0 -0.8,0 -1.6,-0.4 -2.1,-1.1 -0.1,-0.2 -2.4,-3.5 -3.2,-9.3 -6.7,1 -38.4,5.7 -57.9,8.7 0.6,0.5 1,1.1 1.1,1.9 0.2,0.8 0.9,9.3 0.9,15 0,4.7 -1,17.8 -2.4,20.4 -1.5,2.9 -5.1,3.3 -5.5,3.3 -0.1,0 -0.2,0 -0.2,0 0,0 -0.2,0 -0.2,0 -0.4,0 -3.8,-0.4 -5.4,-3.1 l -2.2,0 c -0.1,0.9 -0.2,1.6 -0.2,2.2 13.1,7.6 31.8,18.3 32.9,18.9 2.2,1.1 3.7,3.8 3.7,6.9 0,2.6 -1.6,5.7 -1.9,6.3 -0.4,0.8 -1.3,1.3 -2.2,1.3 -0.3,0 -0.5,0 -0.8,-0.1 l -34,-11.4 0,0.9 c 0,0.7 -0.3,1.4 -0.8,1.8 -0.3,3.1 -1,7.2 -1.1,7.7 -0.3,1.2 -1.3,2 -2.5,2 z"
         id="path9"
         inkscape:connector-curvature="0"
         style="fill:#cae0e0" /><path
         class="st1"
         d="m 122.7,36.6 c 4.7,0 7,4.7 7,8.6 0,4 -1.2,7.2 -1.2,12.3 0,5.1 4.2,14.2 4.2,32.6 0,12.9 -0.3,37.1 -0.4,53.8 l 71.2,11.6 0,-6.9 c 0,-7.9 3.1,-12.5 3.1,-12.5 0,0 3.1,4.5 3.1,12.5 l 0,19.7 c 0,7.9 -3.1,12.5 -3.1,12.5 0,0 -2.6,-3.7 -3.1,-10.3 -0.3,-0.2 -0.6,-0.3 -1,-0.3 -0.1,0 -0.2,0 -0.3,0 -1.7,0.2 -61.4,9.2 -71.6,10.7 -0.1,1.4 -0.3,2.9 -0.4,4.3 0.7,0 1.4,0 2.1,0 0.1,-0.7 0.1,-1.2 0.1,-1.3 0.1,-0.6 1,-1.4 4.8,-1.4 3.7,0 4.7,0.8 4.8,1.4 0.1,0.6 0.8,8.8 0.8,14.5 0,5.7 -1.2,17.5 -2.1,19.2 -0.9,1.7 -3.5,2 -3.5,2 0,0 -2.6,-0.2 -3.5,-2 -0.1,-0.2 -0.2,-0.6 -0.4,-1.2 l -6.2,0 c -0.4,3.8 -0.6,6.1 -0.6,6.1 0,0 33.1,19.1 34.5,19.8 1.4,0.7 2.3,2.6 2.3,4.7 0,2.1 -1.6,5.1 -1.6,5.1 l -35.4,-11.9 -1.9,0 0,3.7 c 0,0 0,0 -0.7,0 0,2.8 -1.2,9.1 -1.2,9.1 0,0 -1.2,-6.3 -1.2,-9.1 -0.7,0 -0.7,0 -0.7,0 l 0,-3.7 -1.6,0 -35.4,11.9 c 0,0 -1.6,-3 -1.6,-5.1 0,-2.1 0.9,-4 2.3,-4.7 1.4,-0.7 34.5,-19.8 34.5,-19.8 0,0 -0.2,-2.3 -0.6,-6.1 l -6.2,0 c -0.1,0.5 -0.3,0.9 -0.4,1.2 -0.9,1.7 -3.5,2 -3.5,2 0,0 -2.6,-0.2 -3.5,-2 -0.9,-1.7 -2.1,-13.5 -2.1,-19.2 0,-5.7 0.7,-14 0.8,-14.5 0.1,-0.6 1,-1.4 4.8,-1.4 3.8,0 4.7,0.8 4.8,1.4 0,0.1 0.1,0.6 0.1,1.3 0.7,0 1.5,0 2.1,0 -0.1,-1.5 -0.3,-2.9 -0.4,-4.3 -10.2,-1.5 -69.9,-10.5 -71.6,-10.7 -0.1,0 -0.2,0 -0.3,0 -0.4,0 -0.7,0.1 -1,0.3 -0.5,6.6 -3.1,10.3 -3.1,10.3 0,0 -3.1,-4.5 -3.1,-12.5 l 0,-19.7 c 0,-7.9 3.1,-12.5 3.1,-12.5 0,0 3.1,4.5 3.1,12.5 l 0,6.9 71.2,-11.6 c -0.1,-16.7 -0.4,-40.9 -0.4,-53.8 0,-18.4 4.2,-27.5 4.2,-32.6 0,-5.1 -1.2,-8.4 -1.2,-12.3 0.1,-3.9 2.4,-8.6 7.1,-8.6 m 0,-5 c -3.8,0 -7.1,1.8 -9.3,5 -1.7,2.4 -2.7,5.6 -2.7,8.7 0,2.2 0.3,4.2 0.6,6.1 0.3,2 0.6,3.9 0.6,6.2 0,1.2 -0.5,3.4 -1,5.9 -1.3,5.6 -3.2,14.1 -3.2,26.7 0,9 0.1,23.4 0.3,37.2 0,4.3 0.1,8.5 0.1,12.4 l -61.1,10 0,-1 c 0,-9.2 -3.6,-14.7 -4,-15.3 -0.9,-1.4 -2.5,-2.2 -4.1,-2.2 -1.6,0 -3.2,0.8 -4.1,2.2 -0.4,0.6 -4,6.1 -4,15.3 l 0,19.7 c 0,9.2 3.6,14.7 4,15.3 0.9,1.4 2.5,2.2 4.1,2.2 0,0 0,0 0,0 1.6,0 3.2,-0.8 4.1,-2.2 0.3,-0.4 2.1,-3.2 3.2,-7.9 8.8,1.3 32.1,4.8 52.2,7.8 -0.3,2.3 -0.8,10 -0.8,15 0,2.8 0.7,17.9 2.7,21.6 1.4,2.6 3.9,3.8 5.6,4.3 -11.3,6.2 -22.8,12.8 -23.9,13.4 -3.1,1.5 -5.1,5.1 -5.1,9.1 0,3.1 1.7,6.5 2.2,7.5 0.9,1.7 2.6,2.6 4.4,2.6 0.5,0 1.1,-0.1 1.6,-0.3 l 31.3,-10.5 c 0.1,0.1 0.2,0.3 0.3,0.4 0.3,3.1 1,6.6 1.1,7.2 0.4,2.4 2.5,4.1 4.9,4.1 2.4,0 4.5,-1.7 4.9,-4.1 0.1,-0.5 0.7,-4.1 1.1,-7.2 0.1,-0.1 0.2,-0.3 0.3,-0.4 l 31.3,10.5 c 0.5,0.2 1.1,0.3 1.6,0.3 1.8,0 3.5,-1 4.4,-2.6 0.5,-1 2.2,-4.4 2.2,-7.5 0,-4 -2,-7.6 -5.1,-9.1 -1,-0.5 -12.5,-7.2 -23.7,-13.6 1.7,-0.5 4.2,-1.6 5.6,-4.3 2,-3.7 2.7,-18.8 2.7,-21.6 0,-5 -0.5,-12.7 -0.8,-15 20.1,-3 43.3,-6.5 52.2,-7.8 1.1,4.8 2.9,7.6 3.2,7.9 0.9,1.4 2.5,2.2 4.1,2.2 0,0 0,0 0,0 1.6,0 3.2,-0.8 4.1,-2.2 0.4,-0.6 4,-6.1 4,-15.3 l 0,-19.7 c 0,-9.2 -3.6,-14.7 -4,-15.3 -0.9,-1.4 -2.5,-2.2 -4.1,-2.2 -1.6,0 -3.2,0.8 -4.1,2.2 -0.4,0.6 -4,6.1 -4,15.3 l 0,1 -61.1,-10 c 0,-3.9 0.1,-8.1 0.1,-12.4 0.1,-13.9 0.3,-28.2 0.3,-37.2 0,-12.6 -1.9,-21.1 -3.2,-26.7 -0.6,-2.5 -1,-4.6 -1,-5.9 0,-2.4 0.3,-4.2 0.6,-6.2 0.3,-1.9 0.6,-3.9 0.6,-6.1 0,-3.1 -1,-6.3 -2.7,-8.7 -2.4,-3 -5.7,-4.8 -9.5,-4.8 l 0,0 z"
         id="path11"
         inkscape:connector-curvature="0"
         style="fill:#596b6a" /></g><path
       class="st2"
       d="m 112.8,184 c -0.1,-0.6 -1,-1.4 -4.8,-1.4 -3.8,0 -4.7,0.8 -4.8,1.4 l 9.6,0 z"
       id="path13"
       inkscape:connector-curvature="0"
       style="fill:#ffffff" /><path
       class="st1"
       d="m 112.8,108.6 0.6,0 c 0.5,0 0.9,-0.4 0.9,-0.9 l 0,-2.4 c 0,-0.5 -0.4,-0.9 -0.9,-0.9 l -0.6,0 c 0,1.3 0,2.7 0,4.2 z"
       id="path15"
       inkscape:connector-curvature="0"
       style="fill:#596b6a" /><path
       class="st1"
       d="m 112.9,117.9 0.5,0 c 0.5,0 0.9,-0.4 0.9,-0.9 l 0,-2.4 c 0,-0.5 -0.4,-0.9 -0.9,-0.9 l -0.6,0 c 0,1.3 0,2.7 0.1,4.2 z"
       id="path17"
       inkscape:connector-curvature="0"
       style="fill:#596b6a" /><path
       class="st1"
       d="m 112.9,127.2 0.4,0 c 0.5,0 0.9,-0.4 0.9,-0.9 l 0,-2.4 c 0,-0.5 -0.4,-0.9 -0.9,-0.9 l -0.5,0 c 0.1,1.3 0.1,2.8 0.1,4.2 z"
       id="path19"
       inkscape:connector-curvature="0"
       style="fill:#596b6a" /><path
       class="st1"
       d="m 113,136.5 0.4,0 c 0.5,0 0.9,-0.4 0.9,-0.9 l 0,-2.4 c 0,-0.5 -0.4,-0.9 -0.9,-0.9 l -0.4,0 c 0,1.4 0,2.8 0,4.2 z"
       id="path21"
       inkscape:connector-curvature="0"
       style="fill:#596b6a" /><path
       class="st1"
       d="m 117.7,86.8 -2.5,0 c 0,0 0.1,-1.8 0.7,-3.8 l 1.8,0 0,3.8 z"
       id="path23"
       inkscape:connector-curvature="0"
       style="fill:#596b6a" /><g
       id="g25"><path
         class="st1"
         d="m 113.2,79 c -0.2,2.4 -0.4,5 -0.5,7.8 0.8,0 1.5,0 1.5,0 0,0 0.1,-3 1.5,-5.6 L 113.2,79 Z"
         id="path27"
         inkscape:connector-curvature="0"
         style="fill:#596b6a" /><path
         class="st1"
         d="m 113.5,76.7 c 0,0.2 0,0.4 -0.1,0.6 l 3.1,2.7 c 1.5,-1.8 3.8,-3.2 5.4,-3.2 l 0,-6.2 c 0.1,0 -5.3,0.2 -8.4,6.1 z"
         id="path29"
         inkscape:connector-curvature="0"
         style="fill:#596b6a" /></g><path
       class="st2"
       d="m 132.6,184 c 0.1,-0.6 1,-1.4 4.8,-1.4 3.8,0 4.7,0.8 4.8,1.4 l -9.6,0 z"
       id="path31"
       inkscape:connector-curvature="0"
       style="fill:#ffffff" /><path
       class="st1"
       d="m 132.6,108.6 -0.6,0 c -0.5,0 -0.9,-0.4 -0.9,-0.9 l 0,-2.4 c 0,-0.5 0.4,-0.9 0.9,-0.9 l 0.6,0 c 0,1.3 0,2.7 0,4.2 z"
       id="path33"
       inkscape:connector-curvature="0"
       style="fill:#596b6a" /><path
       class="st1"
       d="m 132.5,117.9 -0.5,0 c -0.5,0 -0.9,-0.4 -0.9,-0.9 l 0,-2.4 c 0,-0.5 0.4,-0.9 0.9,-0.9 l 0.6,0 c 0,1.3 0,2.7 -0.1,4.2 z"
       id="path35"
       inkscape:connector-curvature="0"
       style="fill:#596b6a" /><path
       class="st1"
       d="m 132.5,127.2 -0.5,0 c -0.5,0 -0.9,-0.4 -0.9,-0.9 l 0,-2.4 c 0,-0.5 0.4,-0.9 0.9,-0.9 l 0.5,0 c 0,1.3 0,2.8 0,4.2 z"
       id="path37"
       inkscape:connector-curvature="0"
       style="fill:#596b6a" /><path
       class="st1"
       d="m 132.4,136.5 -0.4,0 c -0.5,0 -0.9,-0.4 -0.9,-0.9 l 0,-2.4 c 0,-0.5 0.4,-0.9 0.9,-0.9 l 0.4,0 c 0,1.4 0,2.8 0,4.2 z"
       id="path39"
       inkscape:connector-curvature="0"
       style="fill:#596b6a" /><path
       class="st1"
       d="m 122.7,36.6 c -4.7,0 -7,4.7 -7,8.6 0,3.9 1.1,7.1 1.2,12 l 5.8,0 5.8,0 c 0.1,-4.9 1.2,-8.1 1.2,-12 0,-3.9 -2.3,-8.6 -7,-8.6 z"
       id="path41"
       inkscape:connector-curvature="0"
       style="fill:#596b6a" /><path
       class="st1"
       d="m 127.7,86.8 2.5,0 c 0,0 -0.1,-1.8 -0.7,-3.8 l -1.8,0 0,3.8 z"
       id="path43"
       inkscape:connector-curvature="0"
       style="fill:#596b6a" /><g
       id="g45"><path
         class="st1"
         d="m 128.8,80 3.1,-2.7 c 0,-0.2 0,-0.4 -0.1,-0.6 -3.1,-5.9 -8.5,-6.1 -8.5,-6.1 l 0,6.2 c 1.8,0.1 4.1,1.4 5.5,3.2 z"
         id="path47"
         inkscape:connector-curvature="0"
         style="fill:#596b6a" /><path
         class="st1"
         d="m 129.6,81.2 c 1.4,2.6 1.5,5.6 1.5,5.6 0,0 0.7,0 1.5,0 -0.1,-2.8 -0.3,-5.4 -0.5,-7.8 l -2.5,2.2 z"
         id="path49"
         inkscape:connector-curvature="0"
         style="fill:#596b6a" /></g></g></svg>