<?xml version="1.0" encoding="UTF-8" standalone="no"?>
<!-- Generator: Adobe Illustrator 21.1.0, SVG Export Plug-In . SVG Version: 6.00 Build 0)  -->

<svg
   xmlns:dc="http://purl.org/dc/elements/1.1/"
   xmlns:cc="http://creativecommons.org/ns#"
   xmlns:rdf="http://www.w3.org/1999/02/22-rdf-syntax-ns#"
   xmlns:svg="http://www.w3.org/2000/svg"
   xmlns="http://www.w3.org/2000/svg"
   xmlns:sodipodi="http://sodipodi.sourceforge.net/DTD/sodipodi-0.dtd"
   xmlns:inkscape="http://www.inkscape.org/namespaces/inkscape"
   version="1.1"
   id="Layer_1"
   x="0px"
   y="0px"
   viewBox="0 0 70 70"
   xml:space="preserve"
   inkscape:version="0.91pre4 r13712"
   sodipodi:docname="shimshon.svg"
   width="70"
   height="70"><metadata
     id="metadata59"><rdf:RDF><cc:Work
         rdf:about=""><dc:format>image/svg+xml</dc:format><dc:type
           rdf:resource="http://purl.org/dc/dcmitype/StillImage" /><dc:title></dc:title></cc:Work></rdf:RDF></metadata><defs
     id="defs57"><filter
       inkscape:collect="always"
       style="color-interpolation-filters:sRGB"
       id="filter4237"
       x="-0.23304088"
       width="1.4660819"
       y="-0.24738753"
       height="1.4947751"><feGaussianBlur
         inkscape:collect="always"
         stdDeviation="26.12"
         id="feGaussianBlur4239" /></filter></defs><sodipodi:namedview
     pagecolor="#ffffff"
     bordercolor="#666666"
     borderopacity="1"
     objecttolerance="10"
     gridtolerance="10"
     guidetolerance="10"
     inkscape:pageopacity="0"
     inkscape:pageshadow="2"
     inkscape:window-width="1280"
     inkscape:window-height="961"
     id="namedview55"
     showgrid="false"
     inkscape:zoom="0.80272109"
     inkscape:cx="206.66543"
     inkscape:cy="147"
     inkscape:window-x="-8"
     inkscape:window-y="-8"
     inkscape:window-maximized="1"
     inkscape:current-layer="Layer_1" /><style
     type="text/css"
     id="style3">
	.st0{fill:#CAE0E0;}
	.st1{fill:#596B6A;}
</style><g
     id="g4185"
     transform="matrix(0.2,0,0,0.2,-2.4050474e-6,0)"><g
       style="opacity:0.5;fill:#000000;fill-opacity:1;filter:url(#filter4237)"
       id="g4187"
       transform="translate(20.3,27.3)"><g
         style="fill:#000000;fill-opacity:1"
         id="g4189"><path
           class="st0"
           d="m 154.8,271.8 c -5,0 -7.1,-4.9 -7.7,-8.5 l -0.7,-0.4 c -11.2,-1.7 -39.2,-6 -41.1,-6.2 -2,-0.2 -3.5,-1.2 -4.4,-2.9 -0.6,-1.3 -0.9,-2.9 -0.7,-4.6 l 0,-0.4 c 0.3,-2.7 0.7,-7.7 4.9,-8.8 2.3,-0.6 26.8,-6.2 34.5,-8 -0.6,-4.2 -1.7,-13.4 -1.7,-19.4 l 0,-51.6 -19.8,0 c -0.1,0 -0.2,0 -0.3,0 L 28,149 c -1,-0.1 -1.8,-0.9 -2.1,-1.8 -0.5,-1.9 -3,-11.4 -3,-14.5 0,-5.2 4.1,-5.7 6.4,-5.9 0.4,0 1.7,-0.2 53.7,-1.8 l 0,-1.1 c 0,-7.2 0.8,-19.4 6,-19.4 5.2,0 6,12.1 6,19.4 l 0,0.7 c 8.3,-0.3 15.7,-0.5 21.3,-0.7 l 0,0 c 0,-7.2 0.8,-19.4 6,-19.4 5.1,0 6,11.8 6,19.1 l 8.2,0 c 0.2,-7.3 1.3,-12 1.7,-13.4 l 0,-47.6 c 0,-12.5 3.7,-20.5 7.4,-26.7 0.9,-1.6 1.5,-3.3 2.1,-5 0.5,-1.5 1,-3 1.8,-4.4 1,-1.9 3.1,-3 5.6,-3 2.5,0 4.6,1.1 5.6,3 0.7,1.4 1.2,2.8 1.8,4.4 0.6,1.7 1.2,3.4 2.1,5 3.6,6.2 7.4,14.2 7.4,26.7 l 0,47.7 c 0.3,1.3 1.4,6 1.7,13.4 l 8.2,0 c 0,-7.3 0.8,-19.1 6,-19.1 5.2,0 6,12.1 6,19.4 l 0,0 c 5.5,0.2 13,0.4 21.2,0.7 l 0,-0.7 c 0,-7.2 0.8,-19.4 6,-19.4 5.2,0 6,12.1 6,19.4 l 0,1.1 c 52.1,1.7 53.3,1.8 53.7,1.8 2.2,0.2 6.4,0.6 6.4,5.9 0,3.1 -2.5,12.6 -3,14.5 -0.3,1 -1.1,1.7 -2.1,1.8 L 192.2,161 c -0.1,0 -0.2,0 -0.3,0 l -19.8,0 0,51.6 c 0,6 -1.1,15.2 -1.7,19.4 7.7,1.8 32.2,7.4 34.5,8 4.2,1.1 4.7,6.1 4.9,8.8 l 0,0.4 c 0.2,1.8 -0.1,3.4 -0.7,4.6 -0.9,1.7 -2.5,2.7 -4.4,2.9 -1.9,0.2 -29.9,4.5 -41.1,6.2 l -0.7,0.4 c -1,3.7 -3.1,8.5 -8.1,8.5 z"
           id="path4191"
           inkscape:connector-curvature="0"
           style="fill:#000000;fill-opacity:1" /><g
           style="fill:#000000;fill-opacity:1"
           id="g4193"><path
             class="st1"
             d="m 154.8,26 c 1.1,0 2.7,0.4 3.4,1.7 1.4,2.6 2,6.2 3.9,9.5 2.8,4.7 7,12.6 7,25.5 0,18.4 0,48.1 0,48.1 0,0 1.7,5.7 1.7,15.5 l 13.1,0 c 0,0 0,0 0.1,0 l 0,-2.2 c 0,-9.3 1.6,-16.9 3.5,-16.9 1.9,0 3.5,7.6 3.5,16.9 l 0,2.4 c 6.1,0.2 15.6,0.5 26.3,0.8 l 0,-3.3 c 0,-9.3 1.6,-16.9 3.5,-16.9 1.9,0 3.5,7.6 3.5,16.9 l 0,3.5 c 25.8,0.8 54.7,1.8 56,1.9 2.4,0.2 4.1,0.5 4.1,3.4 0,2.9 -2.9,13.8 -2.9,13.8 l -89.9,11.9 -22.3,0 c 0,0 0,46.4 0,54.1 0,7.8 -1.9,21.3 -1.9,21.3 0,0 33.9,7.8 36.6,8.5 2.7,0.7 2.9,4.6 3.2,7 0.2,2.4 -0.5,4.6 -2.9,4.8 -2.4,0.2 -41.7,6.3 -41.7,6.3 l -2.2,1.2 c 0,0 -0.5,7.6 -5.3,7.6 -4.8,0 -5.3,-7.6 -5.3,-7.6 l -2.2,-1.2 c 0,0 -39.3,-6.1 -41.7,-6.3 -2.4,-0.2 -3.2,-2.4 -2.9,-4.8 0.2,-2.4 0.5,-6.3 3.2,-7 2.7,-0.7 36.6,-8.5 36.6,-8.5 0,0 -1.9,-13.6 -1.9,-21.3 0,-7.8 0,-54.1 0,-54.1 l -22.3,0 -89.9,-11.9 c 0,0 -2.9,-10.9 -2.9,-13.8 0,-2.9 1.7,-3.2 4.1,-3.4 1.3,-0.1 30.2,-1.1 56,-1.9 l 0,-3.5 c 0,-9.3 1.6,-16.9 3.5,-16.9 1.9,0 3.5,7.6 3.5,16.9 l 0,3.3 c 10.6,-0.3 20.1,-0.6 26.3,-0.8 l 0,-2.4 c 0,-9.3 1.6,-16.9 3.5,-16.9 1.9,0 3.5,7.6 3.5,16.9 l 0,2.2 c 0,0 0.1,0 0.1,0 l 13.1,0 c 0,-9.8 1.7,-15.5 1.7,-15.5 0,0 0,-29.6 0,-48.1 0,-12.8 4.2,-20.7 7,-25.5 1.9,-3.3 2.5,-6.9 3.9,-9.5 0.1,-1.4 1.7,-1.7 2.8,-1.7 m 0,-5 c -3.4,0 -6.3,1.6 -7.8,4.3 -0.8,1.5 -1.4,3.2 -1.9,4.8 -0.6,1.6 -1.1,3.2 -1.9,4.5 -2.3,3.9 -7.7,13.1 -7.7,28 l 0,47.4 c -0.4,1.6 -1.2,5.5 -1.6,11.2 l -3.3,0 c -0.1,-3.8 -0.5,-7.3 -1.1,-10.2 -0.5,-2.2 -1.8,-8.9 -7.4,-8.9 -5.5,0 -6.9,6.7 -7.4,8.9 -0.6,2.9 -1,6.6 -1.1,10.5 -4.6,0.1 -10.2,0.3 -16.3,0.5 -0.1,-4.1 -0.5,-8 -1.1,-11 -0.5,-2.2 -1.8,-8.9 -7.4,-8.9 -5.5,0 -6.9,6.7 -7.4,8.9 -0.7,3.2 -1,7.2 -1.1,11.6 -49.8,1.6 -51,1.7 -51.5,1.8 -2.1,0.2 -8.6,0.9 -8.6,8.4 0,3.2 2.2,11.6 3.1,15.1 0.5,2 2.2,3.4 4.2,3.7 l 89.9,11.9 c 0.2,0 0.4,0 0.7,0 l 17.3,0 0,49.1 c 0,5.2 0.8,12.7 1.4,17.5 -9.5,2.2 -30.2,6.9 -32.4,7.5 -5.9,1.6 -6.5,8.2 -6.8,11 l 0,0.4 c -0.6,5.6 2.5,9.8 7.4,10.3 1.7,0.2 24.2,3.6 39.9,6 1.2,4.8 4.4,9.1 9.8,9.1 5.4,0 8.6,-4.3 9.8,-9.1 15.7,-2.4 38.1,-5.9 39.9,-6 4.9,-0.5 7.9,-4.7 7.4,-10.3 l 0,-0.4 c -0.3,-2.8 -0.9,-9.4 -6.8,-11 -2.2,-0.6 -22.9,-5.3 -32.4,-7.5 0.6,-4.8 1.4,-12.3 1.4,-17.5 l 0,-49.1 17.3,0 c 0.2,0 0.4,0 0.7,0 l 89.9,-11.9 c 2,-0.3 3.7,-1.7 4.2,-3.7 0.9,-3.5 3.1,-11.9 3.1,-15.1 0,-7.5 -6.5,-8.2 -8.6,-8.4 -0.5,-0.1 -1.7,-0.2 -51.5,-1.8 -0.1,-4.3 -0.5,-8.4 -1.1,-11.6 -0.5,-2.2 -1.8,-8.9 -7.4,-8.9 -5.5,0 -6.9,6.7 -7.4,8.9 -0.6,3 -1,6.9 -1.1,11 -6.1,-0.2 -11.7,-0.4 -16.3,-0.5 -0.1,-3.9 -0.5,-7.6 -1.1,-10.5 -0.5,-2.2 -1.8,-8.9 -7.4,-8.9 -5.5,0 -6.9,6.7 -7.4,8.9 -0.6,2.8 -1,6.4 -1.1,10.2 l -3.3,0 c -0.3,-5.7 -1.2,-9.6 -1.6,-11.2 l 0,-47.4 c 0,-14.9 -5.4,-24.1 -7.7,-28 -0.8,-1.4 -1.3,-2.9 -1.9,-4.5 -0.5,-1.6 -1.1,-3.2 -1.9,-4.8 -1.3,-2.7 -4.2,-4.3 -7.6,-4.3 l 0,0 z"
             id="path4195"
             inkscape:connector-curvature="0"
             style="fill:#000000;fill-opacity:1" /></g></g><path
         class="st1"
         d="m 86.3,113.4 5.4,0 c -0.6,-3.9 -1.6,-6.3 -2.7,-6.3 -1.1,-0.1 -2.1,2.4 -2.7,6.3 z"
         id="path4197"
         inkscape:connector-curvature="0"
         style="fill:#000000;fill-opacity:1" /><path
         class="st1"
         d="m 119.5,113.4 5.4,0 c -0.6,-3.9 -1.6,-6.3 -2.7,-6.3 -1.1,0 -2.1,2.4 -2.7,6.3 z"
         id="path4199"
         inkscape:connector-curvature="0"
         style="fill:#000000;fill-opacity:1" /><path
         class="st1"
         d="m 223.4,113.4 -5.4,0 c 0.6,-3.9 1.6,-6.3 2.7,-6.3 1.1,0 2,2.4 2.7,6.3 z"
         id="path4201"
         inkscape:connector-curvature="0"
         style="fill:#000000;fill-opacity:1" /><path
         class="st1"
         d="m 190.2,113.4 -5.4,0 c 0.6,-3.9 1.6,-6.3 2.7,-6.3 1.1,0 2,2.4 2.7,6.3 z"
         id="path4203"
         inkscape:connector-curvature="0"
         style="fill:#000000;fill-opacity:1" /><path
         class="st0"
         d="m 160.8,34.4 c -1,-2.4 -1.5,-4.8 -2.6,-6.7 -0.7,-1.3 -2.3,-1.7 -3.4,-1.7 -1.1,0 -2.7,0.4 -3.4,1.7 -1,1.9 -1.6,4.4 -2.6,6.8 1.8,-1 3.9,-1.7 6.1,-1.7 2.1,0 4.1,0.6 5.9,1.6 z"
         id="path4205"
         inkscape:connector-curvature="0"
         style="fill:#000000;fill-opacity:1" /><rect
         x="76.5"
         y="110.1"
         class="st1"
         width="25"
         height="1.6"
         id="rect4207"
         style="fill:#000000;fill-opacity:1" /><rect
         x="109.7"
         y="110.1"
         class="st1"
         width="25"
         height="1.6"
         id="rect4209"
         style="fill:#000000;fill-opacity:1" /><rect
         x="174.89999"
         y="110.1"
         class="st1"
         width="25"
         height="1.6"
         id="rect4211"
         style="fill:#000000;fill-opacity:1" /><rect
         x="208.2"
         y="110.1"
         class="st1"
         width="25"
         height="1.6"
         id="rect4213"
         style="fill:#000000;fill-opacity:1" /><polygon
         class="st1"
         points="151.5,37.1 150.2,38.1 149.5,35.1 150.8,34.2 "
         id="polygon4215"
         style="fill:#000000;fill-opacity:1" /><polygon
         class="st1"
         points="156.6,36.7 154.8,36.7 153,36.7 153.3,38.5 154.8,38.5 156.4,38.5 "
         id="polygon4217"
         style="fill:#000000;fill-opacity:1" /><polygon
         class="st1"
         points="152.8,38.8 151.5,39.8 150.3,38.5 152.5,36.9 "
         id="polygon4219"
         style="fill:#000000;fill-opacity:1" /><g
         style="fill:#000000;fill-opacity:1"
         id="g4221"><path
           class="st1"
           d="m 148.5,44.2 c -0.3,0.7 -0.5,1.4 -0.7,2 0.3,0 0.6,0 0.9,0 0.6,-2.6 2.8,-4.4 2.8,-4.4 L 151,41 c -0.1,0.1 -0.2,0.1 -0.3,0.2 -0.8,0.7 -1.6,1.7 -2.2,3 z"
           id="path4223"
           inkscape:connector-curvature="0"
           style="fill:#000000;fill-opacity:1" /><path
           class="st1"
           d="m 148.1,44 c 0.6,-1.3 1.4,-2.4 2.3,-3.1 0.1,-0.1 0.2,-0.2 0.3,-0.2 l 0,0 -1.1,-1.3 c 0,0 -1.1,1.1 -2.1,2.7 -1.1,1.6 -1.5,4.2 -1.5,4.2 0,0 0.7,0 1.4,0 0.1,-0.9 0.4,-1.6 0.7,-2.3 z"
           id="path4225"
           inkscape:connector-curvature="0"
           style="fill:#000000;fill-opacity:1" /></g><polygon
         class="st1"
         points="158.1,37.1 159.4,38.1 160.1,35.1 158.9,34.2 "
         id="polygon4227"
         style="fill:#000000;fill-opacity:1" /><polygon
         class="st1"
         points="156.9,38.8 158.2,39.8 159.3,38.5 157.1,36.9 "
         id="polygon4229"
         style="fill:#000000;fill-opacity:1" /><g
         style="fill:#000000;fill-opacity:1"
         id="g4231"><path
           class="st1"
           d="m 161.1,44.2 c 0.3,0.7 0.5,1.4 0.7,2 -0.3,0 -0.6,0 -0.9,0 -0.6,-2.6 -2.8,-4.4 -2.8,-4.4 l 0.6,-0.8 c 0.1,0.1 0.2,0.1 0.3,0.2 0.8,0.7 1.5,1.7 2.1,3 z"
           id="path4233"
           inkscape:connector-curvature="0"
           style="fill:#000000;fill-opacity:1" /><path
           class="st1"
           d="m 161.5,44 c -0.6,-1.3 -1.4,-2.4 -2.3,-3.1 -0.1,-0.1 -0.2,-0.2 -0.3,-0.2 l 0,0 1.1,-1.3 c 0,0 1.1,1.1 2.1,2.7 1.1,1.6 1.5,4.2 1.5,4.2 0,0 -0.7,0 -1.4,0 -0.1,-0.9 -0.3,-1.6 -0.7,-2.3 z"
           id="path4235"
           inkscape:connector-curvature="0"
           style="fill:#000000;fill-opacity:1" /></g></g><g
       transform="translate(20.3,27.3)"
       id="g5"><g
         id="g7"><path
           style="fill:#cae0e0"
           inkscape:connector-curvature="0"
           id="path9"
           d="m 154.8,271.8 c -5,0 -7.1,-4.9 -7.7,-8.5 l -0.7,-0.4 c -11.2,-1.7 -39.2,-6 -41.1,-6.2 -2,-0.2 -3.5,-1.2 -4.4,-2.9 -0.6,-1.3 -0.9,-2.9 -0.7,-4.6 l 0,-0.4 c 0.3,-2.7 0.7,-7.7 4.9,-8.8 2.3,-0.6 26.8,-6.2 34.5,-8 -0.6,-4.2 -1.7,-13.4 -1.7,-19.4 l 0,-51.6 -19.8,0 c -0.1,0 -0.2,0 -0.3,0 L 28,149 c -1,-0.1 -1.8,-0.9 -2.1,-1.8 -0.5,-1.9 -3,-11.4 -3,-14.5 0,-5.2 4.1,-5.7 6.4,-5.9 0.4,0 1.7,-0.2 53.7,-1.8 l 0,-1.1 c 0,-7.2 0.8,-19.4 6,-19.4 5.2,0 6,12.1 6,19.4 l 0,0.7 c 8.3,-0.3 15.7,-0.5 21.3,-0.7 l 0,0 c 0,-7.2 0.8,-19.4 6,-19.4 5.1,0 6,11.8 6,19.1 l 8.2,0 c 0.2,-7.3 1.3,-12 1.7,-13.4 l 0,-47.6 c 0,-12.5 3.7,-20.5 7.4,-26.7 0.9,-1.6 1.5,-3.3 2.1,-5 0.5,-1.5 1,-3 1.8,-4.4 1,-1.9 3.1,-3 5.6,-3 2.5,0 4.6,1.1 5.6,3 0.7,1.4 1.2,2.8 1.8,4.4 0.6,1.7 1.2,3.4 2.1,5 3.6,6.2 7.4,14.2 7.4,26.7 l 0,47.7 c 0.3,1.3 1.4,6 1.7,13.4 l 8.2,0 c 0,-7.3 0.8,-19.1 6,-19.1 5.2,0 6,12.1 6,19.4 l 0,0 c 5.5,0.2 13,0.4 21.2,0.7 l 0,-0.7 c 0,-7.2 0.8,-19.4 6,-19.4 5.2,0 6,12.1 6,19.4 l 0,1.1 c 52.1,1.7 53.3,1.8 53.7,1.8 2.2,0.2 6.4,0.6 6.4,5.9 0,3.1 -2.5,12.6 -3,14.5 -0.3,1 -1.1,1.7 -2.1,1.8 L 192.2,161 c -0.1,0 -0.2,0 -0.3,0 l -19.8,0 0,51.6 c 0,6 -1.1,15.2 -1.7,19.4 7.7,1.8 32.2,7.4 34.5,8 4.2,1.1 4.7,6.1 4.9,8.8 l 0,0.4 c 0.2,1.8 -0.1,3.4 -0.7,4.6 -0.9,1.7 -2.5,2.7 -4.4,2.9 -1.9,0.2 -29.9,4.5 -41.1,6.2 l -0.7,0.4 c -1,3.7 -3.1,8.5 -8.1,8.5 z"
           class="st0" /><g
           id="g11"><path
             style="fill:#596b6a"
             inkscape:connector-curvature="0"
             id="path13"
             d="m 154.8,26 c 1.1,0 2.7,0.4 3.4,1.7 1.4,2.6 2,6.2 3.9,9.5 2.8,4.7 7,12.6 7,25.5 0,18.4 0,48.1 0,48.1 0,0 1.7,5.7 1.7,15.5 l 13.1,0 c 0,0 0,0 0.1,0 l 0,-2.2 c 0,-9.3 1.6,-16.9 3.5,-16.9 1.9,0 3.5,7.6 3.5,16.9 l 0,2.4 c 6.1,0.2 15.6,0.5 26.3,0.8 l 0,-3.3 c 0,-9.3 1.6,-16.9 3.5,-16.9 1.9,0 3.5,7.6 3.5,16.9 l 0,3.5 c 25.8,0.8 54.7,1.8 56,1.9 2.4,0.2 4.1,0.5 4.1,3.4 0,2.9 -2.9,13.8 -2.9,13.8 l -89.9,11.9 -22.3,0 c 0,0 0,46.4 0,54.1 0,7.8 -1.9,21.3 -1.9,21.3 0,0 33.9,7.8 36.6,8.5 2.7,0.7 2.9,4.6 3.2,7 0.2,2.4 -0.5,4.6 -2.9,4.8 -2.4,0.2 -41.7,6.3 -41.7,6.3 l -2.2,1.2 c 0,0 -0.5,7.6 -5.3,7.6 -4.8,0 -5.3,-7.6 -5.3,-7.6 l -2.2,-1.2 c 0,0 -39.3,-6.1 -41.7,-6.3 -2.4,-0.2 -3.2,-2.4 -2.9,-4.8 0.2,-2.4 0.5,-6.3 3.2,-7 2.7,-0.7 36.6,-8.5 36.6,-8.5 0,0 -1.9,-13.6 -1.9,-21.3 0,-7.8 0,-54.1 0,-54.1 l -22.3,0 -89.9,-11.9 c 0,0 -2.9,-10.9 -2.9,-13.8 0,-2.9 1.7,-3.2 4.1,-3.4 1.3,-0.1 30.2,-1.1 56,-1.9 l 0,-3.5 c 0,-9.3 1.6,-16.9 3.5,-16.9 1.9,0 3.5,7.6 3.5,16.9 l 0,3.3 c 10.6,-0.3 20.1,-0.6 26.3,-0.8 l 0,-2.4 c 0,-9.3 1.6,-16.9 3.5,-16.9 1.9,0 3.5,7.6 3.5,16.9 l 0,2.2 c 0,0 0.1,0 0.1,0 l 13.1,0 c 0,-9.8 1.7,-15.5 1.7,-15.5 0,0 0,-29.6 0,-48.1 0,-12.8 4.2,-20.7 7,-25.5 1.9,-3.3 2.5,-6.9 3.9,-9.5 0.1,-1.4 1.7,-1.7 2.8,-1.7 m 0,-5 c -3.4,0 -6.3,1.6 -7.8,4.3 -0.8,1.5 -1.4,3.2 -1.9,4.8 -0.6,1.6 -1.1,3.2 -1.9,4.5 -2.3,3.9 -7.7,13.1 -7.7,28 l 0,47.4 c -0.4,1.6 -1.2,5.5 -1.6,11.2 l -3.3,0 c -0.1,-3.8 -0.5,-7.3 -1.1,-10.2 -0.5,-2.2 -1.8,-8.9 -7.4,-8.9 -5.5,0 -6.9,6.7 -7.4,8.9 -0.6,2.9 -1,6.6 -1.1,10.5 -4.6,0.1 -10.2,0.3 -16.3,0.5 -0.1,-4.1 -0.5,-8 -1.1,-11 -0.5,-2.2 -1.8,-8.9 -7.4,-8.9 -5.5,0 -6.9,6.7 -7.4,8.9 -0.7,3.2 -1,7.2 -1.1,11.6 -49.8,1.6 -51,1.7 -51.5,1.8 -2.1,0.2 -8.6,0.9 -8.6,8.4 0,3.2 2.2,11.6 3.1,15.1 0.5,2 2.2,3.4 4.2,3.7 l 89.9,11.9 c 0.2,0 0.4,0 0.7,0 l 17.3,0 0,49.1 c 0,5.2 0.8,12.7 1.4,17.5 -9.5,2.2 -30.2,6.9 -32.4,7.5 -5.9,1.6 -6.5,8.2 -6.8,11 l 0,0.4 c -0.6,5.6 2.5,9.8 7.4,10.3 1.7,0.2 24.2,3.6 39.9,6 1.2,4.8 4.4,9.1 9.8,9.1 5.4,0 8.6,-4.3 9.8,-9.1 15.7,-2.4 38.1,-5.9 39.9,-6 4.9,-0.5 7.9,-4.7 7.4,-10.3 l 0,-0.4 c -0.3,-2.8 -0.9,-9.4 -6.8,-11 -2.2,-0.6 -22.9,-5.3 -32.4,-7.5 0.6,-4.8 1.4,-12.3 1.4,-17.5 l 0,-49.1 17.3,0 c 0.2,0 0.4,0 0.7,0 l 89.9,-11.9 c 2,-0.3 3.7,-1.7 4.2,-3.7 0.9,-3.5 3.1,-11.9 3.1,-15.1 0,-7.5 -6.5,-8.2 -8.6,-8.4 -0.5,-0.1 -1.7,-0.2 -51.5,-1.8 -0.1,-4.3 -0.5,-8.4 -1.1,-11.6 -0.5,-2.2 -1.8,-8.9 -7.4,-8.9 -5.5,0 -6.9,6.7 -7.4,8.9 -0.6,3 -1,6.9 -1.1,11 -6.1,-0.2 -11.7,-0.4 -16.3,-0.5 -0.1,-3.9 -0.5,-7.6 -1.1,-10.5 -0.5,-2.2 -1.8,-8.9 -7.4,-8.9 -5.5,0 -6.9,6.7 -7.4,8.9 -0.6,2.8 -1,6.4 -1.1,10.2 l -3.3,0 c -0.3,-5.7 -1.2,-9.6 -1.6,-11.2 l 0,-47.4 c 0,-14.9 -5.4,-24.1 -7.7,-28 -0.8,-1.4 -1.3,-2.9 -1.9,-4.5 -0.5,-1.6 -1.1,-3.2 -1.9,-4.8 -1.3,-2.7 -4.2,-4.3 -7.6,-4.3 l 0,0 z"
             class="st1" /></g></g><path
         style="fill:#596b6a"
         inkscape:connector-curvature="0"
         id="path15"
         d="m 86.3,113.4 5.4,0 c -0.6,-3.9 -1.6,-6.3 -2.7,-6.3 -1.1,-0.1 -2.1,2.4 -2.7,6.3 z"
         class="st1" /><path
         style="fill:#596b6a"
         inkscape:connector-curvature="0"
         id="path17"
         d="m 119.5,113.4 5.4,0 c -0.6,-3.9 -1.6,-6.3 -2.7,-6.3 -1.1,0 -2.1,2.4 -2.7,6.3 z"
         class="st1" /><path
         style="fill:#596b6a"
         inkscape:connector-curvature="0"
         id="path19"
         d="m 223.4,113.4 -5.4,0 c 0.6,-3.9 1.6,-6.3 2.7,-6.3 1.1,0 2,2.4 2.7,6.3 z"
         class="st1" /><path
         style="fill:#596b6a"
         inkscape:connector-curvature="0"
         id="path21"
         d="m 190.2,113.4 -5.4,0 c 0.6,-3.9 1.6,-6.3 2.7,-6.3 1.1,0 2,2.4 2.7,6.3 z"
         class="st1" /><path
         style="fill:#cae0e0"
         inkscape:connector-curvature="0"
         id="path23"
         d="m 160.8,34.4 c -1,-2.4 -1.5,-4.8 -2.6,-6.7 -0.7,-1.3 -2.3,-1.7 -3.4,-1.7 -1.1,0 -2.7,0.4 -3.4,1.7 -1,1.9 -1.6,4.4 -2.6,6.8 1.8,-1 3.9,-1.7 6.1,-1.7 2.1,0 4.1,0.6 5.9,1.6 z"
         class="st0" /><rect
         style="fill:#596b6a"
         id="rect25"
         height="1.6"
         width="25"
         class="st1"
         y="110.1"
         x="76.5" /><rect
         style="fill:#596b6a"
         id="rect27"
         height="1.6"
         width="25"
         class="st1"
         y="110.1"
         x="109.7" /><rect
         style="fill:#596b6a"
         id="rect29"
         height="1.6"
         width="25"
         class="st1"
         y="110.1"
         x="174.89999" /><rect
         style="fill:#596b6a"
         id="rect31"
         height="1.6"
         width="25"
         class="st1"
         y="110.1"
         x="208.2" /><polygon
         style="fill:#596b6a"
         id="polygon33"
         points="151.5,37.1 150.2,38.1 149.5,35.1 150.8,34.2 "
         class="st1" /><polygon
         style="fill:#596b6a"
         id="polygon35"
         points="156.6,36.7 154.8,36.7 153,36.7 153.3,38.5 154.8,38.5 156.4,38.5 "
         class="st1" /><polygon
         style="fill:#596b6a"
         id="polygon37"
         points="152.8,38.8 151.5,39.8 150.3,38.5 152.5,36.9 "
         class="st1" /><g
         id="g39"><path
           style="fill:#596b6a"
           inkscape:connector-curvature="0"
           id="path41"
           d="m 148.5,44.2 c -0.3,0.7 -0.5,1.4 -0.7,2 0.3,0 0.6,0 0.9,0 0.6,-2.6 2.8,-4.4 2.8,-4.4 L 151,41 c -0.1,0.1 -0.2,0.1 -0.3,0.2 -0.8,0.7 -1.6,1.7 -2.2,3 z"
           class="st1" /><path
           style="fill:#596b6a"
           inkscape:connector-curvature="0"
           id="path43"
           d="m 148.1,44 c 0.6,-1.3 1.4,-2.4 2.3,-3.1 0.1,-0.1 0.2,-0.2 0.3,-0.2 l 0,0 -1.1,-1.3 c 0,0 -1.1,1.1 -2.1,2.7 -1.1,1.6 -1.5,4.2 -1.5,4.2 0,0 0.7,0 1.4,0 0.1,-0.9 0.4,-1.6 0.7,-2.3 z"
           class="st1" /></g><polygon
         style="fill:#596b6a"
         id="polygon45"
         points="158.1,37.1 159.4,38.1 160.1,35.1 158.9,34.2 "
         class="st1" /><polygon
         style="fill:#596b6a"
         id="polygon47"
         points="156.9,38.8 158.2,39.8 159.3,38.5 157.1,36.9 "
         class="st1" /><g
         id="g49"><path
           style="fill:#596b6a"
           inkscape:connector-curvature="0"
           id="path51"
           d="m 161.1,44.2 c 0.3,0.7 0.5,1.4 0.7,2 -0.3,0 -0.6,0 -0.9,0 -0.6,-2.6 -2.8,-4.4 -2.8,-4.4 l 0.6,-0.8 c 0.1,0.1 0.2,0.1 0.3,0.2 0.8,0.7 1.5,1.7 2.1,3 z"
           class="st1" /><path
           style="fill:#596b6a"
           inkscape:connector-curvature="0"
           id="path53"
           d="m 161.5,44 c -0.6,-1.3 -1.4,-2.4 -2.3,-3.1 -0.1,-0.1 -0.2,-0.2 -0.3,-0.2 l 0,0 1.1,-1.3 c 0,0 1.1,1.1 2.1,2.7 1.1,1.6 1.5,4.2 1.5,4.2 0,0 -0.7,0 -1.4,0 -0.1,-0.9 -0.3,-1.6 -0.7,-2.3 z"
           class="st1" /></g></g></g></svg>