<?xml version="1.0" encoding="utf-8"?>
<!-- Generator: Adobe Illustrator 21.1.0, SVG Export Plug-In . SVG Version: 6.00 Build 0)  -->
<svg version="1.1" id="Layer_1" xmlns="http://www.w3.org/2000/svg" xmlns:xlink="http://www.w3.org/1999/xlink" x="0px" y="0px"
	 viewBox="0 0 309 294" style="enable-background:new 0 0 309 294;" xml:space="preserve">
<style type="text/css">
	.st0{fill:#CAE0E0;}
	.st1{fill:#596B6A;}
</style>
<g>
	<g>
		<path class="st0" d="M154.8,271.8c-5,0-7.1-4.9-7.7-8.5l-0.7-0.4c-11.2-1.7-39.2-6-41.1-6.2c-2-0.2-3.5-1.2-4.4-2.9
			c-0.6-1.3-0.9-2.9-0.7-4.6l0-0.4c0.3-2.7,0.7-7.7,4.9-8.8c2.3-0.6,26.8-6.2,34.5-8c-0.6-4.2-1.7-13.4-1.7-19.4v-51.6h-19.8
			c-0.1,0-0.2,0-0.3,0L28,149c-1-0.1-1.8-0.9-2.1-1.8c-0.5-1.9-3-11.4-3-14.5c0-5.2,4.1-5.7,6.4-5.9c0.4,0,1.7-0.2,53.7-1.8v-1.1
			c0-7.2,0.8-19.4,6-19.4s6,12.1,6,19.4v0.7c8.3-0.3,15.7-0.5,21.3-0.7v0c0-7.2,0.8-19.4,6-19.4c5.1,0,6,11.8,6,19.1h8.2
			c0.2-7.3,1.3-12,1.7-13.4V62.6c0-12.5,3.7-20.5,7.4-26.7c0.9-1.6,1.5-3.3,2.1-5c0.5-1.5,1-3,1.8-4.4c1-1.9,3.1-3,5.6-3
			c2.5,0,4.6,1.1,5.6,3c0.7,1.4,1.2,2.8,1.8,4.4c0.6,1.7,1.2,3.4,2.1,5c3.6,6.2,7.4,14.2,7.4,26.7v47.7c0.3,1.3,1.4,6,1.7,13.4h8.2
			c0-7.3,0.8-19.1,6-19.1c5.2,0,6,12.1,6,19.4v0c5.5,0.2,13,0.4,21.2,0.7v-0.7c0-7.2,0.8-19.4,6-19.4s6,12.1,6,19.4v1.1
			c52.1,1.7,53.3,1.8,53.7,1.8c2.2,0.2,6.4,0.6,6.4,5.9c0,3.1-2.5,12.6-3,14.5c-0.3,1-1.1,1.7-2.1,1.8l-89.9,11.9
			c-0.1,0-0.2,0-0.3,0h-19.8v51.6c0,6-1.1,15.2-1.7,19.4c7.7,1.8,32.2,7.4,34.5,8c4.2,1.1,4.7,6.1,4.9,8.8l0,0.4
			c0.2,1.8-0.1,3.4-0.7,4.6c-0.9,1.7-2.5,2.7-4.4,2.9c-1.9,0.2-29.9,4.5-41.1,6.2l-0.7,0.4C161.9,267,159.8,271.8,154.8,271.8z"/>
		<g>
			<path class="st1" d="M154.8,26c1.1,0,2.7,0.4,3.4,1.7c1.4,2.6,2,6.2,3.9,9.5c2.8,4.7,7,12.6,7,25.5c0,18.4,0,48.1,0,48.1
				s1.7,5.7,1.7,15.5h13.1c0,0,0,0,0.1,0v-2.2c0-9.3,1.6-16.9,3.5-16.9c1.9,0,3.5,7.6,3.5,16.9v2.4c6.1,0.2,15.6,0.5,26.3,0.8v-3.3
				c0-9.3,1.6-16.9,3.5-16.9c1.9,0,3.5,7.6,3.5,16.9v3.5c25.8,0.8,54.7,1.8,56,1.9c2.4,0.2,4.1,0.5,4.1,3.4c0,2.9-2.9,13.8-2.9,13.8
				l-89.9,11.9h-22.3c0,0,0,46.4,0,54.1c0,7.8-1.9,21.3-1.9,21.3s33.9,7.8,36.6,8.5c2.7,0.7,2.9,4.6,3.2,7c0.2,2.4-0.5,4.6-2.9,4.8
				c-2.4,0.2-41.7,6.3-41.7,6.3l-2.2,1.2c0,0-0.5,7.6-5.3,7.6s-5.3-7.6-5.3-7.6l-2.2-1.2c0,0-39.3-6.1-41.7-6.3
				c-2.4-0.2-3.2-2.4-2.9-4.8c0.2-2.4,0.5-6.3,3.2-7c2.7-0.7,36.6-8.5,36.6-8.5s-1.9-13.6-1.9-21.3c0-7.8,0-54.1,0-54.1h-22.3
				l-89.9-11.9c0,0-2.9-10.9-2.9-13.8c0-2.9,1.7-3.2,4.1-3.4c1.3-0.1,30.2-1.1,56-1.9v-3.5c0-9.3,1.6-16.9,3.5-16.9
				c1.9,0,3.5,7.6,3.5,16.9v3.3c10.6-0.3,20.1-0.6,26.3-0.8v-2.4c0-9.3,1.6-16.9,3.5-16.9c1.9,0,3.5,7.6,3.5,16.9v2.2
				c0,0,0.1,0,0.1,0h13.1c0-9.8,1.7-15.5,1.7-15.5s0-29.6,0-48.1c0-12.8,4.2-20.7,7-25.5c1.9-3.3,2.5-6.9,3.9-9.5
				C152.1,26.3,153.7,26,154.8,26 M154.8,21c-3.4,0-6.3,1.6-7.8,4.3c-0.8,1.5-1.4,3.2-1.9,4.8c-0.6,1.6-1.1,3.2-1.9,4.5
				c-2.3,3.9-7.7,13.1-7.7,28V110c-0.4,1.6-1.2,5.5-1.6,11.2h-3.3c-0.1-3.8-0.5-7.3-1.1-10.2c-0.5-2.2-1.8-8.9-7.4-8.9
				c-5.5,0-6.9,6.7-7.4,8.9c-0.6,2.9-1,6.6-1.1,10.5c-4.6,0.1-10.2,0.3-16.3,0.5c-0.1-4.1-0.5-8-1.1-11c-0.5-2.2-1.8-8.9-7.4-8.9
				c-5.5,0-6.9,6.7-7.4,8.9c-0.7,3.2-1,7.2-1.1,11.6c-49.8,1.6-51,1.7-51.5,1.8c-2.1,0.2-8.6,0.9-8.6,8.4c0,3.2,2.2,11.6,3.1,15.1
				c0.5,2,2.2,3.4,4.2,3.7l89.9,11.9c0.2,0,0.4,0,0.7,0h17.3v49.1c0,5.2,0.8,12.7,1.4,17.5c-9.5,2.2-30.2,6.9-32.4,7.5
				c-5.9,1.6-6.5,8.2-6.8,11l0,0.4c-0.6,5.6,2.5,9.8,7.4,10.3c1.7,0.2,24.2,3.6,39.9,6c1.2,4.8,4.4,9.1,9.8,9.1s8.6-4.3,9.8-9.1
				c15.7-2.4,38.1-5.9,39.9-6c4.9-0.5,7.9-4.7,7.4-10.3l0-0.4c-0.3-2.8-0.9-9.4-6.8-11c-2.2-0.6-22.9-5.3-32.4-7.5
				c0.6-4.8,1.4-12.3,1.4-17.5v-49.1h17.3c0.2,0,0.4,0,0.7,0l89.9-11.9c2-0.3,3.7-1.7,4.2-3.7c0.9-3.5,3.1-11.9,3.1-15.1
				c0-7.5-6.5-8.2-8.6-8.4c-0.5-0.1-1.7-0.2-51.5-1.8c-0.1-4.3-0.5-8.4-1.1-11.6c-0.5-2.2-1.8-8.9-7.4-8.9c-5.5,0-6.9,6.7-7.4,8.9
				c-0.6,3-1,6.9-1.1,11c-6.1-0.2-11.7-0.4-16.3-0.5c-0.1-3.9-0.5-7.6-1.1-10.5c-0.5-2.2-1.8-8.9-7.4-8.9c-5.5,0-6.9,6.7-7.4,8.9
				c-0.6,2.8-1,6.4-1.1,10.2h-3.3c-0.3-5.7-1.2-9.6-1.6-11.2V62.6c0-14.9-5.4-24.1-7.7-28c-0.8-1.4-1.3-2.9-1.9-4.5
				c-0.5-1.6-1.1-3.2-1.9-4.8C161.1,22.6,158.2,21,154.8,21L154.8,21z"/>
		</g>
	</g>
	<path class="st1" d="M86.3,113.4h5.4c-0.6-3.9-1.6-6.3-2.7-6.3C87.9,107,86.9,109.5,86.3,113.4z"/>
	<path class="st1" d="M119.5,113.4h5.4c-0.6-3.9-1.6-6.3-2.7-6.3S120.1,109.5,119.5,113.4z"/>
	<path class="st1" d="M223.4,113.4h-5.4c0.6-3.9,1.6-6.3,2.7-6.3S222.7,109.5,223.4,113.4z"/>
	<path class="st1" d="M190.2,113.4h-5.4c0.6-3.9,1.6-6.3,2.7-6.3S189.5,109.5,190.2,113.4z"/>
	<path class="st0" d="M160.8,34.4c-1-2.4-1.5-4.8-2.6-6.7c-0.7-1.3-2.3-1.7-3.4-1.7s-2.7,0.4-3.4,1.7c-1,1.9-1.6,4.4-2.6,6.8
		c1.8-1,3.9-1.7,6.1-1.7C157,32.8,159,33.4,160.8,34.4z"/>
	<rect x="76.5" y="110.1" class="st1" width="25" height="1.6"/>
	<rect x="109.7" y="110.1" class="st1" width="25" height="1.6"/>
	<rect x="174.9" y="110.1" class="st1" width="25" height="1.6"/>
	<rect x="208.2" y="110.1" class="st1" width="25" height="1.6"/>
	<polygon class="st1" points="150.8,34.2 151.5,37.1 150.2,38.1 149.5,35.1 	"/>
	<polygon class="st1" points="154.8,36.7 153,36.7 153.3,38.5 154.8,38.5 156.4,38.5 156.6,36.7 	"/>
	<polygon class="st1" points="152.5,36.9 152.8,38.8 151.5,39.8 150.3,38.5 	"/>
	<g>
		<path class="st1" d="M148.5,44.2c-0.3,0.7-0.5,1.4-0.7,2c0.3,0,0.6,0,0.9,0c0.6-2.6,2.8-4.4,2.8-4.4L151,41
			c-0.1,0.1-0.2,0.1-0.3,0.2C149.9,41.9,149.1,42.9,148.5,44.2z"/>
		<path class="st1" d="M148.1,44c0.6-1.3,1.4-2.4,2.3-3.1c0.1-0.1,0.2-0.2,0.3-0.2l0,0l-1.1-1.3c0,0-1.1,1.1-2.1,2.7
			c-1.1,1.6-1.5,4.2-1.5,4.2s0.7,0,1.4,0C147.5,45.4,147.8,44.7,148.1,44z"/>
	</g>
	<polygon class="st1" points="158.9,34.2 158.1,37.1 159.4,38.1 160.1,35.1 	"/>
	<polygon class="st1" points="157.1,36.9 156.9,38.8 158.2,39.8 159.3,38.5 	"/>
	<g>
		<path class="st1" d="M161.1,44.2c0.3,0.7,0.5,1.4,0.7,2c-0.3,0-0.6,0-0.9,0c-0.6-2.6-2.8-4.4-2.8-4.4l0.6-0.8
			c0.1,0.1,0.2,0.1,0.3,0.2C159.8,41.9,160.5,42.9,161.1,44.2z"/>
		<path class="st1" d="M161.5,44c-0.6-1.3-1.4-2.4-2.3-3.1c-0.1-0.1-0.2-0.2-0.3-0.2l0,0l1.1-1.3c0,0,1.1,1.1,2.1,2.7
			c1.1,1.6,1.5,4.2,1.5,4.2s-0.7,0-1.4,0C162.1,45.4,161.9,44.7,161.5,44z"/>
	</g>
</g>
</svg>
