<?xml version="1.0" encoding="UTF-8" standalone="no"?>
<!-- Created with Inkscape (http://www.inkscape.org/) -->

<svg
   xmlns:dc="http://purl.org/dc/elements/1.1/"
   xmlns:cc="http://creativecommons.org/ns#"
   xmlns:rdf="http://www.w3.org/1999/02/22-rdf-syntax-ns#"
   xmlns:svg="http://www.w3.org/2000/svg"
   xmlns="http://www.w3.org/2000/svg"
   xmlns:sodipodi="http://sodipodi.sourceforge.net/DTD/sodipodi-0.dtd"
   xmlns:inkscape="http://www.inkscape.org/namespaces/inkscape"
   width="70"
   height="70"
   viewBox="0 0 70 70.000001"
   id="svg2"
   version="1.1"
   inkscape:version="0.91pre4 r13712"
   sodipodi:docname="shimshon-dark.svg">
  <defs
     id="defs4">
    <clipPath
       id="clipPath4152"
       clipPathUnits="userSpaceOnUse">
      <path
         style="clip-rule:evenodd"
         inkscape:connector-curvature="0"
         id="path4154"
         d="m 23.335,0.7792 c -0.31,0 -0.621,0.173 -0.877,0.485 -0.31,0.378 -0.819,0.998 -0.474,1.604 0.189,0.329 2.3,3.696 2.968,4.761 -0.542,0.417 -1.687,1.317 -2.357,1.987 L 16.806,15.4052 14.59,13.1892 3.12,4.3912 C 3.047,4.3362 2.96,4.3072 2.872,4.3072 c -0.07,0 -0.141,0.019 -0.204,0.055 -0.267,0.154 -1.614,0.942 -1.962,1.289 -0.595,0.596 -0.172,1.111 0.056,1.389 0.153,0.188 3.595,3.859 5.823,6.232 l -0.112,0.111 c -0.526,0.526 -0.979,1.065 -1.278,1.519 -0.291,0.44 -0.578,0.991 -0.227,1.343 0.073,0.072 0.202,0.159 0.406,0.159 0.754,0 2.178,-1.386 2.456,-1.663 l 0.068,-0.068 2.297,2.445 c -0.522,0.522 -0.973,1.059 -1.271,1.513 -0.291,0.44 -0.578,0.991 -0.228,1.342 0.074,0.073 0.202,0.16 0.407,0.16 0.722,0 2.063,-1.276 2.416,-1.625 l 0.906,0.906 c -0.794,0.843 -1.196,1.489 -1.307,1.678 l -5.357,5.358 c -1.407,1.408 -1.889,2.727 -2.174,3.833 -0.073,0.281 -0.203,0.543 -0.329,0.796 -0.118,0.238 -0.229,0.464 -0.294,0.686 -0.097,0.328 0.013,0.693 0.292,0.974 0.1,0.101 0.368,0.329 0.734,0.329 0.081,0 0.162,-0.012 0.24,-0.034 0.224,-0.066 0.451,-0.176 0.69,-0.295 0.253,-0.125 0.514,-0.255 0.795,-0.327 1.105,-0.286 2.425,-0.768 3.833,-2.175 l 5.356,-5.358 c 0.19,-0.111 0.837,-0.512 1.68,-1.306 l 0.905,0.906 c -0.348,0.353 -1.625,1.694 -1.624,2.416 0,0.204 0.087,0.333 0.16,0.405 0.072,0.073 0.202,0.16 0.406,0.16 0.748,0 2.159,-1.369 2.449,-1.659 l 2.446,2.298 -0.069,0.07 c -0.526,0.524 -0.979,1.063 -1.277,1.517 -0.291,0.441 -0.579,0.991 -0.228,1.343 0.073,0.072 0.202,0.159 0.406,0.159 0.753,0 2.178,-1.386 2.456,-1.663 l 0.112,-0.112 c 2.812,2.64 6.056,5.68 6.231,5.823 0.194,0.159 0.437,0.357 0.75,0.357 0.228,0 0.437,-0.099 0.64,-0.303 0.345,-0.346 1.134,-1.694 1.289,-1.96 0.082,-0.143 0.07,-0.322 -0.03,-0.452 l -8.762,-11.431 -2.252,-2.255 5.789,-5.788 c 0.67,-0.671 1.571,-1.817 1.988,-2.359 1.066,0.669 4.432,2.78 4.761,2.968 0.134,0.077 0.281,0.116 0.437,0.116 0.451,0 0.839,-0.321 1.122,-0.555 0.573,-0.468 0.681,-1.034 0.319,-1.479 -0.194,-0.235 -2.852,-3.857 -3.917,-5.311 l -0.031,-0.11 c 0.348,-0.482 0.658,-1.263 0.092,-1.83 -0.202,-0.202 -0.463,-0.308 -0.753,-0.308 -0.432,0 -0.843,0.24 -1.073,0.403 l -0.112,-0.032 c -1.455,-1.066 -5.077,-3.725 -5.313,-3.918 -0.169,-0.138 -0.364,-0.21 -0.566,-0.21" />
    </clipPath>
    <clipPath
       id="clipPath4158"
       clipPathUnits="userSpaceOnUse">
      <path
         inkscape:connector-curvature="0"
         id="path4160"
         d="m -135,-396 375,0 0,667 -375,0 0,-667 z" />
    </clipPath>
    <clipPath
       id="clipPath4168"
       clipPathUnits="userSpaceOnUse">
      <path
         style="clip-rule:evenodd"
         inkscape:connector-curvature="0"
         id="path4170"
         d="m 1.253944e-4,35.9999 35.6238746056,0 0,-35.6277 -35.6238746056,0 0,35.6277 z" />
    </clipPath>
    <clipPath
       id="clipPath4174"
       clipPathUnits="userSpaceOnUse">
      <path
         inkscape:connector-curvature="0"
         id="path4176"
         d="m -135,-396 375,0 0,667 -375,0 0,-667 z" />
    </clipPath>
    <clipPath
       id="clipPath4180"
       clipPathUnits="userSpaceOnUse">
      <path
         inkscape:connector-curvature="0"
         id="path4182"
         d="M -1,0 36,0 36,36 -1,36 -1,0 Z" />
    </clipPath>
    <clipPath
       id="clipPath4184"
       clipPathUnits="userSpaceOnUse">
      <path
         style="clip-rule:evenodd"
         inkscape:connector-curvature="0"
         id="path4186"
         d="m 29.7071,35.9999 c -0.459,0 -0.789,-0.27 -1.008,-0.448 -0.063,-0.053 -0.211,-0.174 -5.967,-5.573 -0.691,0.669 -1.804,1.617 -2.574,1.617 -0.267,0 -0.514,-0.099 -0.693,-0.279 -0.232,-0.231 -0.92,-0.921 1.278,-3.207 l -1.858,-1.745 c -0.696,0.658 -1.729,1.502 -2.454,1.502 -0.268,0 -0.515,-0.098 -0.695,-0.278 -0.227,-0.229 -0.9,-0.901 1.183,-3.106 l -0.348,-0.347 c -0.671,0.594 -1.193,0.933 -1.414,1.067 l -5.322,5.321 c -1.676,1.677 -3.317,2.101 -4.019,2.282 -0.239,0.061 -0.47,0.176 -0.715,0.298 -0.239,0.119 -0.485,0.241 -0.755,0.32 -0.116,0.034 -0.236,0.052 -0.356,0.052 -0.365,0 -0.737,-0.164 -1.021,-0.448 -0.387,-0.387 -0.535,-0.902 -0.396,-1.377 0.08,-0.269 0.202,-0.516 0.321,-0.754 0.122,-0.245 0.237,-0.476 0.298,-0.716 0.181,-0.701 0.605,-2.342 2.281,-4.019 l 5.322,-5.321 c 0.133,-0.222 0.473,-0.744 1.066,-1.414 l -0.347,-0.348 c -0.695,0.651 -1.701,1.461 -2.411,1.461 -0.268,0 -0.514,-0.1 -0.694,-0.279 -0.229,-0.23 -0.909,-0.908 1.223,-3.149 l -1.745,-1.858 c -0.695,0.665 -1.766,1.558 -2.512,1.558 -0.269,0 -0.515,-0.099 -0.694,-0.279 -0.234,-0.233 -0.933,-0.932 1.339,-3.268 -5.401,-5.755 -5.521,-5.903 -5.574,-5.967 -0.586,-0.716 -0.594,-1.367 -0.027,-1.935 0.362,-0.362 1.552,-1.067 2.046,-1.353 0.126,-0.073 0.266,-0.11 0.407,-0.11 0.176,0 0.351,0.057 0.495,0.168 l 11.43,8.763 c 0.028,0.022 0.056,0.046 0.08,0.07 l 1.929,1.929 5.501,-5.501 c 0.58,-0.58 1.502,-1.325 2.104,-1.796 -0.827,-1.32 -2.602,-4.152 -2.78,-4.464 -0.486,-0.849 0.188,-1.668 0.476,-2.018 l 0.036,-0.043 c 0.335,-0.41 0.758,-0.636 1.192,-0.636 0.297,0 0.582,0.105 0.824,0.303 0.216,0.176 3.118,2.308 5.145,3.793 0.282,-0.168 0.674,-0.339 1.096,-0.339 0.4,0 0.76,0.148 1.04,0.429 0.609,0.608 0.496,1.459 0.091,2.138 1.486,2.028 3.616,4.927 3.791,5.143 0.504,0.615 0.367,1.444 -0.332,2.015 l -0.043,0.037 c -0.312,0.256 -0.785,0.645 -1.38,0.645 -0.227,0 -0.442,-0.057 -0.639,-0.169 -0.312,-0.179 -3.144,-1.953 -4.463,-2.781 -0.472,0.602 -1.216,1.525 -1.796,2.105 l -5.501,5.501 1.928,1.928 c 0.025,0.026 0.049,0.052 0.07,0.08 l 8.764,11.43 c 0.2,0.262 0.222,0.618 0.057,0.903 -0.286,0.494 -0.99,1.683 -1.352,2.046 -0.281,0.279 -0.592,0.421 -0.928,0.421 m 0,-0.813 c 0.107,0 0.221,-0.053 0.352,-0.184 0.326,-0.326 1.224,-1.877 1.224,-1.877 l -8.763,-11.43 -2.503,-2.504 6.076,-6.076 c 0.871,-0.871 2.177,-2.613 2.177,-2.613 0,0 4.681,2.939 5.062,3.157 0.076,0.043 0.154,0.062 0.234,0.062 0.325,0 0.669,-0.301 0.909,-0.497 0.299,-0.246 0.462,-0.572 0.217,-0.871 -0.245,-0.299 -3.972,-5.388 -3.972,-5.388 l -0.11,-0.381 c 0,0 0.799,-0.907 0.254,-1.452 -0.137,-0.138 -0.3,-0.19 -0.464,-0.19 -0.482,0 -0.987,0.444 -0.987,0.444 l -0.381,-0.109 c 0,0 -5.089,-3.728 -5.388,-3.973 -0.101,-0.082 -0.206,-0.118 -0.309,-0.118 -0.202,0 -0.399,0.137 -0.562,0.335 -0.245,0.3 -0.653,0.763 -0.435,1.144 0.218,0.381 3.156,5.062 3.156,5.062 0,0 -1.741,1.306 -2.612,2.176 l -6.076,6.076 -2.504,-2.502 -11.43,-8.763 c 0,0 -1.551,0.897 -1.878,1.224 -0.326,0.327 -0.163,0.544 0.082,0.843 0.135,0.165 3.273,3.514 6.074,6.499 l -0.389,0.391 c -1.047,1.047 -1.72,2.069 -1.505,2.285 0.027,0.027 0.067,0.041 0.119,0.041 0.355,-10e-4 1.252,-0.63 2.167,-1.545 l 0.365,-0.365 c 1.154,1.227 2.19,2.331 2.855,3.039 l -0.273,0.273 c -1.047,1.046 -1.72,2.07 -1.505,2.286 0.028,0.027 0.068,0.04 0.119,0.04 0.355,0 1.252,-0.63 2.167,-1.544 l 0.249,-0.249 0.007,0.007 1.47,1.47 c -1.102,1.102 -1.552,1.932 -1.552,1.932 0,0 -3.327,3.328 -5.395,5.396 -1.443,1.443 -1.851,2.803 -2.069,3.647 -0.15,0.583 -0.493,1.046 -0.626,1.496 -0.068,0.231 0.069,0.449 0.191,0.572 0.1,0.1 0.263,0.208 0.445,0.208 0.041,0 0.083,-0.005 0.126,-0.017 0.451,-0.133 0.913,-0.476 1.497,-0.626 0.844,-0.218 2.204,-0.626 3.647,-2.069 2.068,-2.068 5.396,-5.395 5.396,-5.395 0,0 0.829,-0.45 1.932,-1.552 l 1.47,1.47 c 0,0 0.003,0.002 0.007,0.007 l -0.249,0.249 c -1.047,1.046 -1.719,2.07 -1.504,2.285 0.027,0.027 0.067,0.041 0.119,0.041 0.355,0 1.252,-0.63 2.167,-1.545 l 0.273,-0.274 c 0.708,0.666 1.812,1.702 3.039,2.855 l -0.365,0.366 c -1.047,1.047 -1.721,2.069 -1.505,2.285 0.027,0.028 0.067,0.04 0.118,0.04 0.356,0 1.253,-0.629 2.168,-1.544 l 0.39,-0.39 c 2.986,2.802 6.335,5.94 6.499,6.075 0.18,0.146 0.33,0.265 0.492,0.265" />
    </clipPath>
    <clipPath
       id="clipPath4188"
       clipPathUnits="userSpaceOnUse">
      <path
         inkscape:connector-curvature="0"
         id="path4190"
         d="M 0,0 36,0 36,36 0,36 0,0 Z" />
    </clipPath>
    <clipPath
       id="clipPath4210"
       clipPathUnits="userSpaceOnUse">
      <path
         style="clip-rule:evenodd"
         inkscape:connector-curvature="0"
         id="path4212"
         d="m 5.6622,14.9423 0.609,0.609 c -0.505,0.362 -0.891,0.53 -1.015,0.406 -0.123,-0.123 0.045,-0.51 0.406,-1.015" />
    </clipPath>
    <clipPath
       id="clipPath4216"
       clipPathUnits="userSpaceOnUse">
      <path
         inkscape:connector-curvature="0"
         id="path4218"
         d="m -135,-396 375,0 0,667 -375,0 0,-667 z" />
    </clipPath>
    <clipPath
       id="clipPath4226"
       clipPathUnits="userSpaceOnUse">
      <path
         style="clip-rule:evenodd"
         inkscape:connector-curvature="0"
         id="path4228"
         d="m 9.3897,18.6708 0.609,0.609 c -0.504,0.362 -0.891,0.529 -1.014,0.406 -0.123,-0.123 0.044,-0.511 0.405,-1.015" />
    </clipPath>
    <clipPath
       id="clipPath4232"
       clipPathUnits="userSpaceOnUse">
      <path
         inkscape:connector-curvature="0"
         id="path4234"
         d="m -135,-396 375,0 0,667 -375,0 0,-667 z" />
    </clipPath>
    <clipPath
       id="clipPath4242"
       clipPathUnits="userSpaceOnUse">
      <path
         style="clip-rule:evenodd"
         inkscape:connector-curvature="0"
         id="path4244"
         d="m 21.0557,30.3359 -0.61,-0.609 c -0.361,0.504 -0.529,0.891 -0.406,1.014 0.124,0.123 0.511,-0.044 1.016,-0.405" />
    </clipPath>
    <clipPath
       id="clipPath4248"
       clipPathUnits="userSpaceOnUse">
      <path
         inkscape:connector-curvature="0"
         id="path4250"
         d="m -135,-396 375,0 0,667 -375,0 0,-667 z" />
    </clipPath>
    <clipPath
       id="clipPath4258"
       clipPathUnits="userSpaceOnUse">
      <path
         style="clip-rule:evenodd"
         inkscape:connector-curvature="0"
         id="path4260"
         d="m 17.3272,26.6074 -0.609,-0.609 c -0.362,0.505 -0.53,0.891 -0.406,1.014 0.123,0.124 0.51,-0.044 1.015,-0.405" />
    </clipPath>
    <clipPath
       id="clipPath4264"
       clipPathUnits="userSpaceOnUse">
      <path
         inkscape:connector-curvature="0"
         id="path4266"
         d="m -135,-396 375,0 0,667 -375,0 0,-667 z" />
    </clipPath>
    <clipPath
       id="clipPath4274"
       clipPathUnits="userSpaceOnUse">
      <path
         style="clip-rule:evenodd"
         inkscape:connector-curvature="0"
         id="path4276"
         d="m 5.1553,32.1777 c -0.38,0.164 -0.713,0.369 -1.039,0.466 -0.232,0.067 -0.449,-0.069 -0.571,-0.191 -0.122,-0.123 -0.259,-0.34 -0.191,-0.572 0.098,-0.331 0.309,-0.67 0.474,-1.058 0.083,0.318 0.248,0.619 0.497,0.868 0.239,0.239 0.526,0.401 0.83,0.487" />
    </clipPath>
    <clipPath
       id="clipPath4280"
       clipPathUnits="userSpaceOnUse">
      <path
         inkscape:connector-curvature="0"
         id="path4282"
         d="m -135,-396 375,0 0,667 -375,0 0,-667 z" />
    </clipPath>
    <clipPath
       id="clipPath4290"
       clipPathUnits="userSpaceOnUse">
      <path
         style="clip-rule:evenodd"
         inkscape:connector-curvature="0"
         id="path4292"
         d="m 7.1807,16.8398 -2.807,-2.807 -0.176,0.177 2.806,2.807 0.177,-0.177 z" />
    </clipPath>
    <clipPath
       id="clipPath4296"
       clipPathUnits="userSpaceOnUse">
      <path
         inkscape:connector-curvature="0"
         id="path4298"
         d="m -135,-396 375,0 0,667 -375,0 0,-667 z" />
    </clipPath>
    <clipPath
       id="clipPath4306"
       clipPathUnits="userSpaceOnUse">
      <path
         style="clip-rule:evenodd"
         inkscape:connector-curvature="0"
         id="path4308"
         d="m 10.9092,20.5683 -2.807,-2.807 -0.177,0.177 2.806,2.807 0.178,-0.177 z" />
    </clipPath>
    <clipPath
       id="clipPath4312"
       clipPathUnits="userSpaceOnUse">
      <path
         inkscape:connector-curvature="0"
         id="path4314"
         d="m -135,-396 375,0 0,667 -375,0 0,-667 z" />
    </clipPath>
    <clipPath
       id="clipPath4322"
       clipPathUnits="userSpaceOnUse">
      <path
         style="clip-rule:evenodd"
         inkscape:connector-curvature="0"
         id="path4324"
         d="m 18.2364,27.8955 -2.807,-2.807 -0.176,0.177 2.806,2.807 0.177,-0.177 z" />
    </clipPath>
    <clipPath
       id="clipPath4328"
       clipPathUnits="userSpaceOnUse">
      <path
         inkscape:connector-curvature="0"
         id="path4330"
         d="m -135,-396 375,0 0,667 -375,0 0,-667 z" />
    </clipPath>
    <clipPath
       id="clipPath4338"
       clipPathUnits="userSpaceOnUse">
      <path
         style="clip-rule:evenodd"
         inkscape:connector-curvature="0"
         id="path4340"
         d="m 21.9649,31.624 -2.807,-2.807 -0.177,0.177 2.807,2.807 0.177,-0.177 z" />
    </clipPath>
    <clipPath
       id="clipPath4344"
       clipPathUnits="userSpaceOnUse">
      <path
         inkscape:connector-curvature="0"
         id="path4346"
         d="m -135,-396 375,0 0,667 -375,0 0,-667 z" />
    </clipPath>
    <clipPath
       id="clipPath4354"
       clipPathUnits="userSpaceOnUse">
      <path
         style="clip-rule:evenodd"
         inkscape:connector-curvature="0"
         id="path4356"
         d="m 4.0167,31.0742 0.408,-0.245 -0.036,-0.254 -0.417,0.254 0.045,0.245 z" />
    </clipPath>
    <clipPath
       id="clipPath4360"
       clipPathUnits="userSpaceOnUse">
      <path
         inkscape:connector-curvature="0"
         id="path4362"
         d="m -135,-396 375,0 0,667 -375,0 0,-667 z" />
    </clipPath>
    <clipPath
       id="clipPath4370"
       clipPathUnits="userSpaceOnUse">
      <path
         style="clip-rule:evenodd"
         inkscape:connector-curvature="0"
         id="path4372"
         d="m 4.7462,31.2519 -0.194,-0.205 0.226,-0.173 0.173,0.173 0.172,0.172 -0.172,0.227 -0.205,-0.194 z" />
    </clipPath>
    <clipPath
       id="clipPath4376"
       clipPathUnits="userSpaceOnUse">
      <path
         inkscape:connector-curvature="0"
         id="path4378"
         d="m -135,-396 375,0 0,667 -375,0 0,-667 z" />
    </clipPath>
    <clipPath
       id="clipPath4386"
       clipPathUnits="userSpaceOnUse">
      <path
         style="clip-rule:evenodd"
         inkscape:connector-curvature="0"
         id="path4388"
         d="m 4.5079,30.9658 0.245,-0.184 -0.034,-0.257 -0.273,0.02 0.062,0.421 z" />
    </clipPath>
    <clipPath
       id="clipPath4392"
       clipPathUnits="userSpaceOnUse">
      <path
         inkscape:connector-curvature="0"
         id="path4394"
         d="m -135,-396 375,0 0,667 -375,0 0,-667 z" />
    </clipPath>
    <clipPath
       id="clipPath4402"
       clipPathUnits="userSpaceOnUse">
      <path
         style="clip-rule:evenodd"
         inkscape:connector-curvature="0"
         id="path4404"
         d="m 4.8819,29.705 c 0.041,-0.11 0.093,-0.211 0.151,-0.3 l 0.1,0.1 c -0.228,0.362 -0.178,0.811 -0.178,0.811 l -0.153,0.022 c -0.004,-0.019 -0.008,-0.036 -0.01,-0.056 -0.017,-0.17 0.014,-0.374 0.09,-0.577" />
    </clipPath>
    <clipPath
       id="clipPath4408"
       clipPathUnits="userSpaceOnUse">
      <path
         inkscape:connector-curvature="0"
         id="path4410"
         d="m -135,-396 375,0 0,667 -375,0 0,-667 z" />
    </clipPath>
    <clipPath
       id="clipPath4418"
       clipPathUnits="userSpaceOnUse">
      <path
         style="clip-rule:evenodd"
         inkscape:connector-curvature="0"
         id="path4420"
         d="m 4.8096,29.6777 c -0.08,0.214 -0.113,0.432 -0.094,0.612 0.002,0.021 0.005,0.039 0.009,0.059 l -0.274,0.02 c 0,0 0.002,-0.248 0.065,-0.546 0.064,-0.3 0.304,-0.631 0.304,-0.631 l 0.158,0.158 c -0.065,0.097 -0.123,0.208 -0.168,0.328" />
    </clipPath>
    <clipPath
       id="clipPath4424"
       clipPathUnits="userSpaceOnUse">
      <path
         inkscape:connector-curvature="0"
         id="path4426"
         d="m -135,-396 375,0 0,667 -375,0 0,-667 z" />
    </clipPath>
    <clipPath
       id="clipPath4434"
       clipPathUnits="userSpaceOnUse">
      <path
         style="clip-rule:evenodd"
         inkscape:connector-curvature="0"
         id="path4436"
         d="m 4.9239,31.9814 0.245,-0.408 0.254,0.036 -0.254,0.417 -0.245,-0.045 z" />
    </clipPath>
    <clipPath
       id="clipPath4440"
       clipPathUnits="userSpaceOnUse">
      <path
         inkscape:connector-curvature="0"
         id="path4442"
         d="m -135,-396 375,0 0,667 -375,0 0,-667 z" />
    </clipPath>
    <clipPath
       id="clipPath4450"
       clipPathUnits="userSpaceOnUse">
      <path
         style="clip-rule:evenodd"
         inkscape:connector-curvature="0"
         id="path4452"
         d="m 5.0313,31.4902 0.184,-0.245 0.258,0.034 -0.02,0.273 -0.422,-0.062 z" />
    </clipPath>
    <clipPath
       id="clipPath4456"
       clipPathUnits="userSpaceOnUse">
      <path
         inkscape:connector-curvature="0"
         id="path4458"
         d="m -135,-396 375,0 0,667 -375,0 0,-667 z" />
    </clipPath>
    <clipPath
       id="clipPath4466"
       clipPathUnits="userSpaceOnUse">
      <path
         style="clip-rule:evenodd"
         inkscape:connector-curvature="0"
         id="path4468"
         d="m 6.293,31.1162 c 0.109,-0.041 0.211,-0.093 0.3,-0.151 -0.037,-0.037 -0.073,-0.073 -0.1,-0.1 -0.363,0.227 -0.811,0.177 -0.811,0.177 l -0.022,0.154 c 0.018,0.003 0.036,0.007 0.056,0.009 0.169,0.018 0.374,-0.013 0.577,-0.089" />
    </clipPath>
    <clipPath
       id="clipPath4472"
       clipPathUnits="userSpaceOnUse">
      <path
         inkscape:connector-curvature="0"
         id="path4474"
         d="m -135,-396 375,0 0,667 -375,0 0,-667 z" />
    </clipPath>
    <clipPath
       id="clipPath4482"
       clipPathUnits="userSpaceOnUse">
      <path
         style="clip-rule:evenodd"
         inkscape:connector-curvature="0"
         id="path4484"
         d="m 6.3194,31.1884 c -0.214,0.08 -0.431,0.113 -0.612,0.094 -0.02,-0.003 -0.039,-0.006 -0.058,-0.009 l -0.02,0.274 c 0,0 0.247,-0.002 0.546,-0.065 0.299,-0.064 0.63,-0.304 0.63,-0.304 0,0 -0.075,-0.076 -0.158,-0.158 -0.096,0.064 -0.207,0.122 -0.328,0.168" />
    </clipPath>
    <clipPath
       id="clipPath4488"
       clipPathUnits="userSpaceOnUse">
      <path
         inkscape:connector-curvature="0"
         id="path4490"
         d="m -135,-396 375,0 0,667 -375,0 0,-667 z" />
    </clipPath>
    <filter
       inkscape:collect="always"
       style="color-interpolation-filters:sRGB"
       id="filter4851"
       x="-0.24"
       width="1.48"
       y="-0.24"
       height="1.48">
      <feGaussianBlur
         inkscape:collect="always"
         stdDeviation="6.4525028"
         id="feGaussianBlur4853" />
    </filter>
  </defs>
  <sodipodi:namedview
     id="base"
     pagecolor="#ffffff"
     bordercolor="#666666"
     borderopacity="1.0"
     inkscape:pageopacity="0.0"
     inkscape:pageshadow="2"
     inkscape:zoom="3.959798"
     inkscape:cx="16.963857"
     inkscape:cy="49.280612"
     inkscape:document-units="px"
     inkscape:current-layer="layer1"
     showgrid="false"
     units="px"
     inkscape:window-width="1280"
     inkscape:window-height="961"
     inkscape:window-x="-8"
     inkscape:window-y="-8"
     inkscape:window-maximized="1" />
  <metadata
     id="metadata7">
    <rdf:RDF>
      <cc:Work
         rdf:about="">
        <dc:format>image/svg+xml</dc:format>
        <dc:type
           rdf:resource="http://purl.org/dc/dcmitype/StillImage" />
        <dc:title></dc:title>
      </cc:Work>
    </rdf:RDF>
  </metadata>
  <g
     inkscape:label="Layer 1"
     inkscape:groupmode="layer"
     id="layer1"
     transform="translate(0,-982.36216)">
    <g
       id="g4669"
       inkscape:label="shimshon"
       transform="matrix(0.88388348,0.88388348,0.88388348,-0.88388348,3.1818634,1017.6927)"
       style="fill:#000000;fill-opacity:1;filter:url(#filter4851);opacity:0.5">
      <g
         id="g4671"
         style="fill:#000000;fill-opacity:1" />
      <g
         id="g4673"
         style="fill:#000000;fill-opacity:1">
        <g
           id="g4675"
           clip-path="url(#clipPath4152)"
           style="fill:#000000;fill-opacity:1">
          <g
             id="g4677"
             clip-path="url(#clipPath4158)"
             style="fill:#000000;fill-opacity:1">
            <path
               d="m -4.597879,-4.2208 44.81528,0 0,44.814 -44.81528,0 0,-44.814 z"
               style="fill:#000000;fill-opacity:1;fill-rule:nonzero;stroke:none"
               id="path4679"
               inkscape:connector-curvature="0" />
          </g>
        </g>
      </g>
      <g
         id="g4681"
         style="fill:#000000;fill-opacity:1">
        <g
           id="g4683"
           clip-path="url(#clipPath4168)"
           style="fill:#000000;fill-opacity:1">
          <g
             id="g4685"
             clip-path="url(#clipPath4174)"
             style="fill:#000000;fill-opacity:1">
            <g
               id="g4687"
               style="fill:#000000;fill-opacity:1" />
            <g
               id="g4689"
               style="fill:#000000;fill-opacity:1">
              <g
                 clip-path="url(#clipPath4180)"
                 id="g4691"
                 style="fill:#000000;fill-opacity:1">
                <g
                   id="g4693"
                   style="fill:#000000;fill-opacity:1" />
                <g
                   id="g4695"
                   style="fill:#000000;fill-opacity:1">
                  <g
                     clip-path="url(#clipPath4184)"
                     id="g4697"
                     style="fill:#000000;fill-opacity:1">
                    <g
                       clip-path="url(#clipPath4188)"
                       id="g4699"
                       style="fill:#000000;fill-opacity:1">
                      <path
                         d="m -4.999875,-4.6281 45.62417,0 0,45.628 -45.62417,0 0,-45.628 z"
                         style="fill:#000000;fill-opacity:1;fill-rule:nonzero;stroke:none"
                         id="path4701"
                         inkscape:connector-curvature="0" />
                    </g>
                  </g>
                </g>
              </g>
            </g>
          </g>
        </g>
      </g>
      <g
         id="g4703"
         style="fill:#000000;fill-opacity:1">
        <g
           id="g4705"
           clip-path="url(#clipPath4210)"
           style="fill:#000000;fill-opacity:1">
          <g
             id="g4707"
             clip-path="url(#clipPath4216)"
             style="fill:#000000;fill-opacity:1">
            <path
               d="m 0.2162295,9.9423 11.0549705,0 0,11.05549 -11.0549705,0 0,-11.05549 z"
               style="fill:#000000;fill-opacity:1;fill-rule:nonzero;stroke:none"
               id="path4709"
               inkscape:connector-curvature="0" />
          </g>
        </g>
      </g>
      <g
         id="g4711"
         style="fill:#000000;fill-opacity:1">
        <g
           id="g4713"
           clip-path="url(#clipPath4226)"
           style="fill:#000000;fill-opacity:1">
          <g
             id="g4715"
             clip-path="url(#clipPath4232)"
             style="fill:#000000;fill-opacity:1">
            <path
               d="m 3.944606,13.6708 11.05409,0 0,11.05508 -11.05409,0 0,-11.05508 z"
               style="fill:#000000;fill-opacity:1;fill-rule:nonzero;stroke:none"
               id="path4717"
               inkscape:connector-curvature="0" />
          </g>
        </g>
      </g>
      <g
         id="g4719"
         style="fill:#000000;fill-opacity:1">
        <g
           id="g4721"
           clip-path="url(#clipPath4242)"
           style="fill:#000000;fill-opacity:1">
          <g
             id="g4723"
             clip-path="url(#clipPath4248)"
             style="fill:#000000;fill-opacity:1">
            <path
               d="m 14.99973,24.7269 11.05597,0 0,11.05409 -11.05597,0 0,-11.05409 z"
               style="fill:#000000;fill-opacity:1;fill-rule:nonzero;stroke:none"
               id="path4725"
               inkscape:connector-curvature="0" />
          </g>
        </g>
      </g>
      <g
         id="g4727"
         style="fill:#000000;fill-opacity:1">
        <g
           id="g4729"
           clip-path="url(#clipPath4258)"
           style="fill:#000000;fill-opacity:1">
          <g
             id="g4731"
             clip-path="url(#clipPath4264)"
             style="fill:#000000;fill-opacity:1">
            <path
               d="m 11.27171,20.9984 11.05549,0 0,11.0545 -11.05549,0 0,-11.0545 z"
               style="fill:#000000;fill-opacity:1;fill-rule:nonzero;stroke:none"
               id="path4733"
               inkscape:connector-curvature="0" />
          </g>
        </g>
      </g>
      <g
         id="g4735"
         style="fill:#000000;fill-opacity:1">
        <g
           id="g4737"
           clip-path="url(#clipPath4274)"
           style="fill:#000000;fill-opacity:1">
          <g
             id="g4739"
             clip-path="url(#clipPath4280)"
             style="fill:#000000;fill-opacity:1">
            <path
               d="m -1.663785,25.8227 11.81909,0 0,11.83872 -11.81909,0 0,-11.83872 z"
               style="fill:#000000;fill-opacity:1;fill-rule:nonzero;stroke:none"
               id="path4741"
               inkscape:connector-curvature="0" />
          </g>
        </g>
      </g>
      <g
         id="g4743"
         style="fill:#000000;fill-opacity:1">
        <g
           id="g4745"
           clip-path="url(#clipPath4290)"
           style="fill:#000000;fill-opacity:1">
          <g
             id="g4747"
             clip-path="url(#clipPath4296)"
             style="fill:#000000;fill-opacity:1">
            <path
               d="m -0.8023,9.0328 12.983,0 0,12.984 -12.983,0 0,-12.984 z"
               style="fill:#000000;fill-opacity:1;fill-rule:nonzero;stroke:none"
               id="path4749"
               inkscape:connector-curvature="0" />
          </g>
        </g>
      </g>
      <g
         id="g4751"
         style="fill:#000000;fill-opacity:1">
        <g
           id="g4753"
           clip-path="url(#clipPath4306)"
           style="fill:#000000;fill-opacity:1">
          <g
             id="g4755"
             clip-path="url(#clipPath4312)"
             style="fill:#000000;fill-opacity:1">
            <path
               d="m 2.9252,12.7613 12.984,0 0,12.984 -12.984,0 0,-12.984 z"
               style="fill:#000000;fill-opacity:1;fill-rule:nonzero;stroke:none"
               id="path4757"
               inkscape:connector-curvature="0" />
          </g>
        </g>
      </g>
      <g
         id="g4759"
         style="fill:#000000;fill-opacity:1">
        <g
           id="g4761"
           clip-path="url(#clipPath4322)"
           style="fill:#000000;fill-opacity:1">
          <g
             id="g4763"
             clip-path="url(#clipPath4328)"
             style="fill:#000000;fill-opacity:1">
            <path
               d="m 10.2534,20.0885 12.983,0 0,12.984 -12.983,0 0,-12.984 z"
               style="fill:#000000;fill-opacity:1;fill-rule:nonzero;stroke:none"
               id="path4765"
               inkscape:connector-curvature="0" />
          </g>
        </g>
      </g>
      <g
         id="g4767"
         style="fill:#000000;fill-opacity:1">
        <g
           id="g4769"
           clip-path="url(#clipPath4338)"
           style="fill:#000000;fill-opacity:1">
          <g
             id="g4771"
             clip-path="url(#clipPath4344)"
             style="fill:#000000;fill-opacity:1">
            <path
               d="m 13.9809,23.817 12.984,0 0,12.984 -12.984,0 0,-12.984 z"
               style="fill:#000000;fill-opacity:1;fill-rule:nonzero;stroke:none"
               id="path4773"
               inkscape:connector-curvature="0" />
          </g>
        </g>
      </g>
      <g
         id="g4775"
         style="fill:#000000;fill-opacity:1">
        <g
           id="g4777"
           clip-path="url(#clipPath4354)"
           style="fill:#000000;fill-opacity:1">
          <g
             id="g4779"
             clip-path="url(#clipPath4360)"
             style="fill:#000000;fill-opacity:1">
            <path
               d="m -1.0283,25.5752 10.453,0 0,10.499 -10.453,0 0,-10.499 z"
               style="fill:#000000;fill-opacity:1;fill-rule:nonzero;stroke:none"
               id="path4781"
               inkscape:connector-curvature="0" />
          </g>
        </g>
      </g>
      <g
         id="g4783"
         style="fill:#000000;fill-opacity:1">
        <g
           id="g4785"
           clip-path="url(#clipPath4370)"
           style="fill:#000000;fill-opacity:1">
          <g
             id="g4787"
             clip-path="url(#clipPath4376)"
             style="fill:#000000;fill-opacity:1">
            <path
               d="m -0.4478,25.8739 10.571,0 0,10.572 -10.571,0 0,-10.572 z"
               style="fill:#000000;fill-opacity:1;fill-rule:nonzero;stroke:none"
               id="path4789"
               inkscape:connector-curvature="0" />
          </g>
        </g>
      </g>
      <g
         id="g4791"
         style="fill:#000000;fill-opacity:1">
        <g
           id="g4793"
           clip-path="url(#clipPath4386)"
           style="fill:#000000;fill-opacity:1">
          <g
             id="g4795"
             clip-path="url(#clipPath4392)"
             style="fill:#000000;fill-opacity:1">
            <path
               d="m -0.5541,25.5248 10.307,0 0,10.441 -10.307,0 0,-10.441 z"
               style="fill:#000000;fill-opacity:1;fill-rule:nonzero;stroke:none"
               id="path4797"
               inkscape:connector-curvature="0" />
          </g>
        </g>
      </g>
      <g
         id="g4799"
         style="fill:#000000;fill-opacity:1">
        <g
           id="g4801"
           clip-path="url(#clipPath4402)"
           style="fill:#000000;fill-opacity:1">
          <g
             id="g4803"
             clip-path="url(#clipPath4408)"
             style="fill:#000000;fill-opacity:1">
            <path
               d="m -0.2126324,24.405 10.3455304,0 0,10.933 -10.3455304,0 0,-10.933 z"
               style="fill:#000000;fill-opacity:1;fill-rule:nonzero;stroke:none"
               id="path4805"
               inkscape:connector-curvature="0" />
          </g>
        </g>
      </g>
      <g
         id="g4807"
         style="fill:#000000;fill-opacity:1">
        <g
           id="g4809"
           clip-path="url(#clipPath4418)"
           style="fill:#000000;fill-opacity:1">
          <g
             id="g4811"
             clip-path="url(#clipPath4424)"
             style="fill:#000000;fill-opacity:1">
            <path
               d="m -0.5494,24.1917 10.527,0 0,11.177 -10.527,0 0,-11.177 z"
               style="fill:#000000;fill-opacity:1;fill-rule:nonzero;stroke:none"
               id="path4813"
               inkscape:connector-curvature="0" />
          </g>
        </g>
      </g>
      <g
         id="g4815"
         style="fill:#000000;fill-opacity:1">
        <g
           id="g4817"
           clip-path="url(#clipPath4434)"
           style="fill:#000000;fill-opacity:1">
          <g
             id="g4819"
             clip-path="url(#clipPath4440)"
             style="fill:#000000;fill-opacity:1">
            <path
               d="m -0.0761,26.5734 10.499,0 0,10.453 -10.499,0 0,-10.453 z"
               style="fill:#000000;fill-opacity:1;fill-rule:nonzero;stroke:none"
               id="path4821"
               inkscape:connector-curvature="0" />
          </g>
        </g>
      </g>
      <g
         id="g4823"
         style="fill:#000000;fill-opacity:1">
        <g
           id="g4825"
           clip-path="url(#clipPath4450)"
           style="fill:#000000;fill-opacity:1">
          <g
             id="g4827"
             clip-path="url(#clipPath4456)"
             style="fill:#000000;fill-opacity:1">
            <path
               d="m 0.0313,26.2452 10.442,0 0,10.307 -10.442,0 0,-10.307 z"
               style="fill:#000000;fill-opacity:1;fill-rule:nonzero;stroke:none"
               id="path4829"
               inkscape:connector-curvature="0" />
          </g>
        </g>
      </g>
      <g
         id="g4831"
         style="fill:#000000;fill-opacity:1">
        <g
           id="g4833"
           clip-path="url(#clipPath4466)"
           style="fill:#000000;fill-opacity:1">
          <g
             id="g4835"
             clip-path="url(#clipPath4472)"
             style="fill:#000000;fill-opacity:1">
            <path
               d="m 0.66,25.8652 10.933,0 0,10.34498 -10.933,0 0,-10.34498 z"
               style="fill:#000000;fill-opacity:1;fill-rule:nonzero;stroke:none"
               id="path4837"
               inkscape:connector-curvature="0" />
          </g>
        </g>
      </g>
      <g
         id="g4839"
         style="fill:#000000;fill-opacity:1">
        <g
           id="g4841"
           clip-path="url(#clipPath4482)"
           style="fill:#000000;fill-opacity:1">
          <g
             id="g4843"
             clip-path="url(#clipPath4488)"
             style="fill:#000000;fill-opacity:1">
            <path
               d="m 0.6294,26.0204 11.176,0 0,10.527 -11.176,0 0,-10.527 z"
               style="fill:#000000;fill-opacity:1;fill-rule:nonzero;stroke:none"
               id="path4845"
               inkscape:connector-curvature="0" />
          </g>
        </g>
      </g>
    </g>
    <g
       transform="matrix(0.88388348,0.88388348,0.88388348,-0.88388348,3.1818634,1017.6927)"
       inkscape:label="shimshon"
       id="g4144">
      <g
         id="g4146" />
      <g
         id="g4148">
        <g
           clip-path="url(#clipPath4152)"
           id="g4150">
          <g
             clip-path="url(#clipPath4158)"
             id="g4156">
            <path
               inkscape:connector-curvature="0"
               id="path4162"
               style="fill:#717f79;fill-opacity:1;fill-rule:nonzero;stroke:none"
               d="m -4.597879,-4.2208 44.81528,0 0,44.814 -44.81528,0 0,-44.814 z" />
          </g>
        </g>
      </g>
      <g
         id="g4164">
        <g
           clip-path="url(#clipPath4168)"
           id="g4166">
          <g
             clip-path="url(#clipPath4174)"
             id="g4172">
            <g
               id="g4178" />
            <g
               id="g4192">
              <g
                 id="g4194"
                 clip-path="url(#clipPath4180)">
                <g
                   id="g4196" />
                <g
                   id="g4198">
                  <g
                     id="g4200"
                     clip-path="url(#clipPath4184)">
                    <g
                       id="g4202"
                       clip-path="url(#clipPath4188)">
                      <path
                         inkscape:connector-curvature="0"
                         id="path4204"
                         style="fill:#4d4d4d;fill-opacity:1;fill-rule:nonzero;stroke:none"
                         d="m -4.999875,-4.6281 45.62417,0 0,45.628 -45.62417,0 0,-45.628 z" />
                    </g>
                  </g>
                </g>
              </g>
            </g>
          </g>
        </g>
      </g>
      <g
         id="g4206">
        <g
           clip-path="url(#clipPath4210)"
           id="g4208">
          <g
             clip-path="url(#clipPath4216)"
             id="g4214">
            <path
               inkscape:connector-curvature="0"
               id="path4220"
               style="fill:#4d4d4d;fill-opacity:1;fill-rule:nonzero;stroke:none"
               d="m 0.2162295,9.9423 11.0549705,0 0,11.05549 -11.0549705,0 0,-11.05549 z" />
          </g>
        </g>
      </g>
      <g
         id="g4222">
        <g
           clip-path="url(#clipPath4226)"
           id="g4224">
          <g
             clip-path="url(#clipPath4232)"
             id="g4230">
            <path
               inkscape:connector-curvature="0"
               id="path4236"
               style="fill:#4d4d4d;fill-opacity:1;fill-rule:nonzero;stroke:none"
               d="m 3.944606,13.6708 11.05409,0 0,11.05508 -11.05409,0 0,-11.05508 z" />
          </g>
        </g>
      </g>
      <g
         id="g4238">
        <g
           clip-path="url(#clipPath4242)"
           id="g4240">
          <g
             clip-path="url(#clipPath4248)"
             id="g4246">
            <path
               inkscape:connector-curvature="0"
               id="path4252"
               style="fill:#4d4d4d;fill-opacity:1;fill-rule:nonzero;stroke:none"
               d="m 14.99973,24.7269 11.05597,0 0,11.05409 -11.05597,0 0,-11.05409 z" />
          </g>
        </g>
      </g>
      <g
         id="g4254">
        <g
           clip-path="url(#clipPath4258)"
           id="g4256">
          <g
             clip-path="url(#clipPath4264)"
             id="g4262">
            <path
               inkscape:connector-curvature="0"
               id="path4268"
               style="fill:#4d4d4d;fill-opacity:1;fill-rule:nonzero;stroke:none"
               d="m 11.27171,20.9984 11.05549,0 0,11.0545 -11.05549,0 0,-11.0545 z" />
          </g>
        </g>
      </g>
      <g
         id="g4270">
        <g
           clip-path="url(#clipPath4274)"
           id="g4272">
          <g
             clip-path="url(#clipPath4280)"
             id="g4278">
            <path
               inkscape:connector-curvature="0"
               id="path4284"
               style="fill:#66756f;fill-opacity:1;fill-rule:nonzero;stroke:none"
               d="m -1.663785,25.8227 11.81909,0 0,11.83872 -11.81909,0 0,-11.83872 z" />
          </g>
        </g>
      </g>
      <g
         id="g4286">
        <g
           clip-path="url(#clipPath4290)"
           id="g4288">
          <g
             clip-path="url(#clipPath4296)"
             id="g4294">
            <path
               inkscape:connector-curvature="0"
               id="path4300"
               style="fill:#4d4d4d;fill-opacity:1;fill-rule:nonzero;stroke:none"
               d="m -0.8023,9.0328 12.983,0 0,12.984 -12.983,0 0,-12.984 z" />
          </g>
        </g>
      </g>
      <g
         id="g4302">
        <g
           clip-path="url(#clipPath4306)"
           id="g4304">
          <g
             clip-path="url(#clipPath4312)"
             id="g4310">
            <path
               inkscape:connector-curvature="0"
               id="path4316"
               style="fill:#4d4d4d;fill-opacity:1;fill-rule:nonzero;stroke:none"
               d="m 2.9252,12.7613 12.984,0 0,12.984 -12.984,0 0,-12.984 z" />
          </g>
        </g>
      </g>
      <g
         id="g4318">
        <g
           clip-path="url(#clipPath4322)"
           id="g4320">
          <g
             clip-path="url(#clipPath4328)"
             id="g4326">
            <path
               inkscape:connector-curvature="0"
               id="path4332"
               style="fill:#4d4d4d;fill-opacity:1;fill-rule:nonzero;stroke:none"
               d="m 10.2534,20.0885 12.983,0 0,12.984 -12.983,0 0,-12.984 z" />
          </g>
        </g>
      </g>
      <g
         id="g4334">
        <g
           clip-path="url(#clipPath4338)"
           id="g4336">
          <g
             clip-path="url(#clipPath4344)"
             id="g4342">
            <path
               inkscape:connector-curvature="0"
               id="path4348"
               style="fill:#4d4d4d;fill-opacity:1;fill-rule:nonzero;stroke:none"
               d="m 13.9809,23.817 12.984,0 0,12.984 -12.984,0 0,-12.984 z" />
          </g>
        </g>
      </g>
      <g
         id="g4350">
        <g
           clip-path="url(#clipPath4354)"
           id="g4352">
          <g
             clip-path="url(#clipPath4360)"
             id="g4358">
            <path
               inkscape:connector-curvature="0"
               id="path4364"
               style="fill:#4d4d4d;fill-opacity:1;fill-rule:nonzero;stroke:none"
               d="m -1.0283,25.5752 10.453,0 0,10.499 -10.453,0 0,-10.499 z" />
          </g>
        </g>
      </g>
      <g
         id="g4366">
        <g
           clip-path="url(#clipPath4370)"
           id="g4368">
          <g
             clip-path="url(#clipPath4376)"
             id="g4374">
            <path
               inkscape:connector-curvature="0"
               id="path4380"
               style="fill:#4d4d4d;fill-opacity:1;fill-rule:nonzero;stroke:none"
               d="m -0.4478,25.8739 10.571,0 0,10.572 -10.571,0 0,-10.572 z" />
          </g>
        </g>
      </g>
      <g
         id="g4382">
        <g
           clip-path="url(#clipPath4386)"
           id="g4384">
          <g
             clip-path="url(#clipPath4392)"
             id="g4390">
            <path
               inkscape:connector-curvature="0"
               id="path4396"
               style="fill:#4d4d4d;fill-opacity:1;fill-rule:nonzero;stroke:none"
               d="m -0.5541,25.5248 10.307,0 0,10.441 -10.307,0 0,-10.441 z" />
          </g>
        </g>
      </g>
      <g
         id="g4398">
        <g
           clip-path="url(#clipPath4402)"
           id="g4400">
          <g
             clip-path="url(#clipPath4408)"
             id="g4406">
            <path
               inkscape:connector-curvature="0"
               id="path4412"
               style="fill:#4d4d4d;fill-opacity:1;fill-rule:nonzero;stroke:none"
               d="m -0.2126324,24.405 10.3455304,0 0,10.933 -10.3455304,0 0,-10.933 z" />
          </g>
        </g>
      </g>
      <g
         id="g4414">
        <g
           clip-path="url(#clipPath4418)"
           id="g4416">
          <g
             clip-path="url(#clipPath4424)"
             id="g4422">
            <path
               inkscape:connector-curvature="0"
               id="path4428"
               style="fill:#4d4d4d;fill-opacity:1;fill-rule:nonzero;stroke:none"
               d="m -0.5494,24.1917 10.527,0 0,11.177 -10.527,0 0,-11.177 z" />
          </g>
        </g>
      </g>
      <g
         id="g4430">
        <g
           clip-path="url(#clipPath4434)"
           id="g4432">
          <g
             clip-path="url(#clipPath4440)"
             id="g4438">
            <path
               inkscape:connector-curvature="0"
               id="path4444"
               style="fill:#4d4d4d;fill-opacity:1;fill-rule:nonzero;stroke:none"
               d="m -0.0761,26.5734 10.499,0 0,10.453 -10.499,0 0,-10.453 z" />
          </g>
        </g>
      </g>
      <g
         id="g4446">
        <g
           clip-path="url(#clipPath4450)"
           id="g4448">
          <g
             clip-path="url(#clipPath4456)"
             id="g4454">
            <path
               inkscape:connector-curvature="0"
               id="path4460"
               style="fill:#4d4d4d;fill-opacity:1;fill-rule:nonzero;stroke:none"
               d="m 0.0313,26.2452 10.442,0 0,10.307 -10.442,0 0,-10.307 z" />
          </g>
        </g>
      </g>
      <g
         id="g4462">
        <g
           clip-path="url(#clipPath4466)"
           id="g4464">
          <g
             clip-path="url(#clipPath4472)"
             id="g4470">
            <path
               inkscape:connector-curvature="0"
               id="path4476"
               style="fill:#4d4d4d;fill-opacity:1;fill-rule:nonzero;stroke:none"
               d="m 0.66,25.8652 10.933,0 0,10.34498 -10.933,0 0,-10.34498 z" />
          </g>
        </g>
      </g>
      <g
         id="g4478">
        <g
           clip-path="url(#clipPath4482)"
           id="g4480">
          <g
             clip-path="url(#clipPath4488)"
             id="g4486">
            <path
               inkscape:connector-curvature="0"
               id="path4492"
               style="fill:#4d4d4d;fill-opacity:1;fill-rule:nonzero;stroke:none"
               d="m 0.6294,26.0204 11.176,0 0,10.527 -11.176,0 0,-10.527 z" />
          </g>
        </g>
      </g>
    </g>
  </g>
</svg>
