<?xml version="1.0" encoding="UTF-8" standalone="no"?>

<svg xmlns="http://www.w3.org/2000/svg" xmlns:xlink="http://www.w3.org/1999/xlink" width="89px" height="41px" viewBox="0 0 89 41" version="1.1">
    <title>SpecificAirplanes/Heron1_Shoval/Color</title>
    <defs>
        <polygon id="path-1" points="0 0.1707615 87.937227 0.1707615 87.937227 40.32 0 40.32"/>
    </defs>
    <g id="2022" stroke="none" stroke-width="1" fill="none" fill-rule="evenodd">
        <g id="Planes" transform="translate(-150.000000, -358.000000)">
            <g id="Group" transform="translate(146.000000, 331.000000)">
                <g id="Heron1_Shoval" transform="translate(4.900000, 26.950000)">
                    <polygon id="Fill-1" fill="#596B6A" points="38.7800167 25.97 49.0288206 25.97 49.0288206 25.48 38.7800167 25.48"/>
                    <path d="M50.8165245,34.363917 C50.7283245,31.327947 50.5314495,24.548202 50.3874945,19.535292 L47.0431395,19.535292 L47.0431395,20.418867 C47.0431395,21.845502 46.4525145,24.334632 46.3816395,24.626952 C46.2780045,25.180407 45.8773245,25.760637 45.2076345,25.915932 C44.9669745,26.374887 44.5495995,26.659647 44.2701945,26.775567 C44.1734895,26.815572 44.0711145,26.835417 43.9687395,26.835417 C43.8663645,26.835417 43.7636745,26.815572 43.6672845,26.775567 C43.3875645,26.659647 42.9705045,26.374887 42.7295295,25.915932 C42.0601545,25.760637 41.6597895,25.180722 41.5561545,24.626952 C41.4852795,24.334632 40.8943395,21.845502 40.8943395,20.418867 L40.8943395,19.535292 L37.5502995,19.535292 C37.4060295,24.548202 37.2091545,31.327947 37.1206395,34.363917 L43.5948345,34.363917 L50.8165245,34.363917 Z M37.0863045,39.676707 C37.0107045,39.676707 36.9344745,39.665997 36.8598195,39.643632 L35.1008595,39.115692 C34.7682195,39.015837 34.5398445,38.709342 34.5398445,38.361582 L34.5398445,35.679042 C34.5398445,35.470197 34.6230045,35.269857 34.7707395,35.122122 L34.9433595,34.949187 L34.9276095,34.395102 C34.8387795,31.351887 34.6390695,24.466302 34.4941695,19.426302 L2.0394045,16.806132 C1.8324495,16.789437 1.6402995,16.691472 1.5051645,16.533972 C1.4317695,16.448292 0.7875945,15.664257 0.7875945,14.525847 C0.7875945,13.388067 1.4317695,12.603717 1.5051645,12.518037 C1.6547895,12.343842 1.8730845,12.243357 2.1030345,12.243357 L34.6104045,12.243357 C34.9587945,11.519172 35.5128795,11.134557 35.5891095,11.084157 C35.7210945,10.996902 35.8726095,10.953432 36.0238095,10.953432 C36.1753245,10.953432 36.3268395,10.997217 36.4585095,11.084472 C36.5347395,11.134872 37.0888245,11.519172 37.4368995,12.243357 L40.8943395,12.243357 L40.8943395,6.756687 C40.8943395,3.253572 42.6851145,1.102752 43.9687395,1.102752 C45.2523645,1.102752 47.0431395,3.253572 47.0431395,6.756687 L47.0431395,12.243357 L50.5005795,12.243357 C50.8489695,11.519172 51.4027395,11.134557 51.4792845,11.084157 C51.6109545,10.996902 51.7624695,10.953432 51.9136695,10.953432 C52.0651845,10.953432 52.2166995,10.997217 52.3483695,11.084472 C52.4245995,11.134872 52.9786845,11.519172 53.3270745,12.243357 L85.8347595,12.243357 C86.0643945,12.243357 86.2833195,12.343842 86.4326295,12.518352 C86.5063395,12.604032 87.1498845,13.388067 87.1498845,14.525847 C87.1498845,15.663942 86.5063395,16.448292 86.4326295,16.533657 C86.2974945,16.691472 86.1053445,16.789437 85.8980745,16.806132 L53.4436245,19.426302 C53.2889595,24.801462 53.0716095,32.276097 52.9941195,34.949187 L53.1670545,35.122122 C53.3147895,35.269857 53.3976345,35.470197 53.3976345,35.679042 L53.3976345,38.361582 C53.3976345,38.709342 53.1695745,39.015837 52.8366195,39.115692 L51.0773445,39.643632 C51.0030045,39.665997 50.9267745,39.676707 50.8508595,39.676707 C50.6835945,39.676707 50.5185345,39.623472 50.3808795,39.521097 C50.2659045,39.435732 50.1783345,39.321702 50.1244695,39.193182 L37.8130095,39.193182 C37.7591445,39.321702 37.6715745,39.435732 37.5562845,39.521097 C37.4189445,39.623472 37.2535695,39.676707 37.0863045,39.676707 L37.0863045,39.676707 Z" id="Fill-1" fill="#CAE0E0"/>
                    <g id="Group-5" transform="translate(0.000000, 0.144270)">
                        <mask id="mask-2" fill="white">
                            <use xlink:href="#path-1"/>
                        </mask>
                        <g id="Clip-4"/>
                        <path d="M47.830482,20.1786165 L49.621887,20.1786165 C49.751667,24.6752415 49.914522,30.2976765 50.005557,33.4319265 L44.342802,33.4319265 L43.968582,33.4319265 L43.594992,33.4319265 L37.931607,33.4319265 C38.022642,30.2976765 38.185812,24.6752415 38.315277,20.1786165 L40.106682,20.1786165 L40.106682,20.2746915 C40.106682,21.7674765 40.679982,24.2103015 40.786452,24.6516165 C40.931982,25.3808415 41.433777,26.1034515 42.203952,26.4253815 C42.523992,26.8789815 42.965622,27.1930365 43.365357,27.3587265 C43.558452,27.4387365 43.763517,27.4787415 43.968582,27.4787415 C44.173647,27.4787415 44.378397,27.4387365 44.571492,27.3587265 C44.971542,27.1930365 45.413172,26.8789815 45.733527,26.4253815 C46.503702,26.1034515 47.005812,25.3808415 47.151027,24.6516165 C47.257497,24.2103015 47.830482,21.7674765 47.830482,20.2746915 L47.830482,20.1786165 Z M43.968582,0.1707615 C42.103467,0.1707615 40.106682,2.7591165 40.106682,6.6125115 L40.106682,11.3116815 L37.894122,11.3116815 C37.493757,10.7059365 37.022517,10.3692015 36.893052,10.2832065 C36.629397,10.1086965 36.326367,10.0217565 36.023967,10.0217565 C35.720937,10.0217565 35.417907,10.1086965 35.154567,10.2832065 C35.024787,10.3688865 34.554177,10.7059365 34.153497,11.3116815 L2.102877,11.3116815 C1.642977,11.3116815 1.206072,11.5123365 0.906822,11.8616715 C0.755622,12.0383865 -6.3e-05,12.9903165 -6.3e-05,14.3819865 C-6.3e-05,15.7736565 0.755622,16.7252715 0.906822,16.9019865 C1.177722,17.2176165 1.561707,17.4135465 1.976247,17.4469365 L33.727302,20.0100915 C33.873462,25.0976565 34.065612,31.7032065 34.146567,34.4922165 C33.893307,34.7791815 33.752502,35.1496215 33.752502,35.5345515 L33.752502,38.2174065 C33.752502,38.9129265 34.208622,39.5259165 34.874532,39.7259415 L36.633807,40.2535665 C36.782487,40.2982965 36.934632,40.3200315 37.086462,40.3200315 C37.420992,40.3200315 37.751427,40.2132465 38.026422,40.0084965 C38.096982,39.9562065 38.162502,39.8985615 38.222037,39.8361915 L43.594992,39.8361915 L44.342487,39.8361915 L49.715127,39.8361915 C49.775292,39.8985615 49.840497,39.9562065 49.910742,40.0084965 C50.186052,40.2132465 50.516172,40.3200315 50.851332,40.3200315 C51.002847,40.3200315 51.155307,40.2982965 51.303672,40.2535665 L53.062632,39.7259415 C53.729172,39.5259165 54.185292,38.9129265 54.185292,38.2174065 L54.185292,35.5345515 C54.185292,35.1496215 54.044172,34.7791815 53.790912,34.4922165 C53.871867,31.7032065 54.063702,25.0973415 54.210177,20.0100915 L85.961547,17.4469365 C86.375772,17.4135465 86.760072,17.2176165 87.030342,16.9019865 C87.181857,16.7252715 87.937227,15.7736565 87.937227,14.3819865 C87.937227,12.9903165 87.182172,12.0383865 87.030342,11.8616715 C86.731407,11.5123365 86.294502,11.3116815 85.834602,11.3116815 L53.783982,11.3116815 C53.383617,10.7059365 52.912692,10.3688865 52.783227,10.2832065 C52.519572,10.1086965 52.216857,10.0217565 51.913827,10.0217565 C51.610797,10.0217565 51.308082,10.1086965 51.044427,10.2832065 C50.914962,10.3688865 50.444037,10.7059365 50.043357,11.3116815 L47.830482,11.3116815 L47.830482,6.6125115 C47.830482,2.7591165 45.833697,0.1707615 43.968582,0.1707615 L43.968582,0.1707615 Z M43.968582,25.9037415 C43.968582,25.9037415 43.347717,25.6463865 43.327242,25.0242615 L43.089102,25.0242615 C42.444297,25.0242615 42.326802,24.3205515 42.326802,24.3205515 C42.326802,24.3205515 41.681682,21.6817965 41.681682,20.2746915 L41.681682,18.6036165 L36.785007,18.6036165 C36.625302,24.1621065 36.384327,32.4560565 36.310302,35.0072415 L43.594992,35.0069265 L43.968582,35.0069265 L44.342487,35.0069265 L51.627492,35.0072415 C51.552837,32.4560565 51.312177,24.1621065 51.152472,18.6036165 L46.255482,18.6036165 L46.255482,20.2746915 C46.255482,21.6817965 45.610362,24.3205515 45.610362,24.3205515 C45.610362,24.3205515 45.493182,25.0242615 44.848062,25.0242615 L44.609922,25.0242615 C44.589762,25.6463865 43.968582,25.9037415 43.968582,25.9037415 L43.968582,25.9037415 Z M43.968582,1.7457615 C44.613702,1.7457615 46.255482,3.3289515 46.255482,6.6125115 L46.255482,12.8866815 L51.055137,12.8866815 C51.244137,12.0399615 51.913827,11.5967565 51.913827,11.5967565 C51.913827,11.5967565 52.583517,12.0399615 52.772202,12.8866815 L85.834602,12.8866815 C85.834602,12.8866815 86.362227,13.5021915 86.362227,14.3819865 C86.362227,15.2614665 85.834602,15.8769765 85.834602,15.8769765 L52.676757,18.5538465 C52.514217,24.1977015 52.267257,32.7061665 52.197012,35.1215865 L52.610292,35.5345515 L52.610292,38.2174065 L50.851017,38.7450315 L50.851017,38.2611915 L44.342487,38.2611915 L43.594992,38.2611915 L37.086462,38.2611915 L37.086462,38.7450315 L35.327502,38.2174065 L35.327502,35.5345515 L35.740467,35.1215865 C35.670222,32.7061665 35.422947,24.1980165 35.261037,18.5538465 L2.102877,15.8769765 C2.102877,15.8769765 1.574937,15.2614665 1.574937,14.3819865 C1.574937,13.5021915 2.102877,12.8866815 2.102877,12.8866815 L35.164962,12.8866815 C35.354277,12.0399615 36.023967,11.5967565 36.023967,11.5967565 C36.023967,11.5967565 36.693342,12.0399615 36.882342,12.8866815 L41.681682,12.8866815 L41.681682,6.6125115 C41.681682,3.3289515 43.323462,1.7457615 43.968582,1.7457615 L43.968582,1.7457615 Z" id="Fill-3" fill="#596B6A" mask="url(#mask-2)"/>
                    </g>
                </g>
            </g>
        </g>
    </g>
</svg>