<?xml version="1.0" encoding="UTF-8"?>
<svg width="50px" height="50px" viewBox="0 0 50 50" version="1.1" xmlns="http://www.w3.org/2000/svg" xmlns:xlink="http://www.w3.org/1999/xlink">
    <title>Planes/shoval@3x</title>
    <defs>
        <polygon id="path-1" points="0 0 35.9709711 0 35.9709711 17.1290339 0 17.1290339"></polygon>
    </defs>
    <g id="Planes/shoval" stroke="none" stroke-width="1" fill="none" fill-rule="evenodd">
        <g id="Heron2_Eitan" transform="translate(25.000000, 25.000000) rotate(-360.000000) translate(-25.000000, -25.000000) translate(7.014514, 16.435483)">
            <g id="Group-9">
                <path d="M20.8546864,14.8682479 C20.8353724,14.2096656 20.7900724,12.8753721 20.7427825,11.4761062 C20.7111778,10.5472394 20.6785197,9.58151563 20.6510119,8.74467315 L19.2587681,8.74467315 L19.2587681,9.90543179 C19.2587681,9.91145649 19.258534,9.91724493 19.2581828,9.92315149 C19.2426146,10.1863481 19.1338712,11.4036917 18.4633841,11.622471 C18.4603407,11.6373555 18.4570632,11.6522401 18.4530834,11.6671246 C18.4508593,11.6762207 18.44805,11.6849624 18.4450066,11.6937042 L18.4138702,11.780767 C18.4105927,11.7900993 18.4068469,11.7993136 18.4025159,11.8084097 C18.312267,11.9980105 18.1500298,12.1068095 17.9570072,12.1068095 C17.7540351,12.1068095 17.5873498,11.9962385 17.4999102,11.8035663 C17.495228,11.7935252 17.4912482,11.7831296 17.4877366,11.7724978 L17.4595265,11.685435 C17.456366,11.6756301 17.4536738,11.6655889 17.4515668,11.6554296 C17.4464164,11.6314489 17.4424366,11.6077045 17.4393931,11.5845508 C17.1584628,11.447164 16.7801433,11.0515421 16.7134224,9.92303336 C16.7130712,9.91724493 16.7128371,9.91133836 16.7128371,9.90543179 L16.7128371,8.74467315 L15.3097072,8.74467315 C15.2373677,10.8599331 15.1409149,13.7958515 15.1059157,14.8682479 L20.8546864,14.8682479 Z M14.5619644,16.8337173 C14.483538,16.8337173 14.4085062,16.80194 14.3533736,16.7454732 C14.2983581,16.6891245 14.268041,16.6128117 14.2693286,16.5336637 L14.289462,15.2681225 C14.2769372,14.7431468 14.2045976,12.5755547 14.1344821,10.4791958 L14.0754867,8.70486289 C10.2221763,8.37409511 1.82048697,7.65054059 1.22842633,7.57871673 C0.359415223,7.47369796 0.290002024,7.04440864 0.292844848,6.5758997 L0.292844848,6.51470766 C0.292844848,6.02399004 0.706130054,5.81714205 0.983665795,5.79788664 C0.990454944,5.79741411 0.997009985,5.79717785 1.00379913,5.79717785 L14.0983123,5.79717785 C14.1815379,5.37958353 14.3188426,4.92619541 14.6920117,4.92619541 C15.0623715,4.92619541 15.2047095,5.38371812 15.2947243,5.79717785 L16.7128371,5.79717785 L16.7128371,2.68500744 C16.7128371,1.86446709 17.208445,0.295328374 17.9853344,0.295328374 L17.9858026,0.295328374 C18.7630431,0.295328374 19.2587681,1.86446709 19.2587681,2.68500744 L19.2587681,5.79717785 L20.6747739,5.79717785 C20.7578825,5.39423181 20.8894515,4.93718162 21.2522028,4.92631354 C21.2619183,4.92572288 21.2726873,4.92525036 21.2790082,4.92525036 C21.6520603,4.92525036 21.7887797,5.38041045 21.8720053,5.7962328 L34.9671037,5.7962328 C34.9738929,5.7962328 34.980565,5.79646906 34.9872371,5.79694159 C35.2648899,5.81631513 35.6782858,6.02316312 35.6782858,6.51388075 L35.6782858,6.57483652 C35.6810179,7.04346359 35.6114877,7.47275291 34.7425936,7.57800794 C34.1425733,7.65054059 25.5959707,8.38638077 21.933927,8.70072829 C21.9298301,8.70120081 21.884296,8.70533541 21.884296,8.70533541 C21.7942812,11.3387195 21.6661068,15.2825346 21.6661068,15.2825346 L21.6662238,16.5383889 C21.6662238,16.7015283 21.535123,16.8337173 21.3735881,16.8337173 L14.5619644,16.8337173 Z" id="Fill-2" fill="#CAE0E0"></path>
                <g id="Group-6">
                    <mask id="mask-2" fill="white">
                        <use xlink:href="#path-1"></use>
                    </mask>
                    <g id="Clip-5"></g>
                    <path d="M19.5514273,9.04000152 L20.367998,9.04000152 C20.3933988,9.81092671 20.4225453,10.6699779 20.4507554,11.4987874 C20.4914903,12.702664 20.5305865,13.8581067 20.5529438,14.5729195 L15.4081733,14.5729195 C15.4473865,13.3757764 15.5275687,10.9454602 15.5924168,9.04000152 L16.4202248,9.04000152 L16.4202248,9.90543179 C16.4202248,9.91724493 16.4205759,9.92893993 16.4212783,9.94075306 C16.4651736,10.6820273 16.6926101,11.4621667 17.1858769,11.7908081 L17.2095219,11.8640496 C17.2165452,11.8854313 17.2246219,11.9064587 17.2338692,11.9268954 C17.369184,12.2244683 17.6395794,12.4021379 17.9570307,12.4021379 C18.2620742,12.4021379 18.5272021,12.2281304 18.6661456,11.9367003 C18.6748076,11.9185081 18.6825332,11.8998434 18.6893223,11.8808242 L18.7040712,11.8395964 C19.2537582,11.5459218 19.5039032,10.7218375 19.5503738,9.9408712 C19.5510761,9.92905806 19.5514273,9.91724493 19.5514273,9.90543179 L19.5514273,9.04000152 Z M17.985826,-1.8189894e-12 L17.9855919,-1.8189894e-12 L17.9853578,-1.8189894e-12 C17.6512848,-1.8189894e-12 17.1700746,0.189837079 16.7759528,1.09448695 C16.556476,1.5980809 16.4202248,2.20752053 16.4202248,2.68500744 L16.4202248,5.50184947 L15.5231206,5.50184947 C15.4034911,5.07433212 15.185536,4.63086703 14.6919181,4.63086703 C14.1949055,4.63086703 13.9805791,5.07055192 13.8663341,5.50184947 L1.00382254,5.50184947 C0.990478355,5.50184947 0.977017111,5.502322 0.963555866,5.50326705 C0.484920841,5.53646196 0.000433100904,5.89463621 0.000433100904,6.51470766 L-6.14880279e-06,6.5740096 C-0.00202503936,6.94824972 -0.00670721128,7.72685344 1.19368462,7.87203687 C1.77755146,7.94279755 9.82760965,8.63658297 13.7916535,8.97691938 C13.807807,9.46137605 13.825248,9.98552485 13.8429232,10.5182972 C13.9119853,12.5860684 13.9833884,14.7236551 13.9966155,15.2753285 L13.9768334,16.5289384 C13.9743752,16.6871163 14.0347752,16.8398601 14.1449233,16.9526756 C14.2548373,17.065491 14.405135,17.1290457 14.5619878,17.1290457 L21.3734945,17.1290457 C21.6967984,17.1290457 21.9587659,16.8645496 21.9587659,16.5383889 L21.9587659,15.2824164 C21.9657892,15.0695437 22.0815559,11.5104824 22.167942,8.97703751 C26.7370395,8.5847233 34.21002,7.93984427 34.7774992,7.87109182 C35.977774,7.72590839 35.9730918,6.94730467 35.9709711,6.57318268 L35.9709711,6.51388075 C35.9709711,6.13278901 35.781591,5.81218053 35.4523172,5.63439285 C35.2526226,5.52665706 35.0613559,5.5061022 35.0073938,5.502322 C34.9940496,5.50137695 34.9805884,5.50090442 34.9671272,5.50090442 L22.1040303,5.50090442 C21.9900194,5.07102444 21.7762783,4.62992198 21.2790316,4.62992198 C21.2701355,4.62992198 21.2557378,4.63039451 21.2418084,4.63122143 C20.7608323,4.6450428 20.5546996,5.08484581 20.4434981,5.50184947 L19.5514273,5.50184947 L19.5514273,2.68500744 C19.5514273,2.20752053 19.415059,1.5980809 19.1955822,1.09436882 C18.8013433,0.189837079 18.320016,-1.8189894e-12 17.985826,-1.8189894e-12 L17.985826,-1.8189894e-12 Z M17.9570307,11.8114811 C17.8570663,11.8114811 17.7993585,11.7544237 17.765881,11.6805916 L17.7376709,11.5935288 C17.7132066,11.4783507 17.7260825,11.3609281 17.7260825,11.3609281 C17.0916482,11.3609281 17.0054963,9.90543179 17.0054963,9.90543179 L17.0054963,8.44934478 L15.0270445,8.44934478 C14.9452236,10.8261475 14.8252429,14.4903457 14.8034708,15.1635763 L21.1554223,15.1635763 C21.1390347,14.4396674 21.0109773,10.8072465 20.9341897,8.44934478 L18.9661558,8.44934478 L18.9661558,9.90543179 C18.9661558,9.90543179 18.8794185,11.3609281 18.2454524,11.3609281 L18.1967579,11.3609281 C18.1964067,11.4247191 18.190554,11.5120181 18.1697183,11.5935288 L18.1386989,11.6805916 C18.1026462,11.7560775 18.0464601,11.8114811 17.9570307,11.8114811 L17.9570307,11.8114811 Z M17.985826,0.590656748 C18.4759324,0.590656748 18.9661558,1.87013739 18.9661558,2.68500744 L18.9661558,6.09250622 L20.9147587,6.09250622 L20.9145246,6.09156117 C20.9170998,6.07903925 20.919792,6.06616293 20.9227184,6.05328661 C20.973637,5.7920982 21.0744207,5.22152378 21.2653363,5.22152378 C21.2662727,5.22152378 21.2752859,5.22057873 21.2790316,5.22057873 C21.4783751,5.22057873 21.57951,5.81761457 21.6280876,6.08388263 C21.6286728,6.08636339 21.6292581,6.08908041 21.6298434,6.09156117 L34.9671272,6.09156117 C34.9671272,6.09156117 35.3853622,6.12062148 35.3853622,6.51388075 C35.3853622,6.90643122 35.4283211,7.19750687 34.7076178,7.2846878 C34.0714277,7.36170944 24.2022286,8.20965627 21.896259,8.40752628 L21.896259,8.40776254 L21.6008139,8.43339704 C21.510448,11.0582756 21.3734945,15.2728478 21.3734945,15.2728478 L21.3734945,16.5383889 L14.5619878,16.5383889 L14.5821211,15.2728478 C14.5649142,14.5465763 14.4370909,10.7901175 14.3592497,8.43280639 C12.7668431,8.29624655 1.93100964,7.3664347 1.26333192,7.28551472 C0.54262861,7.19845192 0.585704592,6.90725814 0.585704592,6.51470766 C0.585704592,6.12156653 1.00382254,6.09250622 1.00382254,6.09250622 L14.3413404,6.09250622 C14.3894498,5.82517498 14.4908188,5.22152378 14.6919181,5.22152378 C14.892315,5.22152378 15.002112,5.82517498 15.0565422,6.09250622 L17.0054963,6.09250622 L17.0054963,2.68500744 C17.0054963,1.87013739 17.4956026,0.590656748 17.9853578,0.590656748 L17.985826,0.598217154 L17.985826,0.590656748 L17.985826,0.590656748 Z" id="Fill-4" fill="#596B6A" mask="url(#mask-2)"></path>
                </g>
                <path d="M18.5705356,3.35394984 C18.5705356,3.68046489 18.3085681,3.9438978 17.9853812,3.9438978 C17.6624284,3.9438978 17.4005779,3.68046489 17.4005779,3.35394984 C17.4005779,3.02802544 17.6624284,2.7625843 17.9853812,2.7625843 C18.3085681,2.7625843 18.5705356,3.02802544 18.5705356,3.35394984" id="Fill-7" fill="#596B6A"></path>
            </g>
            <polygon id="Fill-1" fill="#596B6A" points="15.9371579 12.179316 20.0338133 12.179316 20.0338133 11.8196063 15.9371579 11.8196063"></polygon>
        </g>
    </g>
</svg>