<?xml version="1.0" encoding="UTF-8"?>
<svg width="50px" height="50px" viewBox="0 0 50 50" version="1.1" xmlns="http://www.w3.org/2000/svg" xmlns:xlink="http://www.w3.org/1999/xlink">
    <title>Planes/shoval@3x</title>
    <defs>
        <polygon id="path-1" points="0 0 50 0 50 23.8095238 0 23.8095238"></polygon>
    </defs>
    <g id="Planes/shoval" stroke="none" stroke-width="1" fill="none" fill-rule="evenodd">
        <g id="Heron2_Eitan" transform="translate(25.000000, 25.000000) rotate(-360.000000) translate(-25.000000, -25.000000) translate(-0.000000, 13.095238)">
            <g id="Group-9">
                <path d="M28.9882171,20.6670093 C28.9613705,19.7515736 28.898403,17.8968925 28.8326696,15.9518993 C28.7887388,14.6607654 28.7433436,13.3184 28.7051076,12.1551808 L26.7698751,12.1551808 L26.7698751,13.7686466 C26.7698751,13.777021 26.7695497,13.785067 26.7690616,13.7932772 C26.7474216,14.1591231 26.5962672,15.8512425 25.6642837,16.1553478 C25.6600533,16.1760374 25.6554975,16.1967271 25.6499655,16.2174168 C25.6468741,16.2300605 25.6429691,16.2422115 25.6387387,16.2543626 L25.5954588,16.3753808 C25.590903,16.3883528 25.5856964,16.4011607 25.5796762,16.4138044 C25.4542294,16.6773514 25.2287181,16.828583 24.9604149,16.828583 C24.6782816,16.828583 24.4465874,16.6748883 24.3250455,16.4070721 C24.3185373,16.3931148 24.3130052,16.3786648 24.308124,16.3638865 L24.2689118,16.2428683 C24.2645187,16.2292394 24.2607764,16.2152821 24.2578477,16.2011606 C24.2506886,16.1678272 24.2451566,16.1348223 24.2409262,16.1026384 C23.8504303,15.9116694 23.3245626,15.3617512 23.2318198,13.793113 C23.2313317,13.785067 23.2310063,13.7768568 23.2310063,13.7686466 L23.2310063,12.1551808 L21.2806421,12.1551808 C21.1800894,15.0954127 21.0460191,19.1763679 20.9973699,20.6670093 L28.9882171,20.6670093 Z M20.2412722,23.3990309 C20.1322588,23.3990309 20.0279639,23.3548601 19.951329,23.2763707 C19.8748569,23.1980456 19.8327159,23.0919699 19.8345057,22.9819535 L19.8624912,21.2228389 C19.8450816,20.4931176 19.7445289,17.4801434 19.6470677,14.5661841 L19.5650635,12.0998441 C14.2089245,11.6400737 2.53049461,10.6343259 1.70752456,10.53449 C0.499590658,10.3885129 0.403105636,9.79179657 0.407057189,9.1405646 L0.407057189,9.05550707 C0.407057189,8.37340479 0.981527648,8.08588407 1.36730503,8.05911886 C1.37674201,8.05846204 1.38585358,8.05813364 1.39529057,8.05813364 L19.5967913,8.05813364 C19.7124757,7.47767347 19.9033306,6.84745957 20.4220393,6.84745957 C20.936843,6.84745957 21.1346942,7.4834206 21.2598156,8.05813364 L23.2310063,8.05813364 L23.2310063,3.73218648 C23.2310063,2.5916274 23.9199061,0.410509314 24.9997899,0.410509314 L25.0004407,0.410509314 C26.0808126,0.410509314 26.7698751,2.5916274 26.7698751,3.73218648 L26.7698751,8.05813364 L28.738137,8.05813364 C28.8536587,7.49803473 29.036541,6.86273051 29.5407687,6.84762377 C29.5542734,6.84680275 29.5692424,6.84614594 29.5780286,6.84614594 C30.0965745,6.84614594 30.2866159,7.47882289 30.4023003,8.05682001 L48.6046146,8.05682001 C48.6140516,8.05682001 48.6233258,8.05714841 48.6326001,8.05780523 C49.0185402,8.08473464 49.5931645,8.37225536 49.5931645,9.05435764 L49.5931645,9.13908676 C49.5969622,9.79048294 49.5003145,10.3871993 48.2925433,10.5335048 C47.4585092,10.6343259 35.5786485,11.6571509 30.4883721,12.094097 C30.4826773,12.0947538 30.4193845,12.100501 30.4193845,12.100501 C30.2942631,15.7609304 30.1160993,21.2428718 30.1160993,21.2428718 L30.116262,22.9885216 C30.116262,23.2152869 29.9340306,23.3990309 29.7094955,23.3990309 L20.2412722,23.3990309 Z" id="Fill-2" fill="#CAE0E0"></path>
                <g id="Group-6">
                    <mask id="mask-2" fill="white">
                        <use xlink:href="#path-1"></use>
                    </mask>
                    <g id="Clip-5"></g>
                    <path d="M27.1766742,12.5656901 L28.3117155,12.5656901 C28.3470229,13.6372836 28.3875368,14.8313731 28.4267491,15.9834265 C28.483371,17.6568266 28.537715,19.2629033 28.568792,20.2565 L21.4175109,20.2565 C21.4720176,18.5924595 21.5834716,15.2142962 21.6736111,12.5656901 L22.8242723,12.5656901 L22.8242723,13.7686466 C22.8242723,13.785067 22.8247604,13.8013231 22.8257366,13.8177435 C22.8867516,14.8481219 23.2028906,15.9325233 23.8885362,16.3893381 L23.921403,16.4911444 C23.9311654,16.5208653 23.9423921,16.5500935 23.9552459,16.5785008 C24.1433348,16.9921299 24.5191871,17.2390923 24.9604474,17.2390923 C25.3844608,17.2390923 25.7529913,16.9972203 25.9461241,16.5921297 C25.9581644,16.5668423 25.968903,16.5408981 25.97834,16.5144613 L25.998841,16.4571542 C26.7629113,16.0489437 27.1106153,14.9034586 27.1752098,13.8179077 C27.1761861,13.8014874 27.1766742,13.785067 27.1766742,13.7686466 L27.1766742,12.5656901 Z M25.0004732,-2.27373675e-12 L25.0001478,-2.27373675e-12 L24.9998224,-2.27373675e-12 C24.5354577,-2.27373675e-12 23.8665708,0.263875387 23.3187377,1.52134752 C23.0136628,2.221348 22.8242723,3.06847502 22.8242723,3.73218648 L22.8242723,7.64762432 L21.5772888,7.64762432 C21.4110026,7.05337104 21.1080429,6.43695025 20.4219091,6.43695025 C19.7310568,6.43695025 19.433141,7.04811652 19.2743394,7.64762432 L1.39532311,7.64762432 C1.37677455,7.64762432 1.35806329,7.64828114 1.33935203,7.64959477 C0.674044689,7.69573601 0.000602014473,8.19360171 0.000602014473,9.05550707 L-8.54689572e-06,9.13793734 C-0.00281482442,9.65813474 -0.00932308897,10.7404015 1.65923324,10.9422079 C2.47081383,11.0405659 13.6604731,12.0049344 19.1705325,12.4780053 C19.1929861,13.1514048 19.2172293,13.8799767 19.241798,14.6205355 C19.3377949,17.4947575 19.437046,20.466024 19.4554318,21.2328554 L19.4279344,22.9753853 C19.4245176,23.1952541 19.5084742,23.4075695 19.6615811,23.5643841 C19.8143626,23.7211986 20.0232779,23.8095402 20.2413048,23.8095402 L29.7093653,23.8095402 C30.158761,23.8095402 30.5228984,23.4418881 30.5228984,22.9885216 L30.5228984,21.2427076 C30.5326608,20.9468125 30.6935776,15.9996826 30.8136551,12.4781695 C37.1647451,11.932849 47.5522607,11.0364608 48.3410624,10.9408942 C50.009456,10.7390879 50.0029477,9.65682111 49.9999915,9.13678791 L49.9999915,9.05435764 C49.9999915,8.52463642 49.7367597,8.07898751 49.279066,7.8318609 C49.0014885,7.6821071 48.7356259,7.65353566 48.6606182,7.64828114 C48.6420696,7.64696751 48.6233584,7.64631069 48.6046471,7.64631069 L30.7248173,7.64631069 C30.5663411,7.04877333 30.2692388,6.43563662 29.5780611,6.43563662 C29.5656954,6.43563662 29.5456825,6.43629344 29.5263204,6.43744286 C28.8577589,6.4566547 28.5712326,7.06798517 28.4166613,7.64762432 L27.1766742,7.64762432 L27.1766742,3.73218648 C27.1766742,3.06847502 26.987121,2.221348 26.6820461,1.52118332 C26.1340502,0.263875387 25.4650006,-2.27373675e-12 25.0004732,-2.27373675e-12 L25.0004732,-2.27373675e-12 Z M24.9604474,16.4180737 C24.821496,16.4180737 24.7412816,16.3387633 24.6947475,16.236136 L24.6555352,16.1151178 C24.6215295,15.9550192 24.6394273,15.7918007 24.6394273,15.7918007 C23.7575574,15.7918007 23.6378053,13.7686466 23.6378053,13.7686466 L23.6378053,11.7446715 L20.8877382,11.7446715 C20.7740062,15.0484504 20.6072319,20.1417216 20.5769685,21.0775186 L29.4062429,21.0775186 C29.383464,20.0712782 29.205463,15.0221778 29.0987274,11.7446715 L26.3631411,11.7446715 L26.3631411,13.7686466 C26.3631411,13.7686466 26.2425755,15.7918007 25.3613565,15.7918007 L25.2936705,15.7918007 C25.2931824,15.8804707 25.2850471,16.0018173 25.2560853,16.1151178 L25.2129681,16.236136 C25.1628544,16.3410622 25.0847553,16.4180737 24.9604474,16.4180737 L24.9604474,16.4180737 Z M25.0004732,0.821018629 C25.6817258,0.821018629 26.3631411,2.59950918 26.3631411,3.73218648 L26.3631411,8.46864295 L29.0717181,8.46864295 L29.0713927,8.46732932 C29.0749723,8.44992373 29.0787145,8.43202552 29.0827822,8.41412731 C29.1535595,8.05107288 29.2936499,7.25796888 29.5590244,7.25796888 C29.5603261,7.25796888 29.5728545,7.25665525 29.5780611,7.25665525 C29.8551505,7.25665525 29.995729,8.08654088 30.0632522,8.45665608 C30.0640658,8.46010436 30.0648793,8.46388104 30.0656928,8.46732932 L48.6046471,8.46732932 C48.6046471,8.46732932 49.1859978,8.50772344 49.1859978,9.05435764 C49.1859978,9.60000662 49.2457112,10.0046046 48.2439265,10.125787 C47.3596161,10.2328478 33.6413334,11.4115021 30.4360131,11.6865434 L30.4360131,11.6868718 L30.0253416,11.722504 C29.8997321,15.3711108 29.7093653,21.2294071 29.7093653,21.2294071 L29.7093653,22.9885216 L20.2413048,22.9885216 L20.2692903,21.2294071 C20.2453724,20.2198826 20.0676968,14.9983683 19.9594969,11.721683 C17.7460361,11.5318635 2.6841222,10.2394159 1.75604367,10.1269364 C0.75425905,10.0059182 0.814135084,9.60115605 0.814135084,9.05550707 C0.814135084,8.50903707 1.39532311,8.46864295 1.39532311,8.46864295 L19.9346028,8.46864295 C20.0014752,8.09704992 20.1423792,7.25796888 20.4219091,7.25796888 C20.7004628,7.25796888 20.8530816,8.09704992 20.9287402,8.46864295 L23.6378053,8.46864295 L23.6378053,3.73218648 C23.6378053,2.59950918 24.3190579,0.821018629 24.9998224,0.821018629 L25.0004732,0.831527667 L25.0004732,0.821018629 L25.0004732,0.821018629 Z" id="Fill-4" fill="#596B6A" mask="url(#mask-2)"></path>
                </g>
                <path d="M25.8132253,4.66202292 C25.8132253,5.11588202 25.4490879,5.48205633 24.9998549,5.48205633 C24.5509474,5.48205633 24.1869727,5.11588202 24.1869727,4.66202292 C24.1869727,4.20898484 24.5509474,3.84001907 24.9998549,3.84001907 C25.4490879,3.84001907 25.8132253,4.20898484 25.8132253,4.66202292" id="Fill-7" fill="#596B6A"></path>
            </g>
            <polygon id="Fill-1" fill="#596B6A" points="22.1528046 16.9293677 27.8471954 16.9293677 27.8471954 16.4293677 22.1528046 16.4293677"></polygon>
        </g>
    </g>
</svg>