<?xml version="1.0" encoding="UTF-8" standalone="no"?>

<svg xmlns="http://www.w3.org/2000/svg" xmlns:xlink="http://www.w3.org/1999/xlink" width="50px" height="50px" viewBox="0 0 50 50" version="1.1">
    <title>Planes/shoval</title>
    <defs>
        <polygon id="path-1" points="0 0 42 0 42 20 0 20"/>
    </defs>
    <g id="Planes/shoval" stroke="none" stroke-width="1" fill="none" fill-rule="evenodd">
        <g id="SpecificAirplanes/Heron2_Eitan/Color" transform="translate(25.000000, 25.000000) rotate(-45.000000) translate(-25.000000, -25.000000) translate(4.000000, 15.000000)">
            <g id="Heron2_Eitan" transform="translate(0.000000, -0.000000)">
                <polygon id="Fill-1" fill="#596B6A" points="18.4937088 13.7398821 23.4139568 13.7398821 23.4139568 13.5024783 18.4937088 13.5024783"/>
                <g id="Group-9" transform="translate(0.000000, 0.000000)">
                    <path d="M24.3501024,17.3602878 C24.3275512,16.5913218 24.2746585,15.0333897 24.2194424,13.3995954 C24.1825406,12.315043 24.1444087,11.187456 24.1122904,10.2103519 L22.4866951,10.2103519 L22.4866951,11.5656631 C22.4866951,11.5726976 22.4864217,11.5794563 22.4860117,11.5863528 C22.4678341,11.8936634 22.3408644,13.3150437 21.5579983,13.5704921 C21.5544448,13.5878714 21.5506179,13.6052508 21.545971,13.6226301 C21.5433742,13.6332508 21.540094,13.6434577 21.5365405,13.6536646 L21.5001854,13.7553198 C21.4963585,13.7662164 21.491985,13.776975 21.486928,13.7875957 C21.3815527,14.0089752 21.1921232,14.1360097 20.9667485,14.1360097 C20.7297565,14.1360097 20.5351334,14.0069062 20.4330382,13.7819405 C20.4275713,13.7702164 20.4229244,13.7580785 20.4188242,13.7456647 L20.3858859,13.6440094 C20.3821957,13.6325611 20.3790522,13.620837 20.3765921,13.6089749 C20.3705784,13.5809749 20.3659315,13.5532507 20.362378,13.5262162 C20.0343615,13.3658023 19.5926326,12.903871 19.5147286,11.5862149 C19.5143186,11.5794563 19.5140453,11.5725597 19.5140453,11.5656631 L19.5140453,10.2103519 L17.8757393,10.2103519 C17.7912751,12.6801467 17.6786561,16.108149 17.6377907,17.3602878 L24.3501024,17.3602878 Z M17.0026687,19.655186 C16.9110974,19.655186 16.8234896,19.6180825 16.7591164,19.5521514 C16.6948798,19.4863583 16.6594814,19.3972548 16.6609848,19.3048409 L16.6844926,17.8271847 C16.6698686,17.2142188 16.5854043,14.6833205 16.5035369,12.2355946 L16.4346534,10.1638691 C11.9354966,9.77766192 2.12561547,8.93283375 1.43432063,8.84897162 C0.419656153,8.72635085 0.338608734,8.22510912 0.341928039,7.67807426 L0.341928039,7.60662594 C0.341928039,7.03366002 0.824483224,6.79214262 1.14853622,6.76965984 C1.15646329,6.76910812 1.16411701,6.76883225 1.17204408,6.76883225 L16.4613047,6.76883225 C16.5584796,6.28124571 16.7187977,5.75186604 17.154513,5.75186604 C17.5869481,5.75186604 17.7531432,6.2860733 17.8582451,6.76883225 L19.5140453,6.76883225 L19.5140453,3.13503664 C19.5140453,2.17696702 20.0927211,0.344827824 20.9998235,0.344827824 L21.0003702,0.344827824 C21.9078826,0.344827824 22.4866951,2.17696702 22.4866951,3.13503664 L22.4866951,6.76883225 L24.1400351,6.76883225 C24.2370733,6.29834917 24.3906944,5.76469363 24.8142457,5.75200397 C24.8255897,5.75131431 24.8381636,5.75076259 24.845544,5.75076259 C25.2811226,5.75076259 25.4407573,6.28221123 25.5379322,6.76772881 L40.8278762,6.76772881 C40.8358033,6.76772881 40.8435937,6.76800467 40.8513841,6.76855639 C41.1755738,6.7911771 41.6582582,7.03269451 41.6582582,7.60566042 L41.6582582,7.67683288 C41.6614483,8.22400567 41.5802642,8.7252474 40.5657364,8.84814403 C39.8651477,8.93283375 29.8860647,9.79200675 25.6102325,10.1590415 C25.605449,10.1595932 25.5522829,10.1644208 25.5522829,10.1644208 C25.447181,13.2391815 25.2975234,17.8440123 25.2975234,17.8440123 L25.2976601,19.3103581 C25.2976601,19.500841 25.1445857,19.655186 24.9559762,19.655186 L17.0026687,19.655186 Z" id="Fill-2" fill="#CAE0E0"/>
                    <g id="Group-6" transform="translate(0.000000, 0.000000)">
                        <mask id="mask-2" fill="white">
                            <use xlink:href="#path-1"/>
                        </mask>
                        <g id="Clip-5"/>
                        <path d="M22.8284063,10.5551797 L23.781841,10.5551797 C23.8114992,11.4553182 23.8455309,12.4583534 23.8784692,13.4260782 C23.9260316,14.8317344 23.9716806,16.1808387 23.9977853,17.01546 L17.9907091,17.01546 C18.0364948,15.6176659 18.1301162,12.7800088 18.2058333,10.5551797 L19.1723887,10.5551797 L19.1723887,11.5656631 C19.1723887,11.5794563 19.1727987,11.5931114 19.1736188,11.6069046 C19.2248714,12.4724224 19.4904281,13.3833196 20.0663704,13.767044 L20.0939785,13.8525613 C20.1021789,13.8775268 20.1116094,13.9020786 20.1224066,13.9259406 C20.2804012,14.2733892 20.5961171,14.4808376 20.9667758,14.4808376 C21.3229471,14.4808376 21.6325127,14.277665 21.7947442,13.9373889 C21.8048581,13.9161475 21.8138785,13.8943544 21.8218056,13.8721475 L21.8390264,13.8240095 C22.4808455,13.4811127 22.7729169,12.5189052 22.8271763,11.6070425 C22.8279963,11.5932494 22.8284063,11.5794563 22.8284063,11.5656631 L22.8284063,10.5551797 Z M21.0003975,-1.8189894e-12 L21.0001242,-1.8189894e-12 L20.9998508,-1.8189894e-12 C20.6097845,-1.8189894e-12 20.0479195,0.221655325 19.5877396,1.27793192 C19.3314767,1.86593232 19.1723887,2.57751902 19.1723887,3.13503664 L19.1723887,6.42400443 L18.1249226,6.42400443 C17.9852422,5.92483167 17.730756,5.40703821 17.1544037,5.40703821 C16.5740877,5.40703821 16.3238385,5.92041788 16.1904451,6.42400443 L1.17207141,6.42400443 C1.15649063,6.42400443 1.14077317,6.42455615 1.12505571,6.4256596 C0.566197539,6.46441825 0.000505692157,6.88262544 0.000505692157,7.60662594 L-7.17939242e-06,7.67586736 C-0.00236445251,8.11283318 -0.00783139474,9.02193726 1.39375592,9.19145461 C2.07548361,9.27407536 11.4747974,10.0841449 16.1032473,10.4815245 C16.1221083,11.04718 16.1424727,11.6591805 16.1631104,12.2812498 C16.2437478,14.6955963 16.3271186,17.1914601 16.3425627,17.8355985 L16.3194649,19.2993237 C16.3165948,19.4840134 16.3871183,19.6623584 16.5157281,19.7940826 C16.6440646,19.9258068 16.8195534,20.0000138 17.002696,20.0000138 L24.9558669,20.0000138 C25.3333592,20.0000138 25.6392347,19.691186 25.6392347,19.3103581 L25.6392347,17.8438744 C25.6474351,17.5953225 25.7826052,13.4397334 25.8834703,10.4816624 C31.2183859,10.0235931 39.943899,9.27062708 40.6064924,9.19035117 C42.0079431,9.02083381 42.0024761,8.11172973 41.9999928,7.67490184 L41.9999928,7.60566042 C41.9999928,7.16069459 41.7788782,6.78634951 41.3944155,6.57876316 C41.1612504,6.45296997 40.9379258,6.42896995 40.8749193,6.42455615 C40.8593385,6.42345271 40.843621,6.42290098 40.8279036,6.42290098 L25.8088465,6.42290098 C25.6757265,5.9209696 25.4261606,5.40593476 24.8455713,5.40593476 C24.8351841,5.40593476 24.8183733,5.40648649 24.8021091,5.40745201 C24.2405175,5.42358995 23.9998354,5.93710754 23.8699955,6.42400443 L22.8284063,6.42400443 L22.8284063,3.13503664 C22.8284063,2.57751902 22.6691816,1.86593232 22.4129187,1.27779398 C21.9526022,0.221655325 21.3906005,-1.8189894e-12 21.0003975,-1.8189894e-12 L21.0003975,-1.8189894e-12 Z M20.9667758,13.7911819 C20.8500566,13.7911819 20.7826765,13.7245612 20.7435879,13.6383542 L20.7106496,13.536699 C20.6820848,13.4022161 20.6971189,13.2651126 20.6971189,13.2651126 C19.9563482,13.2651126 19.8557565,11.5656631 19.8557565,11.5656631 L19.8557565,9.86552405 L17.5457,9.86552405 C17.4501652,12.6406984 17.3100748,16.9190462 17.2846536,17.7051157 L24.7012441,17.7051157 C24.6821098,16.8598737 24.5325889,12.6186294 24.442931,9.86552405 L22.1450385,9.86552405 L22.1450385,11.5656631 C22.1450385,11.5656631 22.0437634,13.2651126 21.3035395,13.2651126 L21.2466833,13.2651126 C21.2462732,13.3395954 21.2394396,13.4415265 21.2151117,13.536699 L21.1788932,13.6383542 C21.1367977,13.7264922 21.0711944,13.7911819 20.9667758,13.7911819 L20.9667758,13.7911819 Z M21.0003975,0.689655648 C21.5726497,0.689655648 22.1450385,2.18358771 22.1450385,3.13503664 L22.1450385,7.11366008 L24.4202432,7.11366008 L24.4199699,7.11255663 C24.4229767,7.09793593 24.4261202,7.08290144 24.429537,7.06786694 C24.48899,6.76290122 24.606666,6.09669386 24.8295805,6.09669386 C24.8306739,6.09669386 24.8411978,6.09559041 24.8455713,6.09559041 C25.0783264,6.09559041 25.1964123,6.79269434 25.2531319,7.10359111 C25.2538152,7.10648766 25.2544986,7.10966008 25.255182,7.11255663 L40.8279036,7.11255663 C40.8279036,7.11255663 41.3162382,7.14648769 41.3162382,7.60566042 C41.3162382,8.06400556 41.3663974,8.40386786 40.5248983,8.50566104 C39.7820775,8.59559213 28.25872,9.58566178 25.566251,9.81669643 L25.566251,9.81697229 L25.2212869,9.84690334 C25.1157749,12.911733 24.9558669,17.832702 24.9558669,17.832702 L24.9558669,19.3103581 L17.002696,19.3103581 L17.0262039,17.832702 C17.0061128,16.9847014 16.8568653,12.5986294 16.7659774,9.84621369 C14.9066704,9.6867653 2.25466264,8.60110938 1.47507668,8.50662656 C0.633577602,8.40497131 0.68387347,8.06497108 0.68387347,7.60662594 C0.68387347,7.14759114 1.17207141,7.11366008 1.17207141,7.11366008 L16.7450664,7.11366008 C16.8012392,6.80152193 16.9195985,6.09669386 17.1544037,6.09669386 C17.3883888,6.09669386 17.5165886,6.80152193 17.5801418,7.11366008 L19.8557565,7.11366008 L19.8557565,3.13503664 C19.8557565,2.18358771 20.4280087,0.689655648 20.9998508,0.689655648 L21.0003975,0.69848324 L21.0003975,0.689655648 L21.0003975,0.689655648 Z" id="Fill-4" fill="#596B6A" mask="url(#mask-2)"/>
                    </g>
                    <path d="M21.6831093,3.91609925 C21.6831093,4.29734089 21.3772338,4.60492731 20.9998782,4.60492731 C20.6227958,4.60492731 20.3170571,4.29734089 20.3170571,3.91609925 C20.3170571,3.53554727 20.6227958,3.22561602 20.9998782,3.22561602 C21.3772338,3.22561602 21.6831093,3.53554727 21.6831093,3.91609925" id="Fill-7" fill="#596B6A"/>
                </g>
            </g>
        </g>
    </g>
</svg>