<?xml version="1.0" encoding="UTF-8" standalone="no"?>
<svg
   xmlns:dc="http://purl.org/dc/elements/1.1/"
   xmlns:cc="http://creativecommons.org/ns#"
   xmlns:rdf="http://www.w3.org/1999/02/22-rdf-syntax-ns#"
   xmlns:svg="http://www.w3.org/2000/svg"
   xmlns="http://www.w3.org/2000/svg"
   xmlns:xlink="http://www.w3.org/1999/xlink"
   xmlns:sodipodi="http://sodipodi.sourceforge.net/DTD/sodipodi-0.dtd"
   xmlns:inkscape="http://www.inkscape.org/namespaces/inkscape"
   width="50"
   height="50"
   viewBox="0 0 50 50"
   version="1.1"
   id="svg42"
   sodipodi:docname="stearman.svg"
   inkscape:version="0.92.4 (5da689c313, 2019-01-14)">
  <metadata
     id="metadata46">
    <rdf:RDF>
      <cc:Work
         rdf:about="">
        <dc:format>image/svg+xml</dc:format>
        <dc:type
           rdf:resource="http://purl.org/dc/dcmitype/StillImage" />
      </cc:Work>
    </rdf:RDF>
  </metadata>
  <sodipodi:namedview
     pagecolor="#ffffff"
     bordercolor="#666666"
     borderopacity="1"
     objecttolerance="10"
     gridtolerance="10"
     guidetolerance="10"
     inkscape:pageopacity="0"
     inkscape:pageshadow="2"
     inkscape:window-width="1920"
     inkscape:window-height="1017"
     id="namedview44"
     showgrid="false"
     inkscape:zoom="4.72"
     inkscape:cx="25"
     inkscape:cy="25"
     inkscape:window-x="-8"
     inkscape:window-y="-8"
     inkscape:window-maximized="1"
     inkscape:current-layer="svg42" />
  <defs
     id="defs4">
    <path
       id="a"
       d="M0 .127h37.953v6.995H0z" />
    <path
       id="c"
       d="M.088.076h1.613v1.258H.088z" />
    <filter
       inkscape:collect="always"
       style="color-interpolation-filters:sRGB"
       id="filter895"
       x="-0.16485792"
       width="1.3297158"
       y="-0.19820498"
       height="1.39641">
      <feGaussianBlur
         inkscape:collect="always"
         stdDeviation="2.6070219"
         id="feGaussianBlur897" />
    </filter>
  </defs>
  <g
     id="g937"
     transform="translate(-8.3663646e-4,2.9445773)">
    <g
       id="g889"
       style="opacity:0.5;fill:#000000;fill-opacity:1;fill-rule:evenodd;filter:url(#filter895)"
       transform="rotate(45,24.819678,24.452653)">
      <path
         d="m 22.794,26.042 a 0.348,0.348 0 0 1 -0.054,0.044 l -0.18,0.121 A 0.353,0.353 0 0 1 22.114,26.163 L 17.44,21.49 a 0.353,0.353 0 0 1 -0.084,-0.364 l 0.37,-1.086 c -0.575,-0.599 -2.39,-2.535 -2.72,-3.462 -0.186,-0.52 0.053,-0.946 0.223,-1.116 l 0.729,-0.729 c 0.17,-0.17 0.596,-0.408 1.116,-0.223 0.927,0.33 2.863,2.145 3.461,2.72 l 1.457,-0.496 a 0.353,0.353 0 0 1 0.36,0.081 c 0.727,0.707 1.459,1.41 2.19,2.113 0.78,0.75 1.587,1.524 2.375,2.292 a 0.353,0.353 0 0 1 0.048,0.449 l -0.354,0.53 a 0.362,0.362 0 0 1 -0.044,0.055 l -3.682,3.682 a 0.63,0.63 0 0 0 -0.06,0.07 0.372,0.372 0 0 1 -0.032,0.036"
         id="path853"
         inkscape:connector-curvature="0"
         style="fill:#000000;fill-opacity:1" />
      <path
         d="m 15.709,14.483 -0.73,0.73 c -0.228,0.228 -0.55,0.798 -0.306,1.484 0.33,0.923 1.915,2.659 2.65,3.432 l -0.3,0.883 a 0.706,0.706 0 0 0 0.169,0.728 l 4.672,4.672 c 0.238,0.238 0.61,0.275 0.89,0.089 l 0.182,-0.12 a 0.71,0.71 0 0 0 0.172,-0.162 0.33,0.33 0 0 1 0.028,-0.033 l 3.682,-3.682 a 0.707,0.707 0 0 0 0.088,-0.108 l 0.354,-0.531 a 0.706,0.706 0 0 0 -0.096,-0.898 c -0.79,-0.77 -1.599,-1.547 -2.38,-2.298 -0.718,-0.69 -1.46,-1.402 -2.184,-2.107 A 0.707,0.707 0 0 0 21.88,16.4 l -1.254,0.427 c -0.774,-0.735 -2.51,-2.321 -3.433,-2.65 a 1.447,1.447 0 0 0 -1.484,0.306 m 0.5,0.5 c 0,0 0.3,-0.3 0.747,-0.14 0.999,0.355 3.49,2.792 3.49,2.792 l 1.661,-0.567 c 1.515,1.474 3.05,2.93 4.564,4.405 l -0.353,0.531 -3.682,3.682 c -0.034,0.035 -0.064,0.07 -0.091,0.107 l -0.181,0.12 -4.673,-4.673 0.44,-1.29 c 0,0 -2.436,-2.492 -2.792,-3.49 a 0.735,0.735 0 0 1 0.14,-0.748 l 0.73,-0.73"
         id="path855"
         inkscape:connector-curvature="0"
         style="fill:#000000;fill-opacity:1" />
      <path
         d="M 35.506,14.166 14.788,34.885 a 3.001,3.001 0 0 1 -4.244,0 2.58,2.58 0 0 1 0,-3.65 L 31.857,9.922 a 2.58,2.58 0 0 1 3.65,0 3.001,3.001 0 0 1 0,4.244"
         id="path857"
         inkscape:connector-curvature="0"
         style="fill:#000000;fill-opacity:1" />
      <path
         d="M 35.756,14.416 15.038,35.134 a 3.354,3.354 0 0 1 -4.744,0 2.934,2.934 0 0 1 0,-4.148 L 31.607,9.672 a 2.934,2.934 0 0 1 4.149,0 3.354,3.354 0 0 1 0,4.744 z m -0.5,-0.5 a 2.648,2.648 0 0 0 0,-3.744 c -0.87,-0.87 -2.28,-0.87 -3.15,0 L 10.794,31.485 c -0.87,0.87 -0.87,2.28 0,3.15 a 2.648,2.648 0 0 0 3.745,0 L 35.258,13.917 Z"
         id="path859"
         inkscape:connector-curvature="0"
         style="fill:#000000;fill-opacity:1;fill-rule:nonzero" />
      <path
         d="m 18.89,18.702 0.927,-0.927 c 0,0 1.072,-0.211 5.102,4.016 4.03,4.227 7.515,8.453 7.515,8.453 l 5.887,-2.767 c 1.004,-0.472 1.9,0.604 1.272,1.529 l -3.132,4.617 -1.882,-0.462 c 0,0 1.654,1.617 1.788,2.127 0,0 0.056,0.157 -0.084,0.298 l -0.073,0.072 c -0.14,0.14 -0.298,0.084 -0.298,0.084 -0.51,-0.133 -2.126,-1.788 -2.126,-1.788 l 0.462,1.883 -4.618,3.132 c -0.925,0.627 -2,-0.268 -1.529,-1.272 l 2.767,-5.888 c 0,0 -4.226,-3.485 -8.453,-7.515 -4.226,-4.03 -4.016,-5.102 -4.016,-5.102 l 0.928,-0.927"
         id="path861"
         inkscape:connector-curvature="0"
         style="fill:#000000;fill-opacity:1" />
      <path
         d="m 19.954,18.137 c 0.092,0.03 0.277,0.105 0.569,0.273 0.934,0.537 2.292,1.686 4.14,3.625 1.52,1.595 3.069,3.299 4.589,5.032 a 186.312,186.312 0 0 1 2.91,3.402 l 0.174,0.211 6.136,-2.884 c 0.676,-0.317 1.257,0.381 0.83,1.011 l -2.995,4.415 -2.9,-0.712 0.925,0.904 0.032,0.031 c 0.284,0.28 0.624,0.631 0.937,0.98 0.388,0.431 0.658,0.784 0.716,0.927 l -0.038,0.038 c -0.176,-0.08 -0.517,-0.343 -0.93,-0.714 a 23.519,23.519 0 0 1 -0.98,-0.937 l -0.03,-0.032 -0.905,-0.925 0.712,2.9 -4.414,2.994 c -0.63,0.428 -1.329,-0.153 -1.011,-0.83 l 2.884,-6.134 -0.212,-0.175 a 134.892,134.892 0 0 1 -0.95,-0.797 c -0.75,-0.635 -1.576,-1.345 -2.45,-2.112 a 165.203,165.203 0 0 1 -5.034,-4.59 C 20.72,22.191 19.571,20.832 19.034,19.898 A 3.17,3.17 0 0 1 18.761,19.33 Z m -0.387,-0.612 -1.417,1.418 -0.097,0.181 c -0.042,0.212 0.05,0.571 0.37,1.127 0.575,1.001 1.765,2.408 3.749,4.299 a 165.896,165.896 0 0 0 5.055,4.61 186.878,186.878 0 0 0 3.206,2.747 l -2.651,5.64 c -0.626,1.332 0.827,2.541 2.046,1.714 l 4.822,-3.27 -0.229,-0.93 0.156,0.14 c 0.562,0.506 0.965,0.81 1.246,0.883 a 0.658,0.658 0 0 0 0.637,-0.176 l 0.072,-0.073 a 0.658,0.658 0 0 0 0.167,-0.667 c -0.064,-0.25 -0.367,-0.654 -0.873,-1.216 a 19.33,19.33 0 0 0 -0.141,-0.156 l 0.93,0.229 3.27,-4.821 c 0.828,-1.22 -0.382,-2.673 -1.714,-2.047 l -5.64,2.651 a 107.755,107.755 0 0 0 -0.627,-0.746 187.015,187.015 0 0 0 -2.12,-2.46 166.005,166.005 0 0 0 -4.61,-5.055 c -1.89,-1.983 -3.297,-3.173 -4.299,-3.75 -0.555,-0.319 -0.915,-0.41 -1.126,-0.369 z"
         id="path863"
         inkscape:connector-curvature="0"
         style="fill:#000000;fill-opacity:1;fill-rule:nonzero" />
      <path
         d="m 24.447,22.648 -2.575,-2.575 a 0.363,0.363 0 0 0 -0.194,-0.102 c -0.17,-0.03 -0.488,-0.028 -0.8,0.285 -0.313,0.313 -0.316,0.63 -0.286,0.8 0.013,0.075 0.05,0.142 0.103,0.195 l 2.574,2.575 c 0.145,0.145 0.38,0.144 0.525,0 l 0.653,-0.653 a 0.371,0.371 0 0 0 0,-0.525"
         id="path865"
         inkscape:connector-curvature="0"
         style="fill:#000000;fill-opacity:1" />
      <path
         d="m 25.866,19.714 a 0.353,0.353 0 0 1 -0.219,0.102 5.567,5.567 0 0 0 -4.835,3.926 c -0.052,0.158 -0.09,0.305 -0.114,0.445 -0.05,0.236 -0.083,0.46 -0.103,0.681 a 0.353,0.353 0 0 1 -0.102,0.219 l -8.19,8.189 a 3.358,3.358 0 0 1 -4.743,0 2.937,2.937 0 0 1 0,-4.149 L 29.75,6.94 a 2.937,2.937 0 0 1 4.148,0 3.358,3.358 0 0 1 0,4.744 l -8.031,8.031 z"
         id="path867"
         inkscape:connector-curvature="0"
         style="fill:#000000;fill-opacity:1" />
      <g
         style="fill:#000000;fill-opacity:1"
         transform="rotate(-45,40.003,9.645)"
         id="g875">
        <mask
           id="mask871"
           fill="#fff">
          <use
             xlink:href="#a"
             id="use869"
             x="0"
             y="0"
             width="100%"
             height="100%" />
        </mask>
        <path
           d="M 34.666,0.127 H 3.286 A 3.29,3.29 0 0 0 0,3.414 3.712,3.712 0 0 0 3.708,7.122 h 11.58 a 0.707,0.707 0 0 0 0.455,-0.166 5.208,5.208 0 0 1 0.53,-0.39 2.687,2.687 0 0 1 0.359,-0.212 5.214,5.214 0 0 1 5.801,0.602 0.706,0.706 0 0 0 0.454,0.166 H 34.245 A 3.712,3.712 0 0 0 37.953,3.414 3.29,3.29 0 0 0 34.666,0.127 m 0,0.707 a 2.58,2.58 0 0 1 2.58,2.58 3.001,3.001 0 0 1 -3,3.001 H 22.886 A 5.89,5.89 0 0 0 19.088,5.033 5.888,5.888 0 0 0 16.298,5.732 3.34,3.34 0 0 0 15.866,5.988 C 15.665,6.119 15.472,6.262 15.289,6.415 H 3.708 a 3.001,3.001 0 0 1 -3.002,-3 2.58,2.58 0 0 1 2.58,-2.582 h 31.381"
           mask="url(#b)"
           id="path873"
           inkscape:connector-curvature="0"
           style="fill:#000000;fill-opacity:1" />
      </g>
      <g
         style="fill:#000000;fill-opacity:1"
         transform="rotate(-45,23.8,-9.215)"
         id="g883">
        <mask
           id="mask879"
           fill="#fff">
          <use
             xlink:href="#c"
             id="use877"
             x="0"
             y="0"
             width="100%"
             height="100%" />
        </mask>
        <path
           d="M 1.7,1.334 C 1.7,0.813 1.445,0.44 1.22,0.212 a 0.458,0.458 0 0 0 -0.651,0 c -0.224,0.227 -0.48,0.6 -0.48,1.122 z"
           mask="url(#d)"
           id="path881"
           inkscape:connector-curvature="0"
           style="fill:#000000;fill-opacity:1" />
      </g>
      <path
         d="m 11.705,16.71 5.626,-5.627 -0.188,-0.188 -5.626,5.627 z m 4.869,-2.144 -1.386,1.387 c -0.3,0.3 -0.792,0.3 -1.092,0 -0.3,-0.3 -0.3,-0.792 0,-1.093 l 1.386,-1.386 c 0.3,-0.3 0.792,-0.3 1.092,0 0.3,0.3 0.3,0.792 0,1.092 m 3.456,10.485 0.218,-0.219 -4.443,-4.443 -0.22,0.219 z m 5.853,-5.357 0.218,-0.218 -4.443,-4.444 -0.219,0.219 z"
         id="path885"
         inkscape:connector-curvature="0"
         style="fill:#000000;fill-opacity:1" />
      <path
         d="m 33.407,32.51 0.925,0.904 0.032,0.03 c 0.284,0.281 0.624,0.632 0.937,0.98 0.388,0.432 0.658,0.785 0.716,0.928 l -0.038,0.038 c -0.176,-0.08 -0.517,-0.343 -0.93,-0.714 a 23.52,23.52 0 0 1 -0.98,-0.937 l -0.03,-0.032 -0.905,-0.925 0.712,2.9 -4.414,2.994 c -0.63,0.428 -1.329,-0.153 -1.01,-0.829 l 2.883,-6.135 -0.212,-0.175 a 135.012,135.012 0 0 1 -0.95,-0.797 186.321,186.321 0 0 1 -6.755,-6.012 l -0.484,0.515 a 187.024,187.024 0 0 0 7.529,6.664 l -2.651,5.64 c -0.626,1.332 0.827,2.541 2.047,1.714 l 4.617,-3.132 0.204,-0.138 -0.229,-0.93 0.156,0.14 c 0.562,0.506 0.965,0.81 1.246,0.883 a 0.658,0.658 0 0 0 0.637,-0.176 l 0.072,-0.073 a 0.658,0.658 0 0 0 0.167,-0.667 c -0.064,-0.25 -0.367,-0.653 -0.873,-1.216 a 19.334,19.334 0 0 0 -0.141,-0.156 l 0.93,0.229 3.27,-4.821 c 0.828,-1.22 -0.382,-2.673 -1.714,-2.047 l -5.64,2.651 a 107.726,107.726 0 0 0 -0.627,-0.746 187.006,187.006 0 0 0 -2.12,-2.46 170.573,170.573 0 0 0 -4.058,-4.473 l -0.514,0.485 a 169.877,169.877 0 0 1 4.04,4.454 186.303,186.303 0 0 1 2.91,3.4 l 0.174,0.212 6.136,-2.884 c 0.676,-0.317 1.257,0.381 0.83,1.012 l -2.995,4.414 z"
         id="path887"
         inkscape:connector-curvature="0"
         style="fill:#000000;fill-opacity:1;fill-rule:nonzero" />
    </g>
    <g
       transform="rotate(45,24.819678,24.452653)"
       style="fill:none;fill-rule:evenodd"
       id="g40">
      <path
         style="fill:#f2f2f2"
         inkscape:connector-curvature="0"
         id="path6"
         d="m 22.794,26.042 a 0.348,0.348 0 0 1 -0.054,0.044 l -0.18,0.121 A 0.353,0.353 0 0 1 22.114,26.163 L 17.44,21.49 a 0.353,0.353 0 0 1 -0.084,-0.364 l 0.37,-1.086 c -0.575,-0.599 -2.39,-2.535 -2.72,-3.462 -0.186,-0.52 0.053,-0.946 0.223,-1.116 l 0.729,-0.729 c 0.17,-0.17 0.596,-0.408 1.116,-0.223 0.927,0.33 2.863,2.145 3.461,2.72 l 1.457,-0.496 a 0.353,0.353 0 0 1 0.36,0.081 c 0.727,0.707 1.459,1.41 2.19,2.113 0.78,0.75 1.587,1.524 2.375,2.292 a 0.353,0.353 0 0 1 0.048,0.449 l -0.354,0.53 a 0.362,0.362 0 0 1 -0.044,0.055 l -3.682,3.682 a 0.63,0.63 0 0 0 -0.06,0.07 0.372,0.372 0 0 1 -0.032,0.036" />
      <path
         style="fill:#596b6a"
         inkscape:connector-curvature="0"
         id="path8"
         d="m 15.709,14.483 -0.73,0.73 c -0.228,0.228 -0.55,0.798 -0.306,1.484 0.33,0.923 1.915,2.659 2.65,3.432 l -0.3,0.883 a 0.706,0.706 0 0 0 0.169,0.728 l 4.672,4.672 c 0.238,0.238 0.61,0.275 0.89,0.089 l 0.182,-0.12 a 0.71,0.71 0 0 0 0.172,-0.162 0.33,0.33 0 0 1 0.028,-0.033 l 3.682,-3.682 a 0.707,0.707 0 0 0 0.088,-0.108 l 0.354,-0.531 a 0.706,0.706 0 0 0 -0.096,-0.898 c -0.79,-0.77 -1.599,-1.547 -2.38,-2.298 -0.718,-0.69 -1.46,-1.402 -2.184,-2.107 A 0.707,0.707 0 0 0 21.88,16.4 l -1.254,0.427 c -0.774,-0.735 -2.51,-2.321 -3.433,-2.65 a 1.447,1.447 0 0 0 -1.484,0.306 m 0.5,0.5 c 0,0 0.3,-0.3 0.747,-0.14 0.999,0.355 3.49,2.792 3.49,2.792 l 1.661,-0.567 c 1.515,1.474 3.05,2.93 4.564,4.405 l -0.353,0.531 -3.682,3.682 c -0.034,0.035 -0.064,0.07 -0.091,0.107 l -0.181,0.12 -4.673,-4.673 0.44,-1.29 c 0,0 -2.436,-2.492 -2.792,-3.49 a 0.735,0.735 0 0 1 0.14,-0.748 l 0.73,-0.73" />
      <path
         style="fill:#dce1e5"
         inkscape:connector-curvature="0"
         id="path10"
         d="M 35.506,14.166 14.788,34.885 a 3.001,3.001 0 0 1 -4.244,0 2.58,2.58 0 0 1 0,-3.65 L 31.857,9.922 a 2.58,2.58 0 0 1 3.65,0 3.001,3.001 0 0 1 0,4.244" />
      <path
         style="fill:#596b6a;fill-rule:nonzero"
         inkscape:connector-curvature="0"
         id="path12"
         d="M 35.756,14.416 15.038,35.134 a 3.354,3.354 0 0 1 -4.744,0 2.934,2.934 0 0 1 0,-4.148 L 31.607,9.672 a 2.934,2.934 0 0 1 4.149,0 3.354,3.354 0 0 1 0,4.744 z m -0.5,-0.5 a 2.648,2.648 0 0 0 0,-3.744 c -0.87,-0.87 -2.28,-0.87 -3.15,0 L 10.794,31.485 c -0.87,0.87 -0.87,2.28 0,3.15 a 2.648,2.648 0 0 0 3.745,0 L 35.258,13.917 Z" />
      <path
         style="fill:#dce1e5"
         inkscape:connector-curvature="0"
         id="path14"
         d="m 18.89,18.702 0.927,-0.927 c 0,0 1.072,-0.211 5.102,4.016 4.03,4.227 7.515,8.453 7.515,8.453 l 5.887,-2.767 c 1.004,-0.472 1.9,0.604 1.272,1.529 l -3.132,4.617 -1.882,-0.462 c 0,0 1.654,1.617 1.788,2.127 0,0 0.056,0.157 -0.084,0.298 l -0.073,0.072 c -0.14,0.14 -0.298,0.084 -0.298,0.084 -0.51,-0.133 -2.126,-1.788 -2.126,-1.788 l 0.462,1.883 -4.618,3.132 c -0.925,0.627 -2,-0.268 -1.529,-1.272 l 2.767,-5.888 c 0,0 -4.226,-3.485 -8.453,-7.515 -4.226,-4.03 -4.016,-5.102 -4.016,-5.102 l 0.928,-0.927" />
      <path
         style="fill:#596b6a;fill-rule:nonzero"
         inkscape:connector-curvature="0"
         id="path16"
         d="m 19.954,18.137 c 0.092,0.03 0.277,0.105 0.569,0.273 0.934,0.537 2.292,1.686 4.14,3.625 1.52,1.595 3.069,3.299 4.589,5.032 a 186.312,186.312 0 0 1 2.91,3.402 l 0.174,0.211 6.136,-2.884 c 0.676,-0.317 1.257,0.381 0.83,1.011 l -2.995,4.415 -2.9,-0.712 0.925,0.904 0.032,0.031 c 0.284,0.28 0.624,0.631 0.937,0.98 0.388,0.431 0.658,0.784 0.716,0.927 l -0.038,0.038 c -0.176,-0.08 -0.517,-0.343 -0.93,-0.714 a 23.519,23.519 0 0 1 -0.98,-0.937 l -0.03,-0.032 -0.905,-0.925 0.712,2.9 -4.414,2.994 c -0.63,0.428 -1.329,-0.153 -1.011,-0.83 l 2.884,-6.134 -0.212,-0.175 a 134.892,134.892 0 0 1 -0.95,-0.797 c -0.75,-0.635 -1.576,-1.345 -2.45,-2.112 a 165.203,165.203 0 0 1 -5.034,-4.59 C 20.72,22.191 19.571,20.832 19.034,19.898 A 3.17,3.17 0 0 1 18.761,19.33 Z m -0.387,-0.612 -1.417,1.418 -0.097,0.181 c -0.042,0.212 0.05,0.571 0.37,1.127 0.575,1.001 1.765,2.408 3.749,4.299 a 165.896,165.896 0 0 0 5.055,4.61 186.878,186.878 0 0 0 3.206,2.747 l -2.651,5.64 c -0.626,1.332 0.827,2.541 2.046,1.714 l 4.822,-3.27 -0.229,-0.93 0.156,0.14 c 0.562,0.506 0.965,0.81 1.246,0.883 a 0.658,0.658 0 0 0 0.637,-0.176 l 0.072,-0.073 a 0.658,0.658 0 0 0 0.167,-0.667 c -0.064,-0.25 -0.367,-0.654 -0.873,-1.216 a 19.33,19.33 0 0 0 -0.141,-0.156 l 0.93,0.229 3.27,-4.821 c 0.828,-1.22 -0.382,-2.673 -1.714,-2.047 l -5.64,2.651 a 107.755,107.755 0 0 0 -0.627,-0.746 187.015,187.015 0 0 0 -2.12,-2.46 166.005,166.005 0 0 0 -4.61,-5.055 c -1.89,-1.983 -3.297,-3.173 -4.299,-3.75 -0.555,-0.319 -0.915,-0.41 -1.126,-0.369 z" />
      <path
         style="fill:#596b6a"
         inkscape:connector-curvature="0"
         id="path18"
         d="m 24.447,22.648 -2.575,-2.575 a 0.363,0.363 0 0 0 -0.194,-0.102 c -0.17,-0.03 -0.488,-0.028 -0.8,0.285 -0.313,0.313 -0.316,0.63 -0.286,0.8 0.013,0.075 0.05,0.142 0.103,0.195 l 2.574,2.575 c 0.145,0.145 0.38,0.144 0.525,0 l 0.653,-0.653 a 0.371,0.371 0 0 0 0,-0.525" />
      <path
         style="fill:#f2f2f2"
         inkscape:connector-curvature="0"
         id="path20"
         d="m 25.866,19.714 a 0.353,0.353 0 0 1 -0.219,0.102 5.567,5.567 0 0 0 -4.835,3.926 c -0.052,0.158 -0.09,0.305 -0.114,0.445 -0.05,0.236 -0.083,0.46 -0.103,0.681 a 0.353,0.353 0 0 1 -0.102,0.219 l -8.19,8.189 a 3.358,3.358 0 0 1 -4.743,0 2.937,2.937 0 0 1 0,-4.149 L 29.75,6.94 a 2.937,2.937 0 0 1 4.148,0 3.358,3.358 0 0 1 0,4.744 l -8.031,8.031 z" />
      <g
         id="g27"
         transform="rotate(-45,40.003,9.645)">
        <mask
           fill="#fff"
           id="b">
          <use
             height="100%"
             width="100%"
             y="0"
             x="0"
             id="use22"
             xlink:href="#a" />
        </mask>
        <path
           style="fill:#596b6a"
           inkscape:connector-curvature="0"
           id="path25"
           mask="url(#b)"
           d="M 34.666,0.127 H 3.286 A 3.29,3.29 0 0 0 0,3.414 3.712,3.712 0 0 0 3.708,7.122 h 11.58 a 0.707,0.707 0 0 0 0.455,-0.166 5.208,5.208 0 0 1 0.53,-0.39 2.687,2.687 0 0 1 0.359,-0.212 5.214,5.214 0 0 1 5.801,0.602 0.706,0.706 0 0 0 0.454,0.166 H 34.245 A 3.712,3.712 0 0 0 37.953,3.414 3.29,3.29 0 0 0 34.666,0.127 m 0,0.707 a 2.58,2.58 0 0 1 2.58,2.58 3.001,3.001 0 0 1 -3,3.001 H 22.886 A 5.89,5.89 0 0 0 19.088,5.033 5.888,5.888 0 0 0 16.298,5.732 3.34,3.34 0 0 0 15.866,5.988 C 15.665,6.119 15.472,6.262 15.289,6.415 H 3.708 a 3.001,3.001 0 0 1 -3.002,-3 2.58,2.58 0 0 1 2.58,-2.582 h 31.381" />
      </g>
      <g
         id="g34"
         transform="rotate(-45,23.8,-9.215)">
        <mask
           fill="#fff"
           id="d">
          <use
             height="100%"
             width="100%"
             y="0"
             x="0"
             id="use29"
             xlink:href="#c" />
        </mask>
        <path
           style="fill:#596b6a"
           inkscape:connector-curvature="0"
           id="path32"
           mask="url(#d)"
           d="M 1.7,1.334 C 1.7,0.813 1.445,0.44 1.22,0.212 a 0.458,0.458 0 0 0 -0.651,0 c -0.224,0.227 -0.48,0.6 -0.48,1.122 z" />
      </g>
      <path
         style="fill:#596b6a"
         inkscape:connector-curvature="0"
         id="path36"
         d="m 11.705,16.71 5.626,-5.627 -0.188,-0.188 -5.626,5.627 z m 4.869,-2.144 -1.386,1.387 c -0.3,0.3 -0.792,0.3 -1.092,0 -0.3,-0.3 -0.3,-0.792 0,-1.093 l 1.386,-1.386 c 0.3,-0.3 0.792,-0.3 1.092,0 0.3,0.3 0.3,0.792 0,1.092 m 3.456,10.485 0.218,-0.219 -4.443,-4.443 -0.22,0.219 z m 5.853,-5.357 0.218,-0.218 -4.443,-4.444 -0.219,0.219 z" />
      <path
         style="fill:#596b6a;fill-rule:nonzero"
         inkscape:connector-curvature="0"
         id="path38"
         d="m 33.407,32.51 0.925,0.904 0.032,0.03 c 0.284,0.281 0.624,0.632 0.937,0.98 0.388,0.432 0.658,0.785 0.716,0.928 l -0.038,0.038 c -0.176,-0.08 -0.517,-0.343 -0.93,-0.714 a 23.52,23.52 0 0 1 -0.98,-0.937 l -0.03,-0.032 -0.905,-0.925 0.712,2.9 -4.414,2.994 c -0.63,0.428 -1.329,-0.153 -1.01,-0.829 l 2.883,-6.135 -0.212,-0.175 a 135.012,135.012 0 0 1 -0.95,-0.797 186.321,186.321 0 0 1 -6.755,-6.012 l -0.484,0.515 a 187.024,187.024 0 0 0 7.529,6.664 l -2.651,5.64 c -0.626,1.332 0.827,2.541 2.047,1.714 l 4.617,-3.132 0.204,-0.138 -0.229,-0.93 0.156,0.14 c 0.562,0.506 0.965,0.81 1.246,0.883 a 0.658,0.658 0 0 0 0.637,-0.176 l 0.072,-0.073 a 0.658,0.658 0 0 0 0.167,-0.667 c -0.064,-0.25 -0.367,-0.653 -0.873,-1.216 a 19.334,19.334 0 0 0 -0.141,-0.156 l 0.93,0.229 3.27,-4.821 c 0.828,-1.22 -0.382,-2.673 -1.714,-2.047 l -5.64,2.651 a 107.726,107.726 0 0 0 -0.627,-0.746 187.006,187.006 0 0 0 -2.12,-2.46 170.573,170.573 0 0 0 -4.058,-4.473 l -0.514,0.485 a 169.877,169.877 0 0 1 4.04,4.454 186.303,186.303 0 0 1 2.91,3.4 l 0.174,0.212 6.136,-2.884 c 0.676,-0.317 1.257,0.381 0.83,1.012 l -2.995,4.414 z" />
    </g>
  </g>
</svg>
