<?xml version="1.0" encoding="utf-8"?>
<!-- Generator: Adobe Illustrator 21.1.0, SVG Export Plug-In . SVG Version: 6.00 Build 0)  -->
<svg version="1.1" id="Layer_1" xmlns="http://www.w3.org/2000/svg" xmlns:xlink="http://www.w3.org/1999/xlink" x="0px" y="0px"
	 viewBox="0 0 216 292" style="enable-background:new 0 0 216 292;" xml:space="preserve">
<style type="text/css">
	.st0{fill:#EDE2B2;}
	.st1{fill:#596B6A;}
	.st2{fill:#DBCF9E;}
	.st3{fill:#C8EAB2;}
	.st4{fill:#CAE0E0;}
	.st5{fill:#BFB073;}
	.st6{fill:none;stroke:#EDE2B2;stroke-width:2;stroke-miterlimit:10;}
</style>
<title>Asset 1</title>
<g>
	<g>
		<path class="st0" d="M106.4,258.2c-1.4,0-2.5-1.1-2.5-2.5v-2.9h-2.8c-1.2,0-2.3-0.9-2.5-2.1l-0.4-2.8c-0.1,0-0.3,0-0.4,0h-3.9v2.3
			c0,1.4-1.1,2.5-2.5,2.5H67.7c-0.6,0-1.1-0.2-1.5-0.5l-3.9-3.1c-0.6-0.5-1-1.2-1-2v-10c0-0.7,0.3-1.4,0.8-1.9l26.4-23.7L88.3,197
			H36.1c-1.4,0-2.5-1.1-2.5-2.5v-18.2c0-0.7,0.3-1.5,0.9-1.9l48.8-40.2v-1.3c0-3.1,2.1-10.5,4.7-19.2c0.7-2.4,1.3-4.4,1.6-5.5
			c1.4-5.6,2.2-9.3,2.5-11.3c0.1-0.9,0.4-4,0.7-7.3c0.7-7.5,1.1-12.8,1.4-14.1c0.4-1.7,1.3-4.4,1.7-5.4c0.1-2,0.6-10.9,2.1-18.2
			c1.9-9.6,6.8-20,7-20.4c0.4-0.9,1.3-1.4,2.2-1.4c0,0,0,0,0.1,0c0.9,0,1.8,0.5,2.2,1.3c0,0.1,5.1,10.8,7.1,20.6
			c1.5,7.4,2,16.2,2.1,18.2c0.4,1,1.3,3.7,1.7,5.4c0.3,1.3,0.8,6.7,1.4,14.2c0.3,3.2,0.6,6.3,0.7,7.3c0.2,1.9,1.1,5.7,2.5,11.3
			c0.3,1,0.9,3.1,1.6,5.5c2.6,8.7,4.7,16.1,4.7,19.2v1.3l48.8,40.2c0.6,0.5,0.9,1.2,0.9,1.9v18.2c0,1.4-1.1,2.5-2.5,2.5h-52.2
			l-0.2,14.5l26.4,23.7c0.5,0.5,0.8,1.1,0.8,1.9v10c0,0.8-0.4,1.5-1,2l-3.9,3.1c-0.4,0.3-1,0.5-1.5,0.5h-23.7
			c-1.4,0-2.5-1.1-2.5-2.5v-2.3h-3.9c-0.1,0-0.3,0-0.4,0l-0.4,2.8c-0.2,1.2-1.2,2.1-2.5,2.1h-2.8v2.9c0,1.4-1.1,2.5-2.5,2.5H106.4z"
			/>
		<path class="st1" d="M107.3,32.4L107.3,32.4c0,0,4.9,10.4,6.9,19.9c1.6,8.1,2.1,18.2,2.1,18.2s1.3,3.5,1.7,5.5
			c0.4,2,1.7,18.6,2.1,21.2c0.3,2.6,1.5,7.6,2.5,11.6c1,3.9,6.2,20,6.2,24.1c0,1.6,0,2.5,0,2.5l49.7,40.9v18.2h-54.7l-0.2,18.1
			l27.2,24.5v10l-3.9,3.1h-23.7l0-10.5l-0.1,5.7h-6.3v-18l-3.3,22.9h-5.3v5.4h-0.9h0h-0.9v-5.4h-5.3l-3.3-22.9v18h-6.3l-0.1-5.7
			l0,10.5H67.7l-3.9-3.1v-10L91,212.6l-0.2-18.1H36.1v-18.2l49.7-40.9c0,0,0-0.9,0-2.5c0-4.1,5.2-20.2,6.2-24.1
			c1-3.9,2.2-9,2.5-11.6c0.3-2.6,1.6-19.2,2.1-21.2c0.4-2,1.7-5.5,1.7-5.5s0.4-10.2,2.1-18.2C102.3,42.8,107.3,32.4,107.3,32.4
			L107.3,32.4L107.3,32.4L107.3,32.4 M107.3,27.4C107.3,27.4,107.3,27.4,107.3,27.4c-1.9,0-3.7,1.1-4.5,2.9
			c-0.2,0.4-5.2,11.1-7.2,21c-1.4,7.1-2,15.6-2.1,18.2c-0.4,1.2-1.3,3.7-1.7,5.4c-0.3,1.3-0.7,5.3-1.5,14.5
			c-0.3,3.2-0.6,6.3-0.7,7.2c-0.2,1.8-1,5.5-2.4,11c-0.2,1-0.9,3-1.6,5.4c-2.7,9.2-4.8,16.5-4.8,20v0.2l-47.8,39.4
			c-1.2,0.9-1.8,2.4-1.8,3.9v18.2c0,2.8,2.2,5,5,5h49.8l0.1,10.9l-25.5,23c-1.1,0.9-1.7,2.3-1.7,3.7v10c0,1.5,0.7,3,1.9,3.9l3.9,3.1
			c0.9,0.7,2,1.1,3.1,1.1h23.7c2.3,0,4.2-1.6,4.8-3.7c0.5,2.2,2.5,3.8,4.9,3.8h0.3v0.4c0,2.8,2.2,5,5,5h0.9h0.9c2.8,0,5-2.2,5-5
			v-0.4h0.3c2.3,0,4.3-1.6,4.9-3.8c0.6,2.1,2.5,3.7,4.8,3.7h23.7c1.1,0,2.2-0.4,3.1-1.1l3.9-3.1c1.2-0.9,1.9-2.4,1.9-3.9v-10
			c0-1.4-0.6-2.8-1.7-3.7l-25.5-23l0.1-10.9h49.8c2.8,0,5-2.2,5-5v-18.2c0-1.5-0.7-2.9-1.8-3.9L133.7,133v-0.2
			c0-3.4-2.1-10.8-4.8-20c-0.7-2.4-1.3-4.4-1.6-5.4c-1.4-5.5-2.2-9.1-2.4-11c-0.1-0.9-0.4-4-0.7-7.2c-0.8-9.1-1.2-13.1-1.5-14.5
			c-0.4-1.7-1.2-4.1-1.7-5.4c-0.1-2.6-0.7-11.1-2.1-18.2c-2-9.9-7-20.6-7.2-21C111,28.5,109.2,27.4,107.3,27.4L107.3,27.4z"/>
	</g>
	<path class="st2" d="M128.7,135.3c0,0,0-0.9,0-2.5c0-4.1-5.2-20.2-6.2-24.1c-0.2-0.8-0.4-1.6-0.6-2.5c-4.3,5.4-9.1,10.6-11.9,11.2
		c-3,0.6-11.4-0.1-20.3-0.6c-1.8,6-3.9,13.4-3.9,16c0,1.6,0,2.5,0,2.5l-49.7,40.9v18.2h16c1.7-3.8,4.4-7.9,8.5-11.1
		c9.7-7.3,22.7-1,32.3-1c9.7,0,30.7-13,44-25.3c2.6-2.4,5-5.6,7.1-9.1L128.7,135.3z"/>
	<path class="st3" d="M178.4,176.2l-14.3-11.8c-0.8,0.7-1.5,1.5-2.2,2.3c-5.7,7.7-6.7,18.7-6.3,21.7c0.1,1.2,0.6,3.6,1.1,6.1h21.6
		V176.2z"/>
	<path class="st2" d="M108.1,250.3h5.3l3.3-22.9v18h6.3l0.1-5.7l0,10.5h23.7l3.9-3.1v-10l-27.2-24.5l0.2-12.8
		c-2.3,0-4.5,0.3-6.4,0.9c-7.3,2.3-14,12-22,13.7c-2.4,0.5-5.1,1.1-8,1.6l-23.5,21.1v10l3.9,3.1h23.7l0-10.5l0.1,5.7h6.3v-18
		l3.3,22.9h5.3v5.4h0.9h0h0.9V250.3z"/>
	<path class="st4" d="M114.1,52.2c-1.9-9.4-6.9-19.9-6.9-19.9l0,0l0,0v0c0,0-4.9,10.4-6.9,19.9c-0.4,2.1-0.8,4.3-1,6.4h15.8
		C114.9,56.5,114.5,54.3,114.1,52.2z"/>
	<polyline class="st1" points="108.1,250.3 113.5,250.3 116.7,227.3 97.8,227.3 101.1,250.3 106.4,250.3 	"/>
	<g>
		<path class="st5" d="M105.4,256.7v-17.8h-1.6v-32.1c-0.4-1.3-3.2-10.8-3.2-15.6c0-5-0.2-52.8-0.2-53.3v-10.1h13.8v10.1
			c0,0.5-0.2,48.3-0.2,53.3c0,4.8-2.8,14.3-3.2,15.6v32.1h-1.6v17.8H105.4z"/>
		<path class="st0" d="M113.2,128.9c0,0,0,5.8,0,9.1c0,0-0.2,48.2-0.2,53.3c0,5-3.2,15.5-3.2,15.5v31.2h-1.6v12.3v5.4h-0.9h0h-0.9
			v-5.4v-12.3h-1.6v-31.2c0,0-3.2-10.5-3.2-15.5c0-5-0.2-53.3-0.2-53.3c0-3.3,0-9.1,0-9.1h5.9H113.2 M115.2,126.9h-2h-5.9h-5.9h-2v2
			v9.1c0,0.5,0.2,48.3,0.2,53.3c0,4.8,2.6,14,3.2,15.8v30.9v2h1.6v10.3v5.4v2h2h0.9h0.9h2v-2v-5.4v-10.3h1.6v-2V207
			c0.5-1.8,3.2-11,3.2-15.8c0-5,0.2-52.8,0.2-53.3l0-9.1V126.9L115.2,126.9z"/>
	</g>
	<path class="st1" d="M113.2,98.8c0-6.1,0-11.3,0-13.5c0-6.7-3.3-15.3-3.3-15.3h-2.6h-2.6c0,0-3.3,8.6-3.3,15.3c0,2.1,0,7.4,0,13.5
		H113.2z"/>
	<path class="st1" d="M101.4,99.8c0,12.9,0,29.1,0,29.1s1.3,3.4,5.9,3.4s5.9-3.4,5.9-3.4s0-16.2,0-29.1H101.4z"/>
	<g>
		<path class="st5" d="M117.9,189.9c-0.8-3.7-1.2-6.4-1.3-8.1c-0.2-5.6-0.9-70.6-0.9-71.2l0-4.6l2,4.2c0.4,0.8,9.2,19.8,9.9,27.9
			c0.5,4.8,0.6,25.4,0.8,43.5l0.1,8.7l-10.3,0.4L117.9,189.9z"/>
		<path class="st0" d="M116.7,110.6c0,0,9.1,19.5,9.8,27.6c0.5,5.5,0.7,31.9,0.8,51.2l-8.5,0.3c-0.7-3.2-1.2-6.1-1.2-7.9
			C117.4,176.1,116.7,110.6,116.7,110.6 M114.6,101.4l0.1,9.3c0,2.7,0.7,65.6,0.9,71.3c0.1,1.8,0.5,4.5,1.3,8.2l0.3,1.7l1.7-0.1
			l8.5-0.3l1.9-0.1l0-1.9l-0.1-7.7c-0.1-18.2-0.3-38.8-0.8-43.7c-0.8-8.3-9.6-27.4-10-28.2L114.6,101.4L114.6,101.4z"/>
	</g>
	<g>
		<path class="st5" d="M86.1,190.3l0.1-8.7c0.1-18.2,0.3-38.7,0.8-43.6c0.8-8.1,9.6-27.1,9.9-27.9l2-4.2l0,4.6
			c0,0.7-0.7,65.6-0.9,71.2c-0.1,1.7-0.5,4.4-1.3,8.1l-0.2,0.8L86.1,190.3z"/>
		<path class="st0" d="M97.8,110.6c0,0-0.7,65.5-0.9,71.2c-0.1,1.8-0.6,4.7-1.2,7.9l-8.5-0.3c0.2-19.4,0.3-45.7,0.8-51.2
			C88.7,130.1,97.8,110.6,97.8,110.6 M99.9,101.4l-3.9,8.4c-0.4,0.8-9.2,19.9-10,28.2c-0.5,4.9-0.6,25.5-0.8,43.7l-0.1,7.7l0,1.9
			l1.9,0.1l8.5,0.3l1.7,0.1l0.3-1.7c0.8-3.7,1.2-6.5,1.3-8.2c0.2-5.6,0.9-68.6,0.9-71.3L99.9,101.4L99.9,101.4z"/>
	</g>
	<g>
		<path class="st1" d="M107.3,32.4L107.3,32.4c0,0,4.9,10.4,6.9,19.9c1.6,8.1,2.1,18.2,2.1,18.2s1.3,3.5,1.7,5.5
			c0.4,2,1.7,18.6,2.1,21.2c0.3,2.6,1.5,7.6,2.5,11.6c1,3.9,6.2,20,6.2,24.1c0,1.6,0,2.5,0,2.5l49.7,40.9v18.2h-54.7l-0.2,18.1
			l27.2,24.5v10l-3.9,3.1h-23.7l0-10.5l-0.1,5.7h-6.3v-18l-3.3,22.9h-5.3v5.4h-0.9h0h-0.9v-5.4h-5.3l-3.3-22.9v18h-6.3l-0.1-5.7
			l0,10.5H67.7l-3.9-3.1v-10L91,212.6l-0.2-18.1H36.1v-18.2l49.7-40.9c0,0,0-0.9,0-2.5c0-4.1,5.2-20.2,6.2-24.1
			c1-3.9,2.2-9,2.5-11.6c0.3-2.6,1.6-19.2,2.1-21.2c0.4-2,1.7-5.5,1.7-5.5s0.4-10.2,2.1-18.2C102.3,42.8,107.3,32.4,107.3,32.4
			L107.3,32.4L107.3,32.4L107.3,32.4 M107.3,27.4C107.3,27.4,107.3,27.4,107.3,27.4c-1.9,0-3.7,1.1-4.5,2.9
			c-0.2,0.4-5.2,11.1-7.2,21c-1.4,7.1-2,15.6-2.1,18.2c-0.4,1.2-1.3,3.7-1.7,5.4c-0.3,1.3-0.7,5.3-1.5,14.5
			c-0.3,3.2-0.6,6.3-0.7,7.2c-0.2,1.8-1,5.5-2.4,11c-0.2,1-0.9,3-1.6,5.4c-2.7,9.2-4.8,16.5-4.8,20v0.2l-47.8,39.4
			c-1.2,0.9-1.8,2.4-1.8,3.9v18.2c0,2.8,2.2,5,5,5h49.8l0.1,10.9l-25.5,23c-1.1,0.9-1.7,2.3-1.7,3.7v10c0,1.5,0.7,3,1.9,3.9l3.9,3.1
			c0.9,0.7,2,1.1,3.1,1.1h23.7c2.3,0,4.2-1.6,4.8-3.7c0.5,2.2,2.5,3.8,4.9,3.8h0.3v0.4c0,2.8,2.2,5,5,5h0.9h0.9c2.8,0,5-2.2,5-5
			v-0.4h0.3c2.3,0,4.3-1.6,4.9-3.8c0.6,2.1,2.5,3.7,4.8,3.7h23.7c1.1,0,2.2-0.4,3.1-1.1l3.9-3.1c1.2-0.9,1.9-2.4,1.9-3.9v-10
			c0-1.4-0.6-2.8-1.7-3.7l-25.5-23l0.1-10.9h49.8c2.8,0,5-2.2,5-5v-18.2c0-1.5-0.7-2.9-1.8-3.9L133.7,133v-0.2
			c0-3.4-2.1-10.8-4.8-20c-0.7-2.4-1.3-4.4-1.6-5.4c-1.4-5.5-2.2-9.1-2.4-11c-0.1-0.9-0.4-4-0.7-7.2c-0.8-9.1-1.2-13.1-1.5-14.5
			c-0.4-1.7-1.2-4.1-1.7-5.4c-0.1-2.6-0.7-11.1-2.1-18.2c-2-9.9-7-20.6-7.2-21C111,28.5,109.2,27.4,107.3,27.4L107.3,27.4z"/>
	</g>
	<rect x="31" y="156.5" class="st1" width="2.5" height="45.5"/>
	<rect x="181" y="156.5" class="st1" width="2.5" height="45.5"/>
	<path class="st6" d="M100.4,128.6c0,0,1.5,4,6.9,4c5.4,0,6.9-4,6.9-4"/>
</g>
</svg>
