<?xml version="1.0" encoding="UTF-8" standalone="no"?>
<!-- Generator: Adobe Illustrator 21.1.0, SVG Export Plug-In . SVG Version: 6.00 Build 0)  -->

<svg
   xmlns:dc="http://purl.org/dc/elements/1.1/"
   xmlns:cc="http://creativecommons.org/ns#"
   xmlns:rdf="http://www.w3.org/1999/02/22-rdf-syntax-ns#"
   xmlns:svg="http://www.w3.org/2000/svg"
   xmlns="http://www.w3.org/2000/svg"
   xmlns:sodipodi="http://sodipodi.sourceforge.net/DTD/sodipodi-0.dtd"
   xmlns:inkscape="http://www.inkscape.org/namespaces/inkscape"
   version="1.1"
   id="Layer_1"
   x="0px"
   y="0px"
   viewBox="0 0 70 70"
   xml:space="preserve"
   inkscape:version="0.91pre4 r13712"
   sodipodi:docname="sufa.svg"
   width="70"
   height="70"><metadata
     id="metadata61"><rdf:RDF><cc:Work
         rdf:about=""><dc:format>image/svg+xml</dc:format><dc:type
           rdf:resource="http://purl.org/dc/dcmitype/StillImage" /><dc:title>Asset 1</dc:title></cc:Work></rdf:RDF></metadata><defs
     id="defs59" /><sodipodi:namedview
     pagecolor="#ffffff"
     bordercolor="#666666"
     borderopacity="1"
     objecttolerance="10"
     gridtolerance="10"
     guidetolerance="10"
     inkscape:pageopacity="0"
     inkscape:pageshadow="2"
     inkscape:window-width="712"
     inkscape:window-height="480"
     id="namedview57"
     showgrid="false"
     inkscape:zoom="0.80821918"
     inkscape:cx="108"
     inkscape:cy="146"
     inkscape:window-x="0"
     inkscape:window-y="0"
     inkscape:window-maximized="0"
     inkscape:current-layer="Layer_1" /><style
     type="text/css"
     id="style3">
	.st0{fill:#EDE2B2;}
	.st1{fill:#596B6A;}
	.st2{fill:#DBCF9E;}
	.st3{fill:#C8EAB2;}
	.st4{fill:#CAE0E0;}
	.st5{fill:#BFB073;}
	.st6{fill:none;stroke:#EDE2B2;stroke-width:2;stroke-miterlimit:10;}
</style><title
     id="title5">Asset 1</title><g
     id="g7"
     transform="matrix(0.202,0,0,0.202,13.3254,5.8817)"><g
       id="g9"><path
         class="st0"
         d="m 106.4,258.2 c -1.4,0 -2.5,-1.1 -2.5,-2.5 l 0,-2.9 -2.8,0 c -1.2,0 -2.3,-0.9 -2.5,-2.1 l -0.4,-2.8 c -0.1,0 -0.3,0 -0.4,0 l -3.9,0 0,2.3 c 0,1.4 -1.1,2.5 -2.5,2.5 l -23.7,0 c -0.6,0 -1.1,-0.2 -1.5,-0.5 l -3.9,-3.1 c -0.6,-0.5 -1,-1.2 -1,-2 l 0,-10 c 0,-0.7 0.3,-1.4 0.8,-1.9 L 88.5,211.5 88.3,197 36.1,197 c -1.4,0 -2.5,-1.1 -2.5,-2.5 l 0,-18.2 c 0,-0.7 0.3,-1.5 0.9,-1.9 l 48.8,-40.2 0,-1.3 c 0,-3.1 2.1,-10.5 4.7,-19.2 0.7,-2.4 1.3,-4.4 1.6,-5.5 1.4,-5.6 2.2,-9.3 2.5,-11.3 0.1,-0.9 0.4,-4 0.7,-7.3 0.7,-7.5 1.1,-12.8 1.4,-14.1 0.4,-1.7 1.3,-4.4 1.7,-5.4 0.1,-2 0.6,-10.9 2.1,-18.2 1.9,-9.6 6.8,-20 7,-20.4 0.4,-0.9 1.3,-1.4 2.2,-1.4 0,0 0,0 0.1,0 0.9,0 1.8,0.5 2.2,1.3 0,0.1 5.1,10.8 7.1,20.6 1.5,7.4 2,16.2 2.1,18.2 0.4,1 1.3,3.7 1.7,5.4 0.3,1.3 0.8,6.7 1.4,14.2 0.3,3.2 0.6,6.3 0.7,7.3 0.2,1.9 1.1,5.7 2.5,11.3 0.3,1 0.9,3.1 1.6,5.5 2.6,8.7 4.7,16.1 4.7,19.2 l 0,1.3 48.8,40.2 c 0.6,0.5 0.9,1.2 0.9,1.9 l 0,18.2 c 0,1.4 -1.1,2.5 -2.5,2.5 l -52.2,0 -0.2,14.5 26.4,23.7 c 0.5,0.5 0.8,1.1 0.8,1.9 l 0,10 c 0,0.8 -0.4,1.5 -1,2 l -3.9,3.1 c -0.4,0.3 -1,0.5 -1.5,0.5 l -23.7,0 c -1.4,0 -2.5,-1.1 -2.5,-2.5 l 0,-2.3 -3.9,0 c -0.1,0 -0.3,0 -0.4,0 l -0.4,2.8 c -0.2,1.2 -1.2,2.1 -2.5,2.1 l -2.8,0 0,2.9 c 0,1.4 -1.1,2.5 -2.5,2.5 l -1.8,0 z"
         id="path11"
         inkscape:connector-curvature="0"
         style="fill:#ede2b2" /><path
         class="st1"
         d="m 107.3,32.4 0,0 c 0,0 4.9,10.4 6.9,19.9 1.6,8.1 2.1,18.2 2.1,18.2 0,0 1.3,3.5 1.7,5.5 0.4,2 1.7,18.6 2.1,21.2 0.3,2.6 1.5,7.6 2.5,11.6 1,3.9 6.2,20 6.2,24.1 0,1.6 0,2.5 0,2.5 l 49.7,40.9 0,18.2 -54.7,0 -0.2,18.1 27.2,24.5 0,10 -3.9,3.1 -23.7,0 0,-10.5 -0.1,5.7 -6.3,0 0,-18 -3.3,22.9 -5.3,0 0,5.4 -0.9,0 0,0 -0.9,0 0,-5.4 -5.3,0 -3.3,-22.9 0,18 -6.3,0 -0.1,-5.7 0,10.5 -23.7,0 -3.9,-3.1 0,-10 27.2,-24.5 -0.2,-18.1 -54.7,0 0,-18.2 49.7,-40.9 c 0,0 0,-0.9 0,-2.5 0,-4.1 5.2,-20.2 6.2,-24.1 1,-3.9 2.2,-9 2.5,-11.6 0.3,-2.6 1.6,-19.2 2.1,-21.2 0.4,-2 1.7,-5.5 1.7,-5.5 0,0 0.4,-10.2 2.1,-18.2 1.9,-9.5 6.9,-19.9 6.9,-19.9 l 0,0 0,0 0,0 m 0,-5 c 0,0 0,0 0,0 -1.9,0 -3.7,1.1 -4.5,2.9 -0.2,0.4 -5.2,11.1 -7.2,21 -1.4,7.1 -2,15.6 -2.1,18.2 -0.4,1.2 -1.3,3.7 -1.7,5.4 -0.3,1.3 -0.7,5.3 -1.5,14.5 -0.3,3.2 -0.6,6.3 -0.7,7.2 -0.2,1.8 -1,5.5 -2.4,11 -0.2,1 -0.9,3 -1.6,5.4 -2.7,9.2 -4.8,16.5 -4.8,20 l 0,0.2 -47.8,39.4 c -1.2,0.9 -1.8,2.4 -1.8,3.9 l 0,18.2 c 0,2.8 2.2,5 5,5 l 49.8,0 0.1,10.9 -25.5,23 c -1.1,0.9 -1.7,2.3 -1.7,3.7 l 0,10 c 0,1.5 0.7,3 1.9,3.9 l 3.9,3.1 c 0.9,0.7 2,1.1 3.1,1.1 l 23.7,0 c 2.3,0 4.2,-1.6 4.8,-3.7 0.5,2.2 2.5,3.8 4.9,3.8 l 0.3,0 0,0.4 c 0,2.8 2.2,5 5,5 l 0.9,0 0.9,0 c 2.8,0 5,-2.2 5,-5 l 0,-0.4 0.3,0 c 2.3,0 4.3,-1.6 4.9,-3.8 0.6,2.1 2.5,3.7 4.8,3.7 l 23.7,0 c 1.1,0 2.2,-0.4 3.1,-1.1 l 3.9,-3.1 c 1.2,-0.9 1.9,-2.4 1.9,-3.9 l 0,-10 c 0,-1.4 -0.6,-2.8 -1.7,-3.7 l -25.5,-23 0.1,-10.9 49.8,0 c 2.8,0 5,-2.2 5,-5 l 0,-18.2 c 0,-1.5 -0.7,-2.9 -1.8,-3.9 l -48.1,-39.6 0,-0.2 c 0,-3.4 -2.1,-10.8 -4.8,-20 -0.7,-2.4 -1.3,-4.4 -1.6,-5.4 -1.4,-5.5 -2.2,-9.1 -2.4,-11 -0.1,-0.9 -0.4,-4 -0.7,-7.2 -0.8,-9.1 -1.2,-13.1 -1.5,-14.5 -0.4,-1.7 -1.2,-4.1 -1.7,-5.4 -0.1,-2.6 -0.7,-11.1 -2.1,-18.2 -2,-9.9 -7,-20.6 -7.2,-21 -0.7,-1.6 -2.5,-2.7 -4.4,-2.7 l 0,0 z"
         id="path13"
         inkscape:connector-curvature="0"
         style="fill:#596b6a" /></g><path
       class="st2"
       d="m 128.7,135.3 c 0,0 0,-0.9 0,-2.5 0,-4.1 -5.2,-20.2 -6.2,-24.1 -0.2,-0.8 -0.4,-1.6 -0.6,-2.5 -4.3,5.4 -9.1,10.6 -11.9,11.2 -3,0.6 -11.4,-0.1 -20.3,-0.6 -1.8,6 -3.9,13.4 -3.9,16 0,1.6 0,2.5 0,2.5 l -49.7,40.9 0,18.2 16,0 c 1.7,-3.8 4.4,-7.9 8.5,-11.1 9.7,-7.3 22.7,-1 32.3,-1 9.7,0 30.7,-13 44,-25.3 2.6,-2.4 5,-5.6 7.1,-9.1 l -15.3,-12.6 z"
       id="path15"
       inkscape:connector-curvature="0"
       style="fill:#dbcf9e" /><path
       class="st3"
       d="m 178.4,176.2 -14.3,-11.8 c -0.8,0.7 -1.5,1.5 -2.2,2.3 -5.7,7.7 -6.7,18.7 -6.3,21.7 0.1,1.2 0.6,3.6 1.1,6.1 l 21.6,0 0,-18.3 z"
       id="path17"
       inkscape:connector-curvature="0"
       style="fill:#c8eab2" /><path
       class="st2"
       d="m 108.1,250.3 5.3,0 3.3,-22.9 0,18 6.3,0 0.1,-5.7 0,10.5 23.7,0 3.9,-3.1 0,-10 -27.2,-24.5 0.2,-12.8 c -2.3,0 -4.5,0.3 -6.4,0.9 -7.3,2.3 -14,12 -22,13.7 -2.4,0.5 -5.1,1.1 -8,1.6 l -23.5,21.1 0,10 3.9,3.1 23.7,0 0,-10.5 0.1,5.7 6.3,0 0,-18 3.3,22.9 5.3,0 0,5.4 0.9,0 0,0 0.9,0 0,-5.4 z"
       id="path19"
       inkscape:connector-curvature="0"
       style="fill:#dbcf9e" /><path
       class="st4"
       d="m 114.1,52.2 c -1.9,-9.4 -6.9,-19.9 -6.9,-19.9 l 0,0 0,0 0,0 c 0,0 -4.9,10.4 -6.9,19.9 -0.4,2.1 -0.8,4.3 -1,6.4 l 15.8,0 c -0.2,-2.1 -0.6,-4.3 -1,-6.4 z"
       id="path21"
       inkscape:connector-curvature="0"
       style="fill:#cae0e0" /><polyline
       class="st1"
       points="108.1,250.3 113.5,250.3 116.7,227.3 97.8,227.3 101.1,250.3 106.4,250.3  "
       id="polyline23"
       style="fill:#596b6a" /><g
       id="g25"><path
         class="st5"
         d="m 105.4,256.7 0,-17.8 -1.6,0 0,-32.1 c -0.4,-1.3 -3.2,-10.8 -3.2,-15.6 0,-5 -0.2,-52.8 -0.2,-53.3 l 0,-10.1 13.8,0 0,10.1 c 0,0.5 -0.2,48.3 -0.2,53.3 0,4.8 -2.8,14.3 -3.2,15.6 l 0,32.1 -1.6,0 0,17.8 -3.8,0 z"
         id="path27"
         inkscape:connector-curvature="0"
         style="fill:#bfb073" /><path
         class="st0"
         d="m 113.2,128.9 c 0,0 0,5.8 0,9.1 0,0 -0.2,48.2 -0.2,53.3 0,5 -3.2,15.5 -3.2,15.5 l 0,31.2 -1.6,0 0,12.3 0,5.4 -0.9,0 0,0 -0.9,0 0,-5.4 0,-12.3 -1.6,0 0,-31.2 c 0,0 -3.2,-10.5 -3.2,-15.5 0,-5 -0.2,-53.3 -0.2,-53.3 0,-3.3 0,-9.1 0,-9.1 l 5.9,0 5.9,0 m 2,-2 -2,0 -5.9,0 -5.9,0 -2,0 0,2 0,9.1 c 0,0.5 0.2,48.3 0.2,53.3 0,4.8 2.6,14 3.2,15.8 l 0,30.9 0,2 1.6,0 0,10.3 0,5.4 0,2 2,0 0.9,0 0.9,0 2,0 0,-2 0,-5.4 0,-10.3 1.6,0 0,-2 0,-31 c 0.5,-1.8 3.2,-11 3.2,-15.8 0,-5 0.2,-52.8 0.2,-53.3 l 0,-9.1 0,-1.9 0,0 z"
         id="path29"
         inkscape:connector-curvature="0"
         style="fill:#ede2b2" /></g><path
       class="st1"
       d="m 113.2,98.8 c 0,-6.1 0,-11.3 0,-13.5 0,-6.7 -3.3,-15.3 -3.3,-15.3 l -2.6,0 -2.6,0 c 0,0 -3.3,8.6 -3.3,15.3 0,2.1 0,7.4 0,13.5 l 11.8,0 z"
       id="path31"
       inkscape:connector-curvature="0"
       style="fill:#596b6a" /><path
       class="st1"
       d="m 101.4,99.8 c 0,12.9 0,29.1 0,29.1 0,0 1.3,3.4 5.9,3.4 4.6,0 5.9,-3.4 5.9,-3.4 0,0 0,-16.2 0,-29.1 l -11.8,0 z"
       id="path33"
       inkscape:connector-curvature="0"
       style="fill:#596b6a" /><g
       id="g35"><path
         class="st5"
         d="m 117.9,189.9 c -0.8,-3.7 -1.2,-6.4 -1.3,-8.1 -0.2,-5.6 -0.9,-70.6 -0.9,-71.2 l 0,-4.6 2,4.2 c 0.4,0.8 9.2,19.8 9.9,27.9 0.5,4.8 0.6,25.4 0.8,43.5 l 0.1,8.7 -10.3,0.4 -0.3,-0.8 z"
         id="path37"
         inkscape:connector-curvature="0"
         style="fill:#bfb073" /><path
         class="st0"
         d="m 116.7,110.6 c 0,0 9.1,19.5 9.8,27.6 0.5,5.5 0.7,31.9 0.8,51.2 l -8.5,0.3 c -0.7,-3.2 -1.2,-6.1 -1.2,-7.9 -0.2,-5.7 -0.9,-71.2 -0.9,-71.2 m -2.1,-9.2 0.1,9.3 c 0,2.7 0.7,65.6 0.9,71.3 0.1,1.8 0.5,4.5 1.3,8.2 l 0.3,1.7 1.7,-0.1 8.5,-0.3 1.9,-0.1 0,-1.9 -0.1,-7.7 c -0.1,-18.2 -0.3,-38.8 -0.8,-43.7 -0.8,-8.3 -9.6,-27.4 -10,-28.2 l -3.8,-8.5 0,0 z"
         id="path39"
         inkscape:connector-curvature="0"
         style="fill:#ede2b2" /></g><g
       id="g41"><path
         class="st5"
         d="m 86.1,190.3 0.1,-8.7 c 0.1,-18.2 0.3,-38.7 0.8,-43.6 0.8,-8.1 9.6,-27.1 9.9,-27.9 l 2,-4.2 0,4.6 c 0,0.7 -0.7,65.6 -0.9,71.2 -0.1,1.7 -0.5,4.4 -1.3,8.1 l -0.2,0.8 -10.4,-0.3 z"
         id="path43"
         inkscape:connector-curvature="0"
         style="fill:#bfb073" /><path
         class="st0"
         d="m 97.8,110.6 c 0,0 -0.7,65.5 -0.9,71.2 -0.1,1.8 -0.6,4.7 -1.2,7.9 l -8.5,-0.3 c 0.2,-19.4 0.3,-45.7 0.8,-51.2 0.7,-8.1 9.8,-27.6 9.8,-27.6 m 2.1,-9.2 -3.9,8.4 c -0.4,0.8 -9.2,19.9 -10,28.2 -0.5,4.9 -0.6,25.5 -0.8,43.7 l -0.1,7.7 0,1.9 1.9,0.1 8.5,0.3 1.7,0.1 0.3,-1.7 c 0.8,-3.7 1.2,-6.5 1.3,-8.2 0.2,-5.6 0.9,-68.6 0.9,-71.3 l 0.2,-9.2 0,0 z"
         id="path45"
         inkscape:connector-curvature="0"
         style="fill:#ede2b2" /></g><g
       id="g47"><path
         class="st1"
         d="m 107.3,32.4 0,0 c 0,0 4.9,10.4 6.9,19.9 1.6,8.1 2.1,18.2 2.1,18.2 0,0 1.3,3.5 1.7,5.5 0.4,2 1.7,18.6 2.1,21.2 0.3,2.6 1.5,7.6 2.5,11.6 1,3.9 6.2,20 6.2,24.1 0,1.6 0,2.5 0,2.5 l 49.7,40.9 0,18.2 -54.7,0 -0.2,18.1 27.2,24.5 0,10 -3.9,3.1 -23.7,0 0,-10.5 -0.1,5.7 -6.3,0 0,-18 -3.3,22.9 -5.3,0 0,5.4 -0.9,0 0,0 -0.9,0 0,-5.4 -5.3,0 -3.3,-22.9 0,18 -6.3,0 -0.1,-5.7 0,10.5 -23.7,0 -3.9,-3.1 0,-10 27.2,-24.5 -0.2,-18.1 -54.7,0 0,-18.2 49.7,-40.9 c 0,0 0,-0.9 0,-2.5 0,-4.1 5.2,-20.2 6.2,-24.1 1,-3.9 2.2,-9 2.5,-11.6 0.3,-2.6 1.6,-19.2 2.1,-21.2 0.4,-2 1.7,-5.5 1.7,-5.5 0,0 0.4,-10.2 2.1,-18.2 1.9,-9.5 6.9,-19.9 6.9,-19.9 l 0,0 0,0 0,0 m 0,-5 c 0,0 0,0 0,0 -1.9,0 -3.7,1.1 -4.5,2.9 -0.2,0.4 -5.2,11.1 -7.2,21 -1.4,7.1 -2,15.6 -2.1,18.2 -0.4,1.2 -1.3,3.7 -1.7,5.4 -0.3,1.3 -0.7,5.3 -1.5,14.5 -0.3,3.2 -0.6,6.3 -0.7,7.2 -0.2,1.8 -1,5.5 -2.4,11 -0.2,1 -0.9,3 -1.6,5.4 -2.7,9.2 -4.8,16.5 -4.8,20 l 0,0.2 -47.8,39.4 c -1.2,0.9 -1.8,2.4 -1.8,3.9 l 0,18.2 c 0,2.8 2.2,5 5,5 l 49.8,0 0.1,10.9 -25.5,23 c -1.1,0.9 -1.7,2.3 -1.7,3.7 l 0,10 c 0,1.5 0.7,3 1.9,3.9 l 3.9,3.1 c 0.9,0.7 2,1.1 3.1,1.1 l 23.7,0 c 2.3,0 4.2,-1.6 4.8,-3.7 0.5,2.2 2.5,3.8 4.9,3.8 l 0.3,0 0,0.4 c 0,2.8 2.2,5 5,5 l 0.9,0 0.9,0 c 2.8,0 5,-2.2 5,-5 l 0,-0.4 0.3,0 c 2.3,0 4.3,-1.6 4.9,-3.8 0.6,2.1 2.5,3.7 4.8,3.7 l 23.7,0 c 1.1,0 2.2,-0.4 3.1,-1.1 l 3.9,-3.1 c 1.2,-0.9 1.9,-2.4 1.9,-3.9 l 0,-10 c 0,-1.4 -0.6,-2.8 -1.7,-3.7 l -25.5,-23 0.1,-10.9 49.8,0 c 2.8,0 5,-2.2 5,-5 l 0,-18.2 c 0,-1.5 -0.7,-2.9 -1.8,-3.9 l -48.1,-39.6 0,-0.2 c 0,-3.4 -2.1,-10.8 -4.8,-20 -0.7,-2.4 -1.3,-4.4 -1.6,-5.4 -1.4,-5.5 -2.2,-9.1 -2.4,-11 -0.1,-0.9 -0.4,-4 -0.7,-7.2 -0.8,-9.1 -1.2,-13.1 -1.5,-14.5 -0.4,-1.7 -1.2,-4.1 -1.7,-5.4 -0.1,-2.6 -0.7,-11.1 -2.1,-18.2 -2,-9.9 -7,-20.6 -7.2,-21 -0.7,-1.6 -2.5,-2.7 -4.4,-2.7 l 0,0 z"
         id="path49"
         inkscape:connector-curvature="0"
         style="fill:#596b6a" /></g><rect
       x="31"
       y="156.5"
       class="st1"
       width="2.5"
       height="45.5"
       id="rect51"
       style="fill:#596b6a" /><rect
       x="181"
       y="156.5"
       class="st1"
       width="2.5"
       height="45.5"
       id="rect53"
       style="fill:#596b6a" /><path
       class="st6"
       d="m 100.4,128.6 c 0,0 1.5,4 6.9,4 5.4,0 6.9,-4 6.9,-4"
       id="path55"
       inkscape:connector-curvature="0"
       style="fill:none;stroke:#ede2b2;stroke-width:2;stroke-miterlimit:10" /></g></svg>