<svg xmlns="http://www.w3.org/2000/svg" width="50" height="50" viewBox="0 0 50 50">
    <g fill="none" fill-rule="evenodd">
        <path fill="#FFF" d="M12 11l26 14-7 3-1 11-6-7-5 3z"/>
        <path fill="#D1E2EE" d="M31.138 28.07L12.045 10.685l15.389 19.103 2.565 9.679.549-8.157z"/>
        <g fill="#596B6A" fill-rule="nonzero">
            <path d="M19.665 35.534a.4.4 0 0 1-.593-.225l-7.41-24.508a.4.4 0 0 1 .579-.464L38.173 24.87a.4.4 0 0 1-.041.717l-6.62 2.758-1.116 11.162a.4.4 0 0 1-.703.218L23.93 32.9l-4.264 2.633zm-6.95-24.015l6.972 23.061 4.115-2.54a.4.4 0 0 1 .516.082l5.377 6.366L30.74 28.03a.4.4 0 0 1 .244-.329l6.08-2.534-24.35-13.647z"/>
            <path d="M31.307 27.884l-8.451-7.694-10.643-9.69-.336.37 10.642 9.69 8.451 7.694z"/>
            <path d="M29.757 39.532l.483-.128-2.565-9.68-.048-.094-6.966-8.497-8.42-10.603-.392.311 8.423 10.606 6.934 8.458z"/>
        </g>
        <path stroke="#596B6A" stroke-width=".5" d="M27.347 30.064l-6.962 4.439"/>
    </g>
</svg>
