<?xml version="1.0" encoding="utf-8"?>
<!-- Generator: Adobe Illustrator 21.1.0, SVG Export Plug-In . SVG Version: 6.00 Build 0)  -->
<svg version="1.1" id="Layer_1" xmlns="http://www.w3.org/2000/svg" xmlns:xlink="http://www.w3.org/1999/xlink" x="0px" y="0px"
	 viewBox="0 0 309 294" style="enable-background:new 0 0 309 294;" xml:space="preserve">
<style type="text/css">
	.st0{fill:#CAE0E0;}
	.st1{fill:#596B6A;}
	.st2{fill:#A8C1C0;}
</style>
<g>
	<g>
		<path class="st0" d="M153.8,251.6c-0.8,0-1.6-0.4-2.1-1.1c0,0-1.4-2.5-2.1-5.3c-8.7,1.1-37.2,4.8-37.5,4.8c-0.1,0-0.2,0-0.3,0
			c-0.6,0-1.2-0.2-1.7-0.6c-0.5-0.5-0.8-1.2-0.8-1.9v-7.7c0-3.3,1.1-5.3,3.7-6.6c1.4-0.7,25.6-10.3,34-13.5c-1.4-10.6-8-59.3-8-72.4
			c0-1.2,0-2.5,0-3.8l-1.1-1.1h-31.5c-0.1,0-0.3,0-0.4,0l-72.5-12.2c-0.5,6.4-3,10.2-3.1,10.4c-0.5,0.7-1.2,1.1-2.1,1.1
			s-1.6-0.4-2.1-1.1c-0.1-0.2-3.2-4.7-3.2-12.3V111c0-7.6,3.1-12.1,3.2-12.3c0.5-0.7,1.2-1.1,2.1-1.1s1.6,0.4,2.1,1.1
			c0.1,0.2,3.1,4.5,3.2,11.9c6.8-0.2,43.6-2,63.8-3l9.2-4V83.6c0-7.8,3-18.7,7.8-18.7c4.8,0,7.8,10.9,7.8,18.7v21.6l17.4-1.2
			c0-3.5,0-7.1,0-10.6c0-17.8,6.2-45.3,14.4-45.3c8.2,0,14.4,27.5,14.4,45.3c0,3.6,0,7.1,0,10.6l17.4,1.2V83.6
			c0-7.8,3-18.7,7.8-18.7c4.8,0,7.8,10.9,7.8,18.7v19.8l9.2,4c20.2,1,57,2.8,63.8,3c0.1-7.3,3.1-11.7,3.2-11.9
			c0.5-0.7,1.2-1.1,2.1-1.1c0.8,0,1.6,0.4,2.1,1.1c0.1,0.2,3.2,4.7,3.2,12.3v17.2c0,7.6-3.1,12.1-3.2,12.3c-0.5,0.7-1.2,1.1-2.1,1.1
			l0,0c-0.8,0-1.6-0.4-2.1-1.1c-0.1-0.2-2.7-3.9-3.1-10.4l-72.5,12.2c-0.1,0-0.3,0-0.4,0h-31.5l-1.1,1.1c0,1.3,0,2.6,0,3.8
			c0,13.1-6.6,61.8-8,72.4c8.4,3.3,32.5,12.8,34,13.5c2.6,1.3,3.7,3.3,3.7,6.6v7.7c0,0.7-0.3,1.4-0.8,1.9c-0.5,0.4-1,0.6-1.7,0.6
			c-0.1,0-0.2,0-0.3,0c-0.3,0-28.8-3.7-37.5-4.8c-0.6,2.5-1.8,4.8-2,5.1c-0.4,0.8-1.2,1.3-2.1,1.3
			C153.9,251.6,153.9,251.6,153.8,251.6z"/>
		<path class="st1" d="M153.8,50.6c4.9,0,11.9,23.1,11.9,42.8c0,4.3,0,8.7,0.1,13l22.4,1.5V83.6c0-9,3.4-16.2,5.3-16.2
			c1.8,0,5.3,7.3,5.3,16.2v21.4l11.2,4.9c0,0,62.5,3.1,65.4,3.1c0.6,0,1.1,0.1,1.5,0.3V111c0-6.9,2.8-10.9,2.8-10.9s2.8,4,2.8,10.9
			v17.2c0,6.9-2.8,10.9-2.8,10.9s-2.8-4-2.8-10.9v-1l-75.4,12.7h-32.5l-2.6,2.5c0,1.7,0,3.3,0,4.9c0,14.4-8.3,74-8.3,74
			s34,13.4,35.6,14.2c1.5,0.8,2.3,1.8,2.3,4.4c0,2.6,0,7.7,0,7.7s-37.9-4.9-40-5.2c0,2.8-2.1,6.7-2.1,6.7v0l0,0l0,0v0
			c0,0-2.1-3.9-2.1-6.7c-2.1,0.3-40,5.2-40,5.2s0-5.2,0-7.7c0-2.6,0.8-3.6,2.3-4.4c1.5-0.8,35.6-14.2,35.6-14.2s-8.3-59.6-8.3-74
			c0-1.6,0-3.2,0-4.9l-2.6-2.5h-32.5l-75.4-12.7v1c0,6.9-2.8,10.9-2.8,10.9s-2.8-4-2.8-10.9V111c0-6.9,2.8-10.9,2.8-10.9
			s2.8,4,2.8,10.9v2.3c0.4-0.2,0.9-0.3,1.5-0.3c2.9,0,65.4-3.1,65.4-3.1l11.2-4.9V83.6c0-9,3.4-16.2,5.3-16.2
			c1.8,0,5.3,7.3,5.3,16.2v24.3l22.4-1.5c0-4.3,0.1-8.6,0.1-13C142,73.8,148.9,50.6,153.8,50.6 M153.8,45.6
			c-3.2,0-8.1,1.8-12.6,17.7c-2.7,9.4-4.3,20.7-4.3,30.1c0,2.6,0,5.3,0,8.3l-12.4,0.8v-19c0-4.6-0.8-9.3-2.3-13.2c-2-5.3-4.7-8-8-8
			c-3.3,0-6,2.7-8,8c-1.5,3.9-2.3,8.6-2.3,13.2v18.2l-7.3,3.2c-21.1,1-50.9,2.5-60.9,2.9c-0.7-6.4-3.2-10.2-3.5-10.7
			c-0.9-1.4-2.5-2.2-4.1-2.2c-1.6,0-3.2,0.8-4.1,2.2c-0.4,0.5-3.6,5.5-3.6,13.8v17.2c0,8.2,3.3,13.2,3.6,13.8
			c0.9,1.4,2.5,2.2,4.1,2.2c1.6,0,3.2-0.8,4.1-2.2c0.3-0.4,2.4-3.6,3.2-8.9l69.9,11.8c0.3,0,0.6,0.1,0.8,0.1h30.1c0,0.8,0,1.6,0,2.4
			c0,12.6,5.9,57.2,7.8,70.8c-11.5,4.5-30.9,12.2-32.3,12.9c-3.4,1.7-5.1,4.6-5.1,8.9v7.7c0,1.4,0.6,2.8,1.7,3.8
			c0.9,0.8,2.1,1.2,3.3,1.2c0.2,0,0.4,0,0.6,0c0.3,0,25-3.2,35.4-4.6c0.7,1.9,1.4,3.3,1.6,3.6c0.9,1.6,2.5,2.6,4.3,2.6
			c0,0,0.1,0,0.1,0c1.8,0,3.4-0.9,4.3-2.5c0,0,0.9-1.6,1.6-3.7c10.4,1.3,35.1,4.5,35.4,4.6c0.2,0,0.4,0,0.6,0c1.2,0,2.4-0.4,3.3-1.2
			c1.1-0.9,1.7-2.3,1.7-3.8v-7.7c0-4.2-1.7-7.1-5.1-8.9c-1.4-0.7-20.9-8.4-32.3-12.9c1.8-13.6,7.8-58.2,7.8-70.8c0-0.8,0-1.6,0-2.4
			h30.1c0.3,0,0.6,0,0.8-0.1l69.9-11.8c0.9,5.3,3,8.5,3.2,8.9c0.9,1.4,2.5,2.2,4.1,2.2c1.6,0,3.2-0.8,4.1-2.2
			c0.4-0.5,3.6-5.5,3.6-13.8V111c0-8.2-3.3-13.2-3.6-13.8c-0.9-1.4-2.5-2.2-4.1-2.2c-1.6,0-3.2,0.8-4.1,2.2
			c-0.3,0.5-2.8,4.3-3.5,10.7c-10-0.4-39.8-1.9-60.9-2.9l-7.3-3.2V83.6c0-4.6-0.8-9.3-2.3-13.2c-2-5.3-4.7-8-8-8c-3.3,0-6,2.7-8,8
			c-1.5,3.9-2.3,8.6-2.3,13.2v19l-12.4-0.8c0-3,0-5.7,0-8.3c0-9.5-1.6-20.7-4.3-30.1C161.9,47.4,157,45.6,153.8,45.6L153.8,45.6z"/>
	</g>
	<path class="st1" d="M153.3,82.1v6.6c0,0-1.7,0.1-4.1,0.1s-4.8,1.9-4.8,1.9l-1.1-5.9c0,0,1.9-2.6,4.5-2.6S153.3,82.1,153.3,82.1z"
		/>
	<polygon class="st1" points="143.3,86.4 144,90.6 143,90.6 	"/>
	<ellipse class="st1" cx="142.7" cy="94.9" rx="0.9" ry="3.3"/>
	<ellipse class="st1" cx="142.7" cy="112.2" rx="0.9" ry="3.3"/>
	<ellipse class="st1" cx="142.7" cy="119.8" rx="0.9" ry="3.3"/>
	<ellipse class="st1" cx="142.7" cy="127.4" rx="0.9" ry="3.3"/>
	<ellipse class="st1" cx="142.7" cy="135" rx="0.9" ry="3.3"/>
	<ellipse class="st1" cx="142.7" cy="142.5" rx="0.9" ry="3.3"/>
	<ellipse class="st1" cx="144" cy="169.5" rx="0.9" ry="3.3"/>
	<rect x="98.8" y="70.3" class="st1" width="30.8" height="1.5"/>
	<path class="st1" d="M154.3,82.1v6.6c0,0,1.7,0.1,4.1,0.1s4.8,1.9,4.8,1.9l1.1-5.9c0,0-1.9-2.6-4.5-2.6
		C157.2,82.1,154.3,82.1,154.3,82.1z"/>
	<polygon class="st1" points="164.4,86.4 163.6,90.6 164.6,90.6 	"/>
	<ellipse class="st1" cx="164.9" cy="94.9" rx="0.9" ry="3.3"/>
	<ellipse class="st1" cx="164.9" cy="112.2" rx="0.9" ry="3.3"/>
	<ellipse class="st1" cx="164.9" cy="119.8" rx="0.9" ry="3.3"/>
	<ellipse class="st1" cx="164.9" cy="127.4" rx="0.9" ry="3.3"/>
	<ellipse class="st1" cx="164.9" cy="135" rx="0.9" ry="3.3"/>
	<ellipse class="st1" cx="164.9" cy="142.5" rx="0.9" ry="3.3"/>
	<ellipse class="st1" cx="163.6" cy="169.5" rx="0.9" ry="3.3"/>
	<path class="st0" d="M97.8,109.9c0,0-62.5,3.1-65.4,3.1s-3.1,2.1-3.1,3.1c0,1,0,10.8,0,10.8l77,13L97.8,109.9z"/>
	<path class="st0" d="M201.3,139.9l77-13c0,0,0-9.9,0-10.8c0-1-0.2-3.1-3.1-3.1s-65.4-3.1-65.4-3.1L201.3,139.9z"/>
	<path class="st2" d="M119.5,107.9V83.6c0-9-3.4-16.2-5.3-16.2v40.5L119.5,107.9z"/>
	<path class="st2" d="M188.1,107.9V83.6c0-9,3.4-16.2,5.3-16.2v40.5L188.1,107.9z"/>
	
		<rect x="178" y="70.3" transform="matrix(-1 -4.505919e-11 4.505919e-11 -1 386.7846 142.0278)" class="st1" width="30.8" height="1.5"/>
	<path class="st1" d="M197.3,74h-7.9c1.2-4,2.8-6.6,3.9-6.6C194.5,67.4,196.2,70,197.3,74z"/>
	<g>
		<path class="st1" d="M153.8,50.6c-1.5,0-3.2,2.2-4.8,5.7h9.6C157,52.8,155.3,50.6,153.8,50.6z"/>
	</g>
	<path class="st0" d="M28.2,139.1c0,0,2.8-4,2.8-10.9V111c0-6.9-2.8-10.9-2.8-10.9V139.1z"/>
	<path class="st0" d="M279.4,100.1c0,0-2.8,4-2.8,10.9v17.2c0,6.9,2.8,10.9,2.8,10.9V100.1z"/>
	<path class="st1" d="M110.3,74h7.9c-1.2-4-2.8-6.6-3.9-6.6C113.1,67.4,111.5,70,110.3,74z"/>
</g>
</svg>
