<?xml version="1.0" encoding="UTF-8" standalone="no"?>
<!-- Generator: Adobe Illustrator 21.1.0, SVG Export Plug-In . SVG Version: 6.00 Build 0)  -->

<svg
   xmlns:dc="http://purl.org/dc/elements/1.1/"
   xmlns:cc="http://creativecommons.org/ns#"
   xmlns:rdf="http://www.w3.org/1999/02/22-rdf-syntax-ns#"
   xmlns:svg="http://www.w3.org/2000/svg"
   xmlns="http://www.w3.org/2000/svg"
   xmlns:sodipodi="http://sodipodi.sourceforge.net/DTD/sodipodi-0.dtd"
   xmlns:inkscape="http://www.inkscape.org/namespaces/inkscape"
   version="1.1"
   id="Layer_1"
   x="0px"
   y="0px"
   viewBox="0 0 350 350"
   xml:space="preserve"
   inkscape:version="0.91pre4 r13712"
   sodipodi:docname="tzufit.svg"
   width="350"
   height="350"><metadata
     id="metadata77"><rdf:RDF><cc:Work
         rdf:about=""><dc:format>image/svg+xml</dc:format><dc:type
           rdf:resource="http://purl.org/dc/dcmitype/StillImage" /><dc:title /></cc:Work></rdf:RDF></metadata><defs
     id="defs75"><filter
       inkscape:collect="always"
       style="color-interpolation-filters:sRGB"
       id="filter4273"
       x="-0.21399926"
       width="1.4279985"
       y="-0.2731927"
       height="1.5463854"><feGaussianBlur
         inkscape:collect="always"
         stdDeviation="23.745"
         id="feGaussianBlur4275" /></filter></defs><sodipodi:namedview
     pagecolor="#ffffff"
     bordercolor="#666666"
     borderopacity="1"
     objecttolerance="10"
     gridtolerance="10"
     guidetolerance="10"
     inkscape:pageopacity="0"
     inkscape:pageshadow="2"
     inkscape:window-width="1280"
     inkscape:window-height="961"
     id="namedview73"
     showgrid="false"
     inkscape:zoom="0.80272109"
     inkscape:cx="-127.48026"
     inkscape:cy="82.399866"
     inkscape:window-x="494"
     inkscape:window-y="712"
     inkscape:window-maximized="1"
     inkscape:current-layer="Layer_1" /><style
     type="text/css"
     id="style3">
	.st0{fill:#CAE0E0;}
	.st1{fill:#596B6A;}
	.st2{fill:#A8C1C0;}
</style><g
     id="g4205"
     style="opacity:0.5;fill:#455453;fill-opacity:1;filter:url(#filter4273)"
     transform="translate(21.449996,25.1)"
     inkscape:transform-center-x="1.2457667"
     inkscape:transform-center-y="23.669491"><g
       id="g4207"
       style="fill:#455453;fill-opacity:1"><path
         id="path4209"
         d="m 153.8,251.6 c -0.8,0 -1.6,-0.4 -2.1,-1.1 0,0 -1.4,-2.5 -2.1,-5.3 -8.7,1.1 -37.2,4.8 -37.5,4.8 -0.1,0 -0.2,0 -0.3,0 -0.6,0 -1.2,-0.2 -1.7,-0.6 -0.5,-0.5 -0.8,-1.2 -0.8,-1.9 l 0,-7.7 c 0,-3.3 1.1,-5.3 3.7,-6.6 1.4,-0.7 25.6,-10.3 34,-13.5 -1.4,-10.6 -8,-59.3 -8,-72.4 0,-1.2 0,-2.5 0,-3.8 l -1.1,-1.1 -31.5,0 c -0.1,0 -0.3,0 -0.4,0 L 33.5,130.2 c -0.5,6.4 -3,10.2 -3.1,10.4 -0.5,0.7 -1.2,1.1 -2.1,1.1 -0.9,0 -1.6,-0.4 -2.1,-1.1 C 26.1,140.4 23,135.9 23,128.3 L 23,111 c 0,-7.6 3.1,-12.1 3.2,-12.3 0.5,-0.7 1.2,-1.1 2.1,-1.1 0.9,0 1.6,0.4 2.1,1.1 0.1,0.2 3.1,4.5 3.2,11.9 6.8,-0.2 43.6,-2 63.8,-3 l 9.2,-4 0,-20 c 0,-7.8 3,-18.7 7.8,-18.7 4.8,0 7.8,10.9 7.8,18.7 l 0,21.6 17.4,-1.2 c 0,-3.5 0,-7.1 0,-10.6 0,-17.8 6.2,-45.3 14.4,-45.3 8.2,0 14.4,27.5 14.4,45.3 0,3.6 0,7.1 0,10.6 l 17.4,1.2 0,-21.6 c 0,-7.8 3,-18.7 7.8,-18.7 4.8,0 7.8,10.9 7.8,18.7 l 0,19.8 9.2,4 c 20.2,1 57,2.8 63.8,3 0.1,-7.3 3.1,-11.7 3.2,-11.9 0.5,-0.7 1.2,-1.1 2.1,-1.1 0.8,0 1.6,0.4 2.1,1.1 0.1,0.2 3.2,4.7 3.2,12.3 l 0,17.2 c 0,7.6 -3.1,12.1 -3.2,12.3 -0.5,0.7 -1.2,1.1 -2.1,1.1 l 0,0 c -0.8,0 -1.6,-0.4 -2.1,-1.1 -0.1,-0.2 -2.7,-3.9 -3.1,-10.4 L 202,142.1 c -0.1,0 -0.3,0 -0.4,0 l -31.5,0 -1.1,1.1 c 0,1.3 0,2.6 0,3.8 0,13.1 -6.6,61.8 -8,72.4 8.4,3.3 32.5,12.8 34,13.5 2.6,1.3 3.7,3.3 3.7,6.6 l 0,7.7 c 0,0.7 -0.3,1.4 -0.8,1.9 -0.5,0.4 -1,0.6 -1.7,0.6 -0.1,0 -0.2,0 -0.3,0 -0.3,0 -28.8,-3.7 -37.5,-4.8 -0.6,2.5 -1.8,4.8 -2,5.1 -0.4,0.8 -1.2,1.3 -2.1,1.3 -0.4,0.3 -0.4,0.3 -0.5,0.3 z"
         class="st0"
         style="fill:#455453;fill-opacity:1"
         inkscape:connector-curvature="0" /><path
         id="path4211"
         d="m 153.8,50.6 c 4.9,0 11.9,23.1 11.9,42.8 0,4.3 0,8.7 0.1,13 l 22.4,1.5 0,-24.3 c 0,-9 3.4,-16.2 5.3,-16.2 1.8,0 5.3,7.3 5.3,16.2 l 0,21.4 11.2,4.9 c 0,0 62.5,3.1 65.4,3.1 0.6,0 1.1,0.1 1.5,0.3 l 0,-2.3 c 0,-6.9 2.8,-10.9 2.8,-10.9 0,0 2.8,4 2.8,10.9 l 0,17.2 c 0,6.9 -2.8,10.9 -2.8,10.9 0,0 -2.8,-4 -2.8,-10.9 l 0,-1 -75.4,12.7 -32.5,0 -2.6,2.5 c 0,1.7 0,3.3 0,4.9 0,14.4 -8.3,74 -8.3,74 0,0 34,13.4 35.6,14.2 1.5,0.8 2.3,1.8 2.3,4.4 0,2.6 0,7.7 0,7.7 0,0 -37.9,-4.9 -40,-5.2 0,2.8 -2.1,6.7 -2.1,6.7 l 0,0 0,0 0,0 0,0 c 0,0 -2.1,-3.9 -2.1,-6.7 -2.1,0.3 -40,5.2 -40,5.2 0,0 0,-5.2 0,-7.7 0,-2.6 0.8,-3.6 2.3,-4.4 1.5,-0.8 35.6,-14.2 35.6,-14.2 0,0 -8.3,-59.6 -8.3,-74 0,-1.6 0,-3.2 0,-4.9 l -2.6,-2.5 -32.5,0 -75.4,-12.7 0,1 c 0,6.9 -2.8,10.9 -2.8,10.9 0,0 -2.8,-4 -2.8,-10.9 l 0,-17.2 c 0,-6.9 2.8,-10.9 2.8,-10.9 0,0 2.8,4 2.8,10.9 l 0,2.3 c 0.4,-0.2 0.9,-0.3 1.5,-0.3 2.9,0 65.4,-3.1 65.4,-3.1 L 109,105 109,83.6 c 0,-9 3.4,-16.2 5.3,-16.2 1.8,0 5.3,7.3 5.3,16.2 l 0,24.3 22.4,-1.5 c 0,-4.3 0.1,-8.6 0.1,-13 -0.1,-19.6 6.8,-42.8 11.7,-42.8 m 0,-5 c -3.2,0 -8.1,1.8 -12.6,17.7 -2.7,9.4 -4.3,20.7 -4.3,30.1 0,2.6 0,5.3 0,8.3 l -12.4,0.8 0,-19 c 0,-4.6 -0.8,-9.3 -2.3,-13.2 -2,-5.3 -4.7,-8 -8,-8 -3.3,0 -6,2.7 -8,8 -1.5,3.9 -2.3,8.6 -2.3,13.2 l 0,18.2 -7.3,3.2 c -21.1,1 -50.9,2.5 -60.9,2.9 -0.7,-6.4 -3.2,-10.2 -3.5,-10.7 -0.9,-1.4 -2.5,-2.2 -4.1,-2.2 -1.6,0 -3.2,0.8 -4.1,2.2 -0.4,0.5 -3.6,5.5 -3.6,13.8 l 0,17.2 c 0,8.2 3.3,13.2 3.6,13.8 0.9,1.4 2.5,2.2 4.1,2.2 1.6,0 3.2,-0.8 4.1,-2.2 0.3,-0.4 2.4,-3.6 3.2,-8.9 l 69.9,11.8 c 0.3,0 0.6,0.1 0.8,0.1 l 30.1,0 c 0,0.8 0,1.6 0,2.4 0,12.6 5.9,57.2 7.8,70.8 -11.5,4.5 -30.9,12.2 -32.3,12.9 -3.4,1.7 -5.1,4.6 -5.1,8.9 l 0,7.7 c 0,1.4 0.6,2.8 1.7,3.8 0.9,0.8 2.1,1.2 3.3,1.2 0.2,0 0.4,0 0.6,0 0.3,0 25,-3.2 35.4,-4.6 0.7,1.9 1.4,3.3 1.6,3.6 0.9,1.6 2.5,2.6 4.3,2.6 0,0 0.1,0 0.1,0 1.8,0 3.4,-0.9 4.3,-2.5 0,0 0.9,-1.6 1.6,-3.7 10.4,1.3 35.1,4.5 35.4,4.6 0.2,0 0.4,0 0.6,0 1.2,0 2.4,-0.4 3.3,-1.2 1.1,-0.9 1.7,-2.3 1.7,-3.8 l 0,-7.7 c 0,-4.2 -1.7,-7.1 -5.1,-8.9 -1.4,-0.7 -20.9,-8.4 -32.3,-12.9 1.8,-13.6 7.8,-58.2 7.8,-70.8 0,-0.8 0,-1.6 0,-2.4 l 30.1,0 c 0.3,0 0.6,0 0.8,-0.1 L 271.7,133 c 0.9,5.3 3,8.5 3.2,8.9 0.9,1.4 2.5,2.2 4.1,2.2 1.6,0 3.2,-0.8 4.1,-2.2 0.4,-0.5 3.6,-5.5 3.6,-13.8 l 0,-17.1 c 0,-8.2 -3.3,-13.2 -3.6,-13.8 -0.9,-1.4 -2.5,-2.2 -4.1,-2.2 -1.6,0 -3.2,0.8 -4.1,2.2 -0.3,0.5 -2.8,4.3 -3.5,10.7 -10,-0.4 -39.8,-1.9 -60.9,-2.9 l -7.3,-3.2 0,-18.2 c 0,-4.6 -0.8,-9.3 -2.3,-13.2 -2,-5.3 -4.7,-8 -8,-8 -3.3,0 -6,2.7 -8,8 -1.5,3.9 -2.3,8.6 -2.3,13.2 l 0,19 -12.4,-0.8 c 0,-3 0,-5.7 0,-8.3 0,-9.5 -1.6,-20.7 -4.3,-30.1 -4,-16 -8.9,-17.8 -12.1,-17.8 l 0,0 z"
         class="st1"
         style="fill:#455453;fill-opacity:1"
         inkscape:connector-curvature="0" /></g><path
       id="path4213"
       d="m 153.3,82.1 0,6.6 c 0,0 -1.7,0.1 -4.1,0.1 -2.4,0 -4.8,1.9 -4.8,1.9 l -1.1,-5.9 c 0,0 1.9,-2.6 4.5,-2.6 2.6,0 5.5,-0.1 5.5,-0.1 z"
       class="st1"
       style="fill:#455453;fill-opacity:1"
       inkscape:connector-curvature="0" /><polygon
       id="polygon4215"
       points="143.3,86.4 144,90.6 143,90.6 "
       class="st1"
       style="fill:#455453;fill-opacity:1" /><ellipse
       id="ellipse4217"
       ry="3.3"
       rx="0.89999998"
       cy="94.900002"
       cx="142.7"
       class="st1"
       style="fill:#455453;fill-opacity:1" /><ellipse
       id="ellipse4219"
       ry="3.3"
       rx="0.89999998"
       cy="112.2"
       cx="142.7"
       class="st1"
       style="fill:#455453;fill-opacity:1" /><ellipse
       id="ellipse4221"
       ry="3.3"
       rx="0.89999998"
       cy="119.8"
       cx="142.7"
       class="st1"
       style="fill:#455453;fill-opacity:1" /><ellipse
       id="ellipse4223"
       ry="3.3"
       rx="0.89999998"
       cy="127.4"
       cx="142.7"
       class="st1"
       style="fill:#455453;fill-opacity:1" /><ellipse
       id="ellipse4225"
       ry="3.3"
       rx="0.89999998"
       cy="135"
       cx="142.7"
       class="st1"
       style="fill:#455453;fill-opacity:1" /><ellipse
       id="ellipse4227"
       ry="3.3"
       rx="0.89999998"
       cy="142.5"
       cx="142.7"
       class="st1"
       style="fill:#455453;fill-opacity:1" /><ellipse
       id="ellipse4229"
       ry="3.3"
       rx="0.89999998"
       cy="169.5"
       cx="144"
       class="st1"
       style="fill:#455453;fill-opacity:1" /><rect
       id="rect4231"
       height="1.5"
       width="30.799999"
       class="st1"
       y="70.300003"
       x="98.800003"
       style="fill:#455453;fill-opacity:1" /><path
       id="path4233"
       d="m 154.3,82.1 0,6.6 c 0,0 1.7,0.1 4.1,0.1 2.4,0 4.8,1.9 4.8,1.9 l 1.1,-5.9 c 0,0 -1.9,-2.6 -4.5,-2.6 -2.6,-0.1 -5.5,-0.1 -5.5,-0.1 z"
       class="st1"
       style="fill:#455453;fill-opacity:1"
       inkscape:connector-curvature="0" /><polygon
       id="polygon4235"
       points="164.4,86.4 163.6,90.6 164.6,90.6 "
       class="st1"
       style="fill:#455453;fill-opacity:1" /><ellipse
       id="ellipse4237"
       ry="3.3"
       rx="0.89999998"
       cy="94.900002"
       cx="164.89999"
       class="st1"
       style="fill:#455453;fill-opacity:1" /><ellipse
       id="ellipse4239"
       ry="3.3"
       rx="0.89999998"
       cy="112.2"
       cx="164.89999"
       class="st1"
       style="fill:#455453;fill-opacity:1" /><ellipse
       id="ellipse4241"
       ry="3.3"
       rx="0.89999998"
       cy="119.8"
       cx="164.89999"
       class="st1"
       style="fill:#455453;fill-opacity:1" /><ellipse
       id="ellipse4243"
       ry="3.3"
       rx="0.89999998"
       cy="127.4"
       cx="164.89999"
       class="st1"
       style="fill:#455453;fill-opacity:1" /><ellipse
       id="ellipse4245"
       ry="3.3"
       rx="0.89999998"
       cy="135"
       cx="164.89999"
       class="st1"
       style="fill:#455453;fill-opacity:1" /><ellipse
       id="ellipse4247"
       ry="3.3"
       rx="0.89999998"
       cy="142.5"
       cx="164.89999"
       class="st1"
       style="fill:#455453;fill-opacity:1" /><ellipse
       id="ellipse4249"
       ry="3.3"
       rx="0.89999998"
       cy="169.5"
       cx="163.60001"
       class="st1"
       style="fill:#455453;fill-opacity:1" /><path
       id="path4251"
       d="m 97.8,109.9 c 0,0 -62.5,3.1 -65.4,3.1 -2.9,0 -3.1,2.1 -3.1,3.1 0,1 0,10.8 0,10.8 l 77,13 -8.5,-30 z"
       class="st0"
       style="fill:#455453;fill-opacity:1"
       inkscape:connector-curvature="0" /><path
       id="path4253"
       d="m 201.3,139.9 77,-13 c 0,0 0,-9.9 0,-10.8 0,-1 -0.2,-3.1 -3.1,-3.1 -2.9,0 -65.4,-3.1 -65.4,-3.1 l -8.5,30 z"
       class="st0"
       style="fill:#455453;fill-opacity:1"
       inkscape:connector-curvature="0" /><path
       id="path4255"
       d="m 119.5,107.9 0,-24.3 c 0,-9 -3.4,-16.2 -5.3,-16.2 l 0,40.5 5.3,0 z"
       class="st2"
       style="fill:#455453;fill-opacity:1"
       inkscape:connector-curvature="0" /><path
       id="path4257"
       d="m 188.1,107.9 0,-24.3 c 0,-9 3.4,-16.2 5.3,-16.2 l 0,40.5 -5.3,0 z"
       class="st2"
       style="fill:#455453;fill-opacity:1"
       inkscape:connector-curvature="0" /><rect
       id="rect4259"
       height="1.5"
       width="30.799999"
       class="st1"
       transform="matrix(-1,0,0,-1,386.7846,142.0278)"
       y="70.300003"
       x="178"
       style="fill:#455453;fill-opacity:1" /><path
       id="path4261"
       d="m 197.3,74 -7.9,0 c 1.2,-4 2.8,-6.6 3.9,-6.6 1.2,0 2.9,2.6 4,6.6 z"
       class="st1"
       style="fill:#455453;fill-opacity:1"
       inkscape:connector-curvature="0" /><g
       id="g4263"
       style="fill:#455453;fill-opacity:1"><path
         id="path4265"
         d="m 153.8,50.6 c -1.5,0 -3.2,2.2 -4.8,5.7 l 9.6,0 c -1.6,-3.5 -3.3,-5.7 -4.8,-5.7 z"
         class="st1"
         style="fill:#455453;fill-opacity:1"
         inkscape:connector-curvature="0" /></g><path
       id="path4267"
       d="m 28.2,139.1 c 0,0 2.8,-4 2.8,-10.9 L 31,111 c 0,-6.9 -2.8,-10.9 -2.8,-10.9 l 0,39 z"
       class="st0"
       style="fill:#455453;fill-opacity:1"
       inkscape:connector-curvature="0" /><path
       id="path4269"
       d="m 279.4,100.1 c 0,0 -2.8,4 -2.8,10.9 l 0,17.2 c 0,6.9 2.8,10.9 2.8,10.9 l 0,-39 z"
       class="st0"
       style="fill:#455453;fill-opacity:1"
       inkscape:connector-curvature="0" /><path
       id="path4271"
       d="m 110.3,74 7.9,0 c -1.2,-4 -2.8,-6.6 -3.9,-6.6 -1.2,0 -2.8,2.6 -4,6.6 z"
       class="st1"
       style="fill:#455453;fill-opacity:1"
       inkscape:connector-curvature="0" /></g><g
     id="g5"
     transform="translate(21.45,25.1)"
     inkscape:transform-center-y="23.669491"
     inkscape:transform-center-x="1.2457627"><g
       id="g7"><path
         class="st0"
         d="m 153.8,251.6 c -0.8,0 -1.6,-0.4 -2.1,-1.1 0,0 -1.4,-2.5 -2.1,-5.3 -8.7,1.1 -37.2,4.8 -37.5,4.8 -0.1,0 -0.2,0 -0.3,0 -0.6,0 -1.2,-0.2 -1.7,-0.6 -0.5,-0.5 -0.8,-1.2 -0.8,-1.9 l 0,-7.7 c 0,-3.3 1.1,-5.3 3.7,-6.6 1.4,-0.7 25.6,-10.3 34,-13.5 -1.4,-10.6 -8,-59.3 -8,-72.4 0,-1.2 0,-2.5 0,-3.8 l -1.1,-1.1 -31.5,0 c -0.1,0 -0.3,0 -0.4,0 L 33.5,130.2 c -0.5,6.4 -3,10.2 -3.1,10.4 -0.5,0.7 -1.2,1.1 -2.1,1.1 -0.9,0 -1.6,-0.4 -2.1,-1.1 C 26.1,140.4 23,135.9 23,128.3 L 23,111 c 0,-7.6 3.1,-12.1 3.2,-12.3 0.5,-0.7 1.2,-1.1 2.1,-1.1 0.9,0 1.6,0.4 2.1,1.1 0.1,0.2 3.1,4.5 3.2,11.9 6.8,-0.2 43.6,-2 63.8,-3 l 9.2,-4 0,-20 c 0,-7.8 3,-18.7 7.8,-18.7 4.8,0 7.8,10.9 7.8,18.7 l 0,21.6 17.4,-1.2 c 0,-3.5 0,-7.1 0,-10.6 0,-17.8 6.2,-45.3 14.4,-45.3 8.2,0 14.4,27.5 14.4,45.3 0,3.6 0,7.1 0,10.6 l 17.4,1.2 0,-21.6 c 0,-7.8 3,-18.7 7.8,-18.7 4.8,0 7.8,10.9 7.8,18.7 l 0,19.8 9.2,4 c 20.2,1 57,2.8 63.8,3 0.1,-7.3 3.1,-11.7 3.2,-11.9 0.5,-0.7 1.2,-1.1 2.1,-1.1 0.8,0 1.6,0.4 2.1,1.1 0.1,0.2 3.2,4.7 3.2,12.3 l 0,17.2 c 0,7.6 -3.1,12.1 -3.2,12.3 -0.5,0.7 -1.2,1.1 -2.1,1.1 l 0,0 c -0.8,0 -1.6,-0.4 -2.1,-1.1 -0.1,-0.2 -2.7,-3.9 -3.1,-10.4 L 202,142.1 c -0.1,0 -0.3,0 -0.4,0 l -31.5,0 -1.1,1.1 c 0,1.3 0,2.6 0,3.8 0,13.1 -6.6,61.8 -8,72.4 8.4,3.3 32.5,12.8 34,13.5 2.6,1.3 3.7,3.3 3.7,6.6 l 0,7.7 c 0,0.7 -0.3,1.4 -0.8,1.9 -0.5,0.4 -1,0.6 -1.7,0.6 -0.1,0 -0.2,0 -0.3,0 -0.3,0 -28.8,-3.7 -37.5,-4.8 -0.6,2.5 -1.8,4.8 -2,5.1 -0.4,0.8 -1.2,1.3 -2.1,1.3 -0.4,0.3 -0.4,0.3 -0.5,0.3 z"
         id="path9"
         inkscape:connector-curvature="0"
         style="fill:#cae0e0" /><path
         class="st1"
         d="m 153.8,50.6 c 4.9,0 11.9,23.1 11.9,42.8 0,4.3 0,8.7 0.1,13 l 22.4,1.5 0,-24.3 c 0,-9 3.4,-16.2 5.3,-16.2 1.8,0 5.3,7.3 5.3,16.2 l 0,21.4 11.2,4.9 c 0,0 62.5,3.1 65.4,3.1 0.6,0 1.1,0.1 1.5,0.3 l 0,-2.3 c 0,-6.9 2.8,-10.9 2.8,-10.9 0,0 2.8,4 2.8,10.9 l 0,17.2 c 0,6.9 -2.8,10.9 -2.8,10.9 0,0 -2.8,-4 -2.8,-10.9 l 0,-1 -75.4,12.7 -32.5,0 -2.6,2.5 c 0,1.7 0,3.3 0,4.9 0,14.4 -8.3,74 -8.3,74 0,0 34,13.4 35.6,14.2 1.5,0.8 2.3,1.8 2.3,4.4 0,2.6 0,7.7 0,7.7 0,0 -37.9,-4.9 -40,-5.2 0,2.8 -2.1,6.7 -2.1,6.7 l 0,0 0,0 0,0 0,0 c 0,0 -2.1,-3.9 -2.1,-6.7 -2.1,0.3 -40,5.2 -40,5.2 0,0 0,-5.2 0,-7.7 0,-2.6 0.8,-3.6 2.3,-4.4 1.5,-0.8 35.6,-14.2 35.6,-14.2 0,0 -8.3,-59.6 -8.3,-74 0,-1.6 0,-3.2 0,-4.9 l -2.6,-2.5 -32.5,0 -75.4,-12.7 0,1 c 0,6.9 -2.8,10.9 -2.8,10.9 0,0 -2.8,-4 -2.8,-10.9 l 0,-17.2 c 0,-6.9 2.8,-10.9 2.8,-10.9 0,0 2.8,4 2.8,10.9 l 0,2.3 c 0.4,-0.2 0.9,-0.3 1.5,-0.3 2.9,0 65.4,-3.1 65.4,-3.1 L 109,105 109,83.6 c 0,-9 3.4,-16.2 5.3,-16.2 1.8,0 5.3,7.3 5.3,16.2 l 0,24.3 22.4,-1.5 c 0,-4.3 0.1,-8.6 0.1,-13 -0.1,-19.6 6.8,-42.8 11.7,-42.8 m 0,-5 c -3.2,0 -8.1,1.8 -12.6,17.7 -2.7,9.4 -4.3,20.7 -4.3,30.1 0,2.6 0,5.3 0,8.3 l -12.4,0.8 0,-19 c 0,-4.6 -0.8,-9.3 -2.3,-13.2 -2,-5.3 -4.7,-8 -8,-8 -3.3,0 -6,2.7 -8,8 -1.5,3.9 -2.3,8.6 -2.3,13.2 l 0,18.2 -7.3,3.2 c -21.1,1 -50.9,2.5 -60.9,2.9 -0.7,-6.4 -3.2,-10.2 -3.5,-10.7 -0.9,-1.4 -2.5,-2.2 -4.1,-2.2 -1.6,0 -3.2,0.8 -4.1,2.2 -0.4,0.5 -3.6,5.5 -3.6,13.8 l 0,17.2 c 0,8.2 3.3,13.2 3.6,13.8 0.9,1.4 2.5,2.2 4.1,2.2 1.6,0 3.2,-0.8 4.1,-2.2 0.3,-0.4 2.4,-3.6 3.2,-8.9 l 69.9,11.8 c 0.3,0 0.6,0.1 0.8,0.1 l 30.1,0 c 0,0.8 0,1.6 0,2.4 0,12.6 5.9,57.2 7.8,70.8 -11.5,4.5 -30.9,12.2 -32.3,12.9 -3.4,1.7 -5.1,4.6 -5.1,8.9 l 0,7.7 c 0,1.4 0.6,2.8 1.7,3.8 0.9,0.8 2.1,1.2 3.3,1.2 0.2,0 0.4,0 0.6,0 0.3,0 25,-3.2 35.4,-4.6 0.7,1.9 1.4,3.3 1.6,3.6 0.9,1.6 2.5,2.6 4.3,2.6 0,0 0.1,0 0.1,0 1.8,0 3.4,-0.9 4.3,-2.5 0,0 0.9,-1.6 1.6,-3.7 10.4,1.3 35.1,4.5 35.4,4.6 0.2,0 0.4,0 0.6,0 1.2,0 2.4,-0.4 3.3,-1.2 1.1,-0.9 1.7,-2.3 1.7,-3.8 l 0,-7.7 c 0,-4.2 -1.7,-7.1 -5.1,-8.9 -1.4,-0.7 -20.9,-8.4 -32.3,-12.9 1.8,-13.6 7.8,-58.2 7.8,-70.8 0,-0.8 0,-1.6 0,-2.4 l 30.1,0 c 0.3,0 0.6,0 0.8,-0.1 L 271.7,133 c 0.9,5.3 3,8.5 3.2,8.9 0.9,1.4 2.5,2.2 4.1,2.2 1.6,0 3.2,-0.8 4.1,-2.2 0.4,-0.5 3.6,-5.5 3.6,-13.8 l 0,-17.1 c 0,-8.2 -3.3,-13.2 -3.6,-13.8 -0.9,-1.4 -2.5,-2.2 -4.1,-2.2 -1.6,0 -3.2,0.8 -4.1,2.2 -0.3,0.5 -2.8,4.3 -3.5,10.7 -10,-0.4 -39.8,-1.9 -60.9,-2.9 l -7.3,-3.2 0,-18.2 c 0,-4.6 -0.8,-9.3 -2.3,-13.2 -2,-5.3 -4.7,-8 -8,-8 -3.3,0 -6,2.7 -8,8 -1.5,3.9 -2.3,8.6 -2.3,13.2 l 0,19 -12.4,-0.8 c 0,-3 0,-5.7 0,-8.3 0,-9.5 -1.6,-20.7 -4.3,-30.1 -4,-16 -8.9,-17.8 -12.1,-17.8 l 0,0 z"
         id="path11"
         inkscape:connector-curvature="0"
         style="fill:#596b6a" /></g><path
       class="st1"
       d="m 153.3,82.1 0,6.6 c 0,0 -1.7,0.1 -4.1,0.1 -2.4,0 -4.8,1.9 -4.8,1.9 l -1.1,-5.9 c 0,0 1.9,-2.6 4.5,-2.6 2.6,0 5.5,-0.1 5.5,-0.1 z"
       id="path13"
       inkscape:connector-curvature="0"
       style="fill:#596b6a" /><polygon
       class="st1"
       points="143,90.6 143.3,86.4 144,90.6 "
       id="polygon15"
       style="fill:#596b6a" /><ellipse
       class="st1"
       cx="142.7"
       cy="94.900002"
       rx="0.89999998"
       ry="3.3"
       id="ellipse17"
       style="fill:#596b6a" /><ellipse
       class="st1"
       cx="142.7"
       cy="112.2"
       rx="0.89999998"
       ry="3.3"
       id="ellipse19"
       style="fill:#596b6a" /><ellipse
       class="st1"
       cx="142.7"
       cy="119.8"
       rx="0.89999998"
       ry="3.3"
       id="ellipse21"
       style="fill:#596b6a" /><ellipse
       class="st1"
       cx="142.7"
       cy="127.4"
       rx="0.89999998"
       ry="3.3"
       id="ellipse23"
       style="fill:#596b6a" /><ellipse
       class="st1"
       cx="142.7"
       cy="135"
       rx="0.89999998"
       ry="3.3"
       id="ellipse25"
       style="fill:#596b6a" /><ellipse
       class="st1"
       cx="142.7"
       cy="142.5"
       rx="0.89999998"
       ry="3.3"
       id="ellipse27"
       style="fill:#596b6a" /><ellipse
       class="st1"
       cx="144"
       cy="169.5"
       rx="0.89999998"
       ry="3.3"
       id="ellipse29"
       style="fill:#596b6a" /><rect
       x="98.800003"
       y="70.300003"
       class="st1"
       width="30.799999"
       height="1.5"
       id="rect31"
       style="fill:#596b6a" /><path
       class="st1"
       d="m 154.3,82.1 0,6.6 c 0,0 1.7,0.1 4.1,0.1 2.4,0 4.8,1.9 4.8,1.9 l 1.1,-5.9 c 0,0 -1.9,-2.6 -4.5,-2.6 -2.6,-0.1 -5.5,-0.1 -5.5,-0.1 z"
       id="path33"
       inkscape:connector-curvature="0"
       style="fill:#596b6a" /><polygon
       class="st1"
       points="164.6,90.6 164.4,86.4 163.6,90.6 "
       id="polygon35"
       style="fill:#596b6a" /><ellipse
       class="st1"
       cx="164.89999"
       cy="94.900002"
       rx="0.89999998"
       ry="3.3"
       id="ellipse37"
       style="fill:#596b6a" /><ellipse
       class="st1"
       cx="164.89999"
       cy="112.2"
       rx="0.89999998"
       ry="3.3"
       id="ellipse39"
       style="fill:#596b6a" /><ellipse
       class="st1"
       cx="164.89999"
       cy="119.8"
       rx="0.89999998"
       ry="3.3"
       id="ellipse41"
       style="fill:#596b6a" /><ellipse
       class="st1"
       cx="164.89999"
       cy="127.4"
       rx="0.89999998"
       ry="3.3"
       id="ellipse43"
       style="fill:#596b6a" /><ellipse
       class="st1"
       cx="164.89999"
       cy="135"
       rx="0.89999998"
       ry="3.3"
       id="ellipse45"
       style="fill:#596b6a" /><ellipse
       class="st1"
       cx="164.89999"
       cy="142.5"
       rx="0.89999998"
       ry="3.3"
       id="ellipse47"
       style="fill:#596b6a" /><ellipse
       class="st1"
       cx="163.60001"
       cy="169.5"
       rx="0.89999998"
       ry="3.3"
       id="ellipse49"
       style="fill:#596b6a" /><path
       class="st0"
       d="m 97.8,109.9 c 0,0 -62.5,3.1 -65.4,3.1 -2.9,0 -3.1,2.1 -3.1,3.1 0,1 0,10.8 0,10.8 l 77,13 -8.5,-30 z"
       id="path51"
       inkscape:connector-curvature="0"
       style="fill:#cae0e0" /><path
       class="st0"
       d="m 201.3,139.9 77,-13 c 0,0 0,-9.9 0,-10.8 0,-1 -0.2,-3.1 -3.1,-3.1 -2.9,0 -65.4,-3.1 -65.4,-3.1 l -8.5,30 z"
       id="path53"
       inkscape:connector-curvature="0"
       style="fill:#cae0e0" /><path
       class="st2"
       d="m 119.5,107.9 0,-24.3 c 0,-9 -3.4,-16.2 -5.3,-16.2 l 0,40.5 5.3,0 z"
       id="path55"
       inkscape:connector-curvature="0"
       style="fill:#a8c1c0" /><path
       class="st2"
       d="m 188.1,107.9 0,-24.3 c 0,-9 3.4,-16.2 5.3,-16.2 l 0,40.5 -5.3,0 z"
       id="path57"
       inkscape:connector-curvature="0"
       style="fill:#a8c1c0" /><rect
       x="178"
       y="70.300003"
       transform="matrix(-1,0,0,-1,386.7846,142.0278)"
       class="st1"
       width="30.799999"
       height="1.5"
       id="rect59"
       style="fill:#596b6a" /><path
       class="st1"
       d="m 197.3,74 -7.9,0 c 1.2,-4 2.8,-6.6 3.9,-6.6 1.2,0 2.9,2.6 4,6.6 z"
       id="path61"
       inkscape:connector-curvature="0"
       style="fill:#596b6a" /><g
       id="g63"><path
         class="st1"
         d="m 153.8,50.6 c -1.5,0 -3.2,2.2 -4.8,5.7 l 9.6,0 c -1.6,-3.5 -3.3,-5.7 -4.8,-5.7 z"
         id="path65"
         inkscape:connector-curvature="0"
         style="fill:#596b6a" /></g><path
       class="st0"
       d="m 28.2,139.1 c 0,0 2.8,-4 2.8,-10.9 L 31,111 c 0,-6.9 -2.8,-10.9 -2.8,-10.9 l 0,39 z"
       id="path67"
       inkscape:connector-curvature="0"
       style="fill:#cae0e0" /><path
       class="st0"
       d="m 279.4,100.1 c 0,0 -2.8,4 -2.8,10.9 l 0,17.2 c 0,6.9 2.8,10.9 2.8,10.9 l 0,-39 z"
       id="path69"
       inkscape:connector-curvature="0"
       style="fill:#cae0e0" /><path
       class="st1"
       d="m 110.3,74 7.9,0 c -1.2,-4 -2.8,-6.6 -3.9,-6.6 -1.2,0 -2.8,2.6 -4,6.6 z"
       id="path71"
       inkscape:connector-curvature="0"
       style="fill:#596b6a" /></g></svg>