<?xml version="1.0" encoding="UTF-8" standalone="no"?>
<!-- Generator: Adobe Illustrator 21.1.0, SVG Export Plug-In . SVG Version: 6.00 Build 0)  -->

<svg
   xmlns:dc="http://purl.org/dc/elements/1.1/"
   xmlns:cc="http://creativecommons.org/ns#"
   xmlns:rdf="http://www.w3.org/1999/02/22-rdf-syntax-ns#"
   xmlns:svg="http://www.w3.org/2000/svg"
   xmlns="http://www.w3.org/2000/svg"
   xmlns:sodipodi="http://sodipodi.sourceforge.net/DTD/sodipodi-0.dtd"
   xmlns:inkscape="http://www.inkscape.org/namespaces/inkscape"
   version="1.1"
   id="Layer_1"
   x="0px"
   y="0px"
   viewBox="0 0 70 70"
   xml:space="preserve"
   inkscape:version="0.91pre4 r13712"
   sodipodi:docname="yanshuf.svg"
   width="70"
   height="70"><metadata
     id="metadata93"><rdf:RDF><cc:Work
         rdf:about=""><dc:format>image/svg+xml</dc:format><dc:type
           rdf:resource="http://purl.org/dc/dcmitype/StillImage" /><dc:title></dc:title></cc:Work></rdf:RDF></metadata><defs
     id="defs91" /><sodipodi:namedview
     pagecolor="#ffffff"
     bordercolor="#666666"
     borderopacity="1"
     objecttolerance="10"
     gridtolerance="10"
     guidetolerance="10"
     inkscape:pageopacity="0"
     inkscape:pageshadow="2"
     inkscape:window-width="1280"
     inkscape:window-height="961"
     id="namedview89"
     showgrid="false"
     inkscape:zoom="0.70238095"
     inkscape:cx="141"
     inkscape:cy="168"
     inkscape:window-x="-8"
     inkscape:window-y="-8"
     inkscape:window-maximized="1"
     inkscape:current-layer="Layer_1" /><style
     type="text/css"
     id="style3">
	.st0{fill:#EDE2B2;}
	.st1{fill:#596B6A;}
	.st2{fill:#DBCF9E;}
	.st3{fill:none;stroke:#EDE2B2;stroke-width:2;stroke-miterlimit:10;}
  .iaf {
		transform-box: fill-box;
		animation: 1s rot infinite linear;
		transform-origin: center;
	}
	@keyframes rot {
		from { transform: rotate(360deg) }
	}
</style><g
     id="g4221"
     transform="matrix(0.2,0,0,0.2,28,27.999998)"><g
       transform="translate(-107,-134.3)"
       id="g5"><g
         id="g7"><path
           style="fill:#ede2b2"
           inkscape:connector-curvature="0"
           id="path9"
           d="m 142,300.8 c -0.6,0 -1.1,-0.2 -1.6,-0.6 -0.3,-0.3 -3.3,-2.8 -3.3,-6.9 l 0,-3.1 c -1.7,-1.3 -3,-3.6 -3,-5.1 l 0,-0.6 c -9.7,-0.5 -22.5,-1.2 -23.3,-1.2 -4.2,0 -4.4,-8.7 -4.4,-8.8 0,-0.1 0.2,-7.6 3.8,-8.2 0.7,-0.1 17.2,-1.5 26.4,-2.3 -0.5,-12.3 -2.9,-66.1 -3.2,-75 -1.1,-0.8 -2.5,-1.9 -3.1,-2.3 -0.7,-0.5 -1.1,-1.2 -1.1,-2.1 l 0,-2.4 -7.3,-5.4 c -0.6,-0.5 -1,-1.2 -1,-2 l 0,-37.4 c 0,-1.2 0.8,-2.1 1.9,-2.4 l 0,-0.7 c -1.1,-0.3 -1.9,-1.3 -1.9,-2.4 l 0,-2 c 0,-1.2 0.8,-2.1 1.9,-2.4 l 0,-28.3 c 0,-12.4 2.5,-33.1 19.1,-33.1 16.6,0 19.1,20.7 19.1,33.1 l 0,28.3 c 1.1,0.3 1.9,1.3 1.9,2.4 l 0,2 c 0,1.2 -0.8,2.1 -1.9,2.4 l 0,0.7 c 1.1,0.3 1.9,1.3 1.9,2.4 l 0,37.4 c 0,0.8 -0.4,1.5 -1,2 l -7.3,5.4 0,2.4 c 0,0.8 -0.4,1.6 -1.1,2.1 -0.6,0.4 -2,1.4 -3.1,2.3 -0.3,9 -2.7,62.7 -3.2,75 9.2,0.8 25.7,2.2 26.4,2.3 3.6,0.6 3.8,8.1 3.8,8.2 0,0.1 -0.2,8.8 -4.4,8.8 -0.8,0 -13.6,0.7 -23.2,1.2 l 0,0.6 c 0,1.5 -1.3,3.8 -3,5.1 l 0,3.1 c 0,4.1 -2.9,6.6 -3.3,6.9 -0.4,0.4 -1,0.6 -1.5,0.6 z"
           class="st0" /><path
           style="fill:#596b6a"
           inkscape:connector-curvature="0"
           id="path11"
           d="m 142,68.6 c 7.2,0 16.6,5.1 16.6,30.6 0,11.7 0,22.5 0,30.8 l 1.9,0 0,2 -1.9,0 c 0,2 0,3.9 0,5.5 l 1.9,0 0,35.1 0,2.3 -8.4,6.1 0,3.6 c 0,0 -2.9,2 -4.1,3.1 0,2.5 -3.4,78.5 -3.4,78.5 0,0 27.9,2.4 28.6,2.5 0.7,0.1 1.8,3.5 1.8,5.8 0,2.3 -1,6.2 -1.9,6.2 -0.9,0 -25.8,1.4 -25.8,1.4 0,0 0,1.9 0,3 0,1.1 -2,3.6 -3,3.6 0,2 0,3.4 0,4.6 0,3 -2.4,5 -2.4,5 0,0 -2.4,-2 -2.4,-5 0,-1.2 0,-2.6 0,-4.6 -1,0 -3,-2.5 -3,-3.6 0,-1.1 0,-3 0,-3 0,0 -24.9,-1.4 -25.8,-1.4 -0.9,0 -1.9,-4 -1.9,-6.2 0,-2.2 1,-5.6 1.8,-5.8 0.8,-0.2 28.6,-2.5 28.6,-2.5 0,0 -3.4,-76 -3.4,-78.5 -1.2,-1.1 -4.1,-3.1 -4.1,-3.1 l 0,-3.6 -8.4,-6.1 0,-2.3 0,-35.1 1.9,0 c 0,-1.6 0,-3.5 0,-5.5 l -1.9,0 0,-2 1.9,0 c 0,-8.3 0,-19.1 0,-30.8 0.2,-25.5 9.5,-30.6 16.8,-30.6 m 0,-5 c -6.1,0 -11.4,2.7 -15.1,7.8 -4.4,6 -6.6,15.1 -6.6,27.8 l 0,26.8 c -1.1,0.9 -1.9,2.3 -1.9,3.9 l 0,2 c 0,1 0.3,2 0.8,2.8 -0.5,0.8 -0.8,1.7 -0.8,2.8 l 0,35.1 0,2.3 c 0,1.6 0.8,3.1 2.1,4 l 6.3,4.6 0,1.1 c 0,1.6 0.8,3.2 2.1,4.1 0.6,0.4 1.3,1 2.1,1.5 0.4,11.1 2.4,55.7 3.1,71.5 -23.4,2 -24,2.1 -24.2,2.1 -5.9,1 -5.9,10.3 -5.9,10.7 0,0.5 0.1,11.2 6.8,11.2 1,0 11.9,0.6 21.1,1.1 0.5,1.5 1.4,3.2 2.7,4.5 l 0,2 c 0,5.2 3.8,8.5 4.2,8.8 0.9,0.8 2.1,1.1 3.2,1.1 1.1,0 2.3,-0.4 3.2,-1.1 0.4,-0.4 4.2,-3.6 4.2,-8.8 l 0,-2 c 1.3,-1.3 2.3,-3 2.7,-4.5 9.2,-0.5 20,-1.1 21.1,-1.1 6.7,-0.1 6.8,-10.8 6.8,-11.2 0,-0.4 -0.1,-9.7 -5.9,-10.7 -0.2,0 -0.9,-0.1 -24.2,-2.1 0.7,-15.7 2.7,-60.3 3.1,-71.5 0.7,-0.5 1.5,-1.1 2.1,-1.5 1.3,-0.9 2.1,-2.5 2.1,-4.1 l 0,-1.1 6.3,-4.6 c 1.3,-0.9 2.1,-2.4 2.1,-4 l 0,-2.3 0,-35.1 c 0,-1 -0.3,-2 -0.8,-2.8 0.5,-0.8 0.8,-1.7 0.8,-2.8 l 0,-2 c 0,-1.6 -0.7,-3 -1.9,-3.9 l 0,-26.8 c 0,-12.7 -2.1,-21.8 -6.6,-27.8 -3.8,-5.1 -9,-7.8 -15.1,-7.8 l 0,0 z"
           class="st1" /></g><path
         style="fill:#dbcf9e"
         inkscape:connector-curvature="0"
         id="path13"
         d="m 160.5,137.5 -1.9,0 c 0,-1.6 0,-3.5 0,-5.5 l 1.9,0 0,-2 -1.9,0 c 0,-8.3 0,-19.1 0,-30.8 0,-9.7 -1.4,-16.4 -3.4,-21.1 -5,7 -13,17.3 -17.2,18.2 -2.1,0.4 -6.9,0.2 -12.6,-0.1 0,1 -0.1,2 -0.1,3 0,11.7 0,22.5 0,30.8 l -1.9,0 0,2 1.9,0 c 0,2 0,3.9 0,5.5 l -1.9,0 0,23.6 c 9.2,-1.6 25,-11.1 37,-21.1 l 0,-2.5 z"
         class="st2" /><path
         style="fill:#dbcf9e"
         inkscape:connector-curvature="0"
         id="path15"
         d="m 152.1,184.6 0,-3.6 2.9,-2.1 c -3.4,-0.2 -6.9,-0.1 -9.7,0.8 -3.6,1.2 -7.1,4.1 -10.6,7 0.5,0.4 1,0.8 1.3,1.1 0,1.7 1.5,35.7 2.5,58.4 l 7.1,-2.6 c 1,-22.6 2.4,-54.2 2.4,-55.8 1.2,-1.2 4.1,-3.2 4.1,-3.2 z"
         class="st2" /><rect
         style="fill:#596b6a"
         id="rect17"
         height="51.799999"
         width="1.8"
         class="st1"
         y="253.89999"
         x="151.2" /><path
         style="fill:#596b6a"
         inkscape:connector-curvature="0"
         id="path19"
         d="m 125.4,137.5 4.5,0 0,-12.7 c -1.1,0 -1.8,1.2 -1.8,2.1 0,0.9 0,5.2 0,5.2 l -2.8,0 0,5.4 z"
         class="st1" /><polygon
         style="fill:#596b6a"
         id="polygon21"
         points="123.5,174.8 132,181 132,179 123.5,172.6 "
         class="st1" /><path
         style="fill:#596b6a"
         inkscape:connector-curvature="0"
         id="path23"
         d="m 118.6,126.3 0,0 c -1,0 -1.8,-0.8 -1.8,-1.8 l 0,-7.2 c 0,-1 0.8,-1.8 1.8,-1.8 l 0,0 c 1,0 1.8,0.8 1.8,1.8 l 0,7.2 c 0,0.9 -0.8,1.8 -1.8,1.8 z"
         class="st1" /><path
         style="fill:#596b6a"
         inkscape:connector-curvature="0"
         id="path25"
         d="m 138.4,100.1 0,-7 c -0.1,0 -0.2,0 -0.3,0 l -5.7,0 c -2.2,0 -4,1.8 -4,4 l 0,3 10,0 z"
         class="st1" /><path
         style="fill:#596b6a"
         inkscape:connector-curvature="0"
         id="path27"
         d="m 125.4,100.1 2.1,0 0,-7.3 -1.4,-3.3 c -0.4,2.8 -0.7,6.1 -0.7,9.7 0,0.3 0,0.6 0,0.9 z"
         class="st1" /><path
         style="fill:#596b6a"
         inkscape:connector-curvature="0"
         id="path29"
         d="m 158.6,137.5 -4.5,0 0,-12.7 c 1.1,0 1.8,1.2 1.8,2.1 0,0.9 0,5.2 0,5.2 l 2.8,0 0,5.4 z"
         class="st1" /><rect
         style="fill:#dbcf9e"
         id="rect31"
         height="2.2"
         width="8.5"
         class="st2"
         y="130"
         x="123.5" /><rect
         style="fill:#dbcf9e"
         id="rect33"
         height="2.2"
         width="8.5"
         class="st2"
         y="130"
         x="152" /><polygon
         style="fill:#596b6a"
         id="polygon35"
         points="160.5,174.8 152,181 152,179 160.5,172.6 "
         class="st1" /><path
         style="fill:#596b6a"
         inkscape:connector-curvature="0"
         id="path37"
         d="m 165.4,126.3 0,0 c 1,0 1.8,-0.8 1.8,-1.8 l 0,-7.2 c 0,-1 -0.8,-1.8 -1.8,-1.8 l 0,0 c -1,0 -1.8,0.8 -1.8,1.8 l 0,7.2 c -0.1,0.9 0.8,1.8 1.8,1.8 z"
         class="st1" /><path
         style="fill:#596b6a"
         inkscape:connector-curvature="0"
         id="path39"
         d="m 145.6,100.1 0,-7 c 0.1,0 0.2,0 0.3,0 l 5.7,0 c 2.2,0 4,1.8 4,4 l 0,3 -10,0 z"
         class="st1" /><path
         style="fill:#596b6a"
         inkscape:connector-curvature="0"
         id="path41"
         d="m 158.6,100.1 -2.1,0 0,-7.3 1.4,-3.3 c 0.4,2.8 0.7,6.1 0.7,9.7 0,0.3 0,0.6 0,0.9 z"
         class="st1" /><g
         id="g43" class="iaf"><circle
           style="fill:#596b6a"
           r="6"
           id="ellipse45"
           cy="137"
           cx="142"
           class="st1"
           transform="matrix(0.3055,-0.9522,0.9522,0.3055,-31.81,230.3047)" /><rect
           style="fill:#596b6a"
           id="rect47"
           height="1.8"
           width="39.5"
           class="st1"
           transform="matrix(0.9522,0.3055,-0.3055,0.9522,48.6336,-36.8293)"
           y="136"
           x="122.2" /><g
           id="g49"><g
             id="g51"><polygon
               style="fill:#596b6a"
               id="polygon53"
               points="233.9,165.5 232.1,171.2 158,147.4 155.8,140.4 "
               class="st1" /><polygon
               style="fill:#596b6a"
               id="polygon55"
               points="232.1,171.2 237.8,175.1 239.6,169.4 233.9,165.5 "
               class="st1" /></g><g
             id="g57"><polygon
               style="fill:#596b6a"
               id="polygon59"
               points="50.1,108.4 51.9,102.7 126,126.5 128.1,133.5 "
               class="st1" /><polygon
               style="fill:#596b6a"
               id="polygon61"
               points="51.9,102.7 46.1,98.8 44.3,104.5 50.1,108.4 "
               class="st1" /></g></g><rect
           style="fill:#596b6a"
           id="rect63"
           height="1.8"
           width="39.5"
           class="st1"
           transform="matrix(0.3055,-0.9522,0.9522,0.3055,-31.81,230.3047)"
           y="136"
           x="122.2" /><g
           id="g65"><g
             id="g67"><polygon
               style="fill:#596b6a"
               id="polygon69"
               points="170.5,45 176.2,46.9 152.4,121 145.5,123.1 "
               class="st1" /><polygon
               style="fill:#596b6a"
               id="polygon71"
               points="176.2,46.9 180.2,41.1 174.5,39.3 170.5,45 "
               class="st1" /></g><g
             id="g73"><polygon
               style="fill:#596b6a"
               id="polygon75"
               points="113.4,228.9 107.7,227.1 131.5,152.9 138.5,150.8 "
               class="st1" /><polygon
               style="fill:#596b6a"
               id="polygon77"
               points="107.7,227.1 103.8,232.8 109.5,234.6 113.4,228.9 "
               class="st1" /></g></g></g><g
         id="g79"><path
           style="fill:#596b6a"
           inkscape:connector-curvature="0"
           id="path81"
           d="m 138.5,83.9 c -0.8,0 -1.7,0 -2.6,0 -4.2,0 -8.4,2.9 -8.4,2.9 l 2,5.2 c 0,0 0.8,-0.7 2.8,-0.8 1.6,-0.1 4.1,-0.1 6.3,-0.1 l 0,-7.2 z"
           class="st1" /><path
           style="fill:#596b6a"
           inkscape:connector-curvature="0"
           id="path83"
           d="m 148.1,83.9 c -0.9,0 -1.8,0 -2.6,0 l 0,7.3 c 2.2,0 4.7,0 6.3,0.1 2,0.1 2.8,0.8 2.8,0.8 l 2,-5.2 c -0.1,-0.1 -4.3,-3 -8.5,-3 z"
           class="st1" /><path
           style="fill:#596b6a"
           inkscape:connector-curvature="0"
           id="path85"
           d="m 144.5,83.9 c -1.4,0 -2.5,0 -2.5,0 0,0 -1.1,0 -2.5,0 l 0,7.3 c 1,0 1.8,0 2.5,0 0.7,0 1.5,0 2.5,0 l 0,-7.3 z"
           class="st1" /></g><circle
         style="fill:none;stroke:#ede2b2;stroke-width:2;stroke-miterlimit:10"
         id="circle87"
         r="103.1"
         cy="137"
         cx="142"
         class="st3" /></g></g></svg>