<?xml version="1.0" encoding="utf-8"?>
<!-- Generator: Adobe Illustrator 21.1.0, SVG Export Plug-In . SVG Version: 6.00 Build 0)  -->
<svg version="1.1" id="Layer_1" xmlns="http://www.w3.org/2000/svg" xmlns:xlink="http://www.w3.org/1999/xlink" x="0px" y="0px"
	 viewBox="0 0 282 336" style="enable-background:new 0 0 282 336;" xml:space="preserve">
<style type="text/css">
	.st0{fill:#EDE2B2;}
	.st1{fill:#596B6A;}
	.st2{fill:#DBCF9E;}
	.st3{fill:none;stroke:#EDE2B2;stroke-width:2;stroke-miterlimit:10;}
</style>
<g>
	<g>
		<path class="st0" d="M142,300.8c-0.6,0-1.1-0.2-1.6-0.6c-0.3-0.3-3.3-2.8-3.3-6.9v-3.1c-1.7-1.3-3-3.6-3-5.1v-0.6
			c-9.7-0.5-22.5-1.2-23.3-1.2c-4.2,0-4.4-8.7-4.4-8.8c0-0.1,0.2-7.6,3.8-8.2c0.7-0.1,17.2-1.5,26.4-2.3c-0.5-12.3-2.9-66.1-3.2-75
			c-1.1-0.8-2.5-1.9-3.1-2.3c-0.7-0.5-1.1-1.2-1.1-2.1v-2.4l-7.3-5.4c-0.6-0.5-1-1.2-1-2v-37.4c0-1.2,0.8-2.1,1.9-2.4v-0.7
			c-1.1-0.3-1.9-1.3-1.9-2.4v-2c0-1.2,0.8-2.1,1.9-2.4V99.2c0-12.4,2.5-33.1,19.1-33.1s19.1,20.7,19.1,33.1v28.3
			c1.1,0.3,1.9,1.3,1.9,2.4v2c0,1.2-0.8,2.1-1.9,2.4v0.7c1.1,0.3,1.9,1.3,1.9,2.4v37.4c0,0.8-0.4,1.5-1,2l-7.3,5.4v2.4
			c0,0.8-0.4,1.6-1.1,2.1c-0.6,0.4-2,1.4-3.1,2.3c-0.3,9-2.7,62.7-3.2,75c9.2,0.8,25.7,2.2,26.4,2.3c3.6,0.6,3.8,8.1,3.8,8.2
			c0,0.1-0.2,8.8-4.4,8.8c-0.8,0-13.6,0.7-23.2,1.2v0.6c0,1.5-1.3,3.8-3,5.1v3.1c0,4.1-2.9,6.6-3.3,6.9
			C143.1,300.6,142.5,300.8,142,300.8z"/>
		<path class="st1" d="M142,68.6c7.2,0,16.6,5.1,16.6,30.6c0,11.7,0,22.5,0,30.8h1.9v2h-1.9c0,2,0,3.9,0,5.5h1.9v35.1v2.3l-8.4,6.1
			v3.6c0,0-2.9,2-4.1,3.1c0,2.5-3.4,78.5-3.4,78.5s27.9,2.4,28.6,2.5s1.8,3.5,1.8,5.8s-1,6.2-1.9,6.2s-25.8,1.4-25.8,1.4s0,1.9,0,3
			s-2,3.6-3,3.6c0,2,0,3.4,0,4.6c0,3-2.4,5-2.4,5s-2.4-2-2.4-5c0-1.2,0-2.6,0-4.6c-1,0-3-2.5-3-3.6s0-3,0-3s-24.9-1.4-25.8-1.4
			s-1.9-4-1.9-6.2s1-5.6,1.8-5.8s28.6-2.5,28.6-2.5s-3.4-76-3.4-78.5c-1.2-1.1-4.1-3.1-4.1-3.1v-3.6l-8.4-6.1v-2.3v-35.1h1.9
			c0-1.6,0-3.5,0-5.5h-1.9v-2h1.9c0-8.3,0-19.1,0-30.8C125.4,73.7,134.7,68.6,142,68.6 M142,63.6c-6.1,0-11.4,2.7-15.1,7.8
			c-4.4,6-6.6,15.1-6.6,27.8v26.8c-1.1,0.9-1.9,2.3-1.9,3.9v2c0,1,0.3,2,0.8,2.8c-0.5,0.8-0.8,1.7-0.8,2.8v35.1v2.3
			c0,1.6,0.8,3.1,2.1,4l6.3,4.6v1.1c0,1.6,0.8,3.2,2.1,4.1c0.6,0.4,1.3,1,2.1,1.5c0.4,11.1,2.4,55.7,3.1,71.5
			c-23.4,2-24,2.1-24.2,2.1c-5.9,1-5.9,10.3-5.9,10.7c0,0.5,0.1,11.2,6.8,11.2c1,0,11.9,0.6,21.1,1.1c0.5,1.5,1.4,3.2,2.7,4.5v2
			c0,5.2,3.8,8.5,4.2,8.8c0.9,0.8,2.1,1.1,3.2,1.1s2.3-0.4,3.2-1.1c0.4-0.4,4.2-3.6,4.2-8.8v-2c1.3-1.3,2.3-3,2.7-4.5
			c9.2-0.5,20-1.1,21.1-1.1c6.7-0.1,6.8-10.8,6.8-11.2c0-0.4-0.1-9.7-5.9-10.7c-0.2,0-0.9-0.1-24.2-2.1c0.7-15.7,2.7-60.3,3.1-71.5
			c0.7-0.5,1.5-1.1,2.1-1.5c1.3-0.9,2.1-2.5,2.1-4.1v-1.1l6.3-4.6c1.3-0.9,2.1-2.4,2.1-4v-2.3v-35.1c0-1-0.3-2-0.8-2.8
			c0.5-0.8,0.8-1.7,0.8-2.8v-2c0-1.6-0.7-3-1.9-3.9V99.2c0-12.7-2.1-21.8-6.6-27.8C153.3,66.3,148.1,63.6,142,63.6L142,63.6z"/>
	</g>
	<path class="st2" d="M160.5,137.5h-1.9c0-1.6,0-3.5,0-5.5h1.9v-2h-1.9c0-8.3,0-19.1,0-30.8c0-9.7-1.4-16.4-3.4-21.1
		c-5,7-13,17.3-17.2,18.2c-2.1,0.4-6.9,0.2-12.6-0.1c0,1-0.1,2-0.1,3c0,11.7,0,22.5,0,30.8h-1.9v2h1.9c0,2,0,3.9,0,5.5h-1.9v23.6
		c9.2-1.6,25-11.1,37-21.1V137.5z"/>
	<path class="st2" d="M152.1,184.6v-3.6l2.9-2.1c-3.4-0.2-6.9-0.1-9.7,0.8c-3.6,1.2-7.1,4.1-10.6,7c0.5,0.4,1,0.8,1.3,1.1
		c0,1.7,1.5,35.7,2.5,58.4l7.1-2.6c1-22.6,2.4-54.2,2.4-55.8C149.2,186.6,152.1,184.6,152.1,184.6z"/>
	<rect x="151.2" y="253.9" class="st1" width="1.8" height="51.8"/>
	<path class="st1" d="M125.4,137.5h4.5v-12.7c-1.1,0-1.8,1.2-1.8,2.1s0,5.2,0,5.2h-2.8V137.5z"/>
	<polygon class="st1" points="123.5,172.6 123.5,174.8 132,181 132,179 	"/>
	<path class="st1" d="M118.6,126.3L118.6,126.3c-1,0-1.8-0.8-1.8-1.8v-7.2c0-1,0.8-1.8,1.8-1.8l0,0c1,0,1.8,0.8,1.8,1.8v7.2
		C120.4,125.4,119.6,126.3,118.6,126.3z"/>
	<path class="st1" d="M138.4,100.1v-7c-0.1,0-0.2,0-0.3,0h-5.7c-2.2,0-4,1.8-4,4v3H138.4z"/>
	<path class="st1" d="M125.4,100.1h2.1v-7.3l-1.4-3.3c-0.4,2.8-0.7,6.1-0.7,9.7C125.4,99.5,125.4,99.8,125.4,100.1z"/>
	<path class="st1" d="M158.6,137.5h-4.5v-12.7c1.1,0,1.8,1.2,1.8,2.1s0,5.2,0,5.2h2.8V137.5z"/>
	<rect x="123.5" y="130" class="st2" width="8.5" height="2.2"/>
	<rect x="152" y="130" class="st2" width="8.5" height="2.2"/>
	<polygon class="st1" points="160.5,172.6 160.5,174.8 152,181 152,179 	"/>
	<path class="st1" d="M165.4,126.3L165.4,126.3c1,0,1.8-0.8,1.8-1.8v-7.2c0-1-0.8-1.8-1.8-1.8l0,0c-1,0-1.8,0.8-1.8,1.8v7.2
		C163.5,125.4,164.4,126.3,165.4,126.3z"/>
	<path class="st1" d="M145.6,100.1v-7c0.1,0,0.2,0,0.3,0h5.7c2.2,0,4,1.8,4,4v3H145.6z"/>
	<path class="st1" d="M158.6,100.1h-2.1v-7.3l1.4-3.3c0.4,2.8,0.7,6.1,0.7,9.7C158.6,99.5,158.6,99.8,158.6,100.1z"/>
	<g>
		<ellipse transform="matrix(0.3055 -0.9522 0.9522 0.3055 -31.81 230.3047)" class="st1" cx="142" cy="137" rx="6" ry="6"/>
		
			<rect x="122.2" y="136" transform="matrix(0.9522 0.3055 -0.3055 0.9522 48.6336 -36.8293)" class="st1" width="39.5" height="1.8"/>
		<g>
			<g>
				<polygon class="st1" points="155.8,140.4 233.9,165.5 232.1,171.2 158,147.4 				"/>
				<polygon class="st1" points="233.9,165.5 232.1,171.2 237.8,175.1 239.6,169.4 				"/>
			</g>
			<g>
				<polygon class="st1" points="128.1,133.5 50.1,108.4 51.9,102.7 126,126.5 				"/>
				<polygon class="st1" points="50.1,108.4 51.9,102.7 46.1,98.8 44.3,104.5 				"/>
			</g>
		</g>
		
			<rect x="122.2" y="136" transform="matrix(0.3055 -0.9522 0.9522 0.3055 -31.81 230.3047)" class="st1" width="39.5" height="1.8"/>
		<g>
			<g>
				<polygon class="st1" points="145.5,123.1 170.5,45 176.2,46.9 152.4,121 				"/>
				<polygon class="st1" points="170.5,45 176.2,46.9 180.2,41.1 174.5,39.3 				"/>
			</g>
			<g>
				<polygon class="st1" points="138.5,150.8 113.4,228.9 107.7,227.1 131.5,152.9 				"/>
				<polygon class="st1" points="113.4,228.9 107.7,227.1 103.8,232.8 109.5,234.6 				"/>
			</g>
		</g>
	</g>
	<g>
		<path class="st1" d="M138.5,83.9c-0.8,0-1.7,0-2.6,0c-4.2,0-8.4,2.9-8.4,2.9l2,5.2c0,0,0.8-0.7,2.8-0.8c1.6-0.1,4.1-0.1,6.3-0.1
			V83.9z"/>
		<path class="st1" d="M148.1,83.9c-0.9,0-1.8,0-2.6,0v7.3c2.2,0,4.7,0,6.3,0.1c2,0.1,2.8,0.8,2.8,0.8l2-5.2
			C156.5,86.8,152.3,83.9,148.1,83.9z"/>
		<path class="st1" d="M144.5,83.9c-1.4,0-2.5,0-2.5,0s-1.1,0-2.5,0v7.3c1,0,1.8,0,2.5,0s1.5,0,2.5,0V83.9z"/>
	</g>
	<circle class="st3" cx="142" cy="137" r="103.1"/>
</g>
</svg>
