<?xml version="1.0" encoding="utf-8"?>
<!-- Generator: Adobe Illustrator 21.1.0, SVG Export Plug-In . SVG Version: 6.00 Build 0)  -->
<svg version="1.1" id="Layer_1" xmlns="http://www.w3.org/2000/svg" xmlns:xlink="http://www.w3.org/1999/xlink" x="0px" y="0px"
	 viewBox="0 0 282 336" style="enable-background:new 0 0 282 336;" xml:space="preserve">
<style type="text/css">
	.st0{fill:#DBCF9E;}
	.st1{fill:#596B6A;}
	.st2{fill:none;stroke:#EDE2B2;stroke-width:2;stroke-miterlimit:10;}
</style>
<title>Asset 1</title>
<g>
	<g>
		<path class="st0" d="M107.1,190.2c-0.9,0-2.4-0.3-3.7-2.2h-3.9c-1.4,0-2.5-1.1-2.5-2.5V183c0-1.4,1.1-2.5,2.5-2.5h1.7
			c0-0.6-0.1-1.2-0.1-1.9v-60.4c0-5.8,1.8-11.7,5.9-11.7s5.9,5.9,5.9,11.7v60.4c0,0.6,0,1.3-0.1,1.9h1.7c1.4,0,2.5,1.1,2.5,2.5v2.6
			c0,1.4-1.1,2.5-2.5,2.5h-3.9C109.5,189.9,108,190.2,107.1,190.2z"/>
		<path class="st1" d="M107.1,109c1.9,0,3.4,4.1,3.4,9.2v60.4c0,1.6-0.1,3.1-0.4,4.4h4.5v2.6h-5.3c-0.6,1.4-1.4,2.2-2.2,2.2
			s-1.6-0.8-2.2-2.2h-5.3V183h4.5c-0.3-1.3-0.4-2.8-0.4-4.4v-60.4C103.7,113.1,105.2,109,107.1,109 M107.1,104
			c-5.1,0-8.4,5.6-8.4,14.2V178c-2.3,0.4-4.1,2.5-4.1,4.9v2.6c0,2.8,2.2,5,5,5h2.7c1.8,1.9,3.9,2.2,4.8,2.2s3-0.3,4.8-2.2h2.7
			c2.8,0,5-2.2,5-5V183c0-2.5-1.8-4.5-4.1-4.9v-59.9C115.5,109.6,112.2,104,107.1,104L107.1,104z"/>
	</g>
	<g>
		<path class="st0" d="M173.9,190.2c-0.9,0-2.4-0.3-3.7-2.2h-3.9c-1.4,0-2.5-1.1-2.5-2.5V183c0-1.4,1.1-2.5,2.5-2.5h1.7
			c0-0.6-0.1-1.2-0.1-1.9v-60.4c0-5.8,1.8-11.7,5.9-11.7s5.9,5.9,5.9,11.7v60.4c0,0.6,0,1.3-0.1,1.9h1.7c1.4,0,2.5,1.1,2.5,2.5v2.6
			c0,1.4-1.1,2.5-2.5,2.5h-3.9C176.3,189.9,174.8,190.2,173.9,190.2z"/>
		<path class="st1" d="M173.9,109c1.9,0,3.4,4.1,3.4,9.2v60.4c0,1.6-0.1,3.1-0.4,4.4h4.5v2.6h-5.3c-0.6,1.4-1.4,2.2-2.2,2.2
			c-0.8,0-1.6-0.8-2.2-2.2h-5.3V183h4.5c-0.3-1.3-0.4-2.8-0.4-4.4v-60.4C170.5,113.1,172,109,173.9,109 M173.9,104
			c-5.1,0-8.4,5.6-8.4,14.2V178c-2.3,0.4-4.1,2.5-4.1,4.9v2.6c0,2.8,2.2,5,5,5h2.7c1.8,1.9,3.9,2.2,4.8,2.2s3-0.3,4.8-2.2h2.7
			c2.8,0,5-2.2,5-5V183c0-2.5-1.8-4.5-4.1-4.9v-59.9C182.3,109.6,179,104,173.9,104L173.9,104z"/>
	</g>
	<g>
		<path class="st0" d="M140.5,301c-0.5,0-2,0-5.8-3l-5.2-0.7c-1.4-0.2-2.3-1.4-2.2-2.8l0.5-3.7c0.1-1,0.9-1.9,1.9-2.1l3.7-0.9
			l-0.1-17c-1.5-3.6-10.4-25.9-10.4-41.8v-43.1l-6.1-0.2c-1,0-1.9-0.7-2.2-1.6L114,183l-1.3-0.1c-1.3-0.1-2.2-1.2-2.2-2.5v-51.7
			c0-2.9,1.5-4.6,3.3-5.3v-6.1l-0.6-0.5c-0.7-0.6-1-1.5-0.8-2.3l2.7-14.5c0.2-1.2,1.3-2,2.5-2h4.9c0-11.3,0.2-12.1,0.3-12.6
			c0.1-0.2,0.1-0.5,0.2-0.9c0.5-3.1,1.7-9.7,7-12.9c0.6-0.3,2.3-1.4,9.1-1.4c0.7,0,1.2,0,1.4,0c0.2,0,0.7,0,1.4,0
			c6.8,0,8.5,1,9.1,1.4c5.3,3.3,6.5,9.8,7,12.9c0.1,0.4,0.1,0.7,0.2,0.9c0.1,0.5,0.3,1.3,0.3,12.6h5c1.2,0,2.2,0.9,2.5,2l2.7,14.5
			c0.2,0.9-0.1,1.7-0.8,2.3l-0.6,0.5v6.1c1.8,0.7,3.3,2.4,3.3,5.3v51.7c0,1.3-1,2.3-2.2,2.5l-1.3,0.1l-0.4,0.9
			c-0.4,0.9-1.2,1.5-2.2,1.6l-6.1,0.2v43.1c0,15.9-8.9,38.2-10.4,41.8l-0.1,9.4c8.9,1.6,18.9,3.3,20.6,3.8c3.9,1,4,4.3,4,5.8
			c0,0.3,0,0.5,0,0.7c0.2,1.7,0.2,3.7-1.1,5.1c-0.7,0.9-1.7,1.4-2.9,1.5c-1,0.1-8.6,0.5-22.6,1.4C142.3,301,141.1,301,140.5,301
			C140.5,301,140.5,301,140.5,301z"/>
		<path class="st1" d="M141.9,72.7c2.2,0,6.3,0.1,7.8,1c5,3.1,5.6,10.1,6,12.2c0.2,0.9,0.2,7.2,0.2,14.5h7.5l2.7,14.5l-1.5,1.3v9.4
			c0.2,0,0.4,0,0.5,0c1.2,0,2.8,0.6,2.8,3.1c0,2.5,0,51.7,0,51.7l-2.8,0.3l-0.9,2.3l-8.6,0.3c0,0,0,42.9,0,45.6
			c0,16.6-10.4,41.3-10.4,41.3l-0.1,12.1c7,1.2,20.6,3.6,22.5,4.1c2.5,0.6,2,2.6,2.2,4.3c0.2,1.7,0.2,3.7-1.7,3.9
			c-1.4,0.1-15.6,1-23.3,1.4c-1,0.8-3.4,2.5-4.3,2.5h0c-1.3,0-4.8-2.9-4.8-2.9l-5.9-0.8l0.5-3.7l5.6-1.4l-0.2-19.5
			c0,0-10.4-24.7-10.4-41.3c0-2.6,0-45.6,0-45.6l-8.6-0.3l-0.9-2.3l-2.8-0.3c0,0,0-49.2,0-51.7c0-2.5,1.5-3.1,2.8-3.1
			c0.1,0,0.3,0,0.5,0v-9.4l-1.5-1.3l2.7-14.5h7.5c0-7.4,0-13.7,0.2-14.5c0.5-2.2,1.1-9.2,6-12.2c1.4-0.9,5.6-1,7.8-1
			c0.8,0,1.4,0,1.4,0C140.5,72.7,141,72.7,141.9,72.7 M141.9,67.7C141.9,67.7,141.9,67.7,141.9,67.7c-0.7,0-1.2,0-1.4,0
			c-0.2,0-0.7,0-1.4,0c-6.7,0-9,0.9-10.4,1.8c-6.3,3.9-7.6,11.4-8.2,14.6c-0.1,0.3-0.1,0.6-0.1,0.8c-0.1,0.7-0.3,1.4-0.3,10.6h-2.5
			c-2.4,0-4.5,1.7-4.9,4.1l-2.7,14.5c-0.3,1.6,0.2,3.3,1.4,4.5v3.5c-2.1,1.4-3.3,3.8-3.3,6.8v51.7c0,2.5,1.8,4.6,4.3,4.9
			c0.8,1.6,2.4,2.6,4.2,2.7l3.7,0.1v40.7c0,15.8,8.4,37.5,10.4,42.3l0.1,14.6l-1.8,0.4c-2,0.5-3.5,2.2-3.7,4.2l-0.5,3.7
			c-0.3,2.7,1.6,5.2,4.3,5.6l4.5,0.6c4.1,3.1,6,3.1,6.8,3.1c1.5,0,3.1-0.5,6.1-2.6c8.3-0.5,20.6-1.2,22-1.3c1.8-0.2,3.5-1,4.6-2.3
			c2.1-2.4,1.8-5.6,1.6-7c0-0.2,0-0.4,0-0.6c-0.1-4.5-2.1-7.2-5.9-8.1c-1.3-0.3-7.6-1.5-18.7-3.4l0.1-6.8
			c1.9-4.8,10.4-26.5,10.4-42.3v-40.7l3.7-0.1c1.8-0.1,3.4-1.1,4.2-2.7c2.5-0.4,4.3-2.5,4.3-4.9v-51.7c0-2.9-1.3-5.4-3.3-6.8v-3.5
			c1.2-1.2,1.7-2.8,1.4-4.5l-2.7-14.5c-0.4-2.4-2.5-4.1-4.9-4.1h-2.5c0-9.2-0.2-9.9-0.3-10.6c0-0.2-0.1-0.5-0.1-0.8
			c-0.6-3.2-1.9-10.8-8.2-14.6C150.9,68.6,148.6,67.7,141.9,67.7L141.9,67.7z"/>
	</g>
	<path class="st1" d="M133.2,84.2v6.6h-4.8c0,0,0-2.9,0.9-4.3C130.8,84.2,133.2,84.2,133.2,84.2z"/>
	<path class="st1" d="M126.9,84.2l1.7,1.7c0,0-0.8,1-1,2.7c-0.8,0-1.4,0-1.4,0S126.1,86.5,126.9,84.2z"/>
	<path class="st1" d="M128.6,81c0.2-0.2,0.3-0.4,0.5-0.5c0-0.3,0-0.5-0.1-0.8c-0.2-1.3-2.2-2.5-2.2-2.5l-1.4,4.6l1.8,1.8
		C127.5,82.5,128,81.7,128.6,81z"/>
	<path class="st1" d="M147.8,84.2v6.6h4.8c0,0,0-2.9-0.9-4.3C150.2,84.2,147.8,84.2,147.8,84.2z"/>
	<path class="st1" d="M154,84.2l-1.7,1.7c0,0,0.8,1,1,2.7c0.8,0,1.4,0,1.4,0S154.9,86.5,154,84.2z"/>
	<path class="st1" d="M152.4,81c-0.2-0.2-0.3-0.4-0.5-0.5c0-0.3,0-0.5,0.1-0.8c0.2-1.3,2.2-2.5,2.2-2.5l1.4,4.6l-1.8,1.8
		C153.5,82.5,153,81.7,152.4,81z"/>
	<path class="st1" d="M134,79.3c-1.7,0.3-3.5,0.9-4.7,2.2c-0.6,0.7-1.1,1.5-1.3,2.6c0.5,0.5,1.2,1.2,1.2,1.2s1.2-2.1,4.9-2.3V79.3z"
		/>
	<g>
		<path class="st1" d="M146.1,83v-3.8c-1.4-0.1-2.7-0.2-3.3-0.2H138c-0.6,0-1.8,0-3.1,0.2V83H146.1z"/>
	</g>
	<path class="st1" d="M151.7,81.6c-1.2-1.4-3-2-4.7-2.2v3.7c3.7,0.2,4.9,2.3,4.9,2.3s0.6-0.6,1.2-1.2
		C152.8,83.1,152.3,82.2,151.7,81.6z"/>
	<g>
		
			<ellipse transform="matrix(0.6594 -0.7518 0.7518 0.6594 -59.9951 154.9896)" class="st1" cx="141.1" cy="143.7" rx="8.6" ry="8.6"/>
		<g>
			<polygon class="st1" points="144,137.9 214.5,57.5 220.5,62.7 165.7,125.2 162,121.9 146.2,139.9 			"/>
			<polygon class="st1" points="138,149.3 67.4,229.8 61.5,224.6 116.3,162.1 119.9,165.3 135.7,147.3 			"/>
		</g>
		<g>
			<polygon class="st1" points="137.5,138.2 103.1,36.8 110.6,34.3 137.3,113 132.7,114.6 140.4,137.2 			"/>
			<polygon class="st1" points="144.4,149.1 178.8,250.4 171.3,252.9 144.6,174.3 149.2,172.7 141.6,150.1 			"/>
		</g>
		<g>
			<polygon class="st1" points="134.5,143.9 29.6,123 31.1,115.3 112.6,131.5 111.7,136.3 135.1,140.9 			"/>
			<polygon class="st1" points="147.4,143.4 252.4,164.3 250.8,172 169.3,155.8 170.3,151 146.8,146.3 			"/>
		</g>
	</g>
	<rect x="122.2" y="267" class="st1" width="1.8" height="51.8"/>
	<polygon class="st1" points="117.3,100.5 114.6,115 116.2,116.4 124.7,116.4 125.4,115.2 125.1,100.5 	"/>
	<polygon class="st1" points="163.7,100.5 166.4,115 164.8,116.4 156.3,116.4 155.6,115.2 155.9,100.5 	"/>
	<circle class="st2" cx="141.1" cy="143.7" r="114"/>
</g>
</svg>
