<?xml version="1.0" encoding="UTF-8" standalone="no"?>
<!-- Generator: Adobe Illustrator 21.1.0, SVG Export Plug-In . SVG Version: 6.00 Build 0)  -->

<svg
   xmlns:dc="http://purl.org/dc/elements/1.1/"
   xmlns:cc="http://creativecommons.org/ns#"
   xmlns:rdf="http://www.w3.org/1999/02/22-rdf-syntax-ns#"
   xmlns:svg="http://www.w3.org/2000/svg"
   xmlns="http://www.w3.org/2000/svg"
   xmlns:sodipodi="http://sodipodi.sourceforge.net/DTD/sodipodi-0.dtd"
   xmlns:inkscape="http://www.inkscape.org/namespaces/inkscape"
   version="1.1"
   id="Layer_1"
   x="0px"
   y="0px"
   viewBox="0 0 70 70"
   xml:space="preserve"
   inkscape:version="0.91pre4 r13712"
   sodipodi:docname="yasur.svg"
   width="70"
   height="70"><metadata
     id="metadata81"><rdf:RDF><cc:Work
         rdf:about=""><dc:format>image/svg+xml</dc:format><dc:type
           rdf:resource="http://purl.org/dc/dcmitype/StillImage" /><dc:title>Asset 1</dc:title></cc:Work></rdf:RDF></metadata><defs
     id="defs79"><filter
       inkscape:collect="always"
       style="color-interpolation-filters:sRGB"
       id="filter4299"
       x="-0.27215791"
       width="1.5443158"
       y="-0.21463853"
       height="1.4292771"><feGaussianBlur
         inkscape:collect="always"
         stdDeviation="25.855"
         id="feGaussianBlur4301" /></filter></defs><sodipodi:namedview
     pagecolor="#ffffff"
     bordercolor="#666666"
     borderopacity="1"
     objecttolerance="10"
     gridtolerance="10"
     guidetolerance="10"
     inkscape:pageopacity="0"
     inkscape:pageshadow="2"
     inkscape:window-width="1280"
     inkscape:window-height="961"
     id="namedview77"
     showgrid="false"
     inkscape:zoom="0.70238095"
     inkscape:cx="77.830506"
     inkscape:cy="121.00383"
     inkscape:window-x="-8"
     inkscape:window-y="-8"
     inkscape:window-maximized="1"
     inkscape:current-layer="Layer_1" /><style
     type="text/css"
     id="style3">
	.st0{fill:#DBCF9E;}
	.st1{fill:#596B6A;}
	.st2{fill:none;stroke:#EDE2B2;stroke-width:2;stroke-miterlimit:10;}
</style><title
     id="title5">Asset 1</title><g
     id="g4206"
     transform="scale(0.2,0.2)"><g
       transform="translate(33.899994,0.75000191)"
       style="opacity:0.5;fill:#000000;fill-opacity:1;filter:url(#filter4299)"
       id="g4209"><g
         style="fill:#000000;fill-opacity:1"
         id="g4211"><path
           inkscape:connector-curvature="0"
           style="fill:#000000;fill-opacity:1"
           class="st0"
           d="m 107.1,190.2 c -0.9,0 -2.4,-0.3 -3.7,-2.2 l -3.9,0 c -1.4,0 -2.5,-1.1 -2.5,-2.5 l 0,-2.5 c 0,-1.4 1.1,-2.5 2.5,-2.5 l 1.7,0 c 0,-0.6 -0.1,-1.2 -0.1,-1.9 l 0,-60.4 c 0,-5.8 1.8,-11.7 5.9,-11.7 4.1,0 5.9,5.9 5.9,11.7 l 0,60.4 c 0,0.6 0,1.3 -0.1,1.9 l 1.7,0 c 1.4,0 2.5,1.1 2.5,2.5 l 0,2.6 c 0,1.4 -1.1,2.5 -2.5,2.5 l -3.9,0 c -1.1,1.8 -2.6,2.1 -3.5,2.1 z"
           id="path4213" /><path
           inkscape:connector-curvature="0"
           style="fill:#000000;fill-opacity:1"
           class="st1"
           d="m 107.1,109 c 1.9,0 3.4,4.1 3.4,9.2 l 0,60.4 c 0,1.6 -0.1,3.1 -0.4,4.4 l 4.5,0 0,2.6 -5.3,0 c -0.6,1.4 -1.4,2.2 -2.2,2.2 -0.8,0 -1.6,-0.8 -2.2,-2.2 l -5.3,0 0,-2.6 4.5,0 c -0.3,-1.3 -0.4,-2.8 -0.4,-4.4 l 0,-60.4 c 0,-5.1 1.5,-9.2 3.4,-9.2 m 0,-5 c -5.1,0 -8.4,5.6 -8.4,14.2 l 0,59.8 c -2.3,0.4 -4.1,2.5 -4.1,4.9 l 0,2.6 c 0,2.8 2.2,5 5,5 l 2.7,0 c 1.8,1.9 3.9,2.2 4.8,2.2 0.9,0 3,-0.3 4.8,-2.2 l 2.7,0 c 2.8,0 5,-2.2 5,-5 l 0,-2.5 c 0,-2.5 -1.8,-4.5 -4.1,-4.9 l 0,-59.9 c 0,-8.6 -3.3,-14.2 -8.4,-14.2 l 0,0 z"
           id="path4215" /></g><g
         style="fill:#000000;fill-opacity:1"
         id="g4217"><path
           inkscape:connector-curvature="0"
           style="fill:#000000;fill-opacity:1"
           class="st0"
           d="m 173.9,190.2 c -0.9,0 -2.4,-0.3 -3.7,-2.2 l -3.9,0 c -1.4,0 -2.5,-1.1 -2.5,-2.5 l 0,-2.5 c 0,-1.4 1.1,-2.5 2.5,-2.5 l 1.7,0 c 0,-0.6 -0.1,-1.2 -0.1,-1.9 l 0,-60.4 c 0,-5.8 1.8,-11.7 5.9,-11.7 4.1,0 5.9,5.9 5.9,11.7 l 0,60.4 c 0,0.6 0,1.3 -0.1,1.9 l 1.7,0 c 1.4,0 2.5,1.1 2.5,2.5 l 0,2.6 c 0,1.4 -1.1,2.5 -2.5,2.5 l -3.9,0 c -1.1,1.8 -2.6,2.1 -3.5,2.1 z"
           id="path4219" /><path
           inkscape:connector-curvature="0"
           style="fill:#000000;fill-opacity:1"
           class="st1"
           d="m 173.9,109 c 1.9,0 3.4,4.1 3.4,9.2 l 0,60.4 c 0,1.6 -0.1,3.1 -0.4,4.4 l 4.5,0 0,2.6 -5.3,0 c -0.6,1.4 -1.4,2.2 -2.2,2.2 -0.8,0 -1.6,-0.8 -2.2,-2.2 l -5.3,0 0,-2.6 4.5,0 c -0.3,-1.3 -0.4,-2.8 -0.4,-4.4 l 0,-60.4 c 0,-5.1 1.5,-9.2 3.4,-9.2 m 0,-5 c -5.1,0 -8.4,5.6 -8.4,14.2 l 0,59.8 c -2.3,0.4 -4.1,2.5 -4.1,4.9 l 0,2.6 c 0,2.8 2.2,5 5,5 l 2.7,0 c 1.8,1.9 3.9,2.2 4.8,2.2 0.9,0 3,-0.3 4.8,-2.2 l 2.7,0 c 2.8,0 5,-2.2 5,-5 l 0,-2.5 c 0,-2.5 -1.8,-4.5 -4.1,-4.9 l 0,-59.9 c 0,-8.6 -3.3,-14.2 -8.4,-14.2 l 0,0 z"
           id="path4221" /></g><g
         style="fill:#000000;fill-opacity:1"
         id="g4223"><path
           inkscape:connector-curvature="0"
           style="fill:#000000;fill-opacity:1"
           class="st0"
           d="m 140.5,301 c -0.5,0 -2,0 -5.8,-3 l -5.2,-0.7 c -1.4,-0.2 -2.3,-1.4 -2.2,-2.8 l 0.5,-3.7 c 0.1,-1 0.9,-1.9 1.9,-2.1 l 3.7,-0.9 -0.1,-17 c -1.5,-3.6 -10.4,-25.9 -10.4,-41.8 l 0,-43.1 -6.1,-0.2 c -1,0 -1.9,-0.7 -2.2,-1.6 l -0.6,-1.1 -1.3,-0.1 c -1.3,-0.1 -2.2,-1.2 -2.2,-2.5 l 0,-51.7 c 0,-2.9 1.5,-4.6 3.3,-5.3 l 0,-6.1 -0.6,-0.5 c -0.7,-0.6 -1,-1.5 -0.8,-2.3 l 2.7,-14.5 c 0.2,-1.2 1.3,-2 2.5,-2 l 4.9,0 c 0,-11.3 0.2,-12.1 0.3,-12.6 0.1,-0.2 0.1,-0.5 0.2,-0.9 0.5,-3.1 1.7,-9.7 7,-12.9 0.6,-0.3 2.3,-1.4 9.1,-1.4 0.7,0 1.2,0 1.4,0 0.2,0 0.7,0 1.4,0 6.8,0 8.5,1 9.1,1.4 5.3,3.3 6.5,9.8 7,12.9 0.1,0.4 0.1,0.7 0.2,0.9 0.1,0.5 0.3,1.3 0.3,12.6 l 5,0 c 1.2,0 2.2,0.9 2.5,2 l 2.7,14.5 c 0.2,0.9 -0.1,1.7 -0.8,2.3 l -0.6,0.5 0,6.1 c 1.8,0.7 3.3,2.4 3.3,5.3 l 0,51.7 c 0,1.3 -1,2.3 -2.2,2.5 l -1.3,0.1 -0.4,0.9 c -0.4,0.9 -1.2,1.5 -2.2,1.6 l -6.1,0.2 0,43.1 c 0,15.9 -8.9,38.2 -10.4,41.8 l -0.1,9.4 c 8.9,1.6 18.9,3.3 20.6,3.8 3.9,1 4,4.3 4,5.8 0,0.3 0,0.5 0,0.7 0.2,1.7 0.2,3.7 -1.1,5.1 -0.7,0.9 -1.7,1.4 -2.9,1.5 -1,0.1 -8.6,0.5 -22.6,1.4 -3.6,2.7 -4.8,2.7 -5.4,2.7 0,0 0,0 0,0 z"
           id="path4225" /><path
           inkscape:connector-curvature="0"
           style="fill:#000000;fill-opacity:1"
           class="st1"
           d="m 141.9,72.7 c 2.2,0 6.3,0.1 7.8,1 5,3.1 5.6,10.1 6,12.2 0.2,0.9 0.2,7.2 0.2,14.5 l 7.5,0 2.7,14.5 -1.5,1.3 0,9.4 c 0.2,0 0.4,0 0.5,0 1.2,0 2.8,0.6 2.8,3.1 0,2.5 0,51.7 0,51.7 l -2.8,0.3 -0.9,2.3 -8.6,0.3 c 0,0 0,42.9 0,45.6 0,16.6 -10.4,41.3 -10.4,41.3 l -0.1,12.1 c 7,1.2 20.6,3.6 22.5,4.1 2.5,0.6 2,2.6 2.2,4.3 0.2,1.7 0.2,3.7 -1.7,3.9 -1.4,0.1 -15.6,1 -23.3,1.4 -1,0.8 -3.4,2.5 -4.3,2.5 l 0,0 c -1.3,0 -4.8,-2.9 -4.8,-2.9 l -5.9,-0.8 0.5,-3.7 5.6,-1.4 -0.2,-19.5 c 0,0 -10.4,-24.7 -10.4,-41.3 0,-2.6 0,-45.6 0,-45.6 l -8.6,-0.3 -0.9,-2.3 -2.8,-0.3 c 0,0 0,-49.2 0,-51.7 0,-2.5 1.5,-3.1 2.8,-3.1 0.1,0 0.3,0 0.5,0 l 0,-9.4 -1.5,-1.3 2.7,-14.5 7.5,0 c 0,-7.4 0,-13.7 0.2,-14.5 0.5,-2.2 1.1,-9.2 6,-12.2 1.4,-0.9 5.6,-1 7.8,-1 0.8,0 1.4,0 1.4,0 0.1,0 0.6,0 1.5,0 m 0,-5 c 0,0 0,0 0,0 -0.7,0 -1.2,0 -1.4,0 -0.2,0 -0.7,0 -1.4,0 -6.7,0 -9,0.9 -10.4,1.8 -6.3,3.9 -7.6,11.4 -8.2,14.6 -0.1,0.3 -0.1,0.6 -0.1,0.8 -0.1,0.7 -0.3,1.4 -0.3,10.6 l -2.5,0 c -2.4,0 -4.5,1.7 -4.9,4.1 l -2.7,14.5 c -0.3,1.6 0.2,3.3 1.4,4.5 l 0,3.5 c -2.1,1.4 -3.3,3.8 -3.3,6.8 l 0,51.7 c 0,2.5 1.8,4.6 4.3,4.9 0.8,1.6 2.4,2.6 4.2,2.7 l 3.7,0.1 0,40.7 c 0,15.8 8.4,37.5 10.4,42.3 l 0.1,14.6 -1.8,0.4 c -2,0.5 -3.5,2.2 -3.7,4.2 l -0.5,3.7 c -0.3,2.7 1.6,5.2 4.3,5.6 l 4.5,0.6 c 4.1,3.1 6,3.1 6.8,3.1 1.5,0 3.1,-0.5 6.1,-2.6 8.3,-0.5 20.6,-1.2 22,-1.3 1.8,-0.2 3.5,-1 4.6,-2.3 2.1,-2.4 1.8,-5.6 1.6,-7 0,-0.2 0,-0.4 0,-0.6 -0.1,-4.5 -2.1,-7.2 -5.9,-8.1 -1.3,-0.3 -7.6,-1.5 -18.7,-3.4 l 0.1,-6.8 c 1.9,-4.8 10.4,-26.5 10.4,-42.3 l 0,-40.7 3.7,-0.1 c 1.8,-0.1 3.4,-1.1 4.2,-2.7 2.5,-0.4 4.3,-2.5 4.3,-4.9 l 0,-51.7 c 0,-2.9 -1.3,-5.4 -3.3,-6.8 l 0,-3.5 c 1.2,-1.2 1.7,-2.8 1.4,-4.5 l -2.7,-14.5 c -0.4,-2.4 -2.5,-4.1 -4.9,-4.1 l -2.5,0 c 0,-9.2 -0.2,-9.9 -0.3,-10.6 0,-0.2 -0.1,-0.5 -0.1,-0.8 -0.6,-3.2 -1.9,-10.8 -8.2,-14.6 -1.3,-1 -3.6,-1.9 -10.3,-1.9 l 0,0 z"
           id="path4227" /></g><path
         inkscape:connector-curvature="0"
         style="fill:#000000;fill-opacity:1"
         class="st1"
         d="m 133.2,84.2 0,6.6 -4.8,0 c 0,0 0,-2.9 0.9,-4.3 1.5,-2.3 3.9,-2.3 3.9,-2.3 z"
         id="path4229" /><path
         inkscape:connector-curvature="0"
         style="fill:#000000;fill-opacity:1"
         class="st1"
         d="m 126.9,84.2 1.7,1.7 c 0,0 -0.8,1 -1,2.7 -0.8,0 -1.4,0 -1.4,0 0,0 -0.1,-2.1 0.7,-4.4 z"
         id="path4231" /><path
         inkscape:connector-curvature="0"
         style="fill:#000000;fill-opacity:1"
         class="st1"
         d="m 128.6,81 c 0.2,-0.2 0.3,-0.4 0.5,-0.5 0,-0.3 0,-0.5 -0.1,-0.8 -0.2,-1.3 -2.2,-2.5 -2.2,-2.5 l -1.4,4.6 1.8,1.8 c 0.3,-1.1 0.8,-1.9 1.4,-2.6 z"
         id="path4233" /><path
         inkscape:connector-curvature="0"
         style="fill:#000000;fill-opacity:1"
         class="st1"
         d="m 147.8,84.2 0,6.6 4.8,0 c 0,0 0,-2.9 -0.9,-4.3 -1.5,-2.3 -3.9,-2.3 -3.9,-2.3 z"
         id="path4235" /><path
         inkscape:connector-curvature="0"
         style="fill:#000000;fill-opacity:1"
         class="st1"
         d="m 154,84.2 -1.7,1.7 c 0,0 0.8,1 1,2.7 0.8,0 1.4,0 1.4,0 0,0 0.2,-2.1 -0.7,-4.4 z"
         id="path4237" /><path
         inkscape:connector-curvature="0"
         style="fill:#000000;fill-opacity:1"
         class="st1"
         d="m 152.4,81 c -0.2,-0.2 -0.3,-0.4 -0.5,-0.5 0,-0.3 0,-0.5 0.1,-0.8 0.2,-1.3 2.2,-2.5 2.2,-2.5 l 1.4,4.6 -1.8,1.8 C 153.5,82.5 153,81.7 152.4,81 Z"
         id="path4239" /><path
         inkscape:connector-curvature="0"
         style="fill:#000000;fill-opacity:1"
         class="st1"
         d="m 134,79.3 c -1.7,0.3 -3.5,0.9 -4.7,2.2 -0.6,0.7 -1.1,1.5 -1.3,2.6 0.5,0.5 1.2,1.2 1.2,1.2 0,0 1.2,-2.1 4.9,-2.3 l 0,-3.7 z"
         id="path4241" /><g
         style="fill:#000000;fill-opacity:1"
         id="g4243"><path
           inkscape:connector-curvature="0"
           style="fill:#000000;fill-opacity:1"
           class="st1"
           d="m 146.1,83 0,-3.8 C 144.7,79.1 143.4,79 142.8,79 l -4.8,0 c -0.6,0 -1.8,0 -3.1,0.2 l 0,3.8 11.2,0 z"
           id="path4245" /></g><path
         inkscape:connector-curvature="0"
         style="fill:#000000;fill-opacity:1"
         class="st1"
         d="m 151.7,81.6 c -1.2,-1.4 -3,-2 -4.7,-2.2 l 0,3.7 c 3.7,0.2 4.9,2.3 4.9,2.3 0,0 0.6,-0.6 1.2,-1.2 -0.3,-1.1 -0.8,-2 -1.4,-2.6 z"
         id="path4247" /><g
         style="fill:#000000;fill-opacity:1"
         id="g4249"><circle
           r="8.6000004"
           style="fill:#000000;fill-opacity:1"
           transform="matrix(0.6594,-0.7518,0.7518,0.6594,-59.9951,154.9896)"
           class="st1"
           cx="141.10001"
           cy="143.7"
           id="ellipse4251" /><g
           style="fill:#000000;fill-opacity:1"
           id="g4253"><polygon
             style="fill:#000000;fill-opacity:1"
             class="st1"
             points="162,121.9 146.2,139.9 144,137.9 214.5,57.5 220.5,62.7 165.7,125.2 "
             id="polygon4255" /><polygon
             style="fill:#000000;fill-opacity:1"
             class="st1"
             points="119.9,165.3 135.7,147.3 138,149.3 67.4,229.8 61.5,224.6 116.3,162.1 "
             id="polygon4257" /></g><g
           style="fill:#000000;fill-opacity:1"
           id="g4259"><polygon
             style="fill:#000000;fill-opacity:1"
             class="st1"
             points="132.7,114.6 140.4,137.2 137.5,138.2 103.1,36.8 110.6,34.3 137.3,113 "
             id="polygon4261" /><polygon
             style="fill:#000000;fill-opacity:1"
             class="st1"
             points="149.2,172.7 141.6,150.1 144.4,149.1 178.8,250.4 171.3,252.9 144.6,174.3 "
             id="polygon4263" /></g><g
           style="fill:#000000;fill-opacity:1"
           id="g4265"><polygon
             style="fill:#000000;fill-opacity:1"
             class="st1"
             points="111.7,136.3 135.1,140.9 134.5,143.9 29.6,123 31.1,115.3 112.6,131.5 "
             id="polygon4267" /><polygon
             style="fill:#000000;fill-opacity:1"
             class="st1"
             points="170.3,151 146.8,146.3 147.4,143.4 252.4,164.3 250.8,172 169.3,155.8 "
             id="polygon4269" /></g></g><rect
         style="fill:#000000;fill-opacity:1"
         x="122.2"
         y="267"
         class="st1"
         width="1.8"
         height="51.799999"
         id="rect4271" /><polygon
         style="fill:#000000;fill-opacity:1"
         class="st1"
         points="125.4,115.2 125.1,100.5 117.3,100.5 114.6,115 116.2,116.4 124.7,116.4 "
         id="polygon4273" /><polygon
         style="fill:#000000;fill-opacity:1"
         class="st1"
         points="155.6,115.2 155.9,100.5 163.7,100.5 166.4,115 164.8,116.4 156.3,116.4 "
         id="polygon4275" /><circle
         style="fill:none;fill-opacity:1;stroke:#000000;stroke-width:2;stroke-miterlimit:10;stroke-opacity:1"
         class="st2"
         cx="141.10001"
         cy="143.7"
         r="114"
         id="circle4277" /></g><g
       inkscape:transform-center-y="30.398305"
       inkscape:transform-center-x="-1.4237288"
       transform="translate(33.899994,1.2500019)"
       id="g7"><g
         id="g9"><path
           style="fill:#dbcf9e"
           inkscape:connector-curvature="0"
           id="path11"
           d="m 107.1,190.2 c -0.9,0 -2.4,-0.3 -3.7,-2.2 l -3.9,0 c -1.4,0 -2.5,-1.1 -2.5,-2.5 l 0,-2.5 c 0,-1.4 1.1,-2.5 2.5,-2.5 l 1.7,0 c 0,-0.6 -0.1,-1.2 -0.1,-1.9 l 0,-60.4 c 0,-5.8 1.8,-11.7 5.9,-11.7 4.1,0 5.9,5.9 5.9,11.7 l 0,60.4 c 0,0.6 0,1.3 -0.1,1.9 l 1.7,0 c 1.4,0 2.5,1.1 2.5,2.5 l 0,2.6 c 0,1.4 -1.1,2.5 -2.5,2.5 l -3.9,0 c -1.1,1.8 -2.6,2.1 -3.5,2.1 z"
           class="st0" /><path
           style="fill:#596b6a"
           inkscape:connector-curvature="0"
           id="path13"
           d="m 107.1,109 c 1.9,0 3.4,4.1 3.4,9.2 l 0,60.4 c 0,1.6 -0.1,3.1 -0.4,4.4 l 4.5,0 0,2.6 -5.3,0 c -0.6,1.4 -1.4,2.2 -2.2,2.2 -0.8,0 -1.6,-0.8 -2.2,-2.2 l -5.3,0 0,-2.6 4.5,0 c -0.3,-1.3 -0.4,-2.8 -0.4,-4.4 l 0,-60.4 c 0,-5.1 1.5,-9.2 3.4,-9.2 m 0,-5 c -5.1,0 -8.4,5.6 -8.4,14.2 l 0,59.8 c -2.3,0.4 -4.1,2.5 -4.1,4.9 l 0,2.6 c 0,2.8 2.2,5 5,5 l 2.7,0 c 1.8,1.9 3.9,2.2 4.8,2.2 0.9,0 3,-0.3 4.8,-2.2 l 2.7,0 c 2.8,0 5,-2.2 5,-5 l 0,-2.5 c 0,-2.5 -1.8,-4.5 -4.1,-4.9 l 0,-59.9 c 0,-8.6 -3.3,-14.2 -8.4,-14.2 l 0,0 z"
           class="st1" /></g><g
         id="g15"><path
           style="fill:#dbcf9e"
           inkscape:connector-curvature="0"
           id="path17"
           d="m 173.9,190.2 c -0.9,0 -2.4,-0.3 -3.7,-2.2 l -3.9,0 c -1.4,0 -2.5,-1.1 -2.5,-2.5 l 0,-2.5 c 0,-1.4 1.1,-2.5 2.5,-2.5 l 1.7,0 c 0,-0.6 -0.1,-1.2 -0.1,-1.9 l 0,-60.4 c 0,-5.8 1.8,-11.7 5.9,-11.7 4.1,0 5.9,5.9 5.9,11.7 l 0,60.4 c 0,0.6 0,1.3 -0.1,1.9 l 1.7,0 c 1.4,0 2.5,1.1 2.5,2.5 l 0,2.6 c 0,1.4 -1.1,2.5 -2.5,2.5 l -3.9,0 c -1.1,1.8 -2.6,2.1 -3.5,2.1 z"
           class="st0" /><path
           style="fill:#596b6a"
           inkscape:connector-curvature="0"
           id="path19"
           d="m 173.9,109 c 1.9,0 3.4,4.1 3.4,9.2 l 0,60.4 c 0,1.6 -0.1,3.1 -0.4,4.4 l 4.5,0 0,2.6 -5.3,0 c -0.6,1.4 -1.4,2.2 -2.2,2.2 -0.8,0 -1.6,-0.8 -2.2,-2.2 l -5.3,0 0,-2.6 4.5,0 c -0.3,-1.3 -0.4,-2.8 -0.4,-4.4 l 0,-60.4 c 0,-5.1 1.5,-9.2 3.4,-9.2 m 0,-5 c -5.1,0 -8.4,5.6 -8.4,14.2 l 0,59.8 c -2.3,0.4 -4.1,2.5 -4.1,4.9 l 0,2.6 c 0,2.8 2.2,5 5,5 l 2.7,0 c 1.8,1.9 3.9,2.2 4.8,2.2 0.9,0 3,-0.3 4.8,-2.2 l 2.7,0 c 2.8,0 5,-2.2 5,-5 l 0,-2.5 c 0,-2.5 -1.8,-4.5 -4.1,-4.9 l 0,-59.9 c 0,-8.6 -3.3,-14.2 -8.4,-14.2 l 0,0 z"
           class="st1" /></g><g
         id="g21"><path
           style="fill:#dbcf9e"
           inkscape:connector-curvature="0"
           id="path23"
           d="m 140.5,301 c -0.5,0 -2,0 -5.8,-3 l -5.2,-0.7 c -1.4,-0.2 -2.3,-1.4 -2.2,-2.8 l 0.5,-3.7 c 0.1,-1 0.9,-1.9 1.9,-2.1 l 3.7,-0.9 -0.1,-17 c -1.5,-3.6 -10.4,-25.9 -10.4,-41.8 l 0,-43.1 -6.1,-0.2 c -1,0 -1.9,-0.7 -2.2,-1.6 l -0.6,-1.1 -1.3,-0.1 c -1.3,-0.1 -2.2,-1.2 -2.2,-2.5 l 0,-51.7 c 0,-2.9 1.5,-4.6 3.3,-5.3 l 0,-6.1 -0.6,-0.5 c -0.7,-0.6 -1,-1.5 -0.8,-2.3 l 2.7,-14.5 c 0.2,-1.2 1.3,-2 2.5,-2 l 4.9,0 c 0,-11.3 0.2,-12.1 0.3,-12.6 0.1,-0.2 0.1,-0.5 0.2,-0.9 0.5,-3.1 1.7,-9.7 7,-12.9 0.6,-0.3 2.3,-1.4 9.1,-1.4 0.7,0 1.2,0 1.4,0 0.2,0 0.7,0 1.4,0 6.8,0 8.5,1 9.1,1.4 5.3,3.3 6.5,9.8 7,12.9 0.1,0.4 0.1,0.7 0.2,0.9 0.1,0.5 0.3,1.3 0.3,12.6 l 5,0 c 1.2,0 2.2,0.9 2.5,2 l 2.7,14.5 c 0.2,0.9 -0.1,1.7 -0.8,2.3 l -0.6,0.5 0,6.1 c 1.8,0.7 3.3,2.4 3.3,5.3 l 0,51.7 c 0,1.3 -1,2.3 -2.2,2.5 l -1.3,0.1 -0.4,0.9 c -0.4,0.9 -1.2,1.5 -2.2,1.6 l -6.1,0.2 0,43.1 c 0,15.9 -8.9,38.2 -10.4,41.8 l -0.1,9.4 c 8.9,1.6 18.9,3.3 20.6,3.8 3.9,1 4,4.3 4,5.8 0,0.3 0,0.5 0,0.7 0.2,1.7 0.2,3.7 -1.1,5.1 -0.7,0.9 -1.7,1.4 -2.9,1.5 -1,0.1 -8.6,0.5 -22.6,1.4 -3.6,2.7 -4.8,2.7 -5.4,2.7 0,0 0,0 0,0 z"
           class="st0" /><path
           style="fill:#596b6a"
           inkscape:connector-curvature="0"
           id="path25"
           d="m 141.9,72.7 c 2.2,0 6.3,0.1 7.8,1 5,3.1 5.6,10.1 6,12.2 0.2,0.9 0.2,7.2 0.2,14.5 l 7.5,0 2.7,14.5 -1.5,1.3 0,9.4 c 0.2,0 0.4,0 0.5,0 1.2,0 2.8,0.6 2.8,3.1 0,2.5 0,51.7 0,51.7 l -2.8,0.3 -0.9,2.3 -8.6,0.3 c 0,0 0,42.9 0,45.6 0,16.6 -10.4,41.3 -10.4,41.3 l -0.1,12.1 c 7,1.2 20.6,3.6 22.5,4.1 2.5,0.6 2,2.6 2.2,4.3 0.2,1.7 0.2,3.7 -1.7,3.9 -1.4,0.1 -15.6,1 -23.3,1.4 -1,0.8 -3.4,2.5 -4.3,2.5 l 0,0 c -1.3,0 -4.8,-2.9 -4.8,-2.9 l -5.9,-0.8 0.5,-3.7 5.6,-1.4 -0.2,-19.5 c 0,0 -10.4,-24.7 -10.4,-41.3 0,-2.6 0,-45.6 0,-45.6 l -8.6,-0.3 -0.9,-2.3 -2.8,-0.3 c 0,0 0,-49.2 0,-51.7 0,-2.5 1.5,-3.1 2.8,-3.1 0.1,0 0.3,0 0.5,0 l 0,-9.4 -1.5,-1.3 2.7,-14.5 7.5,0 c 0,-7.4 0,-13.7 0.2,-14.5 0.5,-2.2 1.1,-9.2 6,-12.2 1.4,-0.9 5.6,-1 7.8,-1 0.8,0 1.4,0 1.4,0 0.1,0 0.6,0 1.5,0 m 0,-5 c 0,0 0,0 0,0 -0.7,0 -1.2,0 -1.4,0 -0.2,0 -0.7,0 -1.4,0 -6.7,0 -9,0.9 -10.4,1.8 -6.3,3.9 -7.6,11.4 -8.2,14.6 -0.1,0.3 -0.1,0.6 -0.1,0.8 -0.1,0.7 -0.3,1.4 -0.3,10.6 l -2.5,0 c -2.4,0 -4.5,1.7 -4.9,4.1 l -2.7,14.5 c -0.3,1.6 0.2,3.3 1.4,4.5 l 0,3.5 c -2.1,1.4 -3.3,3.8 -3.3,6.8 l 0,51.7 c 0,2.5 1.8,4.6 4.3,4.9 0.8,1.6 2.4,2.6 4.2,2.7 l 3.7,0.1 0,40.7 c 0,15.8 8.4,37.5 10.4,42.3 l 0.1,14.6 -1.8,0.4 c -2,0.5 -3.5,2.2 -3.7,4.2 l -0.5,3.7 c -0.3,2.7 1.6,5.2 4.3,5.6 l 4.5,0.6 c 4.1,3.1 6,3.1 6.8,3.1 1.5,0 3.1,-0.5 6.1,-2.6 8.3,-0.5 20.6,-1.2 22,-1.3 1.8,-0.2 3.5,-1 4.6,-2.3 2.1,-2.4 1.8,-5.6 1.6,-7 0,-0.2 0,-0.4 0,-0.6 -0.1,-4.5 -2.1,-7.2 -5.9,-8.1 -1.3,-0.3 -7.6,-1.5 -18.7,-3.4 l 0.1,-6.8 c 1.9,-4.8 10.4,-26.5 10.4,-42.3 l 0,-40.7 3.7,-0.1 c 1.8,-0.1 3.4,-1.1 4.2,-2.7 2.5,-0.4 4.3,-2.5 4.3,-4.9 l 0,-51.7 c 0,-2.9 -1.3,-5.4 -3.3,-6.8 l 0,-3.5 c 1.2,-1.2 1.7,-2.8 1.4,-4.5 l -2.7,-14.5 c -0.4,-2.4 -2.5,-4.1 -4.9,-4.1 l -2.5,0 c 0,-9.2 -0.2,-9.9 -0.3,-10.6 0,-0.2 -0.1,-0.5 -0.1,-0.8 -0.6,-3.2 -1.9,-10.8 -8.2,-14.6 -1.3,-1 -3.6,-1.9 -10.3,-1.9 l 0,0 z"
           class="st1" /></g><path
         style="fill:#596b6a"
         inkscape:connector-curvature="0"
         id="path27"
         d="m 133.2,84.2 0,6.6 -4.8,0 c 0,0 0,-2.9 0.9,-4.3 1.5,-2.3 3.9,-2.3 3.9,-2.3 z"
         class="st1" /><path
         style="fill:#596b6a"
         inkscape:connector-curvature="0"
         id="path29"
         d="m 126.9,84.2 1.7,1.7 c 0,0 -0.8,1 -1,2.7 -0.8,0 -1.4,0 -1.4,0 0,0 -0.1,-2.1 0.7,-4.4 z"
         class="st1" /><path
         style="fill:#596b6a"
         inkscape:connector-curvature="0"
         id="path31"
         d="m 128.6,81 c 0.2,-0.2 0.3,-0.4 0.5,-0.5 0,-0.3 0,-0.5 -0.1,-0.8 -0.2,-1.3 -2.2,-2.5 -2.2,-2.5 l -1.4,4.6 1.8,1.8 c 0.3,-1.1 0.8,-1.9 1.4,-2.6 z"
         class="st1" /><path
         style="fill:#596b6a"
         inkscape:connector-curvature="0"
         id="path33"
         d="m 147.8,84.2 0,6.6 4.8,0 c 0,0 0,-2.9 -0.9,-4.3 -1.5,-2.3 -3.9,-2.3 -3.9,-2.3 z"
         class="st1" /><path
         style="fill:#596b6a"
         inkscape:connector-curvature="0"
         id="path35"
         d="m 154,84.2 -1.7,1.7 c 0,0 0.8,1 1,2.7 0.8,0 1.4,0 1.4,0 0,0 0.2,-2.1 -0.7,-4.4 z"
         class="st1" /><path
         style="fill:#596b6a"
         inkscape:connector-curvature="0"
         id="path37"
         d="m 152.4,81 c -0.2,-0.2 -0.3,-0.4 -0.5,-0.5 0,-0.3 0,-0.5 0.1,-0.8 0.2,-1.3 2.2,-2.5 2.2,-2.5 l 1.4,4.6 -1.8,1.8 C 153.5,82.5 153,81.7 152.4,81 Z"
         class="st1" /><path
         style="fill:#596b6a"
         inkscape:connector-curvature="0"
         id="path39"
         d="m 134,79.3 c -1.7,0.3 -3.5,0.9 -4.7,2.2 -0.6,0.7 -1.1,1.5 -1.3,2.6 0.5,0.5 1.2,1.2 1.2,1.2 0,0 1.2,-2.1 4.9,-2.3 l 0,-3.7 z"
         class="st1" /><g
         id="g41"><path
           style="fill:#596b6a"
           inkscape:connector-curvature="0"
           id="path43"
           d="m 146.1,83 0,-3.8 C 144.7,79.1 143.4,79 142.8,79 l -4.8,0 c -0.6,0 -1.8,0 -3.1,0.2 l 0,3.8 11.2,0 z"
           class="st1" /></g><path
         style="fill:#596b6a"
         inkscape:connector-curvature="0"
         id="path45"
         d="m 151.7,81.6 c -1.2,-1.4 -3,-2 -4.7,-2.2 l 0,3.7 c 3.7,0.2 4.9,2.3 4.9,2.3 0,0 0.6,-0.6 1.2,-1.2 -0.3,-1.1 -0.8,-2 -1.4,-2.6 z"
         class="st1" /><g
         id="g47"><circle
           style="fill:#596b6a"
           r="8.6000004"
           id="ellipse49"
           cy="143.7"
           cx="141.10001"
           class="st1"
           transform="matrix(0.6594,-0.7518,0.7518,0.6594,-59.9951,154.9896)" /><g
           id="g51"><polygon
             style="fill:#596b6a"
             id="polygon53"
             points="214.5,57.5 220.5,62.7 165.7,125.2 162,121.9 146.2,139.9 144,137.9 "
             class="st1" /><polygon
             style="fill:#596b6a"
             id="polygon55"
             points="67.4,229.8 61.5,224.6 116.3,162.1 119.9,165.3 135.7,147.3 138,149.3 "
             class="st1" /></g><g
           id="g57"><polygon
             style="fill:#596b6a"
             id="polygon59"
             points="103.1,36.8 110.6,34.3 137.3,113 132.7,114.6 140.4,137.2 137.5,138.2 "
             class="st1" /><polygon
             style="fill:#596b6a"
             id="polygon61"
             points="178.8,250.4 171.3,252.9 144.6,174.3 149.2,172.7 141.6,150.1 144.4,149.1 "
             class="st1" /></g><g
           id="g63"><polygon
             style="fill:#596b6a"
             id="polygon65"
             points="29.6,123 31.1,115.3 112.6,131.5 111.7,136.3 135.1,140.9 134.5,143.9 "
             class="st1" /><polygon
             style="fill:#596b6a"
             id="polygon67"
             points="252.4,164.3 250.8,172 169.3,155.8 170.3,151 146.8,146.3 147.4,143.4 "
             class="st1" /></g></g><rect
         style="fill:#596b6a"
         id="rect69"
         height="51.799999"
         width="1.8"
         class="st1"
         y="267"
         x="122.2" /><polygon
         style="fill:#596b6a"
         id="polygon71"
         points="114.6,115 116.2,116.4 124.7,116.4 125.4,115.2 125.1,100.5 117.3,100.5 "
         class="st1" /><polygon
         style="fill:#596b6a"
         id="polygon73"
         points="166.4,115 164.8,116.4 156.3,116.4 155.6,115.2 155.9,100.5 163.7,100.5 "
         class="st1" /><circle
         style="fill:none;stroke:#ede2b2;stroke-width:2;stroke-miterlimit:10"
         id="circle75"
         r="114"
         cy="143.7"
         cx="141.10001"
         class="st2" /></g></g></svg>