<svg xmlns="http://www.w3.org/2000/svg" width="30" height="30" viewBox="0 0 30 30">
    <path fill="#FFFFFF" fill-rule="evenodd" d="M10.928 15.549c2.237 1.123 3.826 1.381 3.858 1.386l.066.013c.888.211 1.746.366 2.573.462a18.701 18.701 0 0 1-1.61-2.897c-.419-.964-.74-1.983-.895-3.04a8.777 8.777 0 0 1 .104-3.195l.393.099-.012.052-.393-.099c.435-1.95 1.529-3.766 3.121-4.955a6.867 6.867 0 0 1 2.673-1.236 6.342 6.342 0 0 1 2.946.074c1.937.458 3.669 1.736 4.824 3.459a8.467 8.467 0 0 1 1.24 2.899c.193.885.236 1.818.12 2.734l.064.015c-1.051 4.24-3.884 6.844-8.192 7.533-.759.121-1.553.181-2.38.181-.18 0-.361-.002-.544-.008.154.198.309.394.466.588 1.3 1.596 2.74 3.068 4.251 4.456A66.447 66.447 0 0 0 28.327 28a66.42 66.42 0 0 1-4.792-3.851c-1.536-1.364-3.005-2.815-4.339-4.4a32.365 32.365 0 0 1-.598-.734c-1.29-.06-2.652-.26-4.08-.6-.333-.053-2.423-.436-5.147-1.962L6.708 18 0 9l13 5.345-2.072 1.204zm17.448-4.104c-.987 3.366-3.278 5.359-6.816 5.924-1.17.187-2.445.212-3.81.076a18.625 18.625 0 0 1-1.657-3.058c-.395-.951-.69-1.947-.823-2.965a8.378 8.378 0 0 1 .147-3.045l-.393-.099-.012.052.393.1c.45-1.853 1.522-3.543 3.026-4.62a6.33 6.33 0 0 1 2.486-1.092 5.517 5.517 0 0 1 2.668.132c1.72.575 3.162 1.876 4.027 3.454.433.79.722 1.653.833 2.527a6.43 6.43 0 0 1-.189 2.583l.12.03zm0 0l.015-.052-.125-.031-.01.052.12.03z"/>
</svg>
