<svg xmlns="http://www.w3.org/2000/svg" width="64" height="64" viewBox="0 0 64 64">
    <defs>
        <filter id="a" width="110.9%" height="155.6%" x="-5.4%" y="-27.8%" filterUnits="objectBoundingBox">
            <feOffset in="SourceAlpha" result="shadowOffsetOuter1"/>
            <feGaussianBlur in="shadowOffsetOuter1" result="shadowBlurOuter1" stdDeviation=".5"/>
            <feColorMatrix in="shadowBlurOuter1" result="shadowMatrixOuter1" values="0 0 0 0 0.0152212893 0 0 0 0 0.104225099 0 0 0 0 0.295091712 0 0 0 0.3 0"/>
            <feMerge>
                <feMergeNode in="shadowMatrixOuter1"/>
                <feMergeNode in="SourceGraphic"/>
            </feMerge>
        </filter>
    </defs>
    <g fill="none" fill-rule="evenodd">
        <g fill="#FEFEFE" filter="url(#a)" transform="translate(8.67 54.29)">
            <path d="M2.358 8.684V2.955H0V1.013h2.705c.958 0 1.734.707 1.734 1.581v6.09H2.36zM5.993 5.91V2.955h-.694V1.013h2.774V5.91zM9.142 8.685h2.08V1.013h-2.08zM12.429 8.685h2.081V1.013h-2.081zM18.852 8.684l-1.18-3.135-.069.111v3.024h-2.011V4.731l1.165-1.18-1.276-2.538h2.053l1.18 2.927.069-.139V1.013h2.01v3.746l-1.15 1.151 1.262 2.774zM22.111 8.685h2.081V4.148h-2.08v4.537zm3.122 0v-5.73H22.11V1.013h5.202v7.672h-2.08zM33.943 8.684h-1.997V6.742h1.997V2.955h-2.76V0h2.08v1.013h2.761V6.59c0 1.165-.93 2.094-2.08 2.094M37.439 5.91V2.955h-.694V1.013h2.775V5.91zM43.709 8.684V2.955h-1.04v5.73h-2.081V1.012h5.202v7.671z"/>
        </g>
        <path fill="#4F8FCB" d="M0 51.507h63.725v-5.1H0z"/>
        <path fill="#FEFEFE" d="M37.528 28.041h.981l.076-.205-.562-.27.048-.06-.543.535zm-11.011 4.23c.025.004.05.006.075.006v-.45l-.075.443zm3.147 10.825a.51.51 0 0 1-.287-.928l.99-.683-1.197.113c-.212.02-.56.043-1.013.043-.736 0-1.504-.06-2.284-.179a16.999 16.999 0 0 1-4.3-1.264l-.265-.117-.829 1.535s-.2.334-.5.392a.445.445 0 0 1-.086.008.609.609 0 0 1-.372-.146c-.164-.128-.487-.391-.934-.756-1.582-1.289-4.496-3.664-6.134-4.735l2.679-3.038c.675.397 1.77 1.395 2.219 1.816l.244.228.212-.258c.646-.788 1.166-1.253 1.424-1.388 1.134.965 1.803 1.42 2.09 1.615.05.033.104.07.133.096l.019.017.021.014c.551.357 1.144.673 1.762.94l.36-.495a2.72 2.72 0 0 1-.557-.996l-.031-.102-.087-.061c-.84-.59-.879-1.337-.91-1.936l-.017-.287-.223-.181c-.585-.474-1.389-1.125-1.499-2.667l-.009-.131-.1-.085c-.803-.686-1.288-1.978-1.152-3.072l.019-.154-.111-.108c-.998-.974-1.26-2.475-1.191-3.246l.009-.106-.057-.09c-.719-1.128-1.021-1.737-.905-2.835l.013-.12-.072-.098c-.846-1.155-.938-2.043-.912-2.832l.003-.095-.05-.081c-.832-1.324-.807-2.345-.715-2.998l.017-.12-.068-.1c-.59-.864-.825-1.756-.664-2.51l.028-.128-.071-.11c-1.031-1.582-.915-2.503-.812-3.316l.023-.178-.093-.106c-.618-.703-1.418-2.705-1.438-3.953V3.06l-.086-.187c-.433-.955-.685-1.51-.718-2.436 1.332 1.24 10.618 9.876 12.862 12.006 1.295 1.23 1.103 2.415.86 3.915-.086.537-.176 1.09-.208 1.697-.15 2.896 1.456 4.837 1.664 5.076l.07.844.491-.604.072-.085c.033.244.046.594-.061.947-.016.05-.034.097-.052.144l.526.323a5.97 5.97 0 0 1 .604-.591l.183-.155-.073-.158.02-.097-.056-.054c.037-.198.158-.684.495-1.076.308-.357.716-.546.932-.627l.203-.077v-1.782l-.075-.088c-1.164-1.362-1.636-2.912-1.757-3.376.238.046.764.165 1.408.408l.424.16v-4.722l-.115-.094a6.892 6.892 0 0 1-.916-.893c-1.298-1.534-1.643-3.413-1.716-3.936a8.6 8.6 0 0 1 2.253 1.133l.494.348V4.655L31.911.784l2.196 3.87v9.392l.574-.854c.86-1.28 1.887-2.1 2.225-2.352.114.568.467 2.786-.383 4.99-.579 1.499-1.58 2.633-2.316 3.32l-.1.093v2.606l.21.073c.184.064.647.255.985.647.334.388.455.871.493 1.071l-.057.052.029.134-.017.135.132.11c.202.167.39.344.558.525l.526-.313-.018-.052a2.278 2.278 0 0 1-.06-.956l.106.102.216-.246c.187-.212 1.816-2.157 1.665-5.077-.032-.61-.122-1.162-.208-1.696-.243-1.501-.435-2.686.86-3.916C41.8 10.286 51.06 1.673 52.39.436c-.033.926-.286 1.482-.72 2.436l-.084.187-.001.066c-.02 1.247-.82 3.249-1.437 3.952l-.094.106.023.175c.103.816.22 1.737-.811 3.32l-.072.109.028.127c.162.756-.074 1.647-.664 2.511l-.068.1.017.12c.092.653.118 1.674-.714 2.998l-.051.08.003.096c.026.789-.066 1.677-.912 2.832l-.072.097.013.12c.117 1.1-.186 1.708-.905 2.836l-.057.09.01.106c.068.771-.194 2.272-1.191 3.246l-.111.108.019.154c.135 1.094-.35 2.386-1.153 3.072l-.1.085-.01.13c-.109 1.543-.913 2.194-1.5 2.669l-.222.18-.016.287c-.031.6-.07 1.345-.91 1.936l-.087.061-.031.102a2.725 2.725 0 0 1-.543.98l.362.492c.601-.262 1.18-.572 1.72-.92l.022-.015.02-.018c.027-.025.08-.06.13-.095.288-.196.958-.65 2.092-1.615.258.135.778.6 1.423 1.387l.212.26.244-.23c.45-.42 1.544-1.418 2.218-1.815l2.681 3.038c-1.649 1.077-4.574 3.462-6.159 4.755-.434.354-.748.61-.91.736a.61.61 0 0 1-.372.146.451.451 0 0 1-.086-.008c-.302-.059-.497-.388-.506-.402l-.823-1.525-.265.116a16.999 16.999 0 0 1-4.3 1.265c-.78.12-1.548.18-2.284.18-.345 0-.675-.014-.98-.04l-1.172-.104.966.673a.507.507 0 0 1-.29.925h-4.246z"/>
        <path fill="#FEFEFE" d="M27.278 35.913l-.074-.882-.066-.813a14.402 14.402 0 0 1-1.911-.16c-1.285-.196-2.309-.536-3.054-1.015.039.56.154 1.162.9 1.658.006.004.01.01.016.016l.002-.003c1.088.899 3.402 1.14 4.187 1.199M27.101 33.775l-.032-.392a2.234 2.234 0 0 1-.287-.096c-.702-.292-1.104-.906-1.121-.931a.122.122 0 0 1-.01-.113.122.122 0 0 1 .086-.072c.028-.006.61-.125 1.238.062v-.007a6.126 6.126 0 0 1-.256-.339l-.043.044a.121.121 0 0 1-.11.03h-.001a.12.12 0 0 1-.106.026 2.72 2.72 0 0 1-.606-.239 7.497 7.497 0 0 1-.895-.025c-1.103-.091-2.746-.458-4.49-1.648.202 1.21.888 1.77 1.405 2.189.068.054.132.106.192.157 1.46 1.207 4.308 1.34 5.036 1.354"/>
        <path fill="#FEFEFE" d="M25.2 31.252c-.517-.558-.623-1.285-.627-1.315a.122.122 0 0 1 .147-.135c.03.007.744.175 1.258.732l.063.073a5.935 5.935 0 0 1-.204-.637.12.12 0 0 1-.092-.007l-.003-.002a.12.12 0 0 1-.109-.002 2.754 2.754 0 0 1-.878-.793 9.208 9.208 0 0 1-.444-.04c-1.342-.16-3.297-.705-5.173-2.368-.005.996.473 2.105 1.193 2.675 1.865 1.403 3.654 1.797 4.911 1.862-.014-.014-.029-.028-.042-.043M27.368 36.996l-.053-.637c-.64-.042-2.563-.22-3.882-.9.346.588.913 1.014 1.696 1.27.376.097.773.18 1.188.242a7.14 7.14 0 0 0 1.051.025M21.24 17.27c.694.685 1.295.696 1.57.652a9.954 9.954 0 0 1-.08-1.37v-.065c-.403-.012-1.244-.133-2.07-.837.065.538.194 1.19.58 1.62M20.024 12.806l.004.01h.001c.584.999 1.659 1.325 2.247 1.431-.486-1.135-1.286-2.047-2.024-2.889a20.01 20.01 0 0 1-.827-.983c-.037.578.017 1.537.599 2.431M14.464 10.688z"/>
        <path fill="#FEFEFE" d="M24.506 28.696a2.758 2.758 0 0 1-.161-1.206.121.121 0 0 1 .177-.092c.027.014.675.362 1.026 1.036.04.076.073.154.103.231-.002-.063-.005-.127-.005-.19 0-.238.015-.471.042-.701h-.003a.123.123 0 0 1-.096-.045v-.001h-.007a.122.122 0 0 1-.095-.047 1.814 1.814 0 0 1-.078-.11 3.295 3.295 0 0 1-1.35-.716c-2.32-.279-4.349-1.41-6.185-3.455.055.814.385 1.953 1.23 2.725l.004.005c1.88 1.815 3.893 2.411 5.398 2.566M20.056 13.588c.033.447.153.956.482 1.32.002 0 .002.003.003.004h.001c.83.965 1.765 1.117 2.174 1.133a5.481 5.481 0 0 0-.26-1.323c-.472-.054-1.595-.27-2.4-1.134"/>
        <path fill="#FEFEFE" d="M23.598 26.338c-.525-.738-.644-1.556-.67-1.927-1.596-.205-3.018-1.105-3.944-1.841a11.923 11.923 0 0 1-2.079-2.116c.039.741.345 1.308.936 2.232 1.747 2.094 3.589 3.264 5.757 3.652M24.234 26.411c.248.252.545.45.887.595a2.396 2.396 0 0 1-.154-.687 2.411 2.411 0 0 1 .065-.703 4.765 4.765 0 0 1-1.609-.838c.087.458.298 1.113.81 1.633"/>
        <path fill="#FEFEFE" d="M22.587 23.907c-.608-.876-.793-2.04-.841-2.457-1.925-.566-4.207-2.177-5.781-4.057.053.649.269 1.376.925 2.249l.013.021c.755 1.289 3.119 3.71 5.684 4.244M19.469 9.672c.28.444.686.906 1.115 1.395 1.171 1.335 2.629 2.996 2.589 5.491-.049 3.063 1.543 6.396 2.949 7.987a2.15 2.15 0 0 1 .164-.725l-.052-.636c-.31-.36-1.817-2.26-1.668-5.136.032-.615.122-1.172.21-1.711.236-1.463.424-2.619-.822-3.801-.85-.807-2.688-2.527-4.723-4.425-.021.485.005 1.194.238 1.561M24.465 22.901c-.333-.013-1.343-.121-2.172-.88.138.628.424 1.5.999 2.031l.006.007.008.007c.521.575 1.307.977 1.86 1.129.07-.174.134-.283.14-.293a.12.12 0 0 1 .097-.06.12.12 0 0 1 .103.047c.02.024.469.603.519 1.361.003.04.003.081.004.121.097-.257.212-.504.342-.744a.122.122 0 0 1-.072-.074v-.004a.126.126 0 0 1-.077-.078c-.003-.01-.031-.101-.057-.244-.572-.54-1.168-1.356-1.7-2.326"/>
        <path fill="#FEFEFE" d="M21.566 20.928c-.176-.5-.19-.895-.136-1.381-.367-.443-.506-.83-.555-1.228-3.194-1.098-5.011-3.156-5.726-4.13-.008.631.138 1.452.768 2.434 1.44 1.921 3.703 3.633 5.65 4.305M22.144 21.17c.61.926 1.565 1.188 2.075 1.262a14.898 14.898 0 0 1-.77-1.82 2.902 2.902 0 0 1-1.604-.65c-.003.378.071.723.3 1.207M19.872 14.688c-.176-.377-.3-.906-.262-1.636-1.153-.638-4.025-2.245-6.04-5.204-.049.689.039 1.555.892 2.836 0 0 0 .002.002.003.02.03 1.923 2.927 5.408 4M21.292 17.897c.005.512.082.917.535 1.434.504.577 1.112.76 1.47.817a13.197 13.197 0 0 1-.425-1.79c-.074.011-.159.02-.258.02-.335 0-.804-.095-1.322-.48"/>
        <path fill="#FEFEFE" d="M19.298 12.369a4.599 4.599 0 0 1-.264-2.469c-.765-.46-4.525-2.819-6.821-5.954.242 1.192.877 2.62 1.362 3.106a.235.235 0 0 1 .032.04c1.713 2.799 4.279 4.463 5.69 5.277M15.175 13.437c.023.04 1.776 2.997 5.675 4.405 0-.107.003-.217.005-.33V17.5c-.524-.64-.617-1.59-.673-2.166l-.01-.104c-3.07-.787-5.008-2.899-5.745-3.842-.003.635.249 1.338.737 2.031l.01.018h.001z"/>
        <path fill="#FEFEFE" d="M18.861 9.273c-.129-.635-.064-1.363-.045-1.55a7544.429 7544.429 0 0 0-7.485-6.97c.074.722.311 1.243.684 2.065l.072.157c1.906 3.03 5.438 5.451 6.774 6.298"/>
        <path fill="#1E1B36" d="M11.671 3.13c.02 1.314.853 3.4 1.515 4.153a2.337 2.337 0 0 1-.005.04c-.104.824-.233 1.847.86 3.526-.18.842.07 1.813.711 2.753-.103.729-.11 1.825.76 3.207-.03.855.083 1.815.971 3.027-.125 1.18.2 1.854.952 3.036-.074.845.206 2.446 1.285 3.498-.148 1.195.379 2.596 1.26 3.348.12 1.678 1.017 2.405 1.615 2.89.04.031.078.062.115.093l.008.146c.034.634.079 1.498 1.042 2.176.132.422.34.792.62 1.11.526.227 1.109.433 1.749.597-.783-.257-1.35-.683-1.695-1.271a3.51 3.51 0 0 1-.625-.404l.28-.338c-.006-.005-.01-.012-.017-.016-.745-.496-.86-1.099-.9-1.658a3.97 3.97 0 0 1-.389-.281l.282-.34c-.06-.052-.124-.104-.192-.159-.517-.418-1.203-.977-1.405-2.188-.135-.092-.27-.188-.406-.29l.266-.353s.002 0 .003.002c-.72-.57-1.198-1.68-1.193-2.676-.113-.1-.225-.203-.337-.311l.307-.318-.004-.004c-.845-.772-1.175-1.911-1.23-2.725a15.184 15.184 0 0 1-.38-.44l.34-.283.007.01c-.591-.925-.897-1.491-.936-2.233a6.241 6.241 0 0 1-.383-.568l.38-.223c-.004-.007-.007-.014-.013-.021-.655-.873-.871-1.6-.924-2.249-.142-.168-.278-.34-.407-.512l.354-.265.005.007c-.63-.982-.776-1.803-.768-2.433a6.303 6.303 0 0 1-.357-.532l.382-.22-.01-.018c-.488-.693-.74-1.396-.737-2.031a6.758 6.758 0 0 1-.335-.463l.372-.238-.186.119.186-.12a.01.01 0 0 1-.001-.002c-.854-1.282-.942-2.148-.893-2.837-.116-.17-.23-.345-.34-.525l.377-.23a.227.227 0 0 0-.032-.041c-.485-.485-1.12-1.915-1.362-3.106-.179-.245-.35-.494-.509-.747l.375-.236.007.012-.07-.157c-.374-.822-.61-1.343-.686-2.066 1.129 1.05 4.462 4.15 7.486 6.972l.005-.044.44.054c-.012.09-.024.222-.03.377a993.798 993.798 0 0 1 4.722 4.425c1.246 1.182 1.06 2.338.822 3.8-.087.54-.177 1.097-.21 1.712-.148 2.875 1.359 4.777 1.669 5.136l.052.636c.107-.262.254-.481.39-.648l-.008-.098a.222.222 0 0 0-.058-.133c-.018-.018-1.755-1.93-1.603-4.87.031-.591.12-1.136.205-1.663.247-1.53.461-2.85-.954-4.193C21.83 9.91 11.34.157 11.234.059a.22.22 0 0 0-.371.162c0 1.127.282 1.75.75 2.78l.058.129zM27.38 36.487v-.124a6.245 6.245 0 0 1-.065-.004l.053.637a7.11 7.11 0 0 1-1.05-.025c.4.061.818.105 1.255.127a.899.899 0 0 1-.193-.556v-.055zM27.38 35.841a.9.9 0 0 1 .281-.653l-.016-.193-.062-.752c-.076-.047-.122-.08-.128-.085a.122.122 0 0 1 .006-.2c.006-.003.04-.024.095-.054l-.037-.446a2.575 2.575 0 0 1-.45-.075l.032.392c.107.002.169.001.173.001l.006.442H27.138l.066.813.074.882.102.007v-.079zM26.981 32.235a.266.266 0 0 0-.007-.009l.001.007c.002 0 .004 0 .006.002"/>
        <path fill="#1E1B36" d="M27.38 36.363v-.443l-.102-.007c-.785-.058-3.1-.3-4.187-1.199l-.002.003-.28.338c.183.151.395.285.624.404 1.32.68 3.241.858 3.882.9l.065.004M27.138 34.218a8.807 8.807 0 0 0 .142 0l-.006-.442-.173-.002c-.728-.013-3.576-.146-5.036-1.353l-.282.34c.12.1.25.193.39.282.745.479 1.769.82 3.053 1.014.878.134 1.613.157 1.912.16M25.638 31.752c.074 0 .145-.002.215-.004a2.478 2.478 0 0 1-.61-.452c-1.258-.066-3.047-.46-4.912-1.862l-.003-.003-.266.354c.136.102.271.198.406.29 1.744 1.19 3.387 1.557 4.49 1.649.243.02.47.028.68.028M24.755 29.166a2.202 2.202 0 0 1-.25-.47c-1.504-.155-3.517-.751-5.397-2.567l-.307.318c.112.108.224.211.337.311 1.876 1.663 3.83 2.208 5.173 2.367.154.018.301.031.444.041M19.034 9.9l.014-.074a2.052 2.052 0 0 1-.187-.553c-1.336-.846-4.868-3.268-6.775-6.298l-.007-.012-.374.235c.159.254.329.503.508.748C14.508 7.08 18.269 9.44 19.034 9.9M19.61 13.052c0-.023.001-.045.003-.068a4.105 4.105 0 0 1-.315-.615c-1.412-.814-3.978-2.478-5.691-5.276l-.377.23c.11.18.224.354.34.525 2.015 2.959 4.887 4.566 6.04 5.204M20.171 15.231l-.008-.082a2.11 2.11 0 0 1-.29-.461c-3.486-1.074-5.39-3.97-5.41-4l-.185.119.186-.12-.372.24c.02.029.132.201.335.462.737.943 2.675 3.055 5.744 3.842M20.875 18.32a3.844 3.844 0 0 1-.025-.478c-3.899-1.408-5.652-4.365-5.675-4.405h-.001l-.382.221a6.4 6.4 0 0 0 .357.532c.715.973 2.532 3.031 5.726 4.13M21.746 21.45a4.838 4.838 0 0 1-.012-.113 4.536 4.536 0 0 1-.168-.409c-1.946-.672-4.208-2.384-5.65-4.305l-.004-.007-.354.265c.129.173.265.344.407.512 1.574 1.88 3.856 3.49 5.781 4.057M24.06 26.855a3.103 3.103 0 0 1-.462-.517c-2.168-.388-4.01-1.558-5.757-3.651l-.008-.01-.34.283c.126.151.253.298.381.44 1.836 2.045 3.864 3.176 6.185 3.455M20.03 12.816h-.002a.222.222 0 0 1 .031.128c-.014.174-.021.4-.003.643.805.865 1.928 1.081 2.4 1.135a5.84 5.84 0 0 0-.18-.475c-.588-.106-1.663-.432-2.247-1.431M20.542 14.912a.222.222 0 0 1 .052.116c.01.077.018.165.028.264.01.11.022.23.038.358.826.704 1.667.825 2.07.837.001-.151-.004-.298-.014-.442-.41-.016-1.344-.168-2.174-1.133M21.24 17.27l.003.003a.222.222 0 0 1 .057.153l-.002.096a11.73 11.73 0 0 0-.006.375c.518.386.987.48 1.323.48.098 0 .183-.008.257-.019a11.508 11.508 0 0 1-.063-.436c-.274.044-.875.033-1.569-.653M21.827 19.331a.22.22 0 0 1 .053.172c-.02.165-.033.314-.034.46a2.902 2.902 0 0 0 1.603.649 14.342 14.342 0 0 1-.153-.464 2.471 2.471 0 0 1-1.47-.817M22.144 21.17l.007.014a.218.218 0 0 1 .02.079c.001.007.026.325.122.758.83.759 1.839.866 2.172.88-.084-.152-.166-.309-.246-.469-.51-.074-1.465-.336-2.075-1.263M18.984 22.57c.925.736 2.348 1.636 3.944 1.841a3.592 3.592 0 0 1-.006-.1 2.954 2.954 0 0 1-.334-.404c-2.567-.535-4.93-2.955-5.684-4.244h-.001l-.381.223c.095.162.224.355.383.568a11.93 11.93 0 0 0 2.079 2.116M23.423 24.778a4.765 4.765 0 0 0 1.609.838c.038-.163.088-.306.134-.421-.553-.152-1.339-.554-1.86-1.129l-.008-.007c.042.042.066.1.065.16 0 .005-.001.232.06.56"/>
        <path fill="#1E1B36" d="M24.234 26.411c-.513-.52-.724-1.175-.81-1.633a3.159 3.159 0 0 1-.06-.56.222.222 0 0 0-.066-.16l-.006-.006c-.575-.53-.861-1.403-1-2.03-.095-.434-.12-.752-.12-.76a.218.218 0 0 0-.021-.078l-.007-.015c-.228-.484-.302-.829-.299-1.207.002-.145.015-.294.035-.458a.22.22 0 0 0-.053-.173c-.453-.518-.53-.922-.535-1.434 0-.118.002-.242.006-.375l.002-.096a.224.224 0 0 0-.057-.153l-.003-.004c-.386-.43-.515-1.081-.58-1.619-.016-.127-.027-.248-.038-.358l-.028-.264a.222.222 0 0 0-.053-.116l-.003-.005c-.329-.363-.449-.872-.482-1.32a4.237 4.237 0 0 1 .003-.643.221.221 0 0 0-.03-.128c-.003-.003-.003-.007-.005-.01-.582-.894-.636-1.853-.599-2.43a6.373 6.373 0 0 1-.33-.467 1.358 1.358 0 0 1-.047-.083c-.004.022-.01.047-.014.074a4.6 4.6 0 0 0 .264 2.469c.084.204.187.41.315.615l-.003.068c-.039.73.086 1.259.262 1.635.09.19.19.343.291.462l.008.082.01.104c.057.576.15 1.525.675 2.166v.01l-.006.331c0 .163.006.321.025.477.049.398.188.785.554 1.228-.052.486-.038.88.137 1.381.045.128.1.263.168.409l.012.113c.048.418.233 1.581.842 2.457.1.144.21.28.334.403l.006.101c.026.371.145 1.19.67 1.927a3.169 3.169 0 0 0 .461.517 3.29 3.29 0 0 0 1.35.716 2.878 2.878 0 0 1-.288-.565 2.704 2.704 0 0 1-.887-.595"/>
        <path fill="#1E1B36" d="M18.861 9.273c.04.2.1.391.187.553.015.029.03.056.047.083.099.155.21.31.33.466.246.32.53.646.827.983.738.842 1.538 1.754 2.024 2.89a5.481 5.481 0 0 1 .454 2.24v.063a9.99 9.99 0 0 0 .142 1.807 13.194 13.194 0 0 0 .577 2.254 15.08 15.08 0 0 0 1.016 2.29c.532.97 1.127 1.786 1.7 2.325a2.85 2.85 0 0 1-.043-.682c-1.406-1.591-2.998-4.924-2.95-7.987.04-2.495-1.417-4.156-2.588-5.491-.429-.49-.834-.95-1.115-1.395-.233-.367-.26-1.076-.238-1.562a4.89 4.89 0 0 1 .03-.376l-.44-.054-.005.044c-.02.186-.084.914.045 1.55"/>
        <path fill="#FEFEFE" d="M41.742 19.331c.453-.518.53-.922.535-1.434-.518.386-.986.48-1.322.48-.099 0-.184-.008-.258-.02a13.216 13.216 0 0 1-.425 1.793 2.462 2.462 0 0 0 1.47-.819M43.027 14.912l.004-.005c.33-.363.449-.872.482-1.32-.805.865-1.927 1.081-2.399 1.135-.135.41-.226.85-.26 1.323.408-.016 1.343-.168 2.173-1.133M42.33 17.27c.385-.43.514-1.082.58-1.62-.827.704-1.668.825-2.071.837v.064c.006.441-.02.9-.08 1.37.275.045.876.034 1.57-.652M36.201 36.996c.212.011.566.019.981-.018.47-.07.914-.163 1.334-.275.743-.26 1.285-.676 1.62-1.244-1.32.68-3.24.858-3.882.9l-.053.637zM36.566 34.215a.12.12 0 0 1-.024.025c-.006.004-.048.035-.119.078l-.058.713-.074.881c.785-.057 3.1-.3 4.188-1.198l.001.003c.006-.005.01-.012.017-.016.745-.496.86-1.099.9-1.658-.746.479-1.77.82-3.054 1.015-.766.116-1.423.148-1.777.157M43.54 12.816h.001l.005-.01c.584-.897.637-1.856.599-2.432-.246.321-.531.646-.828.984-.738.842-1.537 1.754-2.023 2.888.589-.107 1.665-.435 2.246-1.43M38.26 32.253a.122.122 0 0 1 .076.184c-.017.026-.42.64-1.12.93a2.409 2.409 0 0 1-.729.171l-.02.237c.729-.014 3.578-.147 5.037-1.354l.192-.158c.517-.418 1.203-.977 1.405-2.188-1.744 1.19-3.386 1.557-4.49 1.648a8.236 8.236 0 0 1-.59.028 2.71 2.71 0 0 1-.6.236.12.12 0 0 1-.107-.027h-.003a.121.121 0 0 1-.109-.03l-.01-.009a6.226 6.226 0 0 1-.357.46c.693-.279 1.394-.135 1.425-.128M38.476 24.843a.12.12 0 0 1 .096.059c.005.007.038.064.082.157a3.341 3.341 0 0 0 1.61-.993l.007-.007.006-.007c.576-.532.863-1.404 1-2.031-.83.759-1.84.867-2.173.88-.423.773-.887 1.447-1.348 1.963a2.66 2.66 0 0 1-.1.607.122.122 0 0 1-.076.077l-.001.005a.126.126 0 0 1-.03.047c.114.207.216.42.305.64.053-.752.5-1.327.52-1.351a.122.122 0 0 1 .102-.046"/>
        <path fill="#FEFEFE" d="M42.985 11.067c.43-.49.834-.951 1.116-1.395.232-.367.258-1.077.237-1.561a1014.305 1014.305 0 0 0-4.722 4.425c-1.246 1.182-1.06 2.338-.822 3.8.087.54.178 1.097.21 1.712.149 2.875-1.358 4.777-1.668 5.136l-.013.15c.131.185.258.415.339.681.022.07.038.141.052.21 1.332-1.688 2.728-4.796 2.682-7.667-.04-2.495 1.418-4.156 2.59-5.491M41.425 21.17c.228-.485.302-.83.299-1.208a2.902 2.902 0 0 1-1.603.65 15.08 15.08 0 0 1-.77 1.82c.509-.074 1.465-.336 2.074-1.263M44.535 9.9a4.601 4.601 0 0 1-.263 2.469c1.412-.814 3.978-2.478 5.69-5.277a.224.224 0 0 1 .033-.04c.484-.485 1.119-1.914 1.361-3.106C49.061 7.08 45.3 9.439 44.536 9.9M39.356 27.398a.121.121 0 0 1 .178.092c.003.027.067.585-.15 1.173 1.347-.189 3.27-.788 5.077-2.534l.004-.004c.845-.772 1.176-1.911 1.23-2.725-1.836 2.045-3.864 3.176-6.185 3.455a3.184 3.184 0 0 1-.961.587c-.084.144-.151.23-.158.24a.122.122 0 0 1-.096.045h-.002l-.002.001a.12.12 0 0 1-.045.035c.028.233.044.47.044.711l-.001.048c.013-.03.027-.059.042-.088.351-.674.998-1.022 1.025-1.036"/>
        <path fill="#FEFEFE" d="M39.158 29.802a.12.12 0 0 1 .147.135c-.004.03-.11.757-.626 1.316l-.022.022c1.126-.105 2.814-.513 4.582-1.841.72-.571 1.198-1.68 1.192-2.676-1.875 1.663-3.83 2.208-5.173 2.367l-.116.012c-.36.534-.873.81-.897.822a.12.12 0 0 1-.109.002s-.001.002-.003.002a.113.113 0 0 1-.035.011 5.89 5.89 0 0 1-.164.526 2.735 2.735 0 0 1 1.224-.698M44.708 9.273c1.336-.847 4.869-3.27 6.775-6.298l.07-.156c.374-.823.61-1.344.686-2.067a7358.6 7358.6 0 0 0-7.486 6.972c.02.187.084.914-.045 1.55M40.146 24.783c-.394.319-.842.55-1.337.692.07.237.122.53.101.845a2.314 2.314 0 0 1-.09.496c.19-.115.364-.25.519-.408.51-.52.72-1.17.807-1.625M41.823 21.45c-.048.418-.233 1.58-.841 2.457 2.566-.535 4.93-2.955 5.684-4.244l.014-.021c.656-.873.871-1.6.925-2.249-1.575 1.88-3.857 3.49-5.782 4.057M43.96 13.052c.038.73-.087 1.259-.263 1.635 3.485-1.073 5.388-3.97 5.408-4l.002-.002c.853-1.282.941-2.148.892-2.837-2.015 2.959-4.887 4.566-6.04 5.204"/>
        <path fill="#FEFEFE" d="M44.585 22.57c-.925.736-2.348 1.636-3.944 1.841-.026.371-.145 1.19-.67 1.927 2.168-.388 4.01-1.558 5.757-3.651.591-.926.898-1.491.936-2.233-.456.61-1.166 1.39-2.079 2.116M42.694 18.32c-.049.397-.188.784-.554 1.227.052.485.039.88-.137 1.381 1.946-.672 4.208-2.384 5.65-4.305.63-.982.775-1.803.767-2.433-.715.973-2.532 3.031-5.726 4.13"/>
        <path fill="#FEFEFE" d="M43.398 15.231l-.01.104c-.057.575-.15 1.525-.675 2.166v.01c.003.114.006.224.006.331 3.913-1.413 5.658-4.374 5.675-4.404h.001l.01-.017c.489-.694.74-1.397.737-2.032-.737.943-2.675 3.055-5.744 3.842"/>
        <path fill="#1E1B36" d="M37.323 23.333l.013-.15c.31-.358 1.817-2.26 1.668-5.135-.033-.615-.123-1.172-.21-1.711-.237-1.463-.424-2.619.822-3.802.85-.806 2.687-2.525 4.722-4.425a5.166 5.166 0 0 0-.029-.376l.439-.054.005.044c3.024-2.821 6.357-5.922 7.486-6.972-.075.723-.312 1.244-.685 2.066l-.071.157.007-.012.375.235c-.16.254-.33.503-.509.748-.242 1.192-.877 2.62-1.361 3.106a.224.224 0 0 0-.032.04l.377.231c-.11.18-.224.354-.34.525.048.689-.04 1.555-.893 2.836l-.001.003.371.24c-.019.029-.131.201-.335.461.003.636-.248 1.34-.737 2.033l-.01.017.382.22c-.018.032-.135.23-.357.532.008.63-.138 1.45-.768 2.433a.137.137 0 0 1 .006-.007l.354.265c-.13.173-.266.343-.407.512-.054.649-.27 1.376-.925 2.249-.005.007-.01.014-.013.021l.38.223a6.173 6.173 0 0 1-.383.568c-.038.742-.345 1.308-.936 2.233l.008-.01.34.283c-.126.151-.253.298-.381.44-.054.813-.385 1.953-1.23 2.725l-.003.005.306.317c-.112.108-.224.211-.337.311.006.997-.472 2.105-1.192 2.676a.108.108 0 0 1 .003-.003l.265.354c-.136.102-.271.198-.406.29-.201 1.211-.888 1.77-1.405 2.189-.068.054-.132.107-.192.157l.282.34c-.12.1-.25.193-.39.282-.039.56-.154 1.162-.899 1.658-.006.004-.01.01-.017.016l.28.338a3.51 3.51 0 0 1-.624.404c-.335.568-.876.985-1.62 1.244.617-.164 1.18-.366 1.688-.588.272-.314.476-.678.605-1.092.964-.678 1.009-1.541 1.042-2.176l.008-.146.115-.094c.598-.484 1.496-1.211 1.615-2.89.882-.751 1.408-2.151 1.26-3.347 1.079-1.053 1.36-2.653 1.285-3.497.753-1.183 1.077-1.857.952-3.037.888-1.213 1-2.172.972-3.027.869-1.382.862-2.478.76-3.207.64-.94.89-1.91.71-2.753 1.093-1.679.964-2.702.86-3.527l-.005-.039c.662-.753 1.495-2.839 1.515-4.154l.058-.128c.468-1.03.75-1.653.75-2.78a.222.222 0 0 0-.371-.162c-.105.098-10.596 9.852-13.024 12.156-1.415 1.344-1.201 2.664-.953 4.193.085.527.173 1.072.204 1.662.145 2.8-1.42 4.664-1.587 4.854.092.09.221.228.348.41M36.194 35.841v.078l.097-.007.074-.881.058-.713c-.1.062-.261.15-.462.228l-.037.449-.016.188a.901.901 0 0 1 .286.658M36.201 36.996l.053-.637-.06.004v.179a.9.9 0 0 1-.191.554c.409-.022.802-.062 1.179-.118a7.111 7.111 0 0 1-.981.018M36.468 33.775l.02-.237a2.922 2.922 0 0 1-.445.002l-.021.26c.104.037.195.075.271.11l.002-.134.173-.001"/>
        <path fill="#1E1B36" d="M36.291 35.912l-.097.007v.444l.06-.004c.64-.042 2.563-.22 3.882-.9a3.51 3.51 0 0 0 .624-.404l-.28-.338-.001-.002c-1.087.897-3.403 1.14-4.188 1.197M36.295 33.776l-.002.135c.145.067.233.123.243.129a.121.121 0 0 1 .03.175 14.56 14.56 0 0 0 1.777-.158c1.284-.195 2.308-.535 3.053-1.014.14-.089.27-.183.39-.281l-.282-.341c-1.46 1.206-4.308 1.34-5.036 1.354l-.173.001M38.021 31.75c.185-.001.381-.01.59-.027 1.103-.091 2.746-.458 4.49-1.648a10.7 10.7 0 0 0 .406-.29l-.265-.354a.014.014 0 0 0-.003.003c-1.768 1.328-3.456 1.736-4.582 1.841-.2.212-.43.366-.636.476M39.385 28.663a2.21 2.21 0 0 1-.243.474l.116-.012c1.342-.159 3.298-.704 5.173-2.367.113-.1.225-.203.337-.311l-.306-.317h-.001c-1.808 1.745-3.73 2.344-5.076 2.533M44.708 9.273c-.04.2-.1.391-.186.553a5.2 5.2 0 0 1 .013.074c.765-.46 4.525-2.819 6.821-5.954.18-.245.35-.494.509-.747l-.375-.236-.007.012c-1.906 3.028-5.439 5.45-6.775 6.298M44.272 12.369c-.084.204-.188.41-.316.615l.004.068c1.152-.638 4.024-2.245 6.04-5.204.116-.17.23-.345.34-.525l-.377-.23c-1.714 2.798-4.28 4.462-5.691 5.276M43.697 14.688c-.089.19-.19.342-.29.461l-.01.082c3.07-.787 5.008-2.899 5.745-3.842.204-.261.316-.433.335-.463l-.371-.239c-.02.03-1.924 2.927-5.41 4M42.719 17.842c0 .163-.005.321-.025.477 3.194-1.098 5.011-3.156 5.726-4.13.222-.301.34-.5.357-.53l-.382-.221c-.018.03-1.764 2.992-5.676 4.404M42.003 20.928c-.045.128-.1.263-.168.409a5.75 5.75 0 0 1-.012.113c1.925-.566 4.207-2.177 5.782-4.057.14-.169.277-.34.407-.512l-.354-.265a.137.137 0 0 0-.006.007c-1.44 1.921-3.703 3.633-5.649 4.305M39.97 26.338a3.15 3.15 0 0 1-.46.517c2.32-.279 4.35-1.41 6.185-3.455.128-.142.255-.289.38-.44l-.339-.283a.168.168 0 0 1-.008.01c-1.747 2.093-3.589 3.263-5.757 3.651M43.513 13.588c.018-.244.011-.47-.003-.643a.222.222 0 0 1 .031-.129h-.001c-.581.995-1.657 1.323-2.246 1.43a5.819 5.819 0 0 0-.18.476c.471-.054 1.594-.27 2.4-1.134M42.947 15.292c.01-.098.019-.187.029-.264a.22.22 0 0 1 .052-.116h-.001c-.83.965-1.765 1.117-2.174 1.132a5.68 5.68 0 0 0-.014.443c.403-.012 1.244-.133 2.07-.837.016-.127.028-.248.038-.358M42.277 17.897c0-.118-.002-.242-.005-.375l-.003-.096a.22.22 0 0 1 .057-.153l.003-.004c-.694.685-1.295.697-1.569.653-.018.144-.039.29-.063.436.074.011.16.02.258.02.336 0 .804-.095 1.322-.48M41.69 19.503a.222.222 0 0 1 .052-.172 2.462 2.462 0 0 1-1.47.819c-.047.154-.098.308-.151.462a2.901 2.901 0 0 0 1.603-.65 4.131 4.131 0 0 0-.034-.459M41.418 21.184l.007-.015c-.61.927-1.565 1.19-2.075 1.263-.08.16-.162.317-.246.47.334-.014 1.344-.122 2.173-.881.096-.434.12-.75.12-.758a.222.222 0 0 1 .021-.08M40.206 24.219a.22.22 0 0 1 .066-.16l-.008.007a3.34 3.34 0 0 1-1.61.993c.046.1.105.242.155.416a3.749 3.749 0 0 0 1.337-.692c.063-.33.06-.559.06-.564M40.982 23.907c-.1.144-.211.28-.335.403a2.827 2.827 0 0 1-.006.101c1.596-.205 3.019-1.105 3.945-1.841a11.908 11.908 0 0 0 2.078-2.116c.16-.213.289-.406.383-.568l-.38-.223h-.001c-.755 1.289-3.118 3.71-5.684 4.244"/>
        <path fill="#1E1B36" d="M39.97 26.338c.526-.737.645-1.556.67-1.927.004-.038.006-.073.007-.1.124-.124.235-.26.335-.404.608-.876.793-2.04.841-2.457l.012-.113c.068-.146.123-.28.168-.409.176-.5.19-.896.137-1.381.366-.443.505-.83.554-1.228.02-.156.025-.314.025-.477 0-.107-.003-.217-.005-.33V17.5c.524-.64.617-1.59.674-2.166l.01-.104.008-.082c.1-.12.202-.272.29-.461.177-.377.302-.906.264-1.636l-.004-.068c.128-.205.232-.411.316-.615a4.601 4.601 0 0 0 .263-2.469l-.013-.074c-.015.029-.031.056-.048.083-.098.154-.21.31-.329.465.038.576-.015 1.535-.6 2.432l-.004.01a.222.222 0 0 0-.03.129c.013.173.02.399.002.643-.033.447-.153.956-.482 1.32l-.003.004a.22.22 0 0 0-.052.116c-.01.077-.019.166-.029.264-.01.11-.022.231-.037.358-.066.538-.195 1.19-.58 1.62-.002 0-.003.002-.004.003a.221.221 0 0 0-.057.153l.002.096c.004.133.007.257.006.375-.004.512-.082.917-.535 1.434a.221.221 0 0 0-.053.172c.02.165.033.314.035.46.003.377-.07.722-.299 1.206l-.007.015a.223.223 0 0 0-.02.079c0 .008-.025.324-.12.758-.139.627-.425 1.499-1 2.031l-.007.007a.222.222 0 0 0-.065.16c0 .005.002.234-.06.564-.086.456-.296 1.104-.807 1.625a2.637 2.637 0 0 1-.519.408 2.843 2.843 0 0 1-.271.626 3.187 3.187 0 0 0 1.105-.724c.12-.122.224-.25.317-.38"/>
        <path fill="#1E1B36" d="M39.35 22.432a14.884 14.884 0 0 0 .922-2.282 13.217 13.217 0 0 0 .488-2.228c.058-.47.086-.93.078-1.37v-.065a5.469 5.469 0 0 1 .455-2.24c.486-1.136 1.286-2.047 2.024-2.889.297-.338.582-.663.828-.984.12-.156.231-.31.33-.465l.047-.083c.086-.162.146-.352.186-.553.129-.635.065-1.363.045-1.55l-.005-.044-.439.055c.011.09.023.222.03.377.02.485-.006 1.194-.238 1.561-.282.444-.687.906-1.116 1.395-1.17 1.335-2.628 2.996-2.589 5.491.046 2.87-1.35 5.979-2.682 7.668.045.229.053.448.042.638.46-.516.925-1.19 1.348-1.962.084-.153.166-.31.246-.47"/>
        <path fill="#FEFEFE" d="M46.59 38.19c.235-.107.355-.25.415-.39L47 37.793c-.02-.036-.1-.137-.194-.153-.068-.01-.15.023-.241.1-.229.195-.62.458-.677.495a18.686 18.686 0 0 1-3.388 2.066l.494.915c.452-1.119 2.709-2.62 3.596-3.026"/>
        <path fill="#FEFEFE" d="M46.737 38.512c-.99.452-3.096 1.925-3.432 2.878a.584.584 0 0 0-.037.281c.08.09.194.186.322.21.113.022.228-.015.354-.113.158-.123.488-.393.907-.734 1.548-1.262 4.372-3.565 6.046-4.68l-2.513-2.846c-.678.429-1.727 1.39-2.13 1.767.516.671.962 1.376 1.121 1.845.1.294.102.515.008.675l-.01.018c-.07.257-.25.523-.636.7"/>
        <path fill="#1E1B36" d="M46.254 35.275c.403-.377 1.452-1.338 2.13-1.767l2.513 2.845c-1.674 1.116-4.498 3.419-6.046 4.68-.419.342-.749.612-.907.735-.126.098-.241.135-.354.113-.128-.024-.243-.12-.322-.21a.356.356 0 0 0 .032.109l-.317.158c-.096-.192-.1-.416-.012-.665l.023-.057-.494-.916c-.136.064-.27.125-.404.184l.688 1.274.004.006c.027.048.282.467.716.551a.776.776 0 0 0 .146.014.91.91 0 0 0 .566-.212c.162-.127.477-.384.915-.74 1.609-1.313 4.604-3.756 6.22-4.792l.217-.14-3.09-3.5-.156.085c-.7.387-1.878 1.461-2.344 1.898.094.114.186.23.276.347"/>
        <path fill="#1E1B36" d="M46.59 38.19c-.887.406-3.144 1.907-3.596 3.026l-.023.057c-.088.25-.084.473.012.665l.316-.158a.35.35 0 0 1-.031-.108.584.584 0 0 1 .037-.282c.336-.953 2.443-2.426 3.432-2.878.386-.176.566-.442.636-.7l-.184.312-.184-.324c-.06.14-.18.283-.415.39"/>
        <path fill="#FEFEFE" d="M37.435 37.936l.064.287.852-.188.363 1.633c.08.357-.13.71-.47.784l-.703.154-.155-.697.648-.142-.195-.874-.852.186-.222-.996.67-.147zm2.098-.233l.424 1.42-.658.193-.22-.735-.237.07-.204-.684.895-.264zm1.857-.698l.845 2.164-.638.25-.585-1.499-.266.105.585 1.498-.638.25-.844-2.163 1.541-.605zm-3.72 4.327c1.963-.301 4.938-1.145 7.955-3.452l.012-.009c.004-.003.42-.279.642-.467.246-.21.465-.223.605-.199l.057.013c-.38-1.04-1.975-2.917-2.613-3.322-1.097.928-1.75 1.371-2.034 1.564l-.016.011.004.012-.146.095c-1.619 1.051-4.298 2.226-7.941 1.934l.075 3.946c.45.047 1.705.134 3.4-.126z"/>
        <path fill="#1E1B36" d="M42.136 35.578l.146-.095-.004-.012.016-.01c.284-.194.937-.637 2.034-1.565.639.406 2.233 2.282 2.613 3.322a.736.736 0 0 0-.057-.013c-.14-.024-.36-.01-.606.199-.22.188-.637.464-.64.467l-.013.009c-3.017 2.307-5.992 3.15-7.956 3.452-1.694.26-2.948.173-3.4.125l-.074-3.945c3.643.292 6.322-.883 7.94-1.934m-3.62 1.125a12.101 12.101 0 0 1-2.512.393.903.903 0 0 1-.714.35h-1.113v4.364c.073.025.141.06.203.103.234.02.575.042 1.007.042.611 0 1.404-.042 2.33-.183A17.386 17.386 0 0 0 42.5 40.3a18.688 18.688 0 0 0 3.388-2.065c.056-.037.448-.3.677-.494.092-.078.173-.112.24-.1.096.015.174.116.195.151l.005.008.184.324.183-.311.01-.018c.095-.16.093-.381-.007-.675-.16-.47-.606-1.174-1.12-1.844-.091-.118-.183-.234-.277-.348-.595-.727-1.23-1.354-1.597-1.502l-.124-.05-.102.086c-1.148.98-1.821 1.437-2.11 1.632-.065.045-.123.084-.167.124a11.7 11.7 0 0 1-3.362 1.485"/>
        <path fill="#FEFEFE" d="M29.399 10.078V8.97a8.68 8.68 0 0 0-1.836-1.064l1.836 2.172zM28.78 11.394c.195.232.404.442.619.635v-1.266l-2.173-2.571c.197.816.632 2.112 1.554 3.202"/>
        <path fill="#1E1B36" d="M29.399 12.029a6.483 6.483 0 0 1-.62-.635c-.921-1.09-1.356-2.386-1.553-3.202l-.54-.638.17-.143.168-.142.54.637a8.68 8.68 0 0 1 1.835 1.064v-.552a8.745 8.745 0 0 0-2.485-1.22l-.31-.084.032.319c.009.097.252 2.408 1.806 4.247.3.355.626.664.957.933v-.584z"/>
        <path stroke-linecap="round" stroke-linejoin="round" d="M26.855 7.411"/>
        <path fill="#1E1B36" d="M27.024 7.269l-.169.143-.168.142.539.638 2.173 2.57v-.684l-1.836-2.172z"/>
        <path fill="#FEFEFE" d="M36.877 11.53l-2.456 6.364v.86c.676-.686 1.49-1.699 1.982-2.97.628-1.628.58-3.301.474-4.255M34.42 13.866v2.8l2.045-5.295c-.567.5-1.406 1.356-2.044 2.495"/>
        <path fill="#1E1B36" d="M34.42 13.866c.64-1.139 1.478-1.994 2.045-2.495l.296-.768.412.16-.296.766c.106.954.154 2.627-.474 4.254-.492 1.272-1.306 2.285-1.982 2.971v.625c.75-.7 1.791-1.875 2.394-3.437 1-2.59.393-5.2.367-5.31l-.075-.313-.265.181c-.07.05-1.366.947-2.421 2.518v.848z"/>
        <path fill="#1E1B36" d="M37.173 10.762l-.412-.159-.296.768-2.044 5.296v1.227l2.456-6.365z"/>
        <path fill="#FEFEFE" d="M31.652 21.985c-.564-.3-1.15-.69-1.689-1.195l-.122-.118v1.81c.176-.127.384-.248.622-.336.446-.167.888-.18 1.189-.161M31.69 1.434l-1.85 3.255v12.223a8.576 8.576 0 0 1 1.85 1.089V1.434zM33.978 4.689l-1.846-3.255v16.941l.05.046c.848.794 1.421 1.725 1.796 2.513V4.69z"/>
        <path fill="#1E1B36" d="M29.682 21.615a.12.12 0 0 1 .042.105 2.773 2.773 0 0 1-.325.966v.177c.106-.11.255-.248.442-.382v-1.81a7.486 7.486 0 0 1-.442-.473v1.45c.1-.038.165-.056.173-.058a.12.12 0 0 1 .11.025M29.84 16.912V4.69l1.85-3.255V.597h.442v.837l1.846 3.255v16.245c.111.233.205.453.283.653a.123.123 0 0 1 .043.003c.008.001.05.013.117.036V4.572L31.91.15l-2.512 4.423V16.733c.142.054.29.113.442.18"/>
        <path fill="#1E1B36" d="M32.132 1.434V.597h-.442v17.404c.15.117.297.242.442.374V1.435zM30.86 26.533l1.133-1.963 1.133 1.963h2.267l-1.133 1.964 1.133 1.963h-2.267l-1.133 1.964-1.133-1.964h-2.267l1.133-1.963-1.133-1.964h2.267zM27.506 24.6c.722-.237 1.428-.036 1.457-.028a.122.122 0 0 1 .063.19c-.019.025-.467.607-1.189.844a2.7 2.7 0 0 1-1.457.026c-.003 0-.006-.002-.009-.004a6.01 6.01 0 0 0-.342.744 2.42 2.42 0 0 1-.04.447c.107-.14.236-.282.393-.408.59-.477 1.323-.537 1.353-.54a.122.122 0 0 1 .126.156c-.009.03-.223.733-.816 1.21-.591.477-1.322.536-1.353.538h-.003c-.028.23-.043.463-.043.7 0 .064.003.127.005.191.039.102.07.203.093.302.04-.172.102-.353.194-.532.35-.675.995-1.024 1.022-1.039a.121.121 0 0 1 .177.092c.004.03.092.759-.258 1.434-.348.675-.994 1.026-1.021 1.04a.114.114 0 0 1-.021.008c.056.217.124.43.204.637.107.128.194.261.266.392a2.334 2.334 0 0 1 .048-.563c.163-.742.696-1.248.718-1.269a.121.121 0 0 1 .196.043c.011.028.284.709.123 1.451-.137.629-.54 1.088-.673 1.226.08.116.167.229.255.34l.007.008a2.12 2.12 0 0 1 .7.356 2.334 2.334 0 0 1-.191-.532c-.167-.741.106-1.424.118-1.453a.121.121 0 0 1 .195-.043c.023.021.556.525.72 1.267.165.74-.106 1.422-.117 1.45a.122.122 0 0 1-.086.074h-.002a.122.122 0 0 1-.074.066c.086.06.172.118.26.174a2.25 2.25 0 0 1 .362-.02c.202.007.391.043.562.092a2.362 2.362 0 0 1-.369-.431c-.414-.636-.402-1.368-.401-1.4a.122.122 0 0 1 .167-.109c.029.012.705.293 1.122.93.416.634.402 1.369.402 1.4a.122.122 0 0 1-.057.099.121.121 0 0 1-.055.095c-.007.004-.054.034-.132.074.16.048.324.089.49.124a2.38 2.38 0 0 1-.243-.643c-.159-.743.118-1.423.13-1.451a.121.121 0 0 1 .195-.042c.023.022.553.53.71 1.273.048.222.056.438.044.633a.596.596 0 0 1 1.025.121 2.41 2.41 0 0 1 .034-.754c.159-.743.687-1.251.71-1.273a.122.122 0 0 1 .195.042c.012.028.29.708.132 1.451a2.38 2.38 0 0 1-.251.658c.168-.035.334-.076.497-.123l-.013-.008a.122.122 0 0 1-.056-.096h-.001a.121.121 0 0 1-.056-.1c0-.03-.013-.764.402-1.399.417-.636 1.094-.919 1.123-.93a.122.122 0 0 1 .167.109c0 .03.014.766-.403 1.4-.11.168-.238.311-.367.431a2.323 2.323 0 0 1 .756-.087c.118-.072.234-.148.347-.227a.121.121 0 0 1-.08-.07c-.012-.03-.284-.71-.12-1.452.167-.743.7-1.246.724-1.267a.121.121 0 0 1 .195.043c.011.03.283.711.116 1.453a2.357 2.357 0 0 1-.193.534c.143-.106.308-.206.495-.284l.026-.01c.126-.147.245-.3.357-.46-.078-.075-.555-.564-.705-1.259-.162-.742.112-1.423.124-1.451a.121.121 0 0 1 .195-.043c.023.021.554.527.716 1.27.042.195.054.385.05.561.084-.155.191-.315.328-.463.01-.013.023-.024.034-.035.062-.172.117-.347.164-.526-.007.001-.013.003-.02.003a.122.122 0 0 1-.057-.015c-.028-.014-.673-.365-1.022-1.04-.35-.675-.262-1.404-.258-1.434a.121.121 0 0 1 .177-.092c.027.015.672.364 1.023 1.04.092.177.153.359.194.53.034-.144.084-.294.154-.444v-.048c0-.24-.015-.478-.043-.711a.12.12 0 0 1-.05.011h-.009c-.03-.002-.763-.061-1.356-.54-.59-.475-.805-1.178-.814-1.207a.12.12 0 0 1 .022-.111.12.12 0 0 1 .104-.045c.03.002.761.062 1.353.54.156.125.286.266.392.407a2.34 2.34 0 0 1-.035-.568v-.01c-.088-.22-.19-.433-.303-.64a.119.119 0 0 1-.052.031 2.707 2.707 0 0 1-1.456-.026c-.724-.237-1.172-.819-1.19-.844a.122.122 0 0 1 .063-.19c.029-.008.735-.21 1.457.028.19.063.361.15.51.243a2.366 2.366 0 0 1-.213-.459 6.288 6.288 0 0 0-.587-.553.12.12 0 0 1-.041.08c-.024.02-.586.49-1.345.565-.072.007-.144.01-.214.01-.66 0-1.188-.288-1.213-.301a.122.122 0 0 1-.02-.2c.024-.02.588-.49 1.344-.564.2-.02.392-.01.567.017a2.339 2.339 0 0 1-.423-.382c-.023-.026-.044-.054-.065-.08v.003l-.103-.016c.061.07.096.116.1.123a.122.122 0 0 1-.07.19 2.826 2.826 0 0 1-.585.056c-.28 0-.628-.036-.98-.168a2.974 2.974 0 0 1-1.095-.75c-.2.214-.58.558-1.095.75-.351.132-.701.168-.981.168-.334 0-.568-.052-.586-.056a.12.12 0 0 1-.07-.19c.006-.01.063-.084.162-.19-.05.022-.102.043-.151.067a2.333 2.333 0 0 1-.499.475c.174-.026.366-.037.565-.017.756.075 1.32.545 1.343.565a.121.121 0 0 1-.02.199 2.747 2.747 0 0 1-1.213.3c-.07 0-.141-.002-.214-.01-.756-.074-1.32-.543-1.343-.564a.118.118 0 0 1-.031-.041c-.227.192-.44.4-.637.622-.05.127-.11.245-.174.351.15-.094.32-.18.51-.243z"/>
        <path fill="#FEFEFE" d="M29.726 28.497l-1.133 1.963h2.267l1.133 1.964 1.133-1.964h2.267l-1.133-1.963 1.133-1.964h-2.267l-1.133-1.963-1.133 1.963h-2.267zM29.985 42.63a.646.646 0 0 1-.602-.415.465.465 0 0 0 .28.84h4.247a.47.47 0 0 0 0-.936h-3.292a.648.648 0 0 1-.633.511"/>
        <path fill="#1E1B36" d="M34.176 42.12h-.266a.469.469 0 0 1 0 .936h-4.246a.469.469 0 0 1-.468-.47c0-.151.074-.285.187-.37a.642.642 0 0 1-.044-.233c0-.03.005-.059.009-.088l-.148.015a.82.82 0 0 0 .464 1.499h4.246a.823.823 0 0 0 .47-1.496.826.826 0 0 0-.204-.102v.308z"/>
        <path fill="#FEFEFE" d="M29.75 41.385a.635.635 0 0 1 .2-.046l.283-.406h-.483v.452zM33.822 41.766v-.833H31.21l-.583.833z"/>
        <path fill="#1E1B36" d="M33.822 40.933v.833h-3.195l-.022.031a.643.643 0 0 1 .013.322h3.558v-1.186h-.354zM29.75 40.933h-.024l-.01.464c.011-.005.023-.008.034-.012v-.452z"/>
        <path fill="#FEFEFE" d="M32.675 37.447h-2.884l-.016.832h2.318zM33.822 38.278v-.831h-.172l-.582.831z"/>
        <path fill="#1E1B36" d="M33.822 38.279h.354v-.832h-.354z"/>
        <path fill="#FEFEFE" d="M29.75 40.58h.73l.559-.797H29.75zM33.822 40.58v-.797h-1.807l-.558.797z"/>
        <path fill="#1E1B36" d="M33.822 39.783v.797h-2.365l-.247.353h2.966v-1.15zM30.233 40.933l.248-.353h-.731v-.797h-.003l-.022 1.15h.025z"/>
        <path fill="#FEFEFE" d="M33.822 39.43v-.798H32.82l-.558.797zM31.845 38.632h-2.076l-.015.797h1.533z"/>
        <path fill="#1E1B36" d="M33.822 38.278h-.754l-.248.354h1.002v.797h-1.56l-.247.354h2.161v-1.505zM31.039 39.783l.248-.354h-1.533l-.007.354h.003zM32.093 38.278h-2.318l-.006.354h2.076z"/>
        <path fill="#FEFEFE" d="M29.643 41.983a.344.344 0 1 0 .654-.144l-.036-.08 3.019-4.312h-.234L30.1 41.65l-.088-.008-.017-.001h-.011a.34.34 0 0 0-.275.14l-.002.06-.037.007a.34.34 0 0 0-.028.135"/>
        <path fill="#1E1B36" d="M29.985 42.63a.648.648 0 0 0 .62-.833l.022-.031.583-.833.247-.353.558-.797.247-.354.558-.797.248-.354.582-.831h-.37l-3.02 4.313.037.079a.344.344 0 0 1-.312.488.343.343 0 0 1-.314-.479l-.145.023c-.011.002-.072.012-.178.024-.004.029-.009.058-.009.088a.646.646 0 0 0 .646.647"/>
        <path fill="#1E1B36" d="M29.985 41.641H30.013l.088.01 2.945-4.204h-.37l-.583.831-.248.354-.558.797-.248.354-.558.797-.248.353-.284.406a.635.635 0 0 0-.199.046c-.01.004-.023.007-.033.012l-.007.385a.34.34 0 0 1 .275-.14"/>
        <path fill="#FEFEFE" d="M16.952 38.19c.863.394 3.151 1.815 3.65 2.927l.441-.816a18.681 18.681 0 0 1-3.388-2.066 9.15 9.15 0 0 1-.677-.494c-.093-.078-.174-.112-.242-.1-.094.015-.173.116-.195.153l-.003.006c.059.14.18.283.414.39"/>
        <path fill="#FEFEFE" d="M12.647 36.353c1.665 1.11 4.479 3.404 6.02 4.661.432.351.772.628.933.754.125.098.24.135.352.114.173-.033.322-.198.392-.297a.553.553 0 0 0-.035-.248c-.339-.963-2.61-2.417-3.504-2.825-.385-.176-.565-.442-.635-.699l-.01-.018c-.095-.16-.092-.382.008-.676.16-.47.606-1.173 1.12-1.844-.403-.377-1.451-1.339-2.131-1.768l-2.51 2.846z"/>
        <path fill="#1E1B36" d="M21.043 40.3l-.441.817c.015.035.03.07.041.103.084.239.08.455-.015.642l-.316-.159a.352.352 0 0 0 .032-.118c-.07.098-.22.264-.392.297-.112.02-.227-.016-.352-.114-.161-.126-.501-.403-.932-.754-1.542-1.257-4.356-3.55-6.02-4.66l2.509-2.846c.68.428 1.728 1.39 2.132 1.768.09-.118.182-.234.276-.348-.467-.437-1.645-1.511-2.346-1.898l-.156-.085-3.086 3.5.216.14c1.606 1.031 4.592 3.465 6.196 4.772.45.366.774.631.939.76.212.165.41.212.565.212a.77.77 0 0 0 .145-.014c.433-.083.689-.503.717-.55l.692-1.28c-.134-.06-.268-.12-.404-.184"/>
        <path fill="#1E1B36" d="M16.805 38.512c.894.408 3.165 1.862 3.504 2.825a.557.557 0 0 1 .035.248.354.354 0 0 1-.032.118l.316.16c.094-.188.1-.404.015-.643a1.34 1.34 0 0 0-.041-.103c-.499-1.112-2.787-2.533-3.65-2.927-.235-.107-.355-.25-.414-.39l-.188.315-.18-.302c.07.257.25.523.635.7"/>
        <path fill="#FEFEFE" d="M26.395 39.45l-.374.236.166.906-.675-.159-.08-.722-.075.069-.137.584-.65-.152.282-1.19.375-.244-.184-.842.674.159.093.682.076-.072.127-.54.65.152-.268 1.132zm1.12.055l-.193 1.28-.678-.103.194-1.28.676.103zm-.524-1.122l1.637.25-.348 2.298-.676-.103.24-1.592-.96-.147.107-.706zm-3.597 1.465l.693-2.216.655.206-.693 2.217-.655-.207zm-1.104-.4l.813-2.171.643.24-.814 2.171-.642-.24zm-.745-1.236l.32-.7-.224-.101.296-.65.848.388-.616 1.347-.624-.284zm-1.5.16l.72-1.442-.68-.34.319-.64.818.409c.259.13.377.438.248.698l-.812 1.621-.613-.307zm1.362-2.794l-.145-.094.005-.012a1.166 1.166 0 0 1-.018-.012c-.284-.192-.936-.636-2.033-1.564-.638.405-2.234 2.281-2.614 3.322a.548.548 0 0 1 .16-.021c.134 0 .31.044.501.207.223.188.639.464.643.467l.012.009c3.024 2.312 6.005 3.155 7.975 3.455 1.688.257 2.932.17 3.38.123l.074-3.946c-3.642.292-6.321-.883-7.94-1.934z"/>
        <path fill="#1E1B36" d="M29.348 37.512l-.074 3.946c-.449.048-1.693.134-3.382-.123-1.968-.3-4.95-1.143-7.974-3.455l-.012-.009a9.086 9.086 0 0 1-.643-.468c-.192-.162-.367-.207-.502-.207a.597.597 0 0 0-.16.022c.38-1.04 1.976-2.917 2.615-3.322 1.097.928 1.75 1.371 2.033 1.564l.017.012-.004.012.146.094c1.618 1.051 4.297 2.226 7.94 1.934m.178 4.36l.145-.024.037-.006.002-.06.007-.385.009-.464.021-1.15.007-.354.015-.797.006-.354.016-.831h-1.506a.904.904 0 0 1-.712-.349 12.48 12.48 0 0 1-2.444-.368 11.867 11.867 0 0 1-3.464-1.512c-.044-.04-.101-.079-.167-.124-.288-.195-.96-.652-2.109-1.632l-.102-.087-.124.05c-.368.149-1.002.775-1.598 1.503-.094.114-.186.23-.276.347-.515.67-.962 1.375-1.121 1.844-.1.294-.103.516-.008.676l.01.018.18.302.188-.315.003-.006c.022-.037.1-.138.195-.154.068-.011.15.023.242.101.23.195.621.457.677.494a18.695 18.695 0 0 0 3.792 2.25 17.387 17.387 0 0 0 4.379 1.287c.927.141 1.72.183 2.33.183a11.308 11.308 0 0 0 1.192-.06c.105-.012.167-.022.178-.024"/>
        <path fill="#FEFEFE" d="M33.496 22.18l-5.284-4.949c.301.833.923 2.179 2.054 3.237.785.735 1.69 1.215 2.456 1.523.215.02.453.066.692.155.028.01.055.022.082.033M33.933 21.983c-.301-.834-.923-2.18-2.054-3.24-1.13-1.057-2.514-1.588-3.365-1.835l5.42 5.075z"/>
        <path fill="#1E1B36" d="M34.454 22.64l-.066.071-.03.034c.088.082.16.158.21.217l.104.016v-.004a2.327 2.327 0 0 1-.218-.334M29.84 20.672l.123.118a7.902 7.902 0 0 0 1.689 1.195c.122.008.221.02.287.032.14-.023.432-.058.783-.026-.766-.308-1.671-.788-2.456-1.523-1.13-1.058-1.753-2.404-2.054-3.237l-.607-.567.151-.162.152-.161.606.567c.851.247 2.235.779 3.366 1.835 1.13 1.06 1.751 2.406 2.053 3.24l.384.36a2.689 2.689 0 0 1-.164-.623.12.12 0 0 1 .108-.133c-.078-.2-.172-.42-.283-.653-.375-.788-.948-1.719-1.796-2.514l-.05-.045a7.262 7.262 0 0 0-.443-.374 8.567 8.567 0 0 0-1.848-1.089 9.263 9.263 0 0 0-.442-.179 8.612 8.612 0 0 0-1.61-.45l-.317-.047.069.313c.02.09.45 2.001 1.858 3.648.138.162.285.32.442.475"/>
        <path stroke-linecap="round" stroke-linejoin="round" d="M27.757 16.502"/>
        <path fill="#1E1B36" d="M33.496 22.18c.368.152.66.376.861.565l.031-.034.066-.07a2.665 2.665 0 0 1-.137-.299l-.384-.36-5.42-5.073-.605-.568-.152.161-.15.162.606.567 5.284 4.948z"/>
        <path fill="#FEFEFE" d="M32.262 34.575a.355.355 0 0 0-.71 0 .355.355 0 0 0 .71 0"/>
        <path fill="#1E1B36" d="M31.907 34.97a.362.362 0 0 1-.355-.37c0-.203.16-.369.355-.369.196 0 .355.166.355.37 0 .203-.159.369-.355.369m-.563-.17a.627.627 0 0 0 .091.178h.944a.631.631 0 0 0 .121-.328 3.03 3.03 0 0 1-.044-.295.599.599 0 0 0-.55-.377c-.194 0-.366.1-.475.25-.013.225-.05.424-.087.572"/>
        <path fill="#FEFEFE" d="M31.15 33.636c-.095-.448-.348-.81-.506-1-.066.239-.15.67-.054 1.118.094.45.347.81.505 1 .066-.238.15-.67.055-1.118"/>
        <path fill="#1E1B36" d="M30.59 33.754c-.096-.447-.012-.88.054-1.118.158.19.411.552.506 1 .096.447.011.88-.055 1.118-.158-.19-.41-.55-.505-1zm.703 1.183a2.905 2.905 0 0 0 .137-.719c.012-.195.005-.41-.043-.633-.157-.744-.687-1.251-.71-1.273a.121.121 0 0 0-.195.042c-.012.028-.288.708-.13 1.45.051.243.142.46.243.644.116.213.243.38.336.489h.362z"/>
        <path fill="#FEFEFE" d="M26.997 24.252c.133-.438.087-.876.04-1.12-.173.177-.457.515-.59.953-.132.438-.085.876-.04 1.119.174-.176.457-.514.59-.952"/>
        <path fill="#1E1B36" d="M26.408 25.204c-.046-.243-.093-.68.04-1.119.132-.438.416-.776.59-.952.046.243.092.68-.04 1.119-.134.438-.417.776-.59.952m-.122-1.384a2.168 2.168 0 0 0-.164.725 2.86 2.86 0 0 0 .1.926c.012.036.04.065.076.077a.12.12 0 0 1 .02-.107c.014-.018.26-.337.677-.599a2.392 2.392 0 0 0 .234-.52c.221-.726.004-1.426-.006-1.456a.12.12 0 0 0-.19-.058c-.013.01-.174.14-.357.364a2.603 2.603 0 0 0-.39.648"/>
        <path fill="#FEFEFE" d="M26.643 25.44c.245.04.684.077 1.119-.065.436-.144.767-.434.939-.611-.245-.04-.684-.078-1.12.065-.434.143-.765.433-.938.61"/>
        <path fill="#1E1B36" d="M28.7 24.764c-.171.177-.502.467-.939.61-.434.143-.873.106-1.118.065.173-.177.504-.467.939-.61.435-.143.874-.106 1.119-.065m-2.33.863l.01.004a2.699 2.699 0 0 0 1.456-.026c.722-.237 1.17-.819 1.189-.843a.121.121 0 0 0-.063-.19c-.03-.01-.735-.21-1.457.027-.19.062-.361.149-.51.243a2.782 2.782 0 0 0-.678.6.12.12 0 0 0-.019.11.121.121 0 0 0 .072.075"/>
        <path fill="#FEFEFE" d="M28.958 22.897c.299-.346.432-.766.488-1.007-.23.091-.625.286-.922.632-.3.349-.434.769-.49 1.01.23-.092.625-.287.924-.635"/>
        <path fill="#1E1B36" d="M29.446 21.89c-.056.24-.19.66-.488 1.007-.299.348-.694.543-.924.634.056-.24.19-.66.49-1.009.297-.346.692-.54.922-.632m-1.59 1.822c.02-.011.375-.204.863-.275a2.327 2.327 0 0 0 .499-.475c.069-.09.129-.183.18-.276.27-.477.323-.942.326-.966a.122.122 0 0 0-.152-.13 1.99 1.99 0 0 0-.173.058c-.247.092-.707.306-1.06.716-.496.576-.58 1.306-.583 1.337a.121.121 0 0 0 .04.102.121.121 0 0 1 .06-.091"/>
        <path fill="#FEFEFE" d="M29.26 23.661c-.455-.044-.876.088-1.105.18.207.136.593.347 1.049.392.457.045.877-.086 1.105-.179-.206-.136-.593-.348-1.049-.393"/>
        <path fill="#1E1B36" d="M29.204 24.233c-.456-.045-.842-.256-1.049-.392.23-.092.65-.224 1.105-.18.456.045.843.257 1.05.393-.23.093-.649.224-1.106.18m-.024.24c.073.008.144.011.214.011.66 0 1.189-.288 1.213-.302a.12.12 0 0 0 .02-.198c-.024-.02-.587-.49-1.343-.565-.2-.02-.39-.01-.565.017a2.769 2.769 0 0 0-.862.275.121.121 0 0 0-.062.09v.004a.122.122 0 0 0 .01.063.12.12 0 0 0 .032.041c.024.02.587.49 1.343.565"/>
        <path fill="#FEFEFE" d="M25.332 28.546c-.212-.408-.552-.687-.755-.828 0 .248.034.687.246 1.093.211.407.552.686.755.828 0-.248-.034-.688-.246-1.093"/>
        <path fill="#1E1B36" d="M25.578 29.639c-.203-.142-.544-.421-.755-.828-.212-.406-.247-.845-.246-1.093.203.14.543.42.755.828.212.405.247.845.246 1.093m-1.056-2.241a.121.121 0 0 0-.177.092c-.003.028-.07.606.16 1.206a2.233 2.233 0 0 0 .25.47c.36.515.854.78.878.793a.12.12 0 0 0 .109.002.12.12 0 0 1-.062-.09 2.779 2.779 0 0 1 .064-.904 2.405 2.405 0 0 0-.197-.533c-.35-.674-.997-1.022-1.025-1.036"/>
        <path fill="#FEFEFE" d="M25.911 29.641c.203-.142.542-.423.752-.83.211-.407.245-.847.243-1.094-.202.142-.542.423-.753.83-.21.409-.244.848-.242 1.094"/>
        <path fill="#1E1B36" d="M26.906 27.717c.002.247-.032.687-.243 1.093-.21.408-.55.69-.752.831-.002-.246.032-.685.242-1.094.21-.407.55-.688.753-.83M25.68 29.87a.121.121 0 0 0 .062.09l.003.002a.12.12 0 0 0 .056.014.12.12 0 0 0 .036-.007c.007-.002.014-.004.02-.008.028-.014.674-.365 1.022-1.04.35-.675.262-1.404.258-1.434a.122.122 0 0 0-.177-.092c-.027.015-.673.364-1.022 1.04-.092.178-.153.359-.194.53-.114.48-.067.882-.064.905"/>
        <path fill="#FEFEFE" d="M25.426 25.205c-.1.226-.246.642-.216 1.099.03.457.228.85.356 1.062.1-.227.247-.643.217-1.1-.03-.456-.228-.85-.357-1.061"/>
        <path fill="#1E1B36" d="M25.566 27.366c-.128-.212-.327-.605-.356-1.062-.03-.457.116-.873.216-1.1.129.212.327.606.357 1.062.03.457-.117.873-.217 1.1m-.06-2.477a.121.121 0 0 0-.2.013 2.898 2.898 0 0 0-.275.715c-.048.208-.08.448-.064.703.017.253.079.486.154.686a2.876 2.876 0 0 0 .366.675c.023.03.058.046.095.046h.006a.12.12 0 0 1-.021-.109c.006-.022.124-.408.422-.8a2.401 2.401 0 0 0 .036-.568c-.05-.758-.5-1.337-.519-1.361"/>
        <path fill="#FEFEFE" d="M26.893 27.046c.359-.288.566-.676.664-.903-.242.048-.667.169-1.023.456-.358.288-.566.677-.664.903.243-.048.667-.168 1.023-.456"/>
        <path fill="#1E1B36" d="M25.87 27.502c.098-.226.306-.615.664-.903.356-.287.78-.408 1.023-.456-.098.227-.305.615-.664.903-.356.288-.78.408-1.023.456m-.303.116a.121.121 0 0 0 .022.11.121.121 0 0 0 .094.046H25.692c.031-.003.762-.061 1.353-.539.593-.476.807-1.179.816-1.209a.12.12 0 0 0-.022-.11.12.12 0 0 0-.104-.045c-.03.002-.763.062-1.353.54a2.318 2.318 0 0 0-.393.407 2.762 2.762 0 0 0-.422.8"/>
        <path fill="#FEFEFE" d="M27.095 32.531c-.425-.176-.864-.171-1.11-.15.158.19.467.506.89.682.424.176.863.172 1.11.15-.158-.19-.467-.506-.89-.682"/>
        <path fill="#1E1B36" d="M26.874 33.063c-.422-.176-.731-.491-.889-.681.246-.022.685-.027 1.11.15.423.175.732.491.89.681-.247.022-.686.026-1.11-.15m-1.138-.892a.12.12 0 0 0-.076.184c.017.026.419.64 1.12.932a2.575 2.575 0 0 0 .964.18c.278 0 .471-.04.487-.043.004 0 .008-.003.012-.004a.12.12 0 0 0 .074-.067.122.122 0 0 1-.107-.03 2.777 2.777 0 0 1-.53-.732 2.32 2.32 0 0 0-.493-.284 2.183 2.183 0 0 0-.207-.072l-.006-.002a2.763 2.763 0 0 0-1.238-.062"/>
        <path fill="#FEFEFE" d="M28.286 31.882c-.099-.448-.355-.807-.514-.995-.065.238-.146.672-.045 1.119.099.447.355.805.514.994.064-.239.144-.671.045-1.118"/>
        <path fill="#1E1B36" d="M27.772 30.886c.16.19.415.548.514.996.1.446.019.879-.045 1.118-.16-.19-.415-.548-.514-.994-.1-.447-.02-.88.045-1.12m.438 2.438a.122.122 0 0 0 .108.03h.002a.121.121 0 0 0 .086-.074c.011-.028.282-.71.117-1.45-.164-.742-.697-1.246-.72-1.267a.121.121 0 0 0-.195.043c-.012.028-.285.712-.118 1.453.043.196.113.374.191.532.22.44.513.718.53.733"/>
        <path fill="#FEFEFE" d="M25.8 30.699c-.31-.336-.711-.518-.944-.601.064.238.211.654.522.99.31.338.712.52.944.604-.064-.24-.213-.656-.522-.993"/>
        <path fill="#1E1B36" d="M25.378 31.088c-.311-.336-.458-.751-.522-.99.232.083.634.265.944.6.31.338.458.754.522.994-.232-.084-.633-.266-.944-.604m-.658-1.286a.121.121 0 0 0-.147.135c.004.03.11.757.627 1.315a2.481 2.481 0 0 0 .653.496c.321.171.588.235.606.24a.12.12 0 0 0 .106-.027.122.122 0 0 1-.085-.073 2.805 2.805 0 0 1-.173-.889 2.4 2.4 0 0 0-.266-.392c-.02-.024-.04-.049-.063-.073-.514-.557-1.228-.725-1.258-.732"/>
        <path fill="#FEFEFE" d="M27.155 30.61c.097-.447.015-.88-.05-1.119-.159.19-.415.55-.513.997-.096.448-.014.88.052 1.119.158-.19.413-.55.51-.997"/>
        <path fill="#1E1B36" d="M26.592 30.488c.098-.447.354-.807.513-.997.065.239.147.672.05 1.119-.098.446-.353.807-.511.997-.066-.239-.148-.671-.052-1.119m-.112 1.4a.122.122 0 0 0 .196.043l.043-.044c.133-.138.536-.597.673-1.226.16-.742-.112-1.423-.123-1.451a.121.121 0 0 0-.195-.043c-.023.021-.555.527-.719 1.27a2.322 2.322 0 0 0-.048.562c.015.492.165.868.173.89"/>
        <path fill="#FEFEFE" d="M28.859 33.817c-.46-.015-.87.144-1.092.251.215.122.615.308 1.073.324.458.014.869-.144 1.09-.252-.214-.122-.615-.307-1.071-.323"/>
        <path fill="#1E1B36" d="M28.84 34.392c-.458-.016-.858-.202-1.073-.324.222-.107.632-.266 1.092-.25.456.015.857.2 1.072.322-.222.107-.633.266-1.091.252m-1.378-.433a.12.12 0 0 0-.007.199c.006.005.052.038.128.084.217.132.687.373 1.249.392l.066.001a2.706 2.706 0 0 0 1.339-.385.12.12 0 0 0 .055-.095.122.122 0 0 1-.11.01 2.795 2.795 0 0 1-.754-.499 2.324 2.324 0 0 0-.561-.091 2.255 2.255 0 0 0-.363.019 2.828 2.828 0 0 0-1.042.365"/>
        <path fill="#FEFEFE" d="M30.096 33.851c-.024-.246-.101-.68-.352-1.063-.251-.383-.617-.628-.833-.748.024.246.102.68.351 1.062.253.384.618.63.834.75"/>
        <path fill="#1E1B36" d="M29.744 32.788c.25.383.328.817.352 1.063-.216-.12-.58-.365-.834-.749-.25-.383-.327-.816-.351-1.062.216.12.582.365.833.748m.437 1.377c.015.006.03.01.046.01a.12.12 0 0 0 .065-.02h.002a.121.121 0 0 0 .055-.1c0-.03.014-.765-.402-1.4-.416-.636-1.093-.917-1.122-.929a.121.121 0 0 0-.167.11c0 .03-.013.763.401 1.399.11.168.24.31.37.431.36.335.732.49.752.499"/>
        <path fill="#FEFEFE" d="M30.548 22.373c-.474.177-.828.502-1.01.697.265.028.748.043 1.22-.134.475-.177.829-.502 1.01-.697-.265-.028-.747-.043-1.22.134"/>
        <path fill="#1E1B36" d="M31.768 22.24c-.181.194-.535.52-1.01.696-.472.177-.955.162-1.22.134.182-.195.536-.52 1.01-.697.473-.177.955-.162 1.22-.134m.01-.015a.121.121 0 0 1 .07-.19c.007-.002.038-.009.09-.017a3 3 0 0 0-.286-.032c-.3-.02-.743-.006-1.189.16-.238.09-.446.21-.622.336a3.244 3.244 0 0 0-.634.604.121.121 0 0 0 .07.19c.018.004.252.056.586.056.28 0 .63-.037.98-.167a2.97 2.97 0 0 0 1.096-.752 2.362 2.362 0 0 1-.16-.188"/>
        <path fill="#FEFEFE" d="M33.29 33.754c.095-.447.01-.88-.057-1.118-.157.19-.41.552-.506 1-.096.448-.011.88.055 1.118.159-.19.412-.551.508-1"/>
        <path fill="#1E1B36" d="M32.727 33.636c.096-.448.349-.81.506-1 .067.238.152.67.057 1.118-.096.449-.35.81-.508 1-.066-.238-.15-.67-.055-1.118m-.227.986c.028.134.06.242.084.315h.363c.091-.107.215-.269.328-.474a2.38 2.38 0 0 0 .252-.658c.159-.743-.12-1.423-.132-1.451a.121.121 0 0 0-.196-.042c-.022.022-.55.53-.71 1.273-.057.27-.056.53-.033.754.01.103.027.198.044.283"/>
        <path fill="#FEFEFE" d="M37.43 24.086c-.134-.44-.416-.777-.59-.953-.045.243-.092.68.04 1.119.134.44.417.777.59.952.046-.242.093-.68-.04-1.118"/>
        <path fill="#1E1B36" d="M36.88 24.252c-.132-.438-.085-.876-.04-1.12.174.177.456.514.59.954.133.438.086.876.04 1.118-.173-.175-.456-.512-.59-.952m.003.59c.416.262.664.581.677.6.024.03.03.07.02.106a.122.122 0 0 0 .076-.077 2.66 2.66 0 0 0 .1-.607 2.578 2.578 0 0 0-.094-.849 2.416 2.416 0 0 0-.339-.682 2.844 2.844 0 0 0-.477-.525.12.12 0 0 0-.11-.021.12.12 0 0 0-.081.08c-.01.029-.227.729-.006 1.455l.02.061c.057.17.132.323.214.46"/>
        <path fill="#FEFEFE" d="M37.235 25.44c-.173-.178-.505-.468-.939-.61-.435-.144-.874-.107-1.12-.066.173.177.505.468.941.61.435.143.874.106 1.118.066"/>
        <path fill="#1E1B36" d="M36.117 25.375c-.436-.143-.768-.434-.94-.611.245-.04.684-.078 1.12.065.433.143.765.433.938.61-.244.041-.683.078-1.118-.064m1.463.173a.12.12 0 0 0-.02-.107 2.777 2.777 0 0 0-.677-.599 2.338 2.338 0 0 0-.511-.243c-.722-.237-1.428-.036-1.458-.028a.122.122 0 0 0-.063.19c.02.025.467.607 1.19.845a2.708 2.708 0 0 0 1.456.026.122.122 0 0 0 .081-.078l.002-.006"/>
        <path fill="#FEFEFE" d="M34.431 21.89c.056.24.19.66.49 1.007.298.348.693.543.923.634-.056-.241-.19-.661-.488-1.009-.3-.346-.695-.54-.925-.632"/>
        <path fill="#1E1B36" d="M34.92 22.897c-.298-.346-.433-.766-.489-1.007.23.091.626.286.925.632.298.348.432.768.488 1.01-.23-.092-.625-.287-.923-.635m-.66-1.31a.12.12 0 0 0-.108.133 2.699 2.699 0 0 0 .301.92c.06.112.132.225.218.334a2.33 2.33 0 0 0 .489.462c.486.073.84.265.86.276a.122.122 0 0 1 .061.09.122.122 0 0 0 .04-.101c-.004-.03-.086-.76-.583-1.337-.384-.444-.893-.66-1.118-.738a1.818 1.818 0 0 0-.116-.036.119.119 0 0 0-.044-.003"/>
        <path fill="#FEFEFE" d="M34.617 23.661c-.457.046-.844.257-1.05.393.23.092.65.224 1.105.18.459-.046.845-.257 1.05-.392-.229-.093-.65-.225-1.105-.18"/>
        <path fill="#1E1B36" d="M33.567 24.054c.206-.136.593-.347 1.05-.393.456-.044.876.088 1.106.18-.206.136-.592.347-1.05.392-.456.045-.876-.087-1.106-.18m2.454-.341a2.776 2.776 0 0 0-.86-.275 2.318 2.318 0 0 0-.568-.017c-.756.075-1.32.545-1.344.565a.122.122 0 0 0 .02.199c.025.013.554.301 1.213.301.07 0 .142-.003.214-.01.759-.075 1.321-.545 1.345-.564a.121.121 0 0 0 .042-.105v-.003a.122.122 0 0 0-.062-.091"/>
        <path fill="#FEFEFE" d="M38.3 29.639c.202-.141.544-.421.755-.828.212-.407.247-.846.247-1.093-.203.142-.544.422-.756.828-.212.407-.247.846-.247 1.093"/>
        <path fill="#1E1B36" d="M39.302 27.718c0 .248-.034.686-.247 1.093-.211.407-.553.687-.756.828 0-.247.035-.686.247-1.093.212-.406.553-.686.756-.828m-1.104 2.153a.122.122 0 0 1-.062.09.12.12 0 0 0 .109-.002c.024-.013.537-.288.897-.822a2.154 2.154 0 0 0 .243-.474 2.771 2.771 0 0 0 .149-1.173.122.122 0 0 0-.178-.092c-.027.014-.674.362-1.025 1.036a2.356 2.356 0 0 0-.197.533c.114.48.067.88.064.904"/>
        <path fill="#FEFEFE" d="M37.967 29.642c.001-.248-.032-.688-.242-1.095-.212-.408-.55-.689-.753-.83-.001.247.032.686.243 1.093.21.409.55.69.752.832"/>
        <path fill="#1E1B36" d="M36.972 27.717c.202.141.541.422.753.83.21.407.243.847.242 1.095-.202-.142-.541-.423-.752-.832-.211-.407-.244-.846-.243-1.093m1.164 2.244a.122.122 0 0 0 .062-.09c.003-.023.05-.425-.063-.905a2.369 2.369 0 0 0-.194-.531c-.35-.675-.996-1.025-1.023-1.039a.121.121 0 0 0-.177.092c-.004.03-.092.758.258 1.434.35.675.994 1.026 1.022 1.04.017.01.037.015.057.015l.02-.003a.12.12 0 0 0 .036-.01l.002-.003"/>
        <path fill="#FEFEFE" d="M38.31 27.366c.13-.211.328-.605.358-1.062.03-.459-.115-.874-.215-1.1-.129.211-.328.605-.358 1.062-.03.458.116.874.216 1.1"/>
        <path fill="#1E1B36" d="M38.095 26.266c.03-.457.229-.85.358-1.062.1.226.245.641.215 1.1-.03.457-.228.85-.357 1.062-.1-.226-.246-.642-.216-1.1m.217 1.352a.12.12 0 0 1-.02.11h.003a.122.122 0 0 0 .096-.047c.007-.009.074-.095.158-.239.089-.152.196-.368.27-.626a2.3 2.3 0 0 0 .091-.496 2.466 2.466 0 0 0-.1-.846 2.871 2.871 0 0 0-.238-.572.12.12 0 0 0-.199-.013c-.02.024-.466.599-.52 1.352v.01c-.013.2.004.392.035.567.299.392.418.778.424.8"/>
        <path fill="#FEFEFE" d="M37.344 26.6c-.358-.29-.78-.41-1.023-.457.099.227.307.616.662.903.359.29.783.409 1.025.456-.099-.227-.307-.616-.664-.903"/>
        <path fill="#1E1B36" d="M36.984 27.046c-.356-.287-.564-.676-.663-.903.242.048.665.168 1.023.456.357.287.565.676.664.903-.242-.047-.666-.167-1.024-.456m1.308.681a.122.122 0 0 0 .02-.11 2.786 2.786 0 0 0-.423-.8 2.33 2.33 0 0 0-.393-.407c-.592-.477-1.322-.537-1.353-.539a.12.12 0 0 0-.125.155c.008.03.223.733.813 1.209.593.478 1.325.537 1.356.539h.009a.121.121 0 0 0 .05-.011.122.122 0 0 0 .045-.034v-.002"/>
        <path fill="#FEFEFE" d="M36.012 33.294c.246.022.687.026 1.11-.151.424-.176.731-.49.89-.68-.247-.021-.688-.025-1.11.151-.425.176-.732.49-.89.68"/>
        <path fill="#1E1B36" d="M38.012 32.464c-.159.19-.466.503-.89.679-.423.177-.864.173-1.11.15.158-.19.466-.503.89-.679.422-.176.863-.172 1.11-.15m-2.226.941a.122.122 0 0 1-.106.03.12.12 0 0 0 .085.07c.011.002.116.023.278.035a2.963 2.963 0 0 0 .444-.002c.224-.018.477-.066.728-.171.7-.29 1.104-.904 1.121-.93a.122.122 0 0 0-.076-.185c-.03-.006-.732-.15-1.425.128l-.026.01a2.311 2.311 0 0 0-.495.285c-.22.438-.511.715-.528.73"/>
        <path fill="#FEFEFE" d="M36.27 32.087c.101-.448.02-.88-.044-1.119-.16.189-.416.548-.517.995-.099.449-.019.88.046 1.119.16-.19.415-.548.516-.995"/>
        <path fill="#1E1B36" d="M35.71 31.963c.1-.447.357-.806.516-.995.065.238.145.67.044 1.12-.1.446-.356.804-.515.994-.065-.239-.145-.67-.046-1.119m-.029 1.472a.121.121 0 0 0 .106-.03c.017-.015.308-.291.528-.73.079-.159.149-.338.193-.535.166-.742-.105-1.424-.116-1.452a.121.121 0 0 0-.195-.044c-.023.021-.557.524-.723 1.267-.165.742.106 1.423.118 1.451a.12.12 0 0 0 .08.07l.006.003h.003"/>
        <path fill="#FEFEFE" d="M37.556 31.692c.233-.084.635-.267.944-.604.312-.337.46-.752.523-.99-.233.083-.634.265-.945.601-.311.338-.459.754-.522.993"/>
        <path fill="#1E1B36" d="M38.5 31.088c-.309.337-.711.52-.944.603.063-.238.21-.654.522-.992.31-.336.712-.518.945-.602-.064.239-.21.654-.523.991m-1.102.8a.121.121 0 0 1-.084.072.121.121 0 0 0 .106.027 2.719 2.719 0 0 0 1.237-.712l.022-.022c.516-.559.622-1.286.627-1.316a.122.122 0 0 0-.148-.135c-.03.007-.712.169-1.224.698l-.035.035a2.327 2.327 0 0 0-.328.463 2.782 2.782 0 0 1-.173.89"/>
        <path fill="#FEFEFE" d="M37.285 30.488c-.098-.447-.352-.807-.51-.997-.066.239-.148.671-.05 1.119.096.446.35.806.51.997.065-.24.147-.673.05-1.12"/>
        <path fill="#1E1B36" d="M36.724 30.61c-.097-.447-.015-.88.05-1.119.159.19.413.55.51.997.098.446.016.88-.05 1.119-.158-.19-.413-.55-.51-.997m.561 1.354c.009 0 .018-.001.026-.003l.003-.001a.12.12 0 0 0 .084-.072c.008-.02.159-.397.173-.89a2.311 2.311 0 0 0-.05-.562c-.16-.742-.692-1.248-.715-1.269a.121.121 0 0 0-.195.043c-.012.028-.286.709-.124 1.451.15.695.627 1.184.705 1.26l.01.01a.122.122 0 0 0 .083.033"/>
        <path fill="#FEFEFE" d="M35.157 34.471c.46-.013.859-.199 1.073-.32-.223-.108-.633-.268-1.091-.252-.46.015-.859.2-1.074.322.223.107.636.266 1.092.25"/>
        <path fill="#1E1B36" d="M35.139 33.899c.458-.016.868.144 1.091.251-.214.122-.613.308-1.073.321-.456.016-.869-.143-1.091-.25.214-.122.613-.308 1.073-.322m.026.815c.3-.01.573-.082.796-.168.201-.078.361-.166.462-.228.071-.043.113-.074.12-.078a.122.122 0 0 0 .05-.102.122.122 0 0 0-.057-.098c-.01-.006-.098-.062-.243-.13a2.869 2.869 0 0 0-.271-.11 2.581 2.581 0 0 0-.891-.144 2.322 2.322 0 0 0-.562.091c-.361.335-.733.49-.754.499a.119.119 0 0 1-.11-.01.12.12 0 0 0 .055.096c.002 0 .006.004.013.008a2.712 2.712 0 0 0 1.392.374"/>
        <path fill="#FEFEFE" d="M33.9 33.932c.216-.12.582-.365.833-.748.252-.384.33-.818.353-1.064-.216.121-.583.366-.833.75-.252.384-.33.817-.353 1.062"/>
        <path fill="#1E1B36" d="M35.086 32.12c-.023.246-.101.68-.353 1.064-.25.383-.617.628-.833.748.024-.245.101-.678.353-1.062.25-.383.617-.629.833-.75m-1.271 2.126c.02-.009.393-.164.754-.499.13-.12.257-.263.367-.43.417-.635.404-1.37.403-1.401a.122.122 0 0 0-.167-.11c-.029.012-.706.295-1.122.931-.416.635-.403 1.369-.403 1.4.001.04.022.076.055.098l.002.001a.122.122 0 0 0 .11.01"/>
        <path fill="#FEFEFE" d="M34.338 23.07c-.181-.195-.535-.52-1.008-.697-.474-.177-.955-.162-1.22-.134.182.195.538.521 1.01.697.474.177.954.162 1.218.134"/>
        <path fill="#1E1B36" d="M33.12 22.936c-.473-.176-.828-.502-1.01-.697.265-.028.746-.043 1.22.134.473.176.827.502 1.008.697a2.74 2.74 0 0 1-1.218-.134m1.237-.192a2.92 2.92 0 0 0-.86-.565c-.028-.011-.055-.023-.083-.033a2.685 2.685 0 0 0-.692-.155 3.16 3.16 0 0 0-.783.026c-.053.008-.084.015-.09.017a.121.121 0 0 0-.07.19 2.974 2.974 0 0 0 1.256.94c.35.13.7.167.979.167.334 0 .567-.052.585-.056a.12.12 0 0 0 .087-.076.122.122 0 0 0-.016-.114 3.199 3.199 0 0 0-.313-.34M21.47 37.057a.523.523 0 0 0-.248-.698l-.818-.408-.32.64.682.34-.72 1.44.612.307.812-1.621zM21.937 36.762l-.296.649.224.102-.32.699.624.284.616-1.347zM23.103 37.277l-.813 2.17.643.242.813-2.172zM24.087 37.632l-.693 2.216.655.207.694-2.217zM25.886 38.705l-.076.072-.093-.682-.674-.16.184.843-.375.244-.281 1.19.649.152.137-.584.075-.069.08.722.675.16-.166-.907.374-.237.268-1.132-.65-.153zM27.604 40.828l.677.102.347-2.298-1.637-.25-.106.707.959.147z"/>
        <path fill="#1E1B36" d="M27.322 40.785l.193-1.28-.677-.103-.194 1.28zM37.839 38.893l.195.874-.648.142.156.697.703-.154c.338-.074.55-.427.469-.784l-.363-1.633-.852.188-.064-.287-.67.147.222.997.852-.187zM39.08 38.58l.22.736.657-.194-.424-1.419-.895.264.204.683zM41.331 39.523l-.585-1.498.266-.105.585 1.499.638-.25-.845-2.164-1.541.605.844 2.163z"/>
        <path fill="#FEFEFE" d="M35.289 35.29h-7.004a.552.552 0 0 0-.551.551v.055h8.106v-.055a.552.552 0 0 0-.551-.55"/>
        <path fill="#1E1B36" d="M27.38 35.841v.055h.354v-.055c0-.304.247-.55.551-.55h7.004c.304 0 .551.246.551.55v.055h.354v-.055c0-.26-.11-.493-.286-.658a.902.902 0 0 0-.62-.247H28.286a.902.902 0 0 0-.624.252.9.9 0 0 0-.281.653"/>
        <path fill="#FEFEFE" d="M35.289 37.093a.552.552 0 0 0 .551-.552v-.291h-8.106v.291c0 .305.247.552.551.552h7.004z"/>
        <path fill="#1E1B36" d="M29.396 37.093h-1.11a.552.552 0 0 1-.552-.552v-.291h8.106v.291a.552.552 0 0 1-.551.552H29.396zm6.798-.606V35.896H27.38v.645a.904.904 0 0 0 .906.905h7.003c.29 0 .548-.137.714-.35a.9.9 0 0 0 .191-.555v-.054z"/>
    </g>
</svg>
