<svg xmlns="http://www.w3.org/2000/svg" width="183" height="183" viewBox="0 0 183 183">
    <defs>
        <filter id="Ellipse_71" width="183" height="183" x="0" y="0" filterUnits="userSpaceOnUse">
            <feOffset dy="3"/>
            <feGaussianBlur result="blur" stdDeviation="3"/>
            <feFlood flood-opacity=".161"/>
            <feComposite in2="blur" operator="in"/>
            <feComposite in="SourceGraphic"/>
        </filter>
        <filter id="Ellipse_70" width="162" height="162" x="11" y="10" filterUnits="userSpaceOnUse">
            <feOffset dy="3"/>
            <feGaussianBlur result="blur-2" stdDeviation="3"/>
            <feFlood flood-opacity=".161"/>
            <feComposite in2="blur-2" operator="in"/>
            <feComposite in="SourceGraphic"/>
        </filter>
        <filter id="Path_39" width="67.568" height="39.244" x="57.99" y="48.089" filterUnits="userSpaceOnUse">
            <feOffset dy="3"/>
            <feGaussianBlur result="blur-3" stdDeviation="3"/>
            <feFlood flood-opacity=".161"/>
            <feComposite in2="blur-3" operator="in"/>
            <feComposite in="SourceGraphic"/>
        </filter>
        <filter id="Path_40" width="67.568" height="58.718" x="57.99" y="56.941" filterUnits="userSpaceOnUse">
            <feOffset dy="3"/>
            <feGaussianBlur result="blur-4" stdDeviation="3"/>
            <feFlood flood-opacity=".161"/>
            <feComposite in2="blur-4" operator="in"/>
            <feComposite in="SourceGraphic"/>
        </filter>
        <filter id="Path_41" width="21.541" height="49.866" x="81.004" y="65.792" filterUnits="userSpaceOnUse">
            <feOffset dy="3"/>
            <feGaussianBlur result="blur-5" stdDeviation="3"/>
            <feFlood flood-opacity=".161"/>
            <feComposite in2="blur-5" operator="in"/>
            <feComposite in="SourceGraphic"/>
        </filter>
        <filter id="Path_42" width="29.695" height="33.59" x="74.978" y="100.32" filterUnits="userSpaceOnUse">
            <feOffset dy="3"/>
            <feGaussianBlur result="blur-6" stdDeviation="3"/>
            <feFlood flood-opacity=".161"/>
            <feComposite in2="blur-6" operator="in"/>
            <feComposite in="SourceGraphic"/>
        </filter>
        <filter id="Path_43" width="66.723" height="40.911" x="36" y="87.154" filterUnits="userSpaceOnUse">
            <feOffset dy="3"/>
            <feGaussianBlur result="blur-7" stdDeviation="3"/>
            <feFlood flood-opacity=".161"/>
            <feComposite in2="blur-7" operator="in"/>
            <feComposite in="SourceGraphic"/>
        </filter>
        <filter id="Path_44" width="53.12" height="40.333" x="94.43" y="87.147" filterUnits="userSpaceOnUse">
            <feOffset dy="3"/>
            <feGaussianBlur result="blur-8" stdDeviation="3"/>
            <feFlood flood-opacity=".161"/>
            <feComposite in2="blur-8" operator="in"/>
            <feComposite in="SourceGraphic"/>
        </filter>
        <style>
            .cls-4{fill:#3ab4f2}
        </style>
    </defs>
    <g id="ar_btn" transform="translate(-96 -341)">
        <g filter="url(#Ellipse_71)" transform="translate(96 341)">
            <circle id="Ellipse_71-2" cx="82.5" cy="82.5" r="82.5" fill="#fff" opacity="0.591" transform="translate(9 6)"/>
        </g>
        <g id="Group_520" filter="url(#Ellipse_70)" transform="translate(96.003 341.002)">
            <circle id="Ellipse_70-2" cx="72" cy="72" r="72" fill="#fff" transform="translate(20 16)"/>
        </g>
        <g id="Group_30" opacity="0.881">
            <g filter="url(#Path_39)" transform="translate(141 395.089) translate(-45 -54.09)">
                <path id="Path_39-2" d="M2908.7-2119.654a1.8 1.8 0 0 1-.637-.117l-23.015-8.851a1.769 1.769 0 0 1-1.133-1.654 1.766 1.766 0 0 1 1.133-1.653l23.015-8.852a1.78 1.78 0 0 1 1.271 0l23.015 8.852a1.766 1.766 0 0 1 1.136 1.653 1.771 1.771 0 0 1-1.133 1.654l-23.014 8.851a1.808 1.808 0 0 1-.638.117zm-18.082-10.622l18.082 6.955 18.082-6.955-18.082-6.954z" class="cls-4" transform="translate(-2816.92 2194.99)"/>
            </g>
            <g filter="url(#Path_40)" transform="translate(141 395.089) translate(-45 -54.09)">
                <path id="Path_40-2" d="M2908.7-2082.662a1.778 1.778 0 0 1-.637-.118l-23.015-8.851a1.767 1.767 0 0 1-1.133-1.653v-28.326a1.77 1.77 0 0 1 1.77-1.77 1.77 1.77 0 0 1 1.771 1.77v27.112l21.244 8.171 21.244-8.171v-27.112a1.771 1.771 0 0 1 1.771-1.77 1.77 1.77 0 0 1 1.77 1.77v28.326a1.768 1.768 0 0 1-1.133 1.653l-23.014 8.851a1.787 1.787 0 0 1-.638.118z" class="cls-4" transform="translate(-2816.92 2186.32)"/>
            </g>
            <g filter="url(#Path_41)" transform="translate(141 395.089) translate(-45 -54.09)">
                <path id="Path_41-2" d="M2931.231-2074a1.772 1.772 0 0 1-1.771-1.77v-28.325a1.773 1.773 0 0 1 1.771-1.771 1.771 1.771 0 0 1 1.77 1.771v28.325a1.771 1.771 0 0 1-1.77 1.77z" class="cls-4" transform="translate(-2839.46 2177.65)"/>
            </g>
            <g filter="url(#Path_42)" transform="translate(141 395.089) translate(-45 -54.09)">
                <path id="Path_42-2" d="M2919.484-2021.941a1.941 1.941 0 0 1-1.559-.779 1.946 1.946 0 0 1 .389-2.728l5.715-4.288-5.715-4.288a1.947 1.947 0 0 1-.389-2.728 1.951 1.951 0 0 1 2.729-.39l7.8 5.847a1.951 1.951 0 0 1 .779 1.559 1.952 1.952 0 0 1-.779 1.559l-7.8 5.847a1.957 1.957 0 0 1-1.17.389z" class="cls-4" transform="translate(-2833.56 2143.85)"/>
            </g>
            <g filter="url(#Path_43)" transform="translate(141 395.089) translate(-45 -54.09)">
                <path id="Path_43-2" d="M2887.17-2040.678a155.923 155.923 0 0 1-16.581-.831c-7.072-.712-30.193-3.745-30.193-12.812 0-3.7 3.814-6.791 11.334-9.184a2 2 0 0 1 2.561 1.86 1.934 1.934 0 0 1-1.543 1.909c-6.236 2.007-8.455 4.17-8.455 5.415 0 2.6 8.284 7.08 26.7 8.935a151.952 151.952 0 0 0 16.177.81 1.95 1.95 0 0 1 1.948 1.949 1.95 1.95 0 0 1-1.948 1.949z" class="cls-4" transform="translate(-2795.4 2156.74)"/>
            </g>
            <g filter="url(#Path_44)" transform="translate(141 395.089) translate(-45 -54.09)">
                <path id="Path_44-2" d="M2957.979-2041.269a1.948 1.948 0 0 1-1.941-1.789 1.952 1.952 0 0 1 1.786-2.1c20.073-1.641 29.428-6.439 29.428-9.168 0-1.254-2.256-3.442-8.622-5.468a1.954 1.954 0 0 1-1.267-2.447 1.95 1.95 0 0 1 2.448-1.268c7.523 2.393 11.34 5.484 11.34 9.183 0 9.609-25.267 12.42-33.013 13.055h-.159z" class="cls-4" transform="translate(-2852.6 2156.75)"/>
            </g>
        </g>
    </g>
</svg>
