<svg xmlns="http://www.w3.org/2000/svg" width="40.456" height="29.33" viewBox="0 0 40.456 29.33">
    <defs>
        <style>
            .cls-1{fill:#3bb5f2}
        </style>
    </defs>
    <g id="Group_92">
        <path id="Path_39" d="M2894.632-2131.711a.778.778 0 0 1-.276-.05l-9.953-3.828a.766.766 0 0 1-.49-.715.764.764 0 0 1 .49-.715l9.953-3.828a.772.772 0 0 1 .55 0l9.953 3.828a.764.764 0 0 1 .491.715.766.766 0 0 1-.49.715l-9.952 3.828a.78.78 0 0 1-.276.05zm-7.82-4.593l7.82 3.007 7.82-3.007-7.82-3.007z" class="cls-1" transform="translate(-2874.404 2140.898)"/>
        <path id="Path_40" d="M2894.632-2105.771a.778.778 0 0 1-.276-.051l-9.953-3.828a.765.765 0 0 1-.49-.715v-12.249a.766.766 0 0 1 .766-.766.766.766 0 0 1 .766.766v11.724l9.187 3.533 9.187-3.533v-11.724a.766.766 0 0 1 .766-.766.766.766 0 0 1 .766.766v12.249a.765.765 0 0 1-.49.715l-9.952 3.828a.78.78 0 0 1-.277.051z" class="cls-1" transform="translate(-2874.404 2127.208)"/>
        <path id="Path_41" d="M2930.226-2092.082a.766.766 0 0 1-.766-.766v-12.252a.766.766 0 0 1 .766-.766.766.766 0 0 1 .766.766v12.249a.766.766 0 0 1-.766.769z" class="cls-1" transform="translate(-2909.998 2113.518)"/>
        <path id="Path_42" d="M2918.377-2030.789a.84.84 0 0 1-.674-.337.842.842 0 0 1 .168-1.18l2.471-1.854-2.471-1.854a.842.842 0 0 1-.168-1.18.844.844 0 0 1 1.18-.168l3.372 2.528a.843.843 0 0 1 .337.674.843.843 0 0 1-.337.674l-3.372 2.529a.846.846 0 0 1-.506.168z" class="cls-1" transform="translate(-2900.677 2060.119)"/>
        <path id="Path_43" d="M2860.623-2053.681a67.434 67.434 0 0 1-7.171-.359c-3.058-.308-13.057-1.619-13.057-5.54 0-1.6 1.65-2.937 4.9-3.971a.866.866 0 0 1 1.108.8.837.837 0 0 1-.667.826c-2.7.868-3.656 1.8-3.656 2.342 0 1.122 3.582 3.061 11.547 3.864a65.675 65.675 0 0 0 7 .351.843.843 0 0 1 .843.843.843.843 0 0 1-.847.844z" class="cls-1" transform="translate(-2840.395 2080.482)"/>
        <path id="Path_44" d="M2956.874-2053.944a.843.843 0 0 1-.839-.773.844.844 0 0 1 .772-.909c8.681-.71 12.727-2.785 12.727-3.965 0-.543-.976-1.489-3.729-2.365a.846.846 0 0 1-.548-1.059.843.843 0 0 1 1.059-.547c3.254 1.035 4.9 2.371 4.9 3.971 0 4.155-10.926 5.371-14.276 5.646z" class="cls-1" transform="translate(-2930.763 2080.492)"/>
    </g>
</svg>
