<svg xmlns="http://www.w3.org/2000/svg" xmlns:xlink="http://www.w3.org/1999/xlink" version="1.1" x="0px" y="0px"
     viewBox="0 0 100 100" style="enable-background:new 0 0 100 100;" xml:space="preserve"><g><circle cx="60.3" cy="18.1" r="5.6"/><circle
        cx="39.7" cy="18.1" r="5.6"/><circle cx="50" cy="26.5" r="5.6"/><circle cx="60.3" cy="34.8" r="5.6"/><circle
        cx="39.7" cy="34.8" r="5.6"/><circle cx="70.5" cy="26.5" r="5.6"/><circle cx="29.5" cy="26.5" r="5.6"/><path
        d="M59.3,68.1V54.5c0-2.4-2-4.3-4.4-4.3h-9.8c-2.4,0-4.4,1.9-4.4,4.3v13.6c0,2.2,1.7,4,3.7,4.3V84c0,1.8,1.2,3.4,2.5,3.4h6.1   c1.4,0,2.5-1.6,2.5-3.4V72.4C57.6,72.1,59.3,70.3,59.3,68.1z"/><circle
        cx="50" cy="43.1" r="5.6"/><path
        d="M79.9,51.5V37.9c0-2.4-2-4.3-4.4-4.3h-8c0.1,0.4,0.1,0.8,0.1,1.2c0,2.2-0.9,4.1-2.4,5.4h0.1c3.3,0,6.1,2.6,6.1,6v13.6   c0,2.5-1.6,4.6-3.9,5.6v5.4h6.1c1.4,0,2.4-1.5,2.4-3.4V55.8C78.1,55.5,79.9,53.7,79.9,51.5z"/><path
        d="M39.1,68.1V54.5c0-3.3,2.7-6,6-6h0.1c-1.5-1.3-2.4-3.3-2.4-5.4c0-0.4,0-0.8,0.1-1.2c0-0.2,0.1-0.5,0.1-0.7   c-0.6,0.3-1.2,0.6-1.8,0.6h-6.5c-2.4,0-4.4,2-4.4,4.4v13.6c0,2.2,1.6,4,3.7,4.3v11.6c0,1.8,1.1,3.5,2.5,3.5h6.1c0,0,0-0.1,0-0.1   v-5.4C40.5,72.7,39.1,70.6,39.1,68.1z"/><path
        d="M69.6,59.8V46.2c0-2.4-2-4.4-4.4-4.4h-6.4c-0.6,0-1.2-0.4-1.8-0.6c0.1,0.2,0.1,0.5,0.1,0.7c0.1,0.4,0.1,0.8,0.1,1.2   c0,2.2-0.9,4.1-2.4,5.4h0.1c3.3,0,6,2.7,6,6v13.6c0,2.5-1.5,4.6-3.7,5.6V79c0,0,0,0.1,0,0.1h6.1c1.4,0,2.5-1.6,2.5-3.5V64.1   C68,63.8,69.6,62,69.6,59.8z"/><path
        d="M50,35.8c1.2,0,2.3,0.3,3.3,0.8c-0.2-0.6-0.2-1.2-0.2-1.9c0-0.4,0-0.8,0.1-1.2h-6.3c0.1,0.4,0.1,0.8,0.1,1.2   c0,0.6-0.1,1.3-0.2,1.9C47.7,36.1,48.8,35.8,50,35.8z"/><path
        d="M28.7,59.8V46.2c0-3.3,2.8-6,6.1-6h0.1c-1.5-1.3-2.4-3.3-2.4-5.4c0-0.4,0-0.8,0.1-1.2h-8c-2.4,0-4.4,1.9-4.4,4.3v13.6   c0,2.2,1.7,4,3.9,4.3v11.6c0,1.8,1,3.4,2.4,3.4h6.1v-5.4C30.3,64.4,28.7,62.2,28.7,59.8z"/><path
        d="M60.3,27.5c1.2,0,2.2,0.3,3.2,0.8c-0.2-0.6-0.2-1.1-0.2-1.8c0-0.4,0-0.8,0.1-1.2h-6.3c0.1,0.4,0.1,0.8,0.1,1.2   c0,0.6-0.1,1.3-0.2,1.9C58,27.8,59.1,27.5,60.3,27.5z"/><path
        d="M39.7,27.5c1.2,0,2.3,0.3,3.3,0.8c-0.2-0.6-0.2-1.2-0.2-1.8c0-0.4,0-0.8,0.1-1.2h-6.3c0.1,0.4,0.1,0.8,0.1,1.2   c0,0.6-0.1,1.2-0.2,1.8C37.5,27.8,38.5,27.5,39.7,27.5z"/><circle
        cx="80.7" cy="18.1" r="5.6"/><circle cx="19.3" cy="18.1" r="5.6"/><path
        d="M18.5,51.5V37.9c0-3.3,2.7-5.9,6-5.9h0.1c-1.5-1.3-2.4-3.3-2.4-5.4c0-0.4,0-0.8,0.1-1.2h-8c-2.4,0-4.4,1.9-4.4,4.3v13.6   c0,2.2,1.6,4,3.7,4.3v11.6c0,1.8,1.1,3.4,2.5,3.4h6v-5.4C20.1,56.1,18.5,53.9,18.5,51.5z"/><path
        d="M85.6,25.3h-8c0.1,0.4,0.1,0.8,0.1,1.2c0,2.1-0.9,4.1-2.4,5.4h0.1c3.3,0,6,2.6,6,5.9v13.6c0,2.5-1.6,4.7-3.7,5.6v5.4h6.1   c1.4,0,2.5-1.6,2.5-3.4V47.5c2.1-0.3,3.7-2.1,3.7-4.3V29.6C90,27.2,88.1,25.3,85.6,25.3z"/></g>
</svg>
