<svg xmlns="http://www.w3.org/2000/svg" width="27" height="27" viewBox="0 0 27 27">
    <g fill="none" fill-rule="evenodd">
        <path fill="#FFF" d="M-219-629h376V38h-376z"/>
        <path fill="#F7F5F5" d="M-219-11h376v49h-376z"/>
        <path fill="#2B9BE0" d="M21.736 26.915H5.178A5.179 5.179 0 0 1 0 21.736V5.18A5.179 5.179 0 0 1 5.178 0h16.558a5.178 5.178 0 0 1 5.178 5.179v16.557a5.178 5.178 0 0 1-5.178 5.179"/>
        <path fill="#FFF" d="M14.192 26.915l-.006-2.842V16.531h-.29c-.985 0-1.97-.004-2.954.004-.202.002-.269-.053-.267-.263.01-1.186.012-2.372-.001-3.558-.003-.239.078-.282.293-.28.978.01 1.955.005 2.932.005h.287v-.295c0-.947-.013-1.894.005-2.841.025-1.29.323-2.5 1.17-3.516.805-.967 1.87-1.458 3.095-1.623 1.16-.156 2.322-.039 3.483.022.037.002.074.01.111.014.526.05.526.05.526.588 0 .962-.005 1.925.005 2.887.002.197-.058.257-.252.256-.753-.005-1.507.001-2.26.012a2.223 2.223 0 0 0-.464.062c-.704.162-1.106.612-1.138 1.386-.04.96-.017 1.923-.027 2.885-.002.175.107.163.223.163h3.49c.29 0 .289 0 .252.282-.153 1.19-.31 2.38-.454 3.57-.024.196-.101.245-.285.244-1-.007-1.999 0-2.998-.007-.176-.001-.23.052-.23.228.005 3.386.005 6.773.006 10.159h-4.252z"/>
    </g>
</svg>
