<svg xmlns="http://www.w3.org/2000/svg" xmlns:xlink="http://www.w3.org/1999/xlink" width="54" height="55" viewBox="0 0 54 55">
    <defs>
        <path id="a" d="M.053.359h2.043v21.295H.053z"/>
        <path id="c" d="M0 .03h18.218v2.042H0z"/>
    </defs>
    <g fill="none" fill-rule="evenodd">
        <path fill="#3BB5F2" d="M25.326 0c-.563 0-1.02.457-1.02 1.021v16.19a1.021 1.021 0 1 0 2.042 0V1.021c0-.564-.457-1.02-1.022-1.02"/>
        <g transform="translate(24.252 33.079)">
            <mask id="b" fill="#fff">
                <use xlink:href="#a"/>
            </mask>
            <path fill="#3BB5F2" d="M1.074.359c-.563 0-1.02.457-1.02 1.02v19.253a1.021 1.021 0 1 0 2.042 0V1.379c0-.563-.457-1.02-1.022-1.02" mask="url(#b)"/>
        </g>
        <g transform="translate(0 25.284)">
            <mask id="d" fill="#fff">
                <use xlink:href="#c"/>
            </mask>
            <path fill="#3BB5F2" d="M18.218 1.051a1.02 1.02 0 0 0-1.02-1.02H1.02a1.02 1.02 0 0 0 0 2.042h16.177a1.02 1.02 0 0 0 1.02-1.022" mask="url(#d)"/>
        </g>
        <path fill="#3BB5F2" d="M52.689 25.314H33.484a1.021 1.021 0 0 0 0 2.042h19.205a1.02 1.02 0 0 0 0-2.042M23.917 28.5H21l1.458-2.5L21 23.5h2.917l1.458-2.5 1.458 2.5h2.917L28.292 26l1.458 2.5h-2.917L25.375 31l-1.458-2.5zM16.344 9.474l3.038 6.603a1.02 1.02 0 1 0 1.855-.854L18.199 8.62a1.021 1.021 0 0 0-1.855.854"/>
        <path fill="#2885B3" d="M5.312 19.84l8.445 3.405a1.02 1.02 0 1 0 .764-1.894l-8.445-3.406a1.022 1.022 0 0 0-.764 1.895"/>
        <path fill="#3BB5F2" d="M44.165 16.897l-8.445 3.406a1.022 1.022 0 0 0 .764 1.894l8.445-3.406a1.02 1.02 0 1 0-.764-1.894M16.05 6.69a.992.992 0 1 0-.83-1.802.992.992 0 0 0 .83 1.802M34.977 45.153l-3.629-8.506a1.021 1.021 0 0 0-1.878.802l3.628 8.505a1.022 1.022 0 0 0 1.879-.801M35.093 48.382a.992.992 0 1 0 .778 1.824.992.992 0 0 0-.778-1.824M15.818 48.757a.992.992 0 1 0 .779 1.824.992.992 0 0 0-.78-1.824"/>
        <path fill="#2885B3" d="M44.592 34.836a1.021 1.021 0 1 0 .771-1.89l-8.5-3.468a1.021 1.021 0 1 0-.772 1.89l8.501 3.468z"/>
        <path fill="#3BB5F2" d="M49.574 35.86a.992.992 0 1 0-1.825-.777.992.992 0 0 0 1.825.777M14.245 30.484l-8.501 3.468a1.021 1.021 0 0 0 .771 1.891l8.502-3.468a1.022 1.022 0 0 0-.772-1.89M2.058 35.566a.992.992 0 1 0 .777 1.824.992.992 0 0 0-.777-1.824M18.798 21.297a1.021 1.021 0 1 0 1.448-1.441L6.732 6.274a1.021 1.021 0 1 0-1.448 1.44l13.514 13.583z"/>
        <path fill="#2885B3" d="M20.364 31.385l-.032-.032a.998.998 0 0 0-1.412.004L5.295 45.049a.999.999 0 0 0 .003 1.413l.032.032a1 1 0 0 0 1.413-.004l13.624-13.692a1 1 0 0 0-.003-1.413M30.377 21.287a1.02 1.02 0 0 0 1.443-.004L46.297 6.734a1.021 1.021 0 1 0-1.448-1.44L30.373 19.842a1.02 1.02 0 0 0 .003 1.445"/>
        <path fill="#3BB5F2" d="M4.049 5.202A.992.992 0 1 0 2.65 3.796a.992.992 0 0 0 1.399 1.406M31.798 31.377a1.021 1.021 0 1 0-1.448 1.44l15.485 15.564a1.022 1.022 0 0 0 1.449-1.44L31.798 31.376zM48.954 49.902a.992.992 0 1 0 1.399 1.406.992.992 0 0 0-1.4-1.406M30.12 17.046c.516.23 1.12-.002 1.35-.517l3.708-8.326a1.021 1.021 0 0 0-1.865-.831l-3.71 8.326c-.229.515.003 1.119.518 1.348M21.833 36.643a1.021 1.021 0 0 0-1.348.517l-3.71 8.326a1.021 1.021 0 0 0 1.866.831l3.71-8.326a1.02 1.02 0 0 0-.518-1.348M35.212 5.314a.99.99 0 1 0 .807-1.809.99.99 0 0 0-.807 1.81"/>
    </g>
</svg>
