<svg xmlns="http://www.w3.org/2000/svg" width="53" height="53" viewBox="0 0 53 53">
    <g fill="none" fill-rule="evenodd" stroke="#EFE01B">
        <path fill="#F9E915" d="M38.03 26.479c0 6.38-5.172 11.551-11.551 11.551-6.38 0-11.552-5.171-11.552-11.551S20.1 14.927 26.48 14.927s11.55 5.172 11.55 11.552"/>
        <path fill="#F8E71C" d="M26.479 12.652c-.568 0-1.028-.46-1.028-1.028V2.028a1.028 1.028 0 1 1 2.055 0v9.596c0 .568-.46 1.028-1.027 1.028M26.479 51.957c-.568 0-1.028-.46-1.028-1.027v-9.597a1.028 1.028 0 1 1 2.055 0v9.597c0 .567-.46 1.027-1.027 1.027M40.305 26.479c0-.568.46-1.028 1.028-1.028h9.596a1.028 1.028 0 1 1 0 2.055h-9.596c-.567 0-1.028-.46-1.028-1.027M1 26.479c0-.568.46-1.028 1.028-1.028h9.596a1.028 1.028 0 1 1 0 2.055H2.028C1.46 27.506 1 27.046 1 26.48M36.256 16.702a1.028 1.028 0 0 1 0-1.454l6.785-6.785a1.027 1.027 0 1 1 1.453 1.454l-6.785 6.785a1.027 1.027 0 0 1-1.453 0M8.463 44.495a1.028 1.028 0 0 1 0-1.454l6.785-6.785a1.027 1.027 0 1 1 1.454 1.453l-6.786 6.786a1.027 1.027 0 0 1-1.453 0M36.256 36.255a1.027 1.027 0 0 1 1.453 0l6.785 6.786a1.028 1.028 0 0 1-1.453 1.454l-6.785-6.786a1.028 1.028 0 0 1 0-1.454M8.463 8.463a1.027 1.027 0 0 1 1.453 0l6.786 6.785a1.028 1.028 0 0 1-1.454 1.454L8.463 9.916a1.028 1.028 0 0 1 0-1.453"/>
    </g>
</svg>
