<svg xmlns="http://www.w3.org/2000/svg" xmlns:xlink="http://www.w3.org/1999/xlink" width="54" height="45" viewBox="0 0 54 45">
    <defs>
        <path id="a" d="M.129 0h41.726v27.818H.13z"/>
        <path id="b" d="M0 .724h6.954v2.318H0z"/>
    </defs>
    <g fill="none" fill-rule="evenodd">
        <path fill="#F9E915" d="M24.232 13.5L20.846 11h-6.955l-2.33 2.5V19.392l2.33 3.03.67 1.859h1.555l1.78-4.889 2.95-2.652 3.654-1.348z"/>
        <path fill="#F9E915" d="M11.48 16.914a5.797 5.797 0 0 1 5.791-5.792c2.604 0 4.785 1.738 5.512 4.106a13.23 13.23 0 0 1 2.243-.686c-1.018-3.318-4.108-5.738-7.755-5.738-4.47 0-8.109 3.638-8.109 8.11 0 3.66 2.439 6.758 5.776 7.763.158-.777.383-1.527.67-2.244-2.38-.72-4.128-2.907-4.128-5.519M17.275 6.954c-.64 0-1.16-.518-1.16-1.159V1.16a1.159 1.159 0 1 1 2.319 0v4.636c0 .641-.52 1.16-1.16 1.16"/>
        <g transform="translate(0 15.392)">
            <mask id="c" fill="#fff">
                <use xlink:href="#b"/>
            </mask>
            <path fill="#F9E915" d="M5.795 3.042H1.16a1.159 1.159 0 1 1 0-2.318h4.636a1.159 1.159 0 1 1 0 2.318" mask="url(#c)"/>
        </g>
        <path fill="#F9E915" d="M9.158 10.315c-.297 0-.594-.113-.82-.34L5.06 6.699a1.158 1.158 0 1 1 1.64-1.64l3.277 3.279a1.158 1.158 0 0 1-.82 1.978M25.392 10.317a1.158 1.158 0 0 1-.82-1.979l3.28-3.277A1.158 1.158 0 1 1 29.49 6.7l-3.279 3.278c-.226.226-.523.34-.82.34M5.832 29.877a1.158 1.158 0 0 1-.82-1.979l3.28-3.277A1.158 1.158 0 1 1 9.93 26.26l-3.28 3.277c-.225.226-.522.34-.819.34"/>
        <path fill="#E0E2E3" d="M42.751 42.177h-25.1s-1.09-.081-1.45-.134c-3.138-.464-5.418-3.388-5.418-6.669v-.455c0-3.438 2.603-6.294 5.946-6.738.024-.728.117-1.437.268-2.125.2-.921.51-1.8.914-2.627a11.872 11.872 0 0 1 5.391-5.41 11.82 11.82 0 0 1 2.622-.93c.14-.033.278-.073.42-.099.728-.14 1.48-.217 2.25-.217.101 0 .2.01.3.013a11.871 11.871 0 0 1 9.226 4.752c.51.682.945 1.421 1.3 2.203.181.402.348.808.484 1.229a8.693 8.693 0 0 1 2.847-.485c4.793 0 8.678 3.86 8.678 8.62s-3.654 8.62-8.678 9.072m0-20.233c-.417 0-.833.03-1.248.076-.026.004-.052.002-.079.005-.404-.786-.897-1.507-1.428-2.195-2.551-3.3-6.457-5.375-10.799-5.555-.203-.01-.399-.042-.603-.042a14.578 14.578 0 0 0-3.055.34 14.268 14.268 0 0 0-10.32 8.646 14.11 14.11 0 0 0-.735 2.46c-.033.16-.073.32-.101.482-3.611 1.331-6.14 4.799-6.14 8.758v.455c0 4.596 3.261 8.543 7.589 9.181.417.062 1.352.136 1.627.156.065.005.128.007.192.007h25.1c.077 0 .153-.003.23-.01 6.264-.566 10.989-5.554 10.989-11.604 0-6.153-5.033-11.16-11.219-11.16"/>
    </g>
</svg>
