<svg xmlns="http://www.w3.org/2000/svg" xmlns:xlink="http://www.w3.org/1999/xlink" width="41" height="40" viewBox="0 0 41 40">
    <defs>
        <path id="a" d="M0 0h30.661v45.863H0z"/>
    </defs>
    <g fill="none" fill-rule="evenodd" transform="rotate(-45 9.311 17.586)">
        <mask id="b" fill="#fff">
            <use xlink:href="#a"/>
        </mask>
        <path fill="#3BB5F2" stroke="#3BB5F2" d="M30.219 32.617l-.038-.04a83.727 83.727 0 0 0-.25-.263l-.016-.017-.111-.117-.008-.008-.08-.084-.13-.137-.431-.451-.11-.116-.056-.058-1.53-1.6-3.877-4.055-.108-.113-2.907-3.037V21.048a7.722 7.722 0 0 0-.057-.927l-.01-.083a7.86 7.86 0 0 0-.065-.414l-.016-.082a8.537 8.537 0 0 0-.07-.328l-.022-.09a8.525 8.525 0 0 0-.343-1.077l-.022-.057a9.827 9.827 0 0 0-.118-.284l-.042-.09a8.811 8.811 0 0 0-.08-.173l-.048-.1a9.303 9.303 0 0 0-.278-.516c-.175-.3-.3-.467-.3-.467s.034-1.438.034-2.156c0-.719-.206-1.198-.206-1.198H17.11V8.728c0-1.044-.074-2.023-.191-2.922l-.01-.083a23.862 23.862 0 0 0-.039-.27l-.012-.081a19.41 19.41 0 0 0-.043-.275l-.004-.03a22.94 22.94 0 0 0-.166-.901l-.001-.006a29.388 29.388 0 0 0-.125-.569l-.004-.018a22.56 22.56 0 0 0-.263-1.023l-.002-.008a21.819 21.819 0 0 0-.066-.228l-.004-.012a20.388 20.388 0 0 0-.326-1.007l-.005-.015a13.714 13.714 0 0 0-.061-.169 15.957 15.957 0 0 0-.26-.667l-.01-.025-.035-.082-.008-.017c-.034-.079-.062-.144-.085-.194l-.01-.02-.015-.035-.008-.015-.012-.026-.004-.008-.007-.015L15.33 0l-.017.034-.008.017-.012.025-.012.027-.014.03-.017.038-.007.016a7.636 7.636 0 0 0-.066.152l-.033.077-.013.03c-.011.03-.024.06-.037.091a16.323 16.323 0 0 0-.282.741l-.007.02c-.103.29-.213.627-.325 1.004l-.003.012-.066.228-.003.008c-.089.316-.178.657-.263 1.023l-.004.018-.059.261-.008.037-.058.272c-.06.29-.115.593-.166.907l-.005.029c-.015.09-.03.183-.043.276l-.012.078a20.391 20.391 0 0 0-.048.353 22.58 22.58 0 0 0-.192 2.924v4.278h-1.814s-.205.479-.205 1.198c0 .718.034 2.156.034 2.156s-1.295 1.716-1.456 4.188a7.69 7.69 0 0 0-.016.501v1.472S.921 32.104.442 32.617c-.479.514-.547.925-.308 1.37.24.444 1.746 2.806 1.746 2.806l4.244-1.232h3.936l.428 2.55-1.215.53s-1.063 1.234-2.04 2.375l-.165.192-.036.043-.133.154-.003.004-.146.17-.016.02-.123.144c-.01.01-.019.022-.028.033a441.058 441.058 0 0 0-.395.463l-.013.015-.105.123-.008.01-.086.101-.032.039c-.022.026-.044.05-.063.074l-.022.026-.054.064-.025.03-.038.045-.022.027-.032.038-.013.017a4.701 4.701 0 0 0-.03.037c-.24.308-.343.822-.069 1.198.274.377 1.3 1.78 1.3 1.78l4.484-1.37 1.13-2.737.171.308h2.225l.102-.24.343-.068.342.068.103.24h2.229l.168-.304 1.128 2.734 4.484 1.369s1.026-1.403 1.3-1.78c.274-.376.171-.89-.068-1.198-.24-.308-3.628-4.244-3.628-4.244l-1.215-.53.428-2.55h3.935l1.116.324 3.129.908s1.505-2.362 1.745-2.806c.24-.445.171-.856-.308-1.37" mask="url(#b)"/>
    </g>
</svg>
