<?xml version="1.0" encoding="utf-8"?>
<!-- Generator: Adobe Illustrator 25.2.0, SVG Export Plug-In . SVG Version: 6.00 Build 0)  -->
<svg version="1.1" id="Layer_1" xmlns="http://www.w3.org/2000/svg" xmlns:xlink="http://www.w3.org/1999/xlink" x="0px" y="0px"
	 viewBox="0 0 476.72 301.88" style="enable-background:new 0 0 476.72 301.88;" xml:space="preserve">
<style type="text/css">
	.st0{opacity:0.6;}
	.st1{fill:url(#SVGID_1_);}
	.st2{fill:url(#SVGID_2_);}
	.st3{fill:url(#SVGID_3_);}
	.st4{fill:url(#SVGID_4_);}
	.st5{fill:url(#SVGID_5_);}
	.st6{fill:url(#SVGID_6_);}
	.st7{fill:url(#SVGID_7_);}
	.st8{fill:url(#SVGID_8_);}
	.st9{fill:url(#SVGID_9_);}
	.st10{fill:url(#SVGID_10_);}
	.st11{fill:#2B9BE0;}
	.st12{fill:#1388B7;}
	.st13{fill:#3BB5F2;}
	.st14{fill:#E7F3F7;}
</style>
<g>
	<g>
		<g class="st0">
			<g>
				<g>
					<g>
						<linearGradient id="SVGID_1_" gradientUnits="userSpaceOnUse" x1="44.1381" y1="128.6751" x2="277.41" y2="128.6751">
							<stop  offset="0.4225" style="stop-color:#BFE9F7"/>
							<stop  offset="0.5712" style="stop-color:#8AA9B7;stop-opacity:0.7425"/>
							<stop  offset="0.7802" style="stop-color:#455563;stop-opacity:0.3807"/>
							<stop  offset="0.9281" style="stop-color:#19202E;stop-opacity:0.1245"/>
							<stop  offset="1" style="stop-color:#080C1A;stop-opacity:0"/>
						</linearGradient>
						<polygon class="st1" points="277.41,257.35 44.14,0 62.54,52.23 267.69,257.35 						"/>
						<linearGradient id="SVGID_2_" gradientUnits="userSpaceOnUse" x1="69.9988" y1="164.6049" x2="254.3303" y2="164.6049">
							<stop  offset="0.4225" style="stop-color:#BFE9F7"/>
							<stop  offset="0.5712" style="stop-color:#8AA9B7;stop-opacity:0.7425"/>
							<stop  offset="0.7802" style="stop-color:#455563;stop-opacity:0.3807"/>
							<stop  offset="0.9281" style="stop-color:#19202E;stop-opacity:0.1245"/>
							<stop  offset="1" style="stop-color:#080C1A;stop-opacity:0"/>
						</linearGradient>
						<polygon class="st2" points="70,71.86 254.33,257.35 244.61,257.35 84.23,113.1 						"/>
						<linearGradient id="SVGID_3_" gradientUnits="userSpaceOnUse" x1="90.3033" y1="193.7773" x2="231.7616" y2="193.7773">
							<stop  offset="0.4225" style="stop-color:#BFE9F7"/>
							<stop  offset="0.5712" style="stop-color:#8AA9B7;stop-opacity:0.7425"/>
							<stop  offset="0.7802" style="stop-color:#455563;stop-opacity:0.3807"/>
							<stop  offset="0.9281" style="stop-color:#19202E;stop-opacity:0.1245"/>
							<stop  offset="1" style="stop-color:#080C1A;stop-opacity:0"/>
						</linearGradient>
						<polygon class="st3" points="90.3,130.2 231.76,257.35 222.04,257.35 102.46,164.78 						"/>
						<linearGradient id="SVGID_4_" gradientUnits="userSpaceOnUse" x1="110.2681" y1="221.783" x2="208.9423" y2="221.783">
							<stop  offset="0.4225" style="stop-color:#BFE9F7"/>
							<stop  offset="0.5712" style="stop-color:#8AA9B7;stop-opacity:0.7425"/>
							<stop  offset="0.7802" style="stop-color:#455563;stop-opacity:0.3807"/>
							<stop  offset="0.9281" style="stop-color:#19202E;stop-opacity:0.1245"/>
							<stop  offset="1" style="stop-color:#080C1A;stop-opacity:0"/>
						</linearGradient>
						<polygon class="st4" points="110.27,186.22 120.16,214.49 199.22,257.35 208.94,257.35 						"/>
						<linearGradient id="SVGID_5_" gradientUnits="userSpaceOnUse" x1="126.409" y1="244.4732" x2="185.5863" y2="244.4732">
							<stop  offset="0.4225" style="stop-color:#BFE9F7"/>
							<stop  offset="0.5712" style="stop-color:#8AA9B7;stop-opacity:0.7425"/>
							<stop  offset="0.7802" style="stop-color:#455563;stop-opacity:0.3807"/>
							<stop  offset="0.9281" style="stop-color:#19202E;stop-opacity:0.1245"/>
							<stop  offset="1" style="stop-color:#080C1A;stop-opacity:0"/>
						</linearGradient>
						<polygon class="st5" points="126.41,231.6 185.59,257.35 135.61,257.35 						"/>
					</g>
				</g>
			</g>
			<g>
				<g>
					<g>
						
							<linearGradient id="SVGID_6_" gradientUnits="userSpaceOnUse" x1="-123.9633" y1="128.6751" x2="109.3086" y2="128.6751" gradientTransform="matrix(-1 0 0 1 308.6171 0)">
							<stop  offset="0.4225" style="stop-color:#BFE9F7"/>
							<stop  offset="0.5712" style="stop-color:#8AA9B7;stop-opacity:0.7425"/>
							<stop  offset="0.7802" style="stop-color:#455563;stop-opacity:0.3807"/>
							<stop  offset="0.9281" style="stop-color:#19202E;stop-opacity:0.1245"/>
							<stop  offset="1" style="stop-color:#080C1A;stop-opacity:0"/>
						</linearGradient>
						<polygon class="st6" points="199.31,257.35 432.58,0 414.18,52.23 209.03,257.35 						"/>
						
							<linearGradient id="SVGID_7_" gradientUnits="userSpaceOnUse" x1="-98.1026" y1="164.6049" x2="86.2289" y2="164.6049" gradientTransform="matrix(-1 0 0 1 308.6171 0)">
							<stop  offset="0.4225" style="stop-color:#BFE9F7"/>
							<stop  offset="0.5712" style="stop-color:#8AA9B7;stop-opacity:0.7425"/>
							<stop  offset="0.7802" style="stop-color:#455563;stop-opacity:0.3807"/>
							<stop  offset="0.9281" style="stop-color:#19202E;stop-opacity:0.1245"/>
							<stop  offset="1" style="stop-color:#080C1A;stop-opacity:0"/>
						</linearGradient>
						<polygon class="st7" points="406.72,71.86 222.39,257.35 232.11,257.35 392.48,113.1 						"/>
						
							<linearGradient id="SVGID_8_" gradientUnits="userSpaceOnUse" x1="-77.7981" y1="193.7773" x2="63.6602" y2="193.7773" gradientTransform="matrix(-1 0 0 1 308.6171 0)">
							<stop  offset="0.4225" style="stop-color:#BFE9F7"/>
							<stop  offset="0.5712" style="stop-color:#8AA9B7;stop-opacity:0.7425"/>
							<stop  offset="0.7802" style="stop-color:#455563;stop-opacity:0.3807"/>
							<stop  offset="0.9281" style="stop-color:#19202E;stop-opacity:0.1245"/>
							<stop  offset="1" style="stop-color:#080C1A;stop-opacity:0"/>
						</linearGradient>
						<polygon class="st8" points="386.42,130.2 244.96,257.35 254.68,257.35 374.26,164.78 						"/>
						
							<linearGradient id="SVGID_9_" gradientUnits="userSpaceOnUse" x1="-57.8333" y1="221.783" x2="40.8409" y2="221.783" gradientTransform="matrix(-1 0 0 1 308.6171 0)">
							<stop  offset="0.4225" style="stop-color:#BFE9F7"/>
							<stop  offset="0.5712" style="stop-color:#8AA9B7;stop-opacity:0.7425"/>
							<stop  offset="0.7802" style="stop-color:#455563;stop-opacity:0.3807"/>
							<stop  offset="0.9281" style="stop-color:#19202E;stop-opacity:0.1245"/>
							<stop  offset="1" style="stop-color:#080C1A;stop-opacity:0"/>
						</linearGradient>
						<polygon class="st9" points="366.45,186.22 356.56,214.49 277.5,257.35 267.78,257.35 						"/>
						
							<linearGradient id="SVGID_10_" gradientUnits="userSpaceOnUse" x1="-41.6924" y1="244.4732" x2="17.4849" y2="244.4732" gradientTransform="matrix(-1 0 0 1 308.6171 0)">
							<stop  offset="0.4225" style="stop-color:#BFE9F7"/>
							<stop  offset="0.5712" style="stop-color:#8AA9B7;stop-opacity:0.7425"/>
							<stop  offset="0.7802" style="stop-color:#455563;stop-opacity:0.3807"/>
							<stop  offset="0.9281" style="stop-color:#19202E;stop-opacity:0.1245"/>
							<stop  offset="1" style="stop-color:#080C1A;stop-opacity:0"/>
						</linearGradient>
						<polygon class="st10" points="350.31,231.6 291.13,257.35 341.11,257.35 						"/>
					</g>
				</g>
			</g>
		</g>
	</g>
	<g>
		<g>
			<g>
				<g>
					<polygon class="st11" points="152.57,257.35 15.6,301.88 42.46,256.64 0,230.64 137.79,181.25 					"/>
				</g>
				<g>
					<polygon class="st11" points="324.15,257.35 461.12,301.88 434.26,256.64 476.72,230.64 338.93,181.25 					"/>
				</g>
			</g>
			<g>
				<g>
					<path class="st12" d="M324.15,257.35l70.45-9.61c0,0-61.44-29.99-62.74-29.7C330.56,218.32,324.15,257.35,324.15,257.35z"/>
				</g>
				<g>
					<path class="st12" d="M152.57,257.35l-70.45-9.61c0,0,61.44-29.99,62.74-29.7S152.57,257.35,152.57,257.35z"/>
				</g>
			</g>
		</g>
		<g>
			<path class="st13" d="M236.6,218.8c-61.15-0.29-90.24,8.11-154.48,28.67l-17.08-89.44c65.91-24.63,105.43-34.25,172.45-33.94
				c67.01,0.45,106.62,8.56,172.7,33.94l-15.59,89.44C329.8,225.5,298.79,219.22,236.6,218.8z"/>
		</g>
	</g>
	<g>
		
			<image style="overflow:visible;opacity:0.2;" width="193" height="164" xlink:href="8EE7D220F1FFCF08.png"  transform="matrix(1 0 0 1 142.7469 29.9909)">
		</image>
		<g>
			<g>
				<g>
					<g>
						<path class="st14" d="M320.44,136.15c0,22.62-17.09,37.26-43.28,37.26c-26.68,0-41.56-9.59-41.31-39.71h28.77
							c0,12.05,4.43,16.35,13.53,16.35c9.34,0,15.86-4.18,15.86-16.11c0-13.65-7.99-20.29-24.47-20.29V96.8
							c10.57-1.23,20.16-7.38,20.16-18.81c0-7.5-4.67-13.65-11.07-14.63c-9.96-1.48-15.98,5.66-16.23,18.44h-26.8
							C233.88,56.97,248.88,40,276.05,40c26.68,0,40.33,15.86,40.33,34.43c0,11.93-4.79,25.45-21.15,28.77
							C314.29,105.66,320.44,120.04,320.44,136.15z"/>
					</g>
				</g>
				<g>
					<g>
						<path class="st14" d="M162,168.2l36.91-100.51h-40.25v-21.5h73.71L189.48,168.2H162z"/>
					</g>
				</g>
			</g>
		</g>
	</g>
</g>
<g>
	<polygon class="st14" points="695.99,282.25 701.65,272.43 690.32,272.43 684.65,262.62 678.99,272.43 667.65,272.43 
		673.32,282.25 667.65,292.06 678.99,292.06 684.65,301.88 690.32,292.06 701.65,292.06 	"/>
</g>
</svg>
