<svg id="Layer_1" data-name="Layer 1" xmlns="http://www.w3.org/2000/svg" viewBox="0 0 91.2 41.96"><defs><style>.cls-1{fill:#2b9be0;}.cls-2{fill:#1388b7;}.cls-3{fill:#3bb5f2;}.cls-4{fill:#fff;}.cls-5{fill:#e7f3f7;}</style></defs><title>logo</title><polygon id="Fill-1" class="cls-1" points="0.82 29.09 7.32 33.07 3.21 39.99 24.16 33.18 21.9 21.54 0.82 29.09"/><polygon id="Fill-2" class="cls-1" points="67.05 33.18 88 39.99 83.89 33.07 90.38 29.09 90.38 29.09 69.31 21.54 67.05 33.18"/><path id="Fill-3" class="cls-2" d="M67.05,33.18s1-6,1.18-6,9.59,4.54,9.59,4.54Z"/><path id="Fill-5" class="cls-2" d="M24.16,33.18,13.38,31.71s9.4-4.59,9.6-4.54,1.18,6,1.18,6"/><path id="Fill-7" class="cls-3" d="M45.33,26.45a114.28,114.28,0,0,0-31.95,5.22L10.77,18c10.08-3.77,24.45-6.07,34.7-6s24.63,2.15,34.74,6L77.82,31.67a113.48,113.48,0,0,0-32.49-5.22"/><polygon id="Fill-9" class="cls-4" points="45.49 40.09 48.71 34.5 42.26 34.5 45.49 40.09"/><polygon id="Fill-11" class="cls-4" points="45.49 32.64 42.26 38.23 48.71 38.23 45.49 32.64"/><polygon class="cls-5" points="27.57 6.27 37.51 6.25 30.85 23.3 36.39 23.3 43.4 5.41 43.4 1.61 27.57 1.61 27.57 6.27"/><path class="cls-5" d="M54.12,1.1c-4.79,0-8.61,3.21-8.61,8V15.6c0,4.76,3.82,8,8.61,8s8.62-3.21,8.62-8V9.07C62.74,4.31,58.9,1.1,54.12,1.1Zm3.37,14.76a3.37,3.37,0,0,1-6.73,0v-7a3.37,3.37,0,0,1,6.73,0Z"/></svg>