<svg xmlns="http://www.w3.org/2000/svg" width="54.819" height="77.894" viewBox="0 0 54.819 77.894">
    <g>
        <g>
            <path fill="#ffca9d" d="M13154.833-4353l-23.882-5.085-4.631-14.075v-11.714l3.179-6.9 8.172-4 6.538-28.967 4.631-.454 3.27 3.087-4.269 21.884 5.9-2.089 2.906 3-.454 4.541h5.448l3 3-1.634 4.994 6.538-1.18 2.088 6.265-6.084 15.891z" transform="translate(-224.707 -306.778) translate(22.377 -56) translate(-12917 4790)"/>
            <g>
                <g>
                    <g>
                        <path d="M8.493 47.766A1.494 1.494 0 0 1 7 46.273V5.986A5.991 5.991 0 0 1 12.926.012h.051a5.976 5.976 0 0 1 5.971 5.974v17.282a5.9 5.9 0 0 1 1.914-1.068 5.823 5.823 0 0 1 7.646 5.995l-.608 7.474a1.492 1.492 0 1 1-2.975-.239l.606-7.476a2.839 2.839 0 0 0-3.731-2.921 2.837 2.837 0 0 0-1.93 2.473l-.932 8.214a1.416 1.416 0 0 1-1.568 1.32 1.492 1.492 0 0 1-1.413-1.49V5.986a2.961 2.961 0 0 0-.884-2.121A2.667 2.667 0 0 0 12.95 3a3 3 0 0 0-2.963 2.986v40.287a1.494 1.494 0 0 1-1.493 1.493z" transform="translate(-224.707 -306.778) translate(22.377 -56) rotate(12.04 -1604.714 1195.023) translate(12.961 .012) translate(-7 -.012)"/>
                    </g>
                </g>
                <g>
                    <g>
                        <path d="M15.947 50.235a1.494 1.494 0 0 1-1.18-.576C14.329 49.094 4 35.689 4 24.847c0-9.812 8.775-13.886 9.149-14.056a1.494 1.494 0 0 1 1.234 2.721c-.3.14-7.4 3.48-7.4 11.335 0 9.827 10.036 22.847 10.14 22.978a1.5 1.5 0 0 1-1.18 2.41z" transform="translate(-224.707 -306.778) translate(22.377 -56) rotate(12.04 -1604.714 1195.023) translate(4 31.818) translate(-4 -10.661)"/>
                    </g>
                </g>
                <g>
                    <g>
                        <path d="M23.2 22.351a1.494 1.494 0 0 1-1.5-1.493v-5.974a2.986 2.986 0 0 0-5.714-1.216 1.492 1.492 0 1 1-2.73-1.207 5.972 5.972 0 0 1 11.431 2.422v5.974a1.492 1.492 0 0 1-1.487 1.494z" transform="translate(-224.707 -306.778) translate(22.377 -56) rotate(12.04 -1604.714 1195.023) translate(31.27 26.589) translate(-13.13 -8.91)"/>
                    </g>
                </g>
                <g>
                    <g>
                        <path d="M17 49.739a1.493 1.493 0 0 1-1.063-2.545c.1-.1 10.021-10.32 10.021-29.439v-.872a2.987 2.987 0 1 0-5.974 0 1.493 1.493 0 0 1-2.987 0 5.974 5.974 0 0 1 11.948 0v.872c0 20.421-10.448 31.1-10.89 31.547a1.5 1.5 0 0 1-1.055.437z" transform="translate(-224.707 -306.778) translate(22.377 -56) rotate(12.04 -1604.714 1195.023) translate(38.349 32.563) translate(-15.5 -10.91)"/>
                    </g>
                </g>
            </g>
        </g>
    </g>
</svg>
