<svg width="18" height="19" viewBox="0 0 18 19" fill="none" xmlns="http://www.w3.org/2000/svg">
<path d="M9 0.75C4.00781 0.75 0 4.79297 0 9.75C0 14.7422 4.00781 18.75 9 18.75C13.957 18.75 18 14.7422 18 9.75C18 4.79297 13.957 0.75 9 0.75ZM9 5.25C9.59766 5.25 10.125 5.77734 10.125 6.375C10.125 7.00781 9.59766 7.5 9 7.5C8.36719 7.5 7.875 7.00781 7.875 6.375C7.875 5.77734 8.36719 5.25 9 5.25ZM10.4063 14.25H7.59375C7.10156 14.25 6.75 13.8984 6.75 13.4062C6.75 12.9492 7.10156 12.5625 7.59375 12.5625H8.15625V10.3125H7.875C7.38281 10.3125 7.03125 9.96094 7.03125 9.46875C7.03125 9.01172 7.38281 8.625 7.875 8.625H9C9.45703 8.625 9.84375 9.01172 9.84375 9.46875V12.5625H10.4063C10.8633 12.5625 11.25 12.9492 11.25 13.4062C11.25 13.8984 10.8633 14.25 10.4063 14.25Z" fill="#455773"/>
</svg>
