<svg xmlns="http://www.w3.org/2000/svg" width="27" height="27" viewBox="0 0 27 27">
    <g fill="none" fill-rule="evenodd">
        <path fill="#FFF" d="M-174-629h376V38h-376z"/>
        <path fill="#F7F5F5" d="M-174-11h376v49h-376z"/>
        <path fill="#2B9BE0" d="M21.736 26.915H5.178A5.179 5.179 0 0 1 0 21.736V5.18A5.179 5.179 0 0 1 5.178 0h16.558a5.178 5.178 0 0 1 5.179 5.179v16.557a5.178 5.178 0 0 1-5.179 5.179"/>
        <path stroke="#FFF" stroke-width="3" d="M19.413 13.457a5.956 5.956 0 1 1-11.911 0 5.956 5.956 0 0 1 11.911 0z"/>
        <path fill="#FFF" d="M24.268 4.366a1.719 1.719 0 1 1-3.438 0 1.719 1.719 0 0 1 3.438 0"/>
    </g>
</svg>
