<?xml version="1.0" encoding="utf-8"?>
<!-- Generator: Adobe Illustrator 21.1.0, SVG Export Plug-In . SVG Version: 6.00 Build 0)  -->
<svg version="1.1" id="Layer_1" xmlns="http://www.w3.org/2000/svg" xmlns:xlink="http://www.w3.org/1999/xlink" x="0px" y="0px"
	 viewBox="0 0 90 39" style="enable-background:new 0 0 90 39;" xml:space="preserve">
<style type="text/css">
	.st0{fill:#2B9BE0;}
	.st1{fill:#1388B7;}
	.st2{fill:#3BB5F2;}
	.st3{fill:#FFFFFF;}
	.st4{filter:url(#Adobe_OpacityMaskFilter);}
	.st5{mask:url(#mask-2);enable-background:new    ;}
	.st6{fill:#E7F3F8;}
	.st7{enable-background:new    ;}
</style>
<title>logo</title>
<desc>Created with Sketch.</desc>
<g id="Symbols">
	<g id="Navigation-Bar" transform="translate(-142.000000, -15.000000)">
		<g id="logo">
			<g transform="translate(142.500000, 0.000000)">
				<g id="Fill-1">
					<polygon class="st0" points="0,42.8 6.5,46.7 2.4,53.7 23.3,46.9 21.1,35.2 					"/>
				</g>
				<g id="Fill-2">
					<polygon class="st0" points="66.2,46.9 87.2,53.7 83.1,46.7 89.6,42.8 89.6,42.8 68.5,35.2 					"/>
				</g>
				<g id="Group-14" transform="translate(0.000000, 0.980900)">
					<g id="Fill-3">
						<path class="st1" d="M66.2,45.9c0,0,1-6,1.2-6c0.2,0,9.6,4.5,9.6,4.5L66.2,45.9z"/>
					</g>
					<g id="Fill-5">
						<path class="st1" d="M23.3,45.9l-10.8-1.5c0,0,9.4-4.6,9.6-4.5C22.4,39.9,23.3,45.9,23.3,45.9"/>
					</g>
					<g id="Fill-7">
						<path class="st2" d="M44.5,39.1c-9.4,0-22.1,2.1-32,5.2L9.9,30.7c10.1-3.8,24.4-6.1,34.7-6c10.2,0.1,24.6,2.1,34.7,6L77,44.4
							C67.1,41,54,39.2,44.5,39.1"/>
					</g>
					<g id="Fill-9">
						<polygon class="st3" points="44.7,52.8 47.9,47.2 41.4,47.2 						"/>
					</g>
					<g id="Fill-11">
						<polygon class="st3" points="44.7,45.3 41.4,50.9 47.9,50.9 						"/>
					</g>
					<g id="Clip-13">
					</g>
					<defs>
						<filter id="Adobe_OpacityMaskFilter" filterUnits="userSpaceOnUse" x="29" y="13.8" width="34.3" height="22.2">
							<feColorMatrix  type="matrix" values="1 0 0 0 0  0 1 0 0 0  0 0 1 0 0  0 0 0 1 0"/>
						</filter>
					</defs>
					<mask maskUnits="userSpaceOnUse" x="29" y="13.8" width="34.3" height="22.2" id="mask-2">
						<g class="st4">
							<polygon id="path-1" class="st3" points="0,54 89.6,54 89.6,0 0,0 							"/>
						</g>
					</mask>
					<g class="st5">
						<path class="st6" d="M44.9,28.9c0,4.3-3.6,7.1-7.9,7.1s-8-2.8-8-7.2c0-0.8,0-1.9,0.7-3.1l6.5-11.6H42l-5.3,8.4
							c0.3-0.1,1.3-0.2,1.5-0.2C42.5,22.4,44.9,24.9,44.9,28.9z M40.2,28.8c0-1.7-1.5-3-3.1-3c-1.8,0-3.3,1.3-3.3,3
							c0,1.6,1.5,3.1,3.1,3.1C38.5,31.9,40.2,30.4,40.2,28.8z"/>
					</g>
					<g>
					</g>
					<g class="st7">
						<path class="st6" d="M54.3,27.5c-3.9-0.1-6.9-2.5-6.9-6.5c0-4.3,3.6-7.2,7.9-7.2s8,2.9,8,7.2c0,0.8-0.2,2.2-0.8,3.2L56,35.7
							h-5.6l4.8-8.3L54.3,27.5z M52.3,21c0,1.7,1.6,3,3.1,3c1.8,0,3-1.3,3-3c0-1.6-1.5-3.1-3.1-3.1C53.8,17.9,52.3,19.4,52.3,21z"/>
					</g>
				</g>
			</g>
		</g>
	</g>
</g>
</svg>
