<svg xmlns="http://www.w3.org/2000/svg" width="45" height="45" viewBox="0 0 45 45">
    <defs>
        <filter id="Oval" width="45" height="45" x="0" y="0" filterUnits="userSpaceOnUse">
            <feOffset/>
            <feGaussianBlur result="blur" stdDeviation="3.5"/>
            <feFlood flood-opacity=".302"/>
            <feComposite in2="blur" operator="in"/>
            <feComposite in="SourceGraphic"/>
        </filter>
        <style>
            .cls-2{fill:none}.cls-3{fill:#fff}
        </style>
    </defs>
    <g id="lookout" transform="translate(-115.5 -434.5)">
        <g id="live" transform="translate(119 438)">
            <g id="Group_2" transform="translate(8 8)">
                <g id="Oval-2">
                    <g filter="url(#Oval)" transform="translate(-11.5 -11.5)">
                        <g id="Oval-3" fill="#3bb5f2" stroke="#2e91c3" stroke-miterlimit="10" transform="translate(11.5 11.5)">
                            <circle cx="11" cy="11" r="11" stroke="none"/>
                            <circle cx="11" cy="11" r="11.5" class="cls-2"/>
                        </g>
                    </g>
                    <circle id="Oval-4" cx="11" cy="11" r="11" class="cls-2"/>
                </g>
            </g>
        </g>
        <g id="binoculars" transform="translate(-136.382 977.241)">
            <path id="Path_407" d="M266.463-507.124a9.467 9.467 0 0 1 .371-1.085c.518-1.386 1.06-2.767 1.453-4.195a2.209 2.209 0 0 1 3.972-.867c.441.571.84.915 1.642.451a1.886 1.886 0 0 1 1.444.133.665.665 0 0 0 .919-.174 7.155 7.155 0 0 1 .873-.864 2.064 2.064 0 0 1 3.282.894c.656 1.776 1.285 3.565 1.857 5.37a3.293 3.293 0 0 1-1.925 4.043 3.344 3.344 0 0 1-4.191-1.429 3.33 3.33 0 0 1 .945-4.386 5.4 5.4 0 0 0 .591-.455 2.534 2.534 0 0 0-2.024 1.734c-.2.632-.525 1.081-1.205 1.091s-1.037-.42-1.228-1.06a2.278 2.278 0 0 0-1.789-1.614 1.92 1.92 0 0 0 .154.161c.078.066.167.119.247.183a3.327 3.327 0 0 1 1.149 3.784 3.418 3.418 0 0 1-3.1 2.262 3.577 3.577 0 0 1-2.913-1.563 3.245 3.245 0 0 1-.6-1.594 2.593 2.593 0 0 1 .076-.82zm3.3 2.782a2.172 2.172 0 0 0 2.237-2.071 2.172 2.172 0 0 0-2.107-2.273 2.171 2.171 0 0 0-2.233 2.07 2.172 2.172 0 0 0 2.104 2.274zm11.478-2.209a2.169 2.169 0 0 0-2.171-2.134 2.168 2.168 0 0 0-2.172 2.208 2.169 2.169 0 0 0 2.17 2.135 2.17 2.17 0 0 0 2.174-2.209z" class="cls-3" transform="translate(0 -10.162)"/>
            <path id="Path_408" d="M334.042-524.738a3.408 3.408 0 0 0-3.5.484 1.679 1.679 0 0 1 1.436-1.957 1.724 1.724 0 0 1 2.064 1.473z" class="cls-3" transform="translate(-54.177)"/>
            <path id="Path_409" d="M286.947-523.963a3.233 3.233 0 0 0-3.405-.516 1.715 1.715 0 0 1 1.933-1.41 1.666 1.666 0 0 1 1.472 1.926z" class="cls-3" transform="translate(-14.491 -.278)"/>
        </g>
    </g>
</svg>
