<svg width="25" height="22" viewBox="0 0 25 22" fill="none" xmlns="http://www.w3.org/2000/svg">
<path d="M12.5 0.5C5.84375 0.5 0.5 4.85938 0.5 10.25C0.5 12.5469 1.53125 14.6562 3.17188 16.3438C2.60938 18.7344 0.640625 20.8438 0.640625 20.8438C0.5 20.9375 0.5 21.125 0.546875 21.2656C0.59375 21.4062 0.734375 21.5 0.875 21.5C4.01562 21.5 6.3125 20 7.48438 19.0625C9.03125 19.625 10.7188 20 12.5 20C19.1562 20 24.4531 15.6406 24.4531 10.25C24.4531 4.90625 19.1094 0.5 12.5 0.5ZM10.5781 14.7969C10.4844 14.8906 10.3438 14.9844 10.2031 14.9844L7.625 15.5C7.39062 15.5469 7.20312 15.3594 7.25 15.125L7.76562 12.5469C7.76562 12.4062 7.85938 12.2656 7.95312 12.1719L12.5 7.625L15.125 10.25L10.5781 14.7969ZM17.3281 8.04688L16.2031 9.17188L13.5781 6.54688L14.7031 5.42188C15.2188 4.90625 16.0625 4.90625 16.5781 5.42188L17.3281 6.17188C17.8438 6.6875 17.8438 7.53125 17.3281 8.04688Z" fill="white"/>
</svg>
