<svg xmlns="http://www.w3.org/2000/svg" width="50" height="50" viewBox="0 0 50 50">
    <g fill="none" fill-rule="evenodd" transform="translate(3 3)">
        <circle cx="22" cy="22" r="22" fill="#FFE9E9"/>
        <circle cx="22" cy="22" r="23.25" stroke="#FF6161" stroke-width="2.5"/>
        <path stroke="#FF6161" stroke-linecap="square" stroke-width="2.5" d="M37.5 6.5L6.5 37.5"/>
        <g fill="#FF6161" stroke="#FFE9E9" stroke-width="1.3">
            <path d="M21.625-.65c-1.388 0-2.644.562-3.553 1.472-.91.91-1.472 2.165-1.472 3.553 0 1.09.348 2.1.938 2.924-.86.367-1.612.941-2.19 1.66-.781.969-1.248 2.2-1.248 3.541v4.4h15.05v-4.4c0-1.34-.467-2.572-1.247-3.541-.579-.719-1.33-1.293-2.191-1.66.59-.823.938-1.833.938-2.924 0-1.388-.562-2.644-1.472-3.553-.91-.91-2.165-1.472-3.553-1.472z" transform="translate(7 12)"/>
            <path d="M6.875-.65c-1.388 0-2.644.562-3.553 1.472-.91.91-1.472 2.165-1.472 3.553 0 1.09.348 2.1.938 2.924-.86.367-1.612.941-2.19 1.66-.781.969-1.248 2.2-1.248 3.541v4.4H14.4v-4.4c0-1.34-.467-2.572-1.247-3.541-.579-.719-1.33-1.293-2.191-1.66.59-.823.938-1.833.938-2.924 0-1.388-.562-2.644-1.472-3.553C9.518-.088 8.263-.65 6.875-.65z" transform="translate(7 12)"/>
            <path d="M14.125 4.1c-1.388 0-2.644.562-3.553 1.472-.91.91-1.472 2.165-1.472 3.553 0 1.09.348 2.1.938 2.924-.86.367-1.612.941-2.19 1.66-.781.969-1.248 2.2-1.248 3.541v4.4h15.05v-4.4c0-1.34-.467-2.572-1.247-3.541-.579-.719-1.33-1.293-2.191-1.66.59-.823.938-1.833.938-2.924 0-1.388-.562-2.644-1.472-3.553-.91-.91-2.165-1.472-3.553-1.472z" transform="translate(7 12)"/>
        </g>
    </g>
</svg>
