<?xml version="1.0" encoding="utf-8"?>
<!-- Generator: Adobe Illustrator 26.2.1, SVG Export Plug-In . SVG Version: 6.00 Build 0)  -->
<svg version="1.1" id="a" xmlns="http://www.w3.org/2000/svg" xmlns:xlink="http://www.w3.org/1999/xlink" x="0px" y="0px"
	 viewBox="0 0 427.1 427.1" style="enable-background:new 0 0 427.1 427.1;" xml:space="preserve">
<style type="text/css">
	.st0{fill:#3BB5F2;}
	.st1{fill:#656869;}
	.st2{opacity:0.44;fill:#656869;enable-background:new    ;}
	.st3{fill:#F9E915;}
	.st4{fill:#4D93B7;}
	.st5{fill:#FFFFFF;}
	.st6{fill:none;}
</style>
<g id="b">
	<circle class="st0" cx="213.8" cy="212.5" r="75.8"/>
</g>
<g id="c" transform="translate(-1 5.075)">
	<g id="d" transform="translate(0.944 4.925)">
		<g id="e" transform="translate(0.056 0.075)">
			<path id="f" class="st1" d="M235.4,124.8c-0.1-0.4-0.3-0.8-0.5-1.2l-0.3-0.8c-4.8-11.2-14.6-19.8-26.6-22.9c-0.1,0-0.1,0-0.2-0.1
				c-0.8-0.2-1.6-0.4-2.3-0.5c-2.8-0.5-5.7-0.8-8.6-0.8c-6,0-12,1.2-17.6,3.6c-8.3,3.6-15.2,9.7-19.7,17.6c-2.2,4-3.9,8.2-5.1,12.6
				c-1,4.5-1.4,9.1-1.2,13.7c0.2,3.8,0.7,7.5,1.5,11.1l0,0c1.1-1.4,2.2-2.7,3.3-4c19.1-21.6,49-30.2,76.7-21.8
				c0.9,0.3,1.7,0.5,2.6,0.8C236.9,129.6,236.2,127.1,235.4,124.8L235.4,124.8z M161.8,138.2c0.2-1.3,0.4-2.6,0.7-4
				c1-3.6,2.4-7.1,4.2-10.3c3.5-6.3,9-11.2,15.6-14c4.6-1.9,9.5-2.9,14.4-2.9c2.4,0,4.8,0.2,7.1,0.6c8.2,1.3,15.5,6.1,20.1,13.1
				C201.7,117.8,179.3,124.1,161.8,138.2z M235.4,124.8c-0.1-0.4-0.3-0.8-0.5-1.2l-0.3-0.8c-4.8-11.2-14.6-19.8-26.6-22.9
				c-0.1,0-0.1,0-0.2-0.1c-0.8-0.2-1.6-0.4-2.3-0.5c-2.8-0.5-5.7-0.8-8.6-0.8c-6,0-12,1.2-17.6,3.6c-8.3,3.6-15.2,9.7-19.7,17.6
				c-2.2,4-3.9,8.2-5.1,12.6c-1,4.5-1.4,9.1-1.2,13.7c0.2,3.8,0.7,7.5,1.5,11.1l0,0c1.1-1.4,2.2-2.7,3.3-4
				c19.1-21.6,49-30.2,76.7-21.8c0.9,0.3,1.7,0.5,2.6,0.8C236.9,129.6,236.2,127.1,235.4,124.8L235.4,124.8z M161.8,138.2
				c0.2-1.3,0.4-2.6,0.7-4c1-3.6,2.4-7.1,4.2-10.3c3.5-6.3,9-11.2,15.6-14c4.6-1.9,9.5-2.9,14.4-2.9c2.4,0,4.8,0.2,7.1,0.6
				c8.2,1.3,15.5,6.1,20.1,13.1C201.7,117.8,179.3,124.1,161.8,138.2z M255.1,263.9c-0.8,0.5-1.6,1.1-2.4,1.6c-1,0.6-2,1.2-3,1.8
				c-0.8,0.4-1.5,0.9-2.3,1.3c2.5,1.8,3.9,2.8,3.9,2.8l7.3-4.9C257.6,265.7,256.4,264.8,255.1,263.9L255.1,263.9z M246.5,136
				c1.5,0.8,3,1.6,4.4,2.4c-0.1-1.2-0.2-2.4-0.4-3.5c-1.4-11.1-6.2-21.5-13.8-29.7c-3.8-4.1-8.2-7.6-13.2-10.2
				c-4.9-2.5-10.2-4.2-15.7-5c-2.9-0.4-5.8-0.7-8.7-0.7c-7.9,0-15.7,1.7-22.9,4.9c-10,4.6-18.2,12.3-23.3,22
				c-2.5,4.7-4.4,9.7-5.6,14.9c-1,5.2-1.3,10.6-1,15.9c0.5,5.9,1.6,11.7,3.3,17.3c0.6-0.9,1.2-1.9,1.8-2.8c0-0.1,0.1-0.1,0.1-0.2
				c-1.5-4.9-2.4-10-2.8-15.1c-0.3-5,0-10,0.9-15c1.1-4.9,2.9-9.6,5.2-14.1c4.8-9.1,12.4-16.3,21.8-20.6c6.8-3.1,14.1-4.7,21.5-4.7
				c2.8,0,5.5,0.2,8.2,0.6c5.1,0.8,10,2.4,14.6,4.7c2.9,1.5,5.6,3.3,8.1,5.4c0.4,0.4,0.9,0.8,1.3,1.2c1,0.9,2,1.9,2.9,2.9
				c7.1,7.7,11.6,17.5,13,27.9c0,0.2,0,0.5,0,0.7L246.5,136L246.5,136z M234.9,123.6l-0.3-0.8c-4.8-11.2-14.6-19.8-26.6-22.9
				c-0.1,0-0.1,0-0.2-0.1c-0.8-0.2-1.6-0.4-2.3-0.5c-2.8-0.5-5.7-0.8-8.6-0.8c-6,0-12,1.2-17.6,3.6c-8.3,3.6-15.2,9.7-19.7,17.6
				c-2.2,4-3.9,8.2-5.1,12.6c-1,4.5-1.4,9.1-1.2,13.7c0.2,3.8,0.7,7.5,1.5,11.1l0,0c1.1-1.4,2.2-2.7,3.3-4
				c19.1-21.6,49-30.2,76.7-21.8c0.9,0.3,1.7,0.5,2.6,0.8c-0.4-2.6-1.1-5-1.9-7.4C235.2,124.4,235.1,124,234.9,123.6L234.9,123.6z
				 M161.8,138.2c0.2-1.3,0.4-2.6,0.7-4c1-3.6,2.4-7.1,4.2-10.3c3.5-6.3,9-11.2,15.6-14c4.6-1.9,9.5-2.9,14.4-2.9
				c2.4,0,4.8,0.2,7.1,0.6c8.2,1.3,15.5,6.1,20.1,13.1C201.7,117.8,179.3,124.1,161.8,138.2z M194.9,274.2c1.2,0.3,2.5,0.6,3.8,0.9
				C197.4,274.8,196.1,274.5,194.9,274.2L194.9,274.2z M144.4,166.2l-5.9-2.5l-112.4-48L15.2,111l6.9,9.6l58,80.8l1.8,2.5l2.6-1.6
				l23.9-14.5c10,4.5,20.3,8.2,30.8,11.1c0.1-1.3,0.2-2.6,0.3-3.8c-1-0.3-2.1-0.6-3.1-0.9c-9.1-2.8-18-6-26.7-9.7
				c-0.8-0.3-1.6-0.7-2.4-1l-25.4,15.3l-0.1-0.1L24,118.1L136.1,166l0.2,0.1l-14.8,8.9l-0.1,0c0.7,0.3,1.4,0.6,2.2,0.9
				c6.4,2.7,12.4,5,18.3,6.9c0.3-0.9,0.5-1.9,0.8-2.9c-4.4-1.5-8.8-3.1-13.1-4.9l9.3-5.6L144.4,166.2L144.4,166.2z"/>
			<path class="st1" d="M254.2,130.7c-2-11.1-7.1-21.3-14.7-29.6c-4.1-4.6-9.1-8.4-14.5-11.2c-5.4-2.7-11.2-4.6-17.2-5.5
				c-3.1-0.5-6.3-0.7-9.5-0.7c-8.6,0-17.2,1.8-25,5.4c-10.9,5-19.9,13.5-25.6,24.2c-2.7,5.1-4.7,10.5-6,16.1
				c-1.1,5.7-1.5,11.6-1.1,17.4c0.3,4.4,1,8.8,2.1,13.1l-3.1-1.4l-112.4-48L0,98.9l17.2,24l58,80.8l4.4,6.2l6.5-3.9l21.8-13.2
				c8.1,3.4,15.6,6.1,22.9,8.4v1.2c0.1,45.6,37,82.5,82.6,82.6c29.8,0.1,57.3-16,72-42C307.8,203.4,293.8,153.1,254.2,130.7
				L254.2,130.7z M255.1,263.9c1.3,0.9,2.5,1.8,3.6,2.6l-7.3,4.9c0,0-1.4-1-3.9-2.8c-3.5,1.9-7.2,3.5-11,4.8
				c-7.4,2.5-15.2,3.8-23.1,3.6c-5-0.1-10-0.8-14.8-1.8c-1.3-0.3-2.5-0.5-3.8-0.9v-0.1c-1.4-0.4-2.7-0.8-4.1-1.2
				c-28.5-9.7-50.4-36.2-51.7-70.4c0-1,0-2.2,0.1-3.5c-10.5-2.9-20.8-6.6-30.8-11.1l-23.9,14.5l-2.6,1.6l-1.8-2.5l-58-80.8l-6.9-9.6
				l10.9,4.7l112.3,48l5.9,2.5l-5.5,3.3l-9.3,5.6c4.3,1.8,8.7,3.4,13.1,4.9c1.7-5.5,4.1-10.8,7-15.7c-1.7-5.6-2.8-11.4-3.3-17.3
				c-0.4-5.3,0-10.7,1-15.9c1.2-5.2,3.1-10.2,5.6-14.9c5.1-9.7,13.3-17.4,23.3-22c7.2-3.3,15-5,22.9-4.9c2.9,0,5.8,0.2,8.7,0.7
				c5.4,0.8,10.7,2.5,15.7,5c4.9,2.6,9.4,6,13.2,10.2c7.6,8.2,12.4,18.6,13.8,29.7c0.1,1.2,0.3,2.4,0.4,3.5
				c22.7,13.3,36.9,37.7,36.9,64.3C287.8,227.8,274.4,250.4,255.1,263.9L255.1,263.9z"/>
			<path id="g" class="st2" d="M255.1,263.9c-5.2-3.7-11.7-8.3-18.6-13.3c-1.3-1-2.7-2-4.1-3c-14.2-10.4-29.2-21.8-36.8-29.8
				c-4-4.2-7.7-8.5-11.2-12.8c3.2-0.2,6.4-0.6,9.6-1.2c10.6-1.9,20.7-6.1,29.6-12.2c8.2-5.5,15.1-12.9,19.9-21.4
				c0.6-0.9,1.1-1.9,1.6-2.9c0.2-0.4,0.4-0.8,0.6-1.2c4.1-8.7,5.8-18.2,5.2-27.7c-0.1-1.2-0.2-2.4-0.4-3.5
				c-1.4-11.1-6.2-21.5-13.8-29.7c-3.8-4.1-8.2-7.6-13.2-10.2c-4.9-2.5-10.2-4.2-15.7-5c-2.9-0.4-5.8-0.7-8.7-0.7
				c-7.9,0-15.7,1.7-22.9,4.9c-10,4.6-18.2,12.3-23.3,22c-2.5,4.7-4.4,9.7-5.6,14.9c-1,5.2-1.3,10.6-1,15.9
				c0.5,5.9,1.6,11.7,3.3,17.3c1.3,4.2,2.9,8.2,4.8,12.2c1.2,2.6,2.6,5.2,4.2,8c-5.4-1.2-10.8-2.8-16.1-4.5
				c-4.4-1.5-8.8-3.1-13.1-4.9l9.3-5.6l5.5-3.3l-5.9-2.5l-112.3-48L15.2,111l6.9,9.6l58,80.8l1.8,2.5l2.6-1.6l23.9-14.5
				c10,4.5,20.3,8.2,30.8,11.1c7.7,2.2,15.6,3.9,23.6,5.2c3.1,0.4,6.4,0.7,10.1,0.9c1.3,1.6,2.6,3.2,3.9,4.7c0.9,1,1.8,2.1,2.7,3.1
				c3.3,3.7,6.6,7.3,10.1,10.8c8,8,27.8,22.9,42.8,34c1.4,1,2.8,2,4.1,3c4.5,3.3,8.3,6,11,8c2.5,1.8,3.9,2.8,3.9,2.8l7.3-4.9
				C257.6,265.7,256.4,264.8,255.1,263.9L255.1,263.9z M157.4,146.5c-0.1-4.3,0.2-8.6,1.2-12.8c1.1-4.1,2.7-8,4.8-11.6
				c4.1-7.2,10.4-12.9,18.1-16.2c5.2-2.2,10.7-3.3,16.3-3.3c2.7,0,5.4,0.2,8,0.7c14.6,2.8,25.8,13.9,29,28.1
				c0.4,1.7,0.7,3.5,0.8,5.2c0.8,8.1-0.8,16.2-4.6,23.4c-1.2,2.2-2.5,4.2-4,6.1c-1.1,1.4-2.3,2.8-3.5,4.1c-2.7,2.8-5.8,5.3-9.2,7.4
				c-8,5.3-17.2,8.4-26.8,9.2c-2.3,0.2-4.7,0.3-7.1,0.3c-0.7,0-1.5,0-2.2,0c-1.4,0-2.9-0.1-4.3-0.2c-0.9-0.1-1.8-0.1-2.6-0.2
				c-2.9-4.6-5.4-9.4-7.6-14.3c-2.8-6.1-4.7-12.6-5.7-19.2C157.7,150.9,157.5,148.7,157.4,146.5L157.4,146.5z"/>
			<path id="h" class="st3" d="M249.8,267.3c-15.6-10.7-45.3-33.4-58.8-46.7c-6.2-6.2-12-12.7-17.4-19.5c-3.8-0.1-7.6-0.4-11.3-0.9
				c-19-3.1-37.5-8.7-55.1-16.7l-25.4,15.3l-58-80.8l112.3,48l-14.9,9c13.6,6.2,27.9,10.7,42.7,13.4h0.5c-3-4.5-5.6-9.2-8-14.1
				c-4.4-8.9-7-18.4-7.8-28.3c-0.3-5,0-10,0.9-14.9c1.1-4.9,2.9-9.6,5.2-14.1c4.8-9,12.5-16.2,21.8-20.5c6.8-3.1,14.1-4.7,21.5-4.6
				c2.8,0,5.5,0.2,8.2,0.6c5.1,0.8,10,2.3,14.6,4.7c4.6,2.4,8.8,5.7,12.3,9.5c7.1,7.7,11.6,17.5,12.9,27.9
				c1.4,10.5-0.4,21.1-5.1,30.6c-4.7,9.3-11.8,17.2-20.5,23.1c-8.5,5.9-18.1,9.9-28.3,11.7c-5.1,0.9-10.3,1.4-15.5,1.4h-0.1
				c4.8,6.3,10,12.4,15.4,18.1c13,13.7,45.5,35.2,60.8,46.3L249.8,267.3L249.8,267.3z M196.7,98.5c-6,0-12,1.2-17.6,3.6
				c-8.3,3.6-15.2,9.7-19.7,17.6c-2.2,4-4,8.2-5.1,12.6c-1,4.5-1.4,9.1-1.2,13.7c0.5,9.4,2.8,18.5,6.6,27c2.5,5.6,5.4,10.9,8.7,16.1
				c3.7,0.5,7.4,0.7,11.1,0.7c2.5,0,5-0.1,7.4-0.4c10.1-0.8,19.8-4.2,28.2-9.8c7.5-4.6,13.6-11.1,17.8-18.8
				c4.1-7.7,5.8-16.5,4.9-25.2c-1.5-18-14.8-32.9-32.6-36.3C202.4,98.8,199.6,98.5,196.7,98.5L196.7,98.5z"/>
		</g>
	</g>
</g>
<g>
	<g>
		<path class="st4" d="M252.1,187.7l-1.6,4.4c-0.1,0.3-0.1,0.7-0.1,1c-2.3,8.4-4.7,16.7-7,25.1l5.6,5.4l-17,20.6l0.4,4.4v35.7
			c-6,1.5-12.2,2.3-18.6,2.3c-5.2,0-10.3-0.5-15.2-1.5c-1.3-0.3-2.5-0.5-3.8-0.9v-35.7l-0.2-4.3l-15.9-20.7l0.8-0.6l2.3-2l1.6-1.4
			l1.1-1c-0.7-2.5-1.5-5-2.2-7.5c-1.1-3.8-2.2-7.5-3.3-11.3c-0.3-0.9-0.5-1.8-0.8-2.7c-0.4-1.4-0.9-2.9-1.3-4.4
			c-0.1-0.2-0.1-0.5-0.1-0.8l-1.3-4.3c0.5-2.4,1-4.7,1.6-7c0.1-0.2,0.8-0.5,1.2-0.5c6.4,0,12.8,0,19.2,0H209v0l-0.1-4.1v-23.8h10.2
			v23.8l-0.2,4.1h28.6c0.8,0,1.4,0,1.8,0.1c0.2,0.1,0.4,0.1,0.6,0.2c0.1,0,0.1,0.1,0.1,0.1c0,0,0,0.1,0.1,0.1
			c0.1,0.1,0.1,0.2,0.2,0.3c0.2,0.4,0.3,1,0.5,1.8C251.3,184.4,251.7,186,252.1,187.7L252.1,187.7z"/>
		<path class="st4" d="M256,186.7l-0.4-1.6c-0.3-1.1-0.6-2.2-0.8-3.3c-0.4-1.8-0.8-3.3-2.3-4.5c-1.5-1.2-3.2-1.2-4.9-1.2h-24.4
			v-23.8c0-2.2-1.8-4.1-4.1-4.1h-10.2c-2.2,0-4.1,1.8-4.1,4.1v23.8h-7.4c-6.3,0-12.8,0-19.2,0c-2,0-4.5,1.1-5.1,3.5
			c-0.5,1.9-0.9,3.8-1.3,5.8l-0.3,1.4c-0.1,0.7-0.1,1.4,0.1,2.1l1.2,3.9c0,0.3,0.1,0.6,0.2,1c0.3,1,0.6,2,0.9,3
			c0.3,0.9,0.6,1.9,0.8,2.8c1.1,3.8,2.2,7.7,3.4,11.6c0.3,0.9,0.6,1.9,0.8,2.8c0.3,1.1,0.6,2.1,0.9,3.2l-0.8,0.6l-2.3,2l-0.7,0.6
			c-1.6,1.4-1.9,3.9-0.6,5.6l15.2,19.6l0.1,2.9v34.3c1.3,0.5,2.7,0.9,4.1,1.2v-35.6l-0.2-4.3l-15.9-20.7l0.8-0.6l2.3-2l1.6-1.4
			l1.1-1c-0.7-2.5-1.5-5-2.2-7.5c-1.1-3.8-2.2-7.5-3.3-11.3c-0.3-0.9-0.5-1.8-0.8-2.7c-0.4-1.4-0.9-2.9-1.3-4.4
			c-0.1-0.2-0.1-0.5-0.1-0.8l-1.3-4.3c0.5-2.4,1-4.7,1.6-7c0.1-0.2,0.8-0.5,1.2-0.5c6.4,0,12.8,0,19.2,0H209v0l-0.1-4.1v-23.8h10.2
			v23.8l-0.2,4.1h28.6c0.8,0,1.4,0,1.8,0.1c0.2,0.1,0.4,0.1,0.6,0.2c0.1,0,0.1,0.1,0.1,0.1c0,0,0,0.1,0.1,0.1
			c0.1,0.1,0.1,0.2,0.2,0.3c0.2,0.4,0.3,1,0.5,1.8c0.4,1.6,0.8,3.2,1.2,4.9l-1.6,4.4c-0.1,0.3-0.1,0.7-0.1,1
			c-2.3,8.4-4.7,16.7-7,25.1l5.6,5.4l-17,20.6l0.4,4.4v35.7c-6,1.5-12.2,2.3-18.6,2.3c-5.2,0-10.3-0.5-15.2-1.5
			c4.8,1.1,9.7,1.7,14.8,1.8c7.9,0.2,15.7-1.1,23.1-3.6v-34.8c0-0.1,0-0.3,0-0.4l-0.3-2.7l15.9-19.3c1.4-1.6,1.2-4-0.3-5.5l-3.9-3.8
			c1.3-4.8,2.7-9.7,4-14.4c0.8-2.8,1.6-5.6,2.3-8.4c0,0,0,0,0,0c0.1-0.4,0.2-0.8,0.2-1.1l1.4-3.9C256.2,188.3,256.2,187.5,256,186.7
			L256,186.7z"/>
	</g>
	<g>
		<polygon class="st5" points="208.9,176.1 208.9,176.1 208.9,175.7 		"/>
		<path class="st6" d="M208.9,175.7v0.3l0,0V175.7 M208.9,171.7L208.9,171.7c-2.3,0-4.1,1.8-4.1,4.1v0.3c0,2.2,1.8,4.1,4.1,4.1
			c1.1,0,2.1-0.4,2.9-1.2s1.2-1.9,1.2-2.9v-0.3C213,173.4,211.2,171.7,208.9,171.7L208.9,171.7L208.9,171.7z"/>
	</g>
</g>
<g>
	<polygon class="st4" points="208.9,175.7 209.1,186.2 218.8,182.1 219.1,176.1 	"/>
	<g>
		<polygon class="st4" points="175.5,187.7 176.9,192 250.5,192 252.1,187.7 		"/>
		<polygon class="st4" points="178.7,223.5 184.5,218.6 243.3,218.1 249,223.5 		"/>
		<polygon class="st4" points="193.3,219.4 185.9,186.7 247.9,186.7 234.1,221.2 193.7,219.4 		"/>
		<g>
			<path class="st5" d="M232.4,248.5l0.2,36.1c-12.2,3.2-26,3.2-37.8-0.4v-35.7L232.4,248.5L232.4,248.5z"/>
			<path class="st5" d="M252.1,187.7h-76.6c0.5-2.4,1-4.7,1.6-7c0.1-0.2,0.8-0.5,1.2-0.5c6.4,0,12.8,0,19.2,0c16.7,0,33.4,0,50,0
				c1.8,0,2.9,0.9,3.4,2.7C251.3,184.4,251.7,186,252.1,187.7L252.1,187.7z"/>
			<polygon class="st5" points="178.7,223.5 249,223.5 232,244.1 194.7,244.2 			"/>
			<rect x="208.9" y="152.3" class="st5" width="10.2" height="23.7"/>
			<path class="st5" d="M225.8,192c-0.9,9.1-1.8,18.1-2.8,27.2h-18.4c-1-9-2-18.1-3.1-27.2L225.8,192L225.8,192z"/>
			<path class="st5" d="M227.9,219.3c0.9-9.2,1.8-18.1,2.8-27.2h19.9c-0.1,0.3-0.1,0.7-0.1,1c-2.3,8.4-4.7,16.7-7,25.1
				c-0.2,0.9-0.6,1.2-1.6,1.2c-4.1-0.1-8.3,0-12.4,0C228.9,219.3,228.5,219.3,227.9,219.3L227.9,219.3z"/>
			<path class="st5" d="M176.9,192h19.9c1,9.1,2,18.1,3.1,27.2c-0.4,0.1-0.7,0.1-1,0.1c-4.4,0-8.9,0-13.3,0c-0.4,0-0.9-0.4-1-0.7
				c-2.6-8.6-5.1-17.2-7.6-25.8C176.9,192.5,176.9,192.3,176.9,192L176.9,192z"/>
		</g>
		<polygon class="st4" points="194.7,244.2 194.9,248.5 232.4,248.5 232,244.1 		"/>
	</g>
</g>
</svg>
