<?xml version="1.0"?>
<svg xmlns="http://www.w3.org/2000/svg" xmlns:xlink="http://www.w3.org/1999/xlink" version="1.1" id="Capa_1" x="0px" y="0px" viewBox="0 0 512 512" style="enable-background:new 0 0 512 512;" xml:space="preserve" width="512px" height="512px" class=""><g><g>
	<g>
		<path d="M181.333,0H74.667c-17.643,0-32,14.357-32,32v448c0,17.643,14.357,32,32,32h106.667c17.643,0,32-14.357,32-32V32    C213.333,14.357,198.976,0,181.333,0z" data-original="#000000" class="active-path" data-old_color="#000000" fill="#828282"/>
	</g>
</g><g>
	<g>
		<path d="M437.333,0H330.667c-17.643,0-32,14.357-32,32v448c0,17.643,14.357,32,32,32h106.667c17.643,0,32-14.357,32-32V32    C469.333,14.357,454.976,0,437.333,0z" data-original="#000000" class="active-path" data-old_color="#000000" fill="#828282"/>
	</g>
</g></g> </svg>
