<svg width="47" height="41" viewBox="0 0 47 41" fill="none" xmlns="http://www.w3.org/2000/svg">
<g id="Page 1 Copy 13">
<g id="Group 6">
<path id="Fill 2" fill-rule="evenodd" clip-rule="evenodd" d="M46.4474 15.3977L46.4243 15.4785L43.8939 14.8459C44.2665 13.5421 44.3732 12.1513 44.1935 10.7723C44.0167 9.39319 43.5597 8.03211 42.8736 6.78652C41.5038 4.29867 39.2195 2.24681 36.4973 1.33971C35.1343 0.91837 33.6757 0.864814 32.2722 1.13259C30.8659 1.39996 29.5208 2.00874 28.3362 2.85559C25.9546 4.55306 24.2563 7.21831 23.5451 10.1384L22.9218 9.9823L22.9421 9.90029L23.5637 10.0559C23.1874 11.6158 23.1185 13.253 23.331 14.8572C23.5418 16.463 24.0082 18.0333 24.6335 19.5328C25.8975 22.5349 27.743 25.2591 29.7916 27.7754C31.8488 30.293 34.1311 32.6143 36.5228 34.803C38.917 36.9913 41.4255 39.0465 44.0058 41C41.3947 39.0908 38.8513 37.0779 36.4182 34.9273C33.9863 32.7758 31.6599 30.4875 29.5483 27.9901C27.4465 25.4926 25.5362 22.7767 24.1943 19.7324C23.5309 18.2115 23.0228 16.6044 22.777 14.9383C22.5288 13.2756 22.5706 11.5534 22.9421 9.90029L23.5637 10.0559L23.5451 10.1384L22.9218 9.9823C23.6108 6.90618 25.3431 4.04345 27.865 2.16899C29.1197 1.23385 30.5629 0.54306 32.0966 0.219214C33.6282 -0.114674 35.2385 -0.0602814 36.7612 0.335531C39.829 1.05812 42.5715 3.07358 44.3996 5.78987C45.314 7.15053 46.0001 8.70282 46.3627 10.3618C46.7276 12.0187 46.7544 13.7802 46.4243 15.4785L43.8939 14.8459L43.9097 14.7626L46.4474 15.3977Z" fill="#3BB5F2"/>
<path id="Fill 4" fill-rule="evenodd" clip-rule="evenodd" d="M7.50141 14.8046C14.9247 22.3156 22.4778 23.5387 22.5638 23.5513L22.6689 23.5715C26.6083 24.5069 30.1823 24.7297 33.2909 24.2354C39.1536 23.3028 42.8537 19.9051 44.2893 14.1379L46.6552 14.6967C44.9907 21.3822 40.5053 25.4896 33.6832 26.5756C32.4824 26.7668 31.2248 26.8621 29.9141 26.8621C27.4923 26.8621 24.8919 26.5361 22.1411 25.8864C21.3517 25.7599 14.347 24.4725 7.06897 17.7395L7.50141 14.8046Z" fill="#3BB5F2"/>
</g>
<path id="Fill 1" fill-rule="evenodd" clip-rule="evenodd" d="M10.2135 25.4483L19.7931 19.7067L0 11.3104L10.2135 25.4483Z" fill="#596B6A"/>
</g>
</svg>
