<svg xmlns="http://www.w3.org/2000/svg" width="40.456" height="29.166" viewBox="0 0 40.456 29.166">
    <defs>
        <style>
            .cls-1{fill:#3bb5f2}
        </style>
    </defs>
    <g id="Group_92" transform="translate(0 -.164)">
        <path id="Path_42" d="M2918.377-2030.789a.84.84 0 0 1-.674-.337.842.842 0 0 1 .168-1.18l2.471-1.854-2.471-1.854a.842.842 0 0 1-.168-1.18.844.844 0 0 1 1.18-.168l3.372 2.528a.843.843 0 0 1 .337.674.843.843 0 0 1-.337.674l-3.372 2.529a.846.846 0 0 1-.506.168z" class="cls-1" transform="translate(-2900.677 2060.119)"/>
        <path id="Path_43" d="M2860.623-2053.681a67.434 67.434 0 0 1-7.171-.359c-3.058-.308-13.057-1.619-13.057-5.54 0-1.6 1.65-2.937 4.9-3.971a.866.866 0 0 1 1.108.8.837.837 0 0 1-.667.826c-2.7.868-3.656 1.8-3.656 2.342 0 1.122 3.582 3.061 11.547 3.864a65.675 65.675 0 0 0 7 .351.843.843 0 0 1 .843.843.843.843 0 0 1-.847.844z" class="cls-1" transform="translate(-2840.395 2080.482)"/>
        <path id="Path_44" d="M2956.874-2053.944a.843.843 0 0 1-.839-.773.844.844 0 0 1 .772-.909c8.681-.71 12.727-2.785 12.727-3.965 0-.543-.976-1.489-3.729-2.365a.846.846 0 0 1-.548-1.059.843.843 0 0 1 1.059-.547c3.254 1.035 4.9 2.371 4.9 3.971 0 4.155-10.926 5.371-14.276 5.646z" class="cls-1" transform="translate(-2930.763 2080.492)"/>
        <g id="Icon_ionic-ios-cube" transform="translate(6.142 -3.211)">
            <path id="Path_366" d="M23.956 7.573l-9.225-4.136a.716.716 0 0 0-.582 0l-9.23 4.136a.433.433 0 0 0-.021.762l9.2 4.847a.7.7 0 0 0 .67 0l9.2-4.847a.433.433 0 0 0-.012-.762z" class="cls-1" transform="translate(-.349)"/>
            <path id="Path_367" d="M19.489 27l9.276-4.908a.416.416 0 0 0 .185-.35v-9.523a.384.384 0 0 0-.551-.366l-9.276 4.78a.406.406 0 0 0-.216.366v9.647a.389.389 0 0 0 .582.354z" class="cls-1" transform="translate(-4.154 -2.256)"/>
            <path id="Path_368" d="M3.375 12.219v9.518a.416.416 0 0 0 .185.35L12.837 27a.38.38 0 0 0 .577-.35V17a.406.406 0 0 0-.216-.366l-9.271-4.78a.385.385 0 0 0-.552.365z" class="cls-1" transform="translate(0 -2.256)"/>
        </g>
    </g>
</svg>
