<svg xmlns="http://www.w3.org/2000/svg" width="33" height="33" viewBox="0 0 33 33">
    <defs>
        <filter id="a" width="112.3%" height="165.7%" x="-6.1%" y="-32.9%" filterUnits="objectBoundingBox">
            <feOffset dy="2" in="SourceAlpha" result="shadowOffsetOuter1"/>
            <feGaussianBlur in="shadowOffsetOuter1" result="shadowBlurOuter1" stdDeviation="5"/>
            <feColorMatrix in="shadowBlurOuter1" result="shadowMatrixOuter1" values="0 0 0 0 0 0 0 0 0 0 0 0 0 0 0 0 0 0 0.3 0"/>
            <feMerge>
                <feMergeNode in="shadowMatrixOuter1"/>
                <feMergeNode in="SourceGraphic"/>
            </feMerge>
        </filter>
    </defs>
    <path fill="#8E8E93" fill-rule="evenodd" d="M23.743 20.574L19.91 16.74a5.425 5.425 0 0 0 1.05-3.232A5.532 5.532 0 0 0 15.46 8 5.436 5.436 0 0 0 10 13.468a5.532 5.532 0 0 0 5.5 5.508 5.408 5.408 0 0 0 3.242-1.061l.004-.003 3.83 3.831a.826.826 0 1 0 1.167-1.169zm-8.247-2.696a4.425 4.425 0 0 1-4.4-4.406 4.35 4.35 0 0 1 4.368-4.374 4.426 4.426 0 0 1 4.4 4.406 4.35 4.35 0 0 1-4.368 4.374z" filter="url(#a)"/>
</svg>
