<svg width="16" height="17" viewBox="0 0 16 17" fill="none" xmlns="http://www.w3.org/2000/svg">
<path d="M15.875 13.25C15.875 15.1484 14.3633 16.625 12.5 16.625C10.6016 16.625 9.125 15.1484 9.125 13.25C9.125 13.1445 9.125 13.0039 9.16016 12.8633L5.82031 11.2109C5.22266 11.7734 4.37891 12.125 3.5 12.125C1.60156 12.125 0.125 10.6484 0.125 8.75C0.125 6.88672 1.60156 5.375 3.5 5.375C4.37891 5.375 5.22266 5.76172 5.82031 6.32422L9.16016 4.67187C9.125 4.53125 9.125 4.39062 9.125 4.25C9.125 2.38672 10.6016 0.875 12.5 0.875C14.3633 0.875 15.875 2.38672 15.875 4.25C15.875 6.14844 14.3633 7.625 12.5 7.625C11.5859 7.625 10.7422 7.27344 10.1445 6.71094L6.80469 8.36328C6.83984 8.50391 6.875 8.60937 6.875 8.75C6.875 8.89062 6.83984 9.03125 6.80469 9.17187L10.1445 10.8242C10.7422 10.2617 11.5859 9.875 12.5 9.875C14.3633 9.875 15.875 11.3867 15.875 13.25Z" fill="#455773"/>
</svg>
