<svg width="21" height="22" viewBox="0 0 21 22" fill="none" xmlns="http://www.w3.org/2000/svg">
<path d="M21 17C21 19.5312 18.9844 21.5 16.5 21.5C13.9688 21.5 12 19.5312 12 17C12 16.8594 12 16.6719 12.0469 16.4844L7.59375 14.2812C6.79688 15.0312 5.67188 15.5 4.5 15.5C1.96875 15.5 0 13.5312 0 11C0 8.51562 1.96875 6.5 4.5 6.5C5.67188 6.5 6.79688 7.01562 7.59375 7.76562L12.0469 5.5625C12 5.375 12 5.1875 12 5C12 2.51562 13.9688 0.5 16.5 0.5C18.9844 0.5 21 2.51562 21 5C21 7.53125 18.9844 9.5 16.5 9.5C15.2812 9.5 14.1562 9.03125 13.3594 8.28125L8.90625 10.4844C8.95312 10.6719 9 10.8125 9 11C9 11.1875 8.95312 11.375 8.90625 11.5625L13.3594 13.7656C14.1562 13.0156 15.2812 12.5 16.5 12.5C18.9844 12.5 21 14.5156 21 17Z" fill="white"/>
</svg>
