<svg xmlns="http://www.w3.org/2000/svg" width="44" height="37" viewBox="0 0 44 37">
    <defs>
        <filter id="a" width="182%" height="216%" x="-40.3%" y="-58%" filterUnits="objectBoundingBox">
            <feOffset in="SourceAlpha" result="shadowOffsetOuter1"/>
            <feGaussianBlur in="shadowOffsetOuter1" result="shadowBlurOuter1" stdDeviation="3.5"/>
            <feColorMatrix in="shadowBlurOuter1" result="shadowMatrixOuter1" values="0 0 0 0 0 0 0 0 0 0 0 0 0 0 0 0 0 0 0.3 0"/>
            <feMerge>
                <feMergeNode in="shadowMatrixOuter1"/>
                <feMergeNode in="SourceGraphic"/>
            </feMerge>
        </filter>
    </defs>
    <g fill="none" fill-rule="evenodd" filter="url(#a)" transform="translate(.018 4.863)">
        <circle cx="8.845" cy="8.845" r="8.845" fill="#BB7AFF" transform="translate(15.361 4.19)"/>
        <path fill="#656869" d="M18.24 6.137c.019-.152.046-.304.078-.452.105-.39.273-.806.478-1.162a3.713 3.713 0 0 1 1.766-1.584 4.155 4.155 0 0 1 1.628-.326c.267 0 .537.024.8.073.914.134 1.723.686 2.255 1.472a9.211 9.211 0 0 0-1.176-.076c-2.157 0-4.194.731-5.83 2.055M22.36 0c-.983 0-1.958.211-2.82.61-1.205.541-2.233 1.51-2.882 2.724a7.49 7.49 0 0 0-.677 1.816 7.68 7.68 0 0 0-.127 1.959c.032.48.11.974.233 1.476l-.355-.152L3.065 3.02 0 1.71l1.942 2.71 6.537 9.113.501.699.737-.444 2.458-1.486c.899.372 1.753.687 2.585.951v.14c0 5.133 4.176 9.31 9.31 9.31 5.132 0 9.31-4.177 9.31-9.31a9.252 9.252 0 0 0-4.725-8.095 6.667 6.667 0 0 0-1.65-3.333 5.974 5.974 0 0 0-1.64-1.264 6.41 6.41 0 0 0-1.938-.62A7.225 7.225 0 0 0 22.359 0m-4.92 8.282a8.355 8.355 0 0 1 6.63-3.269 8.37 8.37 0 0 1 2.689.448c-.327-1.81-1.73-3.417-3.601-3.691a5.323 5.323 0 0 0-.967-.088c-.678 0-1.36.13-1.985.398-.929.385-1.708 1.095-2.218 1.98a6.022 6.022 0 0 0-.578 1.423 6.148 6.148 0 0 0-.14 1.54c.015.422.08.842.17 1.259M22.36.93c.31 0 .62.024.926.07.567.088 1.126.26 1.65.526.528.274.991.64 1.388 1.071a5.742 5.742 0 0 1 1.46 3.146c.006.05.003.1.008.149 2.758 1.372 4.657 4.21 4.657 7.5a8.38 8.38 0 0 1-16.758 0c0-.277.015-.55.042-.818A30.923 30.923 0 0 1 12.1 11.26l-2.866 1.73L2.7 3.876 15.365 9.29l-1.677 1.012c.76.328 1.53.627 2.306.882.24-.876.61-1.696 1.1-2.433a7.872 7.872 0 0 1-.312-1.702 6.595 6.595 0 0 1 .105-1.686c.13-.556.323-1.085.592-1.589.536-1.002 1.404-1.848 2.452-2.32a5.787 5.787 0 0 1 2.428-.522"/>
        <path fill="#656869" d="M22.457.814V.627c.327 0 .657.024.983.074.627.098 1.22.286 1.765.564.55.285 1.05.672 1.489 1.148a6.123 6.123 0 0 1 1.555 3.348 6.355 6.355 0 0 1-.607 3.658c-.507 1.046-1.347 1.995-2.427 2.742a8.394 8.394 0 0 1-3.337 1.38 9.61 9.61 0 0 1-1.085.134c.387.476.809.959 1.26 1.44a34.956 34.956 0 0 0 4.795 4.203l-.428.609a35.758 35.758 0 0 1-5.04-4.155 26.615 26.615 0 0 1-1.886-2.092c-.411-.018-.786-.05-1.14-.097-2.332-.325-4.483-1.14-6.126-1.837l-2.703 1.631-.294.178-.201-.28-6.536-9.113-.776-1.084 1.225.524 12.666 5.413.669.285-.622.376-1.05.633c1.202.49 2.277.834 3.295 1.06a13.72 13.72 0 0 1-.476-.907c-.538-1.141-.848-2.259-.917-3.322a7.013 7.013 0 0 1 .114-1.795c.14-.597.35-1.163.626-1.68.59-1.104 1.525-1.986 2.625-2.48a6.184 6.184 0 0 1 2.584-.558v.187zm-3.144 10.79c.35.038.696.057 1.027.057.272 0 .541-.013.8-.038 1.142-.114 2.156-.463 3.017-1.042.849-.554 1.483-1.221 1.882-1.986.43-.803.613-1.736.515-2.634-.17-1.885-1.61-3.499-3.367-3.757a5.01 5.01 0 0 0-.899-.082c-.641 0-1.277.127-1.842.37-.837.347-1.56.994-2.037 1.822-.228.397-.416.859-.539 1.318-.104.471-.15.971-.13 1.446.03.911.273 1.892.716 2.912.233.524.514 1.054.857 1.613z" opacity=".435"/>
        <path fill="#F9E915" d="M18.003 10.059c-.424-.972-.713-2.005-.75-3.048a6.16 6.16 0 0 1 .14-1.541c.131-.492.326-.98.579-1.423.51-.884 1.29-1.595 2.219-1.98.922-.397 1.968-.49 2.95-.31 2.009.294 3.493 2.12 3.67 4.09a4.945 4.945 0 0 1-.557 2.842c-.455.87-1.17 1.577-2.007 2.124-.955.643-2.048.988-3.185 1.1a9.411 9.411 0 0 1-2.084-.042 14.333 14.333 0 0 1-.975-1.812m3.696 3.036a8.03 8.03 0 0 0 3.188-1.32c.942-.651 1.789-1.532 2.307-2.598.527-1.06.734-2.279.573-3.446a5.742 5.742 0 0 0-1.46-3.145 5.093 5.093 0 0 0-1.387-1.073A5.488 5.488 0 0 0 23.27.99a5.893 5.893 0 0 0-3.354.452c-1.047.472-1.917 1.317-2.453 2.319a6.533 6.533 0 0 0-.591 1.589 6.597 6.597 0 0 0-.106 1.686c.075 1.122.415 2.196.882 3.188.264.552.568 1.079.896 1.588-.019-.004-.04-.005-.058-.008-1.64-.275-3.246-.837-4.812-1.515l1.675-1.012L2.683 3.864l6.536 9.113 2.866-1.73c1.968.844 4.018 1.581 6.207 1.886.42.056.846.087 1.275.1.61.772 1.274 1.501 1.964 2.195a35.257 35.257 0 0 0 4.986 4.11 35.252 35.252 0 0 1-4.847-4.248 26.195 26.195 0 0 1-1.74-2.043c.59 0 1.181-.045 1.769-.152"/>
    </g>
</svg>
