<svg xmlns="http://www.w3.org/2000/svg" xmlns:xlink="http://www.w3.org/1999/xlink" width="44" height="37" viewBox="0 0 44 37">
    <defs>
        <circle id="b" cx="24" cy="13.575" r="12.575"/>
        <filter id="a" width="195.4%" height="195.4%" x="-47.7%" y="-47.7%" filterUnits="objectBoundingBox">
            <feMorphology in="SourceAlpha" operator="dilate" radius="2" result="shadowSpreadOuter1"/>
            <feOffset in="shadowSpreadOuter1" result="shadowOffsetOuter1"/>
            <feMorphology in="SourceAlpha" radius="1" result="shadowInner"/>
            <feOffset in="shadowInner" result="shadowInner"/>
            <feComposite in="shadowOffsetOuter1" in2="shadowInner" operator="out" result="shadowOffsetOuter1"/>
            <feGaussianBlur in="shadowOffsetOuter1" result="shadowBlurOuter1" stdDeviation="3"/>
            <feColorMatrix in="shadowBlurOuter1" values="0 0 0 0 0.231372549 0 0 0 0 0.709803922 0 0 0 0 0.949019608 0 0 0 0.700092876 0"/>
        </filter>
    </defs>
    <g fill="none" fill-rule="evenodd">
        <g opacity=".7" transform="translate(-.056 4.925)">
            <use fill="#000" filter="url(#a)" xlink:href="#b"/>
            <circle cx="24" cy="13.575" r="13.575" stroke="#656869" stroke-width="2"/>
            <use stroke="#64E1A5" stroke-width="3" xlink:href="#b"/>
        </g>
        <g transform="translate(0 5)">
            <circle cx="24.206" cy="13.034" r="8.845" fill="#64E1A5"/>
            <path fill="#656869" d="M18.24 6.137c.019-.152.046-.303.078-.451.105-.391.273-.807.478-1.162a3.713 3.713 0 0 1 1.766-1.585 4.155 4.155 0 0 1 1.628-.326c.268 0 .537.025.8.073.914.134 1.723.686 2.255 1.472a9.211 9.211 0 0 0-1.176-.076c-2.157 0-4.194.731-5.83 2.055M22.36 0c-.983 0-1.958.211-2.82.61-1.205.542-2.233 1.51-2.882 2.724a7.49 7.49 0 0 0-.677 1.816 7.68 7.68 0 0 0-.127 1.96c.032.479.11.973.233 1.476l-.355-.153L3.065 3.02 0 1.711 1.942 4.42l6.537 9.114.501.7.737-.445 2.458-1.486c.899.373 1.753.687 2.585.952v.138c0 5.134 4.176 9.31 9.31 9.31 5.132 0 9.31-4.176 9.31-9.31a9.252 9.252 0 0 0-4.725-8.094 6.667 6.667 0 0 0-1.65-3.333 5.974 5.974 0 0 0-1.64-1.264 6.41 6.41 0 0 0-1.938-.62A7.225 7.225 0 0 0 22.359 0m-4.92 8.282a8.355 8.355 0 0 1 6.63-3.269 8.37 8.37 0 0 1 2.689.448c-.327-1.81-1.729-3.417-3.601-3.691a5.323 5.323 0 0 0-.967-.088c-.678 0-1.36.13-1.985.398-.929.385-1.708 1.096-2.218 1.981a6.022 6.022 0 0 0-.578 1.423 6.148 6.148 0 0 0-.14 1.54c.015.421.08.841.17 1.258M22.36.931c.31 0 .62.024.926.07.567.088 1.126.26 1.65.526.528.274.991.64 1.388 1.071a5.742 5.742 0 0 1 1.46 3.146c.006.05.003.1.008.15 2.758 1.372 4.657 4.21 4.657 7.498a8.38 8.38 0 0 1-16.758 0c0-.276.015-.548.042-.817A30.923 30.923 0 0 1 12.1 11.26l-2.865 1.73-6.536-9.113L15.365 9.29l-1.677 1.012c.76.327 1.53.626 2.306.881.24-.876.61-1.696 1.101-2.433a7.872 7.872 0 0 1-.313-1.701 6.595 6.595 0 0 1 .105-1.686c.13-.557.323-1.086.592-1.59.536-1.001 1.404-1.848 2.452-2.319a5.787 5.787 0 0 1 2.428-.523"/>
            <path fill="#656869" d="M22.457.814V.627c.327 0 .657.024.983.075.627.097 1.22.286 1.765.563.55.285 1.05.672 1.489 1.148a6.123 6.123 0 0 1 1.555 3.349 6.355 6.355 0 0 1-.607 3.658c-.507 1.045-1.347 1.994-2.427 2.741a8.394 8.394 0 0 1-3.336 1.381 9.61 9.61 0 0 1-1.086.133c.387.476.809.96 1.26 1.44a34.956 34.956 0 0 0 4.795 4.203l-.428.609a35.758 35.758 0 0 1-5.04-4.155 26.615 26.615 0 0 1-1.886-2.092c-.411-.018-.786-.05-1.14-.097-2.331-.325-4.483-1.14-6.126-1.837l-2.703 1.631-.294.178-.201-.28-6.536-9.113-.776-1.083 1.225.524 12.666 5.413.669.284-.622.377-1.05.633c1.202.488 2.277.833 3.295 1.06a13.72 13.72 0 0 1-.476-.908c-.538-1.141-.848-2.258-.917-3.321a7.013 7.013 0 0 1 .114-1.795c.14-.597.35-1.163.626-1.68.59-1.105 1.525-1.987 2.625-2.481a6.184 6.184 0 0 1 2.584-.558v.187zm-3.144 10.79c.35.038.696.057 1.028.057.271 0 .54-.013.798-.038 1.144-.113 2.157-.462 3.018-1.042.849-.553 1.483-1.221 1.882-1.985.43-.804.613-1.737.515-2.635-.17-1.884-1.61-3.499-3.366-3.757a5.01 5.01 0 0 0-.9-.082c-.641 0-1.277.127-1.842.37-.837.347-1.56.994-2.037 1.822-.228.398-.416.86-.538 1.318-.105.471-.15.971-.132 1.446.032.912.274 1.892.717 2.912.233.524.514 1.054.857 1.614z" opacity=".435"/>
            <path fill="#F9E915" d="M18.003 10.059c-.424-.972-.713-2.004-.75-3.048a6.16 6.16 0 0 1 .141-1.54c.13-.492.325-.981.578-1.423.51-.885 1.29-1.595 2.219-1.982.922-.395 1.968-.49 2.95-.309 2.01.295 3.493 2.121 3.671 4.09a4.945 4.945 0 0 1-.558 2.843c-.455.87-1.17 1.577-2.007 2.123-.955.643-2.048.988-3.185 1.1a9.411 9.411 0 0 1-2.083-.041 14.333 14.333 0 0 1-.976-1.813m3.696 3.036a8.03 8.03 0 0 0 3.189-1.32c.94-.65 1.788-1.532 2.306-2.598.527-1.06.734-2.279.573-3.445a5.742 5.742 0 0 0-1.46-3.146 5.093 5.093 0 0 0-1.387-1.073A5.488 5.488 0 0 0 23.27.99a5.893 5.893 0 0 0-3.354.453c-1.047.47-1.917 1.316-2.453 2.318a6.533 6.533 0 0 0-.591 1.59 6.597 6.597 0 0 0-.106 1.685c.075 1.122.415 2.196.882 3.188.265.552.568 1.079.896 1.588-.019-.004-.04-.004-.058-.008-1.64-.275-3.245-.836-4.812-1.515l1.675-1.012L2.683 3.864l6.536 9.114 2.866-1.73c1.968.843 4.018 1.58 6.207 1.885.42.056.846.087 1.275.1.61.773 1.274 1.502 1.964 2.195a35.257 35.257 0 0 0 4.986 4.11 35.252 35.252 0 0 1-4.847-4.248 26.195 26.195 0 0 1-1.74-2.043c.59 0 1.181-.045 1.769-.152"/>
        </g>
    </g>
</svg>
