<?xml version="1.0" encoding="UTF-8" standalone="no"?>
<svg
   xmlns:dc="http://purl.org/dc/elements/1.1/"
   xmlns:cc="http://creativecommons.org/ns#"
   xmlns:rdf="http://www.w3.org/1999/02/22-rdf-syntax-ns#"
   xmlns:svg="http://www.w3.org/2000/svg"
   xmlns="http://www.w3.org/2000/svg"
   xmlns:sodipodi="http://sodipodi.sourceforge.net/DTD/sodipodi-0.dtd"
   xmlns:inkscape="http://www.inkscape.org/namespaces/inkscape"
   width="48"
   height="48"
   viewBox="0 0 48 48"
   version="1.1"
   id="svg27"
   sodipodi:docname="show-bb7aff.svg"
   inkscape:version="0.92.4 (5da689c313, 2019-01-14)">
  <metadata
     id="metadata31">
    <rdf:RDF>
      <cc:Work
         rdf:about="">
        <dc:format>image/svg+xml</dc:format>
        <dc:type
           rdf:resource="http://purl.org/dc/dcmitype/StillImage" />
        <dc:title></dc:title>
      </cc:Work>
    </rdf:RDF>
  </metadata>
  <sodipodi:namedview
     pagecolor="#ffffff"
     bordercolor="#666666"
     borderopacity="1"
     objecttolerance="10"
     gridtolerance="10"
     guidetolerance="10"
     inkscape:pageopacity="0"
     inkscape:pageshadow="2"
     inkscape:window-width="1920"
     inkscape:window-height="1017"
     id="namedview29"
     showgrid="false"
     inkscape:zoom="6.3783784"
     inkscape:cx="22"
     inkscape:cy="18.5"
     inkscape:window-x="-8"
     inkscape:window-y="-8"
     inkscape:window-maximized="1"
     inkscape:current-layer="svg27" />
  <defs
     id="defs15">
    <filter
       id="a"
       width="1.8200001"
       height="2.1600001"
       x="-0.403"
       y="-0.57999998"
       filterUnits="objectBoundingBox">
      <feOffset
         in="SourceAlpha"
         result="shadowOffsetOuter1"
         id="feOffset2" />
      <feGaussianBlur
         in="shadowOffsetOuter1"
         result="shadowBlurOuter1"
         stdDeviation="3.5"
         id="feGaussianBlur4" />
      <feColorMatrix
         in="shadowBlurOuter1"
         result="shadowMatrixOuter1"
         values="0 0 0 0 0 0 0 0 0 0 0 0 0 0 0 0 0 0 0.3 0"
         id="feColorMatrix6" />
      <feMerge
         id="feMerge12">
        <feMergeNode
           in="shadowMatrixOuter1"
           id="feMergeNode8" />
        <feMergeNode
           in="SourceGraphic"
           id="feMergeNode10" />
      </feMerge>
    </filter>
  </defs>
  <g
     transform="translate(0.018,10.648499)"
     id="g25"
     style="fill:none;fill-rule:evenodd;filter:url(#a)">
    <circle
       cx="8.8450003"
       cy="8.8450003"
       r="8.8450003"
       transform="translate(15.361,4.19)"
       id="circle17"
       style="fill:#bb7aff" />
    <path
       d="m 18.24,6.137 c 0.019,-0.152 0.046,-0.304 0.078,-0.452 0.105,-0.39 0.273,-0.806 0.478,-1.162 A 3.713,3.713 0 0 1 20.562,2.939 4.155,4.155 0 0 1 22.19,2.613 c 0.267,0 0.537,0.024 0.8,0.073 0.914,0.134 1.723,0.686 2.255,1.472 A 9.211,9.211 0 0 0 24.069,4.082 c -2.157,0 -4.194,0.731 -5.83,2.055 M 22.36,0 C 21.377,0 20.402,0.211 19.54,0.61 18.335,1.151 17.307,2.12 16.658,3.334 A 7.49,7.49 0 0 0 15.981,5.15 7.68,7.68 0 0 0 15.854,7.109 c 0.032,0.48 0.11,0.974 0.233,1.476 L 15.732,8.433 3.065,3.02 0,1.71 l 1.942,2.71 6.537,9.113 0.501,0.699 0.737,-0.444 2.458,-1.486 c 0.899,0.372 1.753,0.687 2.585,0.951 v 0.14 c 0,5.133 4.176,9.31 9.31,9.31 5.132,0 9.31,-4.177 9.31,-9.31 A 9.252,9.252 0 0 0 28.655,5.298 6.667,6.667 0 0 0 27.005,1.965 5.974,5.974 0 0 0 25.365,0.701 6.41,6.41 0 0 0 23.427,0.081 7.225,7.225 0 0 0 22.359,0 m -4.92,8.282 a 8.355,8.355 0 0 1 6.63,-3.269 8.37,8.37 0 0 1 2.689,0.448 C 26.431,3.651 25.028,2.044 23.157,1.77 A 5.323,5.323 0 0 0 22.19,1.682 c -0.678,0 -1.36,0.13 -1.985,0.398 -0.929,0.385 -1.708,1.095 -2.218,1.98 a 6.022,6.022 0 0 0 -0.578,1.423 6.148,6.148 0 0 0 -0.14,1.54 c 0.015,0.422 0.08,0.842 0.17,1.259 M 22.36,0.93 c 0.31,0 0.62,0.024 0.926,0.07 0.567,0.088 1.126,0.26 1.65,0.526 0.528,0.274 0.991,0.64 1.388,1.071 a 5.742,5.742 0 0 1 1.46,3.146 c 0.006,0.05 0.003,0.1 0.008,0.149 2.758,1.372 4.657,4.21 4.657,7.5 a 8.38,8.38 0 0 1 -16.758,0 c 0,-0.277 0.015,-0.55 0.042,-0.818 A 30.923,30.923 0 0 1 12.1,11.26 L 9.234,12.99 2.7,3.876 15.365,9.29 13.688,10.302 c 0.76,0.328 1.53,0.627 2.306,0.882 0.24,-0.876 0.61,-1.696 1.1,-2.433 A 7.872,7.872 0 0 1 16.782,7.049 6.595,6.595 0 0 1 16.887,5.363 c 0.13,-0.556 0.323,-1.085 0.592,-1.589 0.536,-1.002 1.404,-1.848 2.452,-2.32 a 5.787,5.787 0 0 1 2.428,-0.522"
       id="path19"
       inkscape:connector-curvature="0"
       style="fill:#656869" />
    <path
       d="M 22.457,0.814 V 0.627 c 0.327,0 0.657,0.024 0.983,0.074 0.627,0.098 1.22,0.286 1.765,0.564 0.55,0.285 1.05,0.672 1.489,1.148 a 6.123,6.123 0 0 1 1.555,3.348 6.355,6.355 0 0 1 -0.607,3.658 c -0.507,1.046 -1.347,1.995 -2.427,2.742 a 8.394,8.394 0 0 1 -3.337,1.38 9.61,9.61 0 0 1 -1.085,0.134 c 0.387,0.476 0.809,0.959 1.26,1.44 a 34.956,34.956 0 0 0 4.795,4.203 L 26.42,19.927 A 35.758,35.758 0 0 1 21.38,15.772 26.615,26.615 0 0 1 19.494,13.68 c -0.411,-0.018 -0.786,-0.05 -1.14,-0.097 -2.332,-0.325 -4.483,-1.14 -6.126,-1.837 L 9.525,13.377 9.231,13.555 9.03,13.275 2.494,4.162 1.718,3.078 2.943,3.602 15.609,9.015 16.278,9.3 l -0.622,0.376 -1.05,0.633 c 1.202,0.49 2.277,0.834 3.295,1.06 A 13.72,13.72 0 0 1 17.425,10.462 C 16.887,9.321 16.577,8.203 16.508,7.14 a 7.013,7.013 0 0 1 0.114,-1.795 c 0.14,-0.597 0.35,-1.163 0.626,-1.68 0.59,-1.104 1.525,-1.986 2.625,-2.48 a 6.184,6.184 0 0 1 2.584,-0.558 z m -3.144,10.79 c 0.35,0.038 0.696,0.057 1.027,0.057 0.272,0 0.541,-0.013 0.8,-0.038 1.142,-0.114 2.156,-0.463 3.017,-1.042 0.849,-0.554 1.483,-1.221 1.882,-1.986 0.43,-0.803 0.613,-1.736 0.515,-2.634 -0.17,-1.885 -1.61,-3.499 -3.367,-3.757 A 5.01,5.01 0 0 0 22.288,2.122 c -0.641,0 -1.277,0.127 -1.842,0.37 -0.837,0.347 -1.56,0.994 -2.037,1.822 -0.228,0.397 -0.416,0.859 -0.539,1.318 -0.104,0.471 -0.15,0.971 -0.13,1.446 0.03,0.911 0.273,1.892 0.716,2.912 0.233,0.524 0.514,1.054 0.857,1.613 z"
       id="path21"
       inkscape:connector-curvature="0"
       style="opacity:0.43500001;fill:#656869" />
    <path
       d="M 18.003,10.059 C 17.579,9.087 17.29,8.054 17.253,7.011 a 6.16,6.16 0 0 1 0.14,-1.541 c 0.131,-0.492 0.326,-0.98 0.579,-1.423 0.51,-0.884 1.29,-1.595 2.219,-1.98 0.922,-0.397 1.968,-0.49 2.95,-0.31 2.009,0.294 3.493,2.12 3.67,4.09 a 4.945,4.945 0 0 1 -0.557,2.842 c -0.455,0.87 -1.17,1.577 -2.007,2.124 -0.955,0.643 -2.048,0.988 -3.185,1.1 a 9.411,9.411 0 0 1 -2.084,-0.042 14.333,14.333 0 0 1 -0.975,-1.812 m 3.696,3.036 a 8.03,8.03 0 0 0 3.188,-1.32 c 0.942,-0.651 1.789,-1.532 2.307,-2.598 0.527,-1.06 0.734,-2.279 0.573,-3.446 A 5.742,5.742 0 0 0 26.307,2.586 5.093,5.093 0 0 0 24.92,1.513 5.488,5.488 0 0 0 23.27,0.99 5.893,5.893 0 0 0 19.916,1.442 C 18.869,1.914 17.999,2.759 17.463,3.761 A 6.533,6.533 0 0 0 16.872,5.35 6.597,6.597 0 0 0 16.766,7.036 c 0.075,1.122 0.415,2.196 0.882,3.188 0.264,0.552 0.568,1.079 0.896,1.588 -0.019,-0.004 -0.04,-0.005 -0.058,-0.008 -1.64,-0.275 -3.246,-0.837 -4.812,-1.515 L 15.349,9.277 2.683,3.864 l 6.536,9.113 2.866,-1.73 c 1.968,0.844 4.018,1.581 6.207,1.886 0.42,0.056 0.846,0.087 1.275,0.1 0.61,0.772 1.274,1.501 1.964,2.195 a 35.257,35.257 0 0 0 4.986,4.11 35.252,35.252 0 0 1 -4.847,-4.248 26.195,26.195 0 0 1 -1.74,-2.043 c 0.59,0 1.181,-0.045 1.769,-0.152"
       id="path23"
       inkscape:connector-curvature="0"
       style="fill:#f9e915" />
  </g>
</svg>
