<svg xmlns="http://www.w3.org/2000/svg" width="27" height="27" viewBox="0 0 27 27">
    <g fill="none" fill-rule="evenodd">
        <path fill="#FFF" d="M-129-629h376V38h-376z"/>
        <path fill="#F7F5F5" d="M-129-11h376v49h-376z"/>
        <path fill="#2B9BE0" d="M21.736 26.915H5.18A5.179 5.179 0 0 1 0 21.736V5.18A5.179 5.179 0 0 1 5.18 0h16.557a5.179 5.179 0 0 1 5.179 5.179v16.557a5.179 5.179 0 0 1-5.179 5.179"/>
        <path fill="#FFF" d="M22.455 8.308c-.426.667-.975 1.22-1.6 1.7a.342.342 0 0 0-.152.31c.021 3.02-1.03 5.615-3.166 7.745-1.484 1.482-3.297 2.35-5.37 2.67-.7.108-1.401.17-2.109.136-1.76-.085-3.408-.557-4.921-1.471-.049-.03-.107-.05-.15-.138.943.09 1.856.015 2.75-.239a7.224 7.224 0 0 0 2.478-1.255c-1.65-.146-2.755-.97-3.365-2.52.546.087 1.052.092 1.554-.064-.241-.08-.484-.151-.71-.264-1.252-.626-1.958-1.626-2.08-3.027-.026-.292-.022-.29.246-.167.412.19.843.295 1.348.322l-.278-.228a3.616 3.616 0 0 1-.895-4.45c.066-.125.096-.125.186-.019a10.227 10.227 0 0 0 4.925 3.235c.728.22 1.473.356 2.234.402.127.007.174-.006.149-.158-.197-1.186.103-2.235.92-3.12a3.459 3.459 0 0 1 2.154-1.109c1.17-.151 2.173.21 3.025 1.014.073.068.134.087.235.065a7.322 7.322 0 0 0 1.893-.705l.25-.133a3.5 3.5 0 0 1-.593 1.12 4.707 4.707 0 0 1-.89.835 6.065 6.065 0 0 0 1.315-.28c.208-.065.399-.18.62-.206l-.003-.001z"/>
    </g>
</svg>
