<svg width="22" height="22" viewBox="0 0 22 22" fill="none" xmlns="http://www.w3.org/2000/svg">
<rect width="22" height="22" rx="11" fill="#979797" fill-opacity="0.5"/>
<mask id="path-2-outside-1_503_91559" maskUnits="userSpaceOnUse" x="4.16669" y="4.16699" width="14" height="14" fill="black">
<rect fill="white" x="4.16669" y="4.16699" width="14" height="14"/>
<path fill-rule="evenodd" clip-rule="evenodd" d="M5.41076 5.41107C5.08533 5.73651 5.08533 6.26414 5.41076 6.58958L9.82151 11.0003L5.41076 15.4111C5.08533 15.7365 5.08533 16.2641 5.41076 16.5896C5.7362 16.915 6.26384 16.915 6.58928 16.5896L11 12.1788L15.4108 16.5896C15.7362 16.915 16.2638 16.915 16.5893 16.5896C16.9147 16.2641 16.9147 15.7365 16.5893 15.4111L12.1785 11.0003L16.5893 6.58958C16.9147 6.26414 16.9147 5.73651 16.5893 5.41107C16.2638 5.08563 15.7362 5.08563 15.4108 5.41107L11 9.82181L6.58928 5.41107C6.26384 5.08563 5.7362 5.08563 5.41076 5.41107Z"/>
</mask>
<path fill-rule="evenodd" clip-rule="evenodd" d="M5.41076 5.41107C5.08533 5.73651 5.08533 6.26414 5.41076 6.58958L9.82151 11.0003L5.41076 15.4111C5.08533 15.7365 5.08533 16.2641 5.41076 16.5896C5.7362 16.915 6.26384 16.915 6.58928 16.5896L11 12.1788L15.4108 16.5896C15.7362 16.915 16.2638 16.915 16.5893 16.5896C16.9147 16.2641 16.9147 15.7365 16.5893 15.4111L12.1785 11.0003L16.5893 6.58958C16.9147 6.26414 16.9147 5.73651 16.5893 5.41107C16.2638 5.08563 15.7362 5.08563 15.4108 5.41107L11 9.82181L6.58928 5.41107C6.26384 5.08563 5.7362 5.08563 5.41076 5.41107Z" fill="white"/>
<path d="M5.41076 6.58958L6.11787 5.88247V5.88247L5.41076 6.58958ZM5.41076 5.41107L6.11787 6.11818L5.41076 5.41107ZM9.82151 11.0003L10.5286 11.7074L11.2357 11.0003L10.5286 10.2932L9.82151 11.0003ZM5.41076 15.4111L6.11787 16.1182L6.11787 16.1182L5.41076 15.4111ZM5.41076 16.5896L6.11787 15.8825L6.11787 15.8825L5.41076 16.5896ZM6.58928 16.5896L5.88217 15.8825L5.88217 15.8825L6.58928 16.5896ZM11 12.1788L11.7071 11.4717L11 10.7646L10.2929 11.4717L11 12.1788ZM15.4108 16.5896L16.1179 15.8825L16.1179 15.8825L15.4108 16.5896ZM16.5893 16.5896L15.8822 15.8825L15.8822 15.8825L16.5893 16.5896ZM16.5893 15.4111L15.8822 16.1182L15.8822 16.1182L16.5893 15.4111ZM12.1785 11.0003L11.4714 10.2932L10.7643 11.0003L11.4714 11.7074L12.1785 11.0003ZM16.5893 6.58958L15.8822 5.88247L15.8822 5.88247L16.5893 6.58958ZM16.5893 5.41107L15.8822 6.11818L15.8822 6.11818L16.5893 5.41107ZM15.4108 5.41107L16.1179 6.11818L16.1179 6.11818L15.4108 5.41107ZM11 9.82181L10.2929 10.5289L11 11.236L11.7071 10.5289L11 9.82181ZM6.58928 5.41107L5.88217 6.11818H5.88217L6.58928 5.41107ZM6.11787 5.88247C6.18296 5.94756 6.18296 6.05309 6.11787 6.11818L4.70366 4.70396C3.9877 5.41992 3.9877 6.58073 4.70366 7.29669L6.11787 5.88247ZM10.5286 10.2932L6.11787 5.88247L4.70366 7.29669L9.1144 11.7074L10.5286 10.2932ZM6.11787 16.1182L10.5286 11.7074L9.1144 10.2932L4.70366 14.704L6.11787 16.1182ZM6.11787 15.8825C6.18296 15.9476 6.18296 16.0531 6.11787 16.1182L4.70366 14.704C3.9877 15.4199 3.9877 16.5807 4.70366 17.2967L6.11787 15.8825ZM5.88217 15.8825C5.94726 15.8174 6.05278 15.8174 6.11787 15.8825L4.70366 17.2967C5.41962 18.0126 6.58042 18.0126 7.29638 17.2967L5.88217 15.8825ZM10.2929 11.4717L5.88217 15.8825L7.29638 17.2967L11.7071 12.8859L10.2929 11.4717ZM16.1179 15.8825L11.7071 11.4717L10.2929 12.8859L14.7037 17.2967L16.1179 15.8825ZM15.8822 15.8825C15.9473 15.8174 16.0528 15.8174 16.1179 15.8825L14.7037 17.2967C15.4196 18.0126 16.5804 18.0126 17.2964 17.2967L15.8822 15.8825ZM15.8822 16.1182C15.8171 16.0531 15.8171 15.9476 15.8822 15.8825L17.2964 17.2967C18.0123 16.5807 18.0123 15.4199 17.2964 14.704L15.8822 16.1182ZM11.4714 11.7074L15.8822 16.1182L17.2964 14.704L12.8856 10.2932L11.4714 11.7074ZM15.8822 5.88247L11.4714 10.2932L12.8856 11.7074L17.2964 7.29669L15.8822 5.88247ZM15.8822 6.11818C15.8171 6.05309 15.8171 5.94756 15.8822 5.88247L17.2964 7.29669C18.0123 6.58073 18.0123 5.41992 17.2964 4.70396L15.8822 6.11818ZM16.1179 6.11818C16.0528 6.18326 15.9473 6.18326 15.8822 6.11818L17.2964 4.70396C16.5804 3.988 15.4196 3.988 14.7037 4.70396L16.1179 6.11818ZM11.7071 10.5289L16.1179 6.11818L14.7037 4.70396L10.2929 9.11471L11.7071 10.5289ZM5.88217 6.11818L10.2929 10.5289L11.7071 9.11471L7.29638 4.70396L5.88217 6.11818ZM6.11787 6.11818C6.05278 6.18326 5.94726 6.18326 5.88217 6.11818L7.29638 4.70396C6.58042 3.988 5.41962 3.988 4.70366 4.70396L6.11787 6.11818Z" fill="#979797" fill-opacity="0.1" mask="url(#path-2-outside-1_503_91559)"/>
</svg>
