<?xml version="1.0" standalone="no"?>
<!DOCTYPE svg PUBLIC "-//W3C//DTD SVG 1.1//EN" "http://www.w3.org/Graphics/SVG/1.1/DTD/svg11.dtd" >
<svg xmlns="http://www.w3.org/2000/svg" xmlns:xlink="http://www.w3.org/1999/xlink" version="1.1">
<metadata></metadata>
<defs>
<font id="heeboregular" horiz-adv-x="1151" >
<font-face units-per-em="2048" ascent="1638" descent="-410" />
<missing-glyph horiz-adv-x="508" />
<glyph horiz-adv-x="0" />
<glyph horiz-adv-x="682" />
<glyph unicode=" "  horiz-adv-x="508" />
<glyph unicode="&#x09;" horiz-adv-x="508" />
<glyph unicode="&#xa0;" horiz-adv-x="508" />
<glyph unicode="!" horiz-adv-x="529" d="M181 411l-14 1045h196l-14 -1045h-168zM351.5 169q29.5 -30 29.5 -76t-29.5 -75t-81.5 -29t-80.5 29t-28.5 75t28.5 76t80.5 30t81.5 -30z" />
<glyph unicode="&#x22;" horiz-adv-x="658" d="M248 1044h-112l1 347v145h141v-136zM519 1044h-112l1 354v138h141v-136z" />
<glyph unicode="#" horiz-adv-x="1263" d="M1006 902l-69 -355h224v-137h-251l-80 -410h-144l80 410h-263l-80 -410h-144l80 410h-239v137h266l69 355h-259v138h286l81 416h144l-81 -416h263l81 416h145l-82 -416h203v-138h-230zM862 902h-263l-69 -355h263z" />
<glyph unicode="$" d="M939 104q-103 -102 -283 -121v-191h-149v190q-110 12 -199 61t-143.5 145t-54.5 241h187q0 -155 81 -222.5t197 -67.5q132 0 206 63.5t74 172.5q0 92 -64.5 156t-216.5 115q-201 61 -304.5 163t-103.5 271q0 110 43.5 194t124 135t190.5 64v219h151v-220 q169 -22 261.5 -141.5t92.5 -321.5h-186q0 90 -28.5 159.5t-84 109t-133.5 39.5q-121 0 -182.5 -63t-61.5 -171q0 -66 26 -113.5t88 -85.5t172 -75q135 -44 223 -99.5t134 -136.5t46 -196q0 -171 -103 -273z" />
<glyph unicode="%" horiz-adv-x="1500" d="M141.5 1327.5q36.5 68.5 104 109t157.5 40.5q91 0 159 -40t104.5 -109t36.5 -152v-77q0 -82 -36 -150.5t-104 -108.5t-158 -40q-91 0 -159 40t-104.5 108.5t-36.5 150.5v77q0 83 36.5 151.5zM286.5 972q41.5 -52 118.5 -52q76 0 117 52t41 127v77q0 76 -41.5 128.5 t-118.5 52.5q-51 0 -86.5 -25t-53.5 -66t-18 -90v-77q0 -75 41.5 -127zM342 177l711 1138l105 -66l-711 -1138zM850.5 508.5q36.5 68.5 104 108.5t157.5 40q91 0 159 -40t104 -108.5t36 -151.5v-78q0 -83 -36 -151.5t-103.5 -108.5t-157.5 -40q-91 0 -159 40t-104.5 108.5 t-36.5 151.5v78q0 83 36.5 151.5zM971 190q18 -41 54.5 -66t88.5 -25q76 0 117 52t41 128v78q0 76 -41.5 128t-118.5 52q-76 0 -117.5 -52t-41.5 -128v-78q0 -48 18 -89z" />
<glyph unicode="&#x26;" horiz-adv-x="1274" d="M1044 0l-96 115q-73 -66 -173 -100.5t-202 -34.5q-143 0 -250 52.5t-164.5 145.5t-57.5 213q0 83 34.5 150.5t94.5 124.5t154 123q-83 101 -123.5 177.5t-40.5 156.5q0 112 45 191.5t127.5 120.5t192.5 41q104 0 183 -41.5t121.5 -112t42.5 -153.5q0 -98 -50 -171 t-148 -146l-109 -81l323 -387q67 129 67 288h168q0 -255 -123 -422l208 -250h-224zM488 1299.5q-40 -26.5 -60.5 -71.5t-20.5 -99q0 -52 30 -109.5t88 -130.5l103 74q69 47 100 91.5t31 114.5q0 40 -21 76.5t-60.5 58.5t-93.5 22q-56 0 -96 -26.5zM714 159.5 q69 29.5 128 83.5l-356 426l-41 -31q-94 -70 -125.5 -133.5t-31.5 -113.5q0 -73 32 -132t96 -94t157 -35q72 0 141 29.5z" />
<glyph unicode="'" horiz-adv-x="358" d="M233 1058h-130l1 351v127h151v-111z" />
<glyph unicode="(" horiz-adv-x="702" d="M211.5 1080q78.5 219 192 361.5t220.5 201.5l39 -121q-86 -66 -164 -190.5t-128.5 -312.5t-50.5 -425v-15q0 -237 50.5 -425t128 -314.5t164.5 -198.5l-39 -111q-107 60 -220.5 202t-192 360.5t-78.5 488.5v10q0 270 78.5 489z" />
<glyph unicode=")" horiz-adv-x="714" d="M489.5 92.5q-78.5 -218.5 -191.5 -360.5t-220 -202l-39 111q86 65 164 192.5t128.5 318t50.5 427.5v15q0 235 -53 425.5t-131 318t-159 193.5l39 112q107 -59 220 -201.5t191.5 -361.5t78.5 -489v-10q0 -270 -78.5 -488.5z" />
<glyph unicode="*" horiz-adv-x="882" d="M28 1075l47 149l301 -112l-9 345h154l-10 -350l296 111l47 -152l-306 -91l197 -272l-126 -93l-184 289l-180 -282l-126 91l200 276z" />
<glyph unicode="+" horiz-adv-x="1162" d="M1076 607h-405v-461h-187v461h-406v173h406v426h187v-426h405v-173z" />
<glyph unicode="," horiz-adv-x="403" d="M263 -124q-47 -100 -129 -166l-106 72q49 69 74 138t25 148v151h183v-148q0 -95 -47 -195z" />
<glyph unicode="-" horiz-adv-x="565" d="M37 544v151h489v-151h-489z" />
<glyph unicode="." horiz-adv-x="541" d="M344.5 177.5q30.5 -31.5 30.5 -80.5q0 -48 -30.5 -78t-85.5 -30q-54 0 -84.5 30.5t-30.5 77.5q0 49 30.5 80.5t84.5 31.5q55 0 85.5 -31.5z" />
<glyph unicode="/" horiz-adv-x="846" d="M18 -125l608 1581h159l-607 -1581h-160z" />
<glyph unicode="0" d="M917.5 129.5q-117.5 -149.5 -340.5 -149.5q-222 0 -342 150t-120 491v223q0 340 118.5 486t341.5 146q224 0 342 -146t118 -486v-223q0 -342 -117.5 -491.5zM780.5 1220.5q-67.5 105.5 -205.5 105.5q-136 0 -204.5 -106t-68.5 -345v-283q0 -239 70 -350.5t205 -111.5 q137 0 204 110.5t67 351.5v283q0 240 -67.5 345.5z" />
<glyph unicode="1" d="M543 0v1235l-372 -137v167l530 199h29v-1464h-187z" />
<glyph unicode="2" d="M121 0v132l477 531q89 99 137 166.5t67.5 122t19.5 113.5q0 73 -30 132.5t-87 94t-135 34.5q-142 0 -216 -81t-74 -217h-187q0 125 55 227t163 161.5t259 59.5q135 0 234 -48.5t152 -136.5t53 -204q0 -120 -73.5 -247.5t-199.5 -264.5l-390 -425h730v-150h-955z" />
<glyph unicode="3" d="M959.5 612.5q58.5 -92.5 58.5 -206.5q0 -133 -60 -229t-164.5 -146.5t-236.5 -50.5q-129 0 -234 48t-166.5 139.5t-61.5 217.5h187q0 -76 33.5 -134t95.5 -89.5t146 -31.5q129 0 201.5 69t72.5 203q0 133 -81.5 199.5t-226.5 66.5h-132v110v40h132q93 0 157.5 32t96.5 89 t32 130q0 126 -63.5 191.5t-189.5 65.5q-78 0 -137 -31t-92 -87.5t-33 -132.5h-187q0 111 56.5 203t158.5 145t234 53q133 0 232 -47t153.5 -139.5t54.5 -224.5q0 -57 -25 -118t-76.5 -114t-127.5 -85q134 -43 192.5 -135.5z" />
<glyph unicode="4" d="M1105 339h-202v-339h-187v339h-663v108l651 1009h152h47v-967h202v-150zM716 489v715l-22 -39l-430 -676h452z" />
<glyph unicode="5" d="M280 1456h747v-169h-589l-43 -399q45 27 106.5 45t135.5 18q133 0 230.5 -59.5t150 -169.5t52.5 -258q0 -142 -51.5 -251.5t-155 -171t-254.5 -61.5q-121 0 -219.5 45t-161 135.5t-74.5 222.5h177q17 -124 88.5 -188.5t189.5 -64.5q86 0 147.5 40.5t94 115t32.5 176.5 q0 93 -34 166.5t-99.5 115.5t-156.5 42q-59 0 -99.5 -10.5t-69.5 -29.5t-68 -53l-150 38z" />
<glyph unicode="6" d="M868 887.5q94 -67.5 139.5 -177t45.5 -235.5q0 -140 -52 -252.5t-154 -177.5t-246 -65q-150 0 -256 80.5t-159 208t-53 269.5v88q0 364 155.5 598t542.5 234h16v-156h-16q-247 0 -368 -134.5t-139 -343.5q58 66 137.5 98.5t174.5 32.5q138 0 232 -67.5zM745.5 174.5 q60.5 42.5 92 118t31.5 173.5q0 90 -29.5 167t-89 123.5t-145.5 46.5q-63 0 -121 -26.5t-100.5 -72t-63.5 -101.5v-70q0 -125 39 -216t103.5 -138t138.5 -47q84 0 144.5 42.5z" />
<glyph unicode="7" d="M460 0h-196l601 1306h-787v150h985v-103z" />
<glyph unicode="8" d="M972.5 607q66.5 -94 66.5 -213q0 -129 -60.5 -223t-165.5 -142.5t-237 -48.5t-237.5 48.5t-165.5 142t-60 223.5q0 120 65 214.5t179 142.5q-99 48 -155 133.5t-56 192.5q0 124 55 214.5t152.5 137.5t222.5 47t222 -47.5t152 -137.5t55 -214q0 -107 -57 -193t-156 -134 q114 -49 180.5 -143zM449 1295q-55 -31 -85.5 -88t-30.5 -133q0 -75 30 -131t85.5 -87t127.5 -31t127 31t85 87t30 131q0 72 -30.5 129.5t-85.5 90t-126 32.5q-72 0 -127 -31zM778.5 201q73.5 71 73.5 197q0 80 -35 143t-98.5 98t-144.5 35q-83 0 -145 -35t-95.5 -97.5 t-33.5 -143.5q0 -126 73.5 -197t202.5 -71t202.5 71z" />
<glyph unicode="9" d="M815.5 1393.5q104.5 -82.5 153 -215.5t48.5 -290v-69q0 -226 -52 -405t-205 -297.5t-436 -118.5h-19v156h19q276 0 386.5 132.5t119.5 353.5q-60 -71 -141 -112t-173 -41q-137 0 -231 69.5t-139.5 180.5t-45.5 236q0 141 52 255.5t154 181t246 66.5q159 0 263.5 -82.5z M715.5 695.5q77.5 56.5 115.5 143.5v73q0 128 -38 221.5t-102 142t-139 48.5q-83 0 -144 -44t-93 -121.5t-32 -175.5q0 -90 29.5 -168.5t89 -127t144.5 -48.5q92 0 169.5 56.5z" />
<glyph unicode=":" horiz-adv-x="498" d="M133 0zM333.5 177.5q30.5 -31.5 30.5 -80.5q0 -48 -30.5 -78t-85.5 -30q-54 0 -84.5 30.5t-30.5 77.5q0 49 30.5 80.5t84.5 31.5q55 0 85.5 -31.5zM334.5 1061.5q30.5 -31.5 30.5 -80.5q0 -48 -30.5 -78t-85.5 -30q-54 0 -84.5 30.5t-30.5 77.5q0 49 30.5 80.5t84.5 31.5 q55 0 85.5 -31.5z" />
<glyph unicode=";" horiz-adv-x="434" d="M41 0zM310.5 1061.5q30.5 -31.5 30.5 -80.5q0 -48 -30.5 -78t-85.5 -30q-54 0 -84.5 30.5t-30.5 77.5q0 49 30.5 80.5t84.5 31.5q55 0 85.5 -31.5zM276 -124q-47 -100 -129 -166l-106 72q49 69 74 138t25 148v151h183v-148q0 -95 -47 -195z" />
<glyph unicode="&#x3c;" horiz-adv-x="1041" d="M890 904l-624 -259l624 -254v-195l-818 379v115v30l818 378v-194z" />
<glyph unicode="=" horiz-adv-x="1124" d="M152 815v159h834v-159h-834zM152 400v159h834v-159h-834z" />
<glyph unicode="&#x3e;" horiz-adv-x="1071" d="M989 721v-115v-29l-854 -379v190l661 263l-661 259v189z" />
<glyph unicode="?" horiz-adv-x="969" d="M374 566q16 61 50.5 110t104.5 120l31 31q51 52 78 85.5t45 77.5t18 101q0 106 -55.5 165.5t-158.5 59.5q-61 0 -112 -22t-82 -67.5t-31 -111.5h-187q1 110 55.5 192t147.5 125.5t209 43.5q126 0 216 -46t137 -131.5t47 -202.5q0 -84 -34 -159t-87 -138.5t-129 -135.5 q-52 -47 -72.5 -109.5t-20.5 -143.5h-187q1 95 17 156zM540 169q29 -30 29 -76t-29 -75t-81 -29t-81 29t-29 75t29 76t81 30t81 -30z" />
<glyph unicode="@" horiz-adv-x="1838" d="M1384 1326.5q173 -104.5 262.5 -299t89.5 -459.5q0 -43 -1 -65q-5 -134 -48.5 -253t-133.5 -195t-227 -76q-92 0 -153.5 44t-86.5 125q-52 -82 -122 -125.5t-145 -43.5q-131 0 -202 97t-71 265q0 23 4 77q15 170 78.5 300.5t157 201t196.5 70.5q68 0 118.5 -14t87 -35.5 t83.5 -57.5l-51 -554q-2 -18 -2 -51q0 -102 37 -141t92 -39q78 0 134.5 53t87.5 145t36 207q2 52 2 75q0 348 -160 535t-483 187q-206 0 -361.5 -103t-243.5 -289t-98 -430q-2 -46 -2 -66q0 -230 75 -396.5t218 -255.5t344 -89q89 0 179 21t152 57l38 -113 q-66 -43 -169.5 -66t-203.5 -23q-242 0 -417 105t-268 300.5t-93 463.5q0 41 1 62q12 274 120.5 490.5t297.5 339.5t435 123q243 0 416 -104.5zM978 171.5q56 49.5 93 149.5l1 8l46 504q-56 29 -120 29q-73 0 -134 -50.5t-101 -150.5t-53 -243q-3 -34 -3 -66 q0 -111 40.5 -170.5t117.5 -59.5q57 0 113 49.5z" />
<glyph unicode="A" horiz-adv-x="1338" d="M973 381h-607l-138 -381h-200l556 1456h128h42l557 -1456h-199zM916 538l-247 680l-246 -680h493z" />
<glyph unicode="B" horiz-adv-x="1276" d="M1093 640.5q67 -94.5 67 -220.5q0 -134 -59 -228.5t-167.5 -143t-254.5 -48.5h-436h-74v1456h478q229 0 352 -95t123 -293q0 -100 -57.5 -179t-159.5 -122q121 -32 188 -126.5zM363 1299v-464h289q82 0 144.5 28t97 81t34.5 126q0 119 -69 174t-212 55h-284zM890 226.5 q76 70.5 76 191.5q0 126 -68 195t-210 69h-325v-526h316q135 0 211 70.5z" />
<glyph unicode="C" horiz-adv-x="1333" d="M1160 211.5q-65 -108.5 -183.5 -170t-288.5 -61.5q-169 0 -298 83.5t-200 236.5t-71 354v147q0 202 71.5 355t204.5 236.5t311 83.5q161 0 276 -60.5t179.5 -170t79.5 -256.5h-194q-23 163 -102 246.5t-239 83.5q-127 0 -215 -64t-132.5 -180t-44.5 -272v-149 q0 -148 41 -265t125 -185t208 -68q119 0 192.5 37.5t111 108.5t55.5 180h194q-16 -142 -81 -250.5z" />
<glyph unicode="D" horiz-adv-x="1344" d="M916.5 1372.5q145.5 -83.5 226 -238.5t80.5 -362v-88q0 -209 -80.5 -363.5t-229.5 -237.5t-350 -83h-304h-90v1456h194h217q191 0 336.5 -83.5zM1031 774q0 166 -52.5 283.5t-154 179.5t-244.5 62h-217v-1143h200q152 0 257 64.5t158 183t53 280.5v90z" />
<glyph unicode="E" horiz-adv-x="1164" d="M1094 156v-156h-769h-156v1456h194h721v-157h-721v-469h629v-156h-629v-518h731z" />
<glyph unicode="F" horiz-adv-x="1132" d="M363 1299v-499h609v-156h-609v-644h-194v1456h194h708v-157h-708z" />
<glyph unicode="G" horiz-adv-x="1395" d="M1066.5 43.5q-120.5 -63.5 -336.5 -63.5q-178 0 -315.5 82.5t-215 239t-77.5 369.5v115q0 217 68 371.5t199.5 236.5t317.5 82q240 0 374.5 -121t163.5 -325h-194q-22 130 -104.5 209.5t-238.5 79.5q-197 0 -294 -139t-97 -392v-117q0 -165 51.5 -286t145 -185t217.5 -64 q137 0 209 30.5t112 75.5v328h-336v155h529v-534q-58 -84 -178.5 -147.5z" />
<glyph unicode="H" horiz-adv-x="1461" d="M1289 1456v-1456h-194v674h-732v-674h-194v1456h194v-626h732v626h194z" />
<glyph unicode="I" horiz-adv-x="558" d="M183 0v1456h194v-1456h-194z" />
<glyph unicode="J" horiz-adv-x="1130" d="M973 1456v-1030q0 -141 -58.5 -241.5t-162.5 -152.5t-239 -52q-137 0 -240.5 47t-161.5 141.5t-58 234.5h194q0 -133 72 -200t194 -67q77 0 137 33.5t94.5 99t34.5 157.5v1030h194z" />
<glyph unicode="K" horiz-adv-x="1285" d="M541 678l-178 -184v-494h-194v1456h194v-718l645 718h234l-573 -642l617 -814h-232z" />
<glyph unicode="L" horiz-adv-x="1103" d="M1053 156v-156h-728h-156v1456h194v-1300h690z" />
<glyph unicode="M" horiz-adv-x="1789" d="M1619 0h-193v569l18 607l-477 -1176h-147l-476 1175l18 -606v-569h-193v1456h166h84l475 -1190l475 1190h250v-1456z" />
<glyph unicode="N" horiz-adv-x="1461" d="M1094 0l-731 1126v-1126h-194v1456h194l734 -1129v1129h192v-1456h-195z" />
<glyph unicode="O" horiz-adv-x="1410" d="M1218.5 307q-71.5 -158 -203.5 -242.5t-309 -84.5q-172 0 -305.5 85t-208 243.5t-74.5 372.5v93q0 214 74 373t207 244t305 85q177 0 309.5 -85t204.5 -243.5t72 -373.5v-93q0 -216 -71.5 -374zM1051.5 1068.5q-46.5 120.5 -135 182.5t-212.5 62q-119 0 -208 -62.5 t-137 -183t-48 -291.5v-95q0 -172 48.5 -293t137.5 -183.5t209 -62.5q188 0 290 139t102 400v95q0 172 -46.5 292.5z" />
<glyph unicode="P" horiz-adv-x="1293" d="M983.5 1399.5q115.5 -56.5 175 -156.5t59.5 -231q0 -140 -59 -239t-173.5 -150.5t-278.5 -51.5h-344v-571h-194v1456h538q161 0 276.5 -56.5zM946.5 803q77.5 76 77.5 207q0 79 -33.5 144.5t-105 105t-178.5 39.5h-344v-572h344q162 0 239.5 76z" />
<glyph unicode="Q" horiz-adv-x="1410" d="M1156 -247l-308 245q-70 -18 -151 -18q-172 0 -305.5 85t-208 243.5t-74.5 372.5v93q0 214 74 373t207 244t305 85q177 0 309.5 -84.5t205 -243.5t72.5 -374v-93q0 -207 -66.5 -361.5t-188.5 -241.5l260 -205zM351.5 388q48.5 -121 137.5 -183.5t208 -62.5q188 0 290 139 t102 400v95q0 172 -46.5 292.5t-135 182.5t-212.5 62q-119 0 -207.5 -62.5t-136.5 -183t-48 -291.5v-95q0 -172 48.5 -293z" />
<glyph unicode="R" horiz-adv-x="1261" d="M1226 12v-12h-208l-316 590h-339v-590h-194v1456h482q247 0 379 -112.5t132 -324.5q0 -135 -73.5 -236.5t-204.5 -152.5zM656 746q100 0 170 36t105.5 98t35.5 139q0 132 -78 206t-238 74h-288v-553h293z" />
<glyph unicode="S" horiz-adv-x="1216" d="M247 818.5q-120 100.5 -120 261.5q0 113 61.5 203t174 141.5t258.5 51.5q159 0 275.5 -61t178 -162t61.5 -217h-195q0 128 -81 205.5t-239 77.5q-147 0 -223 -65t-76 -171q0 -62 35 -109t109 -85t195 -72q168 -47 272.5 -108t155 -143.5t50.5 -195.5q0 -117 -62.5 -205.5 t-177.5 -136.5t-268 -48q-139 0 -265.5 51.5t-205.5 151.5t-79 239h194q0 -96 48.5 -160t129 -95t178.5 -31q149 0 231 62t82 170q0 71 -29.5 118.5t-103.5 86t-213 78.5q-231 67 -351 167.5z" />
<glyph unicode="T" horiz-adv-x="1222" d="M1175 1299h-467v-1299h-192v1299h-466v157h658h467v-157z" />
<glyph unicode="U" horiz-adv-x="1328" d="M1195 471q0 -158 -71.5 -269t-192 -166.5t-265.5 -55.5q-152 0 -270.5 55.5t-187 166t-68.5 269.5v985h192v-985q0 -166 89.5 -250.5t244.5 -84.5q156 0 245 84.5t89 250.5v985h195v-985z" />
<glyph unicode="V" horiz-adv-x="1305" d="M1278 1456l-539 -1456h-150h-22l-538 1456h211l412 -1200l415 1200h211z" />
<glyph unicode="W" horiz-adv-x="1817" d="M1773 1456l-352 -1456h-139h-38l-299 1063l-22 109l-23 -109l-310 -1063h-141h-36l-352 1456h194l229 -998l28 -190l40 171l288 1017h142h21l280 -1017l40 -175l31 195l224 997h195z" />
<glyph unicode="X" horiz-adv-x="1285" d="M993 1456h227l-459 -721l470 -735h-229l-357 570l-359 -570h-228l471 735l-461 721h228l349 -559z" />
<glyph unicode="Y" horiz-adv-x="1230" d="M992 1456h220l-501 -912v-544h-195v544l-501 912h222l377 -732z" />
<glyph unicode="Z" horiz-adv-x="1227" d="M1146 156v-156h-986h-73v143l798 1156h-786v157h933h82v-139l-800 -1161h832z" />
<glyph unicode="[" horiz-adv-x="545" d="M333 1514v-1676h191v-150h-378v1976h378v-150h-191z" />
<glyph unicode="\" horiz-adv-x="841" d="M218 1456l608 -1581h-177l-608 1581h177z" />
<glyph unicode="]" horiz-adv-x="545" d="M389 1664v-1976h-379v150h192v1676h-192v150h379z" />
<glyph unicode="^" horiz-adv-x="856" d="M616 729l-189 484l-190 -484h-173l299 727h112h16l298 -727h-173z" />
<glyph unicode="_" horiz-adv-x="925" d="M4 -150v150h917v-150h-917z" />
<glyph unicode="`" horiz-adv-x="634" d="M315 1243l-259 293h225l194 -293h-160z" />
<glyph unicode="a" horiz-adv-x="1115" d="M975 118.5q10 -60.5 28 -102.5v-16h-195q-17 39 -26 113q-56 -60 -134.5 -96.5t-172.5 -36.5q-108 0 -191.5 42.5t-129 115.5t-45.5 162q0 115 59.5 195t169 120.5t258.5 40.5h182v86q0 99 -58.5 155.5t-168.5 56.5q-67 0 -120 -23.5t-82.5 -63t-29.5 -85.5h-187 q0 79 54 153t152 120.5t224 46.5q120 0 210.5 -40.5t141.5 -122t51 -199.5v-504q0 -57 10 -117.5zM621.5 162.5q55.5 22.5 95.5 59.5t61 80v224h-152q-160 0 -245 -50.5t-85 -149.5q0 -53 24 -95t70 -66.5t112 -24.5q64 0 119.5 22.5z" />
<glyph unicode="b" horiz-adv-x="1150" d="M863 1033.5q95 -68.5 144.5 -193t49.5 -290.5v-21q0 -159 -49.5 -283.5t-144.5 -195t-226 -70.5q-205 0 -317 143l-9 -123h-171v1536h187v-570q111 136 308 136q133 0 228 -68.5zM870 550q0 178 -67.5 287.5t-214.5 109.5q-95 0 -159.5 -45.5t-101.5 -123.5v-473 q38 -77 103.5 -123t159.5 -46q141 0 210.5 109.5t69.5 283.5v21z" />
<glyph unicode="c" horiz-adv-x="1073" d="M1006 342q-5 -95 -65 -178.5t-157.5 -133.5t-209.5 -50q-157 0 -265.5 72.5t-162.5 195t-54 272.5v42q0 150 54 272.5t162.5 195t265.5 72.5q124 0 220.5 -51t151.5 -140.5t60 -200.5h-177q-5 67 -38 122.5t-89 87.5t-128 32q-107 0 -173 -55.5t-94 -143t-28 -191.5v-42 q0 -166 68.5 -278t226.5 -112q65 0 121.5 27.5t92.5 76t41 108.5h177z" />
<glyph unicode="d" horiz-adv-x="1156" d="M1009 1536v-1536h-171l-9 115q-110 -135 -308 -135q-125 0 -222 71t-150.5 196t-53.5 282v21q0 164 53 289t150 194t225 69q191 0 299 -127v561h187zM822 293v501q-38 71 -100.5 112t-152.5 41q-97 0 -161.5 -52.5t-95 -142.5t-30.5 -202v-21q0 -112 30.5 -200.5 t94.5 -140.5t160 -52q173 0 255 157z" />
<glyph unicode="e" horiz-adv-x="1087" d="M1012 490h-732q3 -101 42 -183t110.5 -129.5t167.5 -47.5q94 0 162.5 38t122.5 109l113 -88q-60 -92 -160 -150.5t-248 -58.5t-261 67t-174.5 186t-61.5 270v43q0 169 66 295.5t174.5 193.5t232.5 67q151 0 250.5 -67.5t147.5 -186.5t48 -275v-83zM825 654 q-8 127 -68.5 212.5t-190.5 85.5q-112 0 -186.5 -81.5t-93.5 -230.5h539v14z" />
<glyph unicode="f" horiz-adv-x="712" d="M467 1347.5q-49 -52.5 -49 -150.5v-115h230v-141h-230v-941h-187v941h-170v141h170v115q0 173 94.5 266.5t262.5 93.5q61 0 127 -16l-10 -149q-45 8 -100 8q-89 0 -138 -52.5z" />
<glyph unicode="g" horiz-adv-x="1150" d="M1011 1082v-1059q0 -141 -58 -242.5t-161.5 -154.5t-239.5 -53q-63 0 -138 19t-146.5 61t-116.5 108l97 109q120 -147 290 -147q133 0 209.5 75.5t76.5 215.5v93q-110 -127 -302 -127q-128 0 -224.5 71t-149 195.5t-52.5 282.5v21q0 164 52 289t149 194t227 69 q198 0 309 -139l8 119h170zM824 295v497q-38 72 -101 113.5t-153 41.5q-97 0 -161.5 -52.5t-95 -142.5t-30.5 -202v-21q0 -112 30.5 -200.5t94.5 -140.5t160 -52q174 0 256 159z" />
<glyph unicode="h" horiz-adv-x="1128" d="M992 709v-709h-187v711q0 124 -53.5 180t-161.5 56q-86 0 -154.5 -47t-108.5 -126v-774h-187v1536h187v-582q59 71 140 109.5t178 38.5q347 0 347 -393z" />
<glyph unicode="i" horiz-adv-x="498" d="M332.5 1446q29.5 -30 29.5 -76q0 -45 -29.5 -74.5t-81.5 -29.5t-80.5 29.5t-28.5 74.5q0 46 28.5 76t80.5 30t81.5 -30zM156 0v1082h187v-1082h-187z" />
<glyph unicode="j" horiz-adv-x="491" d="M317.5 1446q29.5 -30 29.5 -76q0 -45 -29.5 -74.5t-81.5 -29.5t-80.5 29.5t-28.5 74.5q0 46 28.5 76t80.5 30t81.5 -30zM333 -129q0 -151 -71 -229.5t-212 -78.5q-26 0 -59 5t-56 12l1 148q37 -9 85 -9q62 0 93.5 35.5t31.5 116.5v1211h187v-1211z" />
<glyph unicode="k" horiz-adv-x="1039" d="M444 502l-116 -120v-382h-187v1536h187v-928l99 117l334 357h227l-421 -451l471 -631h-220z" />
<glyph unicode="l" horiz-adv-x="498" d="M156 0v1536h187v-1536h-187z" />
<glyph unicode="m" horiz-adv-x="1795" d="M1564 1007q92 -95 92 -296v-711h-187v713q0 129 -58.5 181.5t-171.5 52.5q-72 0 -126 -30.5t-84.5 -82.5t-37.5 -117v-717h-187v712q0 235 -231 235q-93 0 -154 -40.5t-93 -112.5v-794h-187v1082h177l6 -117q56 66 136 101.5t183 35.5q107 0 187.5 -42.5t121.5 -129.5 q56 80 143.5 126t200.5 46q178 0 270 -95z" />
<glyph unicode="n" horiz-adv-x="1131" d="M992 709v-709h-187v711q0 124 -53.5 180t-161.5 56q-86 0 -154.5 -47t-108.5 -126v-774h-187v1082h177l6 -133q59 73 141 113t181 40q347 0 347 -393z" />
<glyph unicode="o" horiz-adv-x="1169" d="M152 834q60 125 171.5 196.5t259.5 71.5q150 0 262 -71.5t172 -196.5t60 -282v-23q0 -157 -60 -281.5t-171.5 -196t-260.5 -71.5t-260.5 71.5t-172 196t-60.5 281.5v23q0 157 60 282zM313.5 328q34.5 -91 103.5 -144.5t168 -53.5q98 0 167 53.5t103.5 144.5t34.5 201v23 q0 110 -35 201t-104 145t-168 54q-98 0 -166.5 -54t-103 -145t-34.5 -201v-23q0 -110 34.5 -201z" />
<glyph unicode="p" horiz-adv-x="1150" d="M862 1033.5q95 -68.5 144 -193t49 -290.5v-21q0 -159 -49.5 -283.5t-144 -195t-225.5 -70.5q-196 0 -309 124v-520h-187v1498h170l10 -118q113 138 313 138q134 0 229 -68.5zM868 550q0 112 -31.5 201.5t-97 142.5t-162.5 53q-88 0 -150 -40t-100 -109v-521 q83 -147 252 -147q96 0 161 53.5t96.5 143.5t31.5 202v21z" />
<glyph unicode="q" horiz-adv-x="1165" d="M1008 1082v-1498h-187v514q-110 -118 -297 -118q-131 0 -228 70.5t-149 195.5t-52 283v21q0 165 51.5 290t149 193.5t230.5 68.5q191 0 303 -127l8 107h171zM821 276v533q-39 66 -101 104.5t-147 38.5q-97 0 -162.5 -54t-97 -145t-31.5 -203v-21q0 -112 31.5 -202 t96.5 -143.5t161 -53.5q164 0 250 146z" />
<glyph unicode="r" horiz-adv-x="694" d="M627 1097.5q27 -4.5 37 -9.5v-171q-43 8 -91 8q-92 0 -153.5 -41t-92.5 -115v-769h-187v1082h182l4 -123q42 68 106 105.5t150 37.5q18 0 45 -4.5z" />
<glyph unicode="s" horiz-adv-x="1057" d="M230.5 587q-98.5 72 -98.5 199q0 86 50 158t141.5 115t209.5 43q126 0 220 -45t143.5 -121.5t49.5 -170.5h-187q0 46 -27 89t-78.5 70.5t-120.5 27.5q-73 0 -121 -22.5t-70.5 -59t-22.5 -78.5q0 -43 20.5 -71.5t74 -51.5t154.5 -45q136 -31 221 -73t126.5 -103t41.5 -148 q0 -94 -52 -166.5t-147 -113t-220 -40.5q-138 0 -238.5 49.5t-152.5 130.5t-52 173h187q4 -72 42 -117.5t94.5 -65.5t119.5 -20q73 0 125.5 20.5t79.5 56t27 80.5t-19 78t-73 61t-156 49q-193 40 -291.5 112z" />
<glyph unicode="t" horiz-adv-x="670" d="M599 0q-64 -20 -143 -20q-113 0 -181.5 68t-68.5 221v672h-197v141h197v263h187v-263h202v-141h-202v-673q0 -77 32 -103.5t87 -26.5q21 0 46 3.5t40 7.5z" />
<glyph unicode="u" horiz-adv-x="1129" d="M989 1082v-1082h-178l-3 107q-108 -127 -317 -127q-167 0 -261 98t-94 306v698h187v-700q0 -135 55.5 -190.5t142.5 -55.5q210 0 281 157v789h187z" />
<glyph unicode="v" horiz-adv-x="993" d="M955 1082l-388 -1082h-126h-16l-392 1082h191l274 -829l266 829h191z" />
<glyph unicode="w" horiz-adv-x="1539" d="M1491 1082l-314 -1082h-124h-27l-262 817l-256 -817h-119h-32l-314 1082h186l212 -803l251 803h123h28l255 -821l208 821h185z" />
<glyph unicode="x" horiz-adv-x="1016" d="M742 1082h218l-353 -534l364 -548h-215l-249 407l-248 -407h-218l365 548l-354 534h216l236 -395z" />
<glyph unicode="y" horiz-adv-x="969" d="M944 1082l-434 -1249q-40 -109 -115.5 -189.5t-205.5 -80.5q-21 0 -54.5 5.5t-50.5 10.5v149q11 -2 25 -3.5t25 -1.5q95 0 147.5 39.5t85.5 138.5l41 111l-386 1070h204l268 -810l251 810h199z" />
<glyph unicode="z" horiz-adv-x="1016" d="M947 150v-150h-787h-71v135l597 796h-589v151h739h82v-130l-602 -802h631z" />
<glyph unicode="{" horiz-adv-x="694" d="M511 -127q48 -91 160 -126l-39 -114q-192 54 -274 174t-82 291v207q0 113 -51.5 175.5t-160.5 62.5v121v23q109 0 160.5 62.5t51.5 175.5v207q0 171 82 291t274 174l39 -113q-112 -36 -160 -127t-48 -225v-207q0 -104 -41.5 -184.5t-126.5 -125.5q85 -45 126.5 -125.5 t41.5 -184.5v-207q0 -134 48 -225z" />
<glyph unicode="|" horiz-adv-x="501" d="M176 -270v1726h150v-1726h-150z" />
<glyph unicode="}" horiz-adv-x="694" d="M467 749.5q52 -62.5 160 -62.5v-112v-32q-108 0 -160 -63t-52 -175v-207q0 -172 -81.5 -291.5t-274.5 -173.5l-39 114q112 35 160 126t48 225v207q0 108 45.5 188.5t138.5 121.5q-93 41 -138.5 121.5t-45.5 188.5v207q0 134 -48 225t-160 127l39 113 q193 -54 274.5 -173.5t81.5 -291.5v-207q0 -113 52 -175.5z" />
<glyph unicode="~" horiz-adv-x="1393" d="M1221.5 589.5q-41.5 -85.5 -115.5 -136t-167 -50.5q-83 0 -149 32.5t-149 106.5q-55 51 -97.5 75t-89.5 24q-76 0 -118.5 -54t-42.5 -149l-162 -1q0 103 41 186.5t115 131t167 47.5q83 0 151 -33.5t148 -105.5q57 -53 98.5 -76t87.5 -23q50 0 89 27t60.5 75.5t21.5 110.5 h153q0 -102 -41.5 -187.5z" />
<glyph unicode="&#xa1;" horiz-adv-x="501" d="M168.5 921q-29.5 30 -29.5 76q0 45 29.5 74.5t81.5 29.5t80.5 -29.5t28.5 -74.5q0 -46 -28.5 -76t-80.5 -30t-81.5 30zM339 684l14 -1045h-196l14 1045h168z" />
<glyph unicode="&#xa2;" horiz-adv-x="1121" d="M708.5 157.5q56.5 27.5 92 76t40.5 108.5h177q-4 -83 -51 -158t-125 -127t-172 -69v-233h-187v234q-124 23 -209 99t-127 188t-42 244v42q0 132 42 244t127 188t209 99v225h187v-222q101 -16 178.5 -70t121.5 -136t48 -180h-177q-5 68 -37.5 123t-88.5 87t-128 32 q-157 0 -226 -112.5t-69 -277.5v-42q0 -166 68.5 -278t226.5 -112q65 0 121.5 27.5z" />
<glyph unicode="&#xa3;" horiz-adv-x="1191" d="M1129 156l-1 -156h-1033v156h77q47 12 69.5 87.5t22.5 157.5l-8 222h-165v156h160l-9 260q0 135 57.5 234t158.5 151t229 52t221.5 -48.5t143 -136.5t49.5 -204h-194q0 118 -67.5 175.5t-168.5 57.5q-66 0 -119.5 -33t-84.5 -96.5t-31 -151.5l9 -260h318v-156h-312 l7 -221q1 -72 -15 -136t-47 -110h733z" />
<glyph unicode="&#xa4;" horiz-adv-x="1460" d="M1304 420q-26 -90 -76 -167l143 -144l-133 -136l-136 138q-77 -63 -171 -97t-196 -34q-101 0 -194.5 34t-170.5 96l-133 -136l-132 135l139 141q-50 77 -77 168t-27 190q0 104 29.5 198t83.5 173l-148 150l132 135l146 -149q75 57 164.5 88t187.5 31t189 -31t166 -89 l148 151l133 -136l-151 -154q53 -78 81.5 -171.5t28.5 -195.5q0 -98 -26 -188zM946.5 212q96.5 62 153 167t56.5 229t-56.5 228.5t-153 166t-211.5 61.5t-211.5 -61.5t-153.5 -166t-57 -228.5t57 -229t153.5 -167t211.5 -62t211.5 62z" />
<glyph unicode="&#xa5;" horiz-adv-x="1076" d="M695 736h260v-124h-324v-166h324v-124h-324v-322h-194v322h-317v124h317v166h-317v124h262l-367 720h218l306 -660l307 660h215z" />
<glyph unicode="&#xa6;" horiz-adv-x="493" d="M147 698v758h187v-758h-187zM147 521h187v-791h-187v791z" />
<glyph unicode="&#xa7;" horiz-adv-x="1257" d="M1066 39q35 -69 35 -168q0 -114 -60 -196.5t-170.5 -126t-257.5 -43.5q-139 0 -257 42.5t-192 139t-74 249.5l187 2q0 -100 49 -163.5t125 -91.5t162 -28q94 0 162 28t103.5 76.5t35.5 109.5q0 63 -31.5 104.5t-105.5 76.5t-214 77q-158 42 -258.5 93t-154.5 131t-54 200 q0 92 48 162.5t135 111.5q-69 51 -103.5 120t-34.5 166q0 110 60.5 192.5t171.5 128t258 45.5q153 0 263.5 -50t169.5 -147t59 -234h-187q0 78 -35.5 142t-104.5 101t-165 37q-101 0 -169 -28.5t-101 -76.5t-33 -108q0 -69 29 -111t101.5 -74.5t218.5 -73.5 q163 -45 262.5 -95t153 -128.5t53.5 -199.5q0 -93 -48.5 -163.5t-138.5 -109.5q72 -50 107 -119zM312.5 441q29.5 -43 103.5 -77t221 -75q103 -30 161 -51q77 20 119 70.5t42 119.5q0 63 -32.5 106.5t-107.5 79.5t-216 78q-99 26 -165 52q-77 -18 -116 -68.5t-39 -122.5 q0 -69 29.5 -112z" />
<glyph unicode="&#xa8;" horiz-adv-x="856" d="M291 1448q29 -30 29 -76q0 -45 -29 -74.5t-81 -29.5t-81 29.5t-29 74.5q0 46 29 76t81 30t81 -30zM721.5 1446q29.5 -30 29.5 -76q0 -45 -29.5 -74.5t-81.5 -29.5t-80.5 29.5t-28.5 74.5q0 46 28.5 76t80.5 30t81.5 -30z" />
<glyph unicode="&#xa9;" horiz-adv-x="1609" d="M1156.5 1377.5q162.5 -98.5 258 -269.5t95.5 -379t-95.5 -379.5t-258 -271t-355.5 -99.5q-194 0 -356.5 99.5t-258 271t-95.5 379.5t95.5 379t258 269.5t356.5 98.5q193 0 355.5 -98.5zM1098.5 181.5q136.5 83.5 216 228t79.5 319.5t-79.5 318.5t-215.5 226.5t-298 83 t-298.5 -83t-216 -226.5t-79.5 -318.5t80 -319.5t216 -228t298 -83.5q161 0 297.5 83.5zM1031.5 363.5q-87.5 -79.5 -243.5 -79.5q-105 0 -183.5 48.5t-121 136.5t-42.5 202v115q0 114 42.5 202t121 136.5t183.5 48.5q156 0 244 -79.5t88 -233.5h-146q0 97 -46.5 141.5 t-139.5 44.5q-96 0 -149 -71t-53 -188v-116q0 -118 52.5 -188.5t149.5 -70.5q93 0 139 43.5t46 142.5h146q0 -155 -87.5 -234.5z" />
<glyph unicode="&#xaa;" horiz-adv-x="916" d="M618 706q-12 38 -17 72q-35 -38 -86.5 -62t-118.5 -24q-118 0 -183.5 61t-65.5 165q0 112 85.5 171.5t253.5 59.5h108v53q0 66 -30.5 100.5t-92.5 34.5q-70 0 -108.5 -27.5t-38.5 -78.5l-162 13q0 67 38.5 120t108.5 83t162 30q132 0 209.5 -71t77.5 -205v-314 q0 -97 26 -181h-166zM521.5 847.5q44.5 19.5 72.5 48.5v142h-107q-87 0 -131.5 -32.5t-44.5 -83.5q0 -45 31 -69.5t93 -24.5q42 0 86.5 19.5z" />
<glyph unicode="&#xab;" horiz-adv-x="961" d="M100 151zM280 548l258 -397h-143l-295 388v13v6l295 388h143zM612 548l258 -397h-143l-295 388v13v6l295 388h143z" />
<glyph unicode="&#xac;" horiz-adv-x="1135" d="M959 800v-160v-264h-187v264h-645v160h832z" />
<glyph unicode="&#xad;" horiz-adv-x="600" d="M37 544zM37 544v151h489v-151h-489z" />
<glyph unicode="&#xae;" horiz-adv-x="1609" d="M1156.5 1377.5q162.5 -98.5 258 -269.5t95.5 -379t-95.5 -379.5t-258.5 -271t-356 -99.5q-194 0 -356.5 99.5t-258 271t-95.5 379.5t95.5 379t258 269.5t356.5 98.5t356.5 -98.5zM1097.5 181.5q136.5 83.5 216 228t79.5 319.5t-79.5 318.5t-215.5 226.5t-298 83 t-298.5 -83t-216 -226.5t-79.5 -318.5t80 -319.5t216 -228t298 -83.5q161 0 297.5 83.5zM1105 460q0 -84 17 -127v-16h-146q-13 34 -13 144v52q0 74 -34 108t-113 34h-163v-338h-142v848h277q152 0 237 -64.5t85 -190.5q0 -123 -129 -188q66 -26 95 -79t29 -129v-54z M922.5 816q46.5 32 46.5 88q0 51 -17 80t-56.5 42t-107.5 13h-135v-257h156q67 2 113.5 34z" />
<glyph unicode="&#xaf;" horiz-adv-x="940" d="M143 1304v141h672v-141h-672z" />
<glyph unicode="&#xb0;" horiz-adv-x="765" d="M511.5 1441.5q57.5 -35.5 91.5 -95t34 -129.5t-34 -129t-91.5 -93t-125.5 -34q-69 0 -127.5 34t-93 93t-34.5 129t34.5 129.5t93.5 95t127 35.5t125.5 -35.5zM476 1125q36 37 36 92q0 57 -36 95t-90 38t-92 -38t-38 -95q0 -55 38 -92t92 -37t90 37z" />
<glyph unicode="&#xb1;" horiz-adv-x="1095" d="M1013 854v-150h-362v-415h-169v415h-385v150h385v413h169v-413h362zM136 151h835v-150h-835v150z" />
<glyph unicode="&#xb2;" horiz-adv-x="752" d="M66 667zM84 667v108l289 271q64 60 92 104t28 79q0 50 -32.5 80.5t-90.5 30.5q-72 0 -108.5 -37t-36.5 -97h-159q0 72 36.5 131.5t104.5 94.5t159 35q89 0 153.5 -28.5t98.5 -82t34 -125.5q0 -51 -22.5 -96.5t-62 -89t-106.5 -104.5l-175 -147h398v-127h-600z" />
<glyph unicode="&#xb3;" horiz-adv-x="752" d="M63 656zM667 887q0 -72 -39.5 -124t-109 -79.5t-157.5 -27.5q-79 0 -147 25.5t-109.5 78t-41.5 129.5h158q0 -46 40.5 -76t104.5 -30q68 0 105 30.5t37 81.5q0 61 -40.5 88.5t-117.5 27.5h-85v77v38h85q71 0 108 30t37 80q0 47 -33 75.5t-99 28.5q-57 0 -94 -25.5 t-37 -68.5h-159q0 66 38 116.5t103.5 77.5t145.5 27q134 0 213.5 -58.5t79.5 -165.5q0 -56 -35 -101.5t-100 -69.5q149 -42 149 -185z" />
<glyph unicode="&#xb4;" horiz-adv-x="644" d="M542 1536l-269 -293h-150l194 293h225z" />
<glyph unicode="&#xb6;" horiz-adv-x="1002" d="M646 520h-87q-155 0 -266 60t-168.5 166t-57.5 242q0 135 57.5 241t168.5 166.5t266 60.5h275v-1456h-188v520z" />
<glyph unicode="&#xb7;" horiz-adv-x="536" d="M347.5 809q30.5 -31 30.5 -80q0 -48 -30.5 -78.5t-85.5 -30.5q-54 0 -84.5 30.5t-30.5 78.5q0 49 30 80t85 31t85.5 -31z" />
<glyph unicode="&#xb8;" horiz-adv-x="508" d="M274 -53q67 -11 110 -52t43 -121q0 -96 -79 -152.5t-225 -56.5l-7 106q74 0 120 24.5t46 74.5q0 34 -16.5 53t-50.5 28t-94 14l31 135h134z" />
<glyph unicode="&#xb9;" horiz-adv-x="752" d="M123 667zM338 667v603l-215 -58v128l355 116h18v-789h-158z" />
<glyph unicode="&#xba;" horiz-adv-x="932" d="M165 1307q42 80 119.5 125t180.5 45q104 0 181.5 -45t119.5 -125t42 -183v-81q0 -103 -41.5 -183t-119 -124.5t-180.5 -44.5q-104 0 -182 44.5t-120 124.5t-42 183v81q0 103 42 183zM332.5 888q45.5 -59 134.5 -59q86 0 131.5 59t45.5 155v81q0 95 -46 154t-133 59 t-132.5 -59.5t-45.5 -153.5v-81q0 -96 45.5 -155z" />
<glyph unicode="&#xbb;" horiz-adv-x="961" d="M103 153zM540 560v-13v-6l-295 -388h-142l257 398l-257 398h142zM890 560v-13v-6l-295 -388h-142l257 398l-257 398h142z" />
<glyph unicode="&#xbf;" horiz-adv-x="970" d="M406.5 922q-29.5 30 -29.5 76q0 45 29.5 74.5t81.5 29.5t80.5 -29.5t28.5 -74.5q0 -46 -28.5 -76t-80.5 -30t-81.5 30zM572.5 527.5q-16.5 -58.5 -49 -105t-103.5 -123.5l-24 -25q-50 -53 -77 -88t-45.5 -81.5t-18.5 -105.5q0 -109 57.5 -166.5t165.5 -57.5q60 0 111 23 t82.5 69t31.5 113h187q-1 -111 -55 -194t-147.5 -127.5t-209.5 -44.5q-129 0 -221 45t-140.5 130.5t-48.5 204.5q0 85 34 161.5t86 140t125 135.5q50 49 70 109t20 140h187q-1 -94 -17.5 -152.5z" />
<glyph unicode="&#xc0;" horiz-adv-x="1338" d="M28 0zM973 381h-607l-138 -381h-200l556 1456h128h42l557 -1456h-199zM916 538l-247 680l-246 -680h493zM602 1554l-259 293h226l193 -293h-160z" />
<glyph unicode="&#xc1;" horiz-adv-x="1338" d="M28 0zM973 381h-607l-138 -381h-200l556 1456h128h42l557 -1456h-199zM916 538l-247 680l-246 -680h493zM999 1847l-269 -293h-150l194 293h225z" />
<glyph unicode="&#xc2;" horiz-adv-x="1338" d="M28 0zM973 381h-607l-138 -381h-200l556 1456h128h42l557 -1456h-199zM916 538l-247 680l-246 -680h493zM977 1564h-154l-150 170l-149 -170h-153v11l246 272h112l248 -273v-10z" />
<glyph unicode="&#xc3;" horiz-adv-x="1338" d="M28 0zM973 381h-607l-138 -381h-200l556 1456h128h42l557 -1456h-199zM916 538l-247 680l-246 -680h493zM999.5 1689q-28.5 -55 -78 -85t-109.5 -30q-47 0 -79 13t-69 38q-32 22 -58 33t-61 11q-43 0 -71.5 -32.5t-28.5 -79.5l-125 7q0 71 28.5 127t77.5 87.5t109 31.5 q38 0 68 -12t72 -37q38 -24 66 -35.5t62 -11.5q42 0 71 32.5t29 80.5l125 -12q0 -71 -28.5 -126z" />
<glyph unicode="&#xc4;" horiz-adv-x="1338" d="M28 0zM973 381h-607l-138 -381h-200l556 1456h128h42l557 -1456h-199zM916 538l-247 680l-246 -680h493zM541 1759q29 -30 29 -76q0 -45 -29 -74.5t-81 -29.5t-81 29.5t-29 74.5q0 46 29 76t81 30t81 -30zM971.5 1757q29.5 -30 29.5 -76q0 -45 -29.5 -74.5t-81.5 -29.5 t-80.5 29.5t-28.5 74.5q0 46 28.5 76t80.5 30t81.5 -30z" />
<glyph unicode="&#xc5;" horiz-adv-x="1338" d="M28 0zM973 381h-607l-138 -381h-200l556 1456h128h42l557 -1456h-199zM916 538l-247 680l-246 -680h493zM782 1910.5q49 -27.5 77.5 -75.5t28.5 -105t-28.5 -103.5t-77.5 -73t-109 -26.5q-61 0 -110 26.5t-77.5 73t-28.5 103.5t28.5 105t78 75.5t109.5 27.5t109 -27.5z M756 1649.5q33 34.5 33 80.5q0 48 -33 83.5t-83 35.5t-83 -35.5t-33 -83.5q0 -30 15 -56.5t41.5 -42.5t59.5 -16q50 0 83 34.5z" />
<glyph unicode="&#xc6;" horiz-adv-x="1915" d="M1881 150v-150h-733h-152l-15 354h-563l-205 -354h-229l881 1456h120h137h697v-150h-691l20 -473h590v-150h-584l23 -533h704zM974 527l-31 734l-425 -734h456z" />
<glyph unicode="&#xc7;" horiz-adv-x="1333" d="M880.5 173.5q73.5 37.5 111 108.5t55.5 180h194q-23 -205 -146 -334t-345 -146l-10 -45q67 -11 110 -52t43 -121q0 -96 -79 -152.5t-225 -56.5l-7 106q74 0 120 24.5t46 74.5q0 34 -16.5 53t-50.5 28t-94 14l30 129q-151 17 -263.5 104.5t-173.5 233t-61 332.5v147 q0 202 71.5 355t204.5 236.5t311 83.5q161 0 276 -60.5t179.5 -170t79.5 -256.5h-194q-23 163 -102 246.5t-239 83.5q-127 0 -215 -64t-132.5 -180t-44.5 -272v-149q0 -148 41 -265t125 -185t208 -68q119 0 192.5 37.5z" />
<glyph unicode="&#xc8;" horiz-adv-x="1164" d="M169 0zM1094 156v-156h-769h-156v1456h194h721v-157h-721v-469h629v-156h-629v-518h731zM548 1565l-259 293h226l193 -293h-160z" />
<glyph unicode="&#xc9;" horiz-adv-x="1164" d="M169 0zM1094 156v-156h-769h-156v1456h194h721v-157h-721v-469h629v-156h-629v-518h731zM945 1858l-269 -293h-150l194 293h225z" />
<glyph unicode="&#xca;" horiz-adv-x="1164" d="M169 0zM1094 156v-156h-769h-156v1456h194h721v-157h-721v-469h629v-156h-629v-518h731zM923 1575h-154l-150 170l-149 -170h-153v11l246 272h112l248 -273v-10z" />
<glyph unicode="&#xcb;" horiz-adv-x="1164" d="M169 0zM1094 156v-156h-769h-156v1456h194h721v-157h-721v-469h629v-156h-629v-518h731zM487 1770q29 -30 29 -76q0 -45 -29 -74.5t-81 -29.5t-81 29.5t-29 74.5q0 46 29 76t81 30t81 -30zM917.5 1768q29.5 -30 29.5 -76q0 -45 -29.5 -74.5t-81.5 -29.5t-80.5 29.5 t-28.5 74.5q0 46 28.5 76t80.5 30t81.5 -30z" />
<glyph unicode="&#xcc;" horiz-adv-x="558" d="M0 0zM183 0v1456h194v-1456h-194zM208 1565l-259 293h226l193 -293h-160z" />
<glyph unicode="&#xcd;" horiz-adv-x="558" d="M183 0zM183 0v1456h194v-1456h-194zM605 1858l-269 -293h-150l194 293h225z" />
<glyph unicode="&#xce;" horiz-adv-x="558" d="M0 0zM183 0v1456h194v-1456h-194zM583 1575h-154l-150 170l-149 -170h-153v11l246 272h112l248 -273v-10z" />
<glyph unicode="&#xcf;" horiz-adv-x="558" d="M0 0zM183 0v1456h194v-1456h-194zM147 1770q29 -30 29 -76q0 -45 -29 -74.5t-81 -29.5t-81 29.5t-29 74.5q0 46 29 76t81 30t81 -30zM577.5 1768q29.5 -30 29.5 -76q0 -45 -29.5 -74.5t-81.5 -29.5t-80.5 29.5t-28.5 74.5q0 46 28.5 76t80.5 30t81.5 -30z" />
<glyph unicode="&#xd0;" horiz-adv-x="1344" d="M916.5 1372.5q145.5 -83.5 226 -238.5t80.5 -362v-88q0 -209 -80.5 -363.5t-229.5 -237.5t-350 -83h-304h-90v666h-163v150h163v640h194h217q191 0 336.5 -83.5zM1031 774q0 166 -52.5 283.5t-154 179.5t-244.5 62h-217v-483h281v-150h-281v-510h200q152 0 257 64.5 t158 183t53 280.5v90z" />
<glyph unicode="&#xd1;" horiz-adv-x="1461" d="M169 0zM1094 0l-731 1126v-1126h-194v1456h194l734 -1129v1129h192v-1456h-195zM1052.5 1689q-28.5 -55 -78 -85t-109.5 -30q-47 0 -79 13t-69 38q-32 22 -58 33t-61 11q-43 0 -71.5 -32.5t-28.5 -79.5l-125 7q0 71 28.5 127t77.5 87.5t109 31.5q38 0 68 -12t72 -37 q38 -24 66 -35.5t62 -11.5q42 0 71 32.5t29 80.5l125 -12q0 -71 -28.5 -126z" />
<glyph unicode="&#xd2;" horiz-adv-x="1410" d="M118 0zM1218.5 307q-71.5 -158 -203.5 -242.5t-309 -84.5q-172 0 -305.5 85t-208 243.5t-74.5 372.5v93q0 214 74 373t207 244t305 85q177 0 309.5 -85t204.5 -243.5t72 -373.5v-93q0 -216 -71.5 -374zM1051.5 1068.5q-46.5 120.5 -135 182.5t-212.5 62 q-119 0 -208 -62.5t-137 -183t-48 -291.5v-95q0 -172 48.5 -293t137.5 -183.5t209 -62.5q188 0 290 139t102 400v95q0 172 -46.5 292.5zM636 1556l-259 293h226l193 -293h-160z" />
<glyph unicode="&#xd3;" horiz-adv-x="1410" d="M118 0zM1218.5 307q-71.5 -158 -203.5 -242.5t-309 -84.5q-172 0 -305.5 85t-208 243.5t-74.5 372.5v93q0 214 74 373t207 244t305 85q177 0 309.5 -85t204.5 -243.5t72 -373.5v-93q0 -216 -71.5 -374zM1051.5 1068.5q-46.5 120.5 -135 182.5t-212.5 62 q-119 0 -208 -62.5t-137 -183t-48 -291.5v-95q0 -172 48.5 -293t137.5 -183.5t209 -62.5q188 0 290 139t102 400v95q0 172 -46.5 292.5zM1033 1849l-269 -293h-150l194 293h225z" />
<glyph unicode="&#xd4;" horiz-adv-x="1410" d="M118 0zM1218.5 307q-71.5 -158 -203.5 -242.5t-309 -84.5q-172 0 -305.5 85t-208 243.5t-74.5 372.5v93q0 214 74 373t207 244t305 85q177 0 309.5 -85t204.5 -243.5t72 -373.5v-93q0 -216 -71.5 -374zM1051.5 1068.5q-46.5 120.5 -135 182.5t-212.5 62 q-119 0 -208 -62.5t-137 -183t-48 -291.5v-95q0 -172 48.5 -293t137.5 -183.5t209 -62.5q188 0 290 139t102 400v95q0 172 -46.5 292.5zM1011 1566h-154l-150 170l-149 -170h-153v11l246 272h112l248 -273v-10z" />
<glyph unicode="&#xd5;" horiz-adv-x="1410" d="M118 0zM1218.5 307q-71.5 -158 -203.5 -242.5t-309 -84.5q-172 0 -305.5 85t-208 243.5t-74.5 372.5v93q0 214 74 373t207 244t305 85q177 0 309.5 -85t204.5 -243.5t72 -373.5v-93q0 -216 -71.5 -374zM1051.5 1068.5q-46.5 120.5 -135 182.5t-212.5 62 q-119 0 -208 -62.5t-137 -183t-48 -291.5v-95q0 -172 48.5 -293t137.5 -183.5t209 -62.5q188 0 290 139t102 400v95q0 172 -46.5 292.5zM1033.5 1691q-28.5 -55 -78 -85t-109.5 -30q-47 0 -79 13t-69 38q-32 22 -58 33t-61 11q-43 0 -71.5 -32.5t-28.5 -79.5l-125 7 q0 71 28.5 127t77.5 87.5t109 31.5q38 0 68 -12t72 -37q38 -24 66 -35.5t62 -11.5q42 0 71 32.5t29 80.5l125 -12q0 -71 -28.5 -126z" />
<glyph unicode="&#xd6;" horiz-adv-x="1410" d="M118 0zM1218.5 307q-71.5 -158 -203.5 -242.5t-309 -84.5q-172 0 -305.5 85t-208 243.5t-74.5 372.5v93q0 214 74 373t207 244t305 85q177 0 309.5 -85t204.5 -243.5t72 -373.5v-93q0 -216 -71.5 -374zM1051.5 1068.5q-46.5 120.5 -135 182.5t-212.5 62 q-119 0 -208 -62.5t-137 -183t-48 -291.5v-95q0 -172 48.5 -293t137.5 -183.5t209 -62.5q188 0 290 139t102 400v95q0 172 -46.5 292.5zM575 1761q29 -30 29 -76q0 -45 -29 -74.5t-81 -29.5t-81 29.5t-29 74.5q0 46 29 76t81 30t81 -30zM1005.5 1759q29.5 -30 29.5 -76 q0 -45 -29.5 -74.5t-81.5 -29.5t-80.5 29.5t-28.5 74.5q0 46 28.5 76t80.5 30t81.5 -30z" />
<glyph unicode="&#xd7;" horiz-adv-x="1093" d="M870 204l-330 337l-331 -337l-120 122l331 337l-329 335l120 122l329 -334l328 334l120 -122l-328 -335l330 -337z" />
<glyph unicode="&#xd8;" horiz-adv-x="1410" d="M1151 1261q68 -90 103.5 -213.5t35.5 -273.5v-93q0 -216 -71.5 -374t-203.5 -242.5t-309 -84.5q-167 0 -302 82l-96 -155h-144l145 232q-92 92 -141.5 230t-49.5 312v93q0 214 74 373t207 244t305 85q107 0 198.5 -31.5t163.5 -92.5l103 164h141zM408 297l564 904 q-100 112 -268 112q-119 0 -208 -62.5t-137 -183t-48 -291.5v-95q0 -242 97 -384zM1043 1088l-548 -881q89 -65 211 -65q188 0 290 139t102 400v95q0 185 -55 312z" />
<glyph unicode="&#xd9;" horiz-adv-x="1328" d="M140 0zM1195 471q0 -158 -71.5 -269t-192 -166.5t-265.5 -55.5q-152 0 -270.5 55.5t-187 166t-68.5 269.5v985h192v-985q0 -166 89.5 -250.5t244.5 -84.5q156 0 245 84.5t89 250.5v985h195v-985zM596 1554l-259 293h226l193 -293h-160z" />
<glyph unicode="&#xda;" horiz-adv-x="1328" d="M140 0zM1195 471q0 -158 -71.5 -269t-192 -166.5t-265.5 -55.5q-152 0 -270.5 55.5t-187 166t-68.5 269.5v985h192v-985q0 -166 89.5 -250.5t244.5 -84.5q156 0 245 84.5t89 250.5v985h195v-985zM993 1847l-269 -293h-150l194 293h225z" />
<glyph unicode="&#xdb;" horiz-adv-x="1328" d="M140 0zM1195 471q0 -158 -71.5 -269t-192 -166.5t-265.5 -55.5q-152 0 -270.5 55.5t-187 166t-68.5 269.5v985h192v-985q0 -166 89.5 -250.5t244.5 -84.5q156 0 245 84.5t89 250.5v985h195v-985zM971 1564h-154l-150 170l-149 -170h-153v11l246 272h112l248 -273v-10z " />
<glyph unicode="&#xdc;" horiz-adv-x="1328" d="M140 0zM1195 471q0 -158 -71.5 -269t-192 -166.5t-265.5 -55.5q-152 0 -270.5 55.5t-187 166t-68.5 269.5v985h192v-985q0 -166 89.5 -250.5t244.5 -84.5q156 0 245 84.5t89 250.5v985h195v-985zM535 1759q29 -30 29 -76q0 -45 -29 -74.5t-81 -29.5t-81 29.5t-29 74.5 q0 46 29 76t81 30t81 -30zM965.5 1757q29.5 -30 29.5 -76q0 -45 -29.5 -74.5t-81.5 -29.5t-80.5 29.5t-28.5 74.5q0 46 28.5 76t80.5 30t81.5 -30z" />
<glyph unicode="&#xdd;" horiz-adv-x="1230" d="M15 0zM992 1456h220l-501 -912v-544h-195v544l-501 912h222l377 -732zM944 1846l-269 -293h-150l194 293h225z" />
<glyph unicode="&#xde;" horiz-adv-x="1210" d="M894 1108.5q110 -54.5 167 -150.5t57 -220q0 -123 -57 -219t-167 -150.5t-264 -54.5h-277v-314h-187v1456h187v-293h277q154 0 264 -54.5zM799.5 502q67.5 38 99.5 100t32 134q0 74 -32 137t-99.5 101.5t-169.5 38.5h-277v-549h277q102 0 169.5 38z" />
<glyph unicode="&#xdf;" horiz-adv-x="1218" d="M139 0v1112q0 143 49 242.5t138 149.5t207 50q112 0 196.5 -37t132.5 -112.5t48 -187.5q0 -55 -10.5 -98.5t-25 -74.5t-38.5 -72q-28 -46 -41 -78.5t-13 -73.5q0 -39 20 -73.5t50.5 -63t81.5 -69.5q64 -51 103 -89t66.5 -90.5t27.5 -117.5q0 -111 -48.5 -186.5 t-135.5 -113t-201 -37.5q-82 0 -171 22t-128 51l42 153q45 -28 110 -52t127 -24q111 0 164.5 49t53.5 129q0 41 -20 75.5t-50 63t-81 69.5q-64 52 -103 90.5t-66.5 93t-27.5 122.5q0 54 17.5 96.5t52.5 97.5q34 55 51 95t17 91q0 97 -53 149.5t-138 52.5q-105 0 -161.5 -72 t-56.5 -220v-1112h-186z" />
<glyph unicode="&#xe0;" horiz-adv-x="1115" d="M109 0zM975 118.5q10 -60.5 28 -102.5v-16h-195q-17 39 -26 113q-56 -60 -134.5 -96.5t-172.5 -36.5q-108 0 -191.5 42.5t-129 115.5t-45.5 162q0 115 59.5 195t169 120.5t258.5 40.5h182v86q0 99 -58.5 155.5t-168.5 56.5q-67 0 -120 -23.5t-82.5 -63t-29.5 -85.5h-187 q0 79 54 153t152 120.5t224 46.5q120 0 210.5 -40.5t141.5 -122t51 -199.5v-504q0 -57 10 -117.5zM621.5 162.5q55.5 22.5 95.5 59.5t61 80v224h-152q-160 0 -245 -50.5t-85 -149.5q0 -53 24 -95t70 -66.5t112 -24.5q64 0 119.5 22.5zM511 1243l-259 293h226l193 -293h-160z " />
<glyph unicode="&#xe1;" horiz-adv-x="1115" d="M109 0zM975 118.5q10 -60.5 28 -102.5v-16h-195q-17 39 -26 113q-56 -60 -134.5 -96.5t-172.5 -36.5q-108 0 -191.5 42.5t-129 115.5t-45.5 162q0 115 59.5 195t169 120.5t258.5 40.5h182v86q0 99 -58.5 155.5t-168.5 56.5q-67 0 -120 -23.5t-82.5 -63t-29.5 -85.5h-187 q0 79 54 153t152 120.5t224 46.5q120 0 210.5 -40.5t141.5 -122t51 -199.5v-504q0 -57 10 -117.5zM621.5 162.5q55.5 22.5 95.5 59.5t61 80v224h-152q-160 0 -245 -50.5t-85 -149.5q0 -53 24 -95t70 -66.5t112 -24.5q64 0 119.5 22.5zM908 1536l-269 -293h-150l194 293h225z " />
<glyph unicode="&#xe2;" horiz-adv-x="1115" d="M109 0zM975 118.5q10 -60.5 28 -102.5v-16h-195q-17 39 -26 113q-56 -60 -134.5 -96.5t-172.5 -36.5q-108 0 -191.5 42.5t-129 115.5t-45.5 162q0 115 59.5 195t169 120.5t258.5 40.5h182v86q0 99 -58.5 155.5t-168.5 56.5q-67 0 -120 -23.5t-82.5 -63t-29.5 -85.5h-187 q0 79 54 153t152 120.5t224 46.5q120 0 210.5 -40.5t141.5 -122t51 -199.5v-504q0 -57 10 -117.5zM621.5 162.5q55.5 22.5 95.5 59.5t61 80v224h-152q-160 0 -245 -50.5t-85 -149.5q0 -53 24 -95t70 -66.5t112 -24.5q64 0 119.5 22.5zM885 1253h-154l-150 170l-149 -170 h-153v11l246 272h112l248 -273v-10z" />
<glyph unicode="&#xe3;" horiz-adv-x="1115" d="M109 0zM975 118.5q10 -60.5 28 -102.5v-16h-195q-17 39 -26 113q-56 -60 -134.5 -96.5t-172.5 -36.5q-108 0 -191.5 42.5t-129 115.5t-45.5 162q0 115 59.5 195t169 120.5t258.5 40.5h182v86q0 99 -58.5 155.5t-168.5 56.5q-67 0 -120 -23.5t-82.5 -63t-29.5 -85.5h-187 q0 79 54 153t152 120.5t224 46.5q120 0 210.5 -40.5t141.5 -122t51 -199.5v-504q0 -57 10 -117.5zM621.5 162.5q55.5 22.5 95.5 59.5t61 80v224h-152q-160 0 -245 -50.5t-85 -149.5q0 -53 24 -95t70 -66.5t112 -24.5q64 0 119.5 22.5zM907.5 1378q-28.5 -55 -78 -85 t-109.5 -30q-47 0 -79 13t-69 38q-32 22 -58 33t-61 11q-43 0 -71.5 -32.5t-28.5 -79.5l-125 7q0 71 28.5 127t77.5 87.5t109 31.5q38 0 68 -12t72 -37q38 -24 66 -35.5t62 -11.5q42 0 71 32.5t29 80.5l125 -12q0 -71 -28.5 -126z" />
<glyph unicode="&#xe4;" horiz-adv-x="1115" d="M109 0zM975 118.5q10 -60.5 28 -102.5v-16h-195q-17 39 -26 113q-56 -60 -134.5 -96.5t-172.5 -36.5q-108 0 -191.5 42.5t-129 115.5t-45.5 162q0 115 59.5 195t169 120.5t258.5 40.5h182v86q0 99 -58.5 155.5t-168.5 56.5q-67 0 -120 -23.5t-82.5 -63t-29.5 -85.5h-187 q0 79 54 153t152 120.5t224 46.5q120 0 210.5 -40.5t141.5 -122t51 -199.5v-504q0 -57 10 -117.5zM621.5 162.5q55.5 22.5 95.5 59.5t61 80v224h-152q-160 0 -245 -50.5t-85 -149.5q0 -53 24 -95t70 -66.5t112 -24.5q64 0 119.5 22.5zM450 1448q29 -30 29 -76 q0 -45 -29 -74.5t-81 -29.5t-81 29.5t-29 74.5q0 46 29 76t81 30t81 -30zM880.5 1446q29.5 -30 29.5 -76q0 -45 -29.5 -74.5t-81.5 -29.5t-80.5 29.5t-28.5 74.5q0 46 28.5 76t80.5 30t81.5 -30z" />
<glyph unicode="&#xe5;" horiz-adv-x="1115" d="M109 0zM975 118.5q10 -60.5 28 -102.5v-16h-195q-17 39 -26 113q-56 -60 -134.5 -96.5t-172.5 -36.5q-108 0 -191.5 42.5t-129 115.5t-45.5 162q0 115 59.5 195t169 120.5t258.5 40.5h182v86q0 99 -58.5 155.5t-168.5 56.5q-67 0 -120 -23.5t-82.5 -63t-29.5 -85.5h-187 q0 79 54 153t152 120.5t224 46.5q120 0 210.5 -40.5t141.5 -122t51 -199.5v-504q0 -57 10 -117.5zM621.5 162.5q55.5 22.5 95.5 59.5t61 80v224h-152q-160 0 -245 -50.5t-85 -149.5q0 -53 24 -95t70 -66.5t112 -24.5q64 0 119.5 22.5zM691 1599.5q49 -27.5 77.5 -75.5 t28.5 -105t-28.5 -103.5t-77.5 -73t-109 -26.5q-61 0 -110 26.5t-77.5 73t-28.5 103.5t28.5 105t78 75.5t109.5 27.5t109 -27.5zM665 1338.5q33 34.5 33 80.5q0 48 -33 83.5t-83 35.5t-83 -35.5t-33 -83.5q0 -30 15 -56.5t41.5 -42.5t59.5 -16q50 0 83 34.5z" />
<glyph unicode="&#xe6;" horiz-adv-x="1730" d="M1661 499h-727q3 -107 39.5 -190t109 -131t180.5 -48q73 0 131 16t96.5 37t87.5 54l65 -135q-55 -45 -148 -84t-232 -39q-131 0 -232 47t-166 133q-58 -76 -167.5 -128t-264.5 -52q-112 0 -192 40t-121.5 113t-41.5 172q0 159 115 245t334 86h221v85q0 109 -55 170.5 t-157 61.5q-72 0 -127.5 -26t-86 -70t-30.5 -96l-186 18q0 93 54 166.5t152 115.5t224 42q116 0 204 -42t136 -123q63 79 151.5 122.5t190.5 42.5q142 0 241.5 -59t150.5 -168t51 -259v-117zM1474 671q0 124 -62 202.5t-194 78.5q-78 0 -137 -40t-95.5 -110.5t-47.5 -161.5 h536v31zM620.5 167q78.5 38 127.5 90v240h-219q-84 0 -143.5 -27t-90 -72t-30.5 -98q0 -76 52 -123.5t153 -47.5q72 0 150.5 38z" />
<glyph unicode="&#xe7;" horiz-adv-x="1073" d="M695.5 157.5q56.5 27.5 92.5 76t41 108.5h177q-5 -91 -60.5 -172t-146 -132t-196.5 -57l-10 -44q67 -11 110 -52t43 -121q0 -96 -79 -152.5t-225 -56.5l-7 106q74 0 120 24.5t46 74.5q0 34 -16.5 53t-50.5 28t-94 14l31 134q-124 23 -209 99t-127.5 188t-42.5 244v42 q0 150 54 272.5t162.5 195t265.5 72.5q124 0 220.5 -51t151.5 -140.5t60 -200.5h-177q-5 67 -38 122.5t-89 87.5t-128 32q-107 0 -173 -55.5t-94 -143t-28 -191.5v-42q0 -166 68.5 -278t226.5 -112q65 0 121.5 27.5z" />
<glyph unicode="&#xe8;" horiz-adv-x="1087" d="M93 0zM1012 490h-732q3 -101 42 -183t110.5 -129.5t167.5 -47.5q94 0 162.5 38t122.5 109l113 -88q-60 -92 -160 -150.5t-248 -58.5t-261 67t-174.5 186t-61.5 270v43q0 169 66 295.5t174.5 193.5t232.5 67q151 0 250.5 -67.5t147.5 -186.5t48 -275v-83zM825 654 q-8 127 -68.5 212.5t-190.5 85.5q-112 0 -186.5 -81.5t-93.5 -230.5h539v14zM495 1243l-259 293h226l193 -293h-160z" />
<glyph unicode="&#xe9;" horiz-adv-x="1087" d="M93 0zM1012 490h-732q3 -101 42 -183t110.5 -129.5t167.5 -47.5q94 0 162.5 38t122.5 109l113 -88q-60 -92 -160 -150.5t-248 -58.5t-261 67t-174.5 186t-61.5 270v43q0 169 66 295.5t174.5 193.5t232.5 67q151 0 250.5 -67.5t147.5 -186.5t48 -275v-83zM825 654 q-8 127 -68.5 212.5t-190.5 85.5q-112 0 -186.5 -81.5t-93.5 -230.5h539v14zM891 1536l-269 -293h-150l194 293h225z" />
<glyph unicode="&#xea;" horiz-adv-x="1087" d="M93 0zM1012 490h-732q3 -101 42 -183t110.5 -129.5t167.5 -47.5q94 0 162.5 38t122.5 109l113 -88q-60 -92 -160 -150.5t-248 -58.5t-261 67t-174.5 186t-61.5 270v43q0 169 66 295.5t174.5 193.5t232.5 67q151 0 250.5 -67.5t147.5 -186.5t48 -275v-83zM825 654 q-8 127 -68.5 212.5t-190.5 85.5q-112 0 -186.5 -81.5t-93.5 -230.5h539v14zM869 1253h-154l-150 170l-149 -170h-153v11l246 272h112l248 -273v-10z" />
<glyph unicode="&#xeb;" horiz-adv-x="1087" d="M93 0zM1012 490h-732q3 -101 42 -183t110.5 -129.5t167.5 -47.5q94 0 162.5 38t122.5 109l113 -88q-60 -92 -160 -150.5t-248 -58.5t-261 67t-174.5 186t-61.5 270v43q0 169 66 295.5t174.5 193.5t232.5 67q151 0 250.5 -67.5t147.5 -186.5t48 -275v-83zM825 654 q-8 127 -68.5 212.5t-190.5 85.5q-112 0 -186.5 -81.5t-93.5 -230.5h539v14zM433 1448q29 -30 29 -76q0 -45 -29 -74.5t-81 -29.5t-81 29.5t-29 74.5q0 46 29 76t81 30t81 -30zM863.5 1446q29.5 -30 29.5 -76q0 -45 -29.5 -74.5t-81.5 -29.5t-80.5 29.5t-28.5 74.5 q0 46 28.5 76t80.5 30t81.5 -30z" />
<glyph unicode="&#xec;" horiz-adv-x="508" d="M0 0zM156 0v1082h186v-1082h-186zM182 1241l-259 293h226l193 -293h-160z" />
<glyph unicode="&#xed;" horiz-adv-x="508" d="M156 0zM156 0v1082h186v-1082h-186zM579 1534l-269 -293h-150l194 293h225z" />
<glyph unicode="&#xee;" horiz-adv-x="508" d="M0 0zM156 0v1082h186v-1082h-186zM557 1251h-154l-150 170l-149 -170h-153v11l246 272h112l248 -273v-10z" />
<glyph unicode="&#xef;" horiz-adv-x="508" d="M0 0zM156 0v1082h186v-1082h-186zM121 1446q29 -30 29 -76q0 -45 -29 -74.5t-81 -29.5t-81 29.5t-29 74.5q0 46 29 76t81 30t81 -30zM551.5 1444q29.5 -30 29.5 -76q0 -45 -29.5 -74.5t-81.5 -29.5t-80.5 29.5t-28.5 74.5q0 46 28.5 76t80.5 30t81.5 -30z" />
<glyph unicode="&#xf0;" horiz-adv-x="1201" d="M1005.5 1005.5q64.5 -169.5 64.5 -372.5v-98q0 -162 -60 -288.5t-167 -196.5t-241 -70q-138 0 -246.5 65t-169 176.5t-60.5 246.5q0 151 58 267t160 179.5t230 63.5q81 0 154 -30.5t129 -82.5q-50 199 -189 335l-217 -147l-74 99l193 130q-133 92 -316 140l58 159 q239 -55 414 -193l189 128l73 -99l-168 -114q121 -128 185.5 -297.5zM883 635q0 39 -1 57q-32 58 -99.5 96.5t-164.5 38.5q-96 0 -164.5 -43.5t-104.5 -124.5t-36 -191q0 -85 35 -162.5t101.5 -126t156.5 -48.5q84 0 146.5 52.5t96.5 144t34 207.5v100z" />
<glyph unicode="&#xf1;" horiz-adv-x="1131" d="M140 0zM992 709v-709h-187v711q0 124 -53.5 180t-161.5 56q-86 0 -154.5 -47t-108.5 -126v-774h-187v1082h177l6 -133q59 73 141 113t181 40q347 0 347 -393zM898.5 1378q-28.5 -55 -78 -85t-109.5 -30q-47 0 -79 13t-69 38q-32 22 -58 33t-61 11q-43 0 -71.5 -32.5 t-28.5 -79.5l-125 7q0 71 28.5 127t77.5 87.5t109 31.5q38 0 68 -12t72 -37q38 -24 66 -35.5t62 -11.5q42 0 71 32.5t29 80.5l125 -12q0 -71 -28.5 -126z" />
<glyph unicode="&#xf2;" horiz-adv-x="1169" d="M92 0zM152 834q60 125 171.5 196.5t259.5 71.5q150 0 262 -71.5t172 -196.5t60 -282v-23q0 -157 -60 -281.5t-171.5 -196t-260.5 -71.5t-260.5 71.5t-172 196t-60.5 281.5v23q0 157 60 282zM313.5 328q34.5 -91 103.5 -144.5t168 -53.5q98 0 167 53.5t103.5 144.5 t34.5 201v23q0 110 -35 201t-104 145t-168 54q-98 0 -166.5 -54t-103 -145t-34.5 -201v-23q0 -110 34.5 -201zM505 1243l-259 293h226l193 -293h-160z" />
<glyph unicode="&#xf3;" horiz-adv-x="1169" d="M92 0zM152 834q60 125 171.5 196.5t259.5 71.5q150 0 262 -71.5t172 -196.5t60 -282v-23q0 -157 -60 -281.5t-171.5 -196t-260.5 -71.5t-260.5 71.5t-172 196t-60.5 281.5v23q0 157 60 282zM313.5 328q34.5 -91 103.5 -144.5t168 -53.5q98 0 167 53.5t103.5 144.5 t34.5 201v23q0 110 -35 201t-104 145t-168 54q-98 0 -166.5 -54t-103 -145t-34.5 -201v-23q0 -110 34.5 -201zM901 1536l-269 -293h-150l194 293h225z" />
<glyph unicode="&#xf4;" horiz-adv-x="1169" d="M92 0zM152 834q60 125 171.5 196.5t259.5 71.5q150 0 262 -71.5t172 -196.5t60 -282v-23q0 -157 -60 -281.5t-171.5 -196t-260.5 -71.5t-260.5 71.5t-172 196t-60.5 281.5v23q0 157 60 282zM313.5 328q34.5 -91 103.5 -144.5t168 -53.5q98 0 167 53.5t103.5 144.5 t34.5 201v23q0 110 -35 201t-104 145t-168 54q-98 0 -166.5 -54t-103 -145t-34.5 -201v-23q0 -110 34.5 -201zM879 1253h-154l-150 170l-149 -170h-153v11l246 272h112l248 -273v-10z" />
<glyph unicode="&#xf5;" horiz-adv-x="1169" d="M92 0zM152 834q60 125 171.5 196.5t259.5 71.5q150 0 262 -71.5t172 -196.5t60 -282v-23q0 -157 -60 -281.5t-171.5 -196t-260.5 -71.5t-260.5 71.5t-172 196t-60.5 281.5v23q0 157 60 282zM313.5 328q34.5 -91 103.5 -144.5t168 -53.5q98 0 167 53.5t103.5 144.5 t34.5 201v23q0 110 -35 201t-104 145t-168 54q-98 0 -166.5 -54t-103 -145t-34.5 -201v-23q0 -110 34.5 -201zM901.5 1378q-28.5 -55 -78 -85t-109.5 -30q-47 0 -79 13t-69 38q-32 22 -58 33t-61 11q-43 0 -71.5 -32.5t-28.5 -79.5l-125 7q0 71 28.5 127t77.5 87.5t109 31.5 q38 0 68 -12t72 -37q38 -24 66 -35.5t62 -11.5q42 0 71 32.5t29 80.5l125 -12q0 -71 -28.5 -126z" />
<glyph unicode="&#xf6;" horiz-adv-x="1169" d="M92 0zM152 834q60 125 171.5 196.5t259.5 71.5q150 0 262 -71.5t172 -196.5t60 -282v-23q0 -157 -60 -281.5t-171.5 -196t-260.5 -71.5t-260.5 71.5t-172 196t-60.5 281.5v23q0 157 60 282zM313.5 328q34.5 -91 103.5 -144.5t168 -53.5q98 0 167 53.5t103.5 144.5 t34.5 201v23q0 110 -35 201t-104 145t-168 54q-98 0 -166.5 -54t-103 -145t-34.5 -201v-23q0 -110 34.5 -201zM443 1448q29 -30 29 -76q0 -45 -29 -74.5t-81 -29.5t-81 29.5t-29 74.5q0 46 29 76t81 30t81 -30zM873.5 1446q29.5 -30 29.5 -76q0 -45 -29.5 -74.5t-81.5 -29.5 t-80.5 29.5t-28.5 74.5q0 46 28.5 76t80.5 30t81.5 -30z" />
<glyph unicode="&#xf7;" horiz-adv-x="1170" d="M661.5 1178.5q30.5 -31.5 30.5 -80.5q0 -47 -30.5 -78t-85.5 -31t-85 30.5t-30 78.5q0 49 30 80.5t85 31.5t85.5 -31.5zM71 601v183h998v-183h-998zM661.5 362q30.5 -31 30.5 -80q0 -47 -30.5 -78t-85.5 -31t-85 30.5t-30 78.5q0 49 30 80t85 31t85.5 -31z" />
<glyph unicode="&#xf8;" horiz-adv-x="1161" d="M1026.5 812.5q50.5 -117.5 50.5 -260.5v-23q0 -157 -60 -281.5t-171.5 -196t-260.5 -71.5q-103 0 -190 35l-74 -150h-124l101 204q-98 73 -152 193t-54 267v23q0 157 60 282t171.5 196.5t259.5 71.5q113 0 204 -41l73 148h124l-101 -205q93 -74 143.5 -191.5zM302.5 358 q24.5 -79 71.5 -134l343 696q-61 32 -134 32q-98 0 -166.5 -54t-103.5 -145.5t-35 -200.5v-23q0 -92 24.5 -171zM890 552q0 86 -22 161.5t-64 131.5l-340 -690q55 -25 121 -25q98 0 167 53.5t103.5 144.5t34.5 201v23z" />
<glyph unicode="&#xf9;" horiz-adv-x="1129" d="M136 0zM989 1082v-1082h-178l-3 107q-108 -127 -317 -127q-167 0 -261 98t-94 306v698h187v-700q0 -135 55.5 -190.5t142.5 -55.5q210 0 281 157v789h187zM497 1243l-259 293h226l193 -293h-160z" />
<glyph unicode="&#xfa;" horiz-adv-x="1129" d="M136 0zM989 1082v-1082h-178l-3 107q-108 -127 -317 -127q-167 0 -261 98t-94 306v698h187v-700q0 -135 55.5 -190.5t142.5 -55.5q210 0 281 157v789h187zM893 1536l-269 -293h-150l194 293h225z" />
<glyph unicode="&#xfb;" horiz-adv-x="1129" d="M136 0zM989 1082v-1082h-178l-3 107q-108 -127 -317 -127q-167 0 -261 98t-94 306v698h187v-700q0 -135 55.5 -190.5t142.5 -55.5q210 0 281 157v789h187zM871 1253h-154l-150 170l-149 -170h-153v11l246 272h112l248 -273v-10z" />
<glyph unicode="&#xfc;" horiz-adv-x="1129" d="M136 0zM989 1082v-1082h-178l-3 107q-108 -127 -317 -127q-167 0 -261 98t-94 306v698h187v-700q0 -135 55.5 -190.5t142.5 -55.5q210 0 281 157v789h187zM436 1448q29 -30 29 -76q0 -45 -29 -74.5t-81 -29.5t-81 29.5t-29 74.5q0 46 29 76t81 30t81 -30zM866.5 1446 q29.5 -30 29.5 -76q0 -45 -29.5 -74.5t-81.5 -29.5t-80.5 29.5t-28.5 74.5q0 46 28.5 76t80.5 30t81.5 -30z" />
<glyph unicode="&#xfd;" horiz-adv-x="969" d="M22 0zM944 1082l-434 -1249q-40 -109 -115.5 -189.5t-205.5 -80.5q-21 0 -54.5 5.5t-50.5 10.5v149q11 -2 25 -3.5t25 -1.5q95 0 147.5 39.5t85.5 138.5l41 111l-386 1070h204l268 -810l251 810h199zM834 1536l-269 -293h-150l194 293h225z" />
<glyph unicode="&#xfe;" horiz-adv-x="1181" d="M871 1033.5q95 -68.5 144.5 -193t49.5 -290.5v-21q0 -159 -49.5 -283.5t-144.5 -195t-226 -70.5q-196 0 -309 124v-520h-187v1952h187v-563q113 129 306 129q134 0 229 -68.5zM878 550q0 112 -31.5 201.5t-97 142.5t-162.5 53q-88 0 -150 -40t-101 -109v-521 q83 -147 253 -147q96 0 161 53.5t96.5 143.5t31.5 202v21z" />
<glyph unicode="&#xff;" horiz-adv-x="969" d="M22 0zM944 1082l-434 -1249q-40 -109 -115.5 -189.5t-205.5 -80.5q-21 0 -54.5 5.5t-50.5 10.5v149q11 -2 25 -3.5t25 -1.5q95 0 147.5 39.5t85.5 138.5l41 111l-386 1070h204l268 -810l251 810h199zM376 1448q29 -30 29 -76q0 -45 -29 -74.5t-81 -29.5t-81 29.5 t-29 74.5q0 46 29 76t81 30t81 -30zM806.5 1446q29.5 -30 29.5 -76q0 -45 -29.5 -74.5t-81.5 -29.5t-80.5 29.5t-28.5 74.5q0 46 28.5 76t80.5 30t81.5 -30z" />
<glyph unicode="&#x131;" horiz-adv-x="508" d="M156 0v1082h186v-1082h-186z" />
<glyph unicode="&#x152;" horiz-adv-x="1954" d="M1801 156v-156h-770h-77q-92 -10 -158 -15.5t-134 -5.5q-164 0 -290.5 75.5t-196.5 211t-70 310.5v304q0 175 69.5 310.5t196 211t289.5 75.5q122 0 294 -21h116h721v-157h-721v-469h629v-156h-629v-518h731zM337 332.5q45 -100.5 128 -152t197 -51.5q102 0 214 15v1168 q-106 14 -216 14q-114 0 -196.5 -51t-127 -150.5t-44.5 -242.5v-306q0 -143 45 -243.5z" />
<glyph unicode="&#x153;" horiz-adv-x="1859" d="M1791 499h-716q4 -105 39.5 -188.5t102.5 -132t161 -48.5q190 0 309 108l73 -125q-57 -57 -152 -95.5t-230 -38.5q-131 0 -234.5 55.5t-167.5 156.5q-62 -101 -162.5 -156.5t-231.5 -55.5q-148 0 -258 71.5t-168.5 196.5t-58.5 282v23q0 157 58.5 282t167.5 196.5 t257 71.5q132 0 234 -56.5t164 -158.5q65 101 163.5 158.5t208.5 56.5q145 0 244 -60.5t148 -169t49 -252.5v-121zM878 552q0 110 -32.5 201t-100 145t-165.5 54t-164.5 -54t-99 -145t-32.5 -201v-23q0 -111 32.5 -201.5t99.5 -144t166 -53.5q98 0 164.5 53.5t99 144 t32.5 201.5v23zM1604 675q0 76 -27.5 139t-85 100.5t-141.5 37.5q-68 0 -124.5 -39.5t-94 -108t-50.5 -155.5h523v26z" />
<glyph unicode="&#x2c6;" horiz-adv-x="966" d="M776 1253h-154l-150 170l-149 -170h-153v11l246 272h112l248 -273v-10z" />
<glyph unicode="&#x2da;" horiz-adv-x="687" d="M446 1588.5q49 -27.5 77.5 -75.5t28.5 -105t-28.5 -103.5t-77.5 -73t-109 -26.5q-61 0 -110 26.5t-77.5 73t-28.5 103.5t28.5 105t78 75.5t109.5 27.5t109 -27.5zM420 1327.5q33 34.5 33 80.5q0 48 -33 83.5t-83 35.5t-83 -35.5t-33 -83.5q0 -30 15 -56.5t41.5 -42.5 t59.5 -16q50 0 83 34.5z" />
<glyph unicode="&#x2dc;" horiz-adv-x="968" d="M803.5 1374q-28.5 -55 -78 -85t-109.5 -30q-47 0 -79 13t-70 38q-33 22 -58 33t-61 11q-42 0 -70.5 -32.5t-28.5 -79.5l-125 7q0 71 28 127t77 87.5t110 31.5q38 0 67.5 -12t71.5 -37q36 -23 65 -35t64 -12q42 0 71 32.5t29 80.5l125 -12q0 -71 -28.5 -126z" />
<glyph unicode="&#x300;" horiz-adv-x="0" d="M-600 1243l-259 293h226l193 -293h-160z" />
<glyph unicode="&#x301;" horiz-adv-x="0" d="M-240 1536l-269 -293h-150l194 293h225z" />
<glyph unicode="&#x303;" horiz-adv-x="0" d="M-207.5 1374q-28.5 -55 -78 -85t-109.5 -30q-47 0 -79 13t-69 38q-32 22 -58 33t-61 11q-43 0 -71.5 -32.5t-28.5 -79.5l-125 7q0 71 28.5 127t77.5 87.5t109 31.5q38 0 68 -12t72 -37q38 -24 66 -35.5t62 -11.5q42 0 71 32.5t29 80.5l125 -12q0 -71 -28.5 -126z" />
<glyph unicode="&#x2000;" horiz-adv-x="969" />
<glyph unicode="&#x2001;" horiz-adv-x="1938" />
<glyph unicode="&#x2002;" horiz-adv-x="969" />
<glyph unicode="&#x2003;" horiz-adv-x="1938" />
<glyph unicode="&#x2004;" horiz-adv-x="646" />
<glyph unicode="&#x2005;" horiz-adv-x="484" />
<glyph unicode="&#x2006;" horiz-adv-x="323" />
<glyph unicode="&#x2007;" horiz-adv-x="323" />
<glyph unicode="&#x2008;" horiz-adv-x="242" />
<glyph unicode="&#x2009;" horiz-adv-x="387" />
<glyph unicode="&#x200a;" horiz-adv-x="107" />
<glyph unicode="&#x2010;" horiz-adv-x="565" d="M37 544v151h489v-151h-489z" />
<glyph unicode="&#x2011;" horiz-adv-x="565" d="M37 544v151h489v-151h-489z" />
<glyph unicode="&#x2012;" horiz-adv-x="565" d="M37 544v151h489v-151h-489z" />
<glyph unicode="&#x2013;" horiz-adv-x="1344" d="M162 652v150h1002v-150h-1002z" />
<glyph unicode="&#x2014;" horiz-adv-x="1599" d="M145 652v150h1336v-150h-1336z" />
<glyph unicode="&#x2018;" horiz-adv-x="411" d="M143 1389.5q47 100.5 129 166.5l106 -72q-49 -68 -73 -137.5t-24 -148.5v-124h-185v121q0 94 47 194.5z" />
<glyph unicode="&#x2019;" horiz-adv-x="411" d="M282 1213.5q-47 -100.5 -128 -166.5l-106 72q48 67 72 137t24 150v130h185v-128q0 -94 -47 -194.5z" />
<glyph unicode="&#x201a;" horiz-adv-x="409" d="M270 -115.5q-47 -100.5 -128 -166.5l-106 72q48 67 71.5 137t23.5 149v107h186v-104q0 -94 -47 -194.5z" />
<glyph unicode="&#x201c;" horiz-adv-x="727" d="M105 1074zM152 1389.5q47 100.5 129 166.5l106 -72q-49 -68 -73 -137.5t-24 -148.5v-124h-185v121q0 94 47 194.5zM468 1389.5q47 100.5 129 166.5l106 -72q-49 -68 -73 -137.5t-24 -148.5v-124h-185v121q0 94 47 194.5z" />
<glyph unicode="&#x201d;" horiz-adv-x="734" d="M60 1047zM294 1213.5q-47 -100.5 -128 -166.5l-106 72q48 67 72 137t24 150v130h185v-128q0 -94 -47 -194.5zM602 1213.5q-47 -100.5 -128 -166.5l-106 72q48 67 72 137t24 150v130h185v-128q0 -94 -47 -194.5z" />
<glyph unicode="&#x201e;" horiz-adv-x="709" d="M270 -125.5q-47 -105.5 -128 -174.5l-106 72q48 71 71.5 145t23.5 159v170h186v-167q0 -99 -47 -204.5zM568 -125.5q-47 -105.5 -128 -174.5l-106 72q47 71 70.5 145t23.5 159v170h187v-167q0 -99 -47 -204.5z" />
<glyph unicode="&#x2022;" horiz-adv-x="691" d="M164 874q25 45 71 70.5t107 25.5q63 0 109.5 -25.5t71 -70t24.5 -102.5v-40q0 -88 -55 -142t-149 -54q-62 0 -108 25t-71 69.5t-25 101.5v40q0 57 25 102z" />
<glyph unicode="&#x2026;" horiz-adv-x="1371" d="M147 0zM347.5 177.5q30.5 -31.5 30.5 -80.5q0 -48 -30.5 -78t-85.5 -30q-54 0 -84.5 30.5t-30.5 77.5q0 49 30.5 80.5t84.5 31.5q55 0 85.5 -31.5zM785.5 177.5q30.5 -31.5 30.5 -80.5q0 -48 -30.5 -78t-85.5 -30q-54 0 -84.5 30.5t-30.5 77.5q0 49 30.5 80.5t84.5 31.5 q55 0 85.5 -31.5zM1201.5 177.5q30.5 -31.5 30.5 -80.5q0 -48 -30.5 -78t-85.5 -30q-54 0 -84.5 30.5t-30.5 77.5q0 49 30.5 80.5t84.5 31.5q55 0 85.5 -31.5z" />
<glyph unicode="&#x202f;" horiz-adv-x="387" />
<glyph unicode="&#x2039;" horiz-adv-x="615" d="M288 551l258 -397h-143l-295 388v13v6l295 388h143z" />
<glyph unicode="&#x203a;" horiz-adv-x="615" d="M527 560v-13v-6l-295 -388h-142l257 398l-257 398h142z" />
<glyph unicode="&#x205f;" horiz-adv-x="484" />
<glyph unicode="&#x20ac;" d="M1033 169l20 -159q-117 -30 -240 -30q-159 0 -279 63.5t-188.5 189.5t-71.5 309h-178v123h177v138h-177v124h178q6 179 74.5 302t187.5 185t276 62q107 0 241 -31l-20 -160q-110 35 -219 35q-158 0 -248.5 -98.5t-97.5 -294.5h383v-124h-383v-138h383v-123h-383 q4 -202 95.5 -304.5t251.5 -102.5q114 0 218 34z" />
<glyph unicode="&#x25fc;" horiz-adv-x="1080" d="M0 1080h1080v-1080h-1080v1080z" />
<glyph unicode="&#xfb01;" horiz-adv-x="1135" d="M442 1339.5q-53 -52.5 -53 -162.5v-95h220v-141h-220v-941h-187v941h-171v141h171v95q0 121 47.5 206.5t137 129.5t212.5 44q67 0 133.5 -15.5t149.5 -45.5l-31 -154q-125 50 -238 50q-118 0 -171 -52.5zM974 1082v-1082h-187v1082h187z" />
<glyph unicode="&#xfb02;" horiz-adv-x="1164" d="M764 1540.5q102 -16.5 239 -44.5v-1496h-187v1381q-128 19 -199 19q-97 0 -148 -52t-51 -151v-115h230v-141h-230v-941h-187v941h-170v141h170v115q0 174 97 267t275 93q59 0 161 -16.5z" />
<glyph unicode="&#xfb03;" horiz-adv-x="1749" d="M1056 1339.5q-53 -52.5 -53 -162.5v-95h221v-141h-221v-941h-187v941h-170h-228v-941h-187v941h-170v141h170v115q0 173 94.5 266.5t262.5 93.5q61 0 127 -16l-10 -149q-45 8 -100 8q-89 0 -138 -52.5t-49 -150.5v-115h239h159v95q0 121 48 206.5t137 129.5t212 44 q67 0 133.5 -15.5t150.5 -45.5l-32 -154q-125 50 -238 50q-118 0 -171 -52.5zM1588 1082v-1082h-187v1082h187z" />
<glyph unicode="&#xfb04;" horiz-adv-x="1749" d="M1349 1540.5q102 -16.5 239 -44.5v-1496h-187v1381q-128 19 -199 19q-97 0 -148 -52t-51 -151v-115h230v-141h-230v-941h-187v941h-170h-228v-941h-187v941h-170v141h170v115q0 173 94.5 266.5t262.5 93.5q61 0 127 -16l-10 -149q-45 8 -100 8q-89 0 -138 -52.5 t-49 -150.5v-115h240h158v115q0 173 97 266.5t275 93.5q59 0 161 -16.5z" />
<glyph horiz-adv-x="752" d="M338 0v603l-215 -58v128l355 116h18v-789h-158z" />
<glyph horiz-adv-x="752" d="M84 0v108l289 271q64 60 92 104t28 79q0 50 -32.5 80.5t-90.5 30.5q-72 0 -108.5 -37t-36.5 -97h-159q0 72 36.5 131.5t104.5 94.5t159 35q89 0 153.5 -28.5t98.5 -82t34 -125.5q0 -51 -22.5 -96.5t-62 -89t-106.5 -104.5l-175 -147h398v-127h-600z" />
<glyph horiz-adv-x="752" d="M667 220q0 -72 -39.5 -124t-109 -79.5t-157.5 -27.5q-79 0 -147 25.5t-109.5 78t-41.5 129.5h158q0 -46 40.5 -76t104.5 -30q68 0 105 30.5t37 81.5q0 61 -40.5 88.5t-117.5 27.5h-85v77v38h85q71 0 108 30t37 80q0 47 -33 75.5t-99 28.5q-57 0 -94 -25.5t-37 -68.5h-159 q0 66 38 116.5t103.5 77.5t145.5 27q134 0 213.5 -58.5t79.5 -165.5q0 -56 -35 -101.5t-100 -69.5q149 -42 149 -185z" />
<glyph horiz-adv-x="920" d="M0 0z" />
</font>
</defs>
</svg>
