<svg width="60" height="59" viewBox="0 0 60 59" fill="none" xmlns="http://www.w3.org/2000/svg">
<g id="Group 6">
<g id="Avatar">
<path id="Mask" d="M29 56.6359C44.4576 56.6359 57 44.1877 57 28.8179C57 13.4481 44.4576 1 29 1C13.5424 1 1 13.4481 1 28.8179C1 44.1877 13.5424 56.6359 29 56.6359Z" fill="#CDE9F7" stroke="#3BB5F2" stroke-width="2"/>
<mask id="mask0_614_92217" style="mask-type:luminance" maskUnits="userSpaceOnUse" x="0" y="0" width="58" height="58">
<path id="Mask_2" d="M29 56.6359C44.4576 56.6359 57 44.1877 57 28.8179C57 13.4481 44.4576 1 29 1C13.5424 1 1 13.4481 1 28.8179C1 44.1877 13.5424 56.6359 29 56.6359Z" fill="white" stroke="white" stroke-width="2"/>
</mask>
<g mask="url(#mask0_614_92217)">
<g id="Group 23">
<path id="Fill 1" fill-rule="evenodd" clip-rule="evenodd" d="M21.9751 52.5531H35.9401V34.8281H21.9751V52.5531Z" fill="url(#paint0_linear_614_92217)"/>
<g id="Group 22">
<g id="Group 4">
<mask id="mask1_614_92217" style="mask-type:luminance" maskUnits="userSpaceOnUse" x="14" y="8" width="30" height="30">
<path id="Clip 3" fill-rule="evenodd" clip-rule="evenodd" d="M14.635 8H43.28V37.0459H14.635V8Z" fill="white"/>
</mask>
<g mask="url(#mask1_614_92217)">
<path id="Fill 2" fill-rule="evenodd" clip-rule="evenodd" d="M28.958 8C17.256 8 14.635 18.77 14.635 23.984C14.635 32.369 19.73 37.046 28.958 37.046C38.185 37.046 43.28 32.369 43.28 23.984C43.28 18.77 40.659 8 28.958 8Z" fill="#1C5B7B"/>
</g>
</g>
<path id="Fill 5" fill-rule="evenodd" clip-rule="evenodd" d="M28.9581 25.8105L18.7231 29.6095C18.7231 29.6095 19.0101 32.7935 22.0221 37.0995C23.4141 39.0885 24.8801 40.1435 26.3031 40.3425C27.5871 40.5215 28.9581 40.5195 28.9581 40.5195C28.9581 40.5195 30.3281 40.5215 31.6121 40.3425C33.0351 40.1435 34.5011 39.0885 35.8931 37.0995C38.9051 32.7935 39.1921 29.6095 39.1921 29.6095L28.9581 25.8105Z" fill="#3BB5F2"/>
<path id="Fill 7" fill-rule="evenodd" clip-rule="evenodd" d="M14.506 25.4819H14.764C15.234 25.4819 15.614 25.1009 15.614 24.6319V22.1869C15.614 21.7169 15.234 21.3359 14.764 21.3359H14.506C14.036 21.3359 13.655 21.7169 13.655 22.1869V24.6319C13.655 25.1009 14.036 25.4819 14.506 25.4819Z" fill="#1C5B7B"/>
<path id="Fill 9" fill-rule="evenodd" clip-rule="evenodd" d="M43.1515 25.4819H43.4105C43.8795 25.4819 44.2595 25.1009 44.2595 24.6319V22.1869C44.2595 21.7169 43.8795 21.3359 43.4105 21.3359H43.1515C42.6815 21.3359 42.3015 21.7169 42.3015 22.1869V24.6319C42.3015 25.1009 42.6815 25.4819 43.1515 25.4819Z" fill="#1C5B7B"/>
<path id="Fill 11" fill-rule="evenodd" clip-rule="evenodd" d="M28.958 16.7764C23.551 16.7764 16.958 17.6774 16.958 19.8074V25.5084C16.958 27.2044 17.707 28.8414 19.073 29.9184C19.734 30.4404 20.562 30.9924 21.572 31.4944C23.726 32.5674 26.376 31.7934 27.561 29.7634C28.024 28.9684 28.311 28.3384 28.958 28.3384C29.604 28.3384 29.892 28.9684 30.355 29.7634C31.539 31.7934 34.19 32.5674 36.344 31.4944C37.354 30.9924 38.181 30.4404 38.843 29.9184C40.208 28.8414 40.958 27.2044 40.958 25.5084V19.8074C40.958 17.6774 34.365 16.7764 28.958 16.7764Z" fill="#132E38"/>
<g id="Group 15">
<mask id="mask2_614_92217" style="mask-type:luminance" maskUnits="userSpaceOnUse" x="9" y="41" width="40" height="21">
<path id="Clip 14" fill-rule="evenodd" clip-rule="evenodd" d="M9.00024 41.21H48.91V61.82H9.00024V41.21Z" fill="white"/>
</mask>
<g mask="url(#mask2_614_92217)">
<path id="Fill 13" fill-rule="evenodd" clip-rule="evenodd" d="M48.9102 53.56V56.45C48.9102 58.58 45.6492 59.92 41.5302 60.73C37.3992 61.54 32.4202 61.82 28.9602 61.82C22.0402 61.82 9.00024 60.7 9.00024 56.45V53.56C9.00024 50.6 10.5592 47.89 13.0802 46.48L20.5702 42.27L20.8202 42.13C20.9102 42.08 21.0002 42.02 21.0802 41.97C21.3492 41.76 21.5702 41.5 21.7202 41.21C21.7202 41.21 22.6302 42.28 23.8092 43.74C23.8802 43.82 23.9502 43.91 24.0192 44C26.1302 46.64 28.9392 50.37 28.9602 51.59C28.9792 50.37 31.8002 46.63 33.9102 43.99C33.9792 43.9 34.0402 43.82 34.1092 43.74C35.2902 42.28 36.2002 41.21 36.2002 41.21C36.3492 41.5 36.5702 41.76 36.8402 41.96C36.9202 42.02 37.0102 42.08 37.0992 42.13L37.3592 42.28L44.8402 46.48C47.3592 47.89 48.9102 50.6 48.9102 53.56Z" fill="#1C5B7B"/>
</g>
</g>
<path id="Fill 16" fill-rule="evenodd" clip-rule="evenodd" d="M33.9103 43.9902C31.8003 46.6302 28.9793 50.3702 28.9603 51.5902C28.9393 50.3702 26.1303 46.6402 24.0193 44.0002C25.5193 44.7102 27.1893 45.1102 28.9603 45.1102C30.7293 45.1102 32.4103 44.7102 33.9103 43.9902Z" fill="white"/>
<path id="Fill 18" fill-rule="evenodd" clip-rule="evenodd" d="M21.9757 40.5205C21.1947 40.8965 19.8427 41.3765 18.4587 43.4575C20.4967 44.1605 23.4787 45.8535 27.4647 48.6095C27.4647 48.6095 24.3757 44.1615 21.9757 40.5205Z" fill="#132E38"/>
<path id="Fill 20" fill-rule="evenodd" clip-rule="evenodd" d="M35.9453 40.5205C36.7263 40.8965 38.0783 41.3765 39.4633 43.4575C37.4243 44.1605 34.4423 45.8535 30.4563 48.6095C30.4563 48.6095 33.5463 44.1615 35.9453 40.5205Z" fill="#132E38"/>
</g>
</g>
</g>
</g>
<g id="Dictation">
<mask id="path-15-outside-1_614_92217" maskUnits="userSpaceOnUse" x="44" y="36" width="16" height="23" fill="black">
<rect fill="white" x="44" y="36" width="16" height="23"/>
<path fill-rule="evenodd" clip-rule="evenodd" d="M52 38C53.6569 38 55 39.3431 55 41V48C55 49.6569 53.6569 51 52 51C50.3431 51 49 49.6569 49 48V41C49 39.3431 50.3431 38 52 38ZM57.25 44.5C56.8358 44.5 56.5 44.8358 56.5 45.25V48C56.5 50.4853 54.4853 52.5 52 52.5C49.5147 52.5 47.5 50.4853 47.5 48V45.25C47.5 44.8358 47.1642 44.5 46.75 44.5C46.3358 44.5 46 44.8358 46 45.25V48C46.0015 51.0226 48.2511 53.5722 51.25 53.95V55.5H49.25C48.8358 55.5 48.5 55.8358 48.5 56.25C48.5 56.6642 48.8358 57 49.25 57H54.75C55.1642 57 55.5 56.6642 55.5 56.25C55.5 55.8358 55.1642 55.5 54.75 55.5H52.75V53.95C55.7489 53.5722 57.9985 51.0226 58 48V45.25C58 44.8358 57.6642 44.5 57.25 44.5Z"/>
</mask>
<path fill-rule="evenodd" clip-rule="evenodd" d="M52 38C53.6569 38 55 39.3431 55 41V48C55 49.6569 53.6569 51 52 51C50.3431 51 49 49.6569 49 48V41C49 39.3431 50.3431 38 52 38ZM57.25 44.5C56.8358 44.5 56.5 44.8358 56.5 45.25V48C56.5 50.4853 54.4853 52.5 52 52.5C49.5147 52.5 47.5 50.4853 47.5 48V45.25C47.5 44.8358 47.1642 44.5 46.75 44.5C46.3358 44.5 46 44.8358 46 45.25V48C46.0015 51.0226 48.2511 53.5722 51.25 53.95V55.5H49.25C48.8358 55.5 48.5 55.8358 48.5 56.25C48.5 56.6642 48.8358 57 49.25 57H54.75C55.1642 57 55.5 56.6642 55.5 56.25C55.5 55.8358 55.1642 55.5 54.75 55.5H52.75V53.95C55.7489 53.5722 57.9985 51.0226 58 48V45.25C58 44.8358 57.6642 44.5 57.25 44.5Z" fill="#3BB5F2"/>
<path d="M56.5 48H58.2H56.5ZM47.5 45.25H49.2H47.5ZM46 48H44.3L44.3 48.0008L46 48ZM51.25 53.95H52.95V52.4507L51.4625 52.2633L51.25 53.95ZM51.25 55.5V57.2H52.95V55.5H51.25ZM49.25 55.5V57.2V55.5ZM52.75 55.5H51.05V57.2H52.75V55.5ZM52.75 53.95L52.5375 52.2633L51.05 52.4507V53.95H52.75ZM58 48L59.7 48.0008V48H58ZM57.25 44.5V46.2V44.5ZM52 39.7C52.718 39.7 53.3 40.282 53.3 41H56.7C56.7 38.4043 54.5957 36.3 52 36.3V39.7ZM53.3 41V48H56.7V41H53.3ZM53.3 48C53.3 48.718 52.718 49.3 52 49.3V52.7C54.5957 52.7 56.7 50.5957 56.7 48H53.3ZM52 49.3C51.282 49.3 50.7 48.718 50.7 48H47.3C47.3 50.5957 49.4043 52.7 52 52.7V49.3ZM50.7 48V41H47.3V48H50.7ZM50.7 41C50.7 40.282 51.282 39.7 52 39.7V36.3C49.4043 36.3 47.3 38.4043 47.3 41H50.7ZM57.25 42.8C55.8969 42.8 54.8 43.8969 54.8 45.25H58.2C58.2 45.7747 57.7747 46.2 57.25 46.2V42.8ZM54.8 45.25V48H58.2V45.25H54.8ZM54.8 48C54.8 49.5464 53.5464 50.8 52 50.8V54.2C55.4242 54.2 58.2 51.4242 58.2 48H54.8ZM52 50.8C50.4536 50.8 49.2 49.5464 49.2 48H45.8C45.8 51.4242 48.5758 54.2 52 54.2V50.8ZM49.2 48V45.25H45.8V48H49.2ZM49.2 45.25C49.2 43.8969 48.1031 42.8 46.75 42.8V46.2C46.2253 46.2 45.8 45.7747 45.8 45.25H49.2ZM46.75 42.8C45.3969 42.8 44.3 43.8969 44.3 45.25H47.7C47.7 45.7747 47.2747 46.2 46.75 46.2V42.8ZM44.3 45.25V48H47.7V45.25H44.3ZM44.3 48.0008C44.3019 51.8798 47.1889 55.1518 51.0375 55.6367L51.4625 52.2633C49.3133 51.9926 47.7011 50.1654 47.7 47.9992L44.3 48.0008ZM49.55 53.95V55.5H52.95V53.95H49.55ZM51.25 53.8H49.25V57.2H51.25V53.8ZM49.25 53.8C47.8969 53.8 46.8 54.8969 46.8 56.25H50.2C50.2 56.7747 49.7747 57.2 49.25 57.2V53.8ZM46.8 56.25C46.8 57.6031 47.8969 58.7 49.25 58.7V55.3C49.7747 55.3 50.2 55.7253 50.2 56.25H46.8ZM49.25 58.7H54.75V55.3H49.25V58.7ZM54.75 58.7C56.1031 58.7 57.2 57.6031 57.2 56.25H53.8C53.8 55.7253 54.2253 55.3 54.75 55.3V58.7ZM57.2 56.25C57.2 54.8969 56.1031 53.8 54.75 53.8V57.2C54.2253 57.2 53.8 56.7747 53.8 56.25H57.2ZM54.75 53.8H52.75V57.2H54.75V53.8ZM54.45 55.5V53.95H51.05V55.5H54.45ZM52.9625 55.6367C56.8111 55.1518 59.6981 51.8798 59.7 48.0008L56.3 47.9992C56.2989 50.1654 54.6867 51.9926 52.5375 52.2633L52.9625 55.6367ZM59.7 48V45.25H56.3V48H59.7ZM59.7 45.25C59.7 43.8969 58.6031 42.8 57.25 42.8V46.2C56.7253 46.2 56.3 45.7747 56.3 45.25H59.7Z" fill="white" mask="url(#path-15-outside-1_614_92217)"/>
</g>
</g>
<defs>
<linearGradient id="paint0_linear_614_92217" x1="23.6461" y1="31.3551" x2="23.6461" y2="44.8383" gradientUnits="userSpaceOnUse">
<stop stop-color="#1C5B7B"/>
<stop offset="1" stop-color="#3BB5F2"/>
</linearGradient>
</defs>
</svg>
