<?xml version="1.0" encoding="utf-8"?>
<!-- Generator: Adobe Illustrator 23.0.3, SVG Export Plug-In . SVG Version: 6.00 Build 0)  -->
<svg version="1.1" id="Layer_1" xmlns="http://www.w3.org/2000/svg" xmlns:xlink="http://www.w3.org/1999/xlink" x="0px" y="0px"
	 viewBox="0 0 59.1 62" style="enable-background:new 0 0 59.1 62;" xml:space="preserve">
<style type="text/css">
	.st0{fill:#3BB5F2;}
	.st1{fill:#FFFFFF;}
</style>
<g id="share_quiz_result_1_" transform="translate(-93 -580)">
	
		<image style="overflow:visible;opacity:0.23;" width="62" height="62" xlink:href="19F307E6.png"  transform="matrix(1 0 0 1 91.6021 579.8181)">
	</image>
	<g>
		<g>
			<g id="Group_97_10_" transform="translate(3)">
				<g id="Group_96_10_">
					<g transform="translate(90 580)">
						<circle id="Ellipse_49-2_13_" class="st0" cx="29.6" cy="31" r="24.7"/>
					</g>
				</g>
			</g>
		</g>
	</g>
</g>
<g>
	<path class="st1" d="M20.4,24.3c0-1.2,0.4-2.3,1.1-3.5c0.7-1.2,1.8-2.2,3.3-3c1.4-0.8,3.1-1.2,5-1.2c1.8,0,3.4,0.3,4.7,1
		c1.4,0.7,2.4,1.5,3.2,2.7c0.7,1.1,1.1,2.4,1.1,3.7c0,1-0.2,2-0.6,2.7c-0.4,0.8-0.9,1.5-1.5,2c-0.6,0.6-1.6,1.5-3.1,2.9
		c-0.4,0.4-0.8,0.7-1,1c-0.3,0.3-0.4,0.6-0.6,0.8c-0.1,0.2-0.2,0.5-0.3,0.7c-0.1,0.2-0.2,0.7-0.3,1.3c-0.2,1.3-1,1.9-2.2,1.9
		c-0.6,0-1.2-0.2-1.6-0.6c-0.4-0.4-0.7-1-0.7-1.9c0-1,0.2-1.9,0.5-2.7c0.3-0.8,0.7-1.4,1.3-2c0.5-0.6,1.2-1.2,2.1-2
		c0.8-0.7,1.4-1.2,1.7-1.6s0.6-0.7,0.9-1.2c0.2-0.4,0.4-0.9,0.4-1.4c0-1-0.4-1.8-1.1-2.5c-0.7-0.7-1.7-1-2.8-1c-1.4,0-2.3,0.3-3,1
		c-0.6,0.7-1.2,1.7-1.6,3c-0.4,1.4-1.2,2.1-2.4,2.1c-0.7,0-1.3-0.2-1.7-0.7C20.6,25.4,20.4,24.9,20.4,24.3z M29.3,45.4
		c-0.7,0-1.4-0.2-2-0.7c-0.6-0.5-0.8-1.2-0.8-2c0-0.8,0.3-1.4,0.8-2c0.5-0.5,1.2-0.8,2-0.8c0.8,0,1.4,0.3,2,0.8
		c0.5,0.5,0.8,1.2,0.8,2c0,0.9-0.3,1.5-0.8,2S30.1,45.4,29.3,45.4z"/>
</g>
</svg>
