<svg xmlns="http://www.w3.org/2000/svg" xmlns:xlink="http://www.w3.org/1999/xlink"width="30px" height="30px" viewBox="0 0 20 20" version="1.1">
<g id="20X20/Camera" stroke="none" stroke-width="1" fill="none" fill-rule="evenodd">
<path id="camera-icon" d="M15.7142857,2 L15.7142857,3.42857143 L18,3.42857143 C19.1045695,3.42857143 20,4.32400193 20,5.42857143 L20,15.7142857 C20,16.8188552 19.1045695,17.7142857 18,17.7142857 L2,17.7142857 C0.8954305,17.7142857 1.3527075e-16,16.8188552 0,15.7142857 L0,5.42857143 C-1.3527075e-16,4.32400193 0.8954305,3.42857143 2,3.42857143 L12.8571429,3.42857143 L12.8571429,2 L15.7142857,2 Z M10.0957764,5.66720497 L9.83925359,5.6734711 C8.56320101,5.73597443 7.3900251,6.26369902 6.52020792,7.15003171 C5.61096653,8.07393729 5.0957764,9.32297382 5.0957764,10.667205 C5.0957764,13.4608173 7.30129026,15.667205 10.0957764,15.667205 C11.4378053,15.667205 12.686798,15.1512841 13.6128421,14.242879 C14.5583712,13.3149685 15.0957764,12.0420086 15.0957764,10.667205 C15.0957764,7.87193353 12.8910478,5.66720497 10.0957764,5.66720497 Z M10.0957764,7.0957764 L10.2885189,7.10062463 C12.2014174,7.19721193 13.667205,8.72563088 13.667205,10.667205 C13.667205,11.6573996 13.2847786,12.5632586 12.6123412,13.2231661 C11.9520918,13.8708393 11.0616988,14.2386335 10.0957764,14.2386335 C8.09039518,14.2386335 6.52434783,12.6719657 6.52434783,10.667205 C6.52434783,9.69919208 6.89125036,8.80966676 7.53911218,8.15135556 C8.19972277,7.47820273 9.10558179,7.0957764 10.0957764,7.0957764 Z M10.0957764,9.14285714 C9.66447205,9.14285714 9.28012422,9.31416149 9.00534161,9.59416149 C8.7357764,9.86807453 8.57142857,10.2454658 8.57142857,10.667205 C8.57142857,11.5202484 9.24186335,12.1915528 10.0957764,12.1915528 C10.5175155,12.1915528 10.8949068,12.0263354 11.1688199,11.7576398 C11.4488199,11.4828571 11.6201242,11.0985093 11.6201242,10.667205 C11.6201242,9.81329193 10.9496894,9.14285714 10.0957764,9.14285714 Z" id="Combined-Shape" fill="rgb(170 170 170)"/>
</g>
</svg>