<svg xmlns="http://www.w3.org/2000/svg" xmlns:xlink="http://www.w3.org/1999/xlink" width="69" height="69" viewBox="0 0 69 69">
  <defs>
    <filter id="Ellipse_47" x="0" y="0" width="69" height="69" filterUnits="userSpaceOnUse">
      <feOffset dy="3" input="SourceAlpha"/>
      <feGaussianBlur stdDeviation="3" result="blur"/>
      <feFlood flood-opacity="0.161"/>
      <feComposite operator="in" in2="blur"/>
      <feComposite in="SourceGraphic"/>
    </filter>
  </defs>
  <g id="Component_145_1" data-name="Component 145 – 1" transform="translate(9 6)">
    <g transform="matrix(1, 0, 0, 1, -9, -6)" filter="url(#Ellipse_47)">
      <circle id="Ellipse_47-2" data-name="Ellipse 47" cx="25.5" cy="25.5" r="25.5" transform="translate(9 6)" fill="#3bb5f2"/>
    </g>
    <g id="Group_92" data-name="Group 92" transform="translate(10 14)">
      <path id="Path_39" data-name="Path 39" d="M2892.223-2133.776a.6.6,0,0,1-.214-.039l-7.715-2.967a.594.594,0,0,1-.38-.554.593.593,0,0,1,.38-.554l7.715-2.968a.6.6,0,0,1,.426,0l7.715,2.968a.592.592,0,0,1,.381.554.594.594,0,0,1-.38.554l-7.715,2.967A.6.6,0,0,1,2892.223-2133.776Zm-6.062-3.561,6.062,2.331,6.062-2.331-6.062-2.331Z" transform="translate(-2876.542 2140.898)" fill="#fff"/>
      <path id="Path_40" data-name="Path 40" d="M2892.223-2109.729a.6.6,0,0,1-.214-.039l-7.715-2.967a.593.593,0,0,1-.38-.554v-9.5a.594.594,0,0,1,.594-.594.594.594,0,0,1,.594.594v9.089l7.122,2.739,7.122-2.739v-9.089a.594.594,0,0,1,.594-.594.594.594,0,0,1,.594.594v9.5a.593.593,0,0,1-.38.554l-7.715,2.967A.6.6,0,0,1,2892.223-2109.729Z" transform="translate(-2876.542 2126.347)" fill="#fff"/>
      <path id="Path_41" data-name="Path 41" d="M2930.053-2095.179a.594.594,0,0,1-.594-.594v-9.5a.594.594,0,0,1,.594-.594.594.594,0,0,1,.594.594v9.5A.594.594,0,0,1,2930.053-2095.179Z" transform="translate(-2914.373 2111.797)" fill="#fff"/>
      <path id="Path_42" data-name="Path 42" d="M2918.187-2032.3a.651.651,0,0,1-.522-.261.653.653,0,0,1,.13-.915l1.916-1.437-1.916-1.437a.653.653,0,0,1-.13-.915.654.654,0,0,1,.915-.131l2.614,1.96a.654.654,0,0,1,.261.523.654.654,0,0,1-.261.523l-2.614,1.96a.657.657,0,0,1-.392.131Z" transform="translate(-2904.467 2055.041)" fill="#fff"/>
      <path id="Path_43" data-name="Path 43" d="M2856.076-2055.908a52.262,52.262,0,0,1-5.559-.279c-2.371-.239-10.122-1.255-10.122-4.295,0-1.24,1.279-2.276,3.8-3.079a.671.671,0,0,1,.859.623.649.649,0,0,1-.518.64c-2.091.673-2.834,1.4-2.834,1.815,0,.87,2.777,2.373,8.951,3a50.915,50.915,0,0,0,5.423.272.654.654,0,0,1,.653.653A.654.654,0,0,1,2856.076-2055.908Z" transform="translate(-2840.395 2076.684)" fill="#fff"/>
      <path id="Path_44" data-name="Path 44" d="M2956.684-2056.115a.653.653,0,0,1-.651-.6.654.654,0,0,1,.6-.7c6.729-.55,9.866-2.159,9.866-3.073,0-.421-.757-1.154-2.89-1.833a.655.655,0,0,1-.425-.821.654.654,0,0,1,.821-.425c2.522.8,3.8,1.838,3.8,3.079,0,3.221-8.47,4.163-11.067,4.376Z" transform="translate(-2936.443 2076.695)" fill="#fff"/>
    </g>
  </g>
</svg>
