<svg xmlns="http://www.w3.org/2000/svg" xmlns:xlink="http://www.w3.org/1999/xlink" width="69" height="69" viewBox="0 0 69 69">
  <defs>
    <filter id="Ellipse_48" x="0" y="0" width="69" height="69" filterUnits="userSpaceOnUse">
      <feOffset dy="3" input="SourceAlpha"/>
      <feGaussianBlur stdDeviation="3" result="blur"/>
      <feFlood flood-opacity="0.161"/>
      <feComposite operator="in" in2="blur"/>
      <feComposite in="SourceGraphic"/>
    </filter>
  </defs>
  <g id="Component_146_1" data-name="Component 146 – 1" transform="translate(9 6)">
    <g transform="matrix(1, 0, 0, 1, -9, -6)" filter="url(#Ellipse_48)">
      <circle id="Ellipse_48-2" data-name="Ellipse 48" cx="25.5" cy="25.5" r="25.5" transform="translate(9 6)" fill="#3bb5f2"/>
    </g>
    <g id="Group_79" data-name="Group 79" transform="translate(12 17)">
      <path id="Path_158" data-name="Path 158" d="M27.989,13.265a25.206,25.206,0,0,0-.74-4.877,18.719,18.719,0,0,0-1.514-4.1c-2.354-4.137-4.91-3.5-7.971-2.691A21.907,21.907,0,0,1,14.67,2.2h-.336a21.91,21.91,0,0,1-3.094-.605C8.179.821,5.622.148,3.268,4.319a17.147,17.147,0,0,0-1.514,4.1,25.207,25.207,0,0,0-.74,4.877,9.164,9.164,0,0,0,.471,3.834A2.549,2.549,0,0,0,3.1,18.647a3.288,3.288,0,0,0,2.153-.235,15.808,15.808,0,0,0,4.305-3.061A7.426,7.426,0,0,1,14.5,13.837a7.425,7.425,0,0,1,4.944,1.514,15.808,15.808,0,0,0,4.305,3.061,3.518,3.518,0,0,0,2.153.235A2.513,2.513,0,0,0,27.518,17.1,8.992,8.992,0,0,0,27.989,13.265Zm-1.614,3.363a1.334,1.334,0,0,1-.807.841,2.322,2.322,0,0,1-1.379-.168,13.719,13.719,0,0,1-3.9-2.792A8.4,8.4,0,0,0,14.5,12.593a8.869,8.869,0,0,0-5.819,1.85,13.976,13.976,0,0,1-3.9,2.792A2.086,2.086,0,0,1,3.4,17.4a1.334,1.334,0,0,1-.807-.841,7.953,7.953,0,0,1-.336-3.229,23.2,23.2,0,0,1,.706-4.641,16.049,16.049,0,0,1,1.413-3.8c1.85-3.33,4-2.792,6.559-2.119a19.729,19.729,0,0,0,3.3.639h.5a19.484,19.484,0,0,0,3.33-.639c2.556-.639,4.709-1.211,6.559,2.119a15.507,15.507,0,0,1,1.413,3.8,25.458,25.458,0,0,1,.706,4.641A7.784,7.784,0,0,1,26.374,16.629Z" transform="translate(-1 -1)" fill="#fff" stroke="#fff" stroke-width="0.4"/>
      <path id="Path_159" data-name="Path 159" d="M11.682,6.972A2.044,2.044,0,0,0,10.471,6.4a1.914,1.914,0,0,0-.538-1.177L9.9,5.189A1.905,1.905,0,0,0,8.52,4.617a1.986,1.986,0,0,0-1.379.572A1.955,1.955,0,0,0,6.57,6.4a2,2,0,0,0-1.211.538l-.034.034a1.9,1.9,0,0,0-.572,1.379A1.986,1.986,0,0,0,5.325,9.73,1.875,1.875,0,0,0,6.57,10.3a1.794,1.794,0,0,0,.572,1.211,1.9,1.9,0,0,0,1.379.572A1.986,1.986,0,0,0,9.9,11.512a2.044,2.044,0,0,0,.572-1.211,1.794,1.794,0,0,0,1.211-.572,1.9,1.9,0,0,0,.572-1.379A1.986,1.986,0,0,0,11.682,6.972Zm-.841,1.883a.685.685,0,0,1-.5.2H9.866a.639.639,0,0,0-.639.639v.437a.706.706,0,1,1-1.413,0V9.662a.639.639,0,0,0-.639-.639H6.7a.69.69,0,0,1-.5-1.177l.034-.034A.8.8,0,0,1,6.7,7.644h.471a.639.639,0,0,0,.639-.639V6.535a.714.714,0,0,1,1.211-.5l.034.034a.8.8,0,0,1,.168.471v.471a.639.639,0,0,0,.639.639h.471a.714.714,0,0,1,.5,1.211Z" transform="translate(-1.275 -1.265)" fill="#fff"/>
      <path id="Path_160" data-name="Path 160" d="M21.789,7.153a1.177,1.177,0,1,0-1.177-1.177A1.177,1.177,0,0,0,21.789,7.153Z" transform="translate(-2.435 -1.278)" fill="#fff"/>
      <path id="Path_161" data-name="Path 161" d="M21.789,12.306a1.177,1.177,0,1,0-1.177-1.177A1.177,1.177,0,0,0,21.789,12.306Z" transform="translate(-2.435 -1.655)" fill="#fff"/>
      <path id="Path_162" data-name="Path 162" d="M19.213,9.73a1.177,1.177,0,1,0-1.177-1.177A1.177,1.177,0,0,0,19.213,9.73Z" transform="translate(-2.247 -1.467)" fill="#fff"/>
      <path id="Path_163" data-name="Path 163" d="M24.366,9.73a1.177,1.177,0,1,0-1.177-1.177A1.177,1.177,0,0,0,24.366,9.73Z" transform="translate(-2.624 -1.467)" fill="#fff"/>
    </g>
  </g>
</svg>
