<svg xmlns="http://www.w3.org/2000/svg" xmlns:xlink="http://www.w3.org/1999/xlink" width="50.146" height="32.352" viewBox="0 0 50.146 32.352">
  <defs>
    <clipPath id="clip-path">
      <path id="Clip_12" data-name="Clip 12" d="M0,22.854H22.9V0H0Z" fill="none"/>
    </clipPath>
  </defs>
  <g id="Group_203" data-name="Group 203" transform="translate(-145.848 -15.204)">
    <path id="Path_169" data-name="Path 169" d="M10826.258-4744.178s5.707,8.59,10.8,3.5,6.873-9.051,5.438-12.721-7.9-5.264-10.05,0,7.339,10.13,13.241,10.13c3.169,0,4.74.975,5.592,2.369" transform="translate(-10656.313 4783.384)" fill="none" stroke="#474747" stroke-linecap="round" stroke-width="1.5"/>
    <g id="Planes_raam" data-name="Planes/raam" transform="translate(147 16)">
      <g id="icon_efroni" transform="translate(-1.152 15.396) rotate(-45)">
        <path id="Fill_1" data-name="Fill 1" d="M11.181,22.306h-.024l-3.672-.338a.272.272,0,0,1-.244-.273v-.845c0-.14.023-.847.483-.982.246-.072,1.816-.5,2.325-.635l.324-1.439c-.056-.461-.45-3.788-.45-5.351v-.487H8.272l-.037,0L.251,10.812a.272.272,0,0,1-.231-.269L0,8.494c0-.007,0-.014,0-.021a.582.582,0,0,1,.467-.592c.207-.021,7.218-.549,7.517-.571H9.924V5.893a19.426,19.426,0,0,1,.179-2.5.269.269,0,0,1-.167-.134,3.4,3.4,0,0,0-.244-.385.279.279,0,0,1-.047-.239.969.969,0,0,1,.694-.665C10.729,0,11.011,0,11.181,0s.452,0,.844,1.968a.969.969,0,0,1,.694.665.279.279,0,0,1-.047.239,3.356,3.356,0,0,0-.244.385.268.268,0,0,1-.167.134,19.428,19.428,0,0,1,.179,2.5V7.309h1.939c.3.022,7.309.55,7.517.571a.582.582,0,0,1,.467.592c0,.007,0,.014,0,.021l-.021,2.049a.272.272,0,0,1-.231.269l-7.984,1.141-.037,0H12.439v.487c0,1.563-.395,4.891-.45,5.351l.324,1.439c.509.138,2.079.563,2.325.635.46.134.483.841.483.982v.845a.272.272,0,0,1-.244.273l-3.672.338Z" transform="translate(0.268 0.274)" fill="#f2f2f2"/>
        <path id="Fill_3" data-name="Fill 3" d="M11.449,22.854l-.048,0-3.672-.338a.541.541,0,0,1-.488-.546v-.845a2.326,2.326,0,0,1,.049-.445.943.943,0,0,1,.629-.8c.16-.047.912-.252,2.174-.594l.278-1.232c-.075-.621-.446-3.8-.446-5.337V12.5H8.54a.471.471,0,0,1-.074-.006L.482,11.357a.547.547,0,0,1-.461-.537L0,8.771c0-.014,0-.028,0-.042a.855.855,0,0,1,.708-.847c.176-.018,5.014-.382,6.835-.52l.689-.052.039,0H9.924V6.167a19.27,19.27,0,0,1,.158-2.357.56.56,0,0,1-.113-.147l0,0a3.1,3.1,0,0,0-.219-.345.56.56,0,0,1-.095-.478,1.214,1.214,0,0,1,.722-.8c.093-.443.188-.817.282-1.113.11-.344.293-.92.792-.92s.682.576.792.92c.094.3.192.682.282,1.113a1.231,1.231,0,0,1,.722.8.562.562,0,0,1-.095.478,3.15,3.15,0,0,0-.221.348.583.583,0,0,1-.114.149,19.247,19.247,0,0,1,.158,2.356V7.309h1.652l.039,0,.687.052c1.823.137,6.661.5,6.837.52a.856.856,0,0,1,.708.847c0,.014,0,.028,0,.042l-.021,2.049a.54.54,0,0,1-.461.537L14.432,12.5a.475.475,0,0,1-.074.006H12.974v.212c0,1.541-.372,4.716-.446,5.337l.278,1.232c1.286.349,2.018.549,2.174.594a.943.943,0,0,1,.629.8,2.333,2.333,0,0,1,.048.445v.845a.541.541,0,0,1-.487.546l-3.672.338Zm-3.178-15c-.073.005-7.307.55-7.51.57s-.226.335-.227.338l.021,2.049L8.54,11.955h1.919v.76c0,1.629.449,5.328.454,5.366l-.371,1.648c-.014,0-2.188.592-2.476.676s-.289.712-.289.718v.845l3.672.338,3.672-.338v-.845c0-.006,0-.635-.289-.718s-2.248-.615-2.473-.675h0l-.371-1.647c0-.037.454-3.738.454-5.366v-.76h1.918l7.984-1.141.021-2.049s-.023-.317-.227-.338-7.437-.565-7.51-.57H12.44V6.167a20.2,20.2,0,0,0-.26-3.041.957.957,0,0,1,.281.273.055.055,0,0,1,.007-.013,3.563,3.563,0,0,1,.262-.409.753.753,0,0,0-.663-.5C11.849,1.34,11.6.548,11.449.548s-.4.792-.616,1.927a.752.752,0,0,0-.663.5,3.756,3.756,0,0,1,.268.422l0,0a.937.937,0,0,1,.278-.268,20.145,20.145,0,0,0-.26,3.041v1.69Z" transform="translate(0 0)" fill="#455453"/>
        <path id="Fill_5" data-name="Fill 5" d="M.428,1.671A.9.9,0,0,1,.948.849C1.49.6,0,0,0,0Z" transform="translate(11.456 4.289)" fill="#ea211c"/>
        <path id="Fill_7" data-name="Fill 7" d="M.638,1.671A.9.9,0,0,0,.119.849C-.423.6,1.066,0,1.066,0Z" transform="translate(10.368 4.289)" fill="#ea211c"/>
        <path id="Fill_9" data-name="Fill 9" d="M.549,2.579C.449,3.21.368,3.9.324,4.59h1.91C2.19,3.9,2.109,3.21,2.009,2.579a.945.945,0,0,1,.281.273,3.643,3.643,0,0,1,.268-.423.75.75,0,0,0-.663-.5C1.681.8,1.427,0,1.279,0h0c-.147,0-.4.8-.616,1.927a.75.75,0,0,0-.663.5,3.652,3.652,0,0,1,.268.423.944.944,0,0,1,.281-.273" transform="translate(10.17 0.548)" fill="#ea211c"/>
        <path id="Clip_12-2" data-name="Clip 12" d="M0,22.854H22.9V0H0Z" fill="none"/>
        <g id="icon_efroni-2" data-name="icon_efroni" clip-path="url(#clip-path)">
          <path id="Fill_11" data-name="Fill 11" d="M0,.279H3.562V0H0Z" transform="translate(9.668 0.96)" fill="#455453"/>
          <path id="Fill_13" data-name="Fill 13" d="M.743,0A.765.765,0,0,0,0,.507,3.633,3.633,0,0,1,.268.93S.475.613.7.613A.707.707,0,0,0,.743,0" transform="translate(10.17 2.47)" fill="#75838e"/>
          <path id="Fill_14" data-name="Fill 14" d="M.053,0A.765.765,0,0,1,.8.507,3.641,3.641,0,0,0,.528.93S.322.613.095.613A.707.707,0,0,1,.053,0" transform="translate(11.932 2.47)" fill="#75838e"/>
          <path id="Fill_15" data-name="Fill 15" d="M4.525,0C2.536.15.339.317.227.328.021.349,0,.666,0,.666L.021,2.715l4.5.644Z" transform="translate(0.535 8.099)" fill="#ea211c"/>
          <path id="Fill_16" data-name="Fill 16" d="M4.257.325C4.146.314,1.978.149,0,0V3.35l4.463-.638L4.484.663S4.463.346,4.257.325" transform="translate(17.879 8.102)" fill="#ea211c"/>
          <path id="Fill_17" data-name="Fill 17" d="M1.445,0C.924.142.418.28.289.318,0,.4,0,1.036,0,1.036v.845l1.445.133Z" transform="translate(7.777 20.087)" fill="#ea211c"/>
          <path id="Fill_18" data-name="Fill 18" d="M1.115.307C.99.27.507.138,0,0V2L1.4,1.87V1.025s0-.634-.289-.718" transform="translate(13.717 20.098)" fill="#ea211c"/>
          <path id="Fill_19" data-name="Fill 19" d="M0,0Q.02.266.042.539H1.789Q1.812.266,1.832,0Z" transform="translate(10.533 14.29)" fill="#f2f2f2"/>
          <path id="Fill_20" data-name="Fill 20" d="M.107,0H.8L.908,5.085H0Z" transform="translate(10.995 1.304)" fill="#ea211c"/>
          <path id="Fill_21" data-name="Fill 21" d="M1.655,1.661A1.31,1.31,0,0,0,.165,1.635L0,1.744v-.43C0,.43.3,0,.912,0s.912.43.912,1.314v.466Z" transform="translate(10.537 5.994)" fill="#455453"/>
          <path id="Fill_22" data-name="Fill 22" d="M2.035,2.1h0L1.7,1.861A1.207,1.207,0,0,0,.33,1.837L0,2.053v-.4c0-.09,0-.168,0-.23C0,.479.343,0,1.019,0S2.037.479,2.037,1.423c0,.068,0,.155,0,.258l0,.416ZM1,1.416a1.416,1.416,0,0,1,.825.265c0-.056,0-.108,0-.154s0-.073,0-.1c0-.822-.256-1.2-.8-1.2s-.8.383-.8,1.2c0,.028,0,.059,0,.093s0,.088,0,.136A1.417,1.417,0,0,1,1,1.416Z" transform="translate(10.43 5.885)" fill="#f2f2f2"/>
          <path id="Fill_23" data-name="Fill 23" d="M1.593,2.348C1.6,1.56,1.6.8,1.607.3A1.281,1.281,0,0,0,0,.268c0,.508.008,1.294.014,2.11A1.369,1.369,0,0,0,.783,2.6a1.362,1.362,0,0,0,.811-.256" transform="translate(10.646 7.442)" fill="#455453"/>
          <path id="Fill_24" data-name="Fill 24" d="M.768.225A1.522,1.522,0,0,1,0,.024C.011,1.547.025,3.111.025,3.111a2.518,2.518,0,0,0,.763.148,2.518,2.518,0,0,0,.763-.148S1.565,1.53,1.577,0A1.517,1.517,0,0,1,.768.225" transform="translate(10.661 9.964)" fill="#455453"/>
          <path id="Fill_25" data-name="Fill 25" d="M11.449,22.854l-.048,0-3.672-.338a.541.541,0,0,1-.488-.546v-.845a2.326,2.326,0,0,1,.049-.445.943.943,0,0,1,.629-.8c.16-.047.912-.252,2.174-.594l.278-1.232c-.075-.621-.446-3.8-.446-5.337V12.5H8.54a.471.471,0,0,1-.074-.006L.482,11.357a.547.547,0,0,1-.461-.537L0,8.771c0-.014,0-.028,0-.042a.855.855,0,0,1,.708-.847c.176-.018,5.014-.382,6.835-.52l.689-.052.039,0H9.924V6.167a19.27,19.27,0,0,1,.158-2.357.56.56,0,0,1-.113-.147l0,0a3.1,3.1,0,0,0-.219-.345.56.56,0,0,1-.095-.478,1.214,1.214,0,0,1,.722-.8c.093-.443.188-.817.282-1.113.11-.344.293-.92.792-.92s.682.576.792.92c.094.3.192.682.282,1.113a1.231,1.231,0,0,1,.722.8.562.562,0,0,1-.095.478,3.15,3.15,0,0,0-.221.348.583.583,0,0,1-.114.149,19.247,19.247,0,0,1,.158,2.356V7.309h1.652l.039,0,.687.052c1.823.137,6.661.5,6.837.52a.856.856,0,0,1,.708.847c0,.014,0,.028,0,.042l-.021,2.049a.54.54,0,0,1-.461.537L14.432,12.5a.475.475,0,0,1-.074.006H12.974v.212c0,1.541-.372,4.716-.446,5.337l.278,1.232c1.286.349,2.018.549,2.174.594a.943.943,0,0,1,.629.8,2.333,2.333,0,0,1,.048.445v.845a.541.541,0,0,1-.487.546l-3.672.338Zm-3.178-15c-.073.005-7.307.55-7.51.57s-.226.335-.227.338l.021,2.049L8.54,11.955h1.919v.76c0,1.629.449,5.328.454,5.366l-.371,1.648c-.014,0-2.188.592-2.476.676s-.289.712-.289.718v.845l3.672.338,3.672-.338v-.845c0-.006,0-.635-.289-.718s-2.248-.615-2.473-.675h0l-.371-1.647c0-.037.454-3.738.454-5.366v-.76h1.918l7.984-1.141.021-2.049s-.023-.317-.227-.338-7.437-.565-7.51-.57H12.44V6.167a20.2,20.2,0,0,0-.26-3.041.957.957,0,0,1,.281.273.055.055,0,0,1,.007-.013,3.563,3.563,0,0,1,.262-.409.753.753,0,0,0-.663-.5C11.849,1.34,11.6.548,11.449.548s-.4.792-.616,1.927a.752.752,0,0,0-.663.5,3.756,3.756,0,0,1,.268.422l0,0a.937.937,0,0,1,.278-.268,20.145,20.145,0,0,0-.26,3.041v1.69Z" transform="translate(0 0)" fill="#455453"/>
          <path id="Fill_26" data-name="Fill 26" d="M0,0V3.769l1.176,0V0Z" transform="translate(12.439 7.857)" fill="#f2f2f2"/>
          <path id="Fill_27" data-name="Fill 27" d="M0,0V3.769l1.176,0V0Z" transform="translate(9.283 7.857)" fill="#f2f2f2"/>
          <path id="Fill_28" data-name="Fill 28" d="M.694.756C.561.287.435,0,.347,0h0C.259,0,.133.287,0,.756Z" transform="translate(11.102 0.548)" fill="#75838e"/>
        </g>
      </g>
    </g>
  </g>
</svg>
