<svg xmlns="http://www.w3.org/2000/svg" xmlns:xlink="http://www.w3.org/1999/xlink" width="197" height="62" viewBox="0 0 197 62">
  <defs>
    <filter id="Ellipse_49" x="135" y="0" width="62" height="62" filterUnits="userSpaceOnUse">
      <feOffset dx="-1" dy="1" input="SourceAlpha"/>
      <feGaussianBlur stdDeviation="3" result="blur"/>
      <feFlood flood-opacity="0.271"/>
      <feComposite operator="in" in2="blur"/>
      <feComposite in="SourceGraphic"/>
    </filter>
  </defs>
  <g id="Group_173" data-name="Group 173" transform="translate(-93 -580)">
    <g id="Group_97" data-name="Group 97" transform="translate(3)">
      <path id="Path_166" data-name="Path 166" d="M22,0H167a22,22,0,0,1,0,44H22A22,22,0,0,1,22,0Z" transform="translate(90 588)" fill="#3bb5f2"/>
      <text id="שתף_עם_חברים" data-name="שתף עם חברים" transform="translate(111 615)" fill="#fff" font-size="16" font-family="Heebo-Medium, Heebo" font-weight="500"><tspan x="0" y="0">שתף עם חברים</tspan></text>
      <g id="Group_96" data-name="Group 96">
        <g transform="matrix(1, 0, 0, 1, 90, 580)" filter="url(#Ellipse_49)">
          <circle id="Ellipse_49-2" data-name="Ellipse 49" cx="22" cy="22" r="22" transform="translate(145 8)" fill="#3bb5f2"/>
        </g>
        <g id="Icon_feather-share-2" data-name="Icon feather-share-2" transform="translate(239.54 594.267)">
          <path id="Path_72" data-name="Path 72" d="M30.14,6.82A3.82,3.82,0,1,1,26.32,3a3.82,3.82,0,0,1,3.82,3.82Z" transform="translate(-2.72 0)" fill="none" stroke="#fff" stroke-linecap="round" stroke-linejoin="round" stroke-width="2"/>
          <path id="Path_73" data-name="Path 73" d="M12.14,17.32A3.82,3.82,0,1,1,8.32,13.5,3.82,3.82,0,0,1,12.14,17.32Z" transform="translate(0 -1.587)" fill="none" stroke="#fff" stroke-linecap="round" stroke-linejoin="round" stroke-width="2"/>
          <path id="Path_74" data-name="Path 74" d="M30.14,27.82A3.82,3.82,0,1,1,26.32,24,3.82,3.82,0,0,1,30.14,27.82Z" transform="translate(-2.72 -3.174)" fill="none" stroke="#fff" stroke-linecap="round" stroke-linejoin="round" stroke-width="2"/>
          <path id="Path_75" data-name="Path 75" d="M12.885,20.265l8.7,5.068" transform="translate(-1.267 -2.609)" fill="none" stroke="#fff" stroke-linecap="round" stroke-linejoin="round" stroke-width="2"/>
          <path id="Path_76" data-name="Path 76" d="M21.569,9.765l-8.684,5.068" transform="translate(-1.267 -1.022)" fill="none" stroke="#fff" stroke-linecap="round" stroke-linejoin="round" stroke-width="2"/>
        </g>
      </g>
    </g>
  </g>
</svg>
