<svg xmlns="http://www.w3.org/2000/svg" xmlns:xlink="http://www.w3.org/1999/xlink" width="35.687" height="47.066" viewBox="0 0 35.687 47.066">
  <defs>
    <filter id="Union_2" x="0" y="0" width="35.687" height="46.103" filterUnits="userSpaceOnUse">
      <feOffset dy="3" input="SourceAlpha"/>
      <feGaussianBlur stdDeviation="3" result="blur"/>
      <feFlood flood-opacity="0.161"/>
      <feComposite operator="in" in2="blur"/>
      <feComposite in="SourceGraphic"/>
    </filter>
    <filter id="Union_1" x="0.333" y="11.115" width="28.199" height="35.951" filterUnits="userSpaceOnUse">
      <feOffset dy="3" input="SourceAlpha"/>
      <feGaussianBlur stdDeviation="3" result="blur-2"/>
      <feFlood flood-opacity="0.161"/>
      <feComposite operator="in" in2="blur-2"/>
      <feComposite in="SourceGraphic"/>
    </filter>
  </defs>
  <g id="Group_60" data-name="Group 60" transform="translate(-169.497 -69.696)">
    <g id="Icon_ionic-ios-flash-off" data-name="Icon ionic-ios-flash-off" transform="translate(356.35 -1028.577)">
      <g transform="matrix(1, 0, 0, 1, -186.85, 1098.27)" filter="url(#Union_2)">
        <path id="Union_2-2" data-name="Union 2" d="M-4429.457,1066.159l-14.766-25.205-.008-.013a.909.909,0,0,1,.339-1.24.933.933,0,0,1,1.265.332l4.822,8.23-.259-.491,5.179-6.8a.239.239,0,0,1,.261-.094.242.242,0,0,1,.171.3l-2.791,10.789h5.8a.506.506,0,0,1,.269.1.507.507,0,0,1,.11.707l-3.454,4.522,4.652,7.939a.922.922,0,0,1-.331,1.259.938.938,0,0,1-.467.124h0A.921.921,0,0,1-4429.457,1066.159Z" transform="translate(4453.85 -1033.01)" fill="#fff" stroke="rgba(0,0,0,0)" stroke-miterlimit="10" stroke-width="1"/>
      </g>
      <g transform="matrix(1, 0, 0, 1, -186.85, 1098.27)" filter="url(#Union_1)">
        <path id="Union_1-2" data-name="Union 1" d="M-4440.689,1056.117a.243.243,0,0,1-.169-.3l2.933-10.761h-5.948a.512.512,0,0,1-.269-.1.506.506,0,0,1-.111-.707l3.554-4.677,2.9,5.025v0l.051.092.211.367h-.009l2.3,4.165-5.178,6.8a.243.243,0,0,1-.2.1A.238.238,0,0,1-4440.689,1056.117Z" transform="translate(4454.18 -1021.56)" fill="#fff" stroke="rgba(0,0,0,0)" stroke-miterlimit="10" stroke-width="1"/>
      </g>
    </g>
  </g>
</svg>
