<svg xmlns="http://www.w3.org/2000/svg" xmlns:xlink="http://www.w3.org/1999/xlink" width="42.386" height="42.386" viewBox="0 0 42.386 42.386">
  <defs>
    <clipPath id="clip-path">
      <path id="Clip_12" data-name="Clip 12" d="M0,29.942H30V0H0Z" fill="none"/>
    </clipPath>
  </defs>
  <g id="Group_94" data-name="Group 94" transform="translate(-24 -11)">
    <g id="Rectangle_81" data-name="Rectangle 81" transform="translate(28 15)" fill="#fdfdfd" stroke="#fff" stroke-width="1">
      <rect width="35" height="35" rx="8" stroke="none"/>
      <rect x="0.5" y="0.5" width="34" height="34" rx="7.5" fill="none"/>
    </g>
    <g id="Group_92" data-name="Group 92" transform="translate(-294.067 -605.787)">
      <g id="icon_efroni" transform="translate(91.067 633) rotate(-45)">
        <g id="Group_93" data-name="Group 93" transform="translate(156.978 164.049)">
          <path id="Fill_1" data-name="Fill 1" d="M14.649,29.224h-.031L9.807,28.78a.356.356,0,0,1-.319-.357V27.316c0-.184.031-1.11.633-1.286.322-.094,2.379-.652,3.046-.832l.425-1.886c-.073-.6-.59-4.963-.59-7.011v-.637H10.838a.341.341,0,0,1-.048,0L.329,14.165a.356.356,0,0,1-.3-.352L0,11.129c0-.009,0-.019,0-.028a.763.763,0,0,1,.612-.776c.272-.028,9.457-.719,9.848-.748H13V7.721a25.451,25.451,0,0,1,.235-3.278.352.352,0,0,1-.219-.175,4.457,4.457,0,0,0-.32-.505.366.366,0,0,1-.062-.313,1.27,1.27,0,0,1,.909-.871C14.057,0,14.426,0,14.649,0s.593,0,1.105,2.578a1.27,1.27,0,0,1,.909.871.366.366,0,0,1-.062.313,4.4,4.4,0,0,0-.32.5.351.351,0,0,1-.219.175A25.454,25.454,0,0,1,16.3,7.721V9.576h2.54c.391.029,9.576.72,9.848.748a.762.762,0,0,1,.612.776c0,.009,0,.019,0,.028l-.027,2.685a.356.356,0,0,1-.3.352L18.509,15.66a.343.343,0,0,1-.049,0H16.3V16.3c0,2.048-.517,6.407-.59,7.011l.425,1.886c.667.18,2.724.738,3.046.832.6.176.633,1.1.633,1.286v1.107a.356.356,0,0,1-.319.357l-4.811.443Z" transform="translate(0.35 0.359)" fill="#f2f2f2"/>
          <path id="Fill_3" data-name="Fill 3" d="M15,29.943l-.063,0L10.126,29.5a.709.709,0,0,1-.639-.715V27.675a3.047,3.047,0,0,1,.064-.582,1.235,1.235,0,0,1,.823-1.049c.21-.061,1.194-.33,2.848-.778l.364-1.613c-.1-.814-.585-4.975-.585-6.992v-.278H11.188a.617.617,0,0,1-.1-.007L.631,14.879a.716.716,0,0,1-.6-.7L0,11.491c0-.018,0-.037,0-.055a1.12,1.12,0,0,1,.927-1.11c.231-.023,6.569-.5,8.955-.681l.9-.068.051,0H13V8.08a25.246,25.246,0,0,1,.207-3.088A.734.734,0,0,1,13.06,4.8l0,0a4.059,4.059,0,0,0-.287-.452.734.734,0,0,1-.124-.626,1.59,1.59,0,0,1,.946-1.052c.121-.58.246-1.071.37-1.458C14.106.755,14.347,0,15,0s.894.755,1.038,1.205c.124.39.251.894.37,1.458a1.613,1.613,0,0,1,.946,1.052.736.736,0,0,1-.124.626,4.127,4.127,0,0,0-.289.456.764.764,0,0,1-.149.2A25.216,25.216,0,0,1,17,8.08v1.5h2.164l.052,0,.9.068c2.388.18,8.726.657,8.957.681A1.122,1.122,0,0,1,30,11.436c0,.018,0,.037,0,.055l-.028,2.685a.707.707,0,0,1-.6.7l-10.46,1.494a.622.622,0,0,1-.1.007H17v.278c0,2.019-.487,6.179-.585,6.992l.364,1.613c1.685.457,2.643.719,2.848.778a1.236,1.236,0,0,1,.823,1.049,3.056,3.056,0,0,1,.063.582v1.107a.708.708,0,0,1-.638.715l-4.811.443ZM10.837,10.294c-.1.007-9.573.72-9.839.747s-.3.439-.3.443l.027,2.685,10.46,1.494H13.7v1c0,2.134.589,6.981.595,7.03l-.487,2.159c-.018,0-2.866.775-3.244.886s-.378.933-.378.941v1.107L15,29.224l4.811-.443V27.675c0-.008,0-.832-.379-.941-.358-.105-2.946-.805-3.24-.885h0L15.7,23.689c.006-.049.595-4.9.595-7.03v-1h2.513l10.461-1.494.027-2.685s-.03-.416-.3-.443-9.744-.74-9.839-.747H16.3V8.08A26.462,26.462,0,0,0,15.956,4.1a1.253,1.253,0,0,1,.368.358.072.072,0,0,1,.009-.017,4.669,4.669,0,0,1,.343-.536.987.987,0,0,0-.868-.659C15.524,1.756,15.192.718,15,.718s-.524,1.038-.807,2.524a.986.986,0,0,0-.868.659,4.921,4.921,0,0,1,.351.553.018.018,0,0,1,0-.006,1.228,1.228,0,0,1,.365-.351A26.393,26.393,0,0,0,13.7,8.08v2.214Z" transform="translate(0 0)" fill="#455453"/>
          <path id="Fill_5" data-name="Fill 5" d="M.561,2.19a1.184,1.184,0,0,1,.681-1.077C1.952.79,0,0,0,0Z" transform="translate(15.009 5.619)" fill="#ea211c"/>
          <path id="Fill_7" data-name="Fill 7" d="M.836,2.19A1.184,1.184,0,0,0,.156,1.113C-.555.79,1.4,0,1.4,0Z" transform="translate(13.583 5.619)" fill="#ea211c"/>
          <path id="Fill_9" data-name="Fill 9" d="M.72,3.378c-.131.827-.238,1.734-.3,2.636h2.5c-.057-.9-.164-1.808-.3-2.636A1.238,1.238,0,0,1,3,3.736a4.773,4.773,0,0,1,.351-.554.983.983,0,0,0-.868-.658C2.2,1.053,1.869,0,1.676,0h0C1.483,0,1.149,1.053.868,2.525A.982.982,0,0,0,0,3.183a4.784,4.784,0,0,1,.351.554A1.237,1.237,0,0,1,.72,3.378" transform="translate(13.324 0.718)" fill="#ea211c"/>
          <path id="Clip_12-2" data-name="Clip 12" d="M0,29.943H30V0H0Z" transform="translate(0)" fill="none"/>
          <g id="icon_efroni-2" data-name="icon_efroni" transform="translate(0)" clip-path="url(#clip-path)">
            <path id="Fill_11" data-name="Fill 11" d="M0,.366H4.667V0H0Z" transform="translate(12.666 1.258)" fill="#455453"/>
            <path id="Fill_13" data-name="Fill 13" d="M.973,0A1,1,0,0,0,0,.664a4.759,4.759,0,0,1,.351.554S.622.8.919.8A.926.926,0,0,0,.973,0" transform="translate(13.324 3.236)" fill="#75838e"/>
            <path id="Fill_14" data-name="Fill 14" d="M.07,0a1,1,0,0,1,.973.664,4.771,4.771,0,0,0-.351.554S.422.8.124.8A.926.926,0,0,1,.07,0" transform="translate(15.632 3.236)" fill="#75838e"/>
            <path id="Fill_15" data-name="Fill 15" d="M5.929,0C3.323.2.444.415.3.43.027.458,0,.873,0,.873L.027,3.557l5.9.843Z" transform="translate(0.701 10.611)" fill="#ea211c"/>
            <path id="Fill_16" data-name="Fill 16" d="M5.578.426C5.432.411,2.592.2,0,0V4.389l5.848-.836L5.875.869s-.027-.415-.3-.443" transform="translate(23.424 10.615)" fill="#ea211c"/>
            <path id="Fill_17" data-name="Fill 17" d="M1.893,0C1.21.186.547.367.378.417,0,.527,0,1.358,0,1.358V2.465l1.893.174Z" transform="translate(10.189 26.317)" fill="#ea211c"/>
            <path id="Fill_18" data-name="Fill 18" d="M1.461.4C1.3.354.664.181,0,0V2.619L1.839,2.45V1.343s0-.83-.378-.941" transform="translate(17.972 26.332)" fill="#ea211c"/>
            <path id="Fill_19" data-name="Fill 19" d="M0,0Q.026.349.056.706H2.344Q2.374.348,2.4,0Z" transform="translate(13.8 18.722)" fill="#f2f2f2"/>
            <path id="Fill_20" data-name="Fill 20" d="M.14,0h.909l.14,6.663H0Z" transform="translate(14.405 1.709)" fill="#ea211c"/>
            <path id="Fill_21" data-name="Fill 21" d="M2.168,2.176A1.717,1.717,0,0,0,.217,2.142L0,2.284V1.721C0,.563.391,0,1.194,0S2.389.563,2.389,1.721l0,.61Z" transform="translate(13.806 7.853)" fill="#455453"/>
            <path id="Fill_22" data-name="Fill 22" d="M2.666,2.748h0l-.437-.31a1.581,1.581,0,0,0-1.8-.031L0,2.69V2.166c0-.118,0-.22,0-.3C0,.627.449,0,1.335,0S2.669.627,2.669,1.865c0,.089,0,.2,0,.338l0,.544ZM1.308,1.855A1.855,1.855,0,0,1,2.388,2.2c0-.074,0-.141,0-.2s0-.1,0-.135C2.389.788,2.054.287,1.335.287S.28.788.28,1.865c0,.036,0,.077,0,.122s0,.115,0,.179A1.857,1.857,0,0,1,1.308,1.855Z" transform="translate(13.665 7.71)" fill="#f2f2f2"/>
            <path id="Fill_23" data-name="Fill 23" d="M2.087,3.076C2.1,2.043,2.1,1.05,2.1.392A1.679,1.679,0,0,0,0,.351c0,.666.01,1.7.018,2.764a1.794,1.794,0,0,0,1.007.3,1.784,1.784,0,0,0,1.062-.335" transform="translate(13.947 9.75)" fill="#455453"/>
            <path id="Fill_24" data-name="Fill 24" d="M1.006.295A1.994,1.994,0,0,1,0,.031c.015,2,.033,4.045.033,4.045a3.3,3.3,0,0,0,1,.194,3.3,3.3,0,0,0,1-.194S2.051,2.005,2.066,0a1.988,1.988,0,0,1-1.06.295" transform="translate(13.967 13.054)" fill="#455453"/>
            <path id="Fill_25" data-name="Fill 25" d="M15,29.943l-.063,0L10.126,29.5a.709.709,0,0,1-.639-.715V27.675a3.047,3.047,0,0,1,.064-.582,1.235,1.235,0,0,1,.823-1.049c.21-.061,1.194-.33,2.848-.778l.364-1.613c-.1-.813-.585-4.975-.585-6.992v-.278H11.188a.617.617,0,0,1-.1-.007L.631,14.879a.716.716,0,0,1-.6-.7L0,11.491c0-.018,0-.037,0-.055a1.12,1.12,0,0,1,.927-1.11c.231-.023,6.569-.5,8.955-.681l.9-.068.051,0H13V8.08a25.246,25.246,0,0,1,.207-3.088A.734.734,0,0,1,13.06,4.8l0,0a4.059,4.059,0,0,0-.287-.452.734.734,0,0,1-.124-.626,1.59,1.59,0,0,1,.946-1.052c.121-.58.246-1.071.37-1.458C14.106.755,14.347,0,15,0s.894.755,1.038,1.205c.124.39.251.894.37,1.458a1.613,1.613,0,0,1,.946,1.052.736.736,0,0,1-.124.626,4.128,4.128,0,0,0-.289.456.764.764,0,0,1-.149.2A25.215,25.215,0,0,1,17,8.08v1.5h2.164l.052,0,.9.068c2.388.18,8.726.657,8.957.681A1.122,1.122,0,0,1,30,11.436c0,.018,0,.037,0,.055l-.028,2.685a.707.707,0,0,1-.6.7l-10.46,1.494a.622.622,0,0,1-.1.007H17v.278c0,2.019-.487,6.179-.585,6.992l.364,1.613c1.685.457,2.643.719,2.848.778a1.236,1.236,0,0,1,.823,1.049,3.056,3.056,0,0,1,.063.582v1.107a.708.708,0,0,1-.638.715l-4.811.443ZM10.837,10.294c-.1.007-9.573.72-9.839.747s-.3.439-.3.443l.027,2.685,10.46,1.494H13.7v1c0,2.134.589,6.981.595,7.03l-.487,2.159c-.018,0-2.866.775-3.244.886s-.378.933-.378.941v1.107L15,29.224l4.811-.443V27.675c0-.008,0-.832-.379-.941-.358-.105-2.946-.805-3.24-.885h0L15.7,23.689c.006-.049.595-4.9.595-7.03v-1h2.513l10.461-1.494.027-2.685s-.03-.416-.3-.443-9.744-.74-9.839-.747H16.3V8.08A26.462,26.462,0,0,0,15.956,4.1a1.253,1.253,0,0,1,.368.358.072.072,0,0,1,.009-.017,4.669,4.669,0,0,1,.343-.536.987.987,0,0,0-.868-.659C15.523,1.756,15.192.718,15,.718s-.524,1.038-.807,2.524a.986.986,0,0,0-.868.659,4.921,4.921,0,0,1,.351.553.018.018,0,0,1,0-.006,1.228,1.228,0,0,1,.365-.351A26.393,26.393,0,0,0,13.7,8.08v2.214Z" transform="translate(0 0)" fill="#455453"/>
            <path id="Fill_26" data-name="Fill 26" d="M0,0V4.938l1.54,0V0Z" transform="translate(16.297 10.294)" fill="#f2f2f2"/>
            <path id="Fill_27" data-name="Fill 27" d="M0,0V4.938l1.54,0V0Z" transform="translate(12.162 10.294)" fill="#f2f2f2"/>
            <path id="Fill_28" data-name="Fill 28" d="M.909.99C.735.376.57,0,.454,0h0C.339,0,.174.376,0,.99Z" transform="translate(14.545 0.718)" fill="#75838e"/>
          </g>
        </g>
      </g>
    </g>
  </g>
</svg>
