<svg xmlns="http://www.w3.org/2000/svg" xmlns:xlink="http://www.w3.org/1999/xlink" width="35.25" height="42" viewBox="0 0 35.25 42">
  <defs>
    <filter id="Path_70" x="0.944" y="4" width="33.406" height="38" filterUnits="userSpaceOnUse">
      <feOffset dy="3" input="SourceAlpha"/>
      <feGaussianBlur stdDeviation="3" result="blur"/>
      <feFlood flood-opacity="0.161"/>
      <feComposite operator="in" in2="blur"/>
      <feComposite in="SourceGraphic"/>
    </filter>
    <filter id="Path_71" x="0" y="0" width="35.25" height="21.375" filterUnits="userSpaceOnUse">
      <feOffset dy="3" input="SourceAlpha"/>
      <feGaussianBlur stdDeviation="3" result="blur-2"/>
      <feFlood flood-opacity="0.161"/>
      <feComposite operator="in" in2="blur-2"/>
      <feComposite in="SourceGraphic"/>
    </filter>
  </defs>
  <g id="Group_63" data-name="Group 63" transform="translate(-296.797 -70.5)">
    <g transform="matrix(1, 0, 0, 1, 296.8, 70.5)" filter="url(#Path_70)">
      <path id="Path_70-2" data-name="Path 70" d="M9.359,9l1.475,18.169A1.83,1.83,0,0,0,12.665,29h8.813a1.83,1.83,0,0,0,1.831-1.831L24.765,9Zm3.85,16.563L12.79,11h1.156l.431,14.563Zm4.394,0H16.477V11H17.6Zm3.269,0H19.709L20.134,11H21.29Z" transform="translate(0.59 1)" fill="#fff"/>
    </g>
    <g transform="matrix(1, 0, 0, 1, 296.8, 70.5)" filter="url(#Path_71)">
      <path id="Path_71-2" data-name="Path 71" d="M23.672,6.25h-2.25L19.778,4.813a1.267,1.267,0,0,0-.825-.312H14.9a1.287,1.287,0,0,0-.838.313L12.422,6.25h-2.25c-1.1,0-1.875.525-1.875,1.625h17.25C25.547,6.775,24.772,6.25,23.672,6.25Z" transform="translate(0.7 1.5)" fill="#fff"/>
    </g>
  </g>
</svg>
