<svg xmlns="http://www.w3.org/2000/svg" width="99" height="66.5" viewBox="0 0 99 66.5">
  <g id="Group_172" data-name="Group 172" transform="translate(-5749 1736)">
    <g id="Icon_feather-share-2" data-name="Icon feather-share-2" transform="translate(5780.5 -1704)">
      <path id="Path_72" data-name="Path 72" d="M31.5,7.5A4.5,4.5,0,1,1,27,3a4.5,4.5,0,0,1,4.5,4.5Z" fill="none" stroke="#2885b3" stroke-linecap="round" stroke-linejoin="round" stroke-width="3"/>
      <path id="Path_73" data-name="Path 73" d="M13.5,18A4.5,4.5,0,1,1,9,13.5,4.5,4.5,0,0,1,13.5,18Z" fill="none" stroke="#2885b3" stroke-linecap="round" stroke-linejoin="round" stroke-width="3"/>
      <path id="Path_74" data-name="Path 74" d="M31.5,28.5A4.5,4.5,0,1,1,27,24,4.5,4.5,0,0,1,31.5,28.5Z" fill="none" stroke="#2885b3" stroke-linecap="round" stroke-linejoin="round" stroke-width="3"/>
      <path id="Path_75" data-name="Path 75" d="M12.885,20.265l10.245,5.97" fill="none" stroke="#2885b3" stroke-linecap="round" stroke-linejoin="round" stroke-width="3"/>
      <path id="Path_76" data-name="Path 76" d="M23.115,9.765l-10.23,5.97" fill="none" stroke="#2885b3" stroke-linecap="round" stroke-linejoin="round" stroke-width="3"/>
    </g>
    <text id="שתף_עם_החברים" data-name="שתף עם החברים" transform="translate(5749 -1721)" fill="#2885b3" font-size="14" font-family="Heebo-Medium, Heebo" font-weight="500"><tspan x="0" y="0">שתף עם החברים</tspan></text>
  </g>
</svg>
