<svg xmlns="http://www.w3.org/2000/svg" width="43" height="43" viewBox="0 0 43 43">
  <g id="Group_94" data-name="Group 94" transform="translate(-303.5 -98.5)">
    <rect id="Rectangle_42" data-name="Rectangle 42" width="33" height="34" rx="3" transform="translate(312 100)" fill="#3ab4f2" stroke="#3ab4f2" stroke-linejoin="round" stroke-width="3"/>
    <rect id="Rectangle_43" data-name="Rectangle 43" width="33" height="34" rx="3" transform="translate(305 106)" fill="#1a2239" stroke="#1a2239" stroke-linejoin="round" stroke-width="3"/>
    <path id="Path_76" data-name="Path 76" d="M319.608,126.516a9.365,9.365,0,0,1,.2-1.994,4.536,4.536,0,0,1,.622-1.485,8.52,8.52,0,0,1,1.206-1.384,16.978,16.978,0,0,0,1.472-1.549,2.727,2.727,0,0,0,.61-1.8,2.568,2.568,0,0,0-.584-1.8,2.2,2.2,0,0,0-1.7-.635,2.661,2.661,0,0,0-1.651.559,2.082,2.082,0,0,0-.749,1.765h-3.148a4.842,4.842,0,0,1,.749-2.73,4.606,4.606,0,0,1,1.993-1.638,6.841,6.841,0,0,1,2.806-.558,5.754,5.754,0,0,1,4,1.295,4.6,4.6,0,0,1,1.434,3.618,4.5,4.5,0,0,1-.444,2.018,7.3,7.3,0,0,1-1.168,1.676q-.711.774-1.536,1.549a3.31,3.31,0,0,0-.952,1.384,5.815,5.815,0,0,0-.254,1.714Zm-.254,3.935a1.688,1.688,0,0,1,.47-1.206,1.76,1.76,0,0,1,1.321-.495,1.715,1.715,0,0,1,1.307.495,1.662,1.662,0,0,1,.483,1.206,1.633,1.633,0,0,1-.483,1.206,1.739,1.739,0,0,1-1.307.483,1.784,1.784,0,0,1-1.321-.483A1.658,1.658,0,0,1,319.354,130.451Z" fill="#fff"/>
  </g>
</svg>
