<svg xmlns="http://www.w3.org/2000/svg" width="27" height="27" viewBox="0 0 27 27">
  <path id="Icon_material-color-lens" data-name="Icon material-color-lens" d="M18,4.5a13.5,13.5,0,0,0,0,27,2.251,2.251,0,0,0,1.665-3.765A2.242,2.242,0,0,1,21.345,24H24a7.5,7.5,0,0,0,7.5-7.5C31.5,9.87,25.455,4.5,18,4.5ZM9.75,18A2.25,2.25,0,1,1,12,15.75,2.247,2.247,0,0,1,9.75,18Zm4.5-6A2.25,2.25,0,1,1,16.5,9.75,2.247,2.247,0,0,1,14.25,12Zm7.5,0A2.25,2.25,0,1,1,24,9.75,2.247,2.247,0,0,1,21.75,12Zm4.5,6a2.25,2.25,0,1,1,2.25-2.25A2.247,2.247,0,0,1,26.25,18Z" transform="translate(-4.5 -4.5)" fill="#fff"/>
</svg>
