<svg xmlns="http://www.w3.org/2000/svg" width="73.836" height="71.558" viewBox="0 0 73.836 71.558">
    <defs>
        <clipPath id="clip-path">
            <path id="Clip_4" d="M0 0l38.807.392.572 56.635-38.807-.392L0 0z" class="cls-1"/>
        </clipPath>
        <clipPath id="clip-path-2">
            <path id="Clip_21" d="M.572 56.635l38.807.392L38.807.392 0 0z" class="cls-1"/>
        </clipPath>
        <style>
            .cls-1{fill:none}.cls-2{fill:#cae0e0}.cls-4{fill:#596b6a}
        </style>
    </defs>
    <g id="Planes_baz" transform="translate(1.836 .998)">
        <g id="icon_baz" transform="rotate(-45 31.49 15.64)">
            <path id="Fill_1" d="M29.384 55.713a.621.621 0 0 1-.178-.028l-5.335-1.672a.626.626 0 0 1-.389-.353l-1.059-2.507-2.585-.026a.624.624 0 0 1-.531-.309.6.6 0 0 1-.525.3l-2.582-.029-1.008 2.486a.591.591 0 0 1-.382.345l-5.3 1.565a.608.608 0 0 1-.177.025.624.624 0 0 1-.494-.254l-1.57-2.12a1.816 1.816 0 0 1 .071-2.144c.282-.363 3.864-4.523 4.272-5a.6.6 0 0 1 .459-.206.615.615 0 0 1 .212.04.625.625 0 0 1 .194.118l.38-.378-.392-2.2-4.065-.041-4.938 1.382a.607.607 0 0 1-.17.022.623.623 0 0 1-.516-.286C2.7 44.329.946 41.61.649 41.067a1.837 1.837 0 0 1 .433-2.315c.527-.563 9.751-10.174 11.166-11.649l-.015-1.5a10.45 10.45 0 0 1 1.684-5.71c-.016-.476-.053-1.68-.06-2.364a4.4 4.4 0 0 1 .276-1.652.594.594 0 0 1 .556-.362l1.543.016-.045-4.45A25.321 25.321 0 0 1 18.254.522.6.6 0 0 1 18.8.19a.625.625 0 0 1 .549.343 26 26 0 0 1 2.278 10.607l.045 4.45 1.543.016a.624.624 0 0 1 .564.373 4.505 4.505 0 0 1 .31 1.658c.007.684-.006 1.887-.012 2.363a10.826 10.826 0 0 1 1.8 5.745l.015 1.5c1.446 1.5 10.866 11.3 11.4 11.877a1.871 1.871 0 0 1 .48 2.325c-.286.536-1.987 3.221-2.06 3.334a.6.6 0 0 1-.511.275.614.614 0 0 1-.17-.026l-4.966-1.482L26 43.5l-.348 2.2.387.386a.594.594 0 0 1 .192-.114.6.6 0 0 1 .212-.036.624.624 0 0 1 .464.216c.417.482 4.085 4.715 4.374 5.083a1.826 1.826 0 0 1 .114 2.146c-.32.442-1.522 2.09-1.522 2.09a.6.6 0 0 1-.489.242z" class="cls-2" transform="translate(.613 .613)"/>
            <g id="Group_5">
                <path id="Clip_4-2" d="M0 0l38.807.392.572 56.635-38.807-.392L0 0z" class="cls-1"/>
                <g id="Group_5-2" clip-path="url(#clip-path)">
                    <path id="Fill_3" d="M30 56.932a1.218 1.218 0 0 1-.356-.056L24.311 55.2a1.247 1.247 0 0 1-.777-.706l-.9-2.131-2.179-.022a1.25 1.25 0 0 1-.529-.125 1.22 1.22 0 0 1-.526.114l-2.177-.022-.857 2.113a1.179 1.179 0 0 1-.763.69L10.3 56.68a1.2 1.2 0 0 1-.355.049 1.251 1.251 0 0 1-.988-.506S7.722 54.549 7.393 54.1a2.394 2.394 0 0 1 .076-2.873c.259-.335 3.087-3.623 4.291-5.02a1.2 1.2 0 0 1 .918-.412h.109l-.218-1.22-3.469-.029L4.25 45.9a1.19 1.19 0 0 1-.34.045 1.241 1.241 0 0 1-1.032-.571c-.018-.028-1.83-2.832-2.15-3.416a2.417 2.417 0 0 1 .516-3.016c.512-.547 9.257-9.659 11-11.48l-.013-1.252a11.153 11.153 0 0 1 1.679-5.883c-.032-.971-.051-1.728-.055-2.19a5.066 5.066 0 0 1 .323-1.89 1.185 1.185 0 0 1 1.111-.725l.934.009-.039-3.843A26 26 0 0 1 18.318.86 1.182 1.182 0 0 1 19.4.2a1.241 1.241 0 0 1 1.1.686 26.7 26.7 0 0 1 2.347 10.877l.039 3.843.934.009a1.245 1.245 0 0 1 1.126.748 5.1 5.1 0 0 1 .362 1.9c.006.641-.005 1.762-.01 2.184a11.611 11.611 0 0 1 1.8 5.924l.013 1.252.709.737c2.75 2.861 10.056 10.463 10.529 10.967a2.449 2.449 0 0 1 .577 3.027c-.308.578-2.064 3.346-2.081 3.374a1.184 1.184 0 0 1-1.021.55 1.21 1.21 0 0 1-.34-.052L30.6 44.763l-3.465-.035-.192 1.216h.108a1.244 1.244 0 0 1 .927.43c1.232 1.422 4.127 4.767 4.394 5.108a2.4 2.4 0 0 1 .133 2.875c-.32.442-1.523 2.091-1.523 2.091a1.2 1.2 0 0 1-.982.484zM23.283 50.8l1.372 3.247 5.335 1.672c.006-.008 1.2-1.643 1.521-2.087a1.21 1.21 0 0 0-.1-1.417c-.28-.356-4.187-4.866-4.353-5.058l.008.808-1.457-1.45.478-3.009 4.669.047 5.049 1.507c.012-.019 1.756-2.77 2.037-3.3.289-.544.175-1.029-.382-1.623S26.005 28.2 25.9 28.09l-.018-1.739a10.255 10.255 0 0 0-1.8-5.56c0-.01.023-1.711.014-2.548a3.993 3.993 0 0 0-.257-1.419l-2.157-.024-.051-5.056A25.859 25.859 0 0 0 19.415 1.41a24.963 24.963 0 0 0-2.008 10.29l.051 5.056-2.152-.022a3.9 3.9 0 0 0-.228 1.414c.009.846.065 2.532.066 2.549a9.893 9.893 0 0 0-1.689 5.525l.018 1.739c-.089.093-10.752 11.2-11.329 11.818-.545.583-.65 1.066-.349 1.615.286.521 2.086 3.309 2.1 3.338l5.02-1.405 4.669.047.539 3.019-1.423 1.425-.008-.808c-.021.026-3.958 4.592-4.253 4.972a1.2 1.2 0 0 0-.068 1.418c.329.448 1.563 2.118 1.563 2.118l5.3-1.564 1.308-3.222.206.366 2.639.027.119-.282.4-.077.408.085.123.285 2.639.027.2-.36z" class="cls-4" transform="translate(.001)"/>
                </g>
            </g>
            <path id="Fill_6" d="M24.448 5.238A10.219 10.219 0 0 0 23.007.232C21.8 1.895 20.06 4.065 19.12 4.253c-.957.191-4.239-.2-7.033-.3a9.174 9.174 0 0 0-.063 1.159l.018 1.74S1.275 18.069.713 18.67s-.638 1.085-.349 1.614 2.1 3.338 2.1 3.338l2.736-.765a6.76 6.76 0 0 1 2.064-2.706c2.337-1.756 5.519-.187 7.874-.163s7.438-3.08 10.656-6.041a11.712 11.712 0 0 0 2.285-3.211l-3.614-3.76z" class="cls-2" transform="translate(1.431 21.114)"/>
            <path id="Fill_8" d="M6.074 5.1c.279-.523.193-1.009-.382-1.622C5.5 3.269 4.123 1.835 2.384.024A3.589 3.589 0 0 0 1.565.8a8.94 8.94 0 0 0-1.49 5.248c.03.244.125.715.24 1.235l3.722 1.111S5.795 5.62 6.074 5.1" class="cls-2" transform="translate(31.774 36.665)"/>
            <path id="Fill_10" d="M12.351 5.882l2.639.027.2-.362L16.562 8.8l5.338 1.668 1.521-2.088a1.212 1.212 0 0 0-.1-1.417C23.035 6.6 18.968 1.9 18.968 1.9l.008.809-1.455-1.447.157-.99a8.487 8.487 0 0 0-3.231.089C12.666.91 11.066 3.24 9.121 3.624a46.2 46.2 0 0 1-6.916.916C1.305 5.59.467 6.572.343 6.731a1.2 1.2 0 0 0-.067 1.415c.329.448 1.564 2.119 1.564 2.119L7.143 8.7 8.45 5.478l.207.366 2.639.027.119-.282.405-.077.407.085z" class="cls-2" transform="translate(8.095 45.25)"/>
            <path id="Fill_12" d="M3.2 2.156l-.119.282-2.64-.027-.207-.366L0 0l3.319.034z" class="cls-4" transform="translate(16.311 48.684)"/>
            <path id="Fill_14" d="M.163 2.125l.125.284 2.639.027.2-.362.192-2.04L0 0z" class="cls-4" transform="translate(20.163 48.723)"/>
            <path id="Fill_16" d="M2.461 2.533L2.452 1.6C2.442.591 1.868.019 1.218.012S.006.566.016 1.578l.009.93z" class="cls-4" transform="translate(18.298 11.308)"/>
            <path id="Fill_18" d="M0 0l.011 1.052c.028 2.791 1.246 2.8 1.246 2.8s1.218.012 1.19-2.779L2.436.025z" class="cls-4" transform="translate(18.368 18.266)"/>
            <path id="Clip_21-2" d="M.572 56.635l38.807.392L38.807.392 0 0z" class="cls-1"/>
            <g id="Mask_Group_12" clip-path="url(#clip-path-2)">
                <path id="Fill_20" d="M.04 3.964l2.436.025-.04-3.964L0 0z" class="cls-4" transform="translate(18.326 14.059)"/>
                <path id="Fill_22" fill="#a8c1c0" d="M3.926 7.24a24.373 24.373 0 0 0-2-7.22A23.6 23.6 0 0 0 .073 7.2z" transform="translate(17.489 1.39)"/>
            </g>
        </g>
    </g>
</svg>
