<svg xmlns="http://www.w3.org/2000/svg" width="81.102" height="81.102" viewBox="0 0 81.102 81.102">
    <defs>
        <clipPath id="clip-path">
            <path id="Clip_16" d="M0 55.888h58.808V0H0z" class="cls-1"/>
        </clipPath>
        <style>
            .cls-1{fill:none}.cls-2{fill:#cae0e0}.cls-3{fill:#596b6a}
        </style>
    </defs>
    <g id="Planes_shimshon" transform="translate(5.438 3.818)">
        <g id="icon_shimshon" transform="rotate(-45 42.867 25.447)">
            <path id="Fill_1" d="M28.857 54.785c-1.1 0-1.55-1.071-1.677-1.882l-.146-.082c-2.454-.382-8.576-1.33-8.993-1.372-.777-.078-1.219-.735-1.127-1.672l.008-.08c.057-.593.163-1.7 1.081-1.949.506-.139 5.866-1.378 7.541-1.765a39.825 39.825 0 0 1-.362-4.281V30.315h-4.331a.489.489 0 0 1-.071 0L1.112 27.69a.548.548 0 0 1-.457-.4A22 22 0 0 1 0 24.1c0-1.157.907-1.249 1.393-1.3.091-.009.363-.037 11.755-.4v-.233c0-1.6.17-4.275 1.308-4.275s1.307 2.678 1.307 4.275v.149l4.647-.149c0-1.6.17-4.275 1.308-4.275 1.123 0 1.3 2.61 1.307 4.213h1.791a13.67 13.67 0 0 1 .364-2.945V8.626a10.945 10.945 0 0 1 1.613-5.9 5.766 5.766 0 0 0 .456-1.106 5.981 5.981 0 0 1 .383-.963 1.459 1.459 0 0 1 2.444 0 5.857 5.857 0 0 1 .383.963 5.835 5.835 0 0 0 .456 1.107 10.94 10.94 0 0 1 1.613 5.895v10.533A13.67 13.67 0 0 1 32.9 22.1h1.791c0-1.6.185-4.212 1.307-4.212 1.138 0 1.308 2.678 1.308 4.275l4.647.149v-.149c0-1.6.17-4.275 1.308-4.275s1.307 2.678 1.307 4.275v.237c11.392.365 11.664.392 11.755.4.487.049 1.393.141 1.393 1.3a21.906 21.906 0 0 1-.654 3.19.548.548 0 0 1-.456.4l-19.672 2.62a.489.489 0 0 1-.071 0h-4.331V41.7a39.825 39.825 0 0 1-.362 4.281c1.675.387 7.035 1.625 7.541 1.765.918.253 1.024 1.356 1.081 1.949l.008.079a1.85 1.85 0 0 1-.158 1.023 1.184 1.184 0 0 1-.968.65c-.418.042-6.54.99-8.993 1.372l-.146.082c-.128.813-.583 1.884-1.678 1.884z" class="cls-2" transform="translate(.547 .551)"/>
            <path id="Fill_3" d="M29.4 55.887a2.294 2.294 0 0 1-2.15-2.009c-3.394-.528-8.345-1.291-8.721-1.33a1.739 1.739 0 0 1-1.4-.946 2.384 2.384 0 0 1-.215-1.331l.006-.078c.065-.673.2-2.075 1.483-2.427.527-.144 5.989-1.407 7.079-1.659a36.552 36.552 0 0 1-.3-3.854V31.418H21.4a1.282 1.282 0 0 1-.143-.009L1.586 28.788a1.094 1.094 0 0 1-.914-.809A20.764 20.764 0 0 1 0 24.646 1.8 1.8 0 0 1 1.883 22.8c.119-.011.436-.04 11.268-.388.057-4.524 1.408-4.524 1.852-4.524s1.773 0 1.852 4.406l3.563-.113c.1-4.294 1.417-4.294 1.849-4.294s1.733 0 1.847 4.212h.73a13.828 13.828 0 0 1 .34-2.462V9.177A11.574 11.574 0 0 1 26.87 3a5.338 5.338 0 0 0 .409-1A6.592 6.592 0 0 1 27.7.949a2 2 0 0 1 3.4 0A6.476 6.476 0 0 1 31.528 2a5.212 5.212 0 0 0 .408 1 11.578 11.578 0 0 1 1.689 6.175v10.46a13.735 13.735 0 0 1 .34 2.462h.735c.113-4.212 1.417-4.212 1.846-4.212s1.75 0 1.849 4.294l3.564.113c.078-4.406 1.411-4.406 1.849-4.406s1.8 0 1.853 4.524c10.83.348 11.145.377 11.263.387a1.8 1.8 0 0 1 1.888 1.847 20.764 20.764 0 0 1-.673 3.333 1.094 1.094 0 0 1-.914.809l-19.672 2.623a1.317 1.317 0 0 1-.144.009h-3.784v10.835a36.756 36.756 0 0 1-.3 3.854l.636.146c1.635.379 5.977 1.385 6.445 1.513 1.286.353 1.418 1.754 1.481 2.427l.009.078a2.4 2.4 0 0 1-.216 1.331 1.739 1.739 0 0 1-1.4.946c-.35.036-4.766.715-8.721 1.33a2.3 2.3 0 0 1-2.159 2.009zM15 18.99c-.419 0-.761 1.67-.761 3.723v.767c-3.29.105-11.9.382-12.247.416-.559.056-.9.122-.9.749a24.224 24.224 0 0 0 .636 3.048L21.4 30.315h4.877v11.938a45.139 45.139 0 0 0 .425 4.706c-.054.013-7.42 1.71-8.005 1.871-.555.153-.631.946-.682 1.47l-.008.081c-.03.3-.027 1 .636 1.069.526.053 9.033 1.377 9.119 1.391l.477.267c0 .018.12 1.676 1.166 1.676s1.165-1.659 1.166-1.676l.477-.267.072-.011c2.005-.312 8.584-1.333 9.047-1.379.664-.067.666-.77.636-1.069l-.008-.081c-.051-.525-.127-1.317-.682-1.47-.572-.158-7.931-1.854-8.005-1.871a45.372 45.372 0 0 0 .425-4.706V30.315h4.877l19.668-2.621a23.973 23.973 0 0 0 .638-3.048c0-.627-.343-.693-.9-.749-.338-.033-8.678-.3-12.247-.416v-.767c0-2.053-.342-3.723-.762-3.723s-.761 1.67-.761 3.723v.718l-3.5-.11-2.246-.072v-.537c0-2.053-.341-3.723-.761-3.723s-.761 1.67-.761 3.723v.487H32.9a13.452 13.452 0 0 0-.371-3.423v-10.6a10.377 10.377 0 0 0-1.538-5.614 6.223 6.223 0 0 1-.5-1.21 5.559 5.559 0 0 0-.345-.875.923.923 0 0 0-1.485 0 5.558 5.558 0 0 0-.345.875 6.224 6.224 0 0 1-.5 1.21 10.405 10.405 0 0 0-1.538 5.614v10.6A13.581 13.581 0 0 0 25.9 23.2h-2.873v-.489c0-2.053-.341-3.723-.761-3.723s-.762 1.67-.762 3.723v.537l-2.284.072h-.02l-3.439.109v-.718c.004-2.05-.338-3.721-.761-3.721z" class="cls-3"/>
            <path id="Fill_5" d="M0 1.4h1.188C1.048.545.834 0 .594 0S.14.545 0 1.4" class="cls-3" transform="translate(14.41 18.99)"/>
            <path id="Fill_7" d="M0 1.4h1.188C1.048.545.834 0 .594 0S.14.545 0 1.4" class="cls-3" transform="translate(21.673 18.99)"/>
            <path id="Fill_9" d="M1.188 1.4H0C.14.545.354 0 .594 0s.454.545.594 1.4" class="cls-3" transform="translate(43.21 18.99)"/>
            <path id="Fill_11" d="M1.188 1.4H0C.14.545.354 0 .594 0s.454.545.594 1.4" class="cls-3" transform="translate(35.947 18.99)"/>
            <path id="Fill_13" d="M2.613 1.852A15.267 15.267 0 0 0 2.055.374.826.826 0 0 0 1.312 0 .824.824 0 0 0 .57.374C.342.8.218 1.337 0 1.88a2.607 2.607 0 0 1 2.613-.028" class="cls-2" transform="translate(28.092 1.103)"/>
            <path id="Clip_16-2" d="M0 55.888h58.808V0H0z" class="cls-1"/>
            <g id="icon_shimshon-2" clip-path="url(#clip-path)">
                <path id="Fill_15" d="M0 .347h5.468V0H0z" class="cls-3" transform="translate(12.269 19.667)"/>
                <path id="Fill_17" d="M0 .347h5.468V0H0z" class="cls-3" transform="translate(19.532 19.667)"/>
                <path id="Fill_18" d="M0 .347h5.468V0H0z" class="cls-3" transform="translate(33.807 19.667)"/>
                <path id="Fill_19" d="M0 .347h5.468V0H0z" class="cls-3" transform="translate(41.07 19.667)"/>
                <path id="Fill_20" d="M.283 0l.159.642-.283.214L0 .2z" class="cls-3" transform="translate(28.237 2.921)"/>
                <path id="Fill_21" d="M.388 0L0 .011.053.4h.672L.777.011z" class="cls-3" transform="translate(29.015 3.463)"/>
                <path id="Fill_22" d="M.471 0l.06.421-.286.22L0 .354z" class="cls-3" transform="translate(28.423 3.509)"/>
                <path id="Fill_23" d="M.145.7A2.1 2.1 0 0 0 0 1.143h.194A1.974 1.974 0 0 1 .812.172L.683 0C.662.015.641.028.619.046A1.816 1.816 0 0 0 .145.7" class="cls-3" transform="translate(27.885 4.416)"/>
                <path id="Fill_24" d="M.464 1.032A1.9 1.9 0 0 1 .969.339C.99.321 1.012.306 1.034.29L.786 0a4.276 4.276 0 0 0-.468.6A2.828 2.828 0 0 0 0 1.52h.308a2.226 2.226 0 0 1 .156-.487" class="cls-3" transform="translate(27.469 4.039)"/>
                <path id="Fill_25" d="M.159 0L0 .642l.283.214L.441.2z" class="cls-3" transform="translate(30.129 2.921)"/>
                <path id="Fill_26" d="M.06 0L0 .421l.285.22L.53.354z" class="cls-3" transform="translate(29.854 3.509)"/>
                <path id="Fill_27" d="M.667.7a2.133 2.133 0 0 1 .144.443H.619A1.974 1.974 0 0 0 0 .172L.129 0c.022.015.042.028.063.046A1.81 1.81 0 0 1 .667.7" class="cls-3" transform="translate(30.111 4.416)"/>
                <path id="Fill_28" d="M.57 1.032a1.9 1.9 0 0 0-.5-.693L0 .291.248 0a4.337 4.337 0 0 1 .468.6 2.846 2.846 0 0 1 .318.918H.727a2.229 2.229 0 0 0-.157-.486" class="cls-3" transform="translate(30.305 4.039)"/>
            </g>
        </g>
    </g>
</svg>
