<svg xmlns="http://www.w3.org/2000/svg" width="73.554" height="72.916" viewBox="0 0 73.554 72.916">
    <defs>
        <clipPath id="clip-path">
            <path id="Clip_4" d="M0 45.018V0h58.1v45.018H0z" class="cls-1"/>
        </clipPath>
        <clipPath id="clip-path-2">
            <path id="Clip_25" d="M0 45.018h58.1V0H0z" class="cls-1"/>
        </clipPath>
        <style>
            .cls-1{fill:none}.cls-2{fill:#cae0e0}.cls-4{fill:#596b6a}.cls-6{fill:#a8c1c0}
        </style>
    </defs>
    <g id="Planes_zufit" transform="translate(0 .138)">
        <g id="icon_zufit" transform="rotate(-45 49.745 19.703)">
            <path id="Fill_1" d="M28.463 43.937a.546.546 0 0 1-.44-.286 5.262 5.262 0 0 1-.428-1.1L19.423 43.6a.546.546 0 0 1-.429-.13.537.537 0 0 1-.185-.405V41.4a1.412 1.412 0 0 1 .806-1.429c.313-.155 5.575-2.214 7.395-2.925-.314-2.28-1.744-12.793-1.744-15.628v-.827l-.244-.233H18.16a.551.551 0 0 1-.09-.007l-15.8-2.636a4.735 4.735 0 0 1-.681 2.242.548.548 0 0 1-.9 0A4.91 4.91 0 0 1 0 17.288v-3.721A4.909 4.909 0 0 1 .7 10.9a.547.547 0 0 1 .9 0 4.869 4.869 0 0 1 .7 2.56c1.472-.052 9.491-.44 13.893-.657l2.013-.869V7.665c0-1.687.644-4.04 1.692-4.04s1.692 2.353 1.692 4.04v4.669l3.79-.256c.006-.763.01-1.532.01-2.3 0-3.847 1.343-9.78 3.127-9.78s3.127 5.933 3.127 9.78c0 .767 0 1.535.01 2.3l3.79.256V7.665c0-1.687.644-4.04 1.692-4.04s1.692 2.353 1.692 4.04v4.274l2.013.869c4.4.216 12.422.6 13.894.657a4.868 4.868 0 0 1 .7-2.56.547.547 0 0 1 .9 0 4.91 4.91 0 0 1 .7 2.662v3.721a4.91 4.91 0 0 1-.7 2.663.548.548 0 0 1-.9 0 4.734 4.734 0 0 1-.681-2.242l-15.8 2.636a.551.551 0 0 1-.09.007h-6.877l-.243.233v.827c0 2.836-1.429 13.349-1.744 15.628 1.819.711 7.081 2.77 7.395 2.925A1.411 1.411 0 0 1 38.2 41.4v1.67a.537.537 0 0 1-.185.405.546.546 0 0 1-.429.13l-8.173-1.046a4.79 4.79 0 0 1-.474 1.167.546.546 0 0 1-.437.217z" class="cls-2" transform="translate(.545 .54)"/>
            <g id="Group_5">
                <path id="Clip_4-2" d="M0 45.018V0h58.1v45.018H0z" class="cls-1"/>
                <g id="Group_5-2" clip-path="url(#clip-path)">
                    <path id="Fill_3" d="M29.051 45.018H29a1.092 1.092 0 0 1-.912-.578 6.176 6.176 0 0 1-.33-.75c-2.367.3-7.663.98-7.716.988a1.247 1.247 0 0 1-.14.009 1.088 1.088 0 0 1-.718-.27 1.073 1.073 0 0 1-.371-.81v-1.672a1.939 1.939 0 0 1 1.108-1.912c.322-.16 5.03-2 7.04-2.789-.509-3.725-1.69-12.673-1.69-15.281v-.521h-6.566a1.063 1.063 0 0 1-.181-.016L3.292 18.875a4.936 4.936 0 0 1-.708 1.925 1.094 1.094 0 0 1-1.791 0A5.381 5.381 0 0 1 0 17.828v-3.721a5.418 5.418 0 0 1 .793-2.969 1.093 1.093 0 0 1 1.791 0 5.18 5.18 0 0 1 .759 2.306c2.13-.09 8.472-.4 13.255-.63l1.6-.689V8.2a8.359 8.359 0 0 1 .491-2.85c.429-1.147 1.016-1.729 1.746-1.729s1.315.582 1.744 1.729a8.329 8.329 0 0 1 .491 2.85v4.1l2.7-.183c0-.52.006-1.058.006-1.795a24.91 24.91 0 0 1 .933-6.507C27.3.4 28.345 0 29.05 0s1.756.4 2.74 3.812a24.964 24.964 0 0 1 .933 6.507c0 .688 0 1.241.006 1.795l2.7.183V8.2a8.329 8.329 0 0 1 .491-2.85c.429-1.147 1.016-1.729 1.744-1.729s1.317.582 1.746 1.729a8.359 8.359 0 0 1 .491 2.85v3.92l1.6.689c5.114.251 11.2.543 13.255.63a5.087 5.087 0 0 1 .759-2.306 1.093 1.093 0 0 1 1.791 0 5.419 5.419 0 0 1 .793 2.969v3.721a5.381 5.381 0 0 1-.793 2.969 1.094 1.094 0 0 1-1.791 0 4.936 4.936 0 0 1-.708-1.922l-15.23 2.546a1.063 1.063 0 0 1-.181.016h-6.562v.521c0 2.707-1.294 12.381-1.69 15.281 1.659.648 6.709 2.625 7.04 2.789a1.941 1.941 0 0 1 1.108 1.912v1.671a1.073 1.073 0 0 1-.371.81 1.088 1.088 0 0 1-.718.27 1.247 1.247 0 0 1-.14-.009l-7.716-.988a5.711 5.711 0 0 1-.343.771 1.088 1.088 0 0 1-.953.558zm-.45-2.526a3.906 3.906 0 0 0 .448 1.445 3.834 3.834 0 0 0 .45-1.446c.387.048 6.632.848 8.3 1.061l.405.052v-1.669c0-.582-.185-.787-.505-.946s-7.675-3.032-7.749-3.061c.017-.123 1.8-12.881 1.8-15.975v-1.055l.569-.546H39.4l16.416-2.74v.215a4.409 4.409 0 0 0 .6 2.355 4.4 4.4 0 0 0 .6-2.355v-3.72a4.417 4.417 0 0 0-.6-2.356 4.408 4.408 0 0 0-.6 2.356v.5a.865.865 0 0 0-.329-.058c-.629 0-14.1-.661-14.234-.667l-2.431-1.05V8.2c0-1.986-.765-3.5-1.148-3.5s-1.147 1.513-1.147 3.5v5.248l-4.876-.329v-.117c-.006-.865-.012-1.76-.012-2.686 0-4.372-1.54-9.239-2.583-9.239s-2.583 4.867-2.583 9.239c0 .893 0 1.836-.014 2.8l-4.874.329V8.2c0-1.986-.764-3.5-1.147-3.5S19.29 6.213 19.29 8.2v4.628l-2.431 1.05h-.094c-2.262.111-13.572.663-14.14.663a.867.867 0 0 0-.329.058v-.5a4.417 4.417 0 0 0-.6-2.356 4.408 4.408 0 0 0-.6 2.356v3.721a4.409 4.409 0 0 0 .6 2.355 4.4 4.4 0 0 0 .6-2.355v-.215l16.416 2.74h7.078l.569.546v1.055c0 3.077 1.778 15.846 1.8 15.975-.065.026-7.424 2.9-7.749 3.061s-.505.365-.505.946v1.671l4.081-.523 4.622-.59z" class="cls-4"/>
                </g>
            </g>
            <path id="Fill_6" d="M2.176 0v1.419s-.379.014-.884.014a2.116 2.116 0 0 0-1.053.418L0 .584a1.434 1.434 0 0 1 .982-.57C1.544.014 2.176 0 2.176 0" class="cls-4" transform="translate(26.762 7.87)"/>
            <path id="Fill_8" d="M.129 0l.364.913H0z" class="cls-4" transform="translate(26.696 8.799)"/>
            <path id="Fill_10" d="M.493.7c0 .388-.11.7-.246.7S0 1.091 0 .7.11 0 .247 0s.246.315.246.7" class="cls-4" transform="translate(26.432 9.943)"/>
            <path id="Fill_12" d="M.493.7c0 .388-.11.7-.246.7S0 1.091 0 .7.11 0 .247 0s.246.315.246.7" class="cls-4" transform="translate(26.432 13.68)"/>
            <path id="Fill_14" d="M.493.7c0 .388-.11.7-.246.7S0 1.091 0 .7.11 0 .247 0s.246.315.246.7" class="cls-4" transform="translate(26.432 15.315)"/>
            <path id="Fill_16" d="M.493.7c0 .388-.11.7-.246.7S0 1.091 0 .7.11 0 .247 0s.246.315.246.7" class="cls-4" transform="translate(26.432 16.95)"/>
            <path id="Fill_18" d="M.493.7c0 .388-.11.7-.246.7S0 1.091 0 .7.11 0 .247 0s.246.315.246.7" class="cls-4" transform="translate(26.432 18.585)"/>
            <path id="Fill_20" d="M.493.7c0 .388-.11.7-.246.7S0 1.091 0 .7.11 0 .247 0s.246.315.246.7" class="cls-4" transform="translate(26.432 20.22)"/>
            <path id="Fill_22" d="M.493.7c0 .388-.11.7-.246.7S0 1.091 0 .7.11 0 .247 0s.246.315.246.7" class="cls-4" transform="translate(26.727 26.037)"/>
            <path id="Clip_25-2" d="M0 45.018h58.1V0H0z" class="cls-1"/>
            <g id="Mask_Group_20" clip-path="url(#clip-path-2)">
                <path id="Fill_24" d="M0 .493h6.717V0H0z" class="cls-4" transform="translate(17.072 5.326)"/>
                <path id="Fill_26" d="M0 0v1.419s.379.014.884.014a2.116 2.116 0 0 1 1.053.418L2.176.584a1.434 1.434 0 0 0-.983-.57C.632.014 0 0 0 0" class="cls-4" transform="translate(29.163 7.87)"/>
                <path id="Fill_27" d="M.364 0L0 .913h.493z" class="cls-4" transform="translate(31.184 8.799)"/>
                <path id="Fill_28" d="M0 .7c0 .388.11.7.247.7s.246-.309.246-.7S.382 0 .247 0 0 .315 0 .7" class="cls-4" transform="translate(31.275 9.943)"/>
                <path id="Fill_29" d="M0 .7c0 .388.11.7.247.7s.246-.309.246-.7S.382 0 .247 0 0 .315 0 .7" class="cls-4" transform="translate(31.275 13.68)"/>
                <path id="Fill_30" d="M0 .7c0 .388.11.7.247.7s.246-.309.246-.7S.382 0 .247 0 0 .315 0 .7" class="cls-4" transform="translate(31.275 15.315)"/>
                <path id="Fill_31" d="M0 .7c0 .388.11.7.247.7s.246-.309.246-.7S.382 0 .247 0 0 .315 0 .7" class="cls-4" transform="translate(31.275 16.95)"/>
                <path id="Fill_32" d="M0 .7c0 .388.11.7.247.7s.246-.309.246-.7S.382 0 .247 0 0 .315 0 .7" class="cls-4" transform="translate(31.275 18.585)"/>
                <path id="Fill_33" d="M0 .7c0 .388.11.7.247.7s.246-.309.246-.7S.382 0 .247 0 0 .315 0 .7" class="cls-4" transform="translate(31.275 20.22)"/>
                <path id="Fill_34" d="M0 .7c0 .388.11.7.246.7s.247-.309.247-.7S.382 0 .246 0 0 .315 0 .7" class="cls-4" transform="translate(30.981 26.037)"/>
                <path id="Fill_35" d="M14.908 0S1.305.668.674.668A.6.6 0 0 0 0 1.336v2.338l16.761 2.8z" class="cls-2" transform="translate(1.944 13.882)"/>
                <path id="Fill_36" d="M0 6.471l16.761-2.8V1.336a.6.6 0 0 0-.674-.668C15.456.668 1.853 0 1.853 0z" class="cls-2" transform="translate(39.396 13.881)"/>
                <path id="Fill_37" d="M1.148 8.747V3.5C1.148 1.567.4 0 0 0v8.747z" class="cls-6" transform="translate(20.431 4.704)"/>
                <path id="Fill_38" d="M0 8.747V3.5C0 1.567.747 0 1.148 0v8.747z" class="cls-6" transform="translate(36.522 4.704)"/>
                <path id="Fill_39" d="M0 .493h6.717V0H0z" class="cls-4" transform="translate(34.311 5.326)"/>
                <path id="Fill_40" d="M1.718 1.433H0C.254.565.618 0 .859 0s.605.565.859 1.433" class="cls-4" transform="translate(36.811 4.704)"/>
                <path id="Fill_41" d="M1.049 0C.722 0 .354.468 0 1.239h2.1C1.744.468 1.375 0 1.049 0" class="cls-4" transform="translate(28.001 1.079)"/>
                <path id="Fill_42" d="M0 8.432a4.373 4.373 0 0 0 .6-2.356v-3.72A4.374 4.374 0 0 0 0 0z" class="cls-2" transform="translate(1.689 11.751)"/>
                <path id="Fill_43" d="M.6 0A4.373 4.373 0 0 0 0 2.356v3.72a4.373 4.373 0 0 0 .6 2.356z" class="cls-2" transform="translate(55.813 11.751)"/>
                <path id="Fill_44" d="M0 1.433h1.718C1.464.565 1.1 0 .859 0S.254.565 0 1.433" class="cls-4" transform="translate(19.572 4.704)"/>
            </g>
        </g>
    </g>
</svg>
