<svg xmlns="http://www.w3.org/2000/svg" width="72.33" height="73.44" viewBox="0 0 72.33 73.44">
    <defs>
        <clipPath id="clip-path">
            <path id="Clip_4" d="M42.869 56.62l-43.434.43L0 0l43.434-.43-.565 57.05z" class="cls-1"/>
        </clipPath>
        <clipPath id="clip-path-3">
            <path id="Clip_32" d="M-.565 57.05l43.489-.431.565-57.05L0 0z" class="cls-1"/>
        </clipPath>
        <style>
            .cls-1,.cls-9{fill:none}.cls-2{fill:#ede2b2}.cls-3{clip-path:url(#clip-path)}.cls-4{fill:#596b6a}.cls-5{fill:#dbcf9e}.cls-9{stroke:#ede2b2;stroke-miterlimit:10;stroke-width:2px}
        </style>
    </defs>
    <g id="Planes_barak" transform="translate(.33)">
        <g id="icon_barak" transform="rotate(-45 38.536 15.433)">
            <path id="Fill_1" d="M20.208 55.622a.652.652 0 0 1-.707-.6l.007-.72-.812.008a.671.671 0 0 1-.7-.518l-.107-.683a.844.844 0 0 1-.114.009l-1.113.011-.006.563a.684.684 0 0 1-.719.618l-6.745.067a.781.781 0 0 1-.436-.125l-1.113-.736a.571.571 0 0 1-.27-.48L7.4 50.6a.589.589 0 0 1 .241-.457l7.583-5.88L15.2 40.7l-14.892.151a.652.652 0 0 1-.707-.6l.044-4.457a.6.6 0 0 1 .264-.474l14-9.963v-.326a23.172 23.172 0 0 1 1.392-4.718c.208-.585.387-1.091.464-1.347A26.023 26.023 0 0 0 16.5 16.2c.036-.231.121-.984.211-1.783.206-1.826.359-3.143.443-3.458a11.92 11.92 0 0 1 .5-1.33 29.509 29.509 0 0 1 .646-4.462A23.785 23.785 0 0 1 20.356.149.746.746 0 0 1 21-.208a.717.717 0 0 1 .634.332 23 23 0 0 1 1.966 4.99 29.107 29.107 0 0 1 .556 4.449 11.469 11.469 0 0 1 .474 1.32c.078.314.2 1.628.375 3.452.074.8.144 1.547.176 1.777a24.926 24.926 0 0 0 .673 2.75c.072.254.241.756.438 1.338a22.489 22.489 0 0 1 1.3 4.691v.326L41.4 34.9a.569.569 0 0 1 .255.469l-.044 4.457a.684.684 0 0 1-.719.618L26 40.6l-.089 3.556 7.468 5.731a.563.563 0 0 1 .232.452l-.024 2.438a.6.6 0 0 1-.28.485l-1.128.758a.806.806 0 0 1-.439.133l-6.745.067a.652.652 0 0 1-.707-.6l.006-.563-1.113.011a.835.835 0 0 1-.114-.007l-.121.685a.7.7 0 0 1-.711.532l-.812.008-.007.72a.684.684 0 0 1-.719.618z" class="cls-2" transform="translate(.735 .604)"/>
            <g id="Group_5" transform="translate(.028)">
                <path id="Clip_4-2" d="M42.869 56.62l-43.434.43L0 0l43.434-.43-.565 57.05z" class="cls-1"/>
                <g id="Group_5-2" class="cls-3">
                    <path id="Fill_3" d="M21.394 56.832h-.485a1.306 1.306 0 0 1-1.409-1.203v-.107h-.1a1.366 1.366 0 0 1-1.374-.914 1.449 1.449 0 0 1-1.386.914l-6.745.067a1.569 1.569 0 0 1-.872-.248L7.907 54.6a1.146 1.146 0 0 1-.542-.959l.024-2.437a1.179 1.179 0 0 1 .482-.913l7.341-5.691-.012-2.674-14.189.14A1.306 1.306 0 0 1-.4 40.858l.04-4.458a1.189 1.189 0 0 1 .529-.949l13.74-9.777v-.037a22.451 22.451 0 0 1 1.423-4.893c.2-.553.38-1.071.455-1.32a25.762 25.762 0 0 0 .711-2.691c.032-.207.109-.89.192-1.614l.017-.147c.251-2.225.37-3.208.459-3.536a11.305 11.305 0 0 1 .489-1.322 29.681 29.681 0 0 1 .651-4.459A24.3 24.3 0 0 1 20.42.5a1.5 1.5 0 0 1 1.3-.713A1.433 1.433 0 0 1 23 .473a23.324 23.324 0 0 1 2.011 5.117 29.208 29.208 0 0 1 .563 4.447 10.8 10.8 0 0 1 .463 1.312c.083.326.182 1.308.389 3.53.077.835.144 1.543.174 1.755a25.052 25.052 0 0 0 .658 2.678c.07.248.243.762.429 1.311a21.788 21.788 0 0 1 1.326 4.866v.037l13.549 9.507a1.136 1.136 0 0 1 .51.939l-.044 4.457a1.37 1.37 0 0 1-1.439 1.237l-14.188.14-.067 2.676 7.23 5.549a1.127 1.127 0 0 1 .464.9l-.024 2.437a1.2 1.2 0 0 1-.561.97l-1.128.76a1.621 1.621 0 0 1-.878.265l-6.744.067a1.38 1.38 0 0 1-1.368-.887 1.434 1.434 0 0 1-1.393.942h-.1v.115a1.37 1.37 0 0 1-1.438 1.232zm-2.86-8.111l.875 5.578 1.525-.015-.013 1.33h.485l.013-1.33 1.526-.015.989-5.614-.044 4.4 1.806-.018.035-1.381-.025 2.555 6.744-.067 1.129-.759.024-2.437-7.703-5.915.109-4.437 15.6-.154.044-4.457-14.071-9.868.006-.614a25.181 25.181 0 0 0-1.271-4.52c-.2-.587-.369-1.095-.445-1.362a25.163 25.163 0 0 1-.688-2.822c-.033-.243-.1-.975-.181-1.822-.127-1.362-.285-3.053-.359-3.35a11.861 11.861 0 0 0-.486-1.329 29.326 29.326 0 0 0-.546-4.452A21.735 21.735 0 0 0 21.7 1.007a22.707 22.707 0 0 0-2 4.877 30.057 30.057 0 0 0-.634 4.464 12.4 12.4 0 0 0-.512 1.339c-.081.3-.275 2.017-.431 3.395-.094.831-.175 1.549-.212 1.789a25.87 25.87 0 0 1-.744 2.836c-.081.268-.262.779-.472 1.371a25.967 25.967 0 0 0-1.361 4.546l-.006.614L1.065 36.387l-.044 4.457 15.6-.154.023 4.435-7.829 6.068-.024 2.437 1.113.736 6.745-.067.025-2.555.007 1.381 1.806-.018.043-4.386z" class="cls-4"/>
                </g>
            </g>
            <path id="Fill_6" d="M26.347 6.859l.006-.614c.01-1.014-1.445-4.923-1.716-5.881-.055-.193-.112-.4-.169-.606-1.244 1.344-2.61 2.62-3.433 2.777a45.405 45.405 0 0 1-5.8-.083A20.707 20.707 0 0 0 14.1 6.366l-.006.614L-.17 17.129l-.044 4.457 4.567-.045a7.429 7.429 0 0 1 2.454-2.73c2.775-1.82 6.467-.309 9.223-.336s8.777-3.265 12.609-6.318A11.158 11.158 0 0 0 30.7 9.91z" class="cls-5" transform="translate(1.263 19.257)"/>
            <path id="Fill_8" fill="#c8eab2" d="M6.484 2.816L2.437-.024a3.8 3.8 0 0 0-.62.562A8.337 8.337 0 0 0-.042 5.853c.034.283.164.868.311 1.48l6.171-.06z" transform="translate(35.191 33.169)"/>
            <path id="Fill_10" d="M12.515 12.2l1.525-.015.989-5.614-.044 4.4 1.805-.018.035-1.382-.025 2.557 6.745-.067 1.128-.759.027-2.437-7.709-5.914.078-3.12a7.606 7.606 0 0 0-1.814.233c-2.1.591-4.022 2.974-6.307 3.4-.7.132-1.453.272-2.287.408L-.09 9.111l-.024 2.437L1 12.284l6.745-.067.025-2.556.007 1.381 1.805-.018.044-4.4.878 5.6 1.525-.015-.013 1.331h.486z" class="cls-5" transform="translate(8.933 42.082)"/>
            <path id="Fill_12" fill="#cae0e0" d="M4.158 4.817A22.4 22.4 0 0 0 2.251-.022a23.378 23.378 0 0 0-2 4.878C.123 5.365.02 5.908-.064 6.433l4.5-.045c-.073-.524-.165-1.065-.28-1.572" transform="translate(19.481 1.029)"/>
            <path id="Fill_14" d="M2.89 5.576l1.525-.015L5.4-.054 0 0l.878 5.6L2.4 5.581" class="cls-4" transform="translate(18.558 48.703)"/>
            <path id="Fill_16" fill="#bfb073" d="M1.126 31.485l.043-4.347H.701L.779 19.3a16.152 16.152 0 0 1-.867-3.817c.012-1.213.064-12.9.064-13.023L0 0l3.933-.039-.024 2.46c0 .119-.182 11.812-.194 13.025a16.611 16.611 0 0 1-.943 3.835l-.078 7.842h-.468l-.043 4.347z" transform="translate(19.535 24.377)"/>
            <path id="Fill_18" d="M2.748 31.958l-.569.006h-.485l-.571.006v-.49l.013-1.33.025-2.528H.694v-.49l.075-7.561a16.042 16.042 0 0 1-.868-3.854c.009-.927.041-7.9.056-11.247 0-1.055.008-1.748.008-1.777L0 .49V0l.571-.006 1.68-.016 1.681-.017.568-.006v.49l-.024 2.217c0 .059-.182 11.821-.194 13.022a16.429 16.429 0 0 1-.943 3.872l-.075 7.561v.49h-.469l-.025 2.528-.013 1.33v.488zM.566.484L.544 2.7c0 .486-.053 11.833-.065 13.024a16.712 16.712 0 0 0 .867 3.776l-.076 7.633h.469l-.03 3.017-.009 1.329h.485l.013-1.33.03-3.017h.469l.076-7.633a17.1 17.1 0 0 0 .943-3.8c.008-1.199.184-12.548.189-13.03L3.927.451l-1.68.016z" class="cls-2" transform="translate(19.253 24.135)"/>
            <path id="Fill_20" d="M3.292 7l.033-3.3a11.265 11.265 0 0 0-.9-3.727l-.747.007-.744.011a11.6 11.6 0 0 0-.971 3.745L-.07 7.031z" class="cls-4" transform="translate(19.961 10.233)"/>
            <path id="Fill_22" d="M0 0l-.07 7.111a1.7 1.7 0 0 0 1.67.811 1.785 1.785 0 0 0 1.689-.844l.07-7.111z" class="cls-4" transform="translate(19.888 17.508)"/>
            <path id="Stroke_24" d="M0 0a1.994 1.994 0 0 0 1.957.949 2.089 2.089 0 0 0 1.976-.988" class="cls-9" transform="translate(19.533 24.551)"/>
            <path id="Stroke_26" d="M0 0a1.994 1.994 0 0 0 1.957.949 2.089 2.089 0 0 0 1.976-.988" class="cls-9" transform="translate(19.533 24.551)"/>
            <g id="Group_30" transform="translate(.028)">
                <path id="Clip_29-2" d="M42.869 56.62l-43.434.43L0 0l43.434-.43-.565 57.05z" class="cls-1"/>
                <g id="Group_30-2" class="cls-3">
                    <path id="Fill_28" d="M21.394 56.832h-.485a1.306 1.306 0 0 1-1.409-1.203v-.107h-.1a1.366 1.366 0 0 1-1.374-.914 1.449 1.449 0 0 1-1.386.914l-6.745.067a1.569 1.569 0 0 1-.872-.248L7.907 54.6a1.146 1.146 0 0 1-.542-.959l.024-2.437a1.179 1.179 0 0 1 .482-.913l7.341-5.691-.012-2.674-14.189.14A1.306 1.306 0 0 1-.4 40.858l.04-4.458a1.189 1.189 0 0 1 .529-.949l13.74-9.777v-.037a22.451 22.451 0 0 1 1.423-4.893c.2-.553.38-1.071.455-1.32a25.762 25.762 0 0 0 .711-2.691c.032-.207.109-.89.192-1.614l.017-.147c.251-2.225.37-3.208.459-3.536a11.305 11.305 0 0 1 .489-1.322 29.681 29.681 0 0 1 .651-4.459A24.3 24.3 0 0 1 20.42.5a1.5 1.5 0 0 1 1.3-.713A1.433 1.433 0 0 1 23 .473a23.324 23.324 0 0 1 2.011 5.117 29.208 29.208 0 0 1 .563 4.447 10.8 10.8 0 0 1 .463 1.312c.083.326.182 1.308.389 3.53.077.835.144 1.543.174 1.755a25.052 25.052 0 0 0 .658 2.678c.07.248.243.762.429 1.311a21.788 21.788 0 0 1 1.326 4.866v.037l13.549 9.507a1.136 1.136 0 0 1 .51.939l-.044 4.457a1.37 1.37 0 0 1-1.439 1.237l-14.188.14-.067 2.676 7.23 5.549a1.127 1.127 0 0 1 .464.9l-.024 2.437a1.2 1.2 0 0 1-.561.97l-1.128.76a1.621 1.621 0 0 1-.878.265l-6.744.067a1.38 1.38 0 0 1-1.368-.887 1.434 1.434 0 0 1-1.393.942h-.1v.115a1.37 1.37 0 0 1-1.438 1.232zm-2.86-8.111l.875 5.578 1.525-.015-.013 1.33h.485l.013-1.33 1.526-.015.989-5.614-.044 4.4 1.806-.018.035-1.381-.025 2.555 6.744-.067 1.129-.759.024-2.437-7.703-5.915.109-4.437 15.6-.154.044-4.457-14.071-9.868.006-.614a25.181 25.181 0 0 0-1.271-4.52c-.2-.587-.369-1.095-.445-1.362a25.163 25.163 0 0 1-.688-2.822c-.033-.243-.1-.975-.181-1.822-.127-1.362-.285-3.053-.359-3.35a11.861 11.861 0 0 0-.486-1.329 29.326 29.326 0 0 0-.546-4.452A21.735 21.735 0 0 0 21.7 1.007a22.707 22.707 0 0 0-2 4.877 30.057 30.057 0 0 0-.634 4.464 12.4 12.4 0 0 0-.512 1.339c-.081.3-.275 2.017-.431 3.395-.094.831-.175 1.549-.212 1.789a25.87 25.87 0 0 1-.744 2.836c-.081.268-.262.779-.472 1.371a25.967 25.967 0 0 0-1.361 4.546l-.006.614L1.065 36.387l-.044 4.457 15.6-.154.023 4.435-7.829 6.068-.024 2.437 1.113.736 6.745-.067.025-2.555.007 1.381 1.806-.018.043-4.386z" class="cls-4"/>
                </g>
            </g>
            <path id="Clip_32-2" d="M-.565 57.05l43.489-.431.565-57.05L0 0z" class="cls-1"/>
            <g id="Mask_Group_11" clip-path="url(#clip-path-3)">
                <path id="Fill_31" d="M-.11 11.125l.71-.007L.713-.007 0 0z" class="cls-4" transform="translate(-.313 31.564)"/>
                <path id="Fill_33" d="M-.11 11.125l.71-.007L.713-.007 0 0z" class="cls-4" transform="translate(42.464 31.14)"/>
            </g>
        </g>
    </g>
</svg>
