<svg xmlns="http://www.w3.org/2000/svg" width="76.252" height="74.805" viewBox="0 0 76.252 74.805">
    <defs>
        <clipPath id="clip-path">
            <path id="Clip_4" d="M49.166 0v56.155H0V0z" class="cls-1"/>
        </clipPath>
        <style>
            .cls-1{fill:none}.cls-4{fill:#596b6a}
        </style>
    </defs>
    <g id="Planes_lavi" transform="translate(4.252 2.805)">
        <g id="icon_lavi" transform="rotate(-45 36.453 21.113)">
            <path id="Fill_1" fill="#cae0e0" d="M12.291 54.776a.688.688 0 0 1-.687-.69v-2.83a.69.69 0 0 1 .385-.619l8.783-4.313v-.367c-.1-.106-.232-.236-.348-.34-1.107-.993-1.7-3.79-1.923-5.055H.687a.688.688 0 0 1-.687-.69v-4.437a.69.69 0 0 1 .3-.569L8.248 29.4a.687.687 0 0 1 1.071.487l7.619-5.224A34.941 34.941 0 0 1 18.721 19c.777-1.663 1.4-2.811 1.631-3.219V13.8C20.352 5.438 23.183.543 23.3.338a.686.686 0 0 1 1.183 0c.121.2 2.952 5.1 2.952 13.459v1.982c.229.409.853 1.556 1.631 3.219a34.941 34.941 0 0 1 1.782 5.664l7.619 5.224a.687.687 0 0 1 1.071-.487l7.95 5.467a.69.69 0 0 1 .3.569v4.438a.688.688 0 0 1-.687.69H29.29c-.22 1.265-.816 4.062-1.923 5.055-.116.1-.246.234-.348.34v.367l8.781 4.312a.69.69 0 0 1 .385.619v2.83a.688.688 0 0 1-.687.69z" transform="translate(.687 .69)"/>
            <g id="Group_5">
                <path id="Clip_4-2" d="M49.166 0v56.155H0V0z" class="cls-1"/>
                <g id="Group_5-2" clip-path="url(#clip-path)">
                    <path id="Fill_3" d="M36.187 56.156H12.979a1.379 1.379 0 0 1-1.379-1.379v-2.83a1.371 1.371 0 0 1 .77-1.239l8.156-4c-1.02-1.038-1.605-3.162-1.917-4.762H1.375A1.379 1.379 0 0 1 0 40.562v-4.437a1.38 1.38 0 0 1 .6-1.138l7.95-5.468a1.373 1.373 0 0 1 1.419-.082 1.417 1.417 0 0 1 .244.165l6.809-4.669a34.858 34.858 0 0 1 1.766-5.538c.652-1.4 1.211-2.459 1.566-3.105v-1.8c0-8.536 2.924-13.6 3.048-13.81a1.373 1.373 0 0 1 2.366 0c.124.211 3.048 5.274 3.048 13.81v1.8c.283.514.863 1.6 1.566 3.105a34.4 34.4 0 0 1 1.766 5.538l6.81 4.669a1.328 1.328 0 0 1 .244-.165 1.373 1.373 0 0 1 1.419.082l7.948 5.468a1.378 1.378 0 0 1 .6 1.138v4.438a1.379 1.379 0 0 1-1.375 1.379H30.553c-.313 1.6-.9 3.729-1.917 4.762l8.154 4a1.39 1.39 0 0 1 .771 1.239v2.83a1.379 1.379 0 0 1-1.374 1.383zM9.325 30.657l-7.95 5.468v4.438h18.4c.006.041.6 4.159 1.795 5.231.26.234.575.576.578.579v1.072l-9.168 4.5v2.83h23.207v-2.83l-9.168-4.5v-1.073l.009-.01c.124-.134.363-.385.567-.569 1.2-1.081 1.789-5.189 1.795-5.231h18.4v-4.437l-7.95-5.468v1.222l-8.91-6.109a36.465 36.465 0 0 0-1.8-5.789c-.948-2.029-1.688-3.317-1.7-3.329v-2.165c0-8.171-2.828-13.059-2.856-13.108-.026.045-2.856 4.967-2.856 13.108v2.164c-.007.012-.743 1.292-1.7 3.329a36.884 36.884 0 0 0-1.795 5.789l-8.898 6.11z" class="cls-4"/>
                </g>
            </g>
            <path id="Fill_6" d="M2.737 3.275A18.221 18.221 0 0 0 1.369 0 18.221 18.221 0 0 0 0 3.275z" class="cls-4" transform="translate(23.214 1.079)"/>
            <path id="Stroke_8" fill="none" stroke="#596b6a" stroke-miterlimit="10" d="M2.737 3.275A18.221 18.221 0 0 0 1.369 0 18.221 18.221 0 0 0 0 3.275z" transform="translate(23.214 1.079)"/>
            <path id="Fill_10" d="M2 3.463a3.152 3.152 0 0 1 1.869.567V2.172A2.075 2.075 0 0 0 1.97 0h-.043A2.069 2.069 0 0 0 0 2.172v1.959a3.071 3.071 0 0 1 2-.668" class="cls-4" transform="translate(22.65 7.828)"/>
            <path id="Fill_12" d="M2 7.216a4.482 4.482 0 0 0 1.869-.334V.673A2.623 2.623 0 0 0 2 0a2.463 2.463 0 0 0-2 .826V6.81a4.04 4.04 0 0 0 2 .406" class="cls-4" transform="translate(22.65 11.65)"/>
            <path id="Fill_14" d="M2 .358A4.958 4.958 0 0 1 0 0v5.883a4.19 4.19 0 0 0 1.931.759 4.194 4.194 0 0 0 1.932-.759V.056A5.265 5.265 0 0 1 2 .358" class="cls-4" transform="translate(22.65 18.867)"/>
        </g>
    </g>
</svg>
