<svg xmlns="http://www.w3.org/2000/svg" width="81.481" height="81.481" viewBox="0 0 81.481 81.481">
    <defs>
        <clipPath id="clip-path">
            <path id="Clip_4" d="M31.022 0h31.023v53.186H0V0z" class="cls-1"/>
        </clipPath>
        <clipPath id="clip-path-2">
            <path id="Clip_43" d="M0 53.186h62.045V0H0z" class="cls-1"/>
        </clipPath>
        <style>
            .cls-1{fill:none}.cls-4{fill:#596b6a}.cls-5{fill:#dbcf9e}
        </style>
    </defs>
    <g id="Planes_karnaf" transform="translate(6.096 4.446)">
        <g id="Icon_karnaf" transform="rotate(-45 44.545 27.072)">
            <path id="Fill_1" fill="#ede2b2" d="M30.446 52.046c-1.155 0-1.635-1.107-1.77-1.945l-.154-.085c-2.588-.395-9.048-1.374-9.488-1.417a1.252 1.252 0 0 1-1.022-.671 1.878 1.878 0 0 1-.166-1.058l.008-.082c.06-.612.172-1.752 1.141-2.013.534-.144 6.188-1.424 7.956-1.824a40.419 40.419 0 0 1-.382-4.423v-9.485H22a.6.6 0 0 1-.075-.005L1.173 26.33a.575.575 0 0 1-.482-.418A22.3 22.3 0 0 1 0 22.616c0-1.2.957-1.29 1.471-1.341.1-.01.384-.038 12.4-.416v-.24c0-1.65.179-4.417 1.38-4.417s1.38 2.767 1.38 4.417v.154l4.9-.152c0-1.65.179-4.417 1.38-4.417 1.185 0 1.375 2.7 1.38 4.352h1.891a13.873 13.873 0 0 1 .383-3.043v-8.6a11.135 11.135 0 0 1 1.7-6.091 5.92 5.92 0 0 0 .481-1.143 6.042 6.042 0 0 1 .4-1 1.558 1.558 0 0 1 2.579 0 6.042 6.042 0 0 1 .4 1 5.927 5.927 0 0 0 .481 1.143 11.134 11.134 0 0 1 1.7 6.091v8.6a13.873 13.873 0 0 1 .383 3.043H36.6c0-1.656.195-4.352 1.379-4.352 1.2 0 1.38 2.767 1.38 4.417l4.9.152v-.154c0-1.65.179-4.417 1.38-4.417s1.38 2.767 1.38 4.417v.24c12.018.377 12.306.406 12.4.416.514.051 1.47.145 1.47 1.341a22.3 22.3 0 0 1-.691 3.3.575.575 0 0 1-.482.418l-20.749 2.704a.6.6 0 0 1-.075.005h-4.569v9.486a40.419 40.419 0 0 1-.382 4.423c1.767.4 7.422 1.68 7.956 1.823.969.261 1.081 1.4 1.141 2.013l.008.083c.1.969-.368 1.648-1.188 1.729-.44.043-6.9 1.023-9.488 1.417l-.154.085c-.135.838-.616 1.944-1.77 1.944z" transform="translate(.577 .57)"/>
            <g id="Group_5">
                <path id="Clip_4-2" d="M31.022 0h31.023v53.186H0V0z" class="cls-1"/>
                <g id="Group_5-2" clip-path="url(#clip-path)">
                    <path id="Fill_3" d="M31.022 53.187a2.406 2.406 0 0 1-2.269-2.076c-4-.609-8.815-1.335-9.2-1.374a1.818 1.818 0 0 1-1.259-.656 2.29 2.29 0 0 1-.445-1.7l.008-.08c.063-.641.212-2.143 1.564-2.508.508-.137 5.392-1.244 7.469-1.713a37.381 37.381 0 0 1-.321-3.983v-8.914h-3.993a1.159 1.159 0 0 1-.15-.01L1.674 27.465a1.144 1.144 0 0 1-.964-.836A20.756 20.756 0 0 1 0 23.185a1.88 1.88 0 0 1 1.987-1.907c.122-.012.407-.039 11.888-.4a14.626 14.626 0 0 1 .257-2.639c.1-.5.424-2.036 1.7-2.036s1.593 1.532 1.7 2.036a14.232 14.232 0 0 1 .254 2.517l3.018-.094.745-.023a13.9 13.9 0 0 1 .251-2.4c.1-.5.424-2.036 1.7-2.036s1.593 1.532 1.7 2.036a13.9 13.9 0 0 1 .248 2.316h.772a14.172 14.172 0 0 1 .358-2.544V9.483A11.773 11.773 0 0 1 28.349 3.1a5.25 5.25 0 0 0 .427-1.022l.005-.016v-.008a6.625 6.625 0 0 1 .445-1.073 2.135 2.135 0 0 1 3.593 0 6.624 6.624 0 0 1 .442 1.078v.008l.005.016a5.252 5.252 0 0 0 .426 1.02 11.778 11.778 0 0 1 1.782 6.38v8.528a14.181 14.181 0 0 1 .358 2.544h.772a13.915 13.915 0 0 1 .249-2.316c.1-.5.424-2.036 1.7-2.036s1.592 1.529 1.7 2.031a14.048 14.048 0 0 1 .251 2.405l3.408.106.355.011a14.356 14.356 0 0 1 .254-2.517c.1-.5.424-2.036 1.7-2.036s1.593 1.532 1.7 2.036a14.616 14.616 0 0 1 .257 2.639c11.481.361 11.764.389 11.885.4a1.882 1.882 0 0 1 1.99 1.908 20.755 20.755 0 0 1-.71 3.443 1.144 1.144 0 0 1-.963.836l-20.76 2.707a1.183 1.183 0 0 1-.152.01h-3.991V39.1a37.635 37.635 0 0 1-.321 3.983l.588.132c1.912.434 6.391 1.449 6.88 1.581 1.352.365 1.5 1.866 1.564 2.507l.008.082a2.29 2.29 0 0 1-.445 1.7 1.818 1.818 0 0 1-1.259.656c-.371.037-5 .734-9.2 1.374a2.406 2.406 0 0 1-2.27 2.072zM15.829 17.342c-.443 0-.8 1.726-.8 3.848v.792c-2.937.093-12.546.394-12.921.43-.59.059-.951.127-.951.774a24.559 24.559 0 0 0 .671 3.149l20.752 2.707h5.146V39.1a45.918 45.918 0 0 0 .447 4.861c-.057.013-7.833 1.77-8.446 1.935-.585.158-.666.976-.719 1.518L19 47.5a1.2 1.2 0 0 0 .185.862.689.689 0 0 0 .486.244c.549.053 9.53 1.422 9.62 1.436l.5.276c0 .019.129 1.731 1.23 1.731s1.23-1.714 1.231-1.731l.5-.276.06-.009c1.508-.23 9.058-1.378 9.561-1.427a.689.689 0 0 0 .486-.244 1.2 1.2 0 0 0 .185-.862l-.008-.084c-.053-.542-.133-1.361-.719-1.518s-8.123-1.862-8.443-1.934a46.641 46.641 0 0 0 .444-4.862v-10.06h5.146l20.756-2.707a24.632 24.632 0 0 0 .671-3.149c0-.646-.361-.715-.951-.774-.314-.03-7.2-.251-12.921-.43v-.792c0-2.122-.36-3.848-.8-3.848s-.8 1.726-.8 3.848v.743l-6.058-.188v-.555c0-2.122-.36-3.848-.8-3.848s-.8 1.726-.8 3.848v.5h-3.046a13.569 13.569 0 0 0-.393-3.535V9.483a10.575 10.575 0 0 0-1.621-5.8 6.325 6.325 0 0 1-.531-1.248 5.659 5.659 0 0 0-.365-.906.984.984 0 0 0-1.566 0 5.658 5.658 0 0 0-.365.905 6.326 6.326 0 0 1-.531 1.249 10.575 10.575 0 0 0-1.621 5.8v8.675a13.689 13.689 0 0 0-.393 3.535h-3.034v-.5c0-2.122-.36-3.848-.8-3.848s-.8 1.726-.8 3.848v.555c-1.432.043-3.679.114-6.058.188v-.746c-.005-2.122-.365-3.848-.808-3.848z" class="cls-4"/>
                </g>
            </g>
            <path id="Fill_6" d="M25.656 13.8a13.439 13.439 0 0 0-.392-3.536v-8.68A12.029 12.029 0 0 0 25.162 0a2.3 2.3 0 0 1-.852.467 37.957 37.957 0 0 1-5.578-.156 12.173 12.173 0 0 0-.067 1.273v8.675a13.439 13.439 0 0 0-.392 3.536h-3.036v-.505c0-2.125-.36-3.847-.8-3.847s-.8 1.723-.8 3.847v.555l-6.057.188v-.742c0-2.125-.359-3.847-.8-3.847s-.8 1.723-.8 3.847v.793l-5.454.173L0 19.38l8.863 1.156a7.341 7.341 0 0 1 1.9-2.171c2.654-1.989 6.223-.271 8.876-.271 1.966 0 5.641-1.936 8.9-4.3z" class="cls-5" transform="translate(9.058 7.899)"/>
            <path id="Fill_8" d="M1.587 3.022C1.508 1.294 1.187 0 .8 0 .36 0 0 1.723 0 3.847v.4c.545-.4 1.077-.809 1.587-1.223" class="cls-5" transform="translate(37.75 17.342)"/>
            <path id="Fill_10" fill="#c8eab2" d="M10.448.653l-.295-.379C7.768.2 4.605.1 1.58 0A10.19 10.19 0 0 0 .016 5.625c.015.135.048.334.093.57l10.054-1.312z" transform="translate(45.89 21.996)"/>
            <path id="Fill_12" d="M10.172 17.846l9.475-3.474c-1.4-.337-8.236-1.881-8.236-1.881a45.481 45.481 0 0 0 .448-4.862V0c-1.617.993-3.176 2.83-4.982 3.2-.506.1-1.043.213-1.619.321v4.108a45.481 45.481 0 0 0 .448 4.862s-3.231.73-5.706 1.3z" class="cls-5" transform="translate(22.464 31.47)"/>
            <path id="Fill_14" d="M0 1.442h1.253C1.106.563.88 0 .626 0S.147.563 0 1.442" class="cls-4" transform="translate(15.203 17.342)"/>
            <path id="Fill_16" d="M0 1.442h1.253C1.106.563.88 0 .626 0S.147.563 0 1.442" class="cls-4" transform="translate(22.866 17.342)"/>
            <path id="Fill_18" d="M1.253 1.442H0C.147.563.373 0 .626 0s.479.563.626 1.442" class="cls-4" transform="translate(45.59 17.342)"/>
            <path id="Fill_20" d="M1.253 1.442H0C.147.563.373 0 .626 0s.479.563.626 1.442" class="cls-4" transform="translate(37.927 17.342)"/>
            <path id="Fill_22" d="M2.757 1.914a15.441 15.441 0 0 0-.59-1.527A.877.877 0 0 0 1.384 0 .877.877 0 0 0 .6.387 16.61 16.61 0 0 0 0 1.943a2.8 2.8 0 0 1 2.757-.029" class="cls-4" transform="translate(29.638 1.14)"/>
            <path id="Fill_24" d="M.361 0l.2.663L.2.884 0 .2z" class="cls-4" transform="translate(29.792 3.018)"/>
            <path id="Fill_26" d="M.41 0L0 .015l.056.543h.708L.821.015z" class="cls-4" transform="translate(30.612 3.578)"/>
            <path id="Fill_28" d="M.5 0l.064.435-.3.228L0 .366z" class="cls-4" transform="translate(29.988 3.626)"/>
            <path id="Fill_30" d="M.153.724A2.158 2.158 0 0 0 0 1.181h.2a2.036 2.036 0 0 1 .653-1L.72 0C.7.015.676.029.654.047a1.872 1.872 0 0 0-.5.677" class="cls-4" transform="translate(29.42 4.563)"/>
            <path id="Fill_32" d="M.49 1.067A1.979 1.979 0 0 1 1.023.35L1.091.3.83 0a4.414 4.414 0 0 0-.494.622A2.891 2.891 0 0 0 0 1.57h.325a2.238 2.238 0 0 1 .165-.5" class="cls-4" transform="translate(28.981 4.174)"/>
            <path id="Fill_34" d="M.2 0L0 .663l.361.221L.564.2z" class="cls-4" transform="translate(31.787 3.018)"/>
            <path id="Fill_36" d="M.063 0L0 .435l.3.228.261-.3z" class="cls-4" transform="translate(31.498 3.626)"/>
            <path id="Fill_38" d="M.7.724a2.158 2.158 0 0 1 .153.458h-.2A2.036 2.036 0 0 0 0 .178L.137 0C.159.015.181.029.2.047a1.869 1.869 0 0 1 .5.677" class="cls-4" transform="translate(31.768 4.563)"/>
            <path id="Fill_40" d="M.6 1.067A1.981 1.981 0 0 0 .069.35C.045.331.023.315 0 .3L.261 0a4.424 4.424 0 0 1 .494.622 2.894 2.894 0 0 1 .336.948H.766a2.238 2.238 0 0 0-.165-.5" class="cls-4" transform="translate(31.973 4.174)"/>
            <path id="Clip_43-2" d="M0 53.186h62.045V0H0z" class="cls-1"/>
            <g id="Mask_Group_14" clip-path="url(#clip-path-2)">
                <path id="Fill_42" d="M0 .558h5.769V0H0z" class="cls-4" transform="translate(12.939 18.04)"/>
                <path id="Fill_44" d="M0 .558h5.769V0H0z" class="cls-4" transform="translate(20.602 18.04)"/>
                <path id="Fill_45" d="M0 .558h5.769V0H0z" class="cls-4" transform="translate(35.663 18.04)"/>
                <path id="Fill_46" d="M0 .558h5.769V0H0z" class="cls-4" transform="translate(43.326 18.04)"/>
            </g>
        </g>
    </g>
</svg>
