<svg xmlns="http://www.w3.org/2000/svg" width="74.416" height="72.607" viewBox="0 0 74.416 72.607">
    <defs>
        <clipPath id="clip-path">
            <path id="Clip_4" d="M0 0h39.658v57.818H0V0z" class="cls-1"/>
        </clipPath>
        <clipPath id="clip-path-2">
            <path id="Clip_21" d="M0 57.819h39.658V0H0z" class="cls-1"/>
        </clipPath>
        <style>
            .cls-1{fill:none}.cls-4{fill:#596b6a}.cls-5{fill:#dbcf9e}
        </style>
    </defs>
    <g id="Planes_raam" transform="translate(2.416 .607)">
        <g id="icon_raam" transform="rotate(-45 31.909 16.634)">
            <path id="Fill_1" fill="#ede2b2" d="M29.457 56.58a.63.63 0 0 1-.182-.027L23.84 54.9a.622.622 0 0 1-.394-.356L22.39 52h-2.642a.623.623 0 0 1-.539-.31.623.623 0 0 1-.539.31h-2.643l-1.056 2.549a.621.621 0 0 1-.394.356l-5.435 1.648a.624.624 0 0 1-.684-.227L6.88 54.177a1.858 1.858 0 0 1 .1-2.19c.292-.373 4-4.658 4.417-5.145a.625.625 0 0 1 .886-.058l.392-.39-.378-2.245H8.136l-5.06 1.462a.624.624 0 0 1-.7-.262C2.3 45.232.537 42.474.239 41.923a1.891 1.891 0 0 1 .466-2.368c.544-.58 10.071-10.489 11.533-12.009v-1.528a10.848 10.848 0 0 1 1.78-5.847c-.011-.486-.037-1.715-.037-2.413a4.542 4.542 0 0 1 .3-1.689.623.623 0 0 1 .572-.375h1.577v-4.543A26.166 26.166 0 0 1 18.651.344a.624.624 0 0 1 1.115 0 26.163 26.163 0 0 1 2.222 10.806v4.543h1.577a.623.623 0 0 1 .572.375 4.542 4.542 0 0 1 .3 1.689c0 .7-.026 1.927-.037 2.413a10.851 10.851 0 0 1 1.779 5.847v1.527c1.462 1.52 10.989 11.429 11.533 12.009a1.89 1.89 0 0 1 .466 2.368c-.3.551-2.064 3.309-2.139 3.426a.624.624 0 0 1-.7.262l-5.06-1.462h-4.155l-.378 2.245.392.39a.625.625 0 0 1 .886.058c.421.487 4.126 4.772 4.417 5.145a1.857 1.857 0 0 1 .1 2.19c-.332.454-1.578 2.149-1.578 2.149a.624.624 0 0 1-.506.256z" transform="translate(.62 .619)"/>
            <g id="Group_5">
                <path id="Clip_4-2" d="M0 0h39.658v57.818H0V0z" class="cls-1"/>
                <g id="Group_5-2" clip-path="url(#clip-path)">
                    <path id="Fill_3" d="M30.077 57.818a1.25 1.25 0 0 1-.364-.054l-5.435-1.651a1.236 1.236 0 0 1-.787-.713l-.9-2.166h-2.223a1.253 1.253 0 0 1-.539-.123 1.254 1.254 0 0 1-.539.123h-2.226l-.9 2.166a1.236 1.236 0 0 1-.787.713l-5.433 1.651a1.248 1.248 0 0 1-1.369-.452l-.046-.062L7 55.16a2.445 2.445 0 0 1 .1-2.934c.269-.345 3.234-3.776 4.208-4.9l.23-.266a1.246 1.246 0 0 1 .943-.43 1.038 1.038 0 0 1 .11.005l-.21-1.244H8.845l-4.974 1.433a1.241 1.241 0 0 1-1.4-.524c-.433-.68-1.879-2.944-2.16-3.463a2.486 2.486 0 0 1 .56-3.086c.459-.488 7.34-7.647 10.278-10.7l.014-.015 1.072-1.116v-1.282a11.568 11.568 0 0 1 1.777-6.024c-.022-.989-.034-1.762-.034-2.236a5.216 5.216 0 0 1 .35-1.934 1.243 1.243 0 0 1 1.144-.752h.954V11.77A26.9 26.9 0 0 1 18.713.689a1.248 1.248 0 0 1 2.232 0 26.9 26.9 0 0 1 2.286 11.081v3.923h.954a1.243 1.243 0 0 1 1.144.752 5.219 5.219 0 0 1 .35 1.934c0 .658-.024 1.8-.032 2.234a11.612 11.612 0 0 1 1.775 6.026v1.278l1.3 1.353.017.018c3.116 3.242 9.6 9.989 10.048 10.465a2.486 2.486 0 0 1 .56 3.086c-.281.519-1.727 2.783-2.163 3.464a1.238 1.238 0 0 1-1.05.574 1.221 1.221 0 0 1-.346-.051l-4.975-1.437h-3.542l-.21 1.244a1.05 1.05 0 0 1 .11-.005 1.246 1.246 0 0 1 .943.43l.229.265c.975 1.128 3.939 4.559 4.208 4.9a2.445 2.445 0 0 1 .108 2.934l-1.579 2.151a1.255 1.255 0 0 1-1.003.51zm-6.805-6.195l1.369 3.3 5.435 1.651c.012-.016 1.235-1.68 1.576-2.147a1.229 1.229 0 0 0-.083-1.445c-.288-.369-4.358-5.074-4.4-5.122v.827L25.7 47.225l.518-3.077h4.772l5.144 1.488c.012-.02 1.829-2.855 2.116-3.388.3-.557.19-1.051-.373-1.651s-11.589-12.068-11.7-12.184v-1.775a10.277 10.277 0 0 0-1.785-5.658c0-.011.043-1.742.043-2.6a4 4 0 0 0-.25-1.446h-2.2V11.77a26.015 26.015 0 0 0-2.156-10.531 25.83 25.83 0 0 0-2.158 10.531v5.162h-2.2a4 4 0 0 0-.25 1.446c0 .861.042 2.584.043 2.6a10.284 10.284 0 0 0-1.785 5.658v1.776c-.094.1-11.112 11.556-11.7 12.184-.563.6-.674 1.094-.373 1.651.287.531 2.1 3.359 2.116 3.388l5.144-1.488h4.772l.518 3.077-1.472 1.467v-.827c-.022.027-4.1 4.735-4.4 5.122A1.229 1.229 0 0 0 8 54.432l1.568 2.134.01.013 5.434-1.651 1.37-3.3.207.372h2.7l.124-.289.415-.083.415.083.124.289h2.7l.206-.369z" class="cls-4"/>
                </g>
            </g>
            <path id="Fill_6" d="M24.932 5.1a10.257 10.257 0 0 0-1.42-5.1C22.258 1.71 20.46 3.944 19.5 4.146c-.98.205-4.33-.163-7.185-.234a9.345 9.345 0 0 0-.079 1.188v1.771S1.117 18.435.536 19.054s-.664 1.115-.373 1.652 2.116 3.387 2.116 3.387l2.8-.809A7.1 7.1 0 0 1 7.216 20.5c2.407-1.817 5.643-.248 8.049-.248s7.634-3.221 10.953-6.278a12.3 12.3 0 0 0 2.368-3.3l-3.655-3.8z" class="cls-5" transform="translate(1.245 21.542)"/>
            <path id="Fill_8" fill="#c8eab2" d="M6.155 5.142c.291-.537.207-1.033-.373-1.652C5.586 3.281 4.195 1.831 2.436 0a3.772 3.772 0 0 0-.845.805A9.255 9.255 0 0 0 .014 6.174c.028.249.121.729.232 1.258l3.792 1.1s1.825-2.85 2.116-3.387" transform="translate(32.096 37.107)"/>
            <path id="Fill_10" d="M12.562 5.878h2.7l.208-.372 1.369 3.3 5.435 1.652s1.245-1.693 1.577-2.148a1.232 1.232 0 0 0-.083-1.445c-.291-.372-4.4-5.121-4.4-5.121v.826l-1.474-1.462.17-1.008a8.7 8.7 0 0 0-3.3.124c-1.828.576-3.488 2.97-5.48 3.382a47.657 47.657 0 0 1-7.077 1.007C1.276 5.694.409 6.706.281 6.869A1.233 1.233 0 0 0 .2 8.315c.332.454 1.577 2.148 1.577 2.148L7.21 8.81l1.369-3.3.207.372h2.7l.124-.289.415-.083.415.083z" class="cls-5" transform="translate(7.806 46.117)"/>
            <path id="Fill_12" d="M3.247 2.168l-.124.289H.425l-.207-.371L0 0h3.392z" class="cls-4" transform="translate(16.167 49.538)"/>
            <path id="Fill_14" d="M.145 2.168l.124.289h2.7l.208-.372L3.392 0H0z" class="cls-4" transform="translate(20.104 49.538)"/>
            <path id="Fill_16" d="M2.489 2.56v-.95C2.489.578 1.909 0 1.245 0S0 .578 0 1.611v.95z" class="cls-4" transform="translate(18.584 11.357)"/>
            <path id="Fill_18" d="M0 0v1.074c0 2.85 1.245 2.85 1.245 2.85s1.245 0 1.245-2.85V0z" class="cls-4" transform="translate(18.584 18.46)"/>
            <path id="Clip_21-2" d="M0 57.819h39.658V0H0z" class="cls-1"/>
            <g id="Mask_Group_16" clip-path="url(#clip-path-2)">
                <path id="Fill_20" d="M0 4.047h2.489V0H0z" class="cls-4" transform="translate(18.584 14.165)"/>
                <path id="Fill_22" fill="#cae0e0" d="M3.937 7.351A24.461 24.461 0 0 0 1.969 0 24.466 24.466 0 0 0 0 7.351z" transform="translate(17.86 1.239)"/>
                <path id="Fill_23" d="M30.077 57.818a1.25 1.25 0 0 1-.364-.054l-5.435-1.651a1.236 1.236 0 0 1-.787-.713l-.9-2.166h-2.223a1.253 1.253 0 0 1-.539-.123 1.254 1.254 0 0 1-.539.123h-2.226l-.9 2.166a1.236 1.236 0 0 1-.787.713l-5.433 1.651a1.248 1.248 0 0 1-1.369-.452l-.046-.062L7 55.16a2.445 2.445 0 0 1 .1-2.934c.269-.345 3.234-3.776 4.208-4.9l.23-.266a1.246 1.246 0 0 1 .943-.43 1.038 1.038 0 0 1 .11.005l-.21-1.244H8.845l-4.974 1.433a1.241 1.241 0 0 1-1.4-.524c-.433-.68-1.879-2.944-2.16-3.463a2.486 2.486 0 0 1 .56-3.086c.459-.488 7.34-7.647 10.278-10.7l.014-.015 1.072-1.116v-1.282a11.568 11.568 0 0 1 1.777-6.024c-.022-.989-.034-1.762-.034-2.236a5.216 5.216 0 0 1 .35-1.934 1.243 1.243 0 0 1 1.144-.752h.954V11.77A26.9 26.9 0 0 1 18.713.689a1.248 1.248 0 0 1 2.232 0 26.9 26.9 0 0 1 2.286 11.081v3.923h.954a1.243 1.243 0 0 1 1.144.752 5.219 5.219 0 0 1 .35 1.934c0 .658-.024 1.8-.032 2.234a11.612 11.612 0 0 1 1.775 6.026v1.278l1.3 1.353.017.018c3.116 3.242 9.6 9.989 10.048 10.465a2.486 2.486 0 0 1 .56 3.086c-.281.519-1.727 2.783-2.163 3.464a1.238 1.238 0 0 1-1.05.574 1.221 1.221 0 0 1-.346-.051l-4.975-1.437h-3.542l-.21 1.244a1.05 1.05 0 0 1 .11-.005 1.246 1.246 0 0 1 .943.43l.229.265c.975 1.128 3.939 4.559 4.208 4.9a2.445 2.445 0 0 1 .108 2.934l-1.579 2.151a1.255 1.255 0 0 1-1.003.51zm-6.805-6.195l1.369 3.3 5.435 1.651c.012-.016 1.235-1.68 1.576-2.147a1.229 1.229 0 0 0-.083-1.445c-.288-.369-4.358-5.074-4.4-5.122v.827L25.7 47.225l.518-3.077h4.772l5.144 1.488c.012-.02 1.829-2.855 2.116-3.388.3-.557.19-1.051-.373-1.651s-11.589-12.068-11.7-12.184v-1.775a10.277 10.277 0 0 0-1.785-5.658c0-.011.043-1.742.043-2.6a4 4 0 0 0-.25-1.446h-2.2V11.77a26.015 26.015 0 0 0-2.156-10.531 25.83 25.83 0 0 0-2.158 10.531v5.162h-2.2a4 4 0 0 0-.25 1.446c0 .861.042 2.584.043 2.6a10.284 10.284 0 0 0-1.785 5.658v1.776c-.094.1-11.112 11.556-11.7 12.184-.563.6-.674 1.094-.373 1.651.287.531 2.1 3.359 2.116 3.388l5.144-1.488h4.772l.518 3.077-1.472 1.467v-.827c-.022.027-4.1 4.735-4.4 5.122A1.229 1.229 0 0 0 8 54.432l1.568 2.134.01.013 5.434-1.651 1.37-3.3.207.372h2.7l.124-.289.415-.083.415.083.124.289h2.7l.206-.369z" class="cls-4"/>
            </g>
        </g>
    </g>
</svg>
