<svg xmlns="http://www.w3.org/2000/svg" width="75.649" height="75.649" viewBox="0 0 75.649 75.649">
    <defs>
        <clipPath id="clip-path">
            <path id="Clip_12" d="M0 53.44h53.543V0H0z" class="cls-1"/>
        </clipPath>
        <style>
            .cls-1{fill:none}.cls-2{fill:#f2f2f2}.cls-3{fill:#455453}.cls-4{fill:#ea211c}.cls-6{fill:#75838e}
        </style>
    </defs>
    <g id="Planes_efroni" transform="translate(2.693 1.861)">
        <g id="icon_efroni" transform="rotate(-45 42.11 21.25)">
            <path id="Fill_1" d="M26.146 52.159h-.056l-8.587-.79a.635.635 0 0 1-.57-.638v-1.979c0-.328.055-1.981 1.13-2.3.575-.168 4.246-1.163 5.436-1.485l.758-3.366c-.13-1.077-1.052-8.858-1.052-12.513v-1.133h-3.861a.609.609 0 0 1-.086-.006L.588 25.281a.636.636 0 0 1-.539-.628L0 19.862v-.049a1.361 1.361 0 0 1 1.093-1.385c.485-.049 16.879-1.283 17.576-1.335H23.2V13.78a45.423 45.423 0 0 1 .419-5.851.628.628 0 0 1-.391-.313 7.954 7.954 0 0 0-.572-.9.653.653 0 0 1-.111-.559A2.267 2.267 0 0 1 24.173 4.6C25.088 0 25.747 0 26.145 0s1.055 0 1.973 4.6a2.267 2.267 0 0 1 1.623 1.555.653.653 0 0 1-.111.559 7.848 7.848 0 0 0-.572.9.627.627 0 0 1-.391.313 45.43 45.43 0 0 1 .419 5.851v3.311H33.62c.7.052 17.091 1.285 17.576 1.335a1.361 1.361 0 0 1 1.093 1.385v.049l-.048 4.791a.636.636 0 0 1-.539.628l-18.668 2.672a.612.612 0 0 1-.087.006h-3.86v1.138c0 3.655-.923 11.436-1.052 12.513l.759 3.366c1.19.322 4.861 1.317 5.436 1.485 1.075.314 1.129 1.967 1.129 2.3v1.976a.635.635 0 0 1-.57.638l-8.587.79z" class="cls-2" transform="translate(.626 .641)"/>
            <path id="Fill_3" d="M26.771 53.441c-.038 0-.075 0-.113-.005l-8.586-.791a1.265 1.265 0 0 1-1.14-1.277v-1.975a5.439 5.439 0 0 1 .114-1.039 2.2 2.2 0 0 1 1.47-1.873c.374-.109 2.132-.589 5.083-1.389l.649-2.88c-.174-1.452-1.048-8.879-1.048-12.479v-.5h-3.231a1.1 1.1 0 0 1-.172-.013L1.126 26.556A1.278 1.278 0 0 1 .048 25.3L0 20.509v-.1a2 2 0 0 1 1.655-1.98c.412-.042 11.724-.894 15.982-1.215l1.611-.121H23.2v-2.67a45.058 45.058 0 0 1 .369-5.512 1.31 1.31 0 0 1-.264-.345v-.008a7.245 7.245 0 0 0-.513-.807 1.31 1.31 0 0 1-.222-1.117 2.838 2.838 0 0 1 1.69-1.88c.217-1.035.439-1.911.66-2.6.257-.8.686-2.151 1.852-2.151s1.6 1.347 1.852 2.151c.221.7.449 1.6.66 2.6a2.878 2.878 0 0 1 1.689 1.878 1.314 1.314 0 0 1-.222 1.117 7.367 7.367 0 0 0-.516.814 1.363 1.363 0 0 1-.266.349 45 45 0 0 1 .369 5.509v2.67h3.954l1.607.121c4.263.321 15.575 1.173 15.987 1.215a2 2 0 0 1 1.655 1.98v.1l-.047 4.793a1.262 1.262 0 0 1-1.078 1.256l-18.669 2.668a1.111 1.111 0 0 1-.174.013h-3.235v.5c0 3.6-.869 11.027-1.043 12.479l.649 2.88c3.007.815 4.718 1.283 5.083 1.389a2.205 2.205 0 0 1 1.47 1.873 5.455 5.455 0 0 1 .113 1.039v1.975a1.264 1.264 0 0 1-1.139 1.277l-8.587.791c-.037-.002-.075.001-.113.001zm-7.43-35.068c-.171.013-17.086 1.285-17.56 1.334s-.53.783-.53.791l.049 4.79 18.669 2.667h4.487v1.778c0 3.808 1.051 12.46 1.061 12.547l-.868 3.853c-.032.009-5.116 1.383-5.789 1.581s-.675 1.665-.675 1.68v1.975l8.587.791 8.587-.791v-1.976c0-.015-.008-1.485-.677-1.68-.639-.188-5.257-1.438-5.782-1.579h-.006l-.867-3.852c.011-.087 1.061-8.741 1.061-12.547v-1.78h4.485l18.67-2.667.048-4.791c0-.007-.054-.742-.53-.791s-17.39-1.321-17.561-1.334h-5.113v-3.951a47.229 47.229 0 0 0-.609-7.11 2.237 2.237 0 0 1 .657.639.129.129 0 0 1 .016-.031 8.332 8.332 0 0 1 .612-.956 1.761 1.761 0 0 0-1.55-1.175c-.507-2.653-1.1-4.5-1.441-4.5s-.936 1.852-1.441 4.5a1.759 1.759 0 0 0-1.55 1.175 8.782 8.782 0 0 1 .627.987.032.032 0 0 1 .006-.011 2.191 2.191 0 0 1 .651-.627 47.105 47.105 0 0 0-.609 7.11v3.952z" class="cls-3"/>
            <path id="Fill_5" d="M1 3.908a2.114 2.114 0 0 1 1.216-1.922C3.483 1.41 0 0 0 0z" class="cls-4" transform="translate(26.788 10.029)"/>
            <path id="Fill_7" d="M1.492 3.908A2.114 2.114 0 0 0 .278 1.986C-.99 1.41 2.494 0 2.494 0z" class="cls-4" transform="translate(24.243 10.029)"/>
            <path id="Fill_9" d="M1.284 6.029c-.234 1.476-.424 3.1-.527 4.7h4.467c-.1-1.608-.293-3.227-.527-4.7a2.21 2.21 0 0 1 .658.639 8.518 8.518 0 0 1 .627-.988 1.754 1.754 0 0 0-1.55-1.175C3.931 1.879 3.336 0 2.991 0s-.94 1.879-1.441 4.506A1.753 1.753 0 0 0 0 5.68a8.539 8.539 0 0 1 .627.988 2.208 2.208 0 0 1 .657-.639" class="cls-4" transform="translate(23.78 1.281)"/>
            <path id="Clip_12-2" d="M0 53.44h53.543V0H0z" class="cls-1"/>
            <g id="icon_efroni-2" clip-path="url(#clip-path)">
                <path id="Fill_11" d="M0 .653h8.329V0H0z" class="cls-3" transform="translate(22.607 2.245)"/>
                <path id="Fill_13" d="M1.737 0A1.788 1.788 0 0 0 0 1.186a8.494 8.494 0 0 1 .627.988s.483-.741 1.013-.741A1.653 1.653 0 0 0 1.737 0" class="cls-6" transform="translate(23.78 5.776)"/>
                <path id="Fill_14" d="M.125 0a1.789 1.789 0 0 1 1.737 1.186 8.515 8.515 0 0 0-.627.988S.752 1.433.222 1.433A1.654 1.654 0 0 1 .125 0" class="cls-6" transform="translate(27.9 5.776)"/>
                <path id="Fill_15" d="M10.582 0C5.931.351.792.741.531.768.048.817 0 1.558 0 1.558l.048 4.791 10.534 1.505z" class="cls-4" transform="translate(1.251 18.938)"/>
                <path id="Fill_16" d="M9.955.76C9.695.734 4.625.349 0 0v7.833l10.437-1.491.048-4.791S10.437.81 9.955.76" class="cls-4" transform="translate(41.806 18.946)"/>
                <path id="Fill_17" d="M3.379 0C2.16.332.977.656.676.743 0 .941 0 2.423 0 2.423V4.4l3.379.311z" class="cls-4" transform="translate(18.184 46.97)"/>
                <path id="Fill_18" d="M2.607.717C2.314.632 1.185.322 0 0v4.675l3.283-.3V2.4s0-1.482-.676-1.679" class="cls-4" transform="translate(32.075 46.996)"/>
                <path id="Fill_19" d="M0 0q.046.622.1 1.26h4.084q.054-.638.1-1.26z" class="cls-2" transform="translate(24.63 33.414)"/>
                <path id="Fill_20" d="M.25 0h1.622l.25 11.891H0z" class="cls-4" transform="translate(25.71 3.049)"/>
                <path id="Fill_21" d="M3.869 3.883a3.064 3.064 0 0 0-3.482-.059L0 4.077V3.072C0 1 .7 0 2.131 0s2.132 1 2.132 3.072v1.089z" class="cls-3" transform="translate(24.64 14.016)"/>
                <path id="Fill_22" d="M4.759 4.905l-.779-.553a2.822 2.822 0 0 0-3.208-.057L0 4.8v-.936-.538C0 1.12.8 0 2.382 0s2.382 1.12 2.382 3.328V4.9zM2.334 3.31a3.31 3.31 0 0 1 1.928.619v-.36-.241c0-1.921-.6-2.816-1.882-2.816S.5 1.407.5 3.328v.536a3.314 3.314 0 0 1 1.834-.554z" class="cls-2" transform="translate(24.389 13.76)"/>
                <path id="Fill_23" d="M3.726 5.49c.014-1.843.026-3.616.031-4.791A3 3 0 0 0 0 .626c.005 1.188.018 3.026.032 4.933a3.2 3.2 0 0 0 1.8.53 3.184 3.184 0 0 0 1.9-.6" class="cls-3" transform="translate(24.893 17.402)"/>
                <path id="Fill_24" d="M1.8.526A3.56 3.56 0 0 1 0 .056c.027 3.561.058 7.22.058 7.22a5.887 5.887 0 0 0 1.785.346 5.887 5.887 0 0 0 1.785-.346S3.66 3.579 3.687 0A3.548 3.548 0 0 1 1.8.526" class="cls-3" transform="translate(24.928 23.298)"/>
                <path id="Fill_25" d="M26.771 53.441c-.038 0-.075 0-.113-.005l-8.586-.791a1.265 1.265 0 0 1-1.14-1.277v-1.975a5.439 5.439 0 0 1 .114-1.039 2.2 2.2 0 0 1 1.47-1.873c.374-.109 2.132-.589 5.083-1.389l.649-2.88c-.174-1.452-1.048-8.879-1.048-12.479v-.5h-3.231a1.1 1.1 0 0 1-.172-.013L1.126 26.556A1.278 1.278 0 0 1 .048 25.3L0 20.509v-.1a2 2 0 0 1 1.655-1.98c.412-.042 11.724-.894 15.982-1.215l1.611-.121H23.2v-2.67a45.058 45.058 0 0 1 .369-5.512 1.31 1.31 0 0 1-.264-.345v-.008a7.245 7.245 0 0 0-.513-.807 1.31 1.31 0 0 1-.222-1.117 2.838 2.838 0 0 1 1.69-1.88c.217-1.035.439-1.911.66-2.6.257-.8.686-2.151 1.852-2.151s1.6 1.347 1.852 2.151c.221.7.449 1.6.66 2.6a2.878 2.878 0 0 1 1.689 1.878 1.314 1.314 0 0 1-.222 1.117 7.367 7.367 0 0 0-.516.814 1.363 1.363 0 0 1-.266.349 45 45 0 0 1 .369 5.509v2.67h3.954l1.607.121c4.263.321 15.575 1.173 15.987 1.215a2 2 0 0 1 1.655 1.98v.1l-.047 4.793a1.262 1.262 0 0 1-1.078 1.256l-18.669 2.668a1.111 1.111 0 0 1-.174.013h-3.235v.5c0 3.6-.869 11.027-1.043 12.479l.649 2.88c3.007.815 4.718 1.283 5.083 1.389a2.205 2.205 0 0 1 1.47 1.873 5.455 5.455 0 0 1 .113 1.039v1.975a1.264 1.264 0 0 1-1.139 1.277l-8.587.791c-.037-.002-.075.001-.113.001zm-7.43-35.068c-.171.013-17.086 1.285-17.56 1.334s-.53.783-.53.791l.049 4.79 18.669 2.667h4.487v1.778c0 3.808 1.051 12.46 1.061 12.547l-.868 3.853c-.032.009-5.116 1.383-5.789 1.581s-.675 1.665-.675 1.68v1.975l8.587.791 8.587-.791v-1.976c0-.015-.008-1.485-.677-1.68-.639-.188-5.257-1.438-5.782-1.579h-.006l-.867-3.852c.011-.087 1.061-8.741 1.061-12.547v-1.78h4.485l18.67-2.667.048-4.791c0-.007-.054-.742-.53-.791s-17.39-1.321-17.561-1.334h-5.113v-3.951a47.229 47.229 0 0 0-.609-7.11 2.237 2.237 0 0 1 .657.639.129.129 0 0 1 .016-.031 8.332 8.332 0 0 1 .612-.956 1.761 1.761 0 0 0-1.55-1.175c-.507-2.653-1.1-4.5-1.441-4.5s-.936 1.852-1.441 4.5a1.759 1.759 0 0 0-1.55 1.175 8.782 8.782 0 0 1 .627.987.032.032 0 0 1 .006-.011 2.191 2.191 0 0 1 .651-.627 47.105 47.105 0 0 0-.609 7.11v3.952z" class="cls-3"/>
                <path id="Fill_26" d="M0 0v8.813L2.749 8.8V.007z" class="cls-2" transform="translate(29.087 18.372)"/>
                <path id="Fill_27" d="M0 0v8.813L2.749 8.8V.007z" class="cls-2" transform="translate(21.707 18.372)"/>
                <path id="Fill_28" d="M1.622 1.768C1.311.672 1.016 0 .811 0 .605 0 .311.672 0 1.768z" class="cls-6" transform="translate(25.96 1.281)"/>
            </g>
        </g>
    </g>
</svg>
