<svg xmlns="http://www.w3.org/2000/svg" width="72.78" height="72.215" viewBox="0 0 72.78 72.215">
    <defs>
        <style>
            .cls-2{fill:#596b6a}
        </style>
    </defs>
    <g id="Planes_adir" transform="translate(.78 .215)">
        <g id="icon_adir" transform="rotate(-45 31.854 14.298)">
            <path id="Fill_1" fill="#cae0e0" d="M21.84 57.078a.6.6 0 0 1-.344-.109.626.626 0 0 1-.259-.425l-.694-4.832-.375.71a.608.608 0 0 1-.537.327h-2.4a.608.608 0 0 1-.537-.327l-.375-.709-.694 4.831a.626.626 0 0 1-.259.425.6.6 0 0 1-.344.109.59.59 0 0 1-.137-.016L5.277 54.8a.622.622 0 0 1-.474-.609v-2.853a.63.63 0 0 1 .258-.51l4.161-3.01v-.365a.637.637 0 0 1 .072-.3l1.022-1.948L.463 42.7A.622.622 0 0 1 0 42.09v-6.984a.629.629 0 0 1 .27-.518l10.31-7.1.866-1.477.854-10.534a.638.638 0 0 1 .064-.231L14 11.95a.61.61 0 0 1 .5-.34h.044a.607.607 0 0 1 .5.264l.178.258c.125-1.591.314-3.855.447-4.9A27.042 27.042 0 0 1 17.883.348a.6.6 0 0 1 1.095 0A27.049 27.049 0 0 1 21.2 7.233c.134 1.043.322 3.307.447 4.9l.178-.258a.607.607 0 0 1 .5-.264h.044a.61.61 0 0 1 .5.34l1.633 3.3a.638.638 0 0 1 .064.231l.853 10.529.866 1.478 10.31 7.1a.629.629 0 0 1 .27.518v6.983a.622.622 0 0 1-.463.606l-9.854 2.511 1.022 1.948a.634.634 0 0 1 .073.3v.365l4.161 3.01a.63.63 0 0 1 .258.51v2.853a.622.622 0 0 1-.474.609l-9.606 2.263a.59.59 0 0 1-.137.016" transform="translate(.61 .625)"/>
            <path id="Fill_3" d="M22.451 58.328a1.194 1.194 0 0 1-.688-.218 1.258 1.258 0 0 1-.52-.85l-.485-3.379a1.205 1.205 0 0 1-.517.118h-2.4a1.221 1.221 0 0 1-.517-.117l-.485 3.377a1.258 1.258 0 0 1-.52.85 1.194 1.194 0 0 1-.688.218 1.23 1.23 0 0 1-.273-.031L5.75 56.034a1.239 1.239 0 0 1-.95-1.218v-2.853a1.262 1.262 0 0 1 .517-1.021l3.9-2.824v-.041a1.269 1.269 0 0 1 .145-.591l.651-1.24-9.088-2.318A1.243 1.243 0 0 1 0 42.715v-6.984a1.256 1.256 0 0 1 .539-1.037l10.2-7.027.723-1.232.838-10.384a1.265 1.265 0 0 1 .128-.463l1.633-3.3a1.222 1.222 0 0 1 1-.68h.089a1.244 1.244 0 0 1 .156.01c.154-1.875.277-3.168.363-3.841A27.528 27.528 0 0 1 17.946.7a1.208 1.208 0 0 1 2.189 0 27.532 27.532 0 0 1 2.277 7.08c.088.684.21 1.977.363 3.841a1.249 1.249 0 0 1 .156-.01h.089a1.222 1.222 0 0 1 1 .68l1.633 3.3a1.241 1.241 0 0 1 .128.463l.841 10.384.723 1.232 10.2 7.027a1.256 1.256 0 0 1 .539 1.037v6.984a1.242 1.242 0 0 1-.925 1.213l-9.091 2.317.649 1.24a1.269 1.269 0 0 1 .145.591v.041l3.9 2.824a1.262 1.262 0 0 1 .516 1.021v2.852a1.239 1.239 0 0 1-.947 1.218L22.724 58.3a1.23 1.23 0 0 1-.273.028zm-.962-7.935l.962 6.686 9.606-2.263v-2.853l-4.418-3.2v-.689l-1.393-2.656 10.614-2.703v-6.984L26.437 28.55l-1.008-1.722-.864-10.674-1.635-3.295-1.152 1.672c0-.026-.365-4.948-.577-6.591a26.906 26.906 0 0 0-2.16-6.69 26.62 26.62 0 0 0-2.162 6.69c-.211 1.645-.573 6.542-.577 6.591l-1.151-1.67-1.634 3.292-.866 10.674-1.008 1.723-10.422 7.181v6.984l10.614 2.706-1.393 2.656v.689l-4.418 3.2v2.852l9.606 2.263.96-6.69 1.249 2.361h2.4z" class="cls-2"/>
            <path id="Fill_5" d="M0 0l1.249 2.361h2.4L4.9 0z" class="cls-2" transform="translate(16.591 50.389)"/>
            <path id="Fill_7" fill="#a8c1c0" d="M1.674 0A31.464 31.464 0 0 0 0 4.422l1.1.989.576-.443.576.443 1.1-.989A31.482 31.482 0 0 0 1.674 0" transform="translate(17.367 1.25)"/>
            <path id="Fill_9" d="M1.91 3.4a3.136 3.136 0 0 1 1.91.592 8.351 8.351 0 0 0-1-3.25L1.91 0 1 .738a8.351 8.351 0 0 0-1 3.25A3.136 3.136 0 0 1 1.91 3.4" class="cls-2" transform="translate(17.131 7.915)"/>
            <path id="Fill_11" d="M1.992 0A2.841 2.841 0 0 0 .061.662C-.067 2.639.047 6.17.047 6.17L1.992 7.7l1.945-1.53s.115-3.531-.014-5.508A2.841 2.841 0 0 0 1.992 0" class="cls-2" transform="translate(17.048 11.508)"/>
            <path id="Fill_13" d="M22.451 58.328a1.194 1.194 0 0 1-.688-.218 1.258 1.258 0 0 1-.52-.85l-.485-3.379a1.205 1.205 0 0 1-.517.118h-2.4a1.221 1.221 0 0 1-.517-.117l-.485 3.377a1.258 1.258 0 0 1-.52.85 1.194 1.194 0 0 1-.688.218 1.23 1.23 0 0 1-.273-.031L5.75 56.034a1.239 1.239 0 0 1-.95-1.218v-2.853a1.262 1.262 0 0 1 .517-1.021l3.9-2.824v-.041a1.269 1.269 0 0 1 .145-.591l.651-1.24-9.088-2.318A1.243 1.243 0 0 1 0 42.715v-6.984a1.256 1.256 0 0 1 .539-1.037l10.2-7.027.723-1.232.838-10.384a1.265 1.265 0 0 1 .128-.463l1.633-3.3a1.222 1.222 0 0 1 1-.68h.089a1.244 1.244 0 0 1 .156.01c.154-1.875.277-3.168.363-3.841A27.528 27.528 0 0 1 17.946.7a1.208 1.208 0 0 1 2.189 0 27.532 27.532 0 0 1 2.277 7.08c.088.684.21 1.977.363 3.841a1.249 1.249 0 0 1 .156-.01h.089a1.222 1.222 0 0 1 1 .68l1.633 3.3a1.241 1.241 0 0 1 .128.463l.841 10.384.723 1.232 10.2 7.027a1.256 1.256 0 0 1 .539 1.037v6.984a1.242 1.242 0 0 1-.925 1.213l-9.091 2.317.649 1.24a1.269 1.269 0 0 1 .145.591v.041l3.9 2.824a1.262 1.262 0 0 1 .516 1.021v2.852a1.239 1.239 0 0 1-.947 1.218L22.724 58.3a1.23 1.23 0 0 1-.273.028zm-.962-7.935l.962 6.686 9.606-2.263v-2.853l-4.418-3.2v-.689l-1.393-2.656 10.614-2.703v-6.984L26.437 28.55l-1.008-1.722-.864-10.674-1.635-3.295-1.152 1.672c0-.026-.365-4.948-.577-6.591a26.906 26.906 0 0 0-2.16-6.69 26.62 26.62 0 0 0-2.162 6.69c-.211 1.645-.573 6.542-.577 6.591l-1.151-1.67-1.634 3.292-.866 10.674-1.008 1.723-10.422 7.181v6.984l10.614 2.706-1.393 2.656v.689l-4.418 3.2v2.852l9.606 2.263.96-6.69 1.249 2.361h2.4z" class="cls-2"/>
        </g>
    </g>
</svg>
