<svg xmlns="http://www.w3.org/2000/svg" width="74.859" height="73.276" viewBox="0 0 74.859 73.276">
    <defs>
        <clipPath id="clip-path">
            <path id="Clip_4" d="M0 58.881h39.027V0H0v58.881z" class="cls-1"/>
        </clipPath>
        <clipPath id="clip-path-3">
            <path id="Clip_36" d="M0 58.881h39.078V0H0z" class="cls-1"/>
        </clipPath>
        <style>
            .cls-1{fill:none}.cls-2{fill:#ede2b2}.cls-3{clip-path:url(#clip-path)}.cls-4{fill:#596b6a}.cls-5{fill:#dbcf9e}.cls-8{fill:#bfb073}
        </style>
    </defs>
    <g id="Planes_sufa" transform="translate(2.859 1.276)">
        <g id="icon_sufa" transform="rotate(-45 30.385 16.63)">
            <path id="Fill_1" d="M18.655 57.619a.636.636 0 0 1-.641-.631v-.743h-.73a.638.638 0 0 1-.634-.542l-.1-.706a.65.65 0 0 1-.1.008h-1v.581a.636.636 0 0 1-.641.631H8.743a.645.645 0 0 1-.393-.133l-1.007-.771a.628.628 0 0 1-.247-.5V52.3a.626.626 0 0 1 .212-.469l6.763-5.992-.048-3.67H.641A.636.636 0 0 1 0 41.538v-4.6a.628.628 0 0 1 .233-.487L12.727 26.31v-.336a26.351 26.351 0 0 1 1.208-4.856c.181-.6.338-1.122.405-1.385.361-1.421.566-2.351.629-2.845.03-.237.1-1.013.173-1.835.169-1.885.295-3.243.368-3.568a13.229 13.229 0 0 1 .438-1.367 34.5 34.5 0 0 1 .539-4.6A26.131 26.131 0 0 1 18.294.361a.645.645 0 0 1 1.158 0 26.131 26.131 0 0 1 1.806 5.159 34.537 34.537 0 0 1 .539 4.6 13.229 13.229 0 0 1 .438 1.367c.073.324.2 1.682.368 3.564.074.823.144 1.6.174 1.838.063.494.269 1.424.629 2.845.067.263.223.783.4 1.385a26.351 26.351 0 0 1 1.208 4.856v.336l12.499 10.14a.628.628 0 0 1 .233.487v4.6a.636.636 0 0 1-.641.631H23.724l-.048 3.67 6.762 5.992a.627.627 0 0 1 .212.469v2.516a.628.628 0 0 1-.247.5l-1.007.771a.646.646 0 0 1-.393.133h-6.06a.636.636 0 0 1-.641-.631v-.581h-1A.656.656 0 0 1 21.2 55l-.1.706a.638.638 0 0 1-.634.542h-.73v.743a.636.636 0 0 1-.641.631z" class="cls-2" transform="translate(.666 .631)"/>
            <g id="Group_5" transform="translate(.025)">
                <path id="Clip_4-2" d="M0 58.881h39.027V0H0v58.881z" class="cls-1"/>
                <g id="Group_5-2" class="cls-3">
                    <path id="Fill_3" d="M19.732 58.881h-.437a1.273 1.273 0 0 1-1.28-1.262v-.111h-.089a1.275 1.275 0 0 1-1.244-.959 1.281 1.281 0 0 1-1.236.931H9.384a1.3 1.3 0 0 1-.787-.266l-1.008-.771a1.263 1.263 0 0 1-.494-1V52.93a1.253 1.253 0 0 1 .424-.937l6.547-5.8-.036-2.763H1.282A1.273 1.273 0 0 1 0 42.169v-4.6a1.25 1.25 0 0 1 .467-.969l12.26-9.952v-.038a25.392 25.392 0 0 1 1.236-5.036c.179-.594.333-1.107.4-1.358.351-1.379.558-2.311.616-2.771.025-.2.081-.818.146-1.534l.025-.281c.206-2.3.3-3.312.381-3.646a13.1 13.1 0 0 1 .428-1.358 35.327 35.327 0 0 1 .546-4.6A26.271 26.271 0 0 1 18.362.707v-.01A1.278 1.278 0 0 1 19.514 0h.014a1.292 1.292 0 0 1 1.144.722l.007.015a26.891 26.891 0 0 1 1.846 5.288 34.475 34.475 0 0 1 .546 4.6 12.888 12.888 0 0 1 .429 1.355c.075.335.174 1.349.38 3.646.071.782.144 1.586.172 1.816.058.456.264 1.388.614 2.77.058.228.194.68.351 1.2l.047.155a25.55 25.55 0 0 1 1.236 5.039v.038L38.561 36.6a1.249 1.249 0 0 1 .465.973v4.6a1.272 1.272 0 0 1-1.28 1.261H25l-.035 2.762 6.546 5.8a1.25 1.25 0 0 1 .425.937v2.517a1.261 1.261 0 0 1-.5 1l-1.007.771a1.3 1.3 0 0 1-.787.266h-6.06a1.28 1.28 0 0 1-1.236-.931 1.275 1.275 0 0 1-1.243.959h-.089v.111a1.274 1.274 0 0 1-1.282 1.255zm-2.644-8.4l.837 5.766h1.37v1.374h.437v-1.376H21.1l.839-5.785v4.546h1.623l.018-1.427v2.639h6.061l1.007-.771V52.93l-6.979-6.183.061-4.577h14.016v-4.6L25.018 27.238v-.632a29.4 29.4 0 0 0-1.18-4.669c-.185-.612-.344-1.141-.414-1.42-.235-.926-.557-2.237-.643-2.92-.032-.25-.1-1-.178-1.871-.127-1.413-.285-3.165-.354-3.473a14.117 14.117 0 0 0-.448-1.378 35.215 35.215 0 0 0-.531-4.6 25.633 25.633 0 0 0-1.753-5.006v-.007a25.831 25.831 0 0 0-1.757 5.013 34.838 34.838 0 0 0-.531 4.6 13.813 13.813 0 0 0-.447 1.378c-.071.312-.231 2.094-.359 3.525-.076.845-.141 1.574-.172 1.818a29.7 29.7 0 0 1-.644 2.92c-.07.278-.23.807-.414 1.42a29.4 29.4 0 0 0-1.18 4.669v.632L1.282 37.568v4.6H15.3l.06 4.577-6.984 6.185v2.517l1.008.771h6.06v-2.639l.018 1.427h1.623V50.48z" class="cls-4"/>
                </g>
            </g>
            <path id="Fill_6" d="M23.737 7.349v-.634c0-1.047-1.343-5.1-1.594-6.088-.051-.2-.1-.412-.157-.628-1.106 1.375-2.322 2.678-3.061 2.831a35.568 35.568 0 0 1-5.211-.145 23.546 23.546 0 0 0-.988 4.029v.634L0 17.679v4.6h4.1a7.219 7.219 0 0 1 2.181-2.793c2.477-1.85 5.808-.252 8.285-.252s7.858-3.281 11.275-6.393a10.757 10.757 0 0 0 1.829-2.3z" class="cls-5" transform="translate(1.306 19.89)"/>
            <path id="Fill_8" fill="#c8eab2" d="M5.852 2.972L2.19 0a3.529 3.529 0 0 0-.552.574A9.347 9.347 0 0 0 .015 6.041c.033.292.155.9.292 1.531h5.545z" transform="translate(31.919 34.596)"/>
            <path id="Fill_10" d="M11.355 12.718h1.371l.839-5.785v4.545h1.622l.018-1.426v2.638h6.06l1.007-.771V9.4L15.3 3.22 15.337 0a5.954 5.954 0 0 0-1.628.222C11.83.811 10.121 3.25 8.071 3.671c-.627.129-1.3.265-2.051.4L0 9.4v2.516l1.007.771h6.06v-2.635l.019 1.426h1.623V6.933l.839 5.785h1.371v1.374h.437z" class="cls-5" transform="translate(8.402 43.528)"/>
            <path id="Fill_12" fill="#cae0e0" d="M3.78 5.014A25.678 25.678 0 0 0 2.023 0 25.651 25.651 0 0 0 .266 5.014C.158 5.539.071 6.1 0 6.64h4.046c-.071-.541-.158-1.1-.266-1.625" transform="translate(17.516 1.262)"/>
            <path id="Fill_14" d="M2.646 5.785h1.371L4.856 0H0l.839 5.785H2.21" class="cls-4" transform="translate(17.111 50.461)"/>
            <path id="Fill_16" d="M1.292 32.51v-4.486H.871V19.93a19 19 0 0 1-.813-3.949C.058 14.729 0 2.662 0 2.54V0h3.534v2.539c0 .123-.058 12.191-.058 13.443a19 19 0 0 1-.813 3.949v8.094h-.422v4.485z" class="cls-8" transform="translate(17.772 25.361)"/>
            <path id="Fill_18" d="M2.754 33.014H1.292v-4.485h-.42v-8.31a19.158 19.158 0 0 1-.814-3.985C.058 14.915 0 2.848 0 2.792V0h4.046v2.793c0 .029 0 .723-.008 1.784V4.6c-.016 3.466-.05 10.679-.05 11.634a18.955 18.955 0 0 1-.813 3.985v8.31h-.421v4.484zM.512.5v2.292c0 .12.058 12.2.058 13.442a19.657 19.657 0 0 0 .814 3.911v7.878h.421v4.487h.437v-4.487h.42v-7.878a19.615 19.615 0 0 0 .814-3.911c0-1.243.058-13.322.058-13.442V.5H.512z" class="cls-2" transform="translate(17.516 25.109)"/>
            <path id="Fill_20" d="M3.021 7.256v-3.4A13.2 13.2 0 0 0 2.182 0H.839A13.2 13.2 0 0 0 0 3.856v3.4z" class="cls-4" transform="translate(18.028 10.766)"/>
            <path id="Fill_22" d="M0 0v7.339a1.553 1.553 0 0 0 1.511.854 1.554 1.554 0 0 0 1.511-.854V0z" class="cls-4" transform="translate(18.028 18.275)"/>
            <path id="Fill_24" d="M.565 21.185a13.611 13.611 0 0 1-.323-2.039C.183 17.727.014 1.333.012 1.168L0 0l.5 1.059c.1.2 2.35 4.988 2.546 7.04.117 1.22.158 6.412.194 10.992l.018 2.2-2.65.1z" class="cls-8" transform="translate(21.693 19.836)"/>
            <path id="Fill_26" d="M.671 22.82l-.089-.42a13.863 13.863 0 0 1-.328-2.081C.194 18.857.026 2.5.025 2.335L0 0l1 2.118c.024.05 2.367 5.006 2.57 7.124.118 1.234.159 6.429.2 11.012l.016 1.953v.49l-.5.019L1.1 22.8l-.432.017zM.537 2.331C.538 2.5.709 18.9.766 20.3a13.355 13.355 0 0 0 .318 2l2.185-.086-.016-2.027c-.036-4.545-.077-9.693-.192-10.9-.193-2-2.479-6.861-2.524-6.956z" class="cls-2" transform="translate(21.425 18.67)"/>
            <path id="Fill_28" d="M0 21.289L.018 19.1c.036-4.584.082-9.78.194-11 .2-2.052 2.45-6.838 2.546-7.04L3.259 0l-.012 1.168c0 .166-.171 16.559-.229 17.978a13.611 13.611 0 0 1-.323 2.039l-.045.209z" class="cls-8" transform="translate(14.125 19.836)"/>
            <path id="Fill_30" d="M3.114 22.82l-.433-.02L.5 22.716 0 22.7v-.49l.019-1.96c.036-4.583.077-9.775.2-11.008.193-2.012 2.322-6.6 2.564-7.114v-.01L3.786 0l-.025 2.335c0 .162-.169 16.522-.229 17.986A13.863 13.863 0 0 1 3.2 22.4l-.089.416zm.135-20.49C3.226 2.379.918 7.277.726 9.288.608 10.511.567 15.763.531 20.4c0 .622-.01 1.231-.014 1.814L2.7 22.3a13.347 13.347 0 0 0 .318-2c.059-1.4.229-17.8.231-17.97z" class="cls-2" transform="translate(13.867 18.67)"/>
            <g id="Group_34" transform="translate(.025)">
                <path id="Clip_33-2" d="M0 58.881h39.027V0H0v58.881z" class="cls-1"/>
                <g id="Group_34-2" class="cls-3">
                    <path id="Fill_32" d="M19.732 58.881h-.437a1.273 1.273 0 0 1-1.28-1.262v-.111h-.089a1.275 1.275 0 0 1-1.244-.959 1.281 1.281 0 0 1-1.236.931H9.384a1.3 1.3 0 0 1-.787-.266l-1.008-.771a1.263 1.263 0 0 1-.494-1V52.93a1.253 1.253 0 0 1 .424-.937l6.547-5.8-.036-2.763H1.282A1.273 1.273 0 0 1 0 42.169v-4.6a1.25 1.25 0 0 1 .467-.969l12.26-9.952v-.038a25.392 25.392 0 0 1 1.236-5.036c.179-.594.333-1.107.4-1.358.351-1.379.558-2.311.616-2.771.025-.2.081-.818.146-1.534l.025-.281c.206-2.3.3-3.312.381-3.646a13.1 13.1 0 0 1 .428-1.358 35.327 35.327 0 0 1 .546-4.6A26.271 26.271 0 0 1 18.362.707v-.01A1.278 1.278 0 0 1 19.514 0h.014a1.292 1.292 0 0 1 1.144.722l.007.015a26.891 26.891 0 0 1 1.846 5.288 34.475 34.475 0 0 1 .546 4.6 12.888 12.888 0 0 1 .429 1.355c.075.335.174 1.349.38 3.646.071.782.144 1.586.172 1.816.058.456.264 1.388.614 2.77.058.228.194.68.351 1.2l.047.155a25.55 25.55 0 0 1 1.236 5.039v.038L38.561 36.6a1.249 1.249 0 0 1 .465.973v4.6a1.272 1.272 0 0 1-1.28 1.261H25l-.035 2.762 6.546 5.8a1.25 1.25 0 0 1 .425.937v2.517a1.261 1.261 0 0 1-.5 1l-1.007.771a1.3 1.3 0 0 1-.787.266h-6.06a1.28 1.28 0 0 1-1.236-.931 1.275 1.275 0 0 1-1.243.959h-.089v.111a1.274 1.274 0 0 1-1.282 1.255zm-2.644-8.4l.837 5.766h1.37v1.374h.437v-1.376H21.1l.839-5.785v4.546h1.623l.018-1.427v2.639h6.061l1.007-.771V52.93l-6.979-6.183.061-4.577h14.016v-4.6L25.018 27.238v-.632a29.4 29.4 0 0 0-1.18-4.669c-.185-.612-.344-1.141-.414-1.42-.235-.926-.557-2.237-.643-2.92-.032-.25-.1-1-.178-1.871-.127-1.413-.285-3.165-.354-3.473a14.117 14.117 0 0 0-.448-1.378 35.215 35.215 0 0 0-.531-4.6 25.633 25.633 0 0 0-1.753-5.006v-.007a25.831 25.831 0 0 0-1.757 5.013 34.838 34.838 0 0 0-.531 4.6 13.813 13.813 0 0 0-.447 1.378c-.071.312-.231 2.094-.359 3.525-.076.845-.141 1.574-.172 1.818a29.7 29.7 0 0 1-.644 2.92c-.07.278-.23.807-.414 1.42a29.4 29.4 0 0 0-1.18 4.669v.632L1.282 37.568v4.6H15.3l.06 4.577-6.984 6.185v2.517l1.008.771h6.06v-2.639l.018 1.427h1.623V50.48z" class="cls-4"/>
                </g>
            </g>
            <path id="Clip_36-2" d="M0 58.881h39.078V0H0z" class="cls-1"/>
            <g id="Mask_Group_18" clip-path="url(#clip-path-3)">
                <path id="Fill_35" d="M0 11.482h.641V0H0z" class="cls-4" transform="translate(0 32.576)"/>
                <path id="Fill_37" d="M0 11.482h.641V0H0z" class="cls-4" transform="translate(38.437 32.576)"/>
                <path id="Stroke_38" fill="none" stroke="#ede2b2" stroke-miterlimit="10" stroke-width="2px" d="M0 0a1.817 1.817 0 0 0 1.767 1 1.817 1.817 0 0 0 1.767-1" transform="translate(17.772 25.541)"/>
            </g>
        </g>
    </g>
</svg>
