<svg xmlns="http://www.w3.org/2000/svg" width="80.932" height="80.932" viewBox="0 0 80.932 80.932">
    <defs>
        <clipPath id="clip-path">
            <path id="Clip_12" d="M0 63.1h51.358V0H0z" class="cls-1"/>
        </clipPath>
        <style>
            .cls-1,.cls-6{fill:none}.cls-3{fill:#596b6a}.cls-4{fill:#dbcf9e}.cls-6{stroke:#596b6a;stroke-width:.857px;stroke-miterlimit:10}
        </style>
    </defs>
    <g id="Planes_peten" transform="translate(4.729 4.389)">
        <g id="icon_peten" transform="rotate(-45 36.175 21.672)">
            <path id="Fill_1" fill="#ede2b2" d="M8.983 52.619a.56.56 0 0 1-.559-.564v-.352l-4.747-.595a.56.56 0 0 1-.469-.4 10.27 10.27 0 0 1-.382-2.072 1.615 1.615 0 0 1 .652-1.342.558.558 0 0 1 .271-.091l4.1-.265L6.843 27.9l-2.282-.779a.559.559 0 0 1-.354-.367 4.8 4.8 0 0 1-.185-1.249c0-.259-.023-4.192-.027-4.823l-3.488-.323A.56.56 0 0 1 0 19.8l.02-3.3a.574.574 0 0 1 .011-.109v-1.339a.778.778 0 1 1 1.556 0v.832l.922-.051v-.781a.778.778 0 1 1 1.557 0v.694l.938-.052.044-7.15.214-2.312a6.6 6.6 0 0 1 .1-.99A3.012 3.012 0 0 1 6.8 2.993a1.682 1.682 0 0 1 .634-.911l1-1.515v-.01A.56.56 0 0 1 8.992 0h.42a.56.56 0 0 1 .559.557v.01l1 1.515a1.681 1.681 0 0 1 .634.912 3.009 3.009 0 0 1 1.441 2.247 7.072 7.072 0 0 1 .1 1.038l.209 2.216.046 7.2.938.052v-.694a.778.778 0 1 1 1.557 0v.781l.922.051v-.832a.779.779 0 1 1 1.557 0v1.34a.591.591 0 0 1 .011.106l.02 3.3a.56.56 0 0 1-.508.561l-3.487.326c0 .631-.027 4.565-.027 4.823a4.8 4.8 0 0 1-.185 1.249.559.559 0 0 1-.355.367l-2.282.779-1.01 19.031 4.1.265a.559.559 0 0 1 .271.091 1.615 1.615 0 0 1 .652 1.342 10.27 10.27 0 0 1-.382 2.072.56.56 0 0 1-.469.4l-4.746.595v.352a.559.559 0 0 1-.559.564z" transform="translate(17.041 8.821)"/>
            <path id="Fill_3" d="M9.981 53.74h-.44a1.115 1.115 0 0 1-.793-.33 1.136 1.136 0 0 1-.316-.649l-4.263-.535a1.116 1.116 0 0 1-.938-.809 10.4 10.4 0 0 1-.4-2.227 2.2 2.2 0 0 1 .9-1.807 1.116 1.116 0 0 1 .542-.183l3.55-.229-.96-18.1-1.923-.656a1.125 1.125 0 0 1-.709-.734 5.392 5.392 0 0 1-.21-1.413c0-.211 0-.99-.009-1.814v-.642c0-.638-.008-1.3-.01-1.857l-2.983-.277A1.114 1.114 0 0 1 0 20.355l.021-3.3a1.142 1.142 0 0 1 .01-.15v-1.292a1.337 1.337 0 0 1 2.578-.5 1.335 1.335 0 0 1 2.4-.154l.04-5.859c0-.032 0-.065.005-.1l.207-2.223a7.822 7.822 0 0 1 .109-1.074A3.692 3.692 0 0 1 6.9 3.166a2.236 2.236 0 0 1 .684-.915L8.449.937A1.115 1.115 0 0 1 9.552 0h.42a1.115 1.115 0 0 1 1.1.937l.863 1.314a2.234 2.234 0 0 1 .683.915 3.693 3.693 0 0 1 1.531 2.54 7.7 7.7 0 0 1 .11 1.074L14.467 9a.813.813 0 0 1 .005.1l.036 5.854a1.336 1.336 0 0 1 2.405.154 1.337 1.337 0 0 1 2.576.5V16.9a1.168 1.168 0 0 1 .012.152l.021 3.3a1.116 1.116 0 0 1-1.015 1.124l-2.983.277v.81c0 .342 0 .7-.006 1.047-.009 1.3-.014 2.223-.014 2.456a5.412 5.412 0 0 1-.209 1.413 1.124 1.124 0 0 1-.709.734l-1.925.657-.96 18.1 3.55.229a1.117 1.117 0 0 1 .543.183 2.193 2.193 0 0 1 .9 1.807 10.532 10.532 0 0 1-.4 2.227 1.116 1.116 0 0 1-.937.809l-4.264.535a1.13 1.13 0 0 1-.316.649 1.111 1.111 0 0 1-.796.331zm-.868-2.707h.438l-.01 1.584h.439l-.009-1.584h.438v.682l4.8-.6a10.375 10.375 0 0 0 .36-1.915 1.069 1.069 0 0 0-.4-.877l-4.654-.3 1.06-19.964 2.64-.9a4.253 4.253 0 0 0 .161-1.085c0-.255.006-1.3.013-2.4v-.007c.007-1.125.014-2.335.016-2.924l3.993-.373-.021-3.3h-.011v-1.457a.22.22 0 1 0-.439 0v1.424l-2.04-.114v-1.31a.22.22 0 1 0-.439 0V16.9l-2.048-.116-.047-7.678-.211-2.264a6.429 6.429 0 0 0-.095-.945c-.253-1.466-1.158-1.927-1.392-1.927a1.1 1.1 0 0 0-.534-.921L9.971 1.3v-.179h-.42V1.3L8.4 3.049a1.1 1.1 0 0 0-.533.921c-.236 0-1.142.463-1.394 1.927a6.512 6.512 0 0 0-.093.945l-.212 2.265-.047 7.678-2.054.115v-1.287a.219.219 0 1 0-.438 0v1.31l-2.041.114v-1.424a.219.219 0 1 0-.438 0v1.448h-.012l-.019 3.3 3.993.373c0 .585.009 1.764.016 2.9v.027c.007 1.1.013 2.148.013 2.4a4.29 4.29 0 0 0 .159 1.093l2.639.9L9 48.018l-4.653.3a1.074 1.074 0 0 0-.4.877 10.219 10.219 0 0 0 .362 1.915l4.8.6v-.68z" class="cls-3" transform="translate(16.482 8.26)"/>
            <path id="Fill_5" d="M12.284 12.147l-.047-7.677-.211-2.264a6.36 6.36 0 0 0-.093-.946A3.039 3.039 0 0 0 11.434 0c-1.034 1.348-2.25 2.736-2.96 2.886A18.355 18.355 0 0 1 5.2 2.833l-.151 1.636L5 12.147l-2.053.114v-1.287a.219.219 0 1 0-.439 0v1.311L.47 12.4v-1.426a.219.219 0 1 0-.439 0v1.449H.02l-.02 3.3 3.993.373c0 .306 0 .782.006 1.325a6.534 6.534 0 0 0 .674.039c2.042 0 6.343-2.6 9.327-5.219z" class="cls-4" transform="translate(17.601 12.898)"/>
            <path id="Fill_7" d="M.175 1.026c.09-.083.177-.17.264-.26V.22A.219.219 0 1 0 0 .22v.966l.175-.16" class="cls-4" transform="translate(31.937 23.653)"/>
            <path id="Fill_9" d="M6.26 1.143A4.318 4.318 0 0 0 6.419.109 8.091 8.091 0 0 0 3.27.2C2.158.554 1.114 1.664 0 2.459l.678 12.769.356.144 1.916-.714.67-12.614z" class="cls-4" transform="translate(24.444 34.271)"/>
            <path id="Clip_12-2" d="M0 63.1h51.358V0H0z" class="cls-1"/>
            <g id="icon_peten-2" clip-path="url(#clip-path)">
                <path id="Fill_11" d="M0 11.609h.393V0H0z" class="cls-3" transform="translate(23.387 51.488)"/>
                <path id="Fill_13" d="M0 11.609h.393V0H0z" class="cls-3" transform="translate(22.581 51.488)"/>
                <path id="Fill_14" d="M3.113 2.452H.912A.916.916 0 0 1 0 1.538V.914A.916.916 0 0 1 .912 0h2.2a.916.916 0 0 1 .912.914v.624a.916.916 0 0 1-.912.914" class="cls-3" transform="translate(24.256 8.808)"/>
                <path id="Fill_15" d="M3.176 1.929L2.025.176V0H1.6v.176L.451 1.929A1.121 1.121 0 0 0 0 2.447h3.628a1.121 1.121 0 0 0-.451-.518" class="cls-3" transform="translate(24.43 9.381)"/>
                <path id="Fill_16" d="M1.053 1.32A2.471 2.471 0 0 0 1.2.645 2 2 0 0 0 1.038 0H.161A2 2 0 0 0 0 .645a2.471 2.471 0 0 0 .146.675z" class="cls-3" transform="translate(28.979 26.263)"/>
                <path id="Fill_17" d="M0 1.41l.278.716.716-.264.058.147.648-.249.073.176.658-.249-.325-.836V0L0 .763z" class="cls-3" transform="translate(28.203 34.182)"/>
                <path id="Stroke_18" d="M0 1.41l.278.716.716-.264.058.147.648-.249.073.176.658-.249-.325-.836V0L0 .763z" class="cls-6" transform="translate(28.203 34.182)"/>
                <path id="Fill_19" d="M.146 1.32A2.471 2.471 0 0 1 0 .645 2 2 0 0 1 .161 0h.878A2 2 0 0 1 1.2.645a2.471 2.471 0 0 1-.146.675z" class="cls-3" transform="translate(22.309 26.263)"/>
                <path id="Fill_20" d="M2.428 1.41l-.278.716-.716-.264-.058.147-.645-.249-.073.176L0 1.687.322.851V0l2.106.763z" class="cls-3" transform="translate(21.856 34.182)"/>
                <path id="Stroke_21" d="M2.428 1.41l-.278.716-.716-.264-.058.147-.645-.249-.073.176L0 1.687.322.851V0l2.106.763z" class="cls-6" transform="translate(21.856 34.182)"/>
                <path id="Fill_22" d="M2.546.548L2.72 0H0l.17.548z" class="cls-3" transform="translate(24.908 13.885)"/>
                <path id="Fill_23" d="M0 .2l.153 2.448L.7 3.836h.243V0z" class="cls-3" transform="translate(24.293 18.629)"/>
                <path id="Fill_24" d="M.923 4.416L.548.638.351 0H0v1.848l.313 2.7z" class="cls-3" transform="translate(24.293 13.885)"/>
                <path id="Fill_25" d="M0 0v3.836h.241l.548-1.188L.943.2z" class="cls-3" transform="translate(27.299 18.629)"/>
                <path id="Fill_26" d="M.572 0l-.2.638L0 4.416l.61.133.313-2.7V0z" class="cls-3" transform="translate(27.32 13.885)"/>
                <path id="Fill_27" d="M.913 0H0v2.652h1.535V0z" class="cls-3" transform="translate(25.5 18.602)"/>
                <path id="Fill_28" d="M1 3.558h.935L2.285 0H0l.353 3.56z" class="cls-3" transform="translate(25.125 14.726)"/>
                <path id="Fill_29" d="M.932 2.627a1.345 1.345 0 1 1 1.688-.87 1.346 1.346 0 0 1-1.688.869" class="cls-3" transform="translate(24.901 24.993)"/>
                <path id="Fill_30" d="M3.091.126L.39 8.559 0 8.433 2.7 0z" class="cls-3" transform="translate(24.698 22.06)"/>
                <path id="Fill_31" d="M0 18.361L5.879 0l1.278.411-5.321 16.617z" class="cls-3" transform="translate(26.749 5.727)"/>
                <path id="Fill_32" d="M0 1.286l1.277.414.882-1.289L.882 0z" class="cls-3" transform="translate(32.628 4.441)"/>
                <path id="Fill_33" d="M7.157 0l-5.88 18.361L0 17.95 5.321 1.333z" class="cls-3" transform="translate(18.582 28.59)"/>
                <path id="Fill_34" d="M2.159.411L.882 0 0 1.286l1.277.414z" class="cls-3" transform="translate(17.7 46.54)"/>
                <path id="Fill_35" d="M.125 0l8.41 2.708-.125.392L0 .391z" class="cls-3" transform="translate(21.976 24.79)"/>
                <path id="Fill_36" d="M1.282 2.165L1.693.884.41 0 0 1.281z" class="cls-3" transform="translate(4.405 17.772)"/>
                <path id="Fill_37" d="M18.311 7.176L0 1.281.41 0l16.572 5.335z" class="cls-3" transform="translate(5.688 18.656)"/>
                <path id="Fill_38" d="M.41 0L0 1.281l1.282.884.411-1.281z" class="cls-3" transform="translate(46.389 32.741)"/>
                <path id="Fill_39" d="M0 0l18.311 5.9-.411 1.276L1.329 1.841z" class="cls-3" transform="translate(28.488 26.846)"/>
                <path id="Fill_40" d="M.39 2.326L1.477.4.235 0 0 2.2z" class="cls-3" transform="translate(25.076 27.111)"/>
                <path id="Fill_41" d="M1.087 0L0 1.927l1.242.4.235-2.2z" class="cls-3" transform="translate(25.934 23.241)"/>
                <path id="Fill_42" d="M2.32 1.09L.4 0 0 1.246l2.195.235z" class="cls-3" transform="translate(27.013 26.028)"/>
                <path id="Fill_43" d="M0 .391l1.922 1.09L2.32.235.125 0z" class="cls-3" transform="translate(23.153 25.169)"/>
                <path id="Stroke_44" fill="none" stroke="#ede2b2" stroke-miterlimit="10" d="M0 23.11a23.048 23.048 0 1 1 23.048 23.11A23.079 23.079 0 0 1 0 23.11z" transform="translate(3.196 3.197)"/>
            </g>
        </g>
    </g>
</svg>
