<svg xmlns="http://www.w3.org/2000/svg" width="197" height="62" viewBox="0 0 197 62">
    <defs>
        <filter id="Ellipse_49" width="62" height="62" x="135" y="0" filterUnits="userSpaceOnUse">
            <feOffset dx="-1" dy="1"/>
            <feGaussianBlur result="blur" stdDeviation="3"/>
            <feFlood flood-opacity=".271"/>
            <feComposite in2="blur" operator="in"/>
            <feComposite in="SourceGraphic"/>
        </filter>
        <style>
            .cls-1{fill:#3bb5f2}.cls-3{fill:none;stroke:#fff;stroke-linecap:round;stroke-linejoin:round;stroke-width:2px}
        </style>
    </defs>
    <g id="share_quiz_result" transform="translate(-93 -580)">
        <g id="Group_97" transform="translate(3)">
            <path id="Path_166" d="M22 0h145a22 22 0 0 1 0 44H22a22 22 0 0 1 0-44z" class="cls-1" transform="translate(90 588)"/>
            <text id="שתף_עם_חברים" fill="#fff" font-family="Heebo-Medium, Heebo" font-size="16px" font-weight="500" transform="translate(111 615)">
                <tspan x="0" y="0">שתף עם חברים</tspan>
            </text>
            <g id="Group_96">
                <g filter="url(#Ellipse_49)" transform="translate(90 580)">
                    <circle id="Ellipse_49-2" cx="22" cy="22" r="22" class="cls-1" transform="translate(145 8)"/>
                </g>
                <g id="Icon_feather-share-2" transform="translate(239.54 594.267)">
                    <path id="Path_72" d="M30.14 6.82A3.82 3.82 0 1 1 26.32 3a3.82 3.82 0 0 1 3.82 3.82z" class="cls-3" transform="translate(-2.72)"/>
                    <path id="Path_73" d="M12.14 17.32a3.82 3.82 0 1 1-3.82-3.82 3.82 3.82 0 0 1 3.82 3.82z" class="cls-3" transform="translate(0 -1.587)"/>
                    <path id="Path_74" d="M30.14 27.82A3.82 3.82 0 1 1 26.32 24a3.82 3.82 0 0 1 3.82 3.82z" class="cls-3" transform="translate(-2.72 -3.174)"/>
                    <path id="Path_75" d="M12.885 20.265l8.7 5.068" class="cls-3" transform="translate(-1.267 -2.609)"/>
                    <path id="Path_76" d="M21.569 9.765l-8.684 5.068" class="cls-3" transform="translate(-1.267 -1.022)"/>
                </g>
            </g>
        </g>
    </g>
</svg>
