<svg xmlns="http://www.w3.org/2000/svg" xmlns:xlink="http://www.w3.org/1999/xlink" width="35.259" height="35.259" viewBox="0 0 35.259 35.259">
  <defs>
    <clipPath id="clip-path">
      <path id="Clip_12" data-name="Clip 12" d="M0,24.908H24.955V0H0Z" fill="none"/>
    </clipPath>
  </defs>
  <g id="Group_206" data-name="Group 206" transform="translate(-129.413 -10.522)">
    <g id="Group_205" data-name="Group 205">
      <g id="Group_204" data-name="Group 204" transform="matrix(0.999, 0, 0.002, 0.998, 131.396, 12.584)" opacity="0.546">
        <g id="Group_202" data-name="Group 202" transform="translate(4.826 0)">
          <path id="Path_179" data-name="Path 179" d="M0,0V31.259" transform="matrix(1, 0, 0, 1, 20.833, 0)" fill="none" stroke="#fff" stroke-width="1"/>
          <path id="Path_180" data-name="Path 180" d="M0,0V31.259" transform="matrix(1, 0, 0, 1, 10.417, 0)" fill="none" stroke="#fff" stroke-width="1"/>
          <path id="Path_181" data-name="Path 181" d="M0,0V31.259" transform="matrix(1, 0, 0, 1, 0, 0)" fill="none" stroke="#fff" stroke-width="1"/>
        </g>
        <g id="Group_201" data-name="Group 201" transform="translate(0 4.809)">
          <path id="Path_182" data-name="Path 182" d="M0,0V31.259" transform="matrix(0, -1, 1, 0, 0, 0)" fill="none" stroke="#fff" stroke-width="1"/>
          <path id="Path_183" data-name="Path 183" d="M0,0V31.259" transform="matrix(0, -1, 1, 0, 0, 10.423)" fill="none" stroke="#fff" stroke-width="1"/>
          <path id="Path_184" data-name="Path 184" d="M0,0V31.259" transform="matrix(0, -1, 1, 0, 0, 20.847)" fill="none" stroke="#fff" stroke-width="1"/>
        </g>
      </g>
      <g id="icon_efroni" transform="translate(129.413 28.168) rotate(-45)">
        <path id="Fill_1" data-name="Fill 1" d="M12.186,24.31H12.16l-4-.368a.3.3,0,0,1-.266-.3v-.921c0-.153.025-.923.526-1.07.268-.078,1.979-.542,2.534-.692l.353-1.569c-.061-.5-.491-4.128-.491-5.832v-.53h-1.8l-.04,0-8.7-1.243a.3.3,0,0,1-.251-.293L0,9.257c0-.008,0-.015,0-.023A.634.634,0,0,1,.51,8.589c.226-.023,7.867-.6,8.192-.622h2.113V6.423a21.171,21.171,0,0,1,.2-2.727.293.293,0,0,1-.182-.146,3.707,3.707,0,0,0-.266-.42.3.3,0,0,1-.052-.26,1.057,1.057,0,0,1,.756-.725C11.693,0,12,0,12.186,0s.493,0,.92,2.144a1.057,1.057,0,0,1,.756.725.3.3,0,0,1-.052.26,3.658,3.658,0,0,0-.266.42.292.292,0,0,1-.182.146,21.174,21.174,0,0,1,.2,2.727V7.966H15.67c.325.024,7.966.6,8.192.622a.634.634,0,0,1,.509.646c0,.008,0,.015,0,.023l-.022,2.233a.3.3,0,0,1-.251.293l-8.7,1.243-.04,0h-1.8v.53c0,1.7-.43,5.33-.491,5.832l.354,1.569c.555.15,2.266.614,2.534.692.5.147.526.917.526,1.07v.921a.3.3,0,0,1-.266.3l-4,.368Z" transform="translate(0.292 0.299)" fill="#f2f2f2"/>
        <path id="Fill_3" data-name="Fill 3" d="M12.478,24.908l-.053,0-4-.368a.589.589,0,0,1-.532-.595v-.921a2.535,2.535,0,0,1,.053-.484,1.027,1.027,0,0,1,.685-.873c.174-.051.994-.275,2.369-.648l.3-1.342c-.081-.677-.486-4.139-.486-5.816v-.231H9.307a.513.513,0,0,1-.08-.006l-8.7-1.243a.6.6,0,0,1-.5-.585L0,9.559c0-.015,0-.031,0-.046A.932.932,0,0,1,.773,8.59c.192-.02,5.464-.417,7.449-.566l.751-.057.042,0h1.8V6.721a21,21,0,0,1,.172-2.569.611.611,0,0,1-.123-.161l0,0a3.377,3.377,0,0,0-.239-.376.611.611,0,0,1-.1-.521,1.323,1.323,0,0,1,.787-.875c.1-.482.2-.891.307-1.213.12-.375.32-1,.863-1s.744.628.863,1c.1.324.209.744.307,1.213a1.342,1.342,0,0,1,.787.875.612.612,0,0,1-.1.521,3.433,3.433,0,0,0-.24.379.635.635,0,0,1-.124.162,20.976,20.976,0,0,1,.172,2.568V7.966h1.8l.043,0,.749.056c1.987.15,7.259.547,7.451.566a.933.933,0,0,1,.771.923c0,.015,0,.031,0,.046l-.023,2.233a.588.588,0,0,1-.5.585l-8.7,1.243a.518.518,0,0,1-.081.006H14.14v.231c0,1.679-.405,5.14-.486,5.816l.3,1.342c1.4.38,2.2.6,2.369.648a1.028,1.028,0,0,1,.685.873,2.542,2.542,0,0,1,.053.484v.921a.589.589,0,0,1-.531.595l-4,.368ZM9.015,8.563c-.08.006-7.963.6-8.184.622s-.247.365-.247.368l.022,2.233,8.7,1.243H11.4v.829c0,1.775.49,5.807.495,5.848l-.4,1.8c-.015,0-2.384.645-2.7.737s-.315.776-.315.783v.921l4,.368,4-.368v-.921c0-.007,0-.692-.315-.783s-2.45-.67-2.695-.736h0l-.4-1.8c0-.04.495-4.074.495-5.848v-.829h2.091l8.7-1.243.022-2.233s-.025-.346-.247-.368-8.105-.616-8.185-.622H13.557V6.721a22.013,22.013,0,0,0-.284-3.314,1.043,1.043,0,0,1,.306.3.06.06,0,0,1,.007-.014,3.883,3.883,0,0,1,.285-.446.821.821,0,0,0-.722-.548c-.236-1.236-.512-2.1-.672-2.1s-.436.863-.672,2.1a.82.82,0,0,0-.722.548,4.093,4.093,0,0,1,.292.46l0-.005a1.021,1.021,0,0,1,.3-.292A21.955,21.955,0,0,0,11.4,6.721V8.563Z" transform="translate(0 0)" fill="#455453"/>
        <path id="Fill_5" data-name="Fill 5" d="M.467,1.822a.985.985,0,0,1,.566-.9C1.624.657,0,0,0,0Z" transform="translate(12.486 4.674)" fill="#ea211c"/>
        <path id="Fill_7" data-name="Fill 7" d="M.7,1.822a.985.985,0,0,0-.566-.9C-.461.657,1.162,0,1.162,0Z" transform="translate(11.299 4.674)" fill="#ea211c"/>
        <path id="Fill_9" data-name="Fill 9" d="M.6,2.81C.49,3.5.4,4.253.353,5H2.435c-.048-.75-.136-1.5-.245-2.192a1.03,1.03,0,0,1,.306.3,3.97,3.97,0,0,1,.292-.46A.817.817,0,0,0,2.066,2.1C1.832.876,1.555,0,1.394,0h0C1.233,0,.956.876.722,2.1A.817.817,0,0,0,0,2.648a3.98,3.98,0,0,1,.292.46A1.029,1.029,0,0,1,.6,2.81" transform="translate(11.084 0.597)" fill="#ea211c"/>
        <path id="Clip_12-2" data-name="Clip 12" d="M0,24.908H24.955V0H0Z" fill="none"/>
        <g id="icon_efroni-2" data-name="icon_efroni" clip-path="url(#clip-path)">
          <path id="Fill_11" data-name="Fill 11" d="M0,.3H3.882V0H0Z" transform="translate(10.537 1.046)" fill="#455453"/>
          <path id="Fill_13" data-name="Fill 13" d="M.809,0A.833.833,0,0,0,0,.553a3.959,3.959,0,0,1,.292.46S.517.668.764.668A.771.771,0,0,0,.809,0" transform="translate(11.084 2.692)" fill="#75838e"/>
          <path id="Fill_14" data-name="Fill 14" d="M.058,0A.834.834,0,0,1,.868.553a3.969,3.969,0,0,0-.292.46S.351.668.1.668A.771.771,0,0,1,.058,0" transform="translate(13.004 2.692)" fill="#75838e"/>
          <path id="Fill_15" data-name="Fill 15" d="M4.932,0C2.764.164.369.345.247.358.023.381,0,.726,0,.726L.023,2.959l4.91.7Z" transform="translate(0.583 8.827)" fill="#ea211c"/>
          <path id="Fill_16" data-name="Fill 16" d="M4.64.354C4.519.342,2.156.163,0,0V3.651l4.864-.7L4.887.723S4.864.377,4.64.354" transform="translate(19.485 8.83)" fill="#ea211c"/>
          <path id="Fill_17" data-name="Fill 17" d="M1.575,0C1.007.155.455.306.315.347,0,.439,0,1.129,0,1.129V2.05L1.575,2.2Z" transform="translate(8.475 21.892)" fill="#ea211c"/>
          <path id="Fill_18" data-name="Fill 18" d="M1.215.334C1.079.294.552.15,0,0V2.179l1.53-.141V1.117s0-.691-.315-.783" transform="translate(14.95 21.904)" fill="#ea211c"/>
          <path id="Fill_19" data-name="Fill 19" d="M0,0Q.022.29.046.587h1.9Q1.975.29,2,0Z" transform="translate(11.48 15.574)" fill="#f2f2f2"/>
          <path id="Fill_20" data-name="Fill 20" d="M.117,0H.873L.989,5.542H0Z" transform="translate(11.983 1.421)" fill="#ea211c"/>
          <path id="Fill_21" data-name="Fill 21" d="M1.8,1.81A1.428,1.428,0,0,0,.18,1.782L0,1.9V1.432C0,.468.325,0,.993,0s.994.468.994,1.432v.508Z" transform="translate(11.484 6.533)" fill="#455453"/>
          <path id="Fill_22" data-name="Fill 22" d="M2.218,2.286h0l-.363-.258A1.315,1.315,0,0,0,.36,2L0,2.238V1.8c0-.1,0-.183,0-.251C0,.522.374,0,1.11,0S2.22.522,2.22,1.551c0,.074,0,.169,0,.281l0,.453Zm-1.13-.744a1.543,1.543,0,0,1,.9.289c0-.061,0-.117,0-.168s0-.079,0-.112c0-.9-.279-1.313-.877-1.313S.233.656.233,1.551c0,.03,0,.064,0,.1s0,.1,0,.149A1.545,1.545,0,0,1,1.088,1.543Z" transform="translate(11.367 6.413)" fill="#f2f2f2"/>
          <path id="Fill_23" data-name="Fill 23" d="M1.736,2.559C1.743,1.7,1.749.874,1.751.326A1.4,1.4,0,0,0,0,.292c0,.554.008,1.41.015,2.3a1.492,1.492,0,0,0,.838.247,1.484,1.484,0,0,0,.883-.279" transform="translate(11.602 8.111)" fill="#455453"/>
          <path id="Fill_24" data-name="Fill 24" d="M.837.245A1.659,1.659,0,0,1,0,.026c.012,1.66.027,3.365.027,3.365a2.744,2.744,0,0,0,.832.161,2.744,2.744,0,0,0,.832-.161S1.706,1.668,1.719,0A1.654,1.654,0,0,1,.837.245" transform="translate(11.619 10.859)" fill="#455453"/>
          <path id="Fill_25" data-name="Fill 25" d="M12.478,24.908l-.053,0-4-.368a.589.589,0,0,1-.532-.595v-.921a2.535,2.535,0,0,1,.053-.484,1.027,1.027,0,0,1,.685-.873c.174-.051.994-.275,2.369-.648l.3-1.342c-.081-.677-.486-4.139-.486-5.816v-.231H9.307a.513.513,0,0,1-.08-.006l-8.7-1.243a.6.6,0,0,1-.5-.585L0,9.559c0-.015,0-.031,0-.046A.932.932,0,0,1,.773,8.59c.192-.02,5.464-.417,7.449-.566l.751-.057.042,0h1.8V6.721a21,21,0,0,1,.172-2.569.611.611,0,0,1-.123-.161l0,0a3.377,3.377,0,0,0-.239-.376.611.611,0,0,1-.1-.521,1.323,1.323,0,0,1,.787-.875c.1-.482.2-.891.307-1.213.12-.375.32-1,.863-1s.744.628.863,1c.1.324.209.744.307,1.213a1.342,1.342,0,0,1,.787.875.612.612,0,0,1-.1.521,3.433,3.433,0,0,0-.24.379.635.635,0,0,1-.124.162,20.976,20.976,0,0,1,.172,2.568V7.966h1.8l.043,0,.749.056c1.987.15,7.259.547,7.451.566a.933.933,0,0,1,.771.923c0,.015,0,.031,0,.046l-.023,2.233a.588.588,0,0,1-.5.585l-8.7,1.243a.518.518,0,0,1-.081.006H14.14v.231c0,1.679-.405,5.14-.486,5.816l.3,1.342c1.4.38,2.2.6,2.369.648a1.028,1.028,0,0,1,.685.873,2.542,2.542,0,0,1,.053.484v.921a.589.589,0,0,1-.531.595l-4,.368ZM9.015,8.563c-.08.006-7.963.6-8.184.622s-.247.365-.247.368l.022,2.233,8.7,1.243H11.4v.829c0,1.775.49,5.807.495,5.848l-.4,1.8c-.015,0-2.384.645-2.7.737s-.315.776-.315.783v.921l4,.368,4-.368v-.921c0-.007,0-.692-.315-.783s-2.45-.67-2.695-.736h0l-.4-1.8c0-.04.495-4.074.495-5.848v-.829h2.091l8.7-1.243.022-2.233s-.025-.346-.247-.368-8.105-.616-8.185-.622H13.557V6.721a22.013,22.013,0,0,0-.284-3.314,1.043,1.043,0,0,1,.306.3.06.06,0,0,1,.007-.014,3.883,3.883,0,0,1,.285-.446.821.821,0,0,0-.722-.548c-.236-1.236-.512-2.1-.672-2.1s-.436.863-.672,2.1a.82.82,0,0,0-.722.548,4.093,4.093,0,0,1,.292.46l0-.005a1.021,1.021,0,0,1,.3-.292A21.955,21.955,0,0,0,11.4,6.721V8.563Z" transform="translate(0 0)" fill="#455453"/>
          <path id="Fill_26" data-name="Fill 26" d="M0,0V4.108l1.281,0V0Z" transform="translate(13.557 8.563)" fill="#f2f2f2"/>
          <path id="Fill_27" data-name="Fill 27" d="M0,0V4.108l1.281,0V0Z" transform="translate(10.117 8.563)" fill="#f2f2f2"/>
          <path id="Fill_28" data-name="Fill 28" d="M.756.824C.611.313.474,0,.378,0h0C.282,0,.145.313,0,.824Z" transform="translate(12.1 0.597)" fill="#75838e"/>
        </g>
      </g>
    </g>
  </g>
</svg>
