<?xml version="1.0" encoding="UTF-8"?>
<svg width="50px" height="51px" viewBox="0 0 50 51" version="1.1" xmlns="http://www.w3.org/2000/svg" xmlns:xlink="http://www.w3.org/1999/xlink">
    <title>Tel nof</title>
    <defs>
        <polygon id="path-1" points="0 0 49.785977 0 49.785977 49.9447484 0 49.9447484"></polygon>
        <polygon id="path-3" points="0.0731320126 0 0.435767269 0 0.435767269 0.510204082 0.0731320126 0.510204082"></polygon>
        <polygon id="path-5" points="0.0726656055 0 0.436233676 0 0.436233676 0.510204082 0.0726656055 0.510204082"></polygon>
        <polygon id="path-7" points="0 0.0815571181 0.508899282 0.0815571181 0.508899282 0.428646964 0 0.428646964"></polygon>
        <polygon id="path-9" points="0 0.0816029268 0.508899282 0.0816029268 0.508899282 0.428601155 0 0.428601155"></polygon>
    </defs>
    <g id="2022" stroke="none" stroke-width="1" fill="none" fill-rule="evenodd">
        <g id="OpenbaseComplete" transform="translate(-305.000000, -237.000000)">
            <g id="Group-7" transform="translate(-10.000000, 63.000000)">
                <g id="Header" transform="translate(0.000000, 160.000000)">
                    <g id="Tel-nof" transform="translate(315.000000, 14.500000)">
                        <g id="Group-3" transform="translate(0.000000, 0.055252)">
                            <mask id="mask-2" fill="white">
                                <use xlink:href="#path-1"></use>
                            </mask>
                            <g id="Clip-2"></g>
                            <path d="M49.785977,27.4115503 C49.4124689,28.2741343 49.4431352,29.218244 49.2446659,30.1181364 C47.0001716,40.2950381 39.1320374,47.8479158 28.9167286,49.5986469 C16.0344892,51.8064058 3.39447885,43.2237472 0.585932223,30.3613318 C-2.29152734,17.1838678 5.6937589,4.13491039 18.7045209,0.781645467 C19.7447616,0.513577724 20.8194588,0.380580196 21.8765832,0.177111252 C22.0254352,0.148439058 22.2283838,0.223055853 22.3007423,-0.000103634437 L23.1638768,-0.000103634437 C23.2600104,0.0907492218 23.3557994,0.0907492218 23.4519329,-0.000103634437 L26.329737,-0.000103634437 C26.4258706,0.0907492218 26.5216596,0.0907492218 26.6177931,-0.000103634437 L27.3372441,-0.000103634437 C29.0331914,0.12978486 30.6926149,0.435506448 32.3210275,0.943660636 C35.4517421,1.92162427 38.2899213,3.43503249 40.8124793,5.53362984 C44.420416,8.53488313 47.031527,12.2453414 48.5779333,16.6857316 C49.194704,18.4571895 49.6681359,20.2707922 49.7118956,22.1673024 C49.7146521,22.2847547 49.6912217,22.4087706 49.785977,22.506187 L49.785977,23.0834308 C49.6781283,23.2278281 49.6781283,23.37188 49.785977,23.5162773 L49.785977,26.2574082 C49.6781283,26.4018055 49.6781283,26.5458573 49.785977,26.6902546 L49.785977,27.4115503 Z" id="Fill-1" fill="#D52027" mask="url(#mask-2)"></path>
                        </g>
                        <g id="Group-6" transform="translate(49.491101, 23.138613)">
                            <mask id="mask-4" fill="white">
                                <use xlink:href="#path-3"></use>
                            </mask>
                            <g id="Clip-5"></g>
                            <path d="M0.43551282,0.510204082 C0.183607675,0.340000326 0.113888474,0.170203756 0.43551282,0 L0.43551282,0.510204082 Z" id="Fill-4" fill="#E77F82" mask="url(#mask-4)"></path>
                        </g>
                        <g id="Group-9" transform="translate(49.490785, 26.312591)">
                            <mask id="mask-6" fill="white">
                                <use xlink:href="#path-5"></use>
                            </mask>
                            <g id="Clip-8"></g>
                            <path d="M0.435979227,0.510204082 C0.108756989,0.340000326 0.185091881,0.170203756 0.435979227,0 L0.435979227,0.510204082 Z" id="Fill-7" fill="#E47074" mask="url(#mask-6)"></path>
                        </g>
                        <g id="Group-12" transform="translate(26.301552, 0.000031)">
                            <mask id="mask-8" fill="white">
                                <use xlink:href="#path-7"></use>
                            </mask>
                            <g id="Clip-11"></g>
                            <path d="M0.466915091,0.0815571181 C0.325441091,0.346353036 0.183458191,0.306557118 0.0419841908,0.0815571181 L0.466915091,0.0815571181 Z" id="Fill-10" fill="#E5767A" mask="url(#mask-8)"></path>
                        </g>
                        <g id="Group-15" transform="translate(23.135726, 0.000000)">
                            <mask id="mask-10" fill="white">
                                <use xlink:href="#path-9"></use>
                            </mask>
                            <g id="Clip-14"></g>
                            <path d="M0.466915091,0.0816029268 C0.325441091,0.306092723 0.183458191,0.346398845 0.0419841908,0.0816029268 L0.466915091,0.0816029268 Z" id="Fill-13" fill="#E5757A" mask="url(#mask-10)"></path>
                        </g>
                        <path d="M47.7807266,25.0320144 C47.7676205,37.7386327 37.5292259,47.9797878 24.8554482,47.9625372 C12.1920074,47.9455884 1.97394209,37.6619432 2.00076523,24.9605067 C2.02734961,12.2576883 12.2795268,2.03415114 24.9598513,2.06551462 C37.5912475,2.0970227 47.7938074,12.3647772 47.7807266,25.0320144" id="Fill-16" fill="#1A1751"></path>
                        <path d="M24.8615814,33.510004 C28.5056974,33.498637 31.474122,36.4549821 31.4648406,40.0863327 C31.4555155,43.6931566 28.5153452,46.6453562 24.9208466,46.6564433 C21.2912023,46.6678103 18.311407,43.6973019 18.317256,40.0732057 C18.3227777,36.4660364 21.2588132,33.5214366 24.8615814,33.510004" id="Fill-18" fill="#FEF2FE"></path>
                        <path d="M36.835755,41.6066154 C35.3586063,42.6764682 33.124449,43.2861841 31.3678583,43.0778789 C31.7613511,42.0356619 32.029767,40.9785907 31.9863519,39.8589933 C31.8712673,36.9002301 30.0805647,34.3912404 27.2985495,33.3973862 C26.8495818,33.2370982 26.683157,33.0353565 26.7482797,32.5848922 C26.7755004,32.396623 26.7527591,32.2010993 26.7527591,32.0086847 C26.7527591,30.7263813 26.8323535,30.6507282 28.1003515,30.3059709 C28.4883313,30.2006093 28.5465628,30.5042582 28.6961038,30.6718005 C29.3097735,31.3588968 29.301504,31.3678785 30.0150974,30.7553989 C30.2879926,30.5211851 30.5560639,30.282135 30.8265472,30.0451576 C30.9450774,29.9449776 31.091862,29.9121601 31.2286542,29.9543047 C32.4098219,30.3173707 33.6457753,30.4365503 34.8341789,30.7664533 C35.1525566,30.864906 35.4209725,30.5736932 35.7951697,30.6586735 C35.5412256,31.8774144 35.1170665,33.0294839 34.5354413,34.1193728 C34.3145754,34.5328742 34.3783198,34.6655262 34.8438267,34.6579264 C35.882,34.6403085 36.8757246,34.4358032 37.9555902,33.9169402 C37.2199447,35.7557605 36.2486168,37.2380784 34.5981521,38.4081112 C35.4016769,38.3438578 36.0260281,38.1866789 36.649001,38.0129185 C37.2861011,37.8353582 37.8887447,37.5679814 38.665738,37.1682979 C37.6778711,39.1836422 36.3178743,40.4918543 34.3604025,41.2649672 C35.133261,41.5036718 35.828248,41.4466729 36.5201338,41.4345822 C36.6769107,41.3969283 36.8498822,41.3288751 36.835755,41.6066154" id="Fill-20" fill="#DFE7F5"></path>
                        <path d="M18.9546404,30.0450194 C19.461495,30.4795932 19.9686942,30.9141669 20.4882977,31.359795 C20.5799519,31.2582332 20.6461083,31.1891436 20.70813,31.116254 C21.5095874,30.1759443 21.776625,30.0526193 22.7813756,30.7790967 C23.4170974,31.2388881 22.8881907,32.1101083 23.0284285,32.7809685 C23.0956186,33.1029262 22.9374634,33.2511234 22.639415,33.3399036 C21.9943899,33.5316273 21.400705,33.8383852 20.8476787,34.2232145 C18.1938416,36.0685983 17.1136313,39.4526081 18.206935,42.4932425 C18.2706795,42.6701119 18.3361468,42.8462905 18.4371042,43.122649 C16.4158879,43.1399214 14.5693658,42.8013822 12.9461216,41.6064772 C12.9302717,41.3256279 13.1063442,41.3988629 13.2617429,41.434444 C13.9536287,41.4468801 14.6486157,41.5031882 15.3332657,41.2924648 C12.7652252,39.753148 11.9902992,39.0111254 11.1943549,37.2797394 C11.8617766,37.5357165 12.4516713,37.8006752 13.065341,37.9868718 C13.701752,38.1796318 14.3615933,38.2963933 15.049689,38.3958823 C13.5618587,37.2572853 12.5736472,35.7780765 11.8324886,33.9558376 C12.8241457,34.3714117 13.7493019,34.6294614 14.7226971,34.6526065 C15.4769491,34.6705698 15.4890089,34.6481156 15.1685638,33.9976368 C14.6499939,32.9450564 14.2489207,31.8496404 13.9780928,30.6927346 C14.3281705,30.5106835 14.6210505,30.8872219 14.9476978,30.7663151 C16.1578089,30.4284668 17.4182265,30.3172325 18.6231692,29.9524393 C18.7361864,29.91824 18.8578177,29.96453 18.9546404,30.0450194" id="Fill-22" fill="#DFE7F5"></path>
                        <path d="M23.0033442,25.1945478 C22.677386,21.0823333 22.3607311,16.969428 22.0137544,12.8589408 C21.9662045,12.2968967 22.1319401,12.1746081 22.6656708,12.1873896 C24.1724521,12.2236617 25.6813008,12.2164073 27.1884267,12.1901532 C27.6522107,12.1822079 27.811055,12.2920604 27.7697073,12.7870876 C27.491299,16.1330981 27.2408005,19.4815267 26.9785868,22.828919 C26.9165651,23.6179226 26.8448957,24.4062352 26.7777056,25.1948932 C26.476556,25.4235799 26.1409501,25.3503449 25.8087897,25.3082002 C25.501438,25.1472214 25.0528148,25.3258181 24.8495217,24.9119712 C25.1958092,23.7927193 25.6644171,22.7142303 25.9083689,21.5583608 C26.4272833,19.1004975 26.1051153,16.7431595 25.1437799,14.4507657 C25.0903724,14.3229499 25.0479909,14.1740618 24.8047283,14.1236264 C24.1631488,15.5095642 23.737956,16.9583737 23.6476801,18.5083994 C23.5322509,20.4902353 23.9322905,22.3712003 24.6961904,24.1868756 C24.7995598,24.4328347 24.9029292,24.6753393 24.797837,24.9485887 C24.2475672,25.3848897 23.6507812,25.4757426 23.0033442,25.1945478" id="Fill-24" fill="#DFE7F5"></path>
                        <path d="M23.0033442,25.1945478 C23.6115008,25.1188946 24.2417096,25.1689846 24.8098967,24.8698266 L24.8464206,24.8625721 C25.0862376,25.2176928 25.5210782,24.9029896 25.7956963,25.139967 C25.6599378,25.3351452 25.4404501,25.3375633 25.240258,25.3841988 C24.9590932,25.389726 24.752699,25.5123601 24.598334,25.7538283 C24.2148335,26.3531808 23.6735224,26.8247175 23.2576329,27.3988523 C22.8858476,27.7847178 22.413794,28.0552037 22.0509674,28.4521236 C21.454526,28.8708067 20.8680769,29.3053804 20.2178834,29.6387379 C19.9704859,29.7655173 19.7251559,29.9327142 19.4209053,29.8187164 C19.2655066,29.8943695 19.1101079,29.9696772 18.9547093,30.0449849 C17.6336483,30.3665971 16.3404971,30.8457336 14.9477667,30.7662806 C15.0122003,30.6253377 15.0769785,30.4843949 15.1414121,30.3437975 C15.4453181,29.6076475 15.8701663,28.9740957 16.6037445,28.6003208 C16.7725812,28.4396874 16.9410733,28.2790541 17.1095655,28.1180752 C17.3397347,27.576758 17.7346058,27.2409825 18.3196766,27.1414934 C18.4547459,27.0482224 18.5898153,26.9549514 18.7245401,26.8616804 C19.0153527,26.4602697 19.3812803,26.1908202 19.8995056,26.188402 C20.908391,25.7762824 21.9572458,25.4902514 23.0033442,25.1945478" id="Fill-26" fill="#D52027"></path>
                        <path d="M25.1555985,25.3538685 C25.3041058,25.087528 25.5728663,25.1835625 25.7954551,25.1400361 C26.1231361,25.1583448 26.4504725,25.1766536 26.7778089,25.1946169 C27.8266638,25.4851387 28.8737958,25.7811878 29.8871605,26.1836348 C30.3991836,26.1967619 30.7671787,26.4603388 31.056613,26.8596768 C31.1920269,26.9522569 31.3270963,27.044837 31.4625102,27.1374171 C32.0000311,27.297705 32.4703619,27.541246 32.6739996,28.1167625 C32.841458,28.2780868 33.0089164,28.4394111 33.1763749,28.6007354 C33.912365,28.9717466 34.3351459,29.6080621 34.6404302,30.3431757 C34.7052083,30.4841185 34.7696419,30.6254068 34.8340755,30.7663496 C33.4392777,30.853748 32.1499167,30.3531937 30.8264438,30.045054 C30.6713897,29.9700917 30.5166802,29.8951295 30.3616261,29.8201672 C29.945392,29.9452195 29.6352838,29.6823334 29.3175951,29.5040822 C28.7649134,29.1938698 28.2439316,28.8290766 27.7322531,28.4539199 C27.3701156,28.0552728 26.9321739,27.7426422 26.5235202,27.3965032 C26.1855023,26.9740202 25.8264659,26.569155 25.4753545,26.1577262 C25.288945,25.9397485 25.0263867,25.7141709 25.1555985,25.3538685" id="Fill-28" fill="#D52027"></path>
                        <path d="M19.8994712,26.1885057 C19.5077011,26.4130469 19.1162757,26.6372428 18.7245056,26.8617841 C18.5356842,26.0979983 18.1166935,25.7363141 17.3169589,26.066217 C16.9503421,26.2175233 16.8486956,26.049981 16.8300891,25.7135145 C16.8194076,25.5248998 16.7477381,25.340776 16.717761,25.1525067 C16.6571176,24.7752774 16.477944,24.3538307 16.584759,24.0294549 C16.7146599,23.6352986 17.2301286,23.7676052 17.5843411,23.6933339 C17.8555135,23.6363349 17.8872135,23.4387386 17.9134004,23.2107429 C17.9823133,22.6186448 18.0243502,22.0224013 18.2459053,21.4562118 C18.433693,20.9753481 17.9974742,20.878968 17.7263018,20.7628975 C17.170519,20.5248837 17.0823104,20.2312528 17.4740804,19.7707704 C17.5802064,19.6460637 17.6380932,19.480594 17.7211333,19.3358513 C18.2324673,18.4435588 18.2372912,18.435268 19.176919,18.9285679 C19.4250056,19.0588019 19.5769586,19.0550019 19.7678474,18.8287334 C19.9976721,18.555484 20.2450695,18.2577077 20.5506984,18.0963834 C21.3004711,17.7011907 21.5744,17.2261996 21.0827062,16.4392688 C20.8270392,16.0302582 21.2722168,16.0413125 21.4637948,15.9521869 C21.7611541,15.8133168 21.8255877,16.0181675 21.8424713,16.2706901 C21.888643,16.9650408 21.9430842,17.6587006 22.000282,18.352015 C22.0188884,18.578629 21.9861548,18.7330443 21.7587421,18.8802052 C19.5748912,20.2944698 18.492269,23.3499584 19.8994712,26.1885057" id="Fill-30" fill="#FEFEFE"></path>
                        <path d="M31.0566819,26.8598495 C30.6669793,26.6342719 30.2772766,26.4090397 29.8872294,26.1838076 C31.1131905,23.2157173 30.5277752,20.8528521 28.0693062,18.9197245 C27.8591218,18.7542548 27.751273,18.6102029 27.7788382,18.3348808 C27.8477512,17.6422573 27.8966793,16.9475611 27.9390608,16.252865 C27.9559445,15.9796155 28.0527671,15.8224366 28.3322091,15.9471434 C28.5337794,16.0373053 28.9476016,16.0497415 28.6950357,16.4497704 C28.1936941,17.2432647 28.4907088,17.7324193 29.2477174,18.0944489 C29.3931237,18.163884 29.5292267,18.2930816 29.6205364,18.4278063 C30.0477966,19.0596309 30.5301871,19.1501384 31.1090558,18.6292026 C31.3905651,18.3759891 31.5959256,18.4392061 31.7454667,18.7887996 C31.8295405,18.9853596 31.9594414,19.1618836 32.0672901,19.3480801 C32.6148034,20.2935716 32.6244512,20.307735 31.7282385,20.9316143 C31.4963465,21.0929386 31.4801519,21.2411358 31.5401062,21.4687862 C31.6310712,21.8138888 31.7685525,22.1596824 31.7823351,22.5092759 C31.8102449,23.2350624 31.8746785,23.8572145 32.8504856,23.7884703 C33.1702416,23.7656707 33.2991088,23.9874484 33.2153796,24.316315 C33.1568036,24.5474198 33.1192461,24.7843972 33.0834113,25.0203383 C32.9176757,26.1098817 32.9162975,26.1274995 31.8185144,25.9551209 C31.5456192,25.9126308 31.427089,25.9378485 31.3468054,26.2066071 C31.2792707,26.4332211 31.155572,26.6429081 31.0566819,26.8598495" id="Fill-32" fill="#FEFEFE"></path>
                        <path d="M27.805094,28.3329785 C28.6275699,28.8798229 29.4517686,29.4235582 30.3614193,29.8197872 C30.2738999,29.9002767 30.1770772,29.9728208 30.0998948,30.0622918 C29.5916619,30.6526627 29.1385593,30.7127706 28.7288719,29.9534757 C28.5727841,29.6636447 28.3419258,29.5579376 28.0345741,29.7959513 C27.9053624,29.8957858 27.735492,29.941385 27.5900857,30.0222198 C27.1607581,30.2595427 26.4778309,30.1386359 26.2752269,30.5811549 C26.0839935,30.999838 26.1704792,31.5757 26.2280215,32.0714181 C26.3110616,32.7823503 26.0957087,33.0770176 25.3535164,32.9568016 C24.7725804,32.8628398 23.9824936,33.2169241 23.6461985,32.8089498 C23.3615881,32.4638472 23.5428291,31.7052431 23.5752181,31.1328356 C23.6034725,30.6357357 23.5087172,30.3054873 22.9374289,30.2647244 C22.7544651,30.2519428 22.5618535,30.1738716 22.4019754,30.077837 C21.6935505,29.6525903 21.067821,29.5385925 20.6340141,30.4453938 C20.5175513,30.6885893 20.3535385,30.6329721 20.1809116,30.4723387 C19.9362707,30.2450339 19.6750906,30.0356923 19.4208019,29.8187509 C20.3359657,29.4335762 21.1508611,28.8742957 21.9760935,28.333324 C22.1724954,28.3191606 22.3544255,28.3689051 22.5315318,28.4521581 C24.1037804,29.1914171 25.6770626,29.1914171 27.2496558,28.4521581 C27.4264175,28.3692506 27.6083476,28.3191606 27.805094,28.3329785" id="Fill-34" fill="#FEFEFE"></path>
                        <path d="M23.6264894,4.83832628 C23.9993083,4.28733652 24.3287122,3.81718163 24.6395095,3.33493605 C24.8262636,3.04545052 24.9806285,3.05270493 25.1573902,3.33493605 C25.233539,3.45618834 25.329328,3.5650045 25.4123681,3.68211141 C25.6477057,4.01339616 25.8220555,4.52845931 26.13113,4.62863927 C26.4615675,4.73607363 26.6469433,4.15848437 26.9318983,3.91632524 C27.1593109,3.72321974 27.2888673,3.74671021 27.4246257,4.00026913 C28.0407074,5.15199317 28.2708766,6.34586188 27.7381796,7.58636609 C27.287489,8.63549204 25.947477,9.15642781 24.3132068,8.96988582 C22.8880873,8.8075252 22.1234983,8.16810073 21.8471574,6.96559581 C21.613198,5.94928744 21.8588726,5.02797729 22.2888893,4.11875784 C22.4908042,3.69178396 22.6758354,3.71872891 22.9390829,4.0524318 C23.1437543,4.31220879 23.3739235,4.55160433 23.6264894,4.83832628" id="Fill-36" fill="#FDFDFD"></path>
                        <path d="M13.1228489,29.501595 C9.16621274,27.4586148 7.67252489,24.7758647 8.22555119,20.5372162 C8.38060529,20.9217 8.49844641,21.2129127 8.6155984,21.5041255 C9.42911559,23.5270697 10.6612788,25.2328925 12.428551,26.5265957 C12.67078,26.7034652 12.8565004,26.8768801 12.8833764,27.2047104 C12.9440198,27.9422422 13.0349849,28.6773558 13.1228489,29.501595" id="Fill-38" fill="#DFE7F5"></path>
                        <path d="M41.70311,21.5731806 C41.6907057,22.5335264 41.6235156,23.4893813 41.3805975,24.4214003 C40.8630614,26.4066907 38.713667,28.7281021 36.6659191,29.4873971 C36.7551614,28.6593579 36.8471601,27.8606818 36.9236535,27.060624 C36.9508741,26.7749384 37.168639,26.6692313 37.3564267,26.5293248 C39.361104,25.0376798 40.6831986,23.0648256 41.4488213,20.6991968 C41.8853848,20.8878115 41.5118767,21.3130581 41.70311,21.5731806" id="Fill-40" fill="#DFE7F5"></path>
                        <path d="M9.19053901,17.5173778 C9.89241724,19.5282313 11.0663491,21.2343996 12.5497,22.7398625 C12.7013084,22.8939324 12.856018,23.0265845 12.8529169,23.2808343 C12.8415463,24.1831448 12.8484376,25.0858007 12.8484376,26.1335449 C9.75907072,23.8753505 8.6678344,20.9304053 8.94038506,17.3809258 C9.09716198,17.2914547 9.12713911,17.4348157 9.19053901,17.5173778" id="Fill-42" fill="#DFE7F5"></path>
                        <path d="M40.8405268,17.3807185 C41.1044634,20.7654192 40.1159073,23.6360931 37.3990149,25.794453 C37.2963346,25.8759788 37.2222532,26.0300486 36.9324744,25.9664862 C36.9324744,25.0869752 36.9393656,24.1843193 36.927995,23.2816634 C36.9248939,23.0274135 37.0806372,22.8951069 37.2319011,22.741037 C38.7145628,21.2345378 39.887461,19.5273332 40.5903729,17.5168251 C40.6544619,17.4352993 40.6844391,17.2919384 40.8405268,17.3807185" id="Fill-44" fill="#DFE7F5"></path>
                        <path d="M39.4654726,13.6461134 C40.0198772,16.9185435 39.4926932,19.878343 36.883305,22.3016616 C36.7186031,21.3295706 36.5656163,20.424151 36.4105622,19.5187315 C36.3802406,19.3404803 36.4236557,19.1947012 36.5480435,19.0582492 C37.2464761,18.2916998 37.8115622,17.4325703 38.2905071,16.5136783 C38.7673846,15.5982408 39.0933428,14.6230407 39.4654726,13.6461134" id="Fill-46" fill="#DFE7F5"></path>
                        <path d="M12.8974347,22.2969635 C10.2932149,19.8902264 9.75879506,16.9280088 10.2497997,13.6383063 C10.5078787,13.6908144 10.4637744,13.916392 10.5151145,14.0811708 C11.0688299,15.8640285 11.873733,17.5114706 13.1141658,18.9229717 C13.2761112,19.1070955 13.4208284,19.2742924 13.3694882,19.5544508 C13.2065092,20.4419071 13.061792,21.3324723 12.8974347,22.2969635" id="Fill-48" fill="#DFE7F5"></path>
                        <path d="M37.7444065,9.8512967 C38.7171126,12.5955366 38.6254584,16.3294853 36.2303894,18.5375897 C35.98058,17.7219867 35.7466206,16.931256 35.4923319,16.1474342 C35.4278983,15.9488015 35.5105938,15.8234038 35.6149969,15.6942062 C36.9481176,14.0498732 37.5163047,12.1257271 37.6785947,10.0513112 C37.6834186,9.9891305 37.7178751,9.92936798 37.7444065,9.8512967" id="Fill-50" fill="#DFE7F5"></path>
                        <path d="M12.086295,9.81329741 C12.246173,12.0638919 12.8088471,14.0215464 14.1643645,15.6845337 C14.3218305,15.8776392 14.3235534,16.0538177 14.2511948,16.2776681 C14.0168908,17.0038001 13.8005042,17.7361501 13.5765372,18.4678092 C11.6259566,17.214178 10.7862525,12.5748097 12.086295,9.81329741" id="Fill-52" fill="#DFE7F5"></path>
                        <path d="M32.6738962,28.116728 C32.2700664,27.7902795 31.8662366,27.4641765 31.4624068,27.137728 C31.6109142,26.5939927 31.8820866,26.3266158 32.4926552,26.568775 C33.0253522,26.7798438 33.4067853,26.6710276 33.3936918,25.9697679 C33.3836994,25.439505 33.6579729,25.1168565 34.1617265,24.9047514 C34.9304502,24.5810665 35.5992503,24.0687669 36.3504013,23.5471402 C36.4723771,24.5240675 36.421037,25.4426141 36.4062207,26.3601243 C36.4017414,26.6392464 36.1595124,26.6876091 35.9844736,26.7905527 C34.9483676,27.3999231 33.8430041,27.8393332 32.6738962,28.116728" id="Fill-54" fill="#DFE7F5"></path>
                        <path d="M18.31978,27.1414589 C17.9162947,27.466871 17.5131541,27.7926286 17.1096688,28.1180407 C15.9395272,27.8413368 14.8427779,27.3853452 13.7918556,26.800847 C13.4814029,26.6284684 13.3480563,26.4325993 13.3583933,26.0722969 C13.3821682,25.2625665 13.3659737,24.4514543 13.3659737,23.5128718 C14.2959537,24.1460782 15.1373807,24.7171039 16.0601249,25.1461505 C16.38057,25.2950386 16.3678211,25.6397959 16.3695439,25.8981911 C16.3740233,26.5821783 16.6799967,26.8060287 17.2905653,26.5766512 C17.8835611,26.3541826 18.1798867,26.5814875 18.31978,27.1414589" id="Fill-56" fill="#DFE7F5"></path>
                        <path d="M16.2211399,24.5889081 C15.198472,24.1322257 14.4545569,23.6188898 13.7292482,23.0706636 C13.5087268,22.9038122 13.4446378,22.725561 13.4835736,22.4568023 C13.6072723,21.6049273 13.7089189,20.7499432 13.8236589,19.8614506 C14.226455,19.9060134 14.4011493,20.2272801 14.6544044,20.4138221 C15.4069336,20.9689573 16.1859943,21.4774569 17.049818,21.8381047 C17.3874913,21.9790476 17.6397127,22.1075543 17.5129129,22.5573277 C17.4119554,22.9162483 17.4632956,23.3280225 16.887528,23.3097137 C16.0922727,23.2848415 15.7542548,23.6392712 16.2211399,24.5889081" id="Fill-58" fill="#DFE7F5"></path>
                        <path d="M35.8937152,19.7726704 C35.9712423,20.1460998 36.0370541,20.4179675 36.0832258,20.6932897 C36.4601796,22.9335207 36.4164198,23.0254099 34.4303491,24.1598616 C34.2043147,24.2890592 33.9686324,24.4016753 33.7174448,24.5322546 C33.7022839,24.4220567 33.6630036,24.3388037 33.6874677,24.2845683 C34.0444366,23.4945285 33.5403385,23.3121319 32.9459645,23.3173136 C32.3474556,23.3224953 32.3664067,22.9290299 32.2644156,22.5366008 C32.1424397,22.069555 32.4353196,21.9690296 32.7530083,21.832923 C33.8955847,21.343423 34.8996462,20.6276545 35.8937152,19.7726704" id="Fill-60" fill="#DFE7F5"></path>
                        <path d="M35.8116744,32.7352658 C36.0222034,31.961462 36.2213618,31.2076942 36.4384375,30.4594535 C36.4670364,30.3603099 36.5714395,30.2552937 36.667573,30.2076218 C38.2983976,29.4051459 39.621526,28.2040227 40.9008946,26.8861382 C40.7668589,29.3937461 38.3617975,32.154222 35.8116744,32.7352658" id="Fill-62" fill="#DFE6F5"></path>
                        <path d="M24.9585075,9.73888788 C25.7734029,9.73888788 26.5893321,9.76099656 27.4031938,9.72990623 C27.8414801,9.71332472 27.9910211,9.82594081 27.945194,10.2919503 C27.8256301,11.509655 28.0675145,11.2992771 26.8725642,11.3103314 C25.4105763,11.3241493 23.9472102,11.279932 22.486256,11.3255311 C21.5066586,11.3559305 21.9656187,10.6325622 21.8505341,10.2249334 C21.6972029,9.67947081 22.1017218,9.7361243 22.4414626,9.73750609 C23.2804775,9.74165147 24.1194925,9.73888788 24.9585075,9.73888788" id="Fill-64" fill="#DEE6F4"></path>
                        <path d="M13.914624,32.7386512 C11.3362466,32.0598456 9.27437159,29.7014713 8.81816797,26.8249247 C9.61411236,27.6256735 10.3476905,28.3721869 11.1911849,28.9922663 C11.3645009,29.1197366 11.5212778,29.2955697 11.7152677,29.3639684 C13.2857935,29.9166854 13.72787,31.2224793 13.914624,32.7386512" id="Fill-66" fill="#DFE6F5"></path>
                        <path d="M32.3830836,21.1377778 C33.3113409,20.5518977 33.309618,20.5529341 32.7548689,19.5853339 C32.5298682,19.1929048 32.1101884,18.7738763 32.1484351,18.4052831 C32.1908165,17.9910908 32.8620285,17.9955816 33.229679,17.7603315 C33.7127587,17.4511554 34.2051416,17.1547609 34.6182747,16.7557683 C34.8966829,16.4866642 35.0059099,16.4282835 35.1637205,16.8815114 C35.9472606,19.1296878 35.8566401,19.4329913 33.8020009,20.6779863 C33.4377961,20.8990731 33.0432695,21.0697245 32.6628701,21.2638663 C32.5133291,21.3471193 32.379638,21.3951366 32.3830836,21.1377778" id="Fill-68" fill="#DFE7F5"></path>
                        <path d="M17.1184552,21.2641427 C16.0868286,20.8406233 15.1954398,20.2039624 14.3633161,19.4691942 C14.1224654,19.2563982 14.0060026,19.0467112 14.1017915,18.7216445 C14.3167999,17.9913672 14.51458,17.2562536 14.7478503,16.4206146 C15.6285576,17.1920002 16.4937595,17.8203704 17.5057459,18.2007087 C17.8275693,18.3216156 17.6604555,18.4787945 17.5708687,18.6373552 C17.3227821,19.0757288 17.1070846,19.5386293 16.8114481,19.9424582 C16.4472433,20.439558 16.5444105,20.7373343 17.0929575,20.9497849 C17.202529,20.9919296 17.2965952,21.0738008 17.3978972,21.1377087 C17.4023765,21.3964493 17.2676517,21.3460139 17.1184552,21.2641427" id="Fill-70" fill="#DFE7F5"></path>
                        <path d="M16.6038479,28.600459 C16.1162889,29.1815027 15.6287299,29.7625465 15.1415154,30.3435902 C13.6726362,29.8803443 13.6719471,29.8803443 13.5299865,28.307519 C13.5020767,28.0011065 13.4807137,27.6940031 13.4428116,27.2159029 C14.4971795,27.8442731 15.5560267,28.2083754 16.6038479,28.600459" id="Fill-72" fill="#DEE6F4"></path>
                        <path d="M34.640568,30.3431757 C34.1523198,29.7624774 33.6644163,29.1814337 33.1761681,28.6007354 C34.2112404,28.1986337 35.2749115,27.8670035 36.2534752,27.2593603 C36.4143869,29.3783391 36.1511395,29.8664573 34.640568,30.3431757" id="Fill-74" fill="#DEE6F4"></path>
                        <path d="M41.70311,21.5731806 C41.5046408,21.3151308 41.7754686,20.9199382 41.4488213,20.6991968 C41.428492,20.5769082 41.4402072,20.448056 41.5639059,20.4024569 C41.7647871,20.328531 41.7248176,20.5123094 41.7255067,20.6028168 C41.7275741,20.9261562 41.7120687,21.2498411 41.70311,21.5731806" id="Fill-76" fill="#64668E"></path>
                        <path d="M17.1184552,21.2641427 C17.2114877,21.221998 17.3048647,21.1798533 17.3978972,21.1377087 C17.54606,21.1877986 17.8041389,21.2779606 17.6859533,21.4168308 C17.4985101,21.6372267 17.2969397,21.3795224 17.1184552,21.2641427" id="Fill-78" fill="#B4BAD1"></path>
                        <path d="M32.3830836,21.1377778 C32.4764607,21.1799224 32.5694931,21.2217217 32.6628701,21.2638663 C32.4847302,21.3785551 32.2845381,21.6372957 32.0967504,21.4168998 C31.9778756,21.2773388 32.2352654,21.1882132 32.3830836,21.1377778" id="Fill-80" fill="#B4BAD1"></path>
                        <path d="M36.835755,41.6066154 C36.7306628,41.549271 36.625226,41.4919266 36.5201338,41.4345822 C36.6951727,41.3385476 36.8929528,41.2286951 37.0524862,41.4045282 C37.1069274,41.4646362 36.9546299,41.5813976 36.835755,41.6066154" id="Fill-82" fill="#A0A5C0"></path>
                        <path d="M9.19053901,17.5173778 C9.10715436,17.4717787 9.02376971,17.4265249 8.94038506,17.3809258 C8.95037743,17.2679643 8.96002524,17.1553482 8.97001762,17.0423866 C9.13609779,17.1574209 9.19501835,17.3225451 9.19053901,17.5173778" id="Fill-84" fill="#A1A6C1"></path>
                        <path d="M40.8405268,17.3807185 C40.7571422,17.4259722 40.6737575,17.4712259 40.5903729,17.5168251 C40.5845153,17.320956 40.6458478,17.1568681 40.8115834,17.0418339 C40.8212312,17.1547955 40.830879,17.267757 40.8405268,17.3807185" id="Fill-86" fill="#A1A6C2"></path>
                        <path d="M13.2617773,41.4343404 C13.1566851,41.4916848 13.0512483,41.5490292 12.9461561,41.6063735 C12.8290041,41.5790831 12.6749837,41.4630126 12.7290804,41.4035955 C12.8886138,41.2291442 13.0867385,41.336924 13.2617773,41.4343404" id="Fill-88" fill="#9FA4C0"></path>
                        <path d="M20.0734074,37.2822612 C21.0619634,37.2822612 21.9230306,37.2566981 22.7816857,37.293661 C23.1806916,37.310588 23.3832956,37.1634271 23.5624693,36.8290333 C23.9580295,36.0908106 24.3918364,35.3733149 24.8835302,34.5204035 C25.3407675,35.3018071 25.7900799,35.9889034 26.1529065,36.7191808 C26.3813528,37.1796631 26.6731991,37.3161151 27.1614472,37.2926247 C27.9680731,37.2542799 28.7778001,37.2822612 29.6977878,37.2822612 C29.3384068,37.9168494 29.0892866,38.5231109 28.6964829,39.0133018 C28.0828132,39.7791602 28.1692989,40.4341299 28.7216361,41.1751161 C29.0865301,41.6642706 29.3404742,42.2363327 29.7043345,42.8778299 C28.7402426,42.8778299 27.8895124,42.9027022 27.0411942,42.867121 C26.6201361,42.8495032 26.3923789,43.0001185 26.2004564,43.3621482 C25.8100646,44.0972618 25.3755686,44.8092304 24.8959345,45.6410694 C24.4300831,44.8403207 23.9869729,44.1425155 23.6120866,43.4094746 C23.3936326,42.9825007 23.121771,42.8432851 22.6538522,42.8664301 C21.8430915,42.9068475 21.0292298,42.8778299 20.0730628,42.8778299 C20.5396034,42.0649905 20.9399875,41.315368 21.3930901,40.5995995 C21.6294615,40.2261701 21.6346299,39.9373755 21.3965357,39.5625643 C20.9499799,38.8592319 20.5564871,38.122391 20.0734074,37.2822612" id="Fill-90" fill="#1A1751"></path>
                        <path d="M24.846455,24.8625721 L24.8099312,24.8698266 C22.96272,21.1179145 22.9537613,17.3691115 24.7920138,13.6337809 C24.9429332,13.6002725 25.0011646,13.6596895 25.0466471,13.7543423 C26.7884215,17.3732568 26.7963465,20.9976985 25.0852384,24.6287038 C25.0352765,24.7351018 24.9915168,24.8518632 24.846455,24.8625721" id="Fill-92" fill="#D52027"></path>
                        <path d="M25.1555985,25.3538685 C25.5146349,26.1072908 26.1793001,26.625463 26.6454961,27.2959778 C26.935275,28.2048518 26.7592024,28.5361366 25.8529974,28.7423691 C25.2134853,28.8878028 24.567082,28.8878028 23.9279145,28.7420236 C23.022054,28.5354457 22.8470152,28.2055427 23.1361049,27.2949415 C23.6532965,26.64239 24.1915065,26.0053836 24.6780318,25.330378 C24.9023434,25.0187838 25.00399,25.2205255 25.1555985,25.3538685" id="Fill-94" fill="#DFE6F4"></path>
                        <path d="M23.1360016,27.2949069 C23.2404047,28.4984482 23.4178555,28.6300639 24.9267042,28.6228095 C26.3883475,28.6159005 26.5409896,28.4981027 26.6453927,27.2962887 C27.0319943,27.6417368 27.4182513,27.9875304 27.8048529,28.3329785 C26.0530861,29.4967932 23.7169376,29.4971387 21.9758523,28.333324 C22.3627984,27.987185 22.7494,27.6410459 23.1360016,27.2949069" id="Fill-96" fill="#1C1952"></path>
                        <path d="M24.8845984,4.74187716 C25.871087,6.32195687 26.0492269,6.39001015 26.8506844,5.55989831 C27.4030215,6.48742652 27.3489249,7.28610258 26.6939074,7.88441873 C25.855237,8.65062266 24.2785091,8.70278533 23.3705812,7.99427123 C22.4891848,7.30648402 22.3268948,6.33335666 22.9167895,5.13292443 C23.2606651,5.4621365 23.3195856,6.22937677 23.9959661,6.00587184 C24.4966185,5.84074764 24.5965423,5.24692231 24.8845984,4.74187716" id="Fill-98" fill="#D52027"></path>
                    </g>
                </g>
            </g>
        </g>
    </g>
</svg>