<?xml version="1.0" encoding="utf-8"?>
<!-- Generator: Adobe Illustrator 23.0.3, SVG Export Plug-In . SVG Version: 6.00 Build 0)  -->
<svg version="1.1" id="Layer_1" xmlns="http://www.w3.org/2000/svg" xmlns:xlink="http://www.w3.org/1999/xlink" x="0px" y="0px"
	 viewBox="0 0 412 105" style="enable-background:new 0 0 412 105;" xml:space="preserve">
<style type="text/css">
	.st0{opacity:0.15;}
	.st1{fill:#C9C9C9;}
	.st2{clip-path:url(#SVGID_2_);}
	.st3{clip-path:url(#SVGID_22_);}
	.st4{fill:#FFFFFF;}
	.st5{opacity:0.2;}
	.st6{clip-path:url(#SVGID_24_);}
	.st7{clip-path:url(#SVGID_26_);}
	.st8{clip-path:url(#SVGID_28_);}
	.st9{clip-path:url(#SVGID_30_);}
	.st10{clip-path:url(#SVGID_32_);}
	.st11{clip-path:url(#SVGID_34_);}
	.st12{clip-path:url(#SVGID_36_);}
	.st13{clip-path:url(#SVGID_38_);}
	.st14{clip-path:url(#SVGID_40_);}
	.st15{clip-path:url(#SVGID_42_);}
</style>
<title>ARkit_Badges</title>
<g class="st0">
	
		<image style="overflow:visible;opacity:0.17;" width="429" height="122" xlink:href="E54F060B.png"  transform="matrix(1 0 0 1 -8.5039 -8.5039)">
	</image>
	<g>
		<path class="st1" d="M14.3,0h383.5c7.9,0,14.3,6.4,14.3,14.3v76.5c0,7.9-6.4,14.3-14.3,14.3H14.3C6.4,105,0,98.6,0,90.7V14.2
			C0,6.4,6.4,0,14.3,0z"/>
	</g>
</g>
<g>
	
		<image style="overflow:visible;opacity:9.000000e-02;" width="78" height="88" xlink:href="E54F060C.png"  transform="matrix(1 0 0 1 13.4961 8.4961)">
	</image>
	<g>
		<g>
			<defs>
				<rect id="SVGID_1_" x="22.4" y="17.8" width="60.3" height="69.2"/>
			</defs>
			<clipPath id="SVGID_2_">
				<use xlink:href="#SVGID_1_"  style="overflow:visible;"/>
			</clipPath>
			<g class="st2">
				<g>
					<g>
						<defs>
							<rect id="SVGID_3_" x="23" y="18.4" width="30.4" height="18.2"/>
						</defs>
						<clipPath id="SVGID_4_">
							<use xlink:href="#SVGID_3_"  style="overflow:visible;"/>
						</clipPath>
					</g>
				</g>
				<g>
					<g>
						<defs>
							<rect id="SVGID_5_" x="23" y="35" width="59" height="34.8"/>
						</defs>
						<clipPath id="SVGID_6_">
							<use xlink:href="#SVGID_5_"  style="overflow:visible;"/>
						</clipPath>
					</g>
				</g>
				<g>
					<g>
						<defs>
							<rect id="SVGID_7_" x="51.7" y="18.4" width="30.3" height="18.2"/>
						</defs>
						<clipPath id="SVGID_8_">
							<use xlink:href="#SVGID_7_"  style="overflow:visible;"/>
						</clipPath>
					</g>
				</g>
				<g>
					<g>
						<defs>
							<rect id="SVGID_9_" x="23" y="35" width="59" height="34.8"/>
						</defs>
						<clipPath id="SVGID_10_">
							<use xlink:href="#SVGID_9_"  style="overflow:visible;"/>
						</clipPath>
					</g>
				</g>
				<g>
					<g>
						<defs>
							<rect id="SVGID_11_" x="23" y="68.1" width="30.4" height="18.3"/>
						</defs>
						<clipPath id="SVGID_12_">
							<use xlink:href="#SVGID_11_"  style="overflow:visible;"/>
						</clipPath>
					</g>
				</g>
				<g>
					<g>
						<defs>
							<rect id="SVGID_13_" x="51.7" y="68.1" width="30.3" height="18.3"/>
						</defs>
						<clipPath id="SVGID_14_">
							<use xlink:href="#SVGID_13_"  style="overflow:visible;"/>
						</clipPath>
					</g>
				</g>
				<g>
					<g>
						<defs>
							<rect id="SVGID_15_" x="23" y="35" width="1.6" height="34.8"/>
						</defs>
						<clipPath id="SVGID_16_">
							<use xlink:href="#SVGID_15_"  style="overflow:visible;"/>
						</clipPath>
					</g>
				</g>
				<g>
					<g>
						<defs>
							<rect id="SVGID_17_" x="80.3" y="35" width="1.7" height="34.8"/>
						</defs>
						<clipPath id="SVGID_18_">
							<use xlink:href="#SVGID_17_"  style="overflow:visible;"/>
						</clipPath>
					</g>
				</g>
				<g>
					<g>
						<defs>
							<rect id="SVGID_19_" x="51.7" y="18.4" width="1.6" height="67.9"/>
						</defs>
						<clipPath id="SVGID_20_">
							<use xlink:href="#SVGID_19_"  style="overflow:visible;"/>
						</clipPath>
					</g>
				</g>
			</g>
		</g>
		<g>
			<defs>
				<rect id="SVGID_21_" x="22.4" y="17.8" width="60.3" height="69.2"/>
			</defs>
			<clipPath id="SVGID_22_">
				<use xlink:href="#SVGID_21_"  style="overflow:visible;"/>
			</clipPath>
			<g class="st3">
				<path class="st4" d="M60.8,25.5c-0.3,0-0.5-0.1-0.7-0.2l-7.6-4.4l-7.7,4.4c-0.7,0.4-1.6,0.2-2-0.5c-0.4-0.7-0.2-1.6,0.5-2
					l8.4-4.8c0.4-0.3,1-0.3,1.4,0l8.4,4.8c0.7,0.4,0.9,1.3,0.5,2C61.9,25.2,61.4,25.5,60.8,25.5"/>
				<path class="st4" d="M52.5,63.5c-0.8,0-1.4-0.6-1.4-1.4c0,0,0,0,0-0.1v-9.6c0-0.8,0.6-1.4,1.4-1.4c0.8,0,1.4,0.6,1.4,1.4V62
					C53.9,62.8,53.3,63.4,52.5,63.5"/>
				<path class="st4" d="M23.8,46.9c-0.8,0-1.4-0.6-1.4-1.4v-9.7c0-0.8,0.6-1.4,1.4-1.4c0.8,0,1.4,0.6,1.4,1.4c0,0,0,0,0,0v9.7
					C25.2,46.2,24.6,46.9,23.8,46.9"/>
				<path class="st4" d="M81.2,46.9c-0.8,0-1.4-0.6-1.4-1.4l0,0v-9.7c0-0.8,0.6-1.4,1.4-1.4s1.4,0.6,1.4,1.4c0,0,0,0,0,0v9.7
					C82.6,46.2,82,46.9,81.2,46.9L81.2,46.9"/>
				<path class="st4" d="M81.2,70.4c-0.8,0-1.4-0.6-1.4-1.4v-9.7c0-0.8,0.6-1.4,1.4-1.4l0,0l0,0c0.8,0,1.4,0.6,1.4,1.4l0,0V69
					C82.6,69.8,82,70.4,81.2,70.4C81.2,70.4,81.2,70.4,81.2,70.4L81.2,70.4z"/>
				<path class="st4" d="M23.8,70.4c-0.8,0-1.4-0.6-1.4-1.4v-9.7c0-0.8,0.6-1.4,1.4-1.4s1.4,0.6,1.4,1.4V69
					C25.2,69.8,24.6,70.4,23.8,70.4C23.8,70.4,23.8,70.4,23.8,70.4"/>
				<path class="st4" d="M52.5,31.2c-0.8,0-1.4-0.6-1.4-1.4V19.2c0-0.8,0.6-1.4,1.4-1.4c0.8,0,1.4,0.6,1.4,1.4v10.5
					C53.9,30.6,53.3,31.2,52.5,31.2L52.5,31.2"/>
				<path class="st4" d="M52.5,87c-0.8,0-1.4-0.6-1.4-1.4l0,0v-9.6c0-0.8,0.6-1.4,1.4-1.4c0.8,0,1.4,0.6,1.4,1.4v9.7
					C53.9,86.4,53.3,87,52.5,87"/>
				<path class="st4" d="M52.5,87c-0.3,0-0.5-0.1-0.7-0.2L43.4,82c-0.7-0.4-0.9-1.3-0.5-2c0.4-0.7,1.3-0.9,2-0.5l7.7,4.4l7.6-4.4
					c0.7-0.3,1.6,0.1,1.8,0.9c0.2,0.6,0,1.2-0.4,1.6l-8.3,4.8C53,86.9,52.8,87,52.5,87"/>
				<path class="st4" d="M52.5,53.8c-0.3,0-0.5-0.1-0.7-0.2l-8.4-4.8c-0.7-0.4-0.9-1.3-0.5-2c0.4-0.7,1.3-0.9,2-0.5l7.7,4.4l7.6-4.4
					c0.7-0.4,1.6-0.1,1.9,0.6c0.3,0.7,0.1,1.5-0.5,1.9l-8.4,4.8C53,53.7,52.8,53.8,52.5,53.8"/>
				<path class="st4" d="M72.8,42.1c-0.8,0-1.4-0.6-1.4-1.4c0-0.5,0.3-1,0.7-1.3l8.4-4.8c0.7-0.3,1.6,0.1,1.9,0.8
					c0.2,0.6,0.1,1.2-0.4,1.6l-8.4,4.8C73.3,42,73.1,42,72.8,42.1"/>
				<path class="st4" d="M81.2,37.2c-0.3,0-0.5-0.1-0.7-0.2l-8.4-4.8c-0.7-0.4-0.9-1.3-0.5-2s1.3-0.9,2-0.5l8.4,4.8
					c0.7,0.4,0.9,1.3,0.5,2C82.2,37,81.7,37.2,81.2,37.2"/>
				<path class="st4" d="M32.2,42.1c-0.3,0-0.5-0.1-0.7-0.2L23.1,37c-0.7-0.4-0.9-1.3-0.5-2c0.4-0.7,1.3-0.9,2-0.5l8.4,4.8
					c0.7,0.4,0.9,1.3,0.5,2C33.2,41.7,32.7,42,32.2,42.1"/>
				<path class="st4" d="M23.8,37.2c-0.8,0-1.4-0.6-1.4-1.4c0-0.5,0.3-1,0.7-1.3l8.4-4.8c0.7-0.4,1.6-0.2,2,0.5
					c0.4,0.7,0.2,1.6-0.5,2L24.5,37C24.3,37.1,24.1,37.2,23.8,37.2"/>
				<path class="st4" d="M72.8,75.2c-0.8,0-1.4-0.6-1.4-1.4c0-0.5,0.3-1,0.7-1.3l8.4-4.8c0.7-0.4,1.6-0.2,2,0.5s0.2,1.6-0.5,2l0,0
					L73.5,75C73.3,75.2,73.1,75.2,72.8,75.2"/>
				<path class="st4" d="M81.2,70.4c-0.3,0-0.5-0.1-0.7-0.2l-8.4-4.8c-0.7-0.4-0.9-1.3-0.5-2c0.4-0.7,1.3-0.9,2-0.5l8.4,4.8
					c0.7,0.4,0.9,1.3,0.5,2C82.2,70.1,81.7,70.4,81.2,70.4"/>
				<path class="st4" d="M32.2,75.2c-0.3,0-0.5-0.1-0.7-0.2l-8.4-4.8c-0.7-0.4-0.9-1.3-0.5-2c0.4-0.7,1.3-0.9,2-0.5l8.4,4.8
					c0.7,0.4,0.9,1.3,0.5,2C33.2,75,32.7,75.3,32.2,75.2"/>
				<path class="st4" d="M23.8,70.4c-0.8,0-1.4-0.6-1.4-1.4c0-0.5,0.3-1,0.7-1.3l8.4-4.8c0.7-0.4,1.6-0.2,2,0.5
					c0.4,0.7,0.2,1.6-0.5,2l0,0l-8.4,4.8C24.3,70.3,24.1,70.4,23.8,70.4"/>
				<g class="st5">
					<g>
						<defs>
							<rect id="SVGID_23_" x="23" y="18.4" width="30.4" height="18.2"/>
						</defs>
						<clipPath id="SVGID_24_">
							<use xlink:href="#SVGID_23_"  style="overflow:visible;"/>
						</clipPath>
						<g class="st6">
							<path class="st4" d="M23.8,36.6c-0.5,0-0.8-0.4-0.8-0.8c0-0.3,0.2-0.6,0.4-0.7l28.7-16.6c0.4-0.2,0.9-0.1,1.1,0.3
								c0.2,0.4,0.1,0.9-0.3,1.1L24.2,36.5C24.1,36.6,23.9,36.6,23.8,36.6"/>
						</g>
					</g>
				</g>
				<g class="st5">
					<g>
						<defs>
							<rect id="SVGID_25_" x="23" y="35" width="59" height="34.8"/>
						</defs>
						<clipPath id="SVGID_26_">
							<use xlink:href="#SVGID_25_"  style="overflow:visible;"/>
						</clipPath>
						<g class="st7">
							<path class="st4" d="M23.8,69.8c-0.5,0-0.8-0.4-0.8-0.8c0-0.3,0.2-0.6,0.4-0.7l57.4-33.2c0.4-0.2,0.9-0.1,1.1,0.3
								c0.2,0.4,0.1,0.9-0.3,1.1L24.2,69.7C24.1,69.8,23.9,69.8,23.8,69.8"/>
						</g>
					</g>
				</g>
				<g class="st5">
					<g>
						<defs>
							<rect id="SVGID_27_" x="51.7" y="18.4" width="30.3" height="18.2"/>
						</defs>
						<clipPath id="SVGID_28_">
							<use xlink:href="#SVGID_27_"  style="overflow:visible;"/>
						</clipPath>
						<g class="st8">
							<path class="st4" d="M81.2,36.6c-0.1,0-0.3,0-0.4-0.1L52.1,19.9c-0.4-0.2-0.5-0.7-0.3-1.1c0.2-0.4,0.7-0.5,1.1-0.3l28.7,16.6
								c0.4,0.2,0.5,0.7,0.3,1.1C81.7,36.5,81.5,36.6,81.2,36.6"/>
						</g>
					</g>
				</g>
				<g class="st5">
					<g>
						<defs>
							<rect id="SVGID_29_" x="23" y="35" width="59" height="34.8"/>
						</defs>
						<clipPath id="SVGID_30_">
							<use xlink:href="#SVGID_29_"  style="overflow:visible;"/>
						</clipPath>
						<g class="st9">
							<path class="st4" d="M81.2,69.8c-0.1,0-0.3,0-0.4-0.1L23.4,36.5c-0.4-0.2-0.5-0.7-0.3-1.1c0.2-0.4,0.7-0.5,1.1-0.3l57.4,33.2
								c0.4,0.2,0.5,0.7,0.3,1.1C81.7,69.6,81.5,69.8,81.2,69.8"/>
						</g>
					</g>
				</g>
				<g class="st5">
					<g>
						<defs>
							<rect id="SVGID_31_" x="23" y="68.1" width="30.4" height="18.3"/>
						</defs>
						<clipPath id="SVGID_32_">
							<use xlink:href="#SVGID_31_"  style="overflow:visible;"/>
						</clipPath>
						<g class="st10">
							<path class="st4" d="M52.5,86.4c-0.1,0-0.3,0-0.4-0.1L23.4,69.7c-0.4-0.2-0.5-0.7-0.3-1.1c0.2-0.4,0.7-0.5,1.1-0.3l28.7,16.6
								c0.4,0.2,0.5,0.7,0.3,1.1C53.1,86.2,52.8,86.4,52.5,86.4"/>
						</g>
					</g>
				</g>
				<g class="st5">
					<g>
						<defs>
							<rect id="SVGID_33_" x="51.7" y="68.1" width="30.3" height="18.3"/>
						</defs>
						<clipPath id="SVGID_34_">
							<use xlink:href="#SVGID_33_"  style="overflow:visible;"/>
						</clipPath>
						<g class="st11">
							<path class="st4" d="M52.5,86.4c-0.5,0-0.8-0.4-0.8-0.8c0-0.3,0.2-0.6,0.4-0.7l28.7-16.6c0.4-0.2,0.9-0.1,1.1,0.3
								c0.2,0.4,0.1,0.9-0.3,1.1L52.9,86.3C52.8,86.4,52.7,86.4,52.5,86.4"/>
						</g>
					</g>
				</g>
				<g class="st5">
					<g>
						<defs>
							<rect id="SVGID_35_" x="23" y="35" width="1.6" height="34.8"/>
						</defs>
						<clipPath id="SVGID_36_">
							<use xlink:href="#SVGID_35_"  style="overflow:visible;"/>
						</clipPath>
						<g class="st12">
							<path class="st4" d="M23.8,69.8c-0.4,0-0.8-0.4-0.8-0.8V35.8c0-0.5,0.4-0.8,0.8-0.8s0.8,0.4,0.8,0.8c0,0,0,0,0,0V69
								C24.6,69.5,24.3,69.8,23.8,69.8"/>
						</g>
					</g>
				</g>
				<g class="st5">
					<g>
						<defs>
							<rect id="SVGID_37_" x="80.3" y="35" width="1.7" height="34.8"/>
						</defs>
						<clipPath id="SVGID_38_">
							<use xlink:href="#SVGID_37_"  style="overflow:visible;"/>
						</clipPath>
						<g class="st13">
							<path class="st4" d="M81.2,69.8c-0.5,0-0.8-0.4-0.8-0.8V35.8c0-0.5,0.4-0.8,0.8-0.8s0.8,0.4,0.8,0.8c0,0,0,0,0,0V69
								C82,69.5,81.6,69.8,81.2,69.8"/>
						</g>
					</g>
				</g>
				<g class="st5">
					<g>
						<defs>
							<rect id="SVGID_39_" x="51.7" y="18.4" width="1.6" height="67.9"/>
						</defs>
						<clipPath id="SVGID_40_">
							<use xlink:href="#SVGID_39_"  style="overflow:visible;"/>
						</clipPath>
						<g class="st14">
							<path class="st4" d="M52.5,86.3c-0.5,0-0.8-0.4-0.8-0.8V19.2c0-0.5,0.4-0.8,0.8-0.8c0.5,0,0.8,0.4,0.8,0.8v66.3
								C53.3,85.9,53,86.3,52.5,86.3"/>
						</g>
					</g>
				</g>
			</g>
		</g>
		<g>
			<defs>
				<rect id="SVGID_41_" x="22.4" y="17.8" width="60.3" height="69.2"/>
			</defs>
			<clipPath id="SVGID_42_">
				<use xlink:href="#SVGID_41_"  style="overflow:visible;"/>
			</clipPath>
			<g class="st15">
				<g>
					<g>
						<defs>
							<rect id="SVGID_43_" x="23" y="18.4" width="30.4" height="18.2"/>
						</defs>
						<clipPath id="SVGID_44_">
							<use xlink:href="#SVGID_43_"  style="overflow:visible;"/>
						</clipPath>
					</g>
				</g>
				<g>
					<g>
						<defs>
							<rect id="SVGID_45_" x="23" y="35" width="59" height="34.8"/>
						</defs>
						<clipPath id="SVGID_46_">
							<use xlink:href="#SVGID_45_"  style="overflow:visible;"/>
						</clipPath>
					</g>
				</g>
				<g>
					<g>
						<defs>
							<rect id="SVGID_47_" x="51.7" y="18.4" width="30.3" height="18.2"/>
						</defs>
						<clipPath id="SVGID_48_">
							<use xlink:href="#SVGID_47_"  style="overflow:visible;"/>
						</clipPath>
					</g>
				</g>
				<g>
					<g>
						<defs>
							<rect id="SVGID_49_" x="23" y="35" width="59" height="34.8"/>
						</defs>
						<clipPath id="SVGID_50_">
							<use xlink:href="#SVGID_49_"  style="overflow:visible;"/>
						</clipPath>
					</g>
				</g>
				<g>
					<g>
						<defs>
							<rect id="SVGID_51_" x="23" y="68.1" width="30.4" height="18.3"/>
						</defs>
						<clipPath id="SVGID_52_">
							<use xlink:href="#SVGID_51_"  style="overflow:visible;"/>
						</clipPath>
					</g>
				</g>
				<g>
					<g>
						<defs>
							<rect id="SVGID_53_" x="51.7" y="68.1" width="30.3" height="18.3"/>
						</defs>
						<clipPath id="SVGID_54_">
							<use xlink:href="#SVGID_53_"  style="overflow:visible;"/>
						</clipPath>
					</g>
				</g>
				<g>
					<g>
						<defs>
							<rect id="SVGID_55_" x="23" y="35" width="1.6" height="34.8"/>
						</defs>
						<clipPath id="SVGID_56_">
							<use xlink:href="#SVGID_55_"  style="overflow:visible;"/>
						</clipPath>
					</g>
				</g>
				<g>
					<g>
						<defs>
							<rect id="SVGID_57_" x="80.3" y="35" width="1.7" height="34.8"/>
						</defs>
						<clipPath id="SVGID_58_">
							<use xlink:href="#SVGID_57_"  style="overflow:visible;"/>
						</clipPath>
					</g>
				</g>
				<g>
					<g>
						<defs>
							<rect id="SVGID_59_" x="51.7" y="18.4" width="1.6" height="67.9"/>
						</defs>
						<clipPath id="SVGID_60_">
							<use xlink:href="#SVGID_59_"  style="overflow:visible;"/>
						</clipPath>
					</g>
				</g>
			</g>
		</g>
	</g>
</g>
<g>
	
		<image style="overflow:visible;opacity:0.17;" width="45" height="34" xlink:href="E54F060F.png"  transform="matrix(1 0 0 1 53.2154 61.3622)">
	</image>
	<g>
		<g>
			<path class="st4" d="M67.7,70.4l-5.8,15.7h3.4l1.4-4.1h4.6l1.4,4.1h3.4l-5.8-15.7H67.7z M70.4,79.1h-2.6l1.3-3.6L70.4,79.1z"/>
			<path class="st4" d="M85.9,79.8c1.6-0.8,2.6-2.5,2.6-4.4c0-3-2.1-5-5.3-5H77v15.7h3.2l0-5.6h2.3l3,5.6h3.8L85.9,79.8z M80.2,73.5
				h2.7c1.5,0,2.2,0.7,2.2,2c0,1.3-0.7,2-2.1,2h-2.8V73.5z"/>
		</g>
	</g>
</g>
<g>
	
		<image style="overflow:visible;opacity:0.17;" width="304" height="53" xlink:href="E54F060A.png"  transform="matrix(1 0 0 1 91.4961 27.4961)">
	</image>
	<g>
		<g>
			<path class="st4" d="M110.5,46.1h-9.9v-3.5h14.3v28.5h-4.4V46.1z"/>
			<path class="st4" d="M136,45.4l-7.3,18.3h-4.8l7.3-17.6h-11.8v-9.7h4.5v6.2H136V45.4z"/>
			<path class="st4" d="M144.7,59.3c1.1,0.5,2.2,0.8,3.4,1.1c1.2,0.3,2.3,0.4,3.4,0.4c1.7,0,3.2-0.2,4.5-0.7
				c1.3-0.5,2.3-1.2,3.1-2.2c0.7-1,1.1-2.2,1.1-3.7V42.6h4.4v12c0,2.1-0.6,3.9-1.7,5.4c-1.1,1.5-2.7,2.6-4.6,3.3
				c-1.9,0.7-4.1,1.1-6.5,1.1c-1.9,0-3.8-0.2-5.8-0.7s-3.9-1.1-5.6-1.9V42.6h4.4V59.3z M149.9,55.5c0.2-0.8,0.3-1.8,0.3-2.8V42.6
				h4.4v9.2c0,1.2-0.1,2.3-0.4,3.3s-0.7,1.8-1.3,2.4l-3.7-0.1C149.5,56.9,149.7,56.3,149.9,55.5z"/>
			<path class="st4" d="M195.5,60.3v3.4h-17.8v-3.6h10.8v-9.9c0-1.4-0.3-2.5-1-3.1c-0.7-0.7-1.8-1-3.2-1h-5.4v-3.5h5.7
				c2.7,0,4.8,0.7,6.3,2c1.5,1.3,2.2,3.3,2.2,5.8V60L195.5,60.3z"/>
			<path class="st4" d="M199.3,42.6h8.6c5.6,0,8.4,2.7,8.4,8v13.1h-4.5l0-13.4c0-1.4-0.3-2.5-0.9-3.2c-0.6-0.7-1.6-1-2.9-1h-4.1
				v17.6h-4.5L199.3,42.6z"/>
			<path class="st4" d="M229.8,49.4c0-1-0.3-1.8-0.9-2.4c-0.6-0.6-1.4-0.9-2.5-0.9h-6.7v-3.5h7c1.6,0,3,0.3,4.1,0.8
				c1.1,0.6,2,1.4,2.6,2.4c0.6,1.1,0.9,2.3,0.9,3.8v14.1h-4.5V49.4z"/>
			<path class="st4" d="M241.2,51.1c0.1-1,0.4-1.9,0.8-2.7s0.9-1.5,1.4-2c0.1-0.1,0.2-0.2,0.3-0.2l0-0.1c-0.5,0.1-1.1,0.2-1.8,0.4
				c-0.7,0.2-1.4,0.4-1.9,0.6l-1-3.3c1.4-0.5,3-0.9,4.7-1.2c1.8-0.3,3.4-0.5,5-0.5c3,0,5.4,0.8,7,2.4s2.4,3.9,2.4,7v12.3h-9v-3.5
				h4.5v-9.3c0-1.6-0.3-2.9-1-3.8c-0.7-0.9-1.7-1.3-3-1.3c-1.1,0-1.9,0.4-2.6,1.2c-0.7,0.8-1.1,2-1.2,3.5l-1.4,13.2h-4.5L241.2,51.1
				z"/>
			<path class="st4" d="M279.3,60.3v3.4h-17.8v-3.6h10.8v-9.9c0-1.4-0.3-2.5-1-3.1c-0.7-0.7-1.8-1-3.2-1h-5.4v-3.5h5.7
				c2.7,0,4.8,0.7,6.3,2c1.5,1.3,2.2,3.3,2.2,5.8V60L279.3,60.3z"/>
			<path class="st4" d="M291.7,56.5c0-1.2,0.1-2.1,0.3-2.7c0.2-0.7,0.5-1.2,0.8-1.8h3.6c-0.3,1-0.4,2.4-0.4,4.1v7.6h-4.4V56.5z
				 M304.2,50.2c0-1.4-0.3-2.5-1-3.1c-0.7-0.7-1.8-1-3.2-1h-8.2v-3.5h8.5c2.7,0,4.8,0.7,6.3,2s2.2,3.3,2.2,5.8v13.3h-4.5V50.2z"/>
			<path class="st4" d="M315.7,46.1h-3.6v-3.5h8.1v11.9h-4.5V46.1z"/>
			<path class="st4" d="M327.4,51.1c0.1-1,0.4-1.9,0.8-2.7s0.9-1.5,1.4-2c0.1-0.1,0.2-0.2,0.3-0.2l0-0.1c-0.5,0.1-1.1,0.2-1.8,0.4
				c-0.7,0.2-1.4,0.4-1.9,0.6l-1-3.3c1.4-0.5,3-0.9,4.7-1.2c1.8-0.3,3.4-0.5,5-0.5c3,0,5.4,0.8,7,2.4s2.4,3.9,2.4,7v12.3h-9v-3.5
				h4.5v-9.3c0-1.6-0.3-2.9-1-3.8c-0.7-0.9-1.7-1.3-3-1.3c-1.1,0-1.9,0.4-2.6,1.2c-0.7,0.8-1.1,2-1.2,3.5l-1.4,13.2h-4.5L327.4,51.1
				z"/>
			<path class="st4" d="M365.4,42.6v3.5h-3.6v17.6h-4.5V46.1h-9.5v-3.5H365.4z"/>
			<path class="st4" d="M369.2,56.5c0-1.2,0.1-2.1,0.3-2.7c0.2-0.7,0.5-1.2,0.8-1.8h3.6c-0.3,1-0.4,2.4-0.4,4.1v7.6h-4.4V56.5z
				 M381.7,50.2c0-1.4-0.3-2.5-1-3.1c-0.7-0.7-1.8-1-3.2-1h-8.2v-3.5h8.5c2.7,0,4.8,0.7,6.3,2s2.2,3.3,2.2,5.8v13.3h-4.5V50.2z"/>
		</g>
	</g>
</g>
</svg>
