<?xml version="1.0" encoding="UTF-8" standalone="no"?>
<!-- Created with Inkscape (http://www.inkscape.org/) -->

<svg
   xmlns:dc="http://purl.org/dc/elements/1.1/"
   xmlns:cc="http://creativecommons.org/ns#"
   xmlns:rdf="http://www.w3.org/1999/02/22-rdf-syntax-ns#"
   xmlns:svg="http://www.w3.org/2000/svg"
   xmlns="http://www.w3.org/2000/svg"
   xmlns:sodipodi="http://sodipodi.sourceforge.net/DTD/sodipodi-0.dtd"
   xmlns:inkscape="http://www.inkscape.org/namespaces/inkscape"
   version="1.1"
   id="svg2"
   xml:space="preserve"
   viewBox="0 0 20 8"
   sodipodi:docname="drone.svg"
   inkscape:version="0.92.4 (5da689c313, 2019-01-14)"><metadata
     id="metadata8"><rdf:RDF><cc:Work
         rdf:about=""><dc:format>image/svg+xml</dc:format><dc:type
           rdf:resource="http://purl.org/dc/dcmitype/StillImage" /><dc:title></dc:title></cc:Work></rdf:RDF></metadata><defs
     id="defs6"><clipPath
       clipPathUnits="userSpaceOnUse"
       id="clipPath20"><path
         d="M 0,6 H 15 V 0.5 H 0 Z"
         id="path18"
         inkscape:connector-curvature="0"
         style="clip-rule:evenodd" /></clipPath><clipPath
       clipPathUnits="userSpaceOnUse"
       id="clipPath26"><path
         d="M 0,0 H 15 V 7 H 0 Z"
         id="path24"
         inkscape:connector-curvature="0" /></clipPath><clipPath
       clipPathUnits="userSpaceOnUse"
       id="clipPath30"><path
         d="m 12.92415,5.699318 -0.02323,0.14815 c -1.5e-4,0.00165 -4.5e-4,0.00347 -7.6e-4,0.00513 -0.03035,0.196431 -0.30054,0.196597 -0.33105,1.65e-4 -3e-4,-0.00182 -4.5e-4,-0.00347 -7.5e-4,-0.00529 L 12.54604,5.699318 10.47019,5.68361 c 0,0 0.16272,-0.326725 0.37977,-0.318458 l 1.3453,-0.018518 V 4.294038 H 9.556273 L 9.323126,4.626385 C 8.854708,5.294219 8.114438,5.692869 7.342899,5.692869 c -0.771538,0 -1.511657,-0.39865 -1.979923,-1.066484 L 5.129829,4.294038 H 2.803526 v 1.052596 l 1.34636,0.018518 C 4.366943,5.356885 4.529659,5.68361 4.529659,5.68361 L 2.453806,5.699318 2.430582,5.847468 c -3.03e-4,0.00165 -6.07e-4,0.00347 -9.1e-4,0.00513 C 2.399314,6.049025 2.129283,6.049191 2.098925,5.852759 2.098622,5.85094 2.098318,5.849287 2.098015,5.847468 L 2.07555,5.699318 0,5.68361 c 0,0 0.1627168,-0.326725 0.3794702,-0.318458 L 1.72492,5.346634 V 4.294038 H 0.9066301 C 0.8535043,4.294038 0.8040214,4.263615 0.7766995,4.214176 0.7492259,4.164407 0.7475562,4.102733 0.7722977,4.051475 0.9259072,3.734672 1.105472,3.487148 1.305681,3.31618 1.517577,3.133307 1.744804,3.040713 1.981138,3.040713 H 4.34463 c 0.305397,0 0.591821,-0.173779 0.765771,-0.464624 C 5.184928,2.451749 5.269778,2.336337 5.362369,2.228862 4.952086,1.828393 4.645474,1.304245 4.493078,0.7098246 4.46606,0.6044989 4.538463,0.5 4.638795,0.5 4.706796,0.5 4.766145,0.5494386 4.78436,0.6207029 4.923094,1.16337 5.206027,1.640229 5.584131,2.002007 6.046478,1.585664 6.656969,1.349054 7.318006,1.349054 c 0.661341,0 1.271681,0.23661 1.734179,0.652953 C 9.430137,1.640229 9.713222,1.16337 9.852108,0.6207029 9.870322,0.5494386 9.92952,0.5 9.997521,0.5 10.09785,0.5 10.1701,0.6044989 10.14324,0.7098246 9.990994,1.304245 9.68423,1.828393 9.273947,2.228862 9.366538,2.336337 9.451387,2.451749 9.525763,2.576089 9.699864,2.866934 9.986288,3.040713 10.29169,3.040713 h 2.66828 c 0.23466,0 0.46174,0.092428 0.67561,0.275467 0.20263,0.174771 0.38174,0.422295 0.53217,0.735957 0.02443,0.051257 0.02276,0.112766 -0.0047,0.16237 -0.02762,0.049273 -0.0768,0.079531 -0.12978,0.079531 h -0.75924 v 1.052596 l 1.34636,0.018518 C 14.83728,5.356885 15,5.68361 15,5.68361 Z"
         id="path28"
         inkscape:connector-curvature="0"
         style="clip-rule:evenodd" /></clipPath><clipPath
       clipPathUnits="userSpaceOnUse"
       id="clipPath34"><path
         d="M 0,0 H 15 V 6 H 0 Z"
         id="path32"
         inkscape:connector-curvature="0" /></clipPath></defs><sodipodi:namedview
     pagecolor="#ffffff"
     bordercolor="#666666"
     borderopacity="1"
     objecttolerance="10"
     gridtolerance="10"
     guidetolerance="10"
     inkscape:pageopacity="0"
     inkscape:pageshadow="2"
     inkscape:window-width="640"
     inkscape:window-height="480"
     id="namedview4"
     showgrid="false"
     inkscape:zoom="16.1"
     inkscape:cx="10"
     inkscape:cy="4"
     inkscape:window-x="0"
     inkscape:window-y="0"
     inkscape:window-maximized="0"
     inkscape:current-layer="g10" /><g
     id="g10"
     inkscape:groupmode="layer"
     inkscape:label="group3 (1)"
     transform="matrix(1.3333333,0,0,-1.3333333,0,8)"><g
       id="g12" /><g
       id="g14"><g
         id="g16"
         clip-path="url(#clipPath20)"><g
           id="g22" /><g
           id="g48"><g
             clip-path="url(#clipPath26)"
             id="g46"><g
               id="g36" /><g
               id="g44"><g
                 clip-path="url(#clipPath30)"
                 id="g42"><g
                   clip-path="url(#clipPath34)"
                   id="g40"><path
                     d="m -2.5,8.5 h 20 V -2 h -20 z"
                     style="fill:#ffffff;fill-opacity:1;fill-rule:nonzero;stroke:none"
                     id="path38"
                     inkscape:connector-curvature="0" /></g></g></g></g></g></g></g></g></svg>