<?xml version="1.0" encoding="UTF-8"?>
<svg xmlns="http://www.w3.org/2000/svg" xmlns:xlink="http://www.w3.org/1999/xlink" viewBox="0 0 15 6" version="1.1">
<defs>
<clipPath id="clip1">
  <path d="M 0 0 L 15 0 L 15 5.5 L 0 5.5 Z M 0 0 "/>
</clipPath>
<clipPath id="clip3">
  <path d="M 0 0 L 15 0 L 15 5.5 L 0 5.5 Z M 0 0 "/>
</clipPath>
<clipPath id="clip4">
  <path d="M 12.925781 0.300781 L 12.902344 0.152344 C 12.902344 0.152344 12.902344 0.148438 12.898438 0.148438 C 12.871094 -0.0507813 12.601563 -0.0507813 12.570313 0.148438 C 12.570313 0.148438 12.570313 0.152344 12.570313 0.152344 L 12.546875 0.300781 L 10.46875 0.316406 C 10.46875 0.316406 10.632813 0.644531 10.851563 0.636719 L 12.195313 0.652344 L 12.195313 1.707031 L 9.554688 1.707031 L 9.324219 1.375 C 8.855469 0.707031 8.113281 0.308594 7.34375 0.308594 C 6.570313 0.308594 5.832031 0.707031 5.363281 1.375 L 5.128906 1.707031 L 2.804688 1.707031 L 2.804688 0.652344 L 4.148438 0.636719 C 4.367188 0.644531 4.53125 0.316406 4.53125 0.316406 L 2.453125 0.300781 L 2.429688 0.152344 C 2.429688 0.152344 2.429688 0.148438 2.429688 0.148438 C 2.398438 -0.0507813 2.128906 -0.0507813 2.097656 0.148438 C 2.097656 0.148438 2.097656 0.152344 2.097656 0.152344 L 2.074219 0.300781 L 0 0.316406 C 0 0.316406 0.164063 0.644531 0.378906 0.636719 L 1.726563 0.652344 L 1.726563 1.707031 L 0.90625 1.707031 C 0.851563 1.707031 0.804688 1.738281 0.777344 1.785156 C 0.75 1.835938 0.746094 1.898438 0.773438 1.949219 C 0.925781 2.265625 1.105469 2.511719 1.304688 2.683594 C 1.515625 2.867188 1.746094 2.960938 1.980469 2.960938 L 4.34375 2.960938 C 4.648438 2.960938 4.9375 3.132813 5.109375 3.425781 C 5.183594 3.546875 5.269531 3.664063 5.363281 3.769531 C 4.953125 4.171875 4.644531 4.695313 4.492188 5.289063 C 4.464844 5.394531 4.539063 5.5 4.640625 5.5 C 4.707031 5.5 4.765625 5.449219 4.785156 5.378906 C 4.921875 4.835938 5.207031 4.359375 5.585938 3.996094 C 6.046875 4.414063 6.65625 4.652344 7.316406 4.652344 C 7.980469 4.652344 8.589844 4.414063 9.050781 3.996094 C 9.429688 4.359375 9.714844 4.835938 9.851563 5.378906 C 9.871094 5.449219 9.929688 5.5 9.996094 5.5 C 10.097656 5.5 10.171875 5.394531 10.144531 5.289063 C 9.992188 4.695313 9.683594 4.171875 9.273438 3.769531 C 9.367188 3.664063 9.453125 3.546875 9.527344 3.425781 C 9.699219 3.132813 9.984375 2.960938 10.292969 2.960938 L 12.960938 2.960938 C 13.195313 2.960938 13.421875 2.867188 13.636719 2.683594 C 13.839844 2.507813 14.015625 2.261719 14.167969 1.949219 C 14.191406 1.898438 14.191406 1.835938 14.164063 1.785156 C 14.136719 1.734375 14.085938 1.707031 14.035156 1.707031 L 13.273438 1.707031 L 13.273438 0.652344 L 14.621094 0.636719 C 14.835938 0.644531 15 0.316406 15 0.316406 Z M 12.925781 0.300781 "/>
</clipPath>
<clipPath id="clip2">
  <rect width="15" height="6"/>
</clipPath>
<g id="surface4" clip-path="url(#clip2)">
<g clip-path="url(#clip3)" clip-rule="nonzero">
<g clip-path="url(#clip4)" clip-rule="evenodd">
<rect x="0" y="0" width="15" height="6" style="fill:rgb(100%,100%,100%);fill-opacity:1;stroke:none;"/>
</g>
</g>
</g>
</defs>
<g id="surface1">
<g clip-path="url(#clip1)" clip-rule="nonzero">
<use xlink:href="#surface4"/>
</g>
</g>
</svg>
