<?xml version="1.0" encoding="UTF-8" standalone="no"?>
<!-- Created with Inkscape (http://www.inkscape.org/) -->

<svg
   xmlns:dc="http://purl.org/dc/elements/1.1/"
   xmlns:cc="http://creativecommons.org/ns#"
   xmlns:rdf="http://www.w3.org/1999/02/22-rdf-syntax-ns#"
   xmlns:svg="http://www.w3.org/2000/svg"
   xmlns="http://www.w3.org/2000/svg"
   xmlns:sodipodi="http://sodipodi.sourceforge.net/DTD/sodipodi-0.dtd"
   xmlns:inkscape="http://www.inkscape.org/namespaces/inkscape"
   version="1.1"
   id="svg2"
   xml:space="preserve"
   viewBox="0 0 29.333332 32"
   sodipodi:docname="exitBase.svg"
   inkscape:version="0.92.4 (5da689c313, 2019-01-14)"><metadata
     id="metadata8"><rdf:RDF><cc:Work
         rdf:about=""><dc:format>image/svg+xml</dc:format><dc:type
           rdf:resource="http://purl.org/dc/dcmitype/StillImage" /><dc:title></dc:title></cc:Work></rdf:RDF></metadata><defs
     id="defs6"><clipPath
       clipPathUnits="userSpaceOnUse"
       id="clipPath20"><path
         d="M 11,2 C 16.52285,2 21,6.477153 21,12 21,17.52285 16.52285,22 11,22 5.477153,22 1,17.52285 1,12 1,6.477153 5.477153,2 11,2 Z"
         id="path18"
         inkscape:connector-curvature="0"
         style="clip-rule:evenodd" /></clipPath><clipPath
       clipPathUnits="userSpaceOnUse"
       id="clipPath36"><path
         d="m 11,12.70711 2.64645,2.64644 c 0.19526,0.19527 0.51184,0.19527 0.7071,0 0.19527,-0.19526 0.19527,-0.51184 0,-0.7071 L 11.70711,12 14.35355,9.353553 c 0.19527,-0.195262 0.19527,-0.511844 0,-0.707106 -0.19526,-0.195263 -0.51184,-0.195263 -0.7071,0 L 11,11.29289 8.353553,8.646447 c -0.195262,-0.195263 -0.511844,-0.195263 -0.707106,0 -0.195263,0.195262 -0.195263,0.511844 0,0.707106 L 10.29289,12 7.646447,14.64645 c -0.195263,0.19526 -0.195263,0.51184 0,0.7071 0.195262,0.19527 0.511844,0.19527 0.707106,0 z"
         id="path34"
         inkscape:connector-curvature="0"
         style="clip-rule:evenodd" /></clipPath><clipPath
       clipPathUnits="userSpaceOnUse"
       id="clipPath42"><path
         d="m 7.5,8.5 h 7 v 7 h -7 z"
         id="path40"
         inkscape:connector-curvature="0" /></clipPath></defs><sodipodi:namedview
     pagecolor="#000000"
     bordercolor="#666666"
     borderopacity="1"
     objecttolerance="10"
     gridtolerance="10"
     guidetolerance="10"
     inkscape:pageopacity="0"
     inkscape:pageshadow="2"
     inkscape:window-width="1920"
     inkscape:window-height="1017"
     id="namedview4"
     showgrid="false"
     inkscape:zoom="20.85965"
     inkscape:cx="15.819272"
     inkscape:cy="17.642789"
     inkscape:window-x="-8"
     inkscape:window-y="-8"
     inkscape:window-maximized="1"
     inkscape:current-layer="g10" /><g
     id="g10"
     inkscape:groupmode="layer"
     inkscape:label="exitBase"
     transform="matrix(1.3333333,0,0,-1.3333333,0,32)"><g
       id="g12"
       transform="translate(-3.5685315e-7,0.61122796)" /><g
       id="g14"
       transform="translate(-3.5685315e-7,0.61122796)"><g
         id="g16"
         clip-path="url(#clipPath20)"><path
           d="m -1.5,24.5 h 25 v -25 h -25 z"
           style="fill:#3bb5f2;fill-opacity:1;fill-rule:nonzero;stroke:none"
           id="path22"
           inkscape:connector-curvature="0" /></g></g><g
       id="g24"
       transform="translate(-3.5685315e-7,0.61122796)"><g
         id="g26"
         transform="matrix(0.5,0,0,-0.5,1,22)"><path
           d="M 20,40 C 31.04569,40 40,31.04569 40,20 40,8.954305 31.04569,0 20,0 8.954305,0 0,8.954305 0,20 0,31.04569 8.954305,40 20,40 Z"
           style="fill:none;stroke:#ffffff;stroke-width:3;stroke-linecap:butt;stroke-linejoin:miter;stroke-miterlimit:10;stroke-dasharray:none;stroke-opacity:1"
           id="path28"
           inkscape:connector-curvature="0" /></g></g><g
       id="g30"
       transform="translate(-3.5685315e-7,0.61122796)"><g
         id="g32"
         clip-path="url(#clipPath36)"><g
           id="g38"
           clip-path="url(#clipPath42)"><path
             d="M 5,18 H 17 V 6 H 5 Z"
             style="fill:#ffffff;fill-opacity:1;fill-rule:nonzero;stroke:none"
             id="path44"
             inkscape:connector-curvature="0" /></g></g></g></g></svg>