<?xml version="1.0" encoding="utf-8"?>
<!-- Generator: Adobe Illustrator 23.0.2, SVG Export Plug-In . SVG Version: 6.00 Build 0)  -->
<svg version="1.0" xmlns="http://www.w3.org/2000/svg" xmlns:xlink="http://www.w3.org/1999/xlink" x="0px" y="0px"
	 viewBox="-978 -276 2666.7 2000" enable-background="new -978 -276 2666.7 2000" xml:space="preserve">
<g id="Sea">
	<rect x="-978" y="-276" fill="#B6E5EF" width="2666.7" height="2000"/>
</g>
<g id="Land">
	<path fill="#EAEAEA" d="M532.3-276v2.9l0.9,5.3l4.4,8.2l1.1,4.4l-1.5,11.7l-5.1,16.4l0.1,9.2l0.9,1.4l1.6,1.1l1.4,1.8l0.2,3.5
		l-1.3,1.5h-5.2l-2.1,0.8l-2.2,3.7l-3.8,9l-2.7,3.1l2,0.2l0.4,0.6l-0.1,1.6l-1.6,3l-2.9,7.5l-2,2.5l-4.5,1.7l-7.5-0.5l-3,1.7H498
		l-1.9-1.7l-3.7-1.6l-4.1-0.7l-3.4,1.1l-1.6,3l1,3.1l1.9,3.6l1,4.4l-0.6,18.3l-1.3,7.4l-12.3,30.1l0.2,4.5l-5.3,3.4l-3.6,15.3
		l-4.9,4.3l2,2.5l-12,32.4l-0.7,4.8l-3.6,11l-8.1,8.5L420.9-7.7l1.4,4.7l-2,4.6l-5.6,8.6l-1.2,5.2l-0.2,10l-0.8,4.9l-5.9,16.3
		l-4.7,6.9l-6.6,5l6.5,9.4l-1.4,11.1l-9.4,20.3l-1.2-2.4l-1-0.5l-2,0.3l2,2.6l-2.2,3.2l-1.9,4.2l-2.2,3.7l-7,2.9l-3.3,3.2l-2.8,4.1
		l-2,4.2l0.3,1.2v0.9l0.5,0.5l1.5-0.2l-0.4,1.6v0.6l-0.4,0.2l-1.5,0.4l2.2,2.5l-1.5,1.1l-1.7,2.4l-1.4,1.3l1.3,6.5l-1.3,7.1l-4.1,12
		l-2.2,22.6l-1.9,5.5l3.8,1.9l0.6,4.5l-3.9,14.4l-1.4,3.2L345,226.6l-2.9,0.5l-4.7-0.9l-6.3-4.1l-4-1l-4.6,2.6l-2.5,7.5l-1.8,33.2
		l-7.2,30.1l0.6,5.4l-1.6,5l-1.8,16.5l-1.8,3.5l-9.7,48l-11.1,55l-25.1,78.6l-4.3,2.4l-0.2,1.7l0.4,4l-0.2,1.7l-9.8,32.3l-5.8,9.2
		l-26.2,58.9l-2.1,2.9l-27.7,47.6l-7.7,9.8l-2.6,6.3l-0.8,1.8l-11.1,15.9l-23.4,24.2l-6.2,11.2l-14.6,10.8l-6.4,11.3l-13.9,12.5
		l-4.4,5.7l-7.1,4.6l-0.4,0.3l-47.4,30.6l-60.2,23.9L-86,852.9l-10.3,0.7l-7.1-2.1v2.5l-6-2.6l-22.8-2.4l-5.8-1.9l-12.6-6.4
		l-4.1,1.1h-2.1l-1.2-1.1l-3.4-1.6v6.5l-4.9,0.4l-4,1.3l2.7,6.6l-34.1,2.7l3.7,0.8l2.9,0.4l3.2-0.5l2.9,1.7l-4.5,0.3l0.4,0.6
		l0.1,3.7l-0.3,3.1h-2.3l-1.2-3.3l-2.2-1.6l-2.6,0.2l-2.3,2.1l-2.3-2.5l2.3-2.7h-2.3l-4.5,3.4l-16.7,6.4v2.7h2v-2.7h2.1l4.3,2.7v2.3
		l-2.9-0.5h-1.4l-2.1,0.5l-4.1-0.7l-5.8,1.4l-11.2,4.5l3.5-6.2l0.1-5.6l-2.8-4.7l-5.2-3.5v-2.3l1.5-0.2l0.4,0.6v0.9l0.4,1l4.5-3.3
		l3.9-1l1.3-2l-3.3-6.2l-11.2-14.7l-3.9-2.9v-2.3h8.8v-2.5h-5.4l-3.6,1.8l-5.9,5.6l-3.6,1.8l-7.7,1.3l-3.8,1.9l-4.9,6.2l-3.9,7.3
		l-5.4,5.6l-9.4,1l5,2l7.4,1.1h7.1l4.1-0.9l-2-1.5l0.1-1.2l1-1l1-1.4l6.5-5l2-2.5h2.2l-1.4,4l-1.6,3.1l-0.7,2.6l1.6,2.8l-3.1,2
		l-12,3.2v2.5l1.5,0.5l3,1.7v2.7l-4.2,3.5l-4.8,0.3l-10.4-3.8h4.2l-0.5-1.8l-0.7-3.5l-0.8-2l-2.9-4.3l-4.9-3.6l-5.3-1.3l-4.2,1.7
		v2.3h8.5v2.7l-7.4,3.8l-3.3,1.2v-2.5l2.4-0.3l1-1.9l-4.4-1.1l-1.3-1.9h-1.9l-3.3,2.6l-16.2,5.1l-19.2,12.4l-1.8-0.3l-1.4,0.2
		l-1-0.3l-0.3-2.1h-1.9l-1.9,3.6l-3.6,1.3l-9.6,0.1l4.5-2.5v-2.5h-15.1l26.8-6.9l17.1-8l10.2-2.9l17.5-13.1l10-3.8v-2.7h-2.2
		l-3.4,2.6l-12.8,6.5l-5.5,4.2l-27.7,13.6l-23.2,6l-13.2,1.8l-13.7-0.5l-11.2-3.5l-9.3-5.8l-8.2-7.4l-8.8-15.3l-5.8-4.4l-13.2-12.8
		l-5.9-7.5l-3.6-3.4l-9.6-2.5l-4.7-3.1l-3.2-4.7l-0.8-6l-3.6-0.5h-1.9l-4.3-3.2l-21.1-4.2l-4.1-0.3l-3.9-0.5l2.2,6.1l3.9-1.4
		l6.3,1.1l6.6,2.4l4.7,2.7l-3.9,2.8l0.9,3.1l5.2,6.7l1.6,6.2v5.1l-1.6,10.8l-1.1-0.3l-7.5,0.3l5.7,5.3l0.9,6.7l-3.5,6.4l-7.6,4.3
		l-4.3,0.8l-4.9-0.2l-4-1.4l-3.4-6l-3.4,0.3l-2.4,2.6l1.2,3.9l-1.7-0.2l-1.4,0.2l-0.9-0.5l-0.2-2.2l-3.7,2.4l-0.5,0.5l0.5,0.9
		l-0.1,0.6l0.3,0.3l1.3,0.4v2.7l-1.5-0.2l-5.1,0.2l2.6,5l-4.2-0.8l-6.2-3.2l-4.7-1l1.1,3.8l1.9,3.5l3.2,2.4l4.5,0.1v2.3l-3.8,2.5
		l-4.2-0.2l-3.9-1.8l-3.2-2.8v-2.7h2.2v-2.2l-2.2-1.9l-2.5-0.7l-2.8,0.5l-3,2l-2.6-1.9l-1.5-0.7l1.2-3l1.5-2.1l2.3-1.5l3.2-0.9v-2.7
		l-3-1l-1.8-2l-1.1-3l-0.4-3.9h-1.9l-1,2.8l-1.8,1.6l-2.6,0.8l-3.4-0.2v-2.5l6.5-5.5l-0.1-3.9l-2.2-3.1v-2.3l2.2-0.9l1.1-1.4
		l0.7-2.1l0.5-3.1l-1.1,1l-3.5,1.6l0.5-4.8l0.6-1.2l1.3-1.6v-2.2l-4.5-2.5l-1.4,1.6l-1.9,1.6l-0.9,1.5l-4.5-2.2v-2.5h4.5l-7.1-2.4
		l-5.9,4.2l-4.9,5.2l-3.6,0.6l-1.7,5.6l-2.7,0.2l-1.4-3.4l1.5-5.2h-2.1v2.8l-1.4-0.4l-0.4-0.9l0.1-0.9l-0.4-0.6l-1.2,0.9l-0.8,0.9
		l-0.9,0.7l-1.4,0.3l-0.3-2.5l0.5-1.1l1-0.6l1-0.8h-4.3v-2.5h4.3l-1.3-2.5l-0.4-2l0.5-2.3l1.2-3.3l-2.4,1.8l-1.5,2.4l-2.5,5.9
		l-3.1-3.5l-4.6-3.3l-5-2.4l-3.5-0.9l-1.2-1.5l-0.1-3.3l-0.5-3.3l-2.5-1.5l-2.9-0.2l-2.2-0.5l-4.4-1.8l0.6,1.4l0.4,0.4l0.4,0.1
		l0.6,0.7l-3.8,1.8l-3.4-0.9l-1.9-3.2l0.7-5.1l2.6-2.3l3.6-0.9l2.1-1.3l-1.7-3.5v-2.2l3.9-1.7l-0.5-1.3l-2.2-1.3l-1.3-1.8l0.6-3.7
		l1.6-2.2l2.1-0.2l2.1,2.2h1.8l2.6-2.4l2.9,0.3l3.5,1.4l4.2,0.8v-2.7l-6.8-0.2l-2.8-2.3l0.9-4.2l4.4-5.4l-2-2.8l-1.1-1.1l-1.4-1.1
		l1.1-0.5l0.9,0.1l0.6-0.5l-0.1-1.9h2.1l2.2,2.4l3.1,0.8l3.2-0.9l2.2-2.3l-3.3-0.2l-2.4-0.9l-1.8-1.5l-1.3-2.1v-2.7h2.4v-2.5
		l-2.5,0.1l-1.7-0.7l-2.2-1.7l-1.3,2.1l-1.1,0.5l-1.9-0.3l1.9-5.6l2.3-2.4l1.2,0.3l-1.2,2.8l4.3,0.3l3.2,2l2,3.4l1.1,4.5h2.2
		l-0.5-1.9l-1-1.7l-0.8-1.6h2.2v-2.3h-2.2l1-5l-4.7-8.6l1.6-4h-6.3l1.4-2.6l0.6-2l-0.1-2.9l1.2,0.8l2.2,0.8l1.1,0.7l0.2-1.1
		l-0.2-2.5v-1.1l4.3,2.5l1.3-3.6l2.1-1.3l5.2,2.5l0.1-1.6l3.5,2l4.5,5.9l3.4,5.9l15.8,19.6l-3.8,0.5h-4l2.8,2.4l2.6,3.5l2,4.3l0.9,5
		h2.4l1.4-0.2l3.3,2.9l8.3,4.5l1.5,1.5l0.8,1.6l1.4,1.3l6.4,0.8l2.2,0.7l1.4,1.7l0.8,2.6l-2.4-2l-1-0.5l-1.3,0.2l-1.7-0.2l31,19.4
		l9.5,2.1l-3.2-2.1l-12.5-9.8l-4.5-2.1l-1.9-1.4l-7.8-8.7l-3.8-1.8l-7.6-1.7l-3.3-1.5l-10.1-9.1l-5-6.2l-4.1-10.3l-9.9-13.4
		l-1.5-4.3l-4.5-9.7l-10-5.2l-12.1-0.2l-11.3,3.8l-28.1,16l-47.1,13.4l-12.7,0.5l-10.3-2.3l-32.5-15.2l-12.8-10l-49.2-22.4
		l-28.8-9.1l-9.8-1.1l-26.6,4l-7.7,3l-2.9,1.7l14.1,0.5l14.8,6.4l12.6,9.3l6,8.3l-2.1-0.4l-1.9,0.7l-2,1.4l5.7,2.9l-1.3,2.4
		l-1.9,1.6l-2.5,0.8l-3-0.5l-0.6-1.4l0.2-1.8l-0.9-1.3l-5.2-3.4l-2.9-1.2l-11.4-0.7l-1.8,0.4l-1.8,1.8l0.1,1.7l0.3,1.8l-0.9,2.2
		l-5,4.3l-1.1,2.4l1.8,3l-3.5,7.4l-2.2,2.9l-2.9,2.5l-2.1-2.8l-10.7-4.7l-0.7,1.2l-0.1,0.5l-0.2,0.3l-1,0.8l-0.1,1.6l0.5,0.3h0.8
		l0.8,0.4l-4.2,3.7l-5.3,3.4l-5.3,1.7l-4.2-1.2l-0.2-1.7l0.5-0.5l0.9,0.1l1-0.4l-3.8-2l-4.3,0.5l-4,1.1l-3,0.4l-4.6-2l-4.1-2.7
		l-3.5-1.7l-2,0.8v990h639.2l-5.6-21.3l-4.3-10.7l-6.9-7.6l-11.1-1.9l-13-18.3l-1.2-0.8l-7-7.7l-1.2-3.7l-0.3-7.2l-1-3.8l-3.4-4.5
		l-9.6-9.9l-2-3.8l0.6-12.5l1.6-10.6l-2.5-3.7l1.2-3.2l3.4-1.5l1.6-4.1l3.1-2.8l1.7-2.9l-0.2-7.7l-9.4-38.4l1.2-6.4v-2.2l-4.3-6.4
		l-4.1-11l-3.2-11.7l-1.3-8.8l-3.2-7l-7.6-10.2l-8.8-9.3l-9.9-5.8l-14.3-16.9l-4-3.3l-15.9-10.3l-3.4-3.7l-2.6-7.6l-2.8-5l-3.5-5
		l-3.4-2.7v-2.6l4.3-5l1.9-6l0.2-14.8l1.8-5.8l9-16.5l3.2-3.4l1.5-2.9l26.2-36.5l5.6-4.6l-7-1.8l-4.4-3.7l-1.9-5.3l0.4-6.6l2.8-6.1
		l5.3-6.6l6.1-3.8l5.2,1.9l4-2.3l3.5,0.2l2.4,2.4l0.8,4.6h2.4l-0.4-4.8l-1.5-2.6l-1.7-1.9l-0.9-3l1.9,1.6l1.7,1.8l1.5,1.9l1.3,2.2
		l1.7,0.7l0.6,0.7l-0.6,0.6l-1.7,0.7l1.7,1.9l0.3,1.7l-1.3,1.7l-2.7,1.9l12.6,12.7l4.1,6.9v10.1l-1.7,1.2l-3.3,3.2l-1.5,3.5l6.5,3.3
		l7.2,7.4l1.3,2.2l1.2,4l7.7,9.5l1.8,3.1l1.3,3l0.7,3.8l0.3,6.1l-0.6,3.3l-2.8,7.3l-0.7,5.3l0.5,5.2l1.1,5.3l0.3,5l-1.9,4.2v2.3
		l9.8,6.9l3.6,14.7l-0.5,16.6l-2.3,13.1h4.2l-1.8-1.7l-0.4-2.4l0.7-2.8l1.5-3.1h2l0.2,2.4l-0.6,1.2l-0.9,0.8l-0.8,0.8l2.3,0.5
		l1.6,0.6l1.4,1.3l1.1,2.6h-2.3l15.1,10.9l8.4,4l1.2,6.1l-1.2,13.3l0.6,0.2l6.3,15.3l2.1,2.8l2.9,1.2l4,2.8l2.3,6.4l1.4,7.3l1.7,5.6
		l4,4.3l6.6,4.8l6.9,3.9l5.1,1.6l14.1,14.5l0.6,1l0.8,3l0.6,0.9l0.9,0.6l2.6,1.3l1,0.7l5.3,8l1,0.6l1,1.7l4.6,3.7l1.1,1.9l0.6,2.1
		l3.8,9l3.2,3.1l8.5,4.5l3.3,4.2l3.1-1.2l2.7,1.1l1.8,2.7l0.7,3.8l1.9-0.3l3.6,3.9l2.1,4.8l-2.2,2.3l-1.5,2.5l0.6,5.3l1.3,5.2
		l0.6,1.9l1.3,8.2l-0.6,3.1l-2.7,3.3v2.2l1.3,4.5l0.9,15.8l2.1,6.6l2.4,1.9l2.7,1.1l2.3,1.7l1.7,7.1l1.7,2.8l3.9,4.8l-3.3,8.1
		l-4.1,16.3l-1.2,2.6h435.9l3.5-4.9l1.8-6.2l0.7-1.8l1.4-1.8l1.5-2.4l0.7-3.7l-0.5-2.6l-0.7-2.1l0.5-2l2.8-1.9l-1.9-4.2l-1-1.5
		l-1.2-1.3l1.8-4.2v-5.1l-0.9-4.8l-1-3.2v-2.2l8.4-6l-0.4-21.1l-1.6-7.2l-0.2-2.2l1-4.7l1.1-1.9l7-4.5l2.9-1l2.3-2l1-4.1l-0.7-4.3
		l-3.1-4.4l-0.7-3.5l0.8-21.5l-0.8-4.1l2.9-4.4l1.9-5.5l1.3-5.7l0.3-5l1.8-2.1l3.6-2.5l3.6-3.2l1.8-4.4v-18.4l1.5-4.4l2.5-5l1-5.1
		l-2.7-5v-2.2l2.6-1.6l1.5-1.9l1-2.1l1.3-2.1l1.5-1.4l3.4-1.8l1.4-1.5l7.3-11.3l3.6-3.5l-2-1.7l-0.3-1.4l1.5-1l3-0.6l-1.3-2l0.8-2.1
		l2.1-1.8l2.7-1.3l0.1-1.8l-0.5-0.5l-0.9-0.1l-1.2-0.3l4-1.5l1.8-2.8l1-3.8l1.7-4.1l2.2-3.4l2.2-2.5l2.8-2l3.4-1.9l2.2-0.2l2.9,0.4
		l2.5-0.1l1-1.4l0.6-2.3l1.3-2.5l2.4-3.8l5.4-6.7l2-3.1l1.4-4.8l1.5-0.2l0.4,0.6v0.9l0.3,1.2h4.3l6.5,6.5l0.3,5.7l-6.8,14.7
		l-2.2,9.3l-2.1,32.5l-4,2.9l-1.4,5.3l0.9,6l2.4,5.3l-1.5-0.2l-0.4,0.6l-0.1,0.9l-0.3,1.2l-3.7-2l-1.2,5.2l0.8,7.9l2.2,5.9l-7.2,4.1
		l-3.1,3l-0.5,5.1l0.5,2.3l-3.5,7.9l-1.4,4.6l-6.2,31.8l-3,7.7l-3.6,6.6v4.9l3.5,8.9l-2.3,15.1l-5,14.7l-4.7,7.9v2.2l5.3,1.6
		l0.7,4.7l-3.6,10.8v2.2l1.8,3.9l-0.9,4.4l-5.3,9.2h1.9v2.2l-4.8,9.4l-4.1,11.3l-2.1,12.5l0.1,1h1417.9V-276H532.3z M576.3,255.6
		l0.1-0.1h0.2L576.3,255.6z M608,2h-0.1l-0.3,0.3l-0.1,0.1l-14.9,8.7L607.9,2l5.9-3.4L608,2z M-925.9,685.2l4.8-0.7V682l-56.8,20.2
		v7.1l23.2-13.3L-925.9,685.2z"/>
</g>
<g id="Israel">
	<path fill="#F2F2F2" stroke="#BFBFBF" stroke-width="0.9259" stroke-linecap="round" stroke-linejoin="round" d="M606.3,170.5
		l-1.7-4.6l-4.1-35.4l1-4.9l-11.7-4.9v-5.5l3.3-5.4l3.5-7.3l-1-10.7l-7.1-4.3L587.2,70l-8.7-6l-2.2-3l10.4-14.8l-8.3-8.2l3.2-3.2
		l2.4-2.6l5.2-3.8l0.7-4.9l1-2.1l0.5-6l1.6-2.3l-0.4-2l-4.8,5.7l-6.2,12.5l-5.1,5.7l-3.7,2.3l-4.3,1.9l-4.5,1.3l-4.1,0.5l-5.4,1.4
		l-11.9,12.5l-6.2,5l-9.5,2.1l-2.8,2.8l1,6.8v0.1l-0.2,1.5l-1.8-1.5v-0.1h-0.1l-3.9-2.9l-5.6-8.9l-1.8-2.2l-3.6,0.4l-2.1,3.5
		l-1.8,5.1l-2.9,5.1l-2.4,8.1l-0.8,18.3l-1.6,9.5l-2.7,6.2l-5.8,10.4l-1.5,5.7l-9.6,0.8l-14.9,6.4l-17.6,4.6l-4.1-0.6l-2.9-3.8
		l-2.2-4.4l-3.1-3.7l-3.5-2.9l-3.4-1.5H421l-11.6,3.8l-2.2-0.2l-4.4-1.2l-1.9-0.1l-2,0.8l-3.4,2.6l-1.4,0.6l-24.8-1.8l-0.4,0.2
		l-1.5,0.4l2.2,2.5l-1.5,1.1l-1.7,2.4l-1.4,1.3l1.3,6.5l-1.3,7.1l-4.1,12l-2.2,22.6l-1.9,5.5l3.8,1.9l0.6,4.5l-3.9,14.4l-1.4,3.2
		L345,226.6l-2.9,0.5l-4.7-0.9l-6.3-4.1l-4-1l-4.6,2.6l-2.5,7.5l-1.8,33.2l-7.2,30.1l0.6,5.4l-1.6,5l-1.8,16.5l-1.8,3.5l-9.7,48
		l-11.1,55l-25.1,78.6l-4.3,2.4l-0.2,1.7l0.4,4l-0.2,1.7l-9.8,32.3l-5.8,9.2l-26.2,58.9l-2.1,2.9l-27.7,47.6l-7.7,9.8l-2.6,6.3
		l-0.8,1.8l-11.1,15.9l-23.4,24.2l-6.2,11.2l-14.6,10.8l-6.4,11.3l-13.9,12.5l-4.4,5.7l-7.1,4.6l7.6,13.9l1.8,5.9l5.5,17.5l3.3,9.9
		l12.3,38.2l9.9,30.6l12,31.5l15.9,42.1l19.3,50.6l6.8,28.8l0.7,15l1.9,6.1l5,6.7v0.1l3.2,4.4l-0.1,4.9l-3,10.8l-0.6,6.3l0.7,4.1
		l2.2,3.3l17.1,15l3.4,5.2l10.3,29.6l18.4,53.1l12.2,34.6l0.9,2l0.5,2.1l0.2,2.1l-0.1,2.2l1.9,19.5l13.7,37.5l12.2,33.6l8.1,36.8
		l-0.7,24.7l2.2,8.5l7.2,14.8l2.8,5.2l2.2-0.2l2.9,0.4l2.5-0.1l1-1.4l0.6-2.3l1.3-2.5l2.4-3.8l5.4-6.7l2-3.1l1.4-4.8l1.2-9.8
		l2.3-7.9l4.1-6.7l3-8.9l1.6-20.1l2.3-8.9l14.6-39.1l1.3-7.3l0.3-21.8l2.3-12.2l1.3-3.2l1.5-2.8l1.1-3.2l0.2-4.3l3.7-14.2l13.4-20
		l5.1-12.1v-11.4l-6.4-22l0.1-10.2l2.2-6.2l3-18.8l1.9-4.5l2.1-3.6l1.6-3.9l0.7-5l-0.9-5.1l-4.4-7.3l-1.6-3.8v-8.6l5.5-14.7l1.4-8.6
		l13.5-44.2l18.3-37.1l2.4-8.6l1.5-9.2l1.1-4l2.1-4.4l2.4-2.8l5.3-4.7l1.8-3.5l1.1-8l-0.2-8.1l0.9-8.2l4-8.2l12.2-11.8l3.5-6.6
		l-0.1-11.3l2-10.6l12.4-24.5l-4.8-0.8l-4.8-2.5l-2.4-4.4l-1.5-10.5l-7.8-12.3l-1.6-12.6l3.5-9.1l9.7,1.8l0.1-0.2l-1.7-9.7l3.8-8.8
		l4.4-7.7l0.6-11.6l-0.2-0.3l-2.6,3.2l-2.8-6.6l-1.3-18.3l-2.5-14.8l2.2-13.2l-2.5-15.4l1.8-6.5l3-5.9l2.1-6.5l-0.2-4.2l-2-8.8
		l0.1-4.6l1.4-3.6l7.1-11.4l6-14.5l6.8-12.8l9.5-9.3l13.9-3.5l2.5,0.8l0.1,0.1l-6.7-20.5v-2.6l3.5-4.6l-7.7-29.3l0.9-3l1.9-1.1
		l2.2-0.7l1.5-1.6l0.2-3l-1.8-4l-0.6-3l-0.2-5l-0.7-3.8l-3.4-8.6l-0.6-17l1.7-6.3l5.3-4.3l-3.4-4.5l0.2-4.2l5.3-9L507,479v-2.1
		l1.5-1.6l2.5-1.4v-2.8l-1.3-4.3l5.5-23.2h-4.1l0.6-2.1l0.8-1.4l1.3-1l1.5-0.9l-2.5-4.3l-1.2-7l0.1-7l1.3-4.3l-2.8-5.5l0.2-11
		l-1.6-3.6v-2.5h2.3v2.5h1.9l-0.5-3.3l-1-2.9l-1.3-2.3l-1.5-1.6l-0.8-1.2l-1.4-4l3-0.7l1.3-1l-0.3-1.6l-1.9-1.9V373h2.3l-0.5-1.7
		l-0.5-0.2l-0.7,0.1l-0.7-0.7l4.2-2.8l-1.9-2.5l2.1-1l2-1.3v-2.7l-1.4-0.3l-0.9-0.5l-0.8-0.8l-1.2-0.8l0.6-2.5l1.2-2.5l1.9-1.9
		l2.8-0.9v-2.3l-2.9-3l-0.7-1.5l-2.2-3.3h-1.4l-1.6,0.2v-2.5h4.2l-0.9-2.4l-1.1-7.8l1.9,2.6l1.5-4l0.8-1.2l0.4,1.4l0.2,0.9l0.5-0.2
		l1.3-2l-1.7-4.6l-1-9.5l-1.8-3.3v-2.8h2.2v-2.3l-2.7-1.6l-1.3-2.6l0.2-3l0.7-1.3l2.2-1l2.8-2.5l4.7-6.2l5.8-4.1l7.5,0.9l5-2.6
		l10.3-9.2l17.2-10.8l5.5-1.4l8.4-12.5l15.6-18.5l2.4-9.4l-1.3-4.7l3.7-11l5.3-9.2l2.3-0.6l4.3-8.3L606.3,170.5z"/>
	
		<path fill="#F2F2F2" stroke="#C9C9C9" stroke-width="0.4" stroke-linecap="round" stroke-linejoin="round" stroke-dasharray="3.7037,3.7037,3.7037" d="
		M510.9,443.7l0.6-2.1l0.8-1.4l1.3-1l1.5-0.9l-2.5-4.3l-1.2-7l0.1-7l1.3-4.3l-2.8-5.5l0.2-11l-1.6-3.6v-2.5h2.3v2.5h1.9l-0.5-3.3
		l-1-2.9l-25.2-6.5l-7.4-1.9l-7.4-0.2l-8.2-2.4l-1.7-9.3l0.2-11.4l-2.8-8.7l-9.3-5.7l-9.3-1.1l-19.7,1l-5.6-2l-8.9-7.4l-4.7-2.5
		l-5.5,0.4l-4.4,3.2l-7.9,9.2l-9.7,6l-9.3,4.5l-8.2,5.9l-6.1,10.6l-5,25.4l-2.3,7.5l-1.2,0.9l-4.1,1.5l-1.3,0.9l-1.3,4.7l-1.2,11.6
		l-1,4.8l3.9,1.3l2.2,2.7l0.5,3.9l-1.1,4.7l-2.3,4.5l-12.2,11.2l-4.1,5.4l-0.7,3.6l5.1,11.3l1.6,6.2l3.9,34.6l0.1,6.8l-0.5,8.2v0.3
		l0.1,0.2l0.2,0.2l0.2,0.2l0.3,1.2l0.1,1.3l-0.1,1.4l-0.3,1.2l-1.3,10.9l6.1,14.4l3.8,12.3l-8.6,4.8l-8.4,3l-2.5,6.5l3,6.1l10.2,1.9
		l4.9,0.1l2.2-0.5l3.2-1.9l5.4-5.9l2.3-1.5l4.5,0.8l16.3,7.9l21.7,5.1l5.4,3.3l2.4,4.5l0.6,6.1l-0.5,7.9l-1.2,2l-1.4,0.5l-1.6-0.8
		l-1.7-1.7l-19.3,4.2l-5.9,2.9L364,636l-10.9,11.1L328,666l-5.8,6.8l-5.6,10.8l-1.4,10l-0.1,10.2l-1.8,11.9l-14,23.5l-4.6,12.2
		l3.6,12.3l6.9,5.2l8.2,1.4l8.7-1.4l7.9-2.8l18.7-2.6l39,0.4L406,757l34-28.4l18-10.3l2.5-0.2l-1.6-9.8l1.8-6.5l3-5.9l2.1-6.5
		l-0.2-4.2l-2-8.8l0.1-4.6l1.4-3.6l7.1-11.4l6-14.5l6.8-12.8l9.5-9.3l13.9-3.5l2.5,0.8l0.1,0.1l-6.7-20.5v-2.6l3.5-4.6l-7.7-29.3
		l0.9-3l1.9-1.1l2.2-0.7l1.5-1.6l0.2-3l-1.8-4l-0.6-3l-0.2-5l-0.7-3.8l-3.4-8.6l-0.6-17l1.7-6.3l5.3-4.3l-3.4-4.5l0.2-4.2l5.3-9
		L507,479v-2.1l1.5-1.6l2.5-1.4v-2.8l-1.3-4.3l5.5-23.2H510.9z M174.3,683.4l-0.8,1.8l-11.1,15.9l-23.4,24.2l-6.2,11.2l-14.6,10.8
		l-6.4,11.3l-13.9,12.5l-4.4,5.7l-7.1,4.6l7.6,13.9l1.8,5.9l5.5,17.5v-0.1l5.1-4.6l16-11.9l11-11.8l0.9-6.2l-2.6-12.5l0.1-6.2
		l6.7-12.7l35.4-33.9l4.7-3.2h0.1l10.2-9.4l0.7-7.8l-5.9-7.4L174.3,683.4z"/>
</g>
<g id="copyright">
</g>
<g id="citys">
	<g>
		<defs>
			<polygon id="SVGID_1_" points="606.3,170.5 604.6,165.9 600.4,130.5 601.4,125.7 589.7,120.8 589.7,115.2 593,109.8 596.5,102.5 
				595.6,91.8 588.5,87.4 587.2,70 578.5,64 576.3,61 586.7,46.2 578.5,38.1 581.7,34.9 584.1,32.3 589.2,28.5 589.9,23.6 
				590.9,21.5 591.4,15.5 593,13.2 592.7,11.2 587.9,16.9 581.7,29.4 576.6,35 572.8,37.3 568.5,39.2 564,40.5 559.9,41 554.4,42.4 
				542.6,54.9 536.3,59.8 526.8,61.9 524.1,64.7 525,71.5 525,71.6 524.8,73.1 523,71.6 523,71.5 522.9,71.5 519,68.7 513.3,59.7 
				511.5,57.6 507.9,57.9 505.8,61.5 503.9,66.5 501,71.6 498.7,79.7 497.9,98.1 496.2,107.6 493.6,113.8 487.7,124.2 486.2,129.9 
				476.6,130.7 461.7,137.1 444,141.7 439.9,141.1 437,137.3 434.8,132.9 431.7,129.1 428.2,126.3 424.8,124.7 421,124.7 
				409.4,128.6 407.2,128.4 402.8,127.2 400.9,127.1 398.9,127.9 395.5,130.5 394.1,131.1 369.3,129.3 368.9,129.5 367.4,129.9 
				369.7,132.4 368.2,133.5 366.5,135.9 365.1,137.2 366.4,143.7 365.1,150.8 360.9,162.8 358.7,185.4 356.8,190.8 360.6,192.8 
				361.2,197.3 357.3,211.7 355.9,214.8 345,226.6 342.1,227.1 337.5,226.2 331.1,222.1 327.1,221.1 322.5,223.7 320,231.2 
				318.3,264.4 311.1,294.5 311.7,299.8 310,304.8 308.2,321.3 306.4,324.8 296.7,372.9 285.6,427.8 260.5,506.4 256.2,508.9 
				256,510.6 256.4,514.6 256.2,516.3 246.4,548.6 240.6,557.8 214.4,616.8 212.3,619.7 184.6,667.3 176.9,677.1 174.3,683.4 
				173.6,685.2 162.5,701.1 139.1,725.3 132.8,736.5 118.3,747.3 111.9,758.6 97.9,771.1 93.5,776.8 86.5,781.4 94,795.3 
				95.8,801.2 101.4,818.7 104.7,828.6 116.9,866.8 126.8,897.4 138.8,928.9 154.7,971 173.9,1021.6 180.7,1050.4 181.4,1065.3 
				183.3,1071.4 188.2,1078.1 188.2,1078.2 191.4,1082.7 191.3,1087.5 188.3,1098.3 187.7,1104.7 188.4,1108.8 190.6,1112.1 
				207.7,1127.1 211.1,1132.3 221.5,1161.9 239.9,1215 252,1249.6 252.9,1251.6 253.4,1253.7 253.6,1255.8 253.5,1258.1 
				255.4,1277.6 269.1,1315.1 281.4,1348.7 289.4,1385.5 288.8,1410.2 291,1418.8 298.2,1433.5 300.9,1438.7 303.1,1438.5 
				306,1438.9 308.5,1438.8 309.5,1437.4 310,1435 311.4,1432.6 313.8,1428.7 319.2,1422 321.1,1418.9 322.5,1414.1 323.6,1404.3 
				326,1396.4 330.1,1389.7 333,1380.8 334.7,1360.7 337,1351.8 351.5,1312.7 352.8,1305.4 353.1,1283.6 355.4,1271.5 356.6,1268.3 
				358.2,1265.5 359.3,1262.4 359.5,1258.1 363.1,1243.9 376.6,1223.9 381.6,1211.8 381.6,1200.4 375.2,1178.5 375.3,1168.2 
				377.5,1162 380.5,1143.2 382.4,1138.7 384.5,1135.1 386.1,1131.1 386.8,1126.2 385.9,1121.1 381.5,1113.8 379.9,1110 
				379.9,1101.4 385.4,1086.8 386.8,1078.1 400.3,1033.9 418.6,996.9 421,988.2 422.5,979.1 423.5,975 425.6,970.6 428,967.8 
				433.3,963 435.1,959.6 436.2,951.5 436,943.5 436.8,935.3 440.9,927.1 453,915.3 456.6,908.7 456.5,897.4 458.5,886.7 
				470.9,862.2 466.2,861.3 461.4,858.8 459,854.4 457.5,843.9 449.8,831.6 448.2,819.1 451.7,810 461.4,811.7 461.5,811.5 
				459.9,801.8 463.7,793 468.1,785.4 468.7,773.8 468.4,773.5 465.8,776.7 463,770.1 461.7,751.8 459.2,737 461.4,723.7 
				458.9,708.4 460.7,701.9 463.7,696 465.8,689.4 465.6,685.2 463.6,676.4 463.7,671.8 465.1,668.2 472.2,656.8 478.2,642.3 
				485.1,629.5 494.5,620.2 508.4,616.7 510.9,617.4 511,617.5 504.3,597 504.3,594.4 507.8,589.7 500.1,560.4 501,557.4 
				502.9,556.4 505.1,555.7 506.5,554.1 506.7,551.1 504.9,547.1 504.3,544 504.1,539 503.4,535.2 500.1,526.6 499.5,509.6 
				501.2,503.3 506.5,499 503.1,494.5 503.3,490.3 508.6,481.3 507,479 507,476.9 508.4,475.3 510.9,473.9 510.9,471.2 509.6,466.9 
				515,443.7 510.9,443.7 511.5,441.6 512.3,440.2 513.5,439.3 515,438.4 512.6,434.1 511.4,427.1 511.5,420.1 512.8,415.8 
				510.1,410.3 510.2,399.3 508.6,395.7 508.6,393.2 510.9,393.2 510.9,395.7 512.8,395.7 512.4,392.4 511.4,389.5 510.2,387.2 
				508.6,385.6 507.9,384.5 506.5,380.4 509.5,379.8 510.8,378.8 510.5,377.2 508.6,375.3 508.6,373 510.9,373 510.4,371.3 
				509.9,371.1 509.3,371.2 508.6,370.5 512.8,367.8 510.9,365.3 513,364.3 515,363 515,360.3 513.7,360 512.8,359.5 512.1,358.8 
				510.9,358 511.5,355.5 512.7,353 514.6,351.1 517.3,350.2 517.3,347.9 514.5,344.9 513.8,343.3 511.6,340 510.2,340 508.6,340.2 
				508.6,337.7 512.8,337.7 512,335.3 510.9,327.5 512.8,330.1 514.3,326.1 515,324.8 515.4,326.2 515.6,327.1 516.1,326.9 
				517.3,324.8 515.6,320.2 514.7,310.7 512.8,307.4 512.8,304.6 515,304.6 515,302.3 512.4,300.8 511.1,298.1 511.3,295.1 
				512,293.9 514.2,292.9 517,290.4 521.6,284.2 527.4,280.1 534.9,280.9 539.9,278.4 550.2,269.2 567.4,258.3 572.8,256.9 
				581.2,244.4 596.8,225.9 599.2,216.5 597.9,211.9 601.6,200.8 606.9,191.6 609.3,191.1 613.6,182.7 			"/>
		</defs>
		<clipPath id="SVGID_2_">
			<use xlink:href="#SVGID_1_"  overflow="visible"/>
		</clipPath>
		<path clip-path="url(#SVGID_2_)" fill="#E5E5E5" d="M269.1,476.6l6.1,1.9c0,0-0.1,1.6-1.3,3.1c-1.2,1.5-1.7,5.5-1.7,5.5
			s1.9-1.6,4.2-1c2.2,0.7,3.1,3.7,3.1,3.7l6,0.4l0.2-0.4l-0.8-0.8c0,0-0.8-0.2-1.1-0.7c-0.3-0.5-0.8-3.3-0.8-3.3l4.7-0.2l-0.6,2.2
			l0.6,0.2l0.3-0.3l2.1,0.1v0.3l1.7,0.2l-0.3,1.2h1.7v0.9h0.6l-0.1,0.6h0.6v0.8l0.5,0.2v0.3l0.5,0.2v0.4h1l1.2,0.5l0.6-0.7l0.7,0.2
			l0.4,0.3l-1.4,7l-1.1,0.5l-1.5-1.2h-0.6l-0.7,0.9l-0.7-0.3l-2.1,1.2l-3.7-0.5l-0.3,0.7h-1.3l-0.6,0.6l0.7,0.5l-1.7,0.7v0.5
			l0.9,0.6l-0.1,0.7l-1.2,1.4h-0.5l-0.2-0.6l-0.4-0.4l-1.1,0.1l-0.4,0.9l-0.9,0.5l-1.6-0.5l0.1,0.9l-0.4,0.6l0.4,1.5l-0.8,0.5h-0.6
			l0-0.3l-1.2,0.2l-1.1-1.5l-1.4,4.9l0.3,1.9l-0.5-0.1l-0.4,0.8l2,1.3l0,0.5l-0.6,2.1l0.9,1.5l-0.2,0.4l0.2,0.4l0,1.7h0.5l0.1,0.3
			h0.3l0.6,1.5l-0.1,0.2c0,0,1.2,1.3,2.4,1.3l0,0.6l0.6,0.1l-0.8,2.1c0,0,3,2.1,1.4,5.7l0.3,0.2l-0.7,2l-1.1-0.3l-0.6,2l-0.3,0.1
			l-0.1,0.5l0.3,0.1l-0.5,1.2c0,0-4.9-3-5.1-3c-0.2,0-1.8-0.4-1.8-0.4s-1.5-0.6-1.9-2.6h-0.4v-0.7l-0.2-0.3l-0.6,0l-0.3,0.2l0.4,0.1
			l0.2,0.7c0,0-0.9,0-1-0.2c-0.1-0.2-0.7,2.2-2.6,4h-0.5l-1.6,3.1c0,0-5-3-6.9-2.2l-0.4,0.9l0,1L253,541l-0.3,1.4l-0.5,0.1l-0.4-0.2
			l-0.4,0.4l-0.8-0.1l-0.5,0.9c0,0-2.7-2-2.9-2.1s-1.4-0.5-1.9-0.4"/>
		<path clip-path="url(#SVGID_2_)" fill="#E5E5E5" d="M316.4,240l3.5-0.3l0.4,4.5l1.3,0.7l2.2,0.2l2.1,0.5v0.9l-0.4,0.5l0.1,0.3
			c0,0,0.6,0.8,0.6,1.1c0,0.3,0.4,0.3,0.4,0.3l-0.4,0.5l0.3,0.1l1.2-0.3l-0.1,1.3c0,0,1,0,1.1,0c0.1,0,0.5,0.3,0.5,0.3l0.3,0.1
			l0.2,0.3l0.8,0.3l1.7-1.6c0,0,0.8-1.3,1.8-1.2c1,0.1,1.2,0,1.2,0l0.2,0.1c0,0,0.4-0.2,0.7-0.1c0.3,0.1,0.7,0.4,0.7,0.4l0.6,0.1
			l-0.1,0.3l0.6-0.2l0.2-0.4l1,0.3l0.1,0.3l1.8,1.5l0.1,0.3l0.7,0.7l0.2-0.1v-0.3l0.4-0.6l0-0.3c0,0-0.7-0.6-0.9-0.6l1.1-0.8
			l-1.7-2.1c0,0-1.3-0.1-1.5,0.3c0,0-0.1,0.3-0.4,0.2c0,0,0.4-0.5,0.3-1.2l-0.7-0.1l0-0.3l-0.3-0.1l0.2-0.3c0,0,0.1-0.6,0.2-0.8
			c0,0,2.2,0.4,2.5,0.5l0.4-0.3l1.2-0.2l1.3-0.6l0-0.3l0.1-0.2l0.1-1.4l-0.8-0.6l-0.3-0.1l-0.1-0.1l0.1-0.2c0,0,1.6,0.4,0.7-1.2
			l0.8-0.4l0.1,0.3l0.9-0.4l1.3,1.1l1.7-2.1l1.2,0.8l1-1.2l1.4,0.9l-0.6,1l1.9,1.3l1.3-1.3l0.2,0.7c0,0,0.6,1.2,1.4,1
			c0.5-0.2,0.6,0.3,0.6,0.3l2.7-2.5l-0.1-0.5c0,0,0.3-0.4,1.2-0.6l0.2,0.6l0.2,0l0-2.3l-5.3-3.2l-1.8-1.9l-0.6-0.4l3.9-1l0.5-0.3
			l0.5,0l0.8-0.5l0.2-0.5l1.2-0.4l0.6-0.7l-0.2-0.1l-0.3,0.3l-0.4-0.5l0.3-0.2l-0.3-0.4l1.9-1.9c0,0,0.3-0.2,0.3-1.9
			c0,0-1.2,0.1-1.7-0.9s-0.5-1.6-0.5-1.6l-0.4-0.1l-0.3-1.1l-0.4,0l-0.5-0.3l2.3-3.7c0,0-1.6-0.9-1.8-0.9L359,215l-0.2-0.2
			c0,0-1.3,2.4-1.6,3.4l-2.6-1.8l-0.2-0.3l-1.3-0.5l-9.7,7.3l-17.3-10l-10.1,8.9L316.4,240z"/>
		<path clip-path="url(#SVGID_2_)" fill="#E5E5E5" d="M253.4,788.4l-2,10.4l0.9,1.8l2.2,1.8c0,0-1.2,1.7-1.5,2.2s-0.1,1.8,0.7,2.6
			l1.7,0.3l0.2,12.1c0,0,2.5,1,2.8,2.5s1.8,1.8,1.8,1.8s1.2-0.1,1.8-0.6l0.5-0.6l2.1,0l1.3,1.2l1.2-1.2l1.8-0.1l0.1-0.5l6.1-1.8
			l0.7,0l0.7,2.3l-0.2,0.4l0.5,0.5l1.1,3.3l10.4-0.1l-0.7-0.7l-0.5-3.6l0.4-2.5l-6.1-1.5l1.8-3.3l2.3,0.3l0,1.2l2.3,0.1l2.1,1.3
			l0-5.4c0,0,1.7-0.4,1.8-0.4s1.2-0.1,1.3-0.2c0.1-0.1,1.3,0.1,1.3,0.1s0.5-0.7,0.2-1.7l-0.3-0.4l-0.5,0c0,0-0.4-0.4-1-0.1l-0.3,0.6
			c0,0-0.4,0-0.6-0.1s-1.1-1.7-3.4-1.6l0.2-3.5l1.7,0.1l0.1-1.2l-0.4-0.7l-0.6,0.5l-0.7,0.2l0.3-3.1l-1.9-7.8c0,0,0.3-1.8,0.5-4.3
			s-1.4-3.9-4.3-5.4c-2.9-1.5-10.6-4.1-10.6-4.1s-1.1-0.2-2.6,0.7C268.8,781.1,253.4,788.4,253.4,788.4z"/>
		<path clip-path="url(#SVGID_2_)" fill="#E5E5E5" d="M226.7,587.3l0.5-0.1l1.1-1.8l0.3-0.9l0.2,0.1l0.1-0.2l3.4,2l-0.4,1.1
			l-0.6,0.5l0.5,0.2l1.3-1.3l0.5-2.8l3.7-0.2l1.9,1.1l0.4,6l-2.9,0.3l0.5,2.6l-0.4,0.6c0,0-3.1,1.5-4.5,1.6l-2.1-0.1l-0.2,4
			l-0.1,2.4l-0.3,1l0.3,0.1l0,0.7l-0.2,0.2l0.1,0.5l-0.2,0.4l0.8,0.4l-0.2-0.8c0,0,0.3-0.2,0.2-0.8l0-0.3l0.4-0.3l0.1,0.1l0.3-0.6
			l0.3-0.1l0-0.2l0.2,0l0.1-0.8l0.3,0.3l0.1-0.2l0.7,0.7l0.2-0.2l0.2,0.3l0.1-0.3l0.8,0.8l1.1,1.5l0.6,0.2l-1.1,1.9
			c0,0-0.2,0.4-1.3,1.3c-0.8,0.7-0.6,1-2.3,2.7s-2.2,1.5-2.3,2.7c-0.1,1.2-0.2,3.1-0.5,3.7c-0.4,0.6-3.2,3.5-3.2,3.5l-0.7,0.2
			l-0.9,0.9c0,0-0.4-0.1-0.5-0.2c-0.1-0.1-0.4-0.4-0.4-0.4l-2-0.8l0.1-0.7l0.3-0.5l-0.7-0.8l-1.4-0.4l-0.1-0.2l-0.7,0l-3.2-0.7
			l-0.5-0.3l-0.3,0.4l-3-1.4l10.2-22.9L226.7,587.3z"/>
		<path clip-path="url(#SVGID_2_)" fill="#E5E5E5" d="M204.1,636l1,0.6l0.3,0.4l-0.1,0.2l0.8,0.2l0.4,0.4l-0.1,0.3l0.7-0.1l0.6,1.1
			l-0.1,0.9l-0.1,0.3l0.3,0.3c0,0,0.3-0.5,1-0.4l1-0.9l0.2,0l0.1-0.5l0.7-0.4l0-0.2l0.6-0.3l0.6,0.5l0.2,0.5l-0.4,1.2
			c0,0-1.7,0-2.8,1.2c0,0,0.9,0.6,1,0.6s0.6,0.2,0.6,0.2l0.7,0.9c0,0,0.3-0.3,0.3-0.6l0.3,0l0-0.4l0.5,0l0.8,0.4
			c0,0-0.1,0.2-0.1,0.4c0,0.1-0.6,1.9-0.8,2.2l-0.4,0.8c0,0,0,0.7,0,0.9l0.2,0l0,1.5c0,0-0.6,1.1-0.6,1.4s-0.1,1.8-0.1,1.8l0.1,0.1
			l-0.1,0.8c0,0-0.2,0.7-0.7,1s-1.3,1.2-1.4,1.8l-0.1,0l-0.6,1.1l-1,1.7l-0.1,0.7c0,0-0.4,1.9-0.8,2.4l-0.6-0.5l-0.5-0.1
			c0,0-0.3-0.3-0.9-0.9l-0.6-0.4l-2.6,1.1l0,2.2l-0.7,0.1l-1.5-0.6c0,0-0.9,0.7-1.1,0.7c-0.2,0-5.8,0.2-5.8,0.2l0,0.4l1,0.7
			l-1.4,1.7l-2.7-2c0,0-0.2,0.1-0.3,0c-0.1,0-1.6-0.4-2.2-0.7s-1.3-2.1-1.3-2.1l16.5-24.5L204.1,636z"/>
		<path clip-path="url(#SVGID_2_)" fill="#E5E5E5" d="M499.9,233.7l-0.2,0.4l-0.2-0.1l0,0.3l-0.2,0l0.1,0.2l-2.6,2.5l-0.1,0
			l-0.2,0.4l-0.1,0l-0.4,0.3l-0.1,0.2l0.2,0v0.2c0,0,1.2-0.6,1.7-0.7c0.5-0.1,0.8,0.2,0.8,0.2s0,0.3,0.1,0.4l-0.2,1
			c0,0-0.2,0.3-0.5,0.3c-0.3,0-1.3,0.6-1.3,0.6s-0.4,0.3-0.8,0.1c-0.5-0.2-1.4-0.2-1.9,0.2l-0.4,0.3c0,0,0.5,1.7,0.9,2.3
			c0.4,0.6,1.8,3,1.8,3l1.3-1.4l2,0.5l0.4,0.3l-0.2,0.1l-0.1,0.2l-0.3-0.1l-0.5-0.1l-0.3,0.6l0.1,0.1c0,0,0.4,0.1,1.1-0.3l0.4-0.4
			l0.7,0.6l0.8-0.7l0.1,0l0.1-0.1l0.5,0.4c0,0,0.3,0.2,0.5,0.2l0.3-0.2l0.5,0.3l-0.1,0.2l0.3,0.3l0.1,0l0.1,0.2l0.3,0.1l0,0.2
			l0.5,0.3c0,0,0.2-0.4,0.3-0.4c0,0,0.1-0.3,0.2-0.4s0.5-0.2,0.5-0.2l0.1-0.1l0.4,0.6c0,0,0.5,0.3,0.7,0.5c0.1,0.2,0.3,0.5,0.3,0.6
			c0,0.1,0.2,0.3,0.2,0.3s-0.1,0.3-0.1,0.3c0,0-0.3,0.1-0.3,0.1l0.1,0.4l0.1,0c0,0,0.6-0.3,0.6-0.3c0,0,0.9-0.2,0.9-0.2l-3-7.8
			l-1.7-3.4l-3.5-3.6L499.9,233.7z"/>
		<path clip-path="url(#SVGID_2_)" fill="#E5E5E5" d="M522.5,89.6c0,0-4.2-0.1-4.3-0.1l-0.8,0.7l-1,0.6l0-0.3l-0.6-0.2l-0.1,0.7
			l-0.2,0.3l-0.5-0.3l-0.2-0.5l-0.5-0.5l-0.5-0.1l-0.5,0l-0.6,0.4c0,0-0.5-0.9-1.1-1.4c0,0-0.4,0-0.6,0.6l-0.4,1l-0.7,0.7l-0.2,0.2
			l-0.1,0.8l-0.1,0.1l0,0.2l0.2,0.2l-0.2,0.1l0.1,0.1l0,0.3l-0.1-0.1l-0.1,0.2l0.1,0.3l0.1,0v0.5l0.1,0.3l-0.3-0.1l0,0.2l-0.1,0.4
			l-0.2,0.1l0.1,0.1l0,0.3l0.3,0.9l0.3,0.3l0.2,0.5l-0.3,0l-0.3,0.1l-0.3,0.2l-0.2,0l-0.2,0.2l-0.6,0.1l0.3,0.6l0,0.3l-0.2,0.3
			l-0.1,0.6l0,1.9l0.3,0.4l1.3,0.3l1.2,0.6l2.2-0.6l0.6,0.7l0.5-0.5l0.3-0.1c0,0,0.4-0.2,0.5-0.2s0.3,0.1,0.3,0.1l0.6-0.7l0.5-1.9
			l1.8,0.3l0.7-1.6l0.3-0.4l3.7-5l-0.7-0.5l-0.8,1.1l-0.1-0.2l0-0.1c0,0-0.1-0.4-0.3-0.6c0,0,0.1-0.3-0.3-0.7l-0.5-0.7l1.9,0.1
			l0.8-0.1l0.3-0.7L522.5,89.6z"/>
		<g clip-path="url(#SVGID_2_)">
			<polygon fill="#E5E5E5" points="413.2,305.4 413.7,305.5 414.4,305.3 414.9,304.9 415.4,305.4 416.3,305.5 416.8,306.2 
				417.5,306.2 417.8,306.6 417.5,306.9 417.6,307.9 415.2,307.7 415.2,306.3 414.2,306.6 414.2,307.2 413.2,307.3 			"/>
			<path fill="#E5E5E5" d="M421.3,301.9l0.6,2c0,0-4.9,6.1-5.5,6.3l0.1,0.5l0.4,0.1l0.2,0.3l0.7,0.1l0.3-0.3l0.2,0l0.2,0.2l0,0.2
				l-0.2,0.6l0.2,0.3l0.1,0.3l-0.1,0.1l-0.4,0.1l-0.2,0.2l-0.1,0.4l0.3,0.1l0.2,0l0.2,0.2l-0.3,0.3v0.2l0.2,0.2l0.5,0l0.1,0.4
				l0.2,0.2h0.2l0.3,0.1l0.4,0.1l0.5,0.3l0.1,1.2l0.5,0.3l-0.1,0.3l0.1,0.3l0.7,0.6l0.3,0.1l0.6,0.4l0.1,0.3l0.2,0.2l0.3,0l0.3,0.2
				l0.4-0.1l0.5,0.2l0.1,0.4l0.5,0.1l0.2-0.4l0.3,0l0,0.2l0.1,0.1l0.3,0.1l0.4-0.4l0.2-0.1l0.5,0l0.4-0.1l0.1,0.1l0,0.6l0.1,0.1
				l0.2,0l0.1-0.2l0-0.3l0.3,0l0.2-2.3c0,0,0.3-0.9,0.4-1.5c0,0,0.5-0.6,0.5-0.7c0-0.1,0.3-3.8,0.4-4.1s2.1-3.7,2.2-3.8
				c0,0,0.2-1.2,0.2-1.3l3.5-0.5l0.9-2.5l0.4-0.4l0.5,0.3l1.6-1.4l0.3,1.1l0.5,0.8l1.5,1.3l0.8,0l0.7,0.4l0,0.1l0.4,0.3l0.1-0.4
				l1.3,0.4l0.7-0.3l0,0.2l0.3,0.1l0.3-0.2l0.7-0.9l0.2,0.2l1.3,0.3l1.7,0.7l1.1-0.1l1.4,0.2c0,0,0.9,0.5,1.3,0.8l0.5,0.6l0.3,0
				l0-0.8l0.6-0.7l-0.4-0.6l0-0.3c0,0,1,0.2,1.1,0.2s0.5,0,0.5,0l-0.3-0.8l0.4-1l-0.4-0.6l-0.3-0.3l-0.2,0l-0.9-0.7l-0.6-0.7
				l-1.4-0.6l-0.7,0.6l-3.2-0.5l-0.2,0.1h-0.2l-0.6,0.5l-0.2-0.2l-0.1-0.4l-0.5-0.4l-0.3-0.1l-0.1-0.3l-0.6-0.2l-0.1-0.3l0.3-0.2
				l-0.5-4.4l0.4-0.4l-0.1-0.1l-0.3,0l-0.1,0.1l-0.3,0l-0.3,0.4c0,0-1.4,0.4-2.4,0.3c-1-0.1-2.3-0.8-2.3-0.8s-1.3-0.6-2.4-0.4
				s-2,0.6-2.6,1.4c0,0-0.3,0.5-0.3,0.7l1.3,1.5l0.3,0.1l-0.5,0.3l-0.9,1l0.4,0.2l-0.1,1.1l0.2,0.9l-3.9,1.8l0-0.9h-0.4l-0.3,0.3
				l-0.3,0.6l-0.4,0l-3-1.7l-1.3,0.6l-0.2,0l-0.1,0.2l-1.5,1.2l-0.2,0.4l-1.4-0.7l-0.2,0.4L421.3,301.9z"/>
		</g>
		<polygon clip-path="url(#SVGID_2_)" fill="#E5E5E5" points="333.6,1357.4 332.5,1370.9 329.5,1378.4 326.6,1378.4 326.4,1382.3 
			326.8,1382.4 326.9,1381.6 328.5,1381.8 329.6,1382.1 329.2,1383.8 327.8,1383.2 326.7,1383.2 326.8,1382.6 326.3,1382.6 
			325.4,1387.3 327.2,1387.4 328.7,1387.7 327.8,1389.9 325.2,1388.7 324.5,1389.7 322.2,1395.9 323,1396.5 321.9,1398.9 
			320.9,1398.5 321.1,1397.4 316.4,1394.4 314.7,1397.7 317.8,1400.2 319.4,1401.8 321.4,1401.8 321.4,1402.3 320.4,1402.3 
			319.8,1403.4 321.6,1404.4 321.7,1407.3 321.4,1407.3 321.3,1406.9 318.4,1406.2 318.3,1406.4 320.8,1407 320.8,1408.7 
			321.4,1409 321.4,1408.1 321.8,1408.4 322.5,1407.7 323.3,1407.6 324.5,1408.3 324.4,1414.6 316,1412 300.4,1433.9 298.5,1433.9 
			296.1,1429.3 297.6,1428.7 297.5,1406.4 304.3,1399.6 304.4,1385.4 318.1,1374.8 327.1,1374.8 327.4,1372.1 327.4,1357.5 		"/>
		<path clip-path="url(#SVGID_2_)" fill="#E5E5E5" d="M391,572.1l0.9,0.2l0.9,0l0.4,0l0.3,0.4l0.6,1.3c0,0,0.3,1.1,0.3,1.3
			s0.5,2.2,0.5,2.3c0.1,0.1,0.7,1.8,0.7,1.9c0,0.1,0,0.8,0,0.8l-0.3,0.8l-0.5,0.7c0,0-0.5,1.9-0.4,2.5c0.1,0.7,1.2,1.7,1.2,1.7
			s0.5,1.3,0.7,2.1l0.3,0.6l0.8,0l3.1-1.5c0,0,1.7,0.1,2,0l0.8,0.6l0.4,0l0,0.3c0,0,1.3,1.2,1.5,1.2s0.4,0.3,0.4,0.3l-0.2,0.5
			l-0.3,0.5l-0.8,0.5l-0.2,0.4c0,0-0.5,1.1-0.7,1.5l0.6-0.2l0.4,0.2l0.3,0.1l0.5,0v0.2l0.6,0l1.2,0.6l1.6,1l-0.8,0.2l-0.8,1
			l-0.1,0.9l-0.4,0.7l-0.4,0.4c0,0-0.6,0.9-0.6,1.1s-0.4,0.5-0.4,0.7c0,0.2,0.4,1.1,0.4,1.1l-0.1,2.1l0.2,0.8c0,0,0.6,0.8,0.8,0.9
			l0.1,2.5l0.2,0.4l0,0.4c0,0,0.2,0.6,0.9,0.8c0,0-0.4,1.1-1,1.8l-0.8,0.2l-0.1,0.4v1.5l-1,3.9l-0.8,0l0.2,0.6l0.4,1.3l0.1,1
			l1.9,2.4l0,1c0,0-0.2,0.6,0,0.9c0.3,0.3,1.2,1.2,1.2,1.2l0.1,0.5l-0.3,0.2l-0.5,0.4l-0.8,1.9l-2.2,1v0.5l0.1,0.5l-0.1,1.1
			c0,0-0.2,3.4-2.8,5.6l-0.1,2.8l-1.4,1.3l-3.3-1.8l-0.1-0.8c0,0-0.5-1.1-1.3-1.1c-0.7,0-2.1,1.1-2.1,1.1l-4.4-3l-9,1.1l-5-4.8
			l-3.7-0.3l-0.9-1.3l-1,0.2l-2.3,2.7c0,0-1,1.1-1.8-0.2l0-4.3l1-1.4l0.8,1.2l-0.7,0.8l0.6,0.9l0,0.6c0,0,1.1,0,1.3-0.8
			c0.2-0.9,0.2-3.6,0.2-3.6l0.8,0.6c0,0,0.8,0.6,1.4-2l0.4-0.1l0-0.5c0,0,1.5-0.2,1.4-1.3c-0.1-1.1-1.6-1.7-1.6-1.7l-0.1-1.4
			c0,0,0.8-0.2,0.8-0.4s-0.8-0.4-1.4-0.2l-0.1,0.7l-0.6,0l-0.9,0.2l-0.3-0.5l-0.6,0.1l-1.5,0.3l-0.2-0.6l0.1-0.2l-0.1-0.5l0.1-0.4
			l0.5-0.3l0-1.4l-0.5-0.4l0.1-1.4l-1.1-0.4l-1,0l-0.7,0.4l-0.4,0.4H361l-0.3-0.8l0.1-0.8l0.6-0.6l1.4-0.7l0.5-0.6l-0.2-0.2h-0.7
			l-0.1-1.1l-0.1-1.8l0.2-0.5l0.4-0.6l1-0.1l0.9,0l0.1,0.9c0,0-1.2,0.3-1,1.1c0.3,0.8,0.8,0.6,0.8,0.6l0.7-0.9l0.3,0.3l-0.3,0.3
			l0.1,0.3l0.1,0.3l-0.6,0.4l-0.2,0.3l0.3,0.8l0.6,0.5l0.7-0.1l-0.1-0.5l2-1.1v-0.3l0.5-0.3l1.4,0c0,0-0.2-1.2,1.4-1.6
			s2.3-0.2,2.3-0.2l0.1-0.2l-0.8-0.7l0.9-0.7l1.6-1.3l0.3-0.7l-0.6-1c0,0,0.6,0.3,0.8,0.2c0.2-0.1,0.7-1,0.7-1l-1-1.3l1.5,0.2l2.1,0
			l2.6-0.6l-0.2-0.6l0-0.4l-0.9-0.9l0-0.8c0,0-0.1-0.8-0.9-1.5c0,0-0.4-2,1.4-2.5c1.8-0.5,5.1,0.3,5.6,1.1c0,0,0.8,0.4,1.3,0.3
			l0.3,0.1l0,0.3l-0.1,0.5l0.1,0.3l0.2,0.1l0.5-0.1l0.2,0.4l-0.1,0.4l-0.2,0.4l0.2,0.1h0.3l0.6-0.2l1-0.6l0.3-0.7l-0.4-0.9l0.2-0.6
			l0.1-2.6l0.1-3.4l-0.8-3l0.1-1.6l-0.9-2.5l0-2.3l-1.6-1l-0.4-1.1l-0.4-1l0.2-1.2l0.9-2.3l-0.2-0.8c0,0,0.3-0.9,1.1-0.2l0.3-0.4
			h0.2l0.4,0.2L391,572.1z"/>
		
			<use xlink:href="#SVGID_1_"  overflow="visible" fill="none" stroke="#BFBFBF" stroke-width="0.4" stroke-linejoin="round" stroke-miterlimit="10"/>
	</g>
	<polygon fill="#F2F2F2" points="459.3,809.3 463.5,814 472.2,860.7 469.5,863.1 453,861.3 441.7,817.2 449.4,805.8 	"/>
	<polyline fill="#F2F2F2" points="467.8,775.8 465.3,778.5 460.8,771.3 457.6,737.6 459.4,724 457.3,706.6 460.6,688.8 461.1,661 
		474.3,640.9 483.2,624 490.2,620.1 500.2,617.6 509.2,615.6 510.2,616.9 510.2,618.2 467.8,775.8 	"/>
</g>
<g id="Lakes">
	<path fill="#B6E5EF" d="M510.8,616.7h-2.4l-13.9,3.5l-9.5,9.3l-6.8,12.8l-6,14.5l-7.1,11.4l-1.4,3.6l-0.1,4.6l2,8.8l0.2,4.2
		l-2.1,6.5l-3,5.9l-1.8,6.5l2.5,15.4l-2.2,13.2l2.5,14.8l1.3,18.3l2.8,6.6l8.5,1.6l15.3-16.3l6-0.3l0.7,5l-3.5,13l0.8,4.4l2.9,0.5
		l3.3-1.9l5.3-4.9l2.3-3v-2.6l-0.8-2.5l-0.2-3.1l8.6-41.5l-1.2-10.5l-4.3-15.2l7.4-59.6l3-10.6l-0.5-8.3L510.8,616.7z
		 M-424.8,1171.9l0.4-0.6l2.1-0.3l-4.4-2.7l0.6-0.4l1,0.2l0.6-0.4l-0.1-1.7l-1.2-0.8l-0.2-0.3v-0.5l-0.6-1.2l-1.1,0.9l-0.3,0.4
		l-0.2,0.5l-0.7,0.9l-3.8-5.8l-3.5-2.2l-11.8-1.7l-4.2-1.8l-5-3.3l-3-4l1.2-3.6l-1.6-2.5l-0.1-2.7l0.4-3.2l-0.7-3.7l-1.5-3l-1.5-1.5
		l-1.6-1.3l-12.4-16.6l-2.2-5l-4.3-2.2l-14.4,5.5l-6.4,4.9l1.4,6.8l-1.3,2.2l-2.9,10.1l4.1,3.7l6.6,9.4l4.1,4l5.2,2.6l11.7,4.2
		l4.7,3.1l7.5,7.9l3.3,1.9l3.2,1.3l1.1-0.8l1.1-2.2l6.9-6.4l1.4,0.5l6.6,5.8l2.5,2.9l1.7,3.1l1.5,1.3l0.4-0.4l1.4,0.2v9.6l2.1-2.2
		l1.2,2.2l1,1.2l-0.1,1.5l3,5.8l3-3.7l1.1-7.9l-2.8-6.5L-424.8,1171.9z M535.2,224.4l0.2-3.1l0.7-3.5l0.4-5.6l-1.1-3.6l-2.3-2.9
		l-5.2-4.9l-6.9-0.7l-11.4,6.4l-9.8,10.5l-2,11.6l1.2,2.2l5.3,7.9l3.6,8.8l1.9,1.3l3.4,3.4l1.1,7.1l2.2,6.4l7,0.9l10.9-12.8l0.1-2.8
		l-0.2-2.1l0.4-1.5l1.8-1l-1.7-3.6l-0.1-4.4l1.8-9.9L535.2,224.4z M495.8,823l-10.9-4.2l-4.6-3l-12.5-11.9l-5,5.6l-1.4,2l-9.7-1.8
		l-3.5,9.1l1.6,12.6l7.8,12.3l1.5,10.5l2.4,4.4l4.8,2.5l13.4,2.4l5.5,0.3l2.8-0.7l7.9-5.7l2.3-2.3l-0.4-2.3l-1.5-2.2l-0.9-3.4
		l-1.1-1.3l-0.7-1.3l1.2-2.1l6.4-6.8l1.1-2.2l-1.5-7L495.8,823z"/>
</g>
<g id="roads" display="none">
	<g display="inline">
		
			<path fill="none" stroke="#C3C6D1" stroke-width="0.6" stroke-linecap="round" stroke-linejoin="round" stroke-miterlimit="10" d="
			M423.2,159.8c0,0,0.8,1,0.5,2.7c-0.3,1.7-1.9,4-4.5,4.7c-2.6,0.7-6.5-2.5-7.2,3.5c0,0-0.5,3.2-0.4,3.9c0.1,0.7,0.4,2.3,0.3,2.6
			c-0.1,0.3-1.1,1.6-1.1,1.6v2.9c0,0-0.9,2.8-1,3.4s-0.6,7.4-1.1,9.3l0.5,1.8l-1.6,2.2c0,0-1,4.7-1.4,5.8c-0.5,1.1-1.2,1.8-1.3,2.2
			c-0.1,0.4,0,1.6,0,1.6l1.1,1.4c0,0-2.1,8.8-3.7,11.8c-1.6,3-1.4,4-1.4,4s0.4,1,0.2,1.3s-1.2,2-1.1,2.3c0.2,0.3,5.6,2.4,5.6,2.4
			l1.7-0.5l2.4,0.6"/>
		
			<path fill="none" stroke="#C3C6D1" stroke-width="0.6" stroke-linecap="round" stroke-linejoin="round" stroke-miterlimit="10" d="
			M419.8,184.3l-0.7,1c0,0,0.4,1.4,0.1,1.9c-0.2,0.5-1.3,3.1-1.3,3.7c-0.1,0.6-0.2,5.3-0.2,5.3l0.7,1.4v2.5l-1.2,1.9l-0.2,3.9
			c0,0-0.2,0.8-0.3,1.3s0.2,1.6-0.5,3.3c-0.7,1.6,2.8,1.5-4.2,13c0,0,0.7,4.9-0.2,6.1c-1,1.2-1.4,2.2-1.4,2.2s-0.3,2.9-0.3,3.4
			c0,0.5,0.2,1.8,0.4,2.1c0.2,0.3,2.2,3.5,2.2,3.5l-0.4,3.5l-2.1,2.1l-0.3,1.3c0,0-0.6,2.2,0,2.8l1.5,3.3l2.5,1.8l0.5,2.5l2,1.4"/>
		
			<path fill="none" stroke="#C3C6D1" stroke-width="0.6" stroke-linecap="round" stroke-linejoin="round" stroke-miterlimit="10" d="
			M402.1,221.4l2,4.4c0,0,0.6,0.7,1.3,0.7c0.7,0,2.3,0.1,2.3,0.1l1.9,0.5l2.5,2.1"/>
		
			<path fill="none" stroke="#C3C6D1" stroke-width="0.6" stroke-linecap="round" stroke-linejoin="round" stroke-miterlimit="10" d="
			M401.9,222c0,0,0.1,3.5-0.5,4.6s-0.7,2-0.7,2l-0.4,3.5l-2.5,6.8l-1.4,0.2l-0.4,7c0,0-0.1,1.2-1,2.2c-0.5,0.6-0.1,2.4-0.6,3.7
			s-0.5,1.2-0.5,1.2s-1.5,2.4-1.5,2.7c0,0.3-0.2,1.9-0.2,1.9l-1,1.2l-0.1,2"/>
		
			<polyline fill="none" stroke="#C3C6D1" stroke-width="0.6" stroke-linecap="round" stroke-linejoin="round" stroke-miterlimit="10" points="
			398.2,237.8 398.9,239 403.7,243.3 405.8,243.1 409.1,245.7 410.5,246.2 		"/>
		
			<polyline fill="none" stroke="#C3C6D1" stroke-width="0.6" stroke-linecap="round" stroke-linejoin="round" stroke-miterlimit="10" points="
			401,240.9 399.1,243.4 398.2,246.2 397.3,246.5 395.7,247 		"/>
		
			<polyline fill="none" stroke="#C3C6D1" stroke-width="0.6" stroke-linecap="round" stroke-linejoin="round" stroke-miterlimit="10" points="
			396,245 398.7,247.2 400.6,247.6 400.8,248.9 402.8,250.2 404.1,250.3 405.6,250.9 407.3,251 411.7,252.7 412.8,252.6 		"/>
		
			<path fill="none" stroke="#C3C6D1" stroke-width="0.6" stroke-linecap="round" stroke-linejoin="round" stroke-miterlimit="10" d="
			M409.7,248.3l-0.6,1.7l-1.4,0.6l-1.5,1.3l-1.1,4.4l-3.2,4.6l0.2,2.6l-1,3v3.1l-1.2,3c0,0,0.9,4.8,0.8,6.1
			c-0.2,1.3-1.4,6.3-1.4,6.3s-1.3,2.8-1.3,2.9s0,0.9,0,0.9"/>
		
			<path fill="none" stroke="#C3C6D1" stroke-width="0.6" stroke-linecap="round" stroke-linejoin="round" stroke-miterlimit="10" d="
			M394.1,259.7l3.6,1.5c0,0,1.7,0.2,2.1,0.1c0.4-0.1,2-0.4,2.7-0.2"/>
	</g>
</g>
</svg>
