<svg id="Layer_1" data-name="Layer 1" xmlns="http://www.w3.org/2000/svg" viewBox="0 0 35 35"><defs><style>.cls-1{fill:#cae0e0;}.cls-2{fill:#596b6a;}.cls-3{fill:#a8c1c0;}</style></defs><title>adir</title><path class="cls-1" d="M20.75,33.92a.42.42,0,0,1-.3-.12l-1.37-1.37a.41.41,0,0,1-.11-.37l.59-3.47-.17-.18a.42.42,0,0,1-.11-.18l-.43-1.43-6,3.63a.41.41,0,0,1-.51-.07L9,27a.41.41,0,0,1-.12-.38l1.65-8.45-.28-1.13L5.6,11.61a.39.39,0,0,1-.08-.14L4.74,9.09a.44.44,0,0,1,.09-.41.42.42,0,0,1,.32-.14h.07l.21,0c-.7-.82-1.69-2-2.12-2.56A18,18,0,0,1,1.1,1.64a.44.44,0,0,1,.1-.44.42.42,0,0,1,.3-.12l.14,0A18,18,0,0,1,6,3.31c.56.43,1.74,1.42,2.56,2.12l0-.21A.43.43,0,0,1,9,4.72l.13,0,2.38.78a.39.39,0,0,1,.14.08l5.45,4.62,1.13.28,8.45-1.65h.08A.43.43,0,0,1,27,9l3.34,3.34a.41.41,0,0,1,.07.51l-3.63,6,1.43.43a.42.42,0,0,1,.18.11l.18.17L32.06,19h.08a.4.4,0,0,1,.29.12l1.37,1.37a.42.42,0,0,1,.06.52l-3.63,5.79A.4.4,0,0,1,30,27h-.07a.43.43,0,0,1-.26-.09L27,24.9l.16.53a.43.43,0,0,1-.11.42L25.85,27a.43.43,0,0,1-.3.13l-.12,0L24.9,27l2,2.65A.44.44,0,0,1,27,30a.4.4,0,0,1-.19.28L21,33.86A.46.46,0,0,1,20.75,33.92Z"/><path class="cls-2" d="M1.5,1.5A17.58,17.58,0,0,1,5.76,3.64c.9.69,3.43,2.87,3.43,2.87L9,5.15l2.38.77,5.52,4.69,1.32.33,8.54-1.68,3.34,3.35-3.9,6.49,1.95.59.33.33,3.7-.64,1.36,1.37-3.62,5.79-3.67-2.73.51,1.74-.58.59-.59.58-1.74-.51,2.73,3.67L20.75,33.5l-1.37-1.36.64-3.7-.33-.33-.59-1.95-6.49,3.9L9.26,26.72l1.68-8.54-.33-1.32L5.92,11.34,5.15,9l1.36.23S4.33,6.66,3.64,5.76A17.58,17.58,0,0,1,1.5,1.5m0-.85A.85.85,0,0,0,.7,1.77,18.36,18.36,0,0,0,3,6.27c.35.45,1,1.28,1.66,2a.46.46,0,0,0-.12.12.83.83,0,0,0-.17.81l.78,2.38a.78.78,0,0,0,.16.28l4.55,5.38.24.94L8.43,26.56a.86.86,0,0,0,.24.76L12,30.66a.84.84,0,0,0,1,.13l5.56-3.35.28.92a.84.84,0,0,0,.21.35l0,0L18.55,32a.84.84,0,0,0,.23.74l1.37,1.37a.86.86,0,0,0,.6.25.93.93,0,0,0,.45-.13L27,30.59a.83.83,0,0,0,.23-1.22l-1.37-1.85a.75.75,0,0,0,.3-.2l.59-.59.59-.59a.75.75,0,0,0,.2-.3l1.85,1.37a.87.87,0,0,0,.51.17H30a.87.87,0,0,0,.56-.39l3.63-5.78a.85.85,0,0,0-.12-1.05l-1.37-1.37a.82.82,0,0,0-.59-.24H32l-3.26.56,0,0a.84.84,0,0,0-.35-.21l-.92-.28L30.79,13a.83.83,0,0,0-.13-1L27.32,8.67a.84.84,0,0,0-.6-.25h-.16L18.2,10.07l-.94-.24L11.88,5.28a.78.78,0,0,0-.28-.16L9.22,4.34A1.09,1.09,0,0,0,9,4.3a.81.81,0,0,0-.55.21.46.46,0,0,0-.12.12C7.55,4,6.72,3.32,6.27,3A18.36,18.36,0,0,0,1.77.7a.86.86,0,0,0-.27,0Z"/><polygon class="cls-2" points="23.81 26.21 25.57 27.12 26.49 26.41 27.2 25.47 26.21 23.81 23.81 26.21"/><path class="cls-3" d="M1.5,1.5A21,21,0,0,0,2.8,4.44l1-.07.07-.49.49-.07.07-1A21,21,0,0,0,1.5,1.5Z"/><path class="cls-2" d="M6.31,6.31a2.23,2.23,0,0,1,1.22-.65,5.52,5.52,0,0,0-2-1.07l-.8.1-.1.8a5.52,5.52,0,0,0,1.07,2A2.23,2.23,0,0,1,6.31,6.31Z"/><path class="cls-2" d="M6.41,6.41a1.93,1.93,0,0,0-.63,1.26c.88,1,2.63,2.64,2.63,2.64l1.68-.22.22-1.68S8.68,6.66,7.67,5.78A1.93,1.93,0,0,0,6.41,6.41Z"/><path class="cls-2" d="M1.5,1.5A17.58,17.58,0,0,1,5.76,3.64c.9.69,3.43,2.87,3.43,2.87L9,5.15l2.38.77,5.52,4.69,1.32.33,8.54-1.68,3.34,3.35-3.9,6.49,1.95.59.33.33,3.7-.64,1.36,1.37-3.62,5.79-3.67-2.73.51,1.74-.58.59-.59.58-1.74-.51,2.73,3.67L20.75,33.5l-1.37-1.36.64-3.7-.33-.33-.59-1.95-6.49,3.9L9.26,26.72l1.68-8.54-.33-1.32L5.92,11.34,5.15,9l1.36.23S4.33,6.66,3.64,5.76A17.58,17.58,0,0,1,1.5,1.5m0-.85A.85.85,0,0,0,.7,1.77,18.36,18.36,0,0,0,3,6.27c.35.45,1,1.28,1.66,2a.46.46,0,0,0-.12.12.83.83,0,0,0-.17.81l.78,2.38a.78.78,0,0,0,.16.28l4.55,5.38.24.94L8.43,26.56a.86.86,0,0,0,.24.76L12,30.66a.84.84,0,0,0,1,.13l5.56-3.35.28.92a.84.84,0,0,0,.21.35l0,0L18.55,32a.84.84,0,0,0,.23.74l1.37,1.37a.86.86,0,0,0,.6.25.93.93,0,0,0,.45-.13L27,30.59a.83.83,0,0,0,.23-1.22l-1.37-1.85a.75.75,0,0,0,.3-.2l.59-.59.59-.59a.75.75,0,0,0,.2-.3l1.85,1.37a.87.87,0,0,0,.51.17H30a.87.87,0,0,0,.56-.39l3.63-5.78a.85.85,0,0,0-.12-1.05l-1.37-1.37a.82.82,0,0,0-.59-.24H32l-3.26.56,0,0a.84.84,0,0,0-.35-.21l-.92-.28L30.79,13a.83.83,0,0,0-.13-1L27.32,8.67a.84.84,0,0,0-.6-.25h-.16L18.2,10.07l-.94-.24L11.88,5.28a.78.78,0,0,0-.28-.16L9.22,4.34A1.09,1.09,0,0,0,9,4.3a.81.81,0,0,0-.55.21.46.46,0,0,0-.12.12C7.55,4,6.72,3.32,6.27,3A18.36,18.36,0,0,0,1.77.7a.86.86,0,0,0-.27,0Z"/></svg>