<svg id="Layer_1" data-name="Layer 1" xmlns="http://www.w3.org/2000/svg" viewBox="0 0 36.72 32.11"><defs><style>.cls-1{fill:#3bb5f2;}</style></defs><title>aero</title><path class="cls-1" d="M33.18,31.24a56.47,56.47,0,0,1-8-6.52A30.87,30.87,0,0,1,19,16.47a13.93,13.93,0,0,1-1.4-5,10.43,10.43,0,0,1,.16-2.67,10.37,10.37,0,0,1,.95-2.52,8.41,8.41,0,0,1,3.91-3.68A9.57,9.57,0,0,1,28,1.83a8.68,8.68,0,0,1,2.63.84,8.17,8.17,0,0,1,2.22,1.69,9.18,9.18,0,0,1,2.33,5,9.39,9.39,0,0,1-.91,5.46,11,11,0,0,1-3.69,4.12A12.73,12.73,0,0,1,25.49,21a18.06,18.06,0,0,1-5.44.06A39.49,39.49,0,0,1,9.94,18l1-2.21A37.1,37.1,0,0,0,20.36,19a12.61,12.61,0,0,0,9.2-1.57A9.14,9.14,0,0,0,32.77,14a7.82,7.82,0,0,0,.88-4.51,7.18,7.18,0,0,0-5.86-6.48,8.42,8.42,0,0,0-4.71.49,7.45,7.45,0,0,0-3.54,3.14,9.67,9.67,0,0,0-.92,2.26,9.45,9.45,0,0,0-.23,2.44,13.26,13.26,0,0,0,1.2,4.83,30.3,30.3,0,0,0,5.86,8.29A56.42,56.42,0,0,0,33.18,31.24Z"/><polygon class="cls-1" points="1.48 9.76 15.74 15.8 8.84 19.94 1.48 9.76"/></svg>