<svg id="Layer_1" data-name="Layer 1" xmlns="http://www.w3.org/2000/svg" viewBox="0 0 35 35"><defs><style>.cls-1{fill:#fee857;}.cls-2{fill:#203c75;}</style></defs><title>air traktor</title><path class="cls-1" d="M4.11,34.39a.68.68,0,0,1-.49-.2L1,31.55a1.28,1.28,0,0,1,0-1.81L12.8,17.92a.28.28,0,0,1-.09-.07l-.23-.23a.38.38,0,0,1,0-.53l.77-.85,0,0-1.78-2.62-.1,0-.2.06H11a.47.47,0,0,1-.35-.15.63.63,0,0,1-.14-.37l0-.44a.64.64,0,0,1,.1-.33l-.2-.29a.81.81,0,0,1,.08-1l.29-.3.32-.3a.79.79,0,0,1,.56-.23.8.8,0,0,1,.45.14l.3.2a.58.58,0,0,1,.32-.1l.45,0a.62.62,0,0,1,.41.2.5.5,0,0,1,.08.43l-.05.21,0,.09,2.56,1.73.1.09.85-.77a.42.42,0,0,1,.26-.1.36.36,0,0,1,.27.12l.23.23a.28.28,0,0,1,.07.09L29.74,1a1.27,1.27,0,0,1,1.81,0l2.64,2.63a.69.69,0,0,1,0,1L20.73,18l5,6.41,4.1-4.1a.64.64,0,0,1,.93,0L32.29,22a.5.5,0,0,1,0,.71L27.8,27.15l.29.34a.49.49,0,0,1,.06.45.47.47,0,0,1-.39.25.4.4,0,0,1-.26-.1l-.35-.29-4.48,4.48a.65.65,0,0,1-.36.15.48.48,0,0,1-.34-.14l-1.62-1.53a.67.67,0,0,1,0-.94l4.11-4.1-6.41-5L4.59,34.19A.67.67,0,0,1,4.11,34.39Z"/><path class="cls-2" d="M30.65,1a.93.93,0,0,1,.63.26L33.91,3.9a.29.29,0,0,1,0,.42L20.22,18l5.46,7,4.42-4.41a.27.27,0,0,1,.19-.08.27.27,0,0,1,.18.08L32,22.23a.12.12,0,0,1,0,.17l-4.48,4.48-.64-.64-.19.19,1.1,1.31a0,0,0,0,1,0,.06h0l-1.31-1.1-.19.19.64.64L22.4,32a.12.12,0,0,1-.09,0,.11.11,0,0,1-.08,0l-1.61-1.54a.27.27,0,0,1,0-.37L25,25.68l-7-5.46L4.32,33.91a.3.3,0,0,1-.21.09.27.27,0,0,1-.21-.09L1.26,31.28a.9.9,0,0,1,0-1.27L14.41,16.87l-.32-.32-1.11,1-.23-.23,1-1.12-.31-.31-2.09-3.1-.06,0a.16.16,0,0,0,0,.09v.18a.1.1,0,0,1-.08.1L11,13.3h0a.11.11,0,0,1-.1-.12l0-.44a.34.34,0,0,1,.09-.19l.12-.12,0-.06-.33-.49a.42.42,0,0,1,0-.52l.29-.31.31-.29a.44.44,0,0,1,.29-.11.39.39,0,0,1,.23.07l.49.33.06,0,.12-.12a.26.26,0,0,1,.19-.08l.44,0h0a.11.11,0,0,1,.1.14l-.06.2a.1.1,0,0,1-.1.08H13a.09.09,0,0,0-.08,0l0,0,3.1,2.09.31.31,1.12-1,.23.23-1,1.11.32.32L30,1.26A.93.93,0,0,1,30.65,1m0-.78a1.71,1.71,0,0,0-1.19.49L17.94,12.24l0,0a.78.78,0,0,0-.55-.23.75.75,0,0,0-.52.21l-.61.55L14,11.25v0a.92.92,0,0,0-.15-.77.91.91,0,0,0-.7-.34l-.5,0a1.11,1.11,0,0,0-.25.05l-.12-.08a1.16,1.16,0,0,0-.67-.21,1.21,1.21,0,0,0-.83.33l-.3.29-.32.33a1.21,1.21,0,0,0-.12,1.5l.08.11a.86.86,0,0,0-.05.27l0,.44a.91.91,0,0,0,.25.66.87.87,0,0,0,.63.27.93.93,0,0,0,.24,0h0l1.48,2.18-.55.61a.78.78,0,0,0,0,1.07l0,0L.71,29.46a1.68,1.68,0,0,0,0,2.37l2.64,2.63a1.07,1.07,0,0,0,.76.32,1.11,1.11,0,0,0,.76-.32L18.08,21.25l5.78,4.5-3.79,3.8a1,1,0,0,0,0,1.47l1.63,1.55a.85.85,0,0,0,.61.24.9.9,0,0,0,.64-.26l4.22-4.22.07.05a.83.83,0,0,0,.52.19.81.81,0,0,0,.74-.46.83.83,0,0,0-.12-.87l-.05-.07L32.55,23a.88.88,0,0,0,0-1.25L31,20.09a1,1,0,0,0-.75-.32,1,1,0,0,0-.74.3l-3.8,3.79-4.5-5.78L34.46,4.87a1.11,1.11,0,0,0,.32-.76,1.07,1.07,0,0,0-.32-.76L31.83.71A1.7,1.7,0,0,0,30.65.22Z"/><path class="cls-2" d="M17.41,19.28l.16,0a1,1,0,0,1,.3-.56l-.44-.32A.89.89,0,0,0,17.41,19.28Z"/><path class="cls-2" d="M19.28,17.42v.15a.93.93,0,0,0-.55.31l-.33-.45A.89.89,0,0,1,19.28,17.42Z"/><polygon class="cls-2" points="17.48 18.37 17.93 18.69 18.69 17.93 18.37 17.48 17.48 18.37"/><polygon class="cls-2" points="17.71 19.58 18.74 20.5 19.34 20.44 18.58 19.73 17.71 19.58"/><polygon class="cls-2" points="19.12 20.71 20.5 21.91 21.1 21.86 19.63 20.63 19.12 20.71"/><polygon class="cls-2" points="19.58 17.71 20.5 18.74 20.43 19.34 19.73 18.58 19.58 17.71"/><polygon class="cls-2" points="20.71 19.12 21.91 20.51 21.86 21.1 20.63 19.64 20.71 19.12"/><path class="cls-2" d="M16.87,11.26h.87a0,0,0,0,1,0,0v1.29a.39.39,0,0,1-.39.39h-.09a.39.39,0,0,1-.39-.39V11.26a0,0,0,0,1,0,0Z" transform="translate(38.09 8.42) rotate(135)"/><path class="cls-2" d="M11.67,16.45h.87a0,0,0,0,1,0,0v1.29a.39.39,0,0,1-.39.39h-.09a.39.39,0,0,1-.39-.39V16.45A0,0,0,0,1,11.67,16.45Z" transform="translate(32.89 20.96) rotate(135)"/><path class="cls-2" d="M11.53,10.68a1.93,1.93,0,0,0-1.3-.45,1.93,1.93,0,0,0,.45,1.3"/><rect class="cls-2" x="3.07" y="28.65" width="1.17" height="4.91" transform="translate(-20.92 11.7) rotate(-45)"/><rect class="cls-2" x="30.5" y="1.22" width="1.17" height="4.91" transform="translate(6.51 23.06) rotate(-45)"/><rect class="cls-2" x="7.44" y="10.53" width="6.41" height="0.32" rx="0.16" ry="0.16" transform="translate(-4.44 10.66) rotate(-45)"/><path class="cls-2" d="M14,17.19l2.26,1.19s.08,0,0-.06l-1.95-1.47Z"/><path class="cls-2" d="M17.19,14l1.19,2.26c0,.05,0,.08-.06,0l-1.47-1.95Z"/></svg>