<svg id="Layer_1" data-name="Layer 1" xmlns="http://www.w3.org/2000/svg" viewBox="0 0 35 35"><defs><style>.cls-1{fill:#fff;}.cls-2{fill:#596b6a;}.cls-3{fill:#a8c1c0;}</style></defs><title>amberair 195</title><path class="cls-1" d="M24.94,34.37a.43.43,0,0,1-.3-.13l-.84-.85a.43.43,0,0,1-.11-.37l1-5.63A20.11,20.11,0,0,1,22.86,26c-1-.92-5.9-5.76-7.19-7l-3.06,3.07L9.12,28,8.3,29.55a.43.43,0,0,1-.31.23H7.93a.45.45,0,0,1-.31-.12l-.41-.41a2.32,2.32,0,0,1-.61-1.09.38.38,0,0,1,0-.21l2.56-9.23H9.08a.43.43,0,0,1-.26-.09,10.43,10.43,0,0,1-1-.9c-.3-.3-.57-.6-.81-.89a.77.77,0,0,1-.2-.52A.79.79,0,0,1,7,15.78l.89-.89a.79.79,0,0,1,1.07,0H9a10.52,10.52,0,0,1,.89.8h0l.42-2.06L3,6.21A7.53,7.53,0,0,1,.57,1.06.44.44,0,0,1,1,.63,7.54,7.54,0,0,1,6.27,2.91l7.39,7.32,2.07-.43h0a10.52,10.52,0,0,1-.8-.89h0a.83.83,0,0,1-.19-.51A.79.79,0,0,1,15,7.83l.89-.89a.76.76,0,0,1,.55-.23.79.79,0,0,1,.56.23c.25.21.55.48.85.78a9.56,9.56,0,0,1,.9,1,.42.42,0,0,1,.08.34L28,6.54h.21a2.32,2.32,0,0,1,1.09.61l.41.41a.43.43,0,0,1,.12.37.42.42,0,0,1-.22.31L28,9.07l-5.93,3.48L19,15.61c1.28,1.29,6.11,6.17,7,7.19a17.24,17.24,0,0,1,1.38,1.79l5.63-1h.07a.42.42,0,0,1,.3.12l.85.84a.41.41,0,0,1,.12.35.39.39,0,0,1-.2.31l-4.58,2.84.46,1.37a.45.45,0,0,1-.1.44.62.62,0,0,1-.39.16h-.1l-1.37-.46L25.3,34.16a.37.37,0,0,1-.31.2Z"/><path class="cls-2" d="M1,1.06A7.08,7.08,0,0,1,6,3.21c1.23,1.23,7.56,7.48,7.56,7.48L16.67,10A4.32,4.32,0,0,1,16,9.5c-.28-.29-.54-.58-.77-.86h0a.36.36,0,0,1,0-.51l.89-.89a.36.36,0,0,1,.5,0h0A8.52,8.52,0,0,1,17.5,8a7.65,7.65,0,0,1,.86,1l-.1.1.34.47L28.12,7a1.85,1.85,0,0,1,.88.5l.42.42-1.58.82-6,3.52-3.41,3.4s6.27,6.32,7.32,7.48a20,20,0,0,1,1.49,2l5.9-1,.85.83-4.87,3,.56,1.69,0,.05L28,29.07l-3,4.87-.83-.85,1-5.9a21.88,21.88,0,0,1-2-1.49c-1.16-1.05-7.48-7.32-7.48-7.32l-3.4,3.41-3.52,6-.82,1.58-.42-.42a2,2,0,0,1-.5-.88l2.64-9.52-.47-.34-.1.1a8.5,8.5,0,0,1-1-.86,9.76,9.76,0,0,1-.77-.86h0a.35.35,0,0,1,0-.5l.88-.89a.38.38,0,0,1,.26-.11.36.36,0,0,1,.25.11h0a9.76,9.76,0,0,1,.86.77,5.14,5.14,0,0,1,.55.65l.64-3.14S4.5,7.14,3.27,5.91A7,7,0,0,1,1,1.06H1M1,.21H1a.85.85,0,0,0-.85.85A7.88,7.88,0,0,0,2.67,6.51l7.16,7.23L9.6,14.83l-.36-.31h0a1.18,1.18,0,0,0-.78-.29,1.2,1.2,0,0,0-.86.36l-.89.88a1.22,1.22,0,0,0,0,1.67,11.34,11.34,0,0,0,.81.9A10.14,10.14,0,0,0,8.56,19l.07.05-2.44,8.8a.89.89,0,0,0,0,.43,2.91,2.91,0,0,0,.73,1.29l.41.41a.86.86,0,0,0,.61.25h.13a.85.85,0,0,0,.62-.45l.83-1.58L13,22.32l2.72-2.74c1.62,1.6,6,5.88,6.91,6.75a16.88,16.88,0,0,0,1.6,1.25L23.27,33a.85.85,0,0,0,.23.74l.83.85a.86.86,0,0,0,.61.25H25a.87.87,0,0,0,.63-.4l2.66-4.3,1.05.35a.81.81,0,0,0,.27,0,.86.86,0,0,0,.6-.25l.05,0a.84.84,0,0,0,.2-.88l-.35-1,4.3-2.65a.87.87,0,0,0,.4-.63.89.89,0,0,0-.25-.71l-.85-.83a.86.86,0,0,0-.6-.25H33l-5.37.92a15.39,15.39,0,0,0-1.25-1.6c-.87-1-5.14-5.29-6.75-6.91l2.74-2.72,5.89-3.46,1.54-.81A.85.85,0,0,0,30.26,8,.86.86,0,0,0,30,7.26l-.41-.41a2.75,2.75,0,0,0-1.28-.73l-.21,0a.91.91,0,0,0-.23,0l-8.8,2.44L19,8.5a10.14,10.14,0,0,0-.94-1.09c-.29-.29-.59-.56-.89-.81a1.23,1.23,0,0,0-.82-.31,1.17,1.17,0,0,0-.85.35l-.89.89a1.2,1.2,0,0,0-.36.86,1.18,1.18,0,0,0,.29.78h0c.1.13.21.25.31.37l-1.09.23L6.58,2.61A8,8,0,0,0,1,.21Z"/><path class="cls-3" d="M8.19,15.19l-.88.89a.35.35,0,0,0,0,.5h0L8.71,15.2h0A.36.36,0,0,0,8.19,15.19Z"/><path class="cls-3" d="M15.25,8.13l.89-.89a.37.37,0,0,1,.5,0h0l-1.4,1.4h0A.36.36,0,0,1,15.25,8.13Z"/><polygon class="cls-2" points="2.35 3.62 2.49 4.19 2.81 4.24 2.73 3.72 2.35 3.62"/><polygon class="cls-2" points="2.46 2.5 2.35 3.54 2.73 3.63 2.87 2.91 2.46 2.5"/><polygon class="cls-2" points="2.5 4.23 2.84 4.3 2.93 4.91 2.5 4.23"/><polygon class="cls-2" points="3.68 2.29 4.25 2.42 4.3 2.75 3.78 2.67 3.68 2.29"/><polygon class="cls-2" points="2.56 2.4 3.6 2.29 3.69 2.67 2.97 2.81 2.56 2.4"/><polygon class="cls-2" points="4.29 2.44 4.36 2.78 4.97 2.87 4.29 2.44"/></svg>