<svg xmlns="http://www.w3.org/2000/svg" width="50" height="50" viewBox="0 0 50 50">
    <g fill="none" fill-rule="evenodd">
        <path fill="#6AD6EF" d="M40.36 40.436a.385.385 0 0 1-.353.105c-.011-.003-1.25-.373-1.954-1.077l-2.81-2.81-2.518 2.518a.381.381 0 0 1-.539.003L30.99 37.98a.381.381 0 0 1 .004-.54l2.293-2.293-9.216-6.928c-.262.05-.611.027-.88-.242l-4.116-4.116c-1.52-1.52-2.093-2.558-2.424-3.292-.264-.586-.564-1.506-.639-1.74-.338-.499-1.572-2.473-.652-3.394.92-.92 2.895.315 3.394.653.233.075 1.153.375 1.74.639.567.255 1.43.712 2.62 1.785a.929.929 0 0 1 .242-.895l.112-.112a.922.922 0 0 1 1.302-.008l1.012 1.011c.209.21.855 1.198.371 1.682l-.112.112c-.279.279-.725.183-1.093.01l2.876 2.876c.268.269.29.618.241.88l7.005 9.296 2.295-2.295a.381.381 0 0 1 .539-.003l1.196 1.196a.381.381 0 0 1-.004.539l-2.517 2.517 2.81 2.81c.67.67 1.03 1.798 1.068 1.924a.384.384 0 0 1-.096.384"/>
        <path fill="#596B6A" d="M15.092 15.167c-.567.568-.597 1.448-.088 2.616.236.542.531 1.017.661 1.215.096.297.382 1.162.638 1.731.344.764.938 1.84 2.5 3.403l3.558 3.558.56.559c.295.296.684.394 1.041.368l8.745 6.574-1.981 1.981c-.3.3-.303.783-.007 1.079l1.196 1.195a.763.763 0 0 0 1.078-.006l2.246-2.246 2.542 2.542c.787.787 2.109 1.17 2.121 1.173a.769.769 0 0 0 .725-.203l.002-.002a.768.768 0 0 0 .205-.722c-.003-.012-.391-1.342-1.174-2.125l-2.542-2.542 2.246-2.246c.3-.3.303-.783.007-1.079l-1.196-1.195a.763.763 0 0 0-1.078.006l-1.984 1.984-6.65-8.826a1.317 1.317 0 0 0-.368-1.042l-.559-.559-1.566-1.566a.97.97 0 0 0 .339-.222l.112-.112c.698-.698-.036-1.89-.368-2.221l-1.011-1.011a1.304 1.304 0 0 0-1.842.01l-.112.113c-.119.119-.21.254-.274.4-.947-.775-1.662-1.146-2.16-1.37-.57-.256-1.434-.543-1.731-.639a8.692 8.692 0 0 0-1.216-.66c-1.168-.51-2.047-.48-2.615.087m.536.536c.774-.774 2.954.732 2.954.732s1.103.348 1.751.64c.626.281 1.6.8 3.02 2.19l.441-.442-.175-.175a.542.542 0 0 1 .005-.763l.112-.112a.542.542 0 0 1 .763-.005l1.012 1.011c.208.209.585.932.374 1.143l-.112.112c-.211.211-.934-.166-1.143-.375l-.26-.26-.44.439 3.063 3.063.56.559c.274.274.094.69.094.69l7.379 9.794 2.607-2.607 1.195 1.196-2.774 2.775.084.112 2.98 2.98c.627.626.975 1.767.975 1.768-.001 0-1.142-.348-1.77-.975l-2.979-2.98-.112-.084-2.775 2.775-1.195-1.196 2.605-2.605-9.715-7.302s-.415.18-.69-.095l-.558-.559-3.558-3.557c-1.509-1.51-2.055-2.532-2.347-3.181-.292-.649-.64-1.751-.64-1.751s-1.505-2.18-.73-2.955"/>
        <path fill="#596B6A" d="M18.396 22.561l.688-.041-.415-.997-1.158-.158c.216.344.5.74.885 1.196M21.29 17.587l.157 1.157.997.415.042-.688a10.565 10.565 0 0 0-1.197-.884M18.582 16.435s-2.18-1.506-2.954-.732c-.774.775.731 2.954.731 2.954l.013.04 2.25-2.25a8.185 8.185 0 0 1-.04-.012M18.266 18.58l-.526-.001c-.793 1.207-.134 2.57-.134 2.57l1.077.15s.374-1.1.72-1.583l-1.137-1.137zM18.503 17.816v.525l1.137 1.137c.484-.346 1.584-.72 1.584-.72l-.151-1.076s-1.363-.66-2.57.134M25.201 21.704l1.897 1.897.318-.318-.402-.402-1.606-1.605zM21.22 25.464l1.684 1.683.324.324.318-.317-1.898-1.897zM24.894 25.378a.885.885 0 0 1-1.192-.4.9.9 0 0 1 .415-1.198.884.884 0 0 1 1.192.4.9.9 0 0 1-.415 1.198"/>
        <path fill="#596B6A" d="M23.788 24.728l-2.377 1.138-.85.215-11.512 5.73-.298.581.25.516.467-.024 11.636-5.77.536-.949 2.294-1.137zM25.188 24.421l2.377-1.137.851-.216 11.511-5.729.3-.582-.252-.516-.466.025-11.636 5.77-.537.948-2.293 1.138zM24.633 25.273l1.108 2.363.205.849 5.587 11.44.579.292.519-.257-.02-.466-5.626-11.566-.941-.525-1.11-2.28zM24.343 23.877l-1.108-2.363-.205-.849-5.586-11.44-.579-.293-.519.258.019.466 5.627 11.566.941.524 1.11 2.28z"/>
        <path stroke="#90C9E0" stroke-width=".937" d="M18.808 41.015C9.77 37.981 4.992 28.162 8.138 19.085c3.147-9.077 13.026-13.976 22.065-10.942 9.039 3.034 13.816 12.853 10.67 21.93-3.147 9.078-13.026 13.977-22.065 10.942z"/>
    </g>
</svg>
