<svg xmlns="http://www.w3.org/2000/svg" xmlns:xlink="http://www.w3.org/1999/xlink" width="50" height="50" viewBox="0 0 50 50">
    <defs>
        <path id="a" d="M0 .04h20.546v27.353H0z"/>
    </defs>
    <g fill="none" fill-rule="evenodd">
        <path fill="#DCE1E5" d="M32.956 33.966a.792.792 0 0 0 .249-1.093l-1.136-1.804a.792.792 0 0 0-1.34.844l1.135 1.804a.792.792 0 0 0 1.092.249"/>
        <path fill="#75838E" d="M30.646 32.6l1.93-1.216a.926.926 0 0 0 .291-1.277l-.502-.797-3.351 2.11.594.943a.753.753 0 0 0 1.038.237"/>
        <path fill="#596B6A" fill-rule="nonzero" d="M29.53 42.315l-3.625-5.76a3.506 3.506 0 0 0-4.836-1.098 3.557 3.557 0 0 0-1.115 4.905l4.006 6.365a.39.39 0 1 0 .66-.416l-4.007-6.365a2.777 2.777 0 0 1 .871-3.83 2.727 2.727 0 0 1 3.761.855l3.625 5.759a4.258 4.258 0 0 0 7.208-4.536l-2.474-3.93a.39.39 0 1 0-.66.415l2.475 3.93a3.478 3.478 0 1 1-5.89 3.706z"/>
        <g transform="translate(13.545 7.479)">
            <mask id="b" fill="#fff">
                <use xlink:href="#a"/>
            </mask>
            <path fill="#596B6A" d="M6.575.04c-1.09 0-2.16.291-3.092.841A6.142 6.142 0 0 0 .64 7.61a1.69 1.69 0 0 0-.597.952c-.101.444-.023.9.22 1.284a1.694 1.694 0 0 0 2.038.687 6.08 6.08 0 0 0 2.34 1.435l9.776 12.562c.19.244.46.401.76.446l.175.277a1.543 1.543 0 0 0 1.808.643l.401.637c.344.547.869.86 1.439.86a1.561 1.561 0 0 0 1.506-1.218c.093-.408.02-.83-.203-1.185l-.483-.768c.198-.202.337-.456.402-.739a1.54 1.54 0 0 0-.2-1.17l-.184-.292a1.133 1.133 0 0 0-.083-.788l-7.08-14.321a6.077 6.077 0 0 0-.283-2.73 1.69 1.69 0 0 0 .482-.853c.1-.443.023-.899-.22-1.284a1.694 1.694 0 0 0-1.44-.795c-.258 0-.512.059-.742.17A6.218 6.218 0 0 0 6.575.04m0 .78c1.403 0 2.787.546 3.806 1.566l.342-.216a.922.922 0 0 1 .983 1.562l-.266.168a5.329 5.329 0 0 1 .427 3.15l.005-.003 7.185 14.53a.356.356 0 0 1-.13.46l.436.69a.77.77 0 0 1-.242 1.064l-.353.222.876 1.392c.233.37.122.859-.248 1.092a.74.74 0 0 1-.396.116c-.28 0-.568-.16-.78-.496l-.793-1.26-.353.222a.77.77 0 0 1-1.063-.242l-.435-.69a.41.41 0 0 1-.543-.096L5.11 11.303l.006-.003A5.328 5.328 0 0 1 2.46 9.552l-.266.168a.922.922 0 0 1-.983-1.562l.341-.215a5.35 5.35 0 0 1 2.327-6.39A5.29 5.29 0 0 1 6.575.819" mask="url(#b)"/>
        </g>
        <path fill="#DCE1E5" d="M15.613 16.488a5.348 5.348 0 1 0 9.052-5.698 5.348 5.348 0 0 0-9.052 5.698"/>
        <path fill="#75838E" d="M18.324 18.723l7.2-4.532 7.535 15.24-4.296 2.704z"/>
        <path fill="#596B6A" d="M25.619 13.855l-.439.276-6.761 4.256-.438.276.318.407 10.15 13.042.26.333.358-.225 3.938-2.479.357-.225-.187-.378-7.327-14.819-.23-.464zm-.19.672l7.327 14.818-3.938 2.48-10.15-13.042 6.761-4.256z"/>
        <path fill="#FEE857" d="M25.266 21.766a.964.964 0 0 0 .302-1.33l-.827-1.314a.965.965 0 0 0-1.632 1.028l.826 1.313c.284.451.88.586 1.33.303"/>
        <path fill="#596B6A" fill-rule="nonzero" d="M25.898 20.228l-.827-1.313a1.354 1.354 0 0 0-2.292 1.442l.827 1.314a1.354 1.354 0 1 0 2.292-1.443zm-1.633 1.028l-.827-1.314a.575.575 0 1 1 .974-.612l.826 1.313a.575.575 0 1 1-.973.613z"/>
        <path fill="#75838E" d="M15.25 17.576a1.158 1.158 0 0 1-.617-2.135l9.512-5.988a1.153 1.153 0 0 1 1.595.363c.164.261.217.571.149.873-.07.3-.25.557-.512.722l-9.512 5.987a1.153 1.153 0 0 1-.615.178"/>
        <path fill="#596B6A" d="M24.76 9.042c-.262 0-.517.074-.74.214l-9.512 5.987a1.381 1.381 0 0 0-.615.869c-.082.362-.018.734.18 1.048a1.387 1.387 0 0 0 1.917.436L25.5 11.61c.315-.198.533-.507.615-.869a1.383 1.383 0 0 0-.179-1.048 1.384 1.384 0 0 0-1.177-.65m0 .467a.922.922 0 0 1 .492 1.704L15.74 17.2a.922.922 0 0 1-.983-1.562L24.27 9.65a.917.917 0 0 1 .49-.142"/>
    </g>
</svg>
