<svg id="Layer_1" data-name="Layer 1" xmlns="http://www.w3.org/2000/svg" viewBox="0 0 35 35"><defs><style>.cls-1{fill:#ede2b2;}.cls-2{fill:#596b6a;}.cls-3{fill:#dbcf9e;}.cls-4{fill:#c8eab2;}.cls-5{fill:#cae0e0;}.cls-6{fill:#bfb073;}.cls-7{fill:none;stroke:#ede2b2;stroke-miterlimit:10;stroke-width:0.35px;}</style></defs><title>barak</title><path class="cls-1" d="M22.79,34.14a.44.44,0,0,1-.31-.13l-1.25-1.25a.43.43,0,0,1-.13-.34l.33-6.29-1.85-1.8L13,30.88a.46.46,0,0,1-.31.13h0a.46.46,0,0,1-.32-.13l-2.28-2.29a.42.42,0,0,1-.13-.35l1.07-11.16-.16-.17a18.34,18.34,0,0,1-1.82-3c-.22-.39-.39-.72-.5-.89-.52-.87-.89-1.45-1.1-1.72l-.84-1c-.85-1-1.46-1.75-1.58-1.94s-.39-.73-.47-.9a24.68,24.68,0,0,1-2-2.55A19.25,19.25,0,0,1,.89,1.47a.45.45,0,0,1,0-.41.46.46,0,0,1,.37-.2A15.84,15.84,0,0,1,4.9,2.57a23.58,23.58,0,0,1,2.55,2c.17.08.63.3.9.47s.94.74,2,1.61l1,.81c.27.21.85.58,1.72,1.1l.89.5a18.34,18.34,0,0,1,3,1.82l.17.16L28.28,10a.4.4,0,0,1,.31.13l2.29,2.28a.48.48,0,0,1,.13.32.46.46,0,0,1-.13.31l-6.55,6.55,1.8,1.85,6.31-.33a.44.44,0,0,1,.32.13L34,22.48a.45.45,0,0,1,.13.37l-.12.87a.42.42,0,0,1-.12.26l-3,3a.44.44,0,0,1-.31.13A.48.48,0,0,1,30.3,27L30,26.66l-.49.49-.06,0,.3.4a.46.46,0,0,1,0,.59l-.36.35.37.37a.43.43,0,0,1,0,.63l-.21.21a.43.43,0,0,1-.31.13.44.44,0,0,1-.32-.13l-.37-.37-.35.36a.44.44,0,0,1-.32.13.43.43,0,0,1-.26-.09l-.41-.3a.21.21,0,0,1,0,.06l-.49.49.29.28a.45.45,0,0,1,0,.63l-3,3a.5.5,0,0,1-.26.13l-.87.11Z"/><path class="cls-2" d="M1.31,1.31h0m0,0h0A17.92,17.92,0,0,1,4.66,2.94,25.54,25.54,0,0,1,7.21,5s.6.28.9.47S10.66,7.54,11,7.83s1.15.76,1.76,1.13a36.29,36.29,0,0,1,3.81,2.25l.31.31,11.37-1.09,2.29,2.29-6.86,6.86L26,21.88l6.49-.34,1.25,1.25-.11.88-3,3-1.31-1.31L30,26l-.8.79L27,24.57l2.47,3.29-.67.67.68.69-.11.1h0l-.1.11-.69-.68-.67.67L24.57,27l2.26,2.26L26,30l-.72-.7,1.31,1.31-3,3-.88.11-1.25-1.25L21.88,26l-2.3-2.24-6.86,6.86-2.29-2.29,1.09-11.37-.31-.31A36.29,36.29,0,0,1,9,12.79c-.37-.61-.85-1.39-1.13-1.76S5.62,8.41,5.43,8.11,5,7.21,5,7.21a25.54,25.54,0,0,1-2-2.55A17.92,17.92,0,0,1,1.31,1.31h0m0-.89A.89.89,0,0,0,.47,1.6,18.69,18.69,0,0,0,2.2,5.15a24.37,24.37,0,0,0,2,2.55c.1.21.3.62.46.89s.59.75,1.63,2l.82,1c.2.26.56.82,1.07,1.68.1.16.27.48.48.87a19.14,19.14,0,0,0,1.9,3.11l0,0-1,11a.86.86,0,0,0,.25.71l2.29,2.28a.88.88,0,0,0,1.25,0L19.58,25,21,26.31l-.32,6.09a.89.89,0,0,0,.26.67l1.25,1.25a.89.89,0,0,0,.63.26h.11l.88-.1a.93.93,0,0,0,.51-.26l3-3a.88.88,0,0,0,.14-1.07.93.93,0,0,0,.46.12.85.85,0,0,0,.63-.26l0,0,.06.06a.88.88,0,0,0,1.25,0L30,30l.11-.11a.88.88,0,0,0,0-1.25L30,28.53l0,0a.88.88,0,0,0,.14-1.09.86.86,0,0,0,.44.12.93.93,0,0,0,.63-.26l3-3a.93.93,0,0,0,.26-.51l.1-.88a.86.86,0,0,0-.25-.74l-1.25-1.25a.92.92,0,0,0-.63-.26h0L26.31,21,25,19.58l6.24-6.24a.88.88,0,0,0,0-1.25L28.91,9.8a.89.89,0,0,0-.63-.26H28.2l-10.95,1,0,0a19.14,19.14,0,0,0-3.11-1.9c-.39-.21-.71-.38-.87-.48-.86-.51-1.42-.87-1.68-1.07l-1-.82c-1.24-1-1.79-1.5-2-1.63s-.68-.36-.89-.46a24.37,24.37,0,0,0-2.55-2A18.76,18.76,0,0,0,1.6.47a.93.93,0,0,0-.29,0Z"/><path class="cls-3" d="M16.91,11.52l-.31-.31A36.29,36.29,0,0,0,12.79,9l-.39-.23a5.89,5.89,0,0,1-.09,2.9,22.57,22.57,0,0,1-2.62,2.48,15.93,15.93,0,0,0,1.52,2.49l.31.31L10.43,28.28l2.29,2.29,2-2a5.23,5.23,0,0,1-.32-2.46c.3-2.13,2.72-3,3.93-4.18s2.22-5.48,2.35-8.7a7.82,7.82,0,0,0-.25-2Z"/><path class="cls-4" d="M28.28,10.43,25,10.74a2.6,2.6,0,0,0,0,.56A6.61,6.61,0,0,0,27,14.81c.16.13.52.37.9.62l2.72-2.71Z"/><path class="cls-3" d="M29.43,28.69l.4-1.2-.49-.57.8-.81.63.6,3-3,.11-.89-1.36-1.45-6.61.35-1.52-1.48a4.12,4.12,0,0,0-.7.93c-.64,1.23-.25,3.32-1.06,4.55-.25.38-.7.59-1,1l-.3,5.7L22.8,33.9l.89-.11,3.14-3.16-.6-.62.69-.67.77.66,1.13-.61.52.17.11-.11h0l.11-.11Z"/><path class="cls-5" d="M4.66,2.94A17.92,17.92,0,0,0,1.31,1.31h0A17.92,17.92,0,0,0,2.94,4.66c.21.31.44.63.68.94l2-2C5.29,3.38,5,3.15,4.66,2.94Z"/><polyline class="cls-2" points="28.82 28.6 29.81 27.6 26.95 24.57 24.57 26.95 27.58 29.83 28.6 28.82"/><path class="cls-6" d="M27,27.45l-.2.21-4-4.05a12.47,12.47,0,0,1-2.34-1.54l-6.72-6.66-1.26-1.26,1.73-1.73,1.26,1.26,6.66,6.71a14.49,14.49,0,0,1,1.58,2.39l4,4-.21.21,2.23,2.22-.47.47Z"/><path class="cls-1" d="M14.15,12.67l1.14,1.14,6.65,6.71a14,14,0,0,1,1.55,2.34l3.91,3.92-.2.21,1.55,1.54.68.69-.11.1h0l-.1.11-.69-.68L27,27.2l-.21.2-3.92-3.91a14,14,0,0,1-2.34-1.55l-6.71-6.65-1.14-1.14.74-.74.74-.74m0-.5-.25.25-.74.74-.74.74-.25.25.25.25,1.14,1.14,6.71,6.65a13.69,13.69,0,0,0,2.38,1.59l3.88,3.88.25.25L27,27.7,28.28,29l.68.68.26.25.25-.25.1-.11.11-.1.25-.25L29.68,29,29,28.28,27.7,27l.21-.21-.25-.25-3.88-3.88a13.69,13.69,0,0,0-1.59-2.38l-6.65-6.71L14.4,12.42l-.25-.25Z"/><path class="cls-2" d="M10.38,8.9,8.69,7.21A9.39,9.39,0,0,0,6.36,5.7L6,6l-.33.33A9.39,9.39,0,0,0,7.21,8.69L8.9,10.38Z"/><path class="cls-2" d="M9,10.5l3.65,3.65a1.2,1.2,0,0,0,1.48-1.48L10.5,9Z"/><path class="cls-7" d="M12.51,14.24a1.24,1.24,0,0,0,1.36-.37,1.24,1.24,0,0,0,.37-1.36"/><path class="cls-7" d="M12.51,14.24a1.24,1.24,0,0,0,1.36-.37,1.24,1.24,0,0,0,.37-1.36"/><path class="cls-2" d="M1.31,1.31h0m0,0h0A17.92,17.92,0,0,1,4.66,2.94,25.54,25.54,0,0,1,7.21,5s.6.28.9.47S10.66,7.54,11,7.83s1.15.76,1.76,1.13a36.29,36.29,0,0,1,3.81,2.25l.31.31,11.37-1.09,2.29,2.29-6.86,6.86L26,21.88l6.49-.34,1.25,1.25-.11.88-3,3L30,26l-.8.79L27,24.57l2.47,3.29-.67.67.68.69-.11.1h0l-.1.11-.69-.68-.67.67L24.57,27l2.26,2.26L26,30l.59.61-3,3-.88.11-1.25-1.25L21.88,26l-2.3-2.24-6.86,6.86-2.29-2.29,1.09-11.37-.31-.31A36.29,36.29,0,0,1,9,12.79c-.37-.61-.85-1.39-1.13-1.76S5.62,8.41,5.43,8.11,5,7.21,5,7.21a25.54,25.54,0,0,1-2-2.55A17.92,17.92,0,0,1,1.31,1.31h0m0-.89A.89.89,0,0,0,.47,1.6,18.69,18.69,0,0,0,2.2,5.15a24.37,24.37,0,0,0,2,2.55c.1.21.3.62.46.89s.59.75,1.63,2l.82,1c.2.26.56.82,1.07,1.68.1.16.27.48.48.87a19.14,19.14,0,0,0,1.9,3.11l0,0-1,11a.86.86,0,0,0,.25.71l2.29,2.28a.88.88,0,0,0,1.25,0L19.58,25,21,26.31l-.32,6.09a.89.89,0,0,0,.26.67l1.25,1.25a.89.89,0,0,0,.63.26h.11l.88-.1a.93.93,0,0,0,.51-.26l3-3a.88.88,0,0,0,.14-1.07.93.93,0,0,0,.46.12.85.85,0,0,0,.63-.26l0,0,.06.06a.88.88,0,0,0,1.25,0L30,30l.11-.11a.88.88,0,0,0,0-1.25L30,28.53l0,0a.88.88,0,0,0,.14-1.09.86.86,0,0,0,.44.12.91.91,0,0,0,.63-.26l3-3a.93.93,0,0,0,.26-.51l.1-.88a.86.86,0,0,0-.25-.74l-1.25-1.25a.92.92,0,0,0-.63-.26h0L26.31,21,25,19.58l6.24-6.24a.88.88,0,0,0,0-1.25L28.91,9.8a.89.89,0,0,0-.63-.26H28.2l-10.95,1,0,0a19.14,19.14,0,0,0-3.11-1.9c-.39-.21-.71-.38-.87-.48-.86-.51-1.42-.87-1.68-1.07l-1-.82c-1.24-1-1.79-1.5-2-1.63s-.68-.36-.89-.46a24.37,24.37,0,0,0-2.55-2A18.76,18.76,0,0,0,1.6.47a.93.93,0,0,0-.29,0Z"/><rect class="cls-2" x="10.1" y="25.1" width="0.44" height="8.07" transform="translate(-17.58 15.83) rotate(-45)"/><rect class="cls-2" x="28.91" y="6.28" width="0.44" height="8.07" transform="translate(1.24 23.62) rotate(-45)"/></svg>