<svg id="Layer_1" data-name="Layer 1" xmlns="http://www.w3.org/2000/svg" viewBox="0 0 35 35"><defs><style>.cls-1{fill:#f2f2f2;}.cls-2{fill:#596b6a;}.cls-3{fill:#a8c1c0;}</style></defs><title>boing 787</title><path class="cls-1" d="M5.93,34.41a.42.42,0,0,1-.29-.12l-.53-.54a.31.31,0,0,1-.11-.2l-.5-2.39a.38.38,0,0,1,0-.15L6.86,17.45l-.36-.17-.11.1a.4.4,0,0,1-.29.12.41.41,0,0,1-.25-.08,14.57,14.57,0,0,1-1.47-1.3A13.06,13.06,0,0,1,3.3,14.93a.88.88,0,0,1-.24-.6.91.91,0,0,1,.27-.64l1.08-1.08A.88.88,0,0,1,5,12.35a.94.94,0,0,1,.6.22h0a15,15,0,0,1,1.2,1.08c.2.2.39.4.58.61l.53-3c-.53-.55-2.4-2.49-3.82-3.91C1.64,4.84.58,3,.59,1A.41.41,0,0,1,1,.59c2,0,3.85,1.06,6.33,3.54C8.75,5.55,10.69,7.42,11.24,8l3-.53c-.2-.19-.41-.38-.6-.58a14.71,14.71,0,0,1-1.08-1.19v0A.85.85,0,0,1,12.35,5a.89.89,0,0,1,.26-.63l1.08-1.08a.88.88,0,0,1,.63-.26.9.9,0,0,1,.64.26,15.3,15.3,0,0,1,1.16,1,14.65,14.65,0,0,1,1.3,1.48.41.41,0,0,1,0,.54l-.1.1.17.36L31,4.5h.15l2.39.5a.31.31,0,0,1,.2.11l.54.53a.42.42,0,0,1,.1.43.4.4,0,0,1-.34.27l-2.5.32L21.09,10.83,17.6,14.31c1,1,4.4,4.49,5.6,5.82a17.14,17.14,0,0,1,1.69,2.27l6.53-.35a.46.46,0,0,1,.23.06l1,.61a.41.41,0,0,1,.19.38.4.4,0,0,1-.23.34l-5.38,2.47L28,27.12a.41.41,0,0,1-.06.51l-.27.27a.42.42,0,0,1-.51.06l-1.21-.78-2.47,5.38a.4.4,0,0,1-.34.23h0a.42.42,0,0,1-.35-.19l-.61-1a.37.37,0,0,1-.06-.25l.35-6.51a17.14,17.14,0,0,1-2.27-1.69c-1.33-1.2-4.79-4.59-5.82-5.6l-3.48,3.49L6.66,31.55l-.32,2.5a.4.4,0,0,1-.27.34Z"/><path class="cls-2" d="M1,1C3,1,4.84,2.23,7,4.42c1.67,1.68,4.06,4,4.06,4l4.1-.72A13.85,13.85,0,0,1,14,6.55a15.51,15.51,0,0,1-1-1.16h0a.49.49,0,0,1,0-.69L14,3.62a.49.49,0,0,1,.34-.14.52.52,0,0,1,.35.14h0a15.51,15.51,0,0,1,1.16,1A14.35,14.35,0,0,1,17.09,6.1l-.31.32.43.9L31.08,4.9l2.38.5.54.53-2.55.33L20.86,10.48,17,14.3s4.45,4.54,5.88,6.1a19,19,0,0,1,1.77,2.42l6.75-.36,1,.61-5.8,2.66,1,1.61-.27.27-1.61-1-2.66,5.8-.61-1,.36-6.76A19,19,0,0,1,20.4,22.9C18.84,21.47,14.3,17,14.3,17l-3.82,3.84L6.26,31.45,5.93,34l-.53-.54-.5-2.38L7.32,17.22l-.91-.44-.31.31a14.35,14.35,0,0,1-1.43-1.26,15.51,15.51,0,0,1-1-1.16h0a.49.49,0,0,1,0-.69L4.7,12.9A.49.49,0,0,1,5,12.76a.48.48,0,0,1,.34.14h0a15.51,15.51,0,0,1,1.16,1,13.91,13.91,0,0,1,1.12,1.26l.72-4.11S6.1,8.71,4.42,7C2.22,4.84,1,3,1,1H1M1,.18H1A.82.82,0,0,0,.18,1c0,2.07,1.09,4.05,3.66,6.62,1.3,1.3,3,3.06,3.66,3.75l-.35,2,0,0A14,14,0,0,0,5.9,12.26h0A1.29,1.29,0,0,0,5,11.94a1.26,1.26,0,0,0-.92.38L3,13.4a1.29,1.29,0,0,0,0,1.81,13.43,13.43,0,0,0,1.09,1.2A14.23,14.23,0,0,0,5.6,17.75a.8.8,0,0,0,.77.12L4.09,30.94a.81.81,0,0,0,0,.31l.49,2.38a.87.87,0,0,0,.23.42l.53.53a.82.82,0,0,0,.58.24.84.84,0,0,0,.27,0,.81.81,0,0,0,.55-.68l.31-2.44,4.12-10.34,3.13-3.14c1.28,1.25,4.3,4.2,5.54,5.33A18.64,18.64,0,0,0,22,25.11l-.33,6.27a.85.85,0,0,0,.12.49l.61,1a.85.85,0,0,0,.7.38h.05a.81.81,0,0,0,.69-.47l2.27-4.94.81.52a.93.93,0,0,0,.45.13.86.86,0,0,0,.58-.24l.28-.28a.83.83,0,0,0,.11-1l-.52-.81,4.94-2.27a.81.81,0,0,0,.47-.69.8.8,0,0,0-.37-.75l-1-.61a.9.9,0,0,0-.44-.13h-.05L25.11,22a18.64,18.64,0,0,0-1.6-2.12c-1.13-1.24-4.08-4.26-5.33-5.54l3.14-3.13L31.66,7.06l2.44-.31a.81.81,0,0,0,.68-.55.83.83,0,0,0-.2-.85l-.53-.53a.87.87,0,0,0-.42-.23L31.25,4.1l-.17,0h-.14L17.87,6.37a.8.8,0,0,0-.12-.76,13.39,13.39,0,0,0-1.34-1.52A15.15,15.15,0,0,0,15.21,3a1.32,1.32,0,0,0-.89-.34A1.28,1.28,0,0,0,13.4,3L12.32,4.12a1.31,1.31,0,0,0-.07,1.78h0a15.33,15.33,0,0,0,1.1,1.22l0,0-2,.35c-.69-.66-2.45-2.36-3.75-3.66C5.05,1.27,3.08.18,1,.18Z"/><path class="cls-3" d="M4.7,12.9,3.62,14a.49.49,0,0,0,0,.69h0L5.4,12.91h0A.48.48,0,0,0,4.7,12.9Z"/><path class="cls-3" d="M12.9,4.7,14,3.62a.49.49,0,0,1,.69,0h0L12.91,5.41v0h0A.49.49,0,0,1,12.9,4.7Z"/><polygon class="cls-2" points="1.61 2.29 1.68 2.84 1.88 2.9 1.89 2.42 1.61 2.29"/><polygon class="cls-2" points="1.69 1.75 1.61 2.21 1.9 2.34 1.98 2.04 1.69 1.75"/><polygon class="cls-2" points="2.29 1.61 2.84 1.68 2.9 1.88 2.42 1.89 2.29 1.61"/><polygon class="cls-2" points="1.75 1.69 2.21 1.61 2.34 1.9 2.04 1.98 1.75 1.69"/></svg>