<svg id="Layer_1" data-name="Layer 1" xmlns="http://www.w3.org/2000/svg" viewBox="0 0 35 35"><defs><style>.cls-1{fill:#fff;}.cls-2{fill:#596b6a;}.cls-3{fill:#a8c1c0;}</style></defs><title>boing 757</title><path class="cls-1" d="M25.26,34.35a.4.4,0,0,1-.29-.12l-.81-.82a.43.43,0,0,1-.11-.36L25,27.62a16.33,16.33,0,0,1-1.72-1.33c-1-.89-6.21-6.06-7.53-7.36l-3,3L9.18,27.86l-.78,1.5a.44.44,0,0,1-.31.22H8a.4.4,0,0,1-.29-.12l-.4-.4a2.21,2.21,0,0,1-.59-1,.41.41,0,0,1,0-.22l2.69-9.12H9.38a.38.38,0,0,1-.25-.08,8.69,8.69,0,0,1-1-.87,8.79,8.79,0,0,1-.78-.86.75.75,0,0,1,0-1L8.23,15A.76.76,0,0,1,9.3,15c.25.2.54.46.83.74h0l.41-2L2.9,6a7.26,7.26,0,0,1-2.31-5A.41.41,0,0,1,1,.65,7.25,7.25,0,0,1,6.09,2.84l7.71,7.65,2-.41h0c-.28-.29-.55-.58-.77-.86a.76.76,0,0,1,0-1l.86-.85a.73.73,0,0,1,1.06,0,8.56,8.56,0,0,1,.83.74,9.78,9.78,0,0,1,.87,1,.46.46,0,0,1,.08.32L27.86,6.7l.12,0h.1a2.26,2.26,0,0,1,1,.59l.4.4a.41.41,0,0,1,.12.35.42.42,0,0,1-.22.31l-1.52.79-6,3.62L19,15.67c1.3,1.32,6.47,6.54,7.36,7.53a16.33,16.33,0,0,1,1.33,1.72L33.11,24h.07a.44.44,0,0,1,.29.11l.82.81a.42.42,0,0,1,.12.34.44.44,0,0,1-.19.3L29.8,28.29l.44,1.32a.39.39,0,0,1-.11.42.55.55,0,0,1-.37.16h-.09l-1.32-.44-2.74,4.42a.4.4,0,0,1-.3.19Z"/><path class="cls-2" d="M1,1.06A6.85,6.85,0,0,1,5.8,3.13c1.18,1.19,7.87,7.8,7.87,7.8l3-.62a4.79,4.79,0,0,1-.63-.53c-.27-.28-.52-.56-.74-.83h0a.36.36,0,0,1,0-.49l.86-.85a.34.34,0,0,1,.48,0h0a11,11,0,0,1,.83.74,8,8,0,0,1,.83,1l-.1.1.33.45L28,7.09a1.85,1.85,0,0,1,.85.48l.4.4-1.52.8-6,3.62-3.3,3.28s6.64,6.69,7.65,7.8a21.09,21.09,0,0,1,1.44,1.9l5.69-1,.82.8-4.7,2.91.55,1.63-.05.05-1.63-.55-2.91,4.7-.8-.82,1-5.69A19.67,19.67,0,0,1,23.53,26c-1.11-1-7.8-7.64-7.8-7.64l-3.28,3.29-3.62,6L8,29.17l-.4-.4a1.85,1.85,0,0,1-.48-.85L9.93,18.5l-.45-.33-.11.1a8.72,8.72,0,0,1-1-.83,7.83,7.83,0,0,1-.74-.82h0a.34.34,0,0,1,0-.49l.85-.86a.35.35,0,0,1,.25-.1.34.34,0,0,1,.24.1H9c.27.22.55.47.83.74a4.79,4.79,0,0,1,.53.63l.62-3S4.38,6.93,3.19,5.74A6.8,6.8,0,0,1,1,1.06H1M1,.24H1a.81.81,0,0,0-.82.82A7.64,7.64,0,0,0,2.61,6.32l7.49,7.55-.22,1.06-.35-.3h0a1.14,1.14,0,0,0-.75-.28,1.16,1.16,0,0,0-.83.34l-.86.86a1.18,1.18,0,0,0,0,1.61c.24.29.51.58.79.86a8.64,8.64,0,0,0,1.05.91l0,0L6.36,27.69a.89.89,0,0,0,0,.43,2.66,2.66,0,0,0,.7,1.23l.4.4A.79.79,0,0,0,8,30h.13a.82.82,0,0,0,.6-.44l.78-1.5,3.57-5.9,2.63-2.64c1.66,1.65,6.31,6.24,7.24,7.09a19.11,19.11,0,0,0,1.55,1.21L23.64,33a.84.84,0,0,0,.23.72l.8.82a.82.82,0,0,0,.59.24h.09a.82.82,0,0,0,.61-.39l2.57-4.14,1,.34a.75.75,0,0,0,.26,0,.82.82,0,0,0,.58-.24l.05-.05a.82.82,0,0,0,.2-.84l-.34-1,4.14-2.57a.8.8,0,0,0,.39-.61.79.79,0,0,0-.24-.67l-.82-.81a.86.86,0,0,0-.58-.24l-.14,0-5.17.88a19.11,19.11,0,0,0-1.21-1.55c-.85-.93-5.45-5.58-7.09-7.24l2.64-2.63,5.9-3.56,1.5-.79a.82.82,0,0,0,.2-1.31l-.4-.4a2.71,2.71,0,0,0-1.23-.7l-.2,0a.85.85,0,0,0-.23,0L19,8.87l0,0a9.47,9.47,0,0,0-.91-1.05A10.27,10.27,0,0,0,17.22,7a1.17,1.17,0,0,0-.79-.31A1.19,1.19,0,0,0,15.6,7l-.85.86a1.17,1.17,0,0,0-.34.83,1.13,1.13,0,0,0,.27.75h0c.09.12.19.23.29.35L13.93,10,6.38,2.55A7.7,7.7,0,0,0,1,.24Z"/><path class="cls-3" d="M8.52,15.27l-.85.86a.34.34,0,0,0,0,.49h0L9,15.28H9A.36.36,0,0,0,8.52,15.27Z"/><path class="cls-3" d="M15.33,8.46l.86-.85a.33.33,0,0,1,.48,0h0L15.34,9h0A.36.36,0,0,1,15.33,8.46Z"/><polygon class="cls-2" points="2.3 3.52 2.43 4.08 2.75 4.13 2.67 3.62 2.3 3.52"/><polygon class="cls-2" points="2.4 2.45 2.3 3.45 2.67 3.54 2.8 2.84 2.4 2.45"/><polygon class="cls-2" points="2.44 4.12 2.77 4.18 2.86 4.77 2.44 4.12"/><polygon class="cls-2" points="3.58 2.24 4.14 2.38 4.19 2.69 3.68 2.62 3.58 2.24"/><polygon class="cls-2" points="2.5 2.35 3.51 2.24 3.6 2.62 2.9 2.74 2.5 2.35"/><polygon class="cls-2" points="4.18 2.38 4.24 2.71 4.83 2.8 4.18 2.38"/></svg>