<svg xmlns="http://www.w3.org/2000/svg" xmlns:xlink="http://www.w3.org/1999/xlink" width="50" height="50" viewBox="0 0 50 50">
    <defs>
        <path id="a" d="M0 .08h29.51v34.727H0z"/>
    </defs>
    <g fill="none" fill-rule="evenodd">
        <path fill="#F2F2F2" d="M10.748 42.01a.394.394 0 0 1-.394-.394V18.447c0-.177.118-.332.289-.38l3.426-.946v-5.877c0-.177.118-.333.289-.38l2.332-.644a.399.399 0 0 1 .336.06l1.455 1.054a.394.394 0 0 1 .163.32v2.967l1.809 1.808-.709-3.188a.393.393 0 0 1 .002-.178l.901-3.726a.394.394 0 0 1 .278-.287l3.502-.967a.394.394 0 0 1 .21 0l10.068 2.781c.17.047.29.203.29.38V25.67l3.792 1.048c.17.047.289.202.289.38v14.518a.394.394 0 0 1-.394.394H10.748z"/>
        <g transform="translate(9.96 7.596)">
            <mask id="b" fill="#fff">
                <use xlink:href="#a"/>
            </mask>
            <path fill="#596B6A" d="M14.572.08a.79.79 0 0 0-.21.028l-3.502.967a.788.788 0 0 0-.556.574l-.9 3.726a.787.787 0 0 0-.004.356l.415 1.867-.737-.737V4.057a.787.787 0 0 0-.326-.638L7.297 2.366a.788.788 0 0 0-.671-.121l-2.333.644a.787.787 0 0 0-.578.759v5.578l-3.137.866a.788.788 0 0 0-.578.76V34.02c0 .435.353.787.787.787h27.935a.787.787 0 0 0 .788-.787V19.501a.788.788 0 0 0-.578-.759l-3.504-.968V3.648a.787.787 0 0 0-.578-.76L14.781.109a.79.79 0 0 0-.21-.029m0 .788l10.07 2.78v14.727l4.081 1.127V34.02H.787V10.851l3.716-1.026V3.648l2.332-.644L8.29 4.057v3.13l2.88 2.88L10.17 5.56l.9-3.726 3.503-.967" mask="url(#b)"/>
        </g>
        <path fill="#DCE1E5" d="M28.613 24.316v17.3h10.07V27.097zM14.463 17.42v24.196h-3.715V18.447z"/>
        <path fill="#DCE1E5" d="M24.532 8.122v33.743h10.5V10.932z"/>
        <path stroke="#596B6A" stroke-linejoin="round" stroke-width=".625" d="M24.532 8.122v33.743h10.5V10.932z"/>
        <path stroke="#596B6A" stroke-width=".625" d="M14.242 42.326v-25.89"/>
        <path fill="#D1E2EE" d="M26.658 21.541v2.837l3.124.704v-2.705z"/>
        <path stroke="#596B6A" stroke-linejoin="round" stroke-width=".625" d="M26.658 21.541v2.837l3.124.704v-2.705z"/>
        <path fill="#D1E2EE" d="M26.658 25.808v2.837l3.124.704v-2.705z"/>
        <path stroke="#596B6A" stroke-linejoin="round" stroke-width=".625" d="M26.658 25.808v2.837l3.124.704v-2.705z"/>
        <path fill="#D1E2EE" d="M18.887 30.166v2.779l-3.124.703v-2.705z"/>
        <path stroke="#596B6A" stroke-linejoin="round" stroke-width=".625" d="M18.887 30.166v2.779l-3.124.703v-2.705z"/>
        <path fill="#D1E2EE" d="M18.887 26.102v2.837l-3.124.704v-2.705z"/>
        <path stroke="#596B6A" stroke-linejoin="round" stroke-width=".625" d="M18.887 26.102v2.837l-3.124.704v-2.705z"/>
        <path fill="#D1E2EE" d="M35.033 30.635v1.868l1.654.463v-1.78z"/>
        <path stroke="#596B6A" stroke-linejoin="round" stroke-width=".625" d="M35.033 30.635v1.868l1.654.463v-1.78z"/>
        <path fill="#D1E2EE" d="M35.033 33.596v3.886l1.654.265v-3.601z"/>
        <path stroke="#596B6A" stroke-linejoin="round" stroke-width=".625" d="M35.033 33.596v3.886l1.654.265v-3.601z"/>
        <path fill="#D1E2EE" d="M14.242 19.157v2.925l-2.127.616v-2.947z"/>
        <path stroke="#596B6A" stroke-linejoin="round" stroke-width=".625" d="M14.242 19.157v2.925l-2.127.616v-2.947z"/>
    </g>
</svg>
