<svg xmlns="http://www.w3.org/2000/svg" xmlns:xlink="http://www.w3.org/1999/xlink" width="50" height="50" viewBox="0 0 50 50">
    <defs>
        <path id="a" d="M.004.134h32.097v24.752H.004z"/>
    </defs>
    <g fill="none" fill-rule="evenodd">
        <path fill="#596B6A" fill-rule="nonzero" d="M15.006 23.954l11.94 14.424a.36.36 0 0 0 .555-.46l-11.94-14.423a.36.36 0 0 0-.555.459z"/>
        <path fill="#DCE1E5" d="M41.929 34.73a.36.36 0 0 1-.204-.063L9.515 12.498a.36.36 0 0 1-.092-.5l.384-.558a.36.36 0 0 1 .5-.092l32.21 22.168a.36.36 0 0 1 .092.5l-.383.558a.36.36 0 0 1-.297.156"/>
        <path fill="#596B6A" d="M10.103 10.924a.714.714 0 0 0-.593.312l-.383.558a.72.72 0 0 0 .185 1l32.209 22.17a.717.717 0 0 0 1.001-.186l.384-.557a.72.72 0 0 0-.185-1.002L10.51 11.051a.72.72 0 0 0-.408-.127m0 .72l32.21 22.168-.384.558-32.21-22.168.384-.558"/>
        <path fill="#F2F2F2" d="M38.417 39.832a.36.36 0 0 1-.204-.063L6.004 17.601a.36.36 0 0 1-.092-.5l.383-.559a.36.36 0 0 1 .5-.092l2.015 1.387 2.667-3.876a.36.36 0 0 1 .501-.092l28.299 19.477a.36.36 0 0 1 .092.5l-2.667 3.876 1.303.896a.36.36 0 0 1 .093.5l-.384.558a.36.36 0 0 1-.297.156"/>
        <path fill="#596B6A" d="M11.775 13.445a.72.72 0 0 0-.594.312l-2.463 3.579L7 16.153A.718.718 0 0 0 6 16.338l-.384.558a.72.72 0 0 0 .185 1.001l32.209 22.168a.72.72 0 0 0 1.001-.185l.384-.557a.72.72 0 0 0-.185-1.001l-1.006-.693 2.463-3.579a.72.72 0 0 0-.185-1L12.182 13.571a.716.716 0 0 0-.407-.127m-.001.72l28.299 19.477-2.871 4.172 1.599 1.1-.384.558L6.208 17.304l.384-.557 2.31 1.59 2.872-4.172"/>
        <path fill="#F2F2F2" d="M37.895 38.156a.36.36 0 0 1-.203-.064l-28.3-19.477a.36.36 0 0 1-.092-.5l2.64-3.835a.36.36 0 0 1 .5-.093l28.3 19.477a.36.36 0 0 1 .092.5L38.192 38a.36.36 0 0 1-.297.156"/>
        <path fill="#596B6A" d="M12.237 13.764a.72.72 0 0 0-.594.312L9.004 17.91a.72.72 0 0 0 .185 1L37.488 38.39a.717.717 0 0 0 1.001-.185l2.64-3.835a.72.72 0 0 0-.185-1.001l-28.3-19.477a.717.717 0 0 0-.407-.127m0 .72L40.534 33.96l-2.64 3.835L9.598 18.319l2.64-3.835"/>
        <path fill="#F2F2F2" d="M41.423 33.056a.36.36 0 0 1-.204-.063L12.92 13.516a.36.36 0 0 1-.092-.5l2.64-3.836a.36.36 0 0 1 .5-.092l27.706 19.068c.237.164.397.41.45.694.052.284-.01.57-.173.808L41.72 32.9a.36.36 0 0 1-.297.156"/>
        <g transform="translate(12.4 8.53)">
            <mask id="b" fill="#fff">
                <use xlink:href="#a"/>
            </mask>
            <path fill="#596B6A" d="M3.364.134a.72.72 0 0 0-.593.312L.13 4.281a.72.72 0 0 0 .185 1.002L28.615 24.76a.72.72 0 0 0 1.001-.185l2.232-3.242a1.442 1.442 0 0 0-.37-2.003L3.772.261a.717.717 0 0 0-.408-.127m0 .72l27.706 19.07a.72.72 0 0 1 .185 1l-2.232 3.242L.724 4.69 3.364.854" mask="url(#b)"/>
        </g>
        <path fill="#DCE1E5" d="M38.287 39.6a.216.216 0 0 1-.122-.04L5.955 17.394a.216.216 0 0 1-.055-.3l.384-.558a.215.215 0 0 1 .3-.056l32.21 22.169a.216.216 0 0 1 .055.3l-.384.558a.216.216 0 0 1-.178.093"/>
        <path fill="#596B6A" d="M6.462 16.225a.432.432 0 0 0-.356.187l-.384.558a.432.432 0 0 0 .111.6l32.21 22.169a.43.43 0 0 0 .6-.111l.384-.558a.43.43 0 0 0-.11-.6L6.706 16.3a.432.432 0 0 0-.245-.076m0 .432l32.21 22.168-.385.558L6.078 17.215l.384-.558"/>
        <path fill="#DCE1E5" d="M41.811 34.505a.215.215 0 0 1-.122-.038L9.479 12.299a.216.216 0 0 1-.055-.3l.384-.558a.216.216 0 0 1 .3-.056l32.21 22.169a.216.216 0 0 1 .055.3l-.384.558a.216.216 0 0 1-.178.093"/>
        <path fill="#596B6A" d="M9.986 11.131a.432.432 0 0 0-.356.187l-.384.558a.432.432 0 0 0 .111.6l32.21 22.169a.43.43 0 0 0 .6-.111l.384-.558a.43.43 0 0 0-.111-.6L10.23 11.206a.432.432 0 0 0-.244-.076m0 .432l32.209 22.168-.384.558L9.602 12.121l.384-.558"/>
        <path fill="#596B6A" fill-rule="nonzero" d="M21.842 26.9l2.807-4.078a.25.25 0 1 0-.412-.283l-2.807 4.078a.25.25 0 1 0 .412.283zM25.938 29.72l2.807-4.078a.25.25 0 1 0-.412-.284l-2.807 4.078a.25.25 0 1 0 .412.284zM30.035 32.539l2.806-4.078a.25.25 0 1 0-.412-.284l-2.806 4.078a.25.25 0 1 0 .412.284zM17.746 24.081l2.807-4.078a.25.25 0 1 0-.412-.283l-2.807 4.078a.25.25 0 1 0 .412.283zM34.13 35.358l2.807-4.078a.25.25 0 1 0-.412-.283l-2.806 4.078a.25.25 0 1 0 .412.283zM13.65 21.262l2.806-4.078a.25.25 0 1 0-.411-.283l-2.807 4.077a.25.25 0 1 0 .412.284zM25.367 21.82l2.807-4.078a.25.25 0 1 0-.412-.283l-2.807 4.078a.25.25 0 1 0 .412.283zM29.463 24.64l2.807-4.078a.25.25 0 1 0-.412-.284l-2.807 4.078a.25.25 0 1 0 .412.284zM33.56 27.459l2.806-4.078a.25.25 0 1 0-.412-.284l-2.806 4.078a.25.25 0 1 0 .412.284zM21.27 19.001l2.807-4.078a.25.25 0 1 0-.411-.283l-2.807 4.078a.25.25 0 1 0 .412.283zM37.656 30.278l2.806-4.078a.25.25 0 1 0-.412-.283l-2.806 4.078a.25.25 0 1 0 .412.283zM17.175 16.182l2.806-4.078a.25.25 0 0 0-.412-.284l-2.806 4.078a.25.25 0 0 0 .412.284z"/>
        <path fill="#B5BEC4" d="M7.769 17.557l6.14-8.92 1.832.293-6.579 9.558z"/>
        <path fill="#596B6A" fill-rule="nonzero" d="M15.824 9.407a.36.36 0 1 0 .226-.684l-1.894-.625a.36.36 0 0 0-.41.138l-6.068 8.818a.36.36 0 1 0 .593.408l5.916-8.596 1.637.541z"/>
        <path fill="#596B6A" d="M10.25 18.733l-.249.36-2.38-1.638.248-.36zM12.968 14.437l-.253.367-2.38-1.638.252-.367zM13.75 13.646l-.239.348-2.38-1.638.24-.349z"/>
        <path fill="#DCE1E5" d="M12.843 13.534l-.381.555-2.575-1.772.381-.555z"/>
        <path fill="#75838E" d="M12.573 41.146a.36.36 0 0 1-.36-.36v-2.638a.36.36 0 0 1 .36-.36h20.523a.36.36 0 0 1 .36.36v2.638a.36.36 0 0 1-.36.36H12.573z"/>
        <path fill="#596B6A" d="M33.097 37.428H12.573a.72.72 0 0 0-.72.72v2.638c0 .398.322.72.72.72h20.524a.72.72 0 0 0 .72-.72v-2.638a.72.72 0 0 0-.72-.72zm-20.524 3.358h20.524v-2.638H12.573v2.638z"/>
        <path fill="#75838E" d="M30.465 34.533v3.47"/>
        <path fill="#596B6A" d="M30.105 34.533h1v2.917h-1zM20.935 29.264L19.6 30.397l5.135 6.056 1.337-1.134z"/>
        <path fill="#596B6A" d="M26.07 35.319c.074.086-.166.41-.535.723s-.727.497-.8.41c-.074-.086.166-.41.535-.722.37-.313.728-.498.8-.411M20.935 29.264c.073.086-.167.41-.536.723s-.727.497-.8.41c-.074-.086.166-.41.535-.723.37-.313.728-.497.801-.41"/>
    </g>
</svg>
