<svg id="Layer_1" data-name="Layer 1" xmlns="http://www.w3.org/2000/svg" viewBox="0 0 35 33"><defs><style>.cls-1{fill:#f2f2f2;}.cls-2{fill:#596b6a;}.cls-3{fill:#3f64c9;}.cls-4{fill:none;stroke:#ede2b2;stroke-miterlimit:10;stroke-width:0.4px;}</style></defs><title>police</title><path class="cls-1" d="M31.46,31.87a.35.35,0,0,1-.23-.09l-12.67-11-1.51-.93-2.62-1.63a3.61,3.61,0,0,1-.62-.49l-3.34-3.35a4.19,4.19,0,0,1-1.26-2.27,3.57,3.57,0,0,1,.22-1.9,1.34,1.34,0,0,1,.76-.77,3.64,3.64,0,0,1,1.34-.26,2.71,2.71,0,0,1,.56,0,4.11,4.11,0,0,1,2.28,1.25l3.35,3.35a3.28,3.28,0,0,1,.49.61l2.59,4.18L31.73,31.28a.36.36,0,0,1,0,.49A.33.33,0,0,1,31.46,31.87Z"/><path class="cls-2" d="M11.53,9.58a3.08,3.08,0,0,1,.51,0,3.78,3.78,0,0,1,2.08,1.15l3.35,3.35a2.9,2.9,0,0,1,.43.55l1.63,2.62,1,1.56,11,12.67-12.67-11-1.55-1L14.61,18a3.32,3.32,0,0,1-.55-.44l-3.34-3.35a3.87,3.87,0,0,1-1.16-2.08,3.18,3.18,0,0,1,.2-1.71,1,1,0,0,1,.57-.57,3.22,3.22,0,0,1,1.2-.23m0-.72h0a4,4,0,0,0-1.47.29,1.74,1.74,0,0,0-1,1,4,4,0,0,0-.24,2.1,4.55,4.55,0,0,0,1.35,2.47L13.56,18a3.51,3.51,0,0,0,.68.54l2.63,1.63,1.5.93L31,32.05a.69.69,0,0,0,.46.18A.71.71,0,0,0,32,31.05L21.07,18.42l-.93-1.5-1.63-2.63a3.84,3.84,0,0,0-.54-.68l-3.35-3.34a4.49,4.49,0,0,0-2.47-1.35,3.18,3.18,0,0,0-.62-.06Z"/><path class="cls-3" d="M23,28.55a.36.36,0,0,1-.25-.11l-1-1a.33.33,0,0,1-.11-.25.36.36,0,0,1,.11-.25l5.13-5.13a.36.36,0,0,1,.5,0l1,1a.36.36,0,0,1,.11.25.36.36,0,0,1-.11.26l-5.13,5.12A.36.36,0,0,1,23,28.55Z"/><path class="cls-2" d="M27.14,22.06l1,1L23,28.19l-1-1,5.13-5.13m0-.71a.71.71,0,0,0-.5.21l-5.13,5.13a.7.7,0,0,0,0,1l1,1a.73.73,0,0,0,1,0l5.13-5.13a.71.71,0,0,0,0-1l-1-1a.71.71,0,0,0-.5-.21Z"/><path class="cls-3" d="M19.81,17l.9,1.61,11,13.12-13.07-11L17,19.79a3.19,3.19,0,0,0,2.16-.61A3.25,3.25,0,0,0,19.81,17Z"/><path class="cls-2" d="M12.36,13.85l-.45.77a.35.35,0,0,0,.06.43l.12.12a.35.35,0,0,0,.5,0l.61-.61a.35.35,0,0,0,0-.5l-.28-.28A.36.36,0,0,0,12.36,13.85Z"/><path class="cls-2" d="M13.75,12.46l.77-.45a.36.36,0,0,1,.43.05l.12.13a.35.35,0,0,1,0,.5l-.61.61a.35.35,0,0,1-.5,0L13.68,13A.35.35,0,0,1,13.75,12.46Z"/><path class="cls-2" d="M10,13.64a2.38,2.38,0,0,1,.77-2.51l1.81,1.81a.18.18,0,0,1,0,.25L11.09,14.7Z"/><path class="cls-2" d="M13.54,10.13a2.39,2.39,0,0,0-2.51.76l1.81,1.81a.18.18,0,0,0,.25,0l1.51-1.51Z"/><rect class="cls-2" x="31.59" y="25.77" width="0.26" height="7.6" transform="translate(-11.62 31.09) rotate(-45)"/><path class="cls-2" d="M13.27,16.92l-.46-.46-.74.46L10.9,15.75a.14.14,0,0,0-.2.2l5,5a.14.14,0,1,0,.2-.2l-.42-.42.88-.72L16,19.28l-.81.79-2.86-2.86Z"/><path class="cls-2" d="M16.85,13.33l-.46-.46.46-.74L15.69,11a.14.14,0,0,1,.2-.2l5,5a.14.14,0,0,1-.2.2l-.42-.42-.72.87-.36-.36.78-.81-2.85-2.85Z"/><path class="cls-2" d="M11.53,9.58a3.08,3.08,0,0,1,.51,0,3.78,3.78,0,0,1,2.08,1.15l3.35,3.35a2.9,2.9,0,0,1,.43.55l1.63,2.62,1,1.56,4.57,5.28,2.07-2.07,1,1L26,25.21l5.46,6.31-6.31-5.47L23,28.19l-1-1,2.07-2.07-5.29-4.57-1.55-1L14.61,18a3.32,3.32,0,0,1-.55-.44l-3.34-3.35a3.87,3.87,0,0,1-1.16-2.08,3.18,3.18,0,0,1,.2-1.71,1,1,0,0,1,.57-.57,3.22,3.22,0,0,1,1.2-.23m0-.72a4,4,0,0,0-1.47.29,1.74,1.74,0,0,0-1,1,4,4,0,0,0-.24,2.1,4.55,4.55,0,0,0,1.35,2.47L13.56,18a3.51,3.51,0,0,0,.68.54l2.63,1.63,1.5.93,4.66,4-1.52,1.53a.7.7,0,0,0,0,1l1,1a.69.69,0,0,0,.5.2.68.68,0,0,0,.5-.2L25.19,27l5.81,5a.69.69,0,0,0,.46.18A.71.71,0,0,0,32,31.05l-5-5.81,1.67-1.67a.71.71,0,0,0,0-1l-1-1a.7.7,0,0,0-.5-.21.69.69,0,0,0-.5.21l-1.53,1.53-4-4.67-.93-1.5-1.63-2.63a3.51,3.51,0,0,0-.54-.68l-3.35-3.34a4.49,4.49,0,0,0-2.47-1.35,3.18,3.18,0,0,0-.62-.06Z"/><circle class="cls-2" cx="16.29" cy="16.44" r="1.19"/><polygon class="cls-2" points="15.87 15.65 12.35 1.25 13.41 0.99 16.14 12.17 15.48 12.33 16.27 15.55 15.87 15.65"/><polygon class="cls-2" points="17.16 16.48 31.39 20.64 31.08 21.69 20.04 18.46 20.23 17.82 17.05 16.89 17.16 16.48"/><polygon class="cls-2" points="15.79 17.19 5.08 27.43 4.32 26.64 12.64 18.69 13.11 19.18 15.5 16.89 15.79 17.19"/><circle class="cls-4" cx="16.29" cy="16.44" r="15.79"/></svg>