<svg id="Layer_1" data-name="Layer 1" xmlns="http://www.w3.org/2000/svg" viewBox="0 0 35 35"><defs><style>.cls-1{fill:#f2f2f2;}.cls-2{fill:#455453;}.cls-3{fill:#ea211c;}.cls-4{fill:#75838e;}</style></defs><title>efroni</title><path class="cls-1" d="M25,34a.48.48,0,0,1-.32-.13l-.95-1c-.16-.16-.94-1-.56-1.68.2-.36,1.54-2.66,2-3.4l-1.24-2c-.6-.46-4.81-3.76-6.57-5.53l-.55-.54-1.9,1.9-10.58,8A.44.44,0,0,1,4,29.7a.46.46,0,0,1-.31-.13L1.38,27.28A1,1,0,0,1,1.23,26c.21-.27,7.73-9,8-9.35l2.24-2.24-1.6-1.59a29.85,29.85,0,0,1-2.61-3,.46.46,0,0,1-.22.06L7,9.86a5.26,5.26,0,0,0-.72-.15.45.45,0,0,1-.33-.22A1.6,1.6,0,0,1,6,7.93c-1.77-2.68-1.44-3-1.24-3.21a.67.67,0,0,1,.41-.16A8.51,8.51,0,0,1,7.93,6a1.73,1.73,0,0,1,.86-.23,1.4,1.4,0,0,1,.7.18.47.47,0,0,1,.22.33A5.26,5.26,0,0,0,9.86,7a.47.47,0,0,1,0,.35,31.18,31.18,0,0,1,3,2.61l1.59,1.6L16.66,9.3C17.05,9,25.76,1.44,26,1.23a.74.74,0,0,1,.49-.18,1.19,1.19,0,0,1,.73.3l2.32,2.37a.44.44,0,0,1,0,.58L21.66,14.83l-1.95,2,.54.55c1.77,1.76,5.07,6,5.53,6.57l2,1.24,3.4-2a.87.87,0,0,1,.42-.1,2.16,2.16,0,0,1,1.26.66l1,.95a.46.46,0,0,1,0,.61L30,29.92l-4.69,3.92A.48.48,0,0,1,25,34Z"/><path class="cls-2" d="M26.52,1.5a.81.81,0,0,1,.44.19L29.25,4,21.3,14.56l-2.22,2.22.86.86c1.86,1.87,5.54,6.59,5.54,6.59l2.29,1.44s3.2-1.87,3.63-2.1a.35.35,0,0,1,.2-.05,1.81,1.81,0,0,1,.94.52l1,1-3.87,4.63h0L25,33.5l-1-1s-.71-.71-.47-1.14,2.1-3.63,2.1-3.63l-1.44-2.29s-4.72-3.68-6.59-5.54l-.86-.86L14.56,21.3,4,29.25,1.69,27s-.33-.39-.12-.65l8-9.34,2.53-2.53-1.91-1.91A31.43,31.43,0,0,1,7.1,8.79a1.62,1.62,0,0,0,0,.64,6.13,6.13,0,0,0-.79-.17,1.21,1.21,0,0,1,.2-1.33C5.48,6.41,4.86,5.21,5,5H5l.1,0A9.16,9.16,0,0,1,7.93,6.5a1.4,1.4,0,0,1,.86-.32,1,1,0,0,1,.47.12,6.13,6.13,0,0,0,.17.79,1.61,1.61,0,0,0-.3,0,1.32,1.32,0,0,0-.34,0,31.43,31.43,0,0,1,3.74,3.14l1.91,1.91L17,9.62l9.34-8a.35.35,0,0,1,.21-.07m0-.9a1.22,1.22,0,0,0-.78.28c-.26.21-8.42,7.26-9.35,8.06l-.05,0-1.9,1.9L13.17,9.61a28.75,28.75,0,0,0-2.85-2.48.7.7,0,0,0,0-.29,6,6,0,0,1-.14-.65.9.9,0,0,0-.44-.67,1.8,1.8,0,0,0-.92-.24A2.2,2.2,0,0,0,8,5.45C5.9,4.11,5.33,4.11,5.13,4.11a1,1,0,0,0-.73.29c-.43.43-.63,1,1,3.56a2,2,0,0,0,.08,1.75.9.9,0,0,0,.67.44,6,6,0,0,1,.65.14,1,1,0,0,0,.25,0h0a29.9,29.9,0,0,0,2.48,2.84l1.27,1.27L9,16.34l0,.05c-.8.93-7.85,9.09-8.06,9.35A1.39,1.39,0,0,0,1,27.55l0,.05L3.4,29.89a.91.91,0,0,0,.63.26A.9.9,0,0,0,4.57,30L15.1,22a.39.39,0,0,0,.1-.08l1.58-1.58.23.22c1.73,1.73,5.77,4.91,6.55,5.52l1.06,1.7c-.53.9-1.65,2.84-1.84,3.17-.53.95.35,1.94.63,2.22l.95,1a.9.9,0,0,0,.64.27.87.87,0,0,0,.57-.21l4.64-3.87.11-.11,3.87-4.64a.89.89,0,0,0-.06-1.21l-1-.95a2.54,2.54,0,0,0-1.58-.79,1.29,1.29,0,0,0-.64.16l-3.17,1.84-1.7-1.06c-.61-.78-3.79-4.82-5.52-6.55l-.22-.23,1.58-1.58a.39.39,0,0,0,.08-.1L30,4.57a.91.91,0,0,0-.08-1.17L27.6,1.06l-.05,0a1.63,1.63,0,0,0-1-.42Z"/><path class="cls-3" d="M11.66,10.65a1.44,1.44,0,0,1-.33-1.53c.35-.91-2.06.14-2.06.14Z"/><path class="cls-3" d="M10.64,11.67a1.43,1.43,0,0,0-1.53-.33c-.91.35.14-2.06.14-2.06Z"/><path class="cls-3" d="M7,8.86c.66.92,1.43,1.89,2.23,2.81l2.45-2.45C10.75,8.42,9.78,7.65,8.86,7a1.81,1.81,0,0,1,.7,0,6.37,6.37,0,0,1-.18-.87,1.35,1.35,0,0,0-1.48.22c-1.68-1.13-3-1.81-3.2-1.62h0c-.19.19.49,1.52,1.62,3.2A1.35,1.35,0,0,0,6.1,9.38,6.37,6.37,0,0,1,7,9.56,1.81,1.81,0,0,1,7,8.86Z"/><rect class="cls-2" x="2.66" y="5.47" width="5.83" height="0.22" transform="translate(-2.31 5.58) rotate(-45)"/><path class="cls-4" d="M6.59,7.83A1.25,1.25,0,0,0,6.3,9.26a6.13,6.13,0,0,1,.79.17s-.12-.6.14-.86A1.1,1.1,0,0,0,6.59,7.83Z"/><path class="cls-4" d="M7.82,6.58a1.28,1.28,0,0,1,1.45-.29,5.28,5.28,0,0,0,.2.84s-.64-.16-.9.1A1.11,1.11,0,0,1,7.82,6.58Z"/><path class="cls-3" d="M6.11,20.9c-2.21,2.56-4.64,5.39-4.77,5.53s.13.67.13.67l2.42,2.37L10,24.83Z"/><path class="cls-3" d="M26.43,1.34,21,6.06,24.87,10l4.6-6.1L27.1,1.47S26.7,1.12,26.43,1.34Z"/><path class="cls-3" d="M24.39,29.54c-.51.87-1,1.72-1.12,1.94-.27.49.55,1.3.55,1.3l1.08,1.09L27,32.14Z"/><path class="cls-3" d="M31.46,23.31c-.21.11-1,.57-1.84,1.06l2.54,2.54,1.67-2-1.08-1.08S32,23,31.46,23.31Z"/><path class="cls-1" d="M19.51,21.63l.66.56,2-2-.56-.66Z"/><polygon class="cls-3" points="5.49 6.29 6.29 5.49 12.16 11.11 11.11 12.16 5.49 6.29"/><path class="cls-2" d="M11.62,13.73c-1-1-1.14-1.83-.43-2.54a1.31,1.31,0,0,1,1-.44,2.35,2.35,0,0,1,1.59.87l.54.53-.34.06a2.2,2.2,0,0,0-1.75,1.69l-.07.33Z"/><path class="cls-1" d="M12.15,10.93a2.21,2.21,0,0,1,1.46.82l.29.29a2.4,2.4,0,0,0-1.26.65A2.5,2.5,0,0,0,12,13.87l-.25-.26c-1.1-1.1-.94-1.79-.43-2.29a1.13,1.13,0,0,1,.83-.39m0-.36a1.5,1.5,0,0,0-1.09.49c-.79.79-.64,1.73.43,2.8l.26.26.47.46.14-.64a2,2,0,0,1,.54-1A2,2,0,0,1,14,12.39l.67-.12-.48-.49-.29-.29a2.54,2.54,0,0,0-1.71-.92Z"/><path class="cls-2" d="M16.4,14.57l-2.3-2.33a2.11,2.11,0,0,0-1.9,1.82l2.4,2.37a2.39,2.39,0,0,0,1.15-.63A2.32,2.32,0,0,0,16.4,14.57Z"/><path class="cls-2" d="M15.91,16a2.54,2.54,0,0,1-1.12.66l3.52,3.46a4.27,4.27,0,0,0,1.05-.72,4.27,4.27,0,0,0,.72-1.05l-3.49-3.54A2.58,2.58,0,0,1,15.91,16Z"/><polygon class="cls-1" points="14.44 12.15 18.7 16.41 20.06 15.05 15.81 10.79 14.44 12.15"/><polygon class="cls-1" points="10.79 15.8 15.05 20.07 16.41 18.7 12.15 14.45 10.79 15.8"/><path class="cls-4" d="M6.37,5.41C5.55,5,5,4.74,4.87,4.87h0c-.13.12.09.68.54,1.5Z"/><path class="cls-2" d="M26.52,1.5a.81.81,0,0,1,.44.19L29.25,4,21.3,14.56l-2.22,2.22.86.86c1.86,1.87,5.54,6.59,5.54,6.59l2.29,1.44s3.2-1.87,3.63-2.1a.35.35,0,0,1,.2-.05,1.81,1.81,0,0,1,.94.52l1,1-3.87,4.63h0L25,33.5l-1-1s-.71-.71-.47-1.14,2.1-3.63,2.1-3.63l-1.44-2.29s-4.72-3.68-6.59-5.54l-.86-.86L14.56,21.3,4,29.25,1.69,27s-.33-.39-.12-.65l8-9.34,2.53-2.53-1.91-1.91A31.43,31.43,0,0,1,7.1,8.79a1.62,1.62,0,0,0,0,.64,6.13,6.13,0,0,0-.79-.17,1.21,1.21,0,0,1,.2-1.33C5.48,6.41,4.86,5.21,5,5H5l.1,0A9.16,9.16,0,0,1,7.93,6.5a1.4,1.4,0,0,1,.86-.32,1,1,0,0,1,.47.12,6.13,6.13,0,0,0,.17.79,1.61,1.61,0,0,0-.3,0,1.32,1.32,0,0,0-.34,0,31.43,31.43,0,0,1,3.74,3.14l1.91,1.91L17,9.62l9.34-8a.35.35,0,0,1,.21-.07m0-.85a1.2,1.2,0,0,0-.75.26L16.42,9l-.05,0L14.44,11,13.13,9.64a30.13,30.13,0,0,0-2.85-2.49,1,1,0,0,0,0-.3,5.31,5.31,0,0,1-.14-.66.85.85,0,0,0-.41-.63,1.85,1.85,0,0,0-.9-.23A2.16,2.16,0,0,0,8,5.5C5.89,4.16,5.32,4.16,5.13,4.16a1,1,0,0,0-.7.27C4,4.85,3.83,5.39,5.5,8a2,2,0,0,0,.06,1.74.85.85,0,0,0,.63.41,5.31,5.31,0,0,1,.66.14.67.67,0,0,0,.24,0h.06a30.13,30.13,0,0,0,2.49,2.85L11,14.44,9,16.37l0,.05L.91,25.77a1.36,1.36,0,0,0,.14,1.75l.05,0,2.34,2.3A.84.84,0,0,0,4,30.1a.87.87,0,0,0,.51-.17L15.08,22a.6.6,0,0,0,.08-.08l1.62-1.62.26.26c1.74,1.73,5.79,4.92,6.55,5.51l1.08,1.73c-.52.9-1.66,2.87-1.85,3.21-.51.91.35,1.88.62,2.16l1,1a.82.82,0,0,0,.6.25.84.84,0,0,0,.54-.2l4.64-3.87.1-.1,3.87-4.64a.85.85,0,0,0,0-1.14l-1-1a2.55,2.55,0,0,0-1.55-.77,1.25,1.25,0,0,0-.61.15l-3.21,1.85-1.73-1.08c-.59-.76-3.78-4.81-5.51-6.55l-.26-.26,1.62-1.62a.6.6,0,0,0,.08-.08l8-10.54a.85.85,0,0,0-.07-1.1L27.56,1.1l0-.05a1.65,1.65,0,0,0-1-.4Z"/></svg>