<svg id="Layer_1" data-name="Layer 1" xmlns="http://www.w3.org/2000/svg" viewBox="0 0 35 35"><defs><style>.cls-1{fill:#f2f2f2;}.cls-2{fill:#596b6a;}.cls-3{fill:#a8c1c0;}</style></defs><title>eitam</title><path class="cls-1" d="M7.88,33.89a.39.39,0,0,1-.27-.11l-.51-.5L6,31.41a.34.34,0,0,1,0-.26L8.65,12.69,4.54,8.57a1.1,1.1,0,0,1-.26-1.15,7.87,7.87,0,0,1-1-1.29L1.89,4.76C1.09,4,.77,2.37,1.57,1.57a1.72,1.72,0,0,1,1.25-.46,2.82,2.82,0,0,1,1.94.78L6.2,3.33a6.61,6.61,0,0,1,1.23,1,1,1,0,0,1,.34-.06,1.09,1.09,0,0,1,.78.33l4.09,4.09L31.15,5.94h.06a.36.36,0,0,1,.2.06L33.2,7l.58.56a.41.41,0,0,1,.06.49.4.4,0,0,1-.34.19l-.12,0-1.24-.38-4,1.35a1.5,1.5,0,0,1,.12.27.4.4,0,0,1-.37.53.35.35,0,0,1-.14,0,3.1,3.1,0,0,1-.72-.4l-2.85,1,.09.2a.41.41,0,0,1-.1.42.39.39,0,0,1-.27.11l-.14,0a4.48,4.48,0,0,1-.55-.29L21,12.26a2.64,2.64,0,0,1,.2.42.37.37,0,0,1-.09.41.36.36,0,0,1-.28.12l-.14,0a3.33,3.33,0,0,1-.58-.3l-2.28,1.91a11.71,11.71,0,0,1,.73,1h0l.54-.57.11-.11.6-.58a.4.4,0,0,1,.27-.11.37.37,0,0,1,.18,0,10.49,10.49,0,0,1,2.34,1.68,19.79,19.79,0,0,1,2.25,3.16.41.41,0,0,1-.06.48l-1,1a.36.36,0,0,1-.28.12h0l-.1.37a6.56,6.56,0,0,1,.77,1.17c1.13-.1,5.48-.46,5.87-.48h0a4.15,4.15,0,0,1,2.33,1.36.35.35,0,0,1,.1.36.39.39,0,0,1-.25.28l-5.7,1.92.2.41a.38.38,0,0,1-.07.45.43.43,0,0,1-.28.11.33.33,0,0,1-.17,0l-.42-.2-1.91,5.7a.39.39,0,0,1-.28.25h-.09a.39.39,0,0,1-.27-.11c-.24-.22-1.43-1.41-1.36-2.34,0-.39.38-4.74.47-5.88a6.2,6.2,0,0,1-1.16-.76l-.37.1a.37.37,0,0,1-.12.31l-1,1a.43.43,0,0,1-.28.11.35.35,0,0,1-.2-.05,19.79,19.79,0,0,1-3.16-2.25,10.49,10.49,0,0,1-1.68-2.34.39.39,0,0,1,.06-.45l.55-.57,0-.05.07-.07.59-.56h0a11.71,11.71,0,0,1-1-.73l-1.91,2.28a2.89,2.89,0,0,1,.3.59.37.37,0,0,1-.09.41.36.36,0,0,1-.28.12.31.31,0,0,1-.13,0,2.64,2.64,0,0,1-.42-.2L11,23.25a4.48,4.48,0,0,1,.29.55.39.39,0,0,1-.37.53l-.14,0-.2-.09-1,2.85a3.1,3.1,0,0,1,.4.72.38.38,0,0,1-.09.42.39.39,0,0,1-.28.11l-.13,0a1.5,1.5,0,0,1-.27-.12l-1.35,4,.38,1.24a.41.41,0,0,1-.17.46A.41.41,0,0,1,7.88,33.89Z"/><path class="cls-2" d="M2.82,1.5a2.5,2.5,0,0,1,1.66.66L5.92,3.6A7.8,7.8,0,0,1,7.25,4.67l.11.1a.69.69,0,0,1,.41-.13.74.74,0,0,1,.5.2l4.24,4.24,18.7-2.75,1.79,1,.5.5-1.37-.42L27.59,9a3.56,3.56,0,0,1,.34.62,3,3,0,0,1-.79-.47l-3.5,1.2a3.66,3.66,0,0,1,.3.56,3.06,3.06,0,0,1-.67-.38l-2.82,1.58a2.78,2.78,0,0,1,.4.7,3.22,3.22,0,0,1-.74-.44l-2.82,2.36a13.57,13.57,0,0,1,1.4,1.9l.35-.32L18.87,16l.54-.57.06-.05h0l.06-.06.56-.54a10.25,10.25,0,0,1,2.24,1.61,20.6,20.6,0,0,1,2.19,3.08l-.29.29-.4.39-.29.3-.28-.18-.28,1a6.33,6.33,0,0,1,1,1.49l6.14-.5h0c.79,0,2,1.24,2,1.24L26,25.59l.39.82h0L25.59,26l-2.05,6.11s-1.29-1.24-1.24-2c0-.45.5-6.14.5-6.14a6.33,6.33,0,0,1-1.49-1l-1,.28.18.28-.3.29-.39.4-.29.29a20.6,20.6,0,0,1-3.08-2.19,10.25,10.25,0,0,1-1.61-2.24l.54-.56.06-.06h0l.05-.06.57-.54.29.17.32-.35a13.57,13.57,0,0,1-1.9-1.4l-2.36,2.82a3.22,3.22,0,0,1,.44.74,2.78,2.78,0,0,1-.7-.4l-1.58,2.82a3.06,3.06,0,0,1,.38.67,3.66,3.66,0,0,1-.56-.3l-1.2,3.5a3,3,0,0,1,.47.79A3.56,3.56,0,0,1,9,27.59L7.46,32.13l.42,1.37-.5-.5-1-1.79L9.07,12.55,4.82,8.3a.72.72,0,0,1-.05-1l-.1-.1A7.8,7.8,0,0,1,3.6,5.92L2.16,4.48c-.63-.63-1-2-.31-2.63a1.31,1.31,0,0,1,1-.35m0-.79h0a2.11,2.11,0,0,0-1.53.58c-1,1-.62,2.81.32,3.75L3,6.42a8.25,8.25,0,0,0,.86,1.11,1.46,1.46,0,0,0,.41,1.32l4,4L5.55,31.09a.79.79,0,0,0,.1.52l1,1.79a1,1,0,0,0,.13.16l.5.5a.78.78,0,0,0,.55.23.87.87,0,0,0,.41-.11.81.81,0,0,0,.35-.91l-.35-1.13L9.47,28.7l.16,0a.79.79,0,0,0,.74-1.07A3.43,3.43,0,0,0,10,27l.78-2.3h.1a.82.82,0,0,0,.56-.23.81.81,0,0,0,.18-.83s-.08-.19-.2-.42l.95-1.7.13.05a.86.86,0,0,0,.27.05.79.79,0,0,0,.56-.23.78.78,0,0,0,.18-.83,3,3,0,0,0-.19-.41l1.48-1.77.3.23-.23.22-.06.06-.08.09-.56.57a.79.79,0,0,0-.12.91,11.49,11.49,0,0,0,1.75,2.43,20.74,20.74,0,0,0,3.24,2.31.83.83,0,0,0,.4.11A.82.82,0,0,0,20,25.1l.29-.29.39-.4.29-.29a.82.82,0,0,0,.16-.22,7.59,7.59,0,0,0,.8.52c-.12,1.43-.43,5.26-.46,5.63-.07,1.07,1.12,2.3,1.48,2.65a.82.82,0,0,0,.55.22l.19,0a.75.75,0,0,0,.55-.51l1.78-5.27h0A.78.78,0,0,0,27,27a.79.79,0,0,0,.15-.9h0l5.27-1.78a.75.75,0,0,0,.51-.55A.77.77,0,0,0,32.7,23a4.5,4.5,0,0,0-2.55-1.48h-.1L24.42,22a7.59,7.59,0,0,0-.52-.8.82.82,0,0,0,.22-.16l.29-.29.4-.39L25.1,20a.8.8,0,0,0,.12-1,20.74,20.74,0,0,0-2.31-3.24,11.49,11.49,0,0,0-2.43-1.75.81.81,0,0,0-.37-.09.8.8,0,0,0-.54.21l-.58.56,0,.06-.09.08-.22.23-.23-.3,1.77-1.48a3,3,0,0,0,.41.19.65.65,0,0,0,.27,0,.79.79,0,0,0,.56-.23.78.78,0,0,0,.18-.83l-.05-.13,1.7-.95c.23.12.39.19.42.2a.87.87,0,0,0,.28.05.8.8,0,0,0,.78-.89L27,10a3.43,3.43,0,0,0,.63.33.92.92,0,0,0,.28.05.8.8,0,0,0,.56-.23.77.77,0,0,0,.21-.72l3.44-1.18,1.13.35a.85.85,0,0,0,.23,0,.78.78,0,0,0,.56-1.34l-.5-.5L33.4,6.7l-1.79-1a.8.8,0,0,0-.4-.11h-.12L12.78,8.24,8.83,4.29a1.5,1.5,0,0,0-1.06-.44l-.22,0A8,8,0,0,0,6.42,3L5,1.61A3.26,3.26,0,0,0,2.82.71Z"/><path class="cls-3" d="M16.32,19,16,18.87l-.57.54-.05.06h0l-.06.06-.54.56.16.29Z"/><path class="cls-2" d="M3.8,5.41a3,3,0,0,0,.46.93,1.24,1.24,0,0,0,.28-.09,3.44,3.44,0,0,1-.24-.72Z"/><path class="cls-2" d="M3.75,5.16l.51.13a1,1,0,0,1,.18-.74l-.65-.66A3,3,0,0,0,3.75,5.16Z"/><path class="cls-3" d="M19,16.32,18.87,16l.54-.57.06-.05h0l.06-.06.56-.54.29.16Z"/><path class="cls-2" d="M5.29,4.26l-.13-.51a3,3,0,0,0-1.27,0l.66.65A1,1,0,0,1,5.29,4.26Z"/><path class="cls-2" d="M5.41,3.8l.12.5a3.44,3.44,0,0,1,.72.24,1.24,1.24,0,0,0,.09-.28A3,3,0,0,0,5.41,3.8Z"/></svg>