<svg xmlns="http://www.w3.org/2000/svg" xmlns:xlink="http://www.w3.org/1999/xlink" width="50" height="50" viewBox="0 0 50 50">
    <defs>
        <path id="a" d="M0 0h52.88v25H0z"/>
    </defs>
    <g fill="none" fill-rule="evenodd">
        <path fill="#596B6A" d="M27.94 32.94l4.242-4.243-.122-.122-4.242 4.243z"/>
        <path fill="#CAE0E0" d="M35.946 30.823c-.698-.658-2.117-1.983-3.604-3.372l-2.928-2.736-1.447 1.447 1.198 1.198a.429.429 0 0 1 .018.019c.255.288 1.398 1.657.927 2.58a1.533 1.533 0 0 1 .055.092l.057.123a.438.438 0 0 1 .017.04.719.719 0 1 1-.988.913l-.12-.06a1.295 1.295 0 0 1-.125-.083c-.433.15-1.235.135-2.469-.96a.432.432 0 0 1-.019-.017l-1.197-1.198-1.46 1.458c2.109 2.258 5.038 5.389 6.109 6.532l5.976-5.976zm-4.513 8.57a.43.43 0 0 1-.614-.006l-1.285-1.327c-.552-.526-2.85-2.674-5.072-4.751l-1.924-1.8C18.185 35.18 8.71 43.16 8.02 43.701c-1.011.795-1.527.424-2.007-.062l-.063-.063c-.507-.507-.29-1.15-.022-1.458a.424.424 0 0 1 .02-.022l13.612-13.612c-.344-.517-.67-1.128-.282-1.515.385-.385 1.005-.061 1.525.272l1.475-1.474-3.212-3.212c-.847-.847-1.951-2.981-1.144-3.79.809-.807 2.943.297 3.79 1.143l3.212 3.212 1.472-1.472c-.33-.502-.664-1.11-.299-1.499l.027-.029c.388-.387 1-.06 1.516.283L41.253 6.79a.42.42 0 0 1 .022-.02c.308-.27.95-.485 1.457.021l.064.063c.486.48.857.996.062 2.008-.548.698-8.673 10.342-12.155 14.473l-.047.056c2.624 2.812 6.56 7.015 6.56 7.015l1.297 1.296a.43.43 0 0 1 0 .609l-7.08 7.08z"/>
        <g transform="rotate(-45 44.314 19.879)">
            <mask id="b" fill="#fff">
                <use xlink:href="#a"/>
            </mask>
            <path fill="#596B6A" d="M28.742 13.194h1.2l.122 3.588c.06 1.757.117 3.444.15 4.487h-7.563c.058-1.746.175-5.29.271-8.075h1.217v1.263l.001.051c.065 1.083.4 2.221 1.124 2.7l.035.108a1.148 1.148 0 0 0 1.099.785c.448 0 .838-.254 1.043-.68a.932.932 0 0 0 .033-.08l.022-.061c.808-.429 1.176-1.631 1.244-2.771a.865.865 0 0 0 .002-.052v-1.263zM26.44 0c-.491 0-1.199.277-1.778 1.597-.323.735-.523 1.625-.523 2.322V8.03h-1.32c-.175-.624-.495-1.271-1.22-1.271-.731 0-1.047.642-1.214 1.271H1.475c-.019 0-.039 0-.058.002C.713 8.081 0 8.603 0 9.508v.087c-.004.546-.01 1.682 1.754 1.894.858.104 12.692 1.116 18.52 1.613l.075 2.258c.102 3.014.207 6.13.226 6.934l-.03 1.83a.863.863 0 0 0 .861.876h10.014c.475 0 .86-.386.86-.862v-1.833c.01-.31.18-5.505.307-9.203 6.717-.572 17.703-1.514 18.537-1.614 1.765-.212 1.758-1.348 1.755-1.895v-.086c0-.556-.279-1.024-.763-1.284a1.706 1.706 0 0 0-.713-.194h-18.91c-.167-.628-.482-1.272-1.212-1.272l-.055.002c-.707.02-1.01.662-1.174 1.271h-1.311V3.919c0-.697-.2-1.587-.523-2.322C27.639.277 26.932 0 26.44 0zm-.042 17.239c-.147 0-.232-.083-.28-.191l-.042-.127c-.036-.168-.017-.34-.017-.34-.933 0-1.06-2.124-1.06-2.124v-2.125h-2.908c-.12 3.469-.297 8.817-.329 9.8H31.1c-.024-1.057-.213-6.359-.325-9.8h-2.893v2.125s-.128 2.124-1.06 2.124h-.071c-.001.093-.01.22-.04.34l-.046.127c-.053.11-.135.191-.267.191zM26.44.862c.72 0 1.442 1.867 1.442 3.057v4.973h2.864v-.001l.012-.056c.075-.381.223-1.214.504-1.214l.02-.002c.293 0 .441.872.513 1.26a.26.26 0 0 1 .002.012h19.607s.615.042.615.616c0 .573.063.998-.996 1.125-.936.113-15.444 1.35-18.834 1.639l-.434.038c-.133 3.83-.334 9.982-.334 9.982v1.847H21.407l.03-1.847c-.026-1.06-.214-6.543-.328-9.983-2.34-.2-18.27-1.557-19.252-1.675-1.06-.127-.996-.552-.996-1.125s.615-.616.615-.616h19.607c.07-.39.22-1.271.515-1.271.295 0 .456.88.536 1.271H25V3.92c0-1.19.72-3.057 1.44-3.057l.001.011v-.01z" mask="url(#b)"/>
        </g>
        <path fill="#596B6A" d="M21.688 21.314a.86.86 0 1 1-1.216 1.216.862.862 0 0 1-.002-1.218.862.862 0 0 1 1.218.002"/>
    </g>
</svg>
