<svg xmlns="http://www.w3.org/2000/svg" width="50" height="50" viewBox="0 0 50 50" fill="none">
<mask id="mask0_963_94400" style="mask-type:alpha" maskUnits="userSpaceOnUse" x="0" y="0" width="50" height="50">
<rect width="50" height="50" fill="#D9D9D9"/>
</mask>
<g mask="url(#mask0_963_94400)">
<mask id="mask1_963_94400" style="mask-type:alpha" maskUnits="userSpaceOnUse" x="9" y="10" width="34" height="32">
<path fill-rule="evenodd" clip-rule="evenodd" d="M36.9201 36.8862C36.7287 37.0739 36.4405 37.0956 36.2763 36.9346L35.9264 36.5915L35.5314 36.9788C35.3589 37.1479 35.1038 37.1847 34.933 37.065L34.5452 36.7933C34.5295 36.8135 34.5122 36.833 34.4934 36.8515L33.9521 37.3822L34.2259 37.6506C34.3899 37.8114 34.3679 38.094 34.1764 38.2818L30.8973 41.4966C30.8202 41.5722 30.7232 41.6239 30.6218 41.6439L29.7136 41.8219C29.5728 41.8495 29.4369 41.813 29.3452 41.723L28.16 40.5611C28.0757 40.4785 28.0372 40.3589 28.0539 40.232L28.8902 33.8775L27.1357 32.2082L19.8952 39.3067C19.7037 39.4945 19.4154 39.516 19.2514 39.3552L17.0843 37.2306C16.9955 37.1436 16.9577 37.0157 16.9811 36.882L18.9644 25.5711L18.806 25.4159C18.4373 25.0544 17.8482 23.8961 17.1727 22.5322C16.9873 22.158 16.8272 21.8346 16.7392 21.6777C16.2718 20.8421 15.9355 20.2878 15.7396 20.03C15.6438 19.9043 15.3156 19.5082 14.968 19.0889C14.1726 18.1297 13.6007 17.4361 13.4876 17.2475C13.3348 16.9927 13.1475 16.5479 13.0801 16.3836C12.8573 16.138 11.8742 15.0358 11.2056 13.9741C10.3347 12.5915 9.77576 10.7134 9.75254 10.634C9.70642 10.4776 9.76053 10.295 9.89177 10.1637L9.89565 10.1599C10.0268 10.0314 10.2104 9.97587 10.37 10.0171C10.3884 10.0218 12.3578 10.5794 13.7861 11.4442C14.8689 12.0998 15.9933 13.0635 16.2438 13.282C16.4113 13.3481 16.865 13.5316 17.1249 13.6815C17.3175 13.7925 18.0251 14.3534 19.0042 15.1335C19.4314 15.474 19.8349 15.7957 19.9631 15.8893C20.2296 16.0839 20.7793 16.4046 21.6437 16.8695C21.8038 16.9556 22.1337 17.1126 22.5154 17.2943C23.9064 17.9567 25.0878 18.5342 25.4566 18.8957L25.6149 19.051L37.1522 17.1064C37.2885 17.0835 37.419 17.1206 37.5078 17.2076L39.6748 19.3322C39.8389 19.493 39.8167 19.7758 39.6254 19.9634L32.3849 27.0619L34.0876 28.7821L40.5692 27.9622C40.6986 27.9458 40.8206 27.9835 40.9048 28.0662L42.09 29.2281C42.1818 29.3181 42.219 29.4513 42.1909 29.5893L42.0093 30.4797C41.9889 30.5791 41.9362 30.6742 41.8591 30.7497L38.5799 33.9646C38.3884 34.1523 38.1001 34.1739 37.9361 34.0131L37.6623 33.7447L37.1211 34.2754C37.1021 34.294 37.0823 34.3108 37.0617 34.3262L37.3388 34.7064C37.4609 34.8739 37.4234 35.1239 37.2509 35.293L36.8559 35.6803L37.2058 36.0234C37.37 36.1843 37.3477 36.467 37.1564 36.6545L36.9201 36.8862Z" fill="#EDE2B2"/>
</mask>
<g mask="url(#mask1_963_94400)">
<path d="M39.9246 -19.2053L-9.52515 30.2444L16.9914 56.7609L66.4411 7.31119L39.9246 -19.2053Z" fill="#B22234"/>
<path d="M-6.46555 33.304L42.9841 -16.1457ZM47.0636 -12.0663L-2.38609 37.3834ZM1.69337 41.4629L51.1431 -7.98679ZM55.2225 -3.90733L5.77284 45.5424ZM9.8523 49.6218L59.302 0.172133ZM63.3815 4.2516L13.9318 53.7013Z" fill="black"/>
<path fill-rule="evenodd" clip-rule="evenodd" d="M44.004 -15.1259L-5.44568 34.3238L-7.48542 32.2841L41.9643 -17.1656L44.004 -15.1259ZM-3.40595 36.3636L46.0437 -13.0861L48.0835 -11.0464L-1.36622 38.4033L-3.40595 36.3636ZM52.1629 -6.96693L2.71324 42.4828L0.673509 40.443L50.1232 -9.00666L52.1629 -6.96693ZM4.75297 44.5225L54.2027 -4.92719L56.2424 -2.88746L6.7927 46.5622L4.75297 44.5225ZM60.3219 1.192L10.8722 50.6417L8.83243 48.602L58.2821 -0.847732L60.3219 1.192ZM12.9119 52.6814L62.3616 3.23173L64.4013 5.27146L14.9516 54.7212L12.9119 52.6814Z" fill="white"/>
<path d="M10.2547 10.4645L-9.52515 30.2444L4.75297 44.5225L24.5329 24.7426L10.2547 10.4645Z" fill="#3C3B6E"/>
<path d="M-7.30368 29.456L-5.34046 30.4451L-7.52797 30.808L-5.95172 29.2317L-6.31463 31.4192L-7.30368 29.456Z" fill="white"/>
<path d="M-4.44773 32.312L-2.48451 33.301L-4.67202 33.6639L-3.09578 32.0877L-3.45868 34.2752L-4.44773 32.312Z" fill="white"/>
<path d="M-1.59178 35.1679L0.371436 36.157L-1.81607 36.5199L-0.239829 34.9436L-0.602735 37.1311L-1.59178 35.1679Z" fill="white"/>
<path d="M1.26417 38.0239L3.22738 39.0129L1.03988 39.3758L2.61612 37.7996L2.25321 39.9871L1.26417 38.0239Z" fill="white"/>
<path d="M4.12011 40.8798L6.08333 41.8689L3.89583 42.2318L5.47207 40.6555L5.10916 42.843L4.12011 40.8798Z" fill="white"/>
<path d="M-4.17 29.1783L-2.20679 30.1673L-4.39429 30.5302L-2.81805 28.954L-3.18096 31.1415L-4.17 29.1783Z" fill="white"/>
<path d="M-1.31406 32.0342L0.649159 33.0233L-1.53835 33.3862L0.037895 31.81L-0.325012 33.9975L-1.31406 32.0342Z" fill="white"/>
<path d="M1.54189 34.8902L3.50511 35.8792L1.3176 36.2421L2.89384 34.6659L2.53094 36.8534L1.54189 34.8902Z" fill="white"/>
<path d="M4.39784 37.7461L6.36105 38.7352L4.17355 39.0981L5.74979 37.5218L5.38688 39.7094L4.39784 37.7461Z" fill="white"/>
<path d="M-3.89228 26.0446L-1.92906 27.0337L-4.11657 27.3966L-2.54033 25.8203L-2.90323 28.0078L-3.89228 26.0446Z" fill="white"/>
<path d="M-1.03633 28.9006L0.926883 29.8896L-1.26062 30.2525L0.315619 28.6763L-0.0472873 30.8638L-1.03633 28.9006Z" fill="white"/>
<path d="M1.81961 31.7565L3.78283 32.7456L1.59533 33.1085L3.17157 31.5322L2.80866 33.7197L1.81961 31.7565Z" fill="white"/>
<path d="M4.67556 34.6125L6.63878 35.6015L4.45127 35.9644L6.02751 34.3882L5.66461 36.5757L4.67556 34.6125Z" fill="white"/>
<path d="M7.53151 37.4684L9.49473 38.4575L7.30722 38.8204L8.88346 37.2441L8.52055 39.4316L7.53151 37.4684Z" fill="white"/>
<path d="M-0.758609 25.7669L1.20461 26.7559L-0.982898 27.1189L0.593343 25.5426L0.230437 27.7301L-0.758609 25.7669Z" fill="white"/>
<path d="M2.09734 28.6228L4.06056 29.6119L1.87305 29.9748L3.44929 28.3986L3.08638 30.5861L2.09734 28.6228Z" fill="white"/>
<path d="M4.95329 31.4788L6.9165 32.4678L4.729 32.8307L6.30524 31.2545L5.94233 33.442L4.95329 31.4788Z" fill="white"/>
<path d="M7.80923 34.3347L9.77245 35.3238L7.58494 35.6867L9.16119 34.1105L8.79828 36.298L7.80923 34.3347Z" fill="white"/>
<path d="M-0.480886 22.6332L1.48233 23.6223L-0.705175 23.9852L0.871067 22.4089L0.50816 24.5964L-0.480886 22.6332Z" fill="white"/>
<path d="M2.37506 25.4892L4.33828 26.4782L2.15077 26.8411L3.72701 25.2649L3.36411 27.4524L2.37506 25.4892Z" fill="white"/>
<path d="M5.23101 28.3451L7.19423 29.3342L5.00672 29.6971L6.58296 28.1208L6.22005 30.3083L5.23101 28.3451Z" fill="white"/>
<path d="M8.08696 31.2011L10.0502 32.1901L7.86267 32.553L9.43891 30.9768L9.076 33.1643L8.08696 31.2011Z" fill="white"/>
<path d="M10.9429 34.057L12.9061 35.0461L10.7186 35.409L12.2949 33.8327L11.9319 36.0202L10.9429 34.057Z" fill="white"/>
<path d="M2.65279 22.3555L4.616 23.3446L2.4285 23.7075L4.00474 22.1312L3.64183 24.3187L2.65279 22.3555Z" fill="white"/>
<path d="M5.50873 25.2115L7.47195 26.2005L5.28445 26.5634L6.86069 24.9872L6.49778 27.1747L5.50873 25.2115Z" fill="white"/>
<path d="M8.36468 28.0674L10.3279 29.0564L8.14039 29.4194L9.71663 27.8431L9.35373 30.0306L8.36468 28.0674Z" fill="white"/>
<path d="M11.2206 30.9233L13.1838 31.9124L10.9963 32.2753L12.5726 30.6991L12.2097 32.8866L11.2206 30.9233Z" fill="white"/>
<path d="M2.93051 19.2218L4.89373 20.2109L2.70622 20.5738L4.28246 18.9975L3.91955 21.1851L2.93051 19.2218Z" fill="white"/>
<path d="M5.78646 22.0778L7.74967 23.0668L5.56217 23.4297L7.13841 21.8535L6.7755 24.041L5.78646 22.0778Z" fill="white"/>
<path d="M8.6424 24.9337L10.6056 25.9228L8.41812 26.2857L9.99436 24.7094L9.63145 26.8969L8.6424 24.9337Z" fill="white"/>
<path d="M11.4984 27.7897L13.4616 28.7787L11.2741 29.1416L12.8503 27.5654L12.4874 29.7529L11.4984 27.7897Z" fill="white"/>
<path d="M14.3543 30.6456L16.3175 31.6347L14.13 31.9976L15.7063 30.4213L15.3433 32.6088L14.3543 30.6456Z" fill="white"/>
<path d="M6.06418 18.9441L8.0274 19.9332L5.83989 20.2961L7.41613 18.7198L7.05323 20.9073L6.06418 18.9441Z" fill="white"/>
<path d="M8.92013 21.8001L10.8833 22.7891L8.69584 23.152L10.2721 21.5758L9.90917 23.7633L8.92013 21.8001Z" fill="white"/>
<path d="M11.7761 24.656L13.7393 25.6451L11.5518 26.008L13.128 24.4317L12.7651 26.6192L11.7761 24.656Z" fill="white"/>
<path d="M14.632 27.512L16.5952 28.501L14.4077 28.8639L15.984 27.2877L15.6211 29.4752L14.632 27.512Z" fill="white"/>
<path d="M6.34191 15.8104L8.30512 16.7995L6.11762 17.1624L7.69386 15.5861L7.33095 17.7737L6.34191 15.8104Z" fill="white"/>
<path d="M9.19785 18.6664L11.1611 19.6554L8.97357 20.0183L10.5498 18.4421L10.1869 20.6296L9.19785 18.6664Z" fill="white"/>
<path d="M12.0538 21.5223L14.017 22.5114L11.8295 22.8743L13.4058 21.298L13.0428 23.4855L12.0538 21.5223Z" fill="white"/>
<path d="M14.9097 24.3783L16.873 25.3673L14.6855 25.7302L16.2617 24.154L15.8988 26.3415L14.9097 24.3783Z" fill="white"/>
<path d="M17.7657 27.2342L19.7289 28.2233L17.5414 28.5862L19.1177 27.0099L18.7547 29.1974L17.7657 27.2342Z" fill="white"/>
<path d="M9.47558 15.5327L11.4388 16.5218L9.25129 16.8847L10.8275 15.3084L10.4646 17.4959L9.47558 15.5327Z" fill="white"/>
<path d="M12.3315 18.3887L14.2947 19.3777L12.1072 19.7406L13.6835 18.1644L13.3206 20.3519L12.3315 18.3887Z" fill="white"/>
<path d="M15.1875 21.2446L17.1507 22.2337L14.9632 22.5966L16.5394 21.0203L16.1765 23.2078L15.1875 21.2446Z" fill="white"/>
<path d="M18.0434 24.1006L20.0066 25.0896L17.8191 25.4525L19.3954 23.8763L19.0325 26.0638L18.0434 24.1006Z" fill="white"/>
<path d="M9.7533 12.399L11.7165 13.3881L9.52901 13.751L11.1053 12.1748L10.7423 14.3623L9.7533 12.399Z" fill="white"/>
<path d="M12.6092 15.255L14.5725 16.244L12.385 16.6069L13.9612 15.0307L13.5983 17.2182L12.6092 15.255Z" fill="white"/>
<path d="M15.4652 18.1109L17.4284 19.1L15.2409 19.4629L16.8171 17.8866L16.4542 20.0742L15.4652 18.1109Z" fill="white"/>
<path d="M18.3211 20.9669L20.2844 21.9559L18.0969 22.3188L19.6731 20.7426L19.3102 22.9301L18.3211 20.9669Z" fill="white"/>
<path d="M21.1771 23.8228L23.1403 24.8119L20.9528 25.1748L22.529 23.5985L22.1661 25.786L21.1771 23.8228Z" fill="white"/>
</g>
<mask id="mask2_963_94400" style="mask-type:luminance" maskUnits="userSpaceOnUse" x="-2" y="-1" width="50" height="49">
<path fill-rule="evenodd" clip-rule="evenodd" d="M47.8107 26.8305L26.6939 47.5331L-1.04297 20.3401L20.0737 -0.362565L47.8107 26.8305V26.8305Z" fill="white"/>
</mask>
<g mask="url(#mask2_963_94400)">
<path fill-rule="evenodd" clip-rule="evenodd" d="M9.51552 9.98863C9.24751 10.2514 9.13592 10.6204 9.22893 10.9365C9.25289 11.0179 9.82543 12.9431 10.7238 14.3694C11.3711 15.3969 12.3026 16.4581 12.5938 16.7816C12.6788 16.9864 12.8513 17.3853 13.0018 17.6361C13.1187 17.8313 13.5433 18.3518 14.5134 19.5218C14.8585 19.9382 15.1844 20.3314 15.2755 20.4512C15.4616 20.6955 15.7886 21.2358 16.2479 22.0569C16.3313 22.2059 16.4895 22.5254 16.6727 22.8951C17.3877 24.3385 17.967 25.4744 18.3764 25.8757L18.3945 25.8935L16.4482 36.9935C16.4014 37.2608 16.477 37.5165 16.6545 37.6905L18.8215 39.8151C19.1499 40.137 19.7263 40.0935 20.1091 39.7181L27.0074 32.9551L28.3277 34.2111L27.518 40.3628C27.4846 40.6166 27.5617 40.8559 27.7303 41.0211L28.9155 42.183C29.0989 42.3629 29.3708 42.4359 29.6524 42.3805L30.5605 42.2027C30.7633 42.1629 30.9572 42.0593 31.1113 41.9082L34.3907 38.6931C34.7105 38.3796 34.794 37.9334 34.6215 37.6075C34.9595 37.7907 35.4242 37.7053 35.7456 37.3902L35.7938 37.3429L35.8466 37.3946C36.1748 37.7164 36.7514 37.673 37.1342 37.2977L37.2524 37.1819L37.3705 37.0661C37.7534 36.6906 37.7976 36.1255 37.4694 35.8037L37.4166 35.752L37.465 35.7045C37.7864 35.3894 37.8734 34.934 37.6866 34.6025C38.0191 34.7716 38.4741 34.6897 38.794 34.3762L42.0733 31.1611C42.2275 31.01 42.3331 30.8199 42.3738 30.6211L42.5551 29.7308C42.6114 29.4549 42.5371 29.1881 42.3537 29.0083L41.1685 27.8464C41 27.6811 40.7559 27.6055 40.4971 27.6383L34.2223 28.4321L32.941 27.1378L39.8394 20.3748C40.2223 19.9994 40.2666 19.4343 39.9382 19.1124L37.7712 16.9879C37.5937 16.8139 37.333 16.7396 37.0602 16.7856L25.7383 18.6937L25.7202 18.6759C25.3108 18.2746 24.1522 17.7066 22.68 17.0056C22.3027 16.8261 21.977 16.6709 21.8249 16.5893C20.9875 16.1388 20.4362 15.818 20.187 15.636C20.065 15.5468 19.6645 15.2276 19.2403 14.8894C18.0461 13.9378 17.5147 13.5215 17.3157 13.4066C17.06 13.2592 16.653 13.0902 16.4443 13.0067C16.1142 12.7212 15.0318 11.808 13.9838 11.1733C12.5302 10.2932 10.5653 9.73139 10.4824 9.70777C10.1601 9.61658 9.78353 9.72587 9.51552 9.98863ZM10.1099 10.5713C10.1111 10.5717 12.0346 11.115 13.4223 11.9552C14.6097 12.674 15.8769 13.7979 15.8769 13.7979C15.8769 13.7979 16.4738 14.0269 16.768 14.1965C17.0621 14.3661 19.216 16.1218 19.5729 16.3826C19.9297 16.6435 20.6931 17.0654 21.2965 17.39C21.8998 17.7143 24.5339 18.8722 25.027 19.3556L25.3255 19.6482L37.0779 17.6675L39.245 19.7921L31.6623 27.2261L33.7867 29.3722L40.4753 28.526L41.6604 29.688L41.4789 30.5784L38.1996 33.7934L36.9569 32.5751L37.6186 33.2436L36.7408 34.1042L34.5996 32.005L36.8706 35.1218L36.129 35.8489L36.7761 36.4834L36.6581 36.599L36.658 36.5992L36.5399 36.715L35.8927 36.0805L35.1512 36.8075L31.9721 34.581L34.1133 36.6802L33.2353 37.5409L32.5536 36.8921L33.7963 38.1104L30.517 41.3254L29.6087 41.5034L28.4235 40.3415L29.2866 33.7841L27.0975 31.7014L19.5148 39.1354L17.3477 37.0109L19.3682 25.4887L19.0697 25.1961C18.5766 24.7127 17.3956 22.1303 17.0647 21.5389C16.7337 20.9471 16.3032 20.1989 16.0372 19.8489C15.7711 19.4991 13.9804 17.3874 13.8074 17.099C13.6344 16.8106 13.4008 16.2254 13.4008 16.2254C13.4008 16.2254 12.2545 14.983 11.5213 13.819C10.6643 12.4584 10.1102 10.5727 10.1097 10.5715L10.1099 10.5713Z" fill="#596B6A"/>
</g>
<mask id="mask3_963_94400" style="mask-type:luminance" maskUnits="userSpaceOnUse" x="-2" y="-1" width="50" height="49">
<path fill-rule="evenodd" clip-rule="evenodd" d="M47.8107 26.8305L26.6939 47.5331L-1.04297 20.3401L20.0737 -0.362565L47.8107 26.8305V26.8305Z" fill="white"/>
</mask>
<g mask="url(#mask3_963_94400)">
<path fill-rule="evenodd" clip-rule="evenodd" d="M9.51552 9.98863C9.24751 10.2514 9.13592 10.6204 9.22893 10.9365C9.25289 11.0179 9.82543 12.9431 10.7238 14.3694C11.3711 15.3969 12.3026 16.4581 12.5938 16.7816C12.6788 16.9864 12.8513 17.3853 13.0018 17.6361C13.1187 17.8313 13.5433 18.3518 14.5134 19.5218C14.8585 19.9382 15.1844 20.3314 15.2755 20.4512C15.4616 20.6955 15.7886 21.2358 16.2479 22.0569C16.3313 22.2059 16.4895 22.5254 16.6727 22.8951C17.3877 24.3385 17.967 25.4744 18.3764 25.8757L18.3945 25.8935L16.4482 36.9935C16.4014 37.2608 16.477 37.5165 16.6545 37.6905L18.8215 39.8151C19.1499 40.137 19.7263 40.0935 20.1091 39.7181L27.0074 32.9551L28.3277 34.2111L27.518 40.3628C27.4846 40.6166 27.5617 40.8559 27.7303 41.0211L28.9155 42.183C29.0989 42.3629 29.3708 42.4359 29.6524 42.3805L30.5605 42.2027C30.7633 42.1629 30.9572 42.0593 31.1113 41.9082L34.3907 38.6931C34.7105 38.3796 34.794 37.9334 34.6215 37.6075C34.9595 37.7907 35.4242 37.7053 35.7456 37.3902L35.7938 37.3429L35.8466 37.3946C36.1748 37.7164 36.7514 37.673 37.1342 37.2977L37.2524 37.1819L37.3705 37.0661C37.7534 36.6906 37.7976 36.1255 37.4694 35.8037L37.4166 35.752L37.465 35.7045C37.7864 35.3894 37.8734 34.934 37.6866 34.6025C38.0191 34.7716 38.4741 34.6897 38.794 34.3762L42.0733 31.1611C42.2275 31.01 42.3331 30.8199 42.3738 30.6211L42.5551 29.7308C42.6114 29.4549 42.5371 29.1881 42.3537 29.0083L41.1685 27.8464C41 27.6811 40.7559 27.6055 40.4971 27.6383L34.2223 28.4321L32.941 27.1378L39.8394 20.3748C40.2223 19.9994 40.2666 19.4343 39.9382 19.1124L37.7712 16.9879C37.5937 16.8139 37.333 16.7396 37.0602 16.7856L25.7383 18.6937L25.7202 18.6759C25.3108 18.2746 24.1522 17.7066 22.68 17.0056C22.3027 16.8261 21.977 16.6709 21.8249 16.5893C20.9875 16.1388 20.4362 15.818 20.187 15.636C20.065 15.5468 19.6645 15.2276 19.2403 14.8894C18.0461 13.9378 17.5147 13.5215 17.3157 13.4066C17.06 13.2592 16.653 13.0902 16.4443 13.0067C16.1142 12.7212 15.0318 11.808 13.9838 11.1733C12.5302 10.2932 10.5653 9.73139 10.4824 9.70777C10.1601 9.61658 9.78353 9.72587 9.51552 9.98863ZM10.1099 10.5713C10.1111 10.5717 12.0346 11.115 13.4223 11.9552C14.6097 12.674 15.8769 13.7979 15.8769 13.7979C15.8769 13.7979 16.4738 14.0269 16.768 14.1965C17.0621 14.3661 19.216 16.1218 19.5729 16.3826C19.9297 16.6435 20.6931 17.0654 21.2965 17.39C21.8998 17.7143 24.5339 18.8722 25.027 19.3556L25.3255 19.6482L37.0779 17.6675L39.245 19.7921L31.6623 27.2261L33.7867 29.3722L40.4753 28.526L41.6604 29.688L41.4789 30.5784L38.1996 33.7934L36.9569 32.5751L37.6186 33.2436L36.7408 34.1042L34.5996 32.005L36.8706 35.1218L36.129 35.8489L36.7761 36.4834L36.6581 36.599L36.658 36.5992L36.5399 36.715L35.8927 36.0805L35.1512 36.8075L31.9721 34.581L34.1133 36.6802L33.2353 37.5409L32.5536 36.8921L33.7963 38.1104L30.517 41.3254L29.6087 41.5034L28.4235 40.3415L29.2866 33.7841L27.0975 31.7014L19.5148 39.1354L17.3477 37.0109L19.3682 25.4887L19.0697 25.1961C18.5766 24.7127 17.3956 22.1303 17.0647 21.5389C16.7337 20.9471 16.3032 20.1989 16.0372 19.8489C15.7711 19.4991 13.9804 17.3874 13.8074 17.099C13.6344 16.8106 13.4008 16.2254 13.4008 16.2254C13.4008 16.2254 12.2545 14.983 11.5213 13.819C10.6643 12.4584 10.1102 10.5727 10.1097 10.5715L10.1099 10.5713Z" fill="#596B6A"/>
</g>
<mask id="mask4_963_94400" style="mask-type:luminance" maskUnits="userSpaceOnUse" x="-2" y="-1" width="50" height="49">
<path fill-rule="evenodd" clip-rule="evenodd" d="M26.3437 47.1843L47.4875 26.455L19.7506 -0.738081L-1.39331 19.9912L26.3437 47.1843Z" fill="white"/>
</mask>
<g mask="url(#mask4_963_94400)">
<path fill-rule="evenodd" clip-rule="evenodd" d="M19.698 40.7009L20.0446 40.361L14.6359 35.0584L14.2893 35.3982L19.698 40.7009Z" fill="#596B6A"/>
<path fill-rule="evenodd" clip-rule="evenodd" d="M40.4951 20.3115L40.8418 19.9716L35.433 14.669L35.0864 15.0088L40.4951 20.3115Z" fill="#596B6A"/>
</g>
</g>
</svg>