<svg xmlns="http://www.w3.org/2000/svg" xmlns:xlink="http://www.w3.org/1999/xlink" width="50" height="50" viewBox="0 0 50 50">
    <defs>
        <path id="a" d="M0 15.931h42.524V0H0z"/>
    </defs>
    <g fill="none" fill-rule="evenodd" transform="translate(3.7 17.02)">
        <path fill="#596B6A" d="M38.996.712H20.524c-.696 0-1.262.566-1.262 1.262v1.133a.6.6 0 0 0 .6.6h19.796a.6.6 0 0 0 .6-.6V1.974c0-.696-.566-1.262-1.262-1.262m0 .6c.366 0 .662.296.662.662v1.133H19.862V1.974c0-.366.297-.662.662-.662h18.472"/>
        <path fill="#F1F94B" d="M14.84 14.343a.3.3 0 0 1-.29-.23l-.259-1.076a5.097 5.097 0 0 0-1.282-2.655.3.3 0 0 1-.08-.203V2.395a.3.3 0 0 1 .3-.3h28.695a.3.3 0 0 1 .3.3v8.751a.3.3 0 0 1-.16.266l-5.067 2.665a.299.299 0 0 1-.382-.089l-1.701-2.329-.01-.014-.28-.435-.03-.025c-1.192-1.033-1.552-1.344-3.054-1.344-.009 0-.018 0-.027-.002l-.338-.03-2.263 2.649a.3.3 0 0 1-.228.105h-1.041a.3.3 0 0 1-.257-.145l-1.59-2.63-.713-.26c-1.052.02-1.759.662-2.575 1.403-.115.105-.233.211-.353.317l-.132.212-1.13 2.699a.3.3 0 0 1-.277.184H14.84z"/>
        <path fill="#596B6A" d="M41.924 1.795H13.23a.6.6 0 0 0-.6.6v7.784a.6.6 0 0 0 .158.406 4.797 4.797 0 0 1 1.211 2.522l.259 1.076a.6.6 0 0 0 .583.46h5.775a.6.6 0 0 0 .553-.368l1.122-2.677.096-.154.323-.291c.787-.715 1.415-1.285 2.324-1.324l.56.204 1.535 2.54a.6.6 0 0 0 .513.29h1.042a.6.6 0 0 0 .456-.21l2.163-2.531.183.016a.582.582 0 0 0 .054.003c1.39 0 1.7.268 2.856 1.268l.256.398.02.03 1.7 2.328a.6.6 0 0 0 .764.177l5.067-2.665a.6.6 0 0 0 .32-.53V2.394a.6.6 0 0 0-.6-.6m0 .6v8.751l-5.066 2.665-1.7-2.329-.304-.47c-1.24-1.074-1.671-1.471-3.313-1.471l-.492-.045-2.364 2.767h-1.042l-1.645-2.721-.863-.315c-1.37 0-2.183.919-3.21 1.825l-.168.27-1.14 2.72H14.84l-.258-1.075a5.41 5.41 0 0 0-1.353-2.788V2.395h28.694"/>
        <path fill="#F1F94B" d="M6.483 14.847a.311.311 0 0 1-.056-.006l-2.174-.413a.299.299 0 0 1-.13-.059L.416 11.464a.3.3 0 0 1-.115-.236v-.608a.3.3 0 0 1 .3-.3h.677V7.735a.3.3 0 0 1 .017-.101l1.67-4.67a.3.3 0 0 1 .28-.198l3.032-.036.341-.806a.3.3 0 0 1 .277-.183h7.012a.3.3 0 0 1 .3.3v7.93a.3.3 0 0 1-.3.3H9.18c-.091.007-.404.135-.475.196-1.184 1.164-1.426 2.033-1.82 3.734l-.112.423a.3.3 0 0 1-.29.223"/>
        <path fill="#596B6A" d="M13.906 1.44H6.894a.6.6 0 0 0-.553.367l-.265.625-2.836.034a.6.6 0 0 0-.558.398l-.44 1.23-1.23 3.44a.598.598 0 0 0-.035.201v2.285H.6a.6.6 0 0 0-.6.6v.608a.6.6 0 0 0 .23.472l3.709 2.906a.6.6 0 0 0 .258.117l2.173.413a.6.6 0 0 0 .692-.435l.11-.413.005-.02c.389-1.677.61-2.47 1.72-3.57.068-.04.234-.109.311-.126h4.698a.6.6 0 0 0 .6-.6V2.04a.6.6 0 0 0-.6-.6m0 .6v7.93H9.179c-.153 0-.573.172-.682.28-1.253 1.231-1.508 2.171-1.904 3.882l-.11.414-2.174-.414L.6 11.228v-.608h.977V7.735l1.23-3.44.44-1.23 3.23-.037.417-.987h7.012"/>
        <path fill="#717F79" d="M24.997 15.468a3.024 3.024 0 0 1-3.02-3.021 3.024 3.024 0 0 1 3.02-3.021 3.024 3.024 0 0 1 3.021 3.02 3.024 3.024 0 0 1-3.02 3.022"/>
        <path fill="#596B6A" d="M24.997 9.126a3.325 3.325 0 0 0-3.32 3.32c0 1.832 1.49 3.322 3.32 3.322 1.832 0 3.321-1.49 3.321-3.321 0-1.831-1.49-3.321-3.32-3.321m0 .6a2.72 2.72 0 1 1 0 5.442 2.72 2.72 0 0 1 0-5.442"/>
        <path fill="#F1F94B" d="M24.997 13.822a1.377 1.377 0 0 1-1.375-1.375c0-.759.617-1.376 1.375-1.376.759 0 1.376.617 1.376 1.376 0 .758-.617 1.375-1.376 1.375"/>
        <path fill="#596B6A" d="M24.997 10.771c-.924 0-1.675.752-1.675 1.676 0 .924.751 1.675 1.675 1.675s1.676-.751 1.676-1.675-.752-1.676-1.676-1.676m0 .6a1.076 1.076 0 1 1 0 2.151 1.076 1.076 0 0 1 0-2.151"/>
        <path fill="#596B6A" d="M25.314 12.447a.316.316 0 1 1-.633 0 .316.316 0 0 1 .633 0"/>
        <path fill="#717F79" d="M31.857 15.468a3.024 3.024 0 0 1-3.021-3.021 3.024 3.024 0 0 1 3.02-3.021 3.024 3.024 0 0 1 3.022 3.02 3.024 3.024 0 0 1-3.021 3.022"/>
        <path fill="#596B6A" d="M31.857 9.126a3.325 3.325 0 0 0-3.321 3.32c0 1.832 1.49 3.322 3.32 3.322 1.832 0 3.322-1.49 3.322-3.321 0-1.831-1.49-3.321-3.321-3.321m0 .6a2.721 2.721 0 1 1 0 5.442 2.721 2.721 0 0 1 0-5.442"/>
        <path fill="#F1F94B" d="M31.857 13.822a1.377 1.377 0 0 1-1.376-1.375c0-.759.617-1.376 1.376-1.376.758 0 1.375.617 1.375 1.376 0 .758-.617 1.375-1.375 1.375"/>
        <path fill="#596B6A" d="M31.857 10.771c-.924 0-1.676.752-1.676 1.676 0 .924.752 1.675 1.676 1.675.924 0 1.675-.751 1.675-1.675s-.751-1.676-1.675-1.676m0 .6a1.076 1.076 0 1 1 0 2.151 1.076 1.076 0 0 1 0-2.151"/>
        <path fill="#596B6A" d="M32.173 12.447a.316.316 0 1 1-.633 0 .316.316 0 0 1 .633 0"/>
        <path stroke="#ED1C24" stroke-linejoin="round" stroke-width=".6" d="M1.577 9.676h3.322L6.413 7.9h7.493"/>
        <mask id="b" fill="#fff">
            <use xlink:href="#a"/>
        </mask>
        <path fill="#999" d="M15.834 13.123h4.028V4.296h-4.028zM36.143 9.676h4.028v-5.38h-4.028z" mask="url(#b)"/>
        <path fill="#596B6A" d="M5.831 2.047H3.525a.227.227 0 0 0-.227.227v.29c0 .126.101.228.227.228H5.83a.227.227 0 0 0 .227-.227v-.291a.227.227 0 0 0-.227-.227" mask="url(#b)"/>
        <path fill="#ED1C24" d="M4.182 2.347a.3.3 0 0 1-.3-.3v-.95a.797.797 0 0 1 1.592 0v.95a.3.3 0 0 1-.3.3h-.992z" mask="url(#b)"/>
        <path fill="#596B6A" d="M4.678 0c-.604 0-1.096.492-1.096 1.096v.951a.6.6 0 0 0 .6.6h.992a.6.6 0 0 0 .6-.6v-.95C5.774.491 5.282 0 4.678 0m0 .6c.274 0 .496.222.496.496v.951h-.992v-.95c0-.275.222-.497.496-.497" mask="url(#b)"/>
        <path fill="#999" d="M2.85 4.176h2.608V6.19L3.832 8.222H1.578v-.487z" mask="url(#b)"/>
        <path fill="#596B6A" fill-rule="nonzero" d="M5.208 6.103l-1.496 1.87H1.368v.5h2.464l.196-.094 1.625-2.032.055-.156V4.176a.25.25 0 0 0-.25-.25H2.452v.5h2.756v1.677z" mask="url(#b)"/>
        <path fill="#717F79" d="M10.814 15.631a3.024 3.024 0 0 1-3.02-3.02 3.024 3.024 0 0 1 3.02-3.022 3.024 3.024 0 0 1 3.021 3.021 3.024 3.024 0 0 1-3.02 3.021" mask="url(#b)"/>
        <path fill="#596B6A" d="M10.814 9.29a3.325 3.325 0 0 0-3.32 3.32 3.325 3.325 0 0 0 3.32 3.321c1.832 0 3.321-1.49 3.321-3.321 0-1.831-1.49-3.32-3.32-3.32m0 .6a2.721 2.721 0 1 1 0 5.441 2.721 2.721 0 0 1 0-5.442" mask="url(#b)"/>
        <path fill="#F1F94B" d="M10.814 13.986A1.377 1.377 0 0 1 9.44 12.61c0-.759.617-1.376 1.375-1.376.759 0 1.376.617 1.376 1.376 0 .759-.617 1.376-1.376 1.376" mask="url(#b)"/>
        <path fill="#596B6A" d="M10.814 10.934c-.924 0-1.675.752-1.675 1.676 0 .924.751 1.676 1.675 1.676s1.676-.752 1.676-1.676c0-.924-.752-1.676-1.676-1.676m0 .6a1.076 1.076 0 1 1 0 2.152 1.076 1.076 0 0 1 0-2.152" mask="url(#b)"/>
        <path fill="#596B6A" d="M11.13 12.61a.316.316 0 1 1-.632 0 .316.316 0 0 1 .633 0" mask="url(#b)"/>
    </g>
</svg>
