<svg xmlns="http://www.w3.org/2000/svg" xmlns:xlink="http://www.w3.org/1999/xlink" width="50" height="50" viewBox="0 0 50 50">
    <defs>
        <path id="a" d="M.08.145h1.673v1.949H.079z"/>
        <path id="c" d="M0 33.005h45.332V.15H0z"/>
    </defs>
    <g fill="none" fill-rule="evenodd" transform="rotate(-45 35.74 17.334)">
        <path fill="#FEE857" d="M23.19 2.03h.743c.667 0 1.208.54 1.208 1.208V4.58c.3.3.15 1.05.15 1.05 1.05.3.9 1.35.9 1.35H27.69L43.5 9.71c.865.15 1.51.918 1.452 1.794a2.241 2.241 0 0 1-.012.126c-.084.668-.26 1.428-.4 1.972a.994.994 0 0 1-.94.745l-18.626.43a.153.153 0 0 0-.149.136l-1.022 9.347a.153.153 0 0 0 .1.16l4.505 1.639c.395.144.743.41.95.777.244.431.357 1.069-.168 1.894-.976 1.533-3.376 1.9-5.035.742a1.64 1.64 0 0 1-.525-.612c-.072-.144-.29-.093-.29.069v.55s-.15 3.15-.6 3.15h-.15c-.45 0-.6-3.15-.6-3.15v-.55c0-.162-.218-.213-.29-.069a1.637 1.637 0 0 1-.526.612c-1.658 1.158-4.058.791-5.034-.742-.525-.825-.413-1.463-.169-1.894.207-.367.555-.633.951-.777l4.505-1.638a.153.153 0 0 0 .1-.16l-1.022-9.348a.153.153 0 0 0-.15-.136l-18.625-.43a.994.994 0 0 1-.94-.745c-.14-.544-.317-1.304-.4-1.972a2.39 2.39 0 0 1-.012-.126C.32 10.628.966 9.86 1.83 9.71l15.81-2.731h1.5s-.15-1.05.9-1.35c0 0-.15-.75.15-1.05V3.238c0-.667.54-1.208 1.208-1.208h1.792"/>
        <path stroke="#596B6A" stroke-linecap="round" stroke-linejoin="round" stroke-width=".75" d="M23.19 2.03h.743c.667 0 1.208.54 1.208 1.208V4.58c.3.3.15 1.05.15 1.05 1.05.3.9 1.35.9 1.35H27.69L43.5 9.71c.865.15 1.51.918 1.452 1.794a2.241 2.241 0 0 1-.012.126c-.084.668-.26 1.428-.4 1.972a.994.994 0 0 1-.94.745l-18.626.43a.153.153 0 0 0-.149.136l-1.022 9.347a.153.153 0 0 0 .1.16l4.505 1.639c.395.144.743.41.95.777.244.431.357 1.069-.168 1.894-.976 1.533-3.376 1.9-5.035.742a1.64 1.64 0 0 1-.525-.612c-.072-.144-.29-.093-.29.069v.55s-.15 3.15-.6 3.15h-.15c-.45 0-.6-3.15-.6-3.15v-.55c0-.162-.218-.213-.29-.069a1.637 1.637 0 0 1-.526.612c-1.658 1.158-4.058.791-5.034-.742-.525-.825-.413-1.463-.169-1.894.207-.367.555-.633.951-.777l4.505-1.638a.153.153 0 0 0 .1-.16l-1.022-9.348a.153.153 0 0 0-.15-.136l-18.625-.43a.994.994 0 0 1-.94-.745c-.14-.544-.317-1.304-.4-1.972a2.39 2.39 0 0 1-.012-.126C.32 10.628.966 9.86 1.83 9.71l15.81-2.731h1.5s-.15-1.05.9-1.35c0 0-.15-.75.15-1.05V3.238c0-.667.54-1.208 1.208-1.208h1.792"/>
        <g transform="translate(21.75 .005)">
            <mask id="b" fill="#fff">
                <use xlink:href="#a"/>
            </mask>
            <path fill="#596B6A" d="M1.75 1.71A2.908 2.908 0 0 0 1.19.282a.342.342 0 0 0-.548 0 2.91 2.91 0 0 0-.56 1.428.342.342 0 0 0 .338.384h.992c.205 0 .362-.18.338-.384" mask="url(#b)"/>
        </g>
        <mask id="d" fill="#fff">
            <use xlink:href="#c"/>
        </mask>
        <path fill="#596B6A" d="M18.441 1.28h8.45V.998h-8.45zM22.761 5.495c.403 0 .766.13 1.02.336v-1.1c0-.7-.462-1.273-1.034-1.287h-.023c-.58.003-1.052.58-1.052 1.287v1.16c.255-.24.648-.396 1.09-.396" mask="url(#d)"/>
        <path fill="#596B6A" d="M23.78 6.106c-.209-.238-.587-.398-1.019-.398-.484 0-.902.2-1.089.489v3.546l.002.001c.017 3.027.157 7.967 1.052 7.969v.005c.893 0 1.035-4.9 1.053-7.932h.002v-3.68z" mask="url(#d)"/>
    </g>
</svg>
