<svg xmlns="http://www.w3.org/2000/svg" width="50" height="50" viewBox="0 0 50 50">
    <g fill="none" fill-rule="evenodd">
        <path fill="#596B6A" fill-rule="nonzero" d="M13.584 38.515l6.698-10.921-.597-.366-6.698 10.921z"/>
        <path fill="#75838E" d="M21.401 28.532l-6.294 10.263"/>
        <path fill="#596B6A" fill-rule="nonzero" d="M21.103 28.35l-6.294 10.262.597.366L21.7 28.715z"/>
        <g>
            <path fill="#DBCF9E" d="M8.6 41.094a.35.35 0 0 1-.35-.35V38.18a.35.35 0 0 1 .35-.35h27.534a.35.35 0 0 1 .35.35v2.564a.35.35 0 0 1-.35.35H8.6z"/>
            <path fill="#596B6A" d="M36.134 37.48H8.6a.7.7 0 0 0-.7.7v2.564a.7.7 0 0 0 .7.7h27.534a.7.7 0 0 0 .7-.7V38.18a.7.7 0 0 0-.7-.7zM8.6 40.744h27.534V38.18H8.6v2.564zM18.624 30.801l-1.03-.624-2.814 4.644 1.029.624z"/>
            <path fill="#596B6A" d="M15.809 35.445c-.077.126-.37.09-.653-.083-.284-.172-.453-.414-.376-.54.076-.127.369-.09.653.083.284.172.452.414.376.54M18.616 30.813c-.076.126-.369.09-.653-.083-.284-.172-.452-.414-.376-.54.077-.127.37-.09.654.082.284.173.452.415.375.54M20.116 31.775l-1.029-.624-2.814 4.644 1.029.624z"/>
            <path fill="#596B6A" d="M17.302 36.419c-.077.126-.37.089-.653-.083-.284-.172-.453-.415-.376-.54.076-.127.369-.09.653.082.284.172.452.414.376.54M20.11 31.787c-.077.126-.37.089-.654-.084-.284-.172-.452-.414-.376-.54.077-.126.37-.09.653.083.285.172.453.414.376.54"/>
            <path fill="#75838E" d="M27.517 32.425v5.353"/>
            <path fill="#596B6A" fill-rule="nonzero" d="M27.168 32.425v5.353h.7v-5.353z"/>
            <path fill="#F2F2F2" d="M32.046 35.83c-.07 0-.14-.021-.202-.065l-14.57-10.32-.312.442a.65.65 0 0 1-.903.155l-.584-.414a.644.644 0 0 1-.154-.903l.312-.442-3.88-2.749a1.178 1.178 0 0 1-.484-.768 1.179 1.179 0 0 1 .201-.885l1.146-1.617a1.189 1.189 0 0 1 1.227-.472 1.188 1.188 0 0 1 .038-1.314l1.146-1.618a1.188 1.188 0 0 1 1.278-.46 1.188 1.188 0 0 1 .009-1.357l1.146-1.618a1.188 1.188 0 0 1 1.278-.46 1.188 1.188 0 0 1 .009-1.357l1.145-1.618a1.188 1.188 0 0 1 1.654-.282l3.88 2.749.247-.348a.649.649 0 0 1 .904-.154l.583.413a.644.644 0 0 1 .154.903l-.246.348 14.57 10.32a.35.35 0 0 1 .083.488l-9.389 13.255a.35.35 0 0 1-.286.148"/>
            <path fill="#596B6A" d="M20.86 7.14a1.54 1.54 0 0 0-1.253.648L18.46 9.406a1.532 1.532 0 0 0-.253 1.185c-.413.06-.79.287-1.034.632l-1.146 1.617a1.526 1.526 0 0 0-.253 1.186c-.413.06-.79.287-1.034.632l-1.146 1.617a1.525 1.525 0 0 0-.258 1.158 1.54 1.54 0 0 0-1.007.628l-1.145 1.618a1.538 1.538 0 0 0 .365 2.14l3.596 2.547-.111.156a.991.991 0 0 0-.17.745.99.99 0 0 0 .408.647l.583.413a1 1 0 0 0 1.391-.237l.111-.156 13.175 9.331 1.11.786a.696.696 0 0 0 .975-.167l9.388-13.255a.7.7 0 0 0-.166-.976l-2.404-1.702-11.88-8.415.044-.062a.992.992 0 0 0 .17-.745.992.992 0 0 0-.408-.647l-.583-.413a1 1 0 0 0-1.391.237l-.045.063-3.595-2.546a1.526 1.526 0 0 0-.887-.283m10.893 23.655l.3-.421-12.452-8.82-.299.422 12.451 8.82m2.411-3.404l.321-.454-12.45-8.819-.322.454 12.451 8.819m2.433-3.435l.32-.453-12.45-8.82-.321.454 12.45 8.819M20.862 7.84c.167 0 .336.05.482.154l4.167 2.95.449-.633a.298.298 0 0 1 .415-.07l.584.413a.298.298 0 0 1 .07.415l-.448.634 12.45 8.819 2.405 1.703-9.388 13.255-1.11-.786-13.746-9.736-.515.727a.298.298 0 0 1-.415.071l-.584-.413a.298.298 0 0 1-.07-.416l.514-.727-4.166-2.951a.836.836 0 0 1-.2-1.165l1.146-1.618a.835.835 0 0 1 1.166-.199l4.166 2.951.299-.422-4.167-2.95a.836.836 0 0 1-.198-1.166l1.145-1.617a.835.835 0 0 1 1.165-.2l4.167 2.952.32-.454-4.166-2.95a.836.836 0 0 1-.198-1.166l1.145-1.617a.835.835 0 0 1 1.165-.2l4.167 2.952.32-.453-4.166-2.951a.836.836 0 0 1-.199-1.166l1.146-1.617a.835.835 0 0 1 .683-.353"/>
            <path fill="#DBCF9E" d="M31.42 34.952c-.218 0-.426-.066-.604-.192L11.834 21.315a1.047 1.047 0 0 1-.25-1.458l1.146-1.618a1.048 1.048 0 0 1 1.458-.249L33.17 31.435c.471.334.583.988.25 1.458l-1.146 1.618a1.048 1.048 0 0 1-.854.441"/>
            <path fill="#596B6A" d="M13.584 17.588c-.407 0-.79.198-1.025.53l-1.146 1.617c-.194.274-.27.607-.213.937.056.331.238.62.512.814l18.982 13.445a1.258 1.258 0 0 0 1.75-.299l1.147-1.617c.194-.274.27-.607.213-.938a1.247 1.247 0 0 0-.512-.813L14.31 17.819a1.25 1.25 0 0 0-.726-.231m0 .42c.167 0 .336.05.483.154l18.982 13.445a.836.836 0 0 1 .199 1.165l-1.146 1.617a.835.835 0 0 1-1.165.2L11.955 21.142a.836.836 0 0 1-.2-1.165l1.146-1.617a.835.835 0 0 1 .683-.353"/>
            <path fill="#DBCF9E" d="M33.83 31.549c-.217 0-.426-.067-.604-.193L14.244 17.911a1.047 1.047 0 0 1-.249-1.458l1.146-1.617a1.048 1.048 0 0 1 1.458-.25L35.58 28.033c.47.333.582.987.249 1.458l-1.146 1.617a1.048 1.048 0 0 1-.854.442"/>
            <path fill="#596B6A" d="M15.995 14.184c-.407 0-.79.198-1.026.53l-1.145 1.618c-.194.273-.27.606-.213.937.056.33.238.62.512.814l18.982 13.445a1.259 1.259 0 0 0 1.75-.299l1.146-1.618c.194-.273.27-.606.214-.937a1.249 1.249 0 0 0-.512-.814L16.72 14.415a1.249 1.249 0 0 0-.725-.23m0 .42c.167 0 .336.05.482.153L35.46 28.203a.836.836 0 0 1 .199 1.166l-1.146 1.617a.835.835 0 0 1-1.165.199L14.366 17.74a.836.836 0 0 1-.2-1.166l1.146-1.617a.835.835 0 0 1 .683-.353"/>
            <path fill="#DBCF9E" d="M36.263 28.114c-.217 0-.426-.067-.604-.193L16.677 14.476a1.04 1.04 0 0 1-.426-.677 1.039 1.039 0 0 1 .177-.78l1.146-1.618a1.048 1.048 0 0 1 1.458-.25l18.982 13.446c.47.333.582.988.249 1.458l-1.146 1.617a1.048 1.048 0 0 1-.854.442"/>
            <path fill="#596B6A" d="M18.428 10.75c-.407 0-.79.198-1.026.53l-1.145 1.617c-.194.274-.27.606-.213.937.056.33.238.62.512.814l18.982 13.445a1.259 1.259 0 0 0 1.75-.299l1.146-1.618c.194-.273.27-.606.214-.937a1.248 1.248 0 0 0-.513-.813L19.153 10.98a1.25 1.25 0 0 0-.725-.23m0 .42c.167 0 .336.05.482.153l18.983 13.445a.836.836 0 0 1 .199 1.166l-1.146 1.617a.835.835 0 0 1-1.165.2L16.798 14.304a.836.836 0 0 1-.199-1.165l1.146-1.618a.835.835 0 0 1 .683-.353"/>
            <path fill="#DBCF9E" d="M38.696 24.679c-.217 0-.426-.067-.604-.193L19.11 11.041a1.047 1.047 0 0 1-.249-1.458l1.146-1.617a1.048 1.048 0 0 1 1.458-.249l18.982 13.445c.228.162.38.402.426.678.047.275-.016.552-.177.78l-1.146 1.618a1.048 1.048 0 0 1-.854.441"/>
            <path fill="#596B6A" d="M20.86 7.314c-.406 0-.79.199-1.025.53L18.69 9.463c-.194.274-.27.607-.213.937.056.33.238.62.512.814L37.97 24.658a1.258 1.258 0 0 0 1.75-.299l1.146-1.617c.4-.566.266-1.351-.299-1.751L21.586 7.546a1.248 1.248 0 0 0-.725-.232m0 .42c.167 0 .336.05.482.154l18.983 13.445a.836.836 0 0 1 .199 1.166l-1.146 1.617a.835.835 0 0 1-1.165.2L19.23 10.87a.836.836 0 0 1-.199-1.165l1.146-1.618a.835.835 0 0 1 .683-.353"/>
            <path fill="#EDE2B2" d="M16.433 25.915a.505.505 0 0 1-.294-.093l-.583-.414a.509.509 0 0 1-.121-.708l10.352-14.616a.509.509 0 0 1 .709-.12l.583.413a.504.504 0 0 1 .121.708L16.848 25.701a.509.509 0 0 1-.415.214"/>
            <path fill="#596B6A" d="M26.202 9.66a.72.72 0 0 0-.586.303L15.263 24.579a.719.719 0 0 0 .171 1l.584.414a.72.72 0 0 0 1-.17l10.354-14.617a.714.714 0 0 0-.17-1l-.585-.414a.713.713 0 0 0-.415-.132m0 .42c.06 0 .12.018.172.055l.584.413a.298.298 0 0 1 .07.416L16.677 25.58a.298.298 0 0 1-.415.07l-.584-.413a.298.298 0 0 1-.07-.415l10.352-14.616a.298.298 0 0 1 .243-.126"/>
            <path fill="#EDE2B2" d="M32.046 35.584a.21.21 0 0 1-.12-.038l-2.405-1.703a.21.21 0 0 1-.05-.293l9.389-13.255a.21.21 0 0 1 .292-.05l2.405 1.703a.21.21 0 0 1 .05.293l-9.39 13.255a.21.21 0 0 1-.17.088"/>
            <path fill="#596B6A" d="M39.031 19.996a.419.419 0 0 0-.343.178L29.3 33.429a.42.42 0 0 0 .1.585l2.404 1.703a.419.419 0 0 0 .585-.1l9.389-13.255a.42.42 0 0 0-.1-.586l-2.404-1.702a.417.417 0 0 0-.243-.078m0 .42l2.404 1.703-9.388 13.255-2.405-1.703 9.389-13.255"/>
        </g>
    </g>
</svg>
