<svg id="Layer_1" data-name="Layer 1" xmlns="http://www.w3.org/2000/svg" viewBox="0 0 35 37"><defs><style>.cls-1{fill:#ede2b2;}.cls-2{fill:#596b6a;}.cls-3{fill:#dbcf9e;}.cls-4{fill:#c8eab2;}</style></defs><title>karnaf</title><path class="cls-1" d="M22.48,35.4a1.15,1.15,0,0,1-.87-.49c-.31-.37-.82-1-.48-1.59.19-.33,2.32-3.73,3-4.79a29.45,29.45,0,0,1-2.38-2l-4.69-4.69-2.23,2.23L3.31,32.9a.37.37,0,0,1-.24.08.35.35,0,0,1-.2,0,16,16,0,0,1-2-1.29A.91.91,0,0,1,1,30.26C1.07,30.12,3,28,6.81,24l-.12-.12C6.41,23.6,5,22.17,5,21.42a.55.55,0,0,1,.56-.56c.75,0,2.18,1.39,2.46,1.67l.07.08,2.32-2.47a10.05,10.05,0,0,1-1.28-1.53c-.29-.44-.58-1-.23-1.33a.52.52,0,0,1,.4-.16c.73,0,2.08,1.3,2.43,1.64l.92-.93a10,10,0,0,1-1.32-1.69L7.1,11.89A7.88,7.88,0,0,1,4.92,8.05a3.54,3.54,0,0,0-.33-.8,3.93,3.93,0,0,1-.29-.69,1,1,0,0,1,.29-1,1.06,1.06,0,0,1,.73-.33,1,1,0,0,1,.24,0,3.93,3.93,0,0,1,.69.29,3.54,3.54,0,0,0,.8.33A7.92,7.92,0,0,1,10.89,8.1l4.25,4.25a10,10,0,0,1,1.69,1.32l.92-.92a10.58,10.58,0,0,1-1.24-1.49c-.29-.44-.58-1-.23-1.34a.55.55,0,0,1,.4-.15c.75,0,2.18,1.38,2.45,1.66l2.48-2.32L21.53,9a10.54,10.54,0,0,1-1.28-1.52c-.29-.44-.58-1-.23-1.34a.55.55,0,0,1,.4-.16c.75,0,2.18,1.39,2.46,1.67l.12.12C28.42,2.72,29.17,2,29.26,2A1.19,1.19,0,0,1,30,1.6a.89.89,0,0,1,.64.3,14.94,14.94,0,0,1,1.29,2,.39.39,0,0,1,0,.44L23.11,15.78l-2.27,2.27,4.69,4.69a29.45,29.45,0,0,1,2,2.38c1.06-.67,4.46-2.8,4.79-3a.92.92,0,0,1,.43-.11,1.9,1.9,0,0,1,1.12.55,1.21,1.21,0,0,1,.52.83.81.81,0,0,1-.2.64c-.2.24-2.87,3.88-3.93,5.34l0,.11a1.4,1.4,0,0,1,.1,1.83,1,1,0,0,1-.75.31,2,2,0,0,1-1.07-.41l-.12,0C26.92,32.32,23.28,35,23,35.19A.85.85,0,0,1,22.48,35.4Z"/><path class="cls-2" d="M30,2a.51.51,0,0,1,.36.18,18.8,18.8,0,0,1,1.23,1.89l-8.8,11.47-2.51,2.51,5,5a32,32,0,0,1,2.18,2.62s4.7-2.95,5.08-3.17a.53.53,0,0,1,.24-.06,1.68,1.68,0,0,1,.91.5c.3.24.47.57.22.87s-4,5.41-4,5.41l-.11.38s.8.91.26,1.46a.63.63,0,0,1-.47.19,1.85,1.85,0,0,1-1-.45l-.38.11s-5.11,3.74-5.41,4a.51.51,0,0,1-.31.12.78.78,0,0,1-.56-.34c-.25-.3-.66-.76-.44-1.15s3.17-5.08,3.17-5.08A32,32,0,0,1,22,26.25l-5-5-2.51,2.51L3.07,32.59a18.8,18.8,0,0,1-1.89-1.23c-.32-.33-.16-.55.09-.85S4.55,27,7.36,24L7,23.6c-1-1.06-1.73-2.08-1.51-2.3a.16.16,0,0,1,.12,0,5.27,5.27,0,0,1,2.18,1.55l.36.37L11,20.13l-.28-.28C9.66,18.8,9,17.78,9.2,17.56a.16.16,0,0,1,.12,0,5.27,5.27,0,0,1,2.18,1.55l.25.25h0l1.48-1.47a9.55,9.55,0,0,1-1.56-1.94L7.38,11.61A7.58,7.58,0,0,1,5.31,8c-.15-.59-.5-1-.63-1.51a.6.6,0,0,1,.19-.57.68.68,0,0,1,.45-.21l.12,0c.46.13.92.48,1.51.63a7.58,7.58,0,0,1,3.66,2.07l4.29,4.29a9.55,9.55,0,0,1,1.94,1.56l1.47-1.48h0l-.25-.25c-1.05-1.05-1.73-2.08-1.51-2.3a.21.21,0,0,1,.12,0,5.43,5.43,0,0,1,2.17,1.55l.28.28,3.05-2.87-.37-.36c-1-1-1.73-2.08-1.51-2.3a.16.16,0,0,1,.12,0A5.27,5.27,0,0,1,22.6,8l.39.39c3-2.81,6.36-6,6.52-6.09A.87.87,0,0,1,30,2m0-.8a1.53,1.53,0,0,0-1,.45c-.07.05-.22.17-6,5.6-.69-.67-1.81-1.63-2.58-1.63a.94.94,0,0,0-.68.28c-.23.23-.92.91,1.29,3.2l-1.89,1.78a4.88,4.88,0,0,0-2.46-1.51.91.91,0,0,0-.68.27c-.63.62,0,1.54.17,1.84a10.25,10.25,0,0,0,1,1.26l-.38.38A9.38,9.38,0,0,0,15.39,12L11.17,7.82a8.27,8.27,0,0,0-4-2.28,4.5,4.5,0,0,1-.73-.3,3.6,3.6,0,0,0-.75-.32,1,1,0,0,0-.35-.06,1.47,1.47,0,0,0-1,.45,1.35,1.35,0,0,0-.39,1.36,3.6,3.6,0,0,0,.32.75,4.5,4.5,0,0,1,.3.73,8.27,8.27,0,0,0,2.28,4L11,16.39a9.38,9.38,0,0,0,1.08,1.43l-.38.38a4.75,4.75,0,0,0-2.42-1.48,1,1,0,0,0-.68.28c-.23.22-.9.9,1.24,3.14L8.1,22c-.69-.67-1.77-1.58-2.52-1.58a.94.94,0,0,0-.68.28c-.62.62,0,1.53.18,1.83A8.79,8.79,0,0,0,6.26,24C.82,29.79.7,29.94.65,30a1.29,1.29,0,0,0,0,1.91,14.88,14.88,0,0,0,2.05,1.36.79.79,0,0,0,.4.1.77.77,0,0,0,.48-.16L15,24.42l.07-.07,2-2,4.41,4.41a25,25,0,0,0,2.13,1.81c-.83,1.32-2.62,4.19-2.8,4.5a1.76,1.76,0,0,0,.47,2l0,.05a1.56,1.56,0,0,0,1.18.63,1.29,1.29,0,0,0,.81-.3c.22-.18,3.14-2.33,5.18-3.82a2.2,2.2,0,0,0,1.1.35,1.42,1.42,0,0,0,1-.43,1.67,1.67,0,0,0,.08-2.13c1.5-2,3.64-5,3.82-5.18a1.37,1.37,0,0,0-.33-2l-.05,0a2.26,2.26,0,0,0-1.37-.64,1.27,1.27,0,0,0-.63.17c-.31.18-3.18,2-4.5,2.8a25,25,0,0,0-1.81-2.13L21.4,18.05l2-1.95.07-.07,8.8-11.48a.8.8,0,0,0,.06-.88,14.88,14.88,0,0,0-1.36-2A1.27,1.27,0,0,0,30,1.2Z"/><path class="cls-3" d="M16.84,14.23a9.55,9.55,0,0,0-1.94-1.56L10.61,8.38a7.82,7.82,0,0,0-.84-.73,1.58,1.58,0,0,1-.18.65A27.13,27.13,0,0,1,6.79,11c.17.21.37.43.59.66l4.29,4.29a9.55,9.55,0,0,0,1.56,1.94l-1.48,1.47h0l-.25-.25C10.45,18,9.42,17.34,9.2,17.56s.46,1.24,1.51,2.29l.28.28L8.12,23.18l-.36-.37c-1-1-2.08-1.73-2.3-1.51S5.92,22.54,7,23.6l.39.39c-.86.91-1.75,1.86-2.57,2.75l2.28,2.78L12,25.76a5.23,5.23,0,0,1-.15-2c.32-2.28,2.91-3.17,4.2-4.47,1-1,1.8-3.71,2.23-6.47Z"/><path class="cls-3" d="M18.44,11.32c-.9-.82-1.69-1.3-1.88-1.12s.46,1.25,1.51,2.3l.2.19C18.33,12.23,18.39,11.77,18.44,11.32Z"/><path class="cls-4" d="M27.87,4.14l-.33,0c-1.21,1.12-2.8,2.62-4.33,4.05a7.19,7.19,0,0,0,2,3.54c.08.06.19.15.33.24l4.26-5.56Z"/><path class="cls-3" d="M29.48,28.9l2.91-6.34c-.85.51-5,3.09-5,3.09A32,32,0,0,0,25.25,23l-3.77-3.78c-.3,1.28-.15,2.95-.85,4l-.63.95,2,2a32,32,0,0,0,2.62,2.18L22.5,31.86Z"/><path class="cls-2" d="M5.78,22.41l.79-.79c-.65-.46-1.15-.68-1.31-.52S5.32,21.76,5.78,22.41Z"/><path class="cls-2" d="M9.51,18.67l.81-.8c-.67-.48-1.18-.7-1.34-.53S9,18,9.51,18.67Z"/><path class="cls-2" d="M21.38,6.81l-.74.73c-.43-.61-.64-1.08-.49-1.23S20.77,6.37,21.38,6.81Z"/><path class="cls-2" d="M17.66,10.53l-.77.77c-.46-.64-.67-1.13-.52-1.28S17,10.07,17.66,10.53Z"/><path class="cls-2" d="M6.66,6a12.06,12.06,0,0,0-1.32-.59.74.74,0,0,0-.72.24.76.76,0,0,0-.24.72A13.4,13.4,0,0,0,5,7.68a2.36,2.36,0,0,1,.63-1.1A2.44,2.44,0,0,1,6.66,6Z"/><polygon class="cls-2" points="5.34 7.25 5.75 7.5 5.72 7.76 5.3 7.5 5.34 7.25"/><polygon class="cls-2" points="6.08 7.08 5.88 7.28 6.11 7.46 6.28 7.28 6.46 7.11 6.28 6.88 6.08 7.08"/><polygon class="cls-2" points="5.84 7.36 6.08 7.55 6.05 7.81 5.78 7.79 5.84 7.36"/><path class="cls-2" d="M6.21,8.63a2.1,2.1,0,0,0,.15.3l.1-.1A1.44,1.44,0,0,1,6.29,8L6.13,8a.13.13,0,0,1,0,.06A1.37,1.37,0,0,0,6.21,8.63Z"/><path class="cls-2" d="M6.14,8.66A1.42,1.42,0,0,1,6.05,8a.13.13,0,0,1,0-.06h0L5.78,8a2.7,2.7,0,0,0,.07.55,2,2,0,0,0,.3.63L6.31,9A1.71,1.71,0,0,1,6.14,8.66Z"/><polygon class="cls-2" points="6.25 6.34 6.5 6.75 6.76 6.72 6.5 6.3 6.25 6.34"/><polygon class="cls-2" points="6.36 6.84 6.55 7.08 6.81 7.05 6.79 6.78 6.36 6.84"/><path class="cls-2" d="M7.63,7.21a2.1,2.1,0,0,1,.3.15l-.1.1A1.44,1.44,0,0,0,7,7.29l0-.16h.06A1.37,1.37,0,0,1,7.63,7.21Z"/><path class="cls-2" d="M7.66,7.14A1.42,1.42,0,0,0,7,7.05H7l0-.27a2.7,2.7,0,0,1,.55.07,2,2,0,0,1,.63.3L8,7.31A1.71,1.71,0,0,0,7.66,7.14Z"/><rect class="cls-2" x="3.9" y="21.61" width="3.98" height="0.25" transform="translate(-13.65 10.53) rotate(-45)"/><rect class="cls-2" x="7.64" y="17.87" width="3.98" height="0.25" transform="translate(-9.9 12.08) rotate(-45)"/><rect class="cls-2" x="15" y="10.51" width="3.98" height="0.25" transform="translate(-2.55 15.13) rotate(-45)"/><rect class="cls-2" x="18.74" y="6.77" width="3.98" height="0.25" transform="translate(1.19 16.68) rotate(-45)"/></svg>