<svg xmlns="http://www.w3.org/2000/svg" width="50" height="50" viewBox="0 0 50 50">
    <g fill="none" fill-rule="evenodd">
        <path fill="#F2F2F2" d="M35.47 41.312a5.863 5.863 0 0 1-4.173-1.728 5.89 5.89 0 0 1-1.406-6.106L16.497 20.083a5.885 5.885 0 0 1-1.932.324 5.865 5.865 0 0 1-4.174-1.729 5.92 5.92 0 0 1-1.518-5.738.5.5 0 0 1 .836-.222l3.165 3.166 3.073-3.073-3.166-3.165a.5.5 0 0 1 .222-.836c.509-.14 1.036-.21 1.565-.21 1.576 0 3.058.614 4.173 1.728a5.89 5.89 0 0 1 1.405 6.106L33.541 29.83a5.885 5.885 0 0 1 1.932-.324c1.576 0 3.059.614 4.174 1.73a5.92 5.92 0 0 1 1.518 5.737.5.5 0 0 1-.836.222l-3.166-3.166-3.072 3.073 3.165 3.165a.5.5 0 0 1-.221.836c-.51.14-1.036.21-1.565.21"/>
        <path fill="#596B6A" d="M14.568 8.1c-.574 0-1.145.077-1.697.228a1 1 0 0 0-.444 1.671l2.812 2.812-2.365 2.366-2.812-2.812a1 1 0 0 0-1.672.443 6.42 6.42 0 0 0 1.647 6.223 6.36 6.36 0 0 0 4.528 1.876c.612 0 1.213-.086 1.794-.255l12.963 12.964a6.388 6.388 0 0 0 1.621 6.321 6.36 6.36 0 0 0 4.527 1.875c.574 0 1.144-.077 1.697-.228a1 1 0 0 0 .443-1.672l-2.812-2.811 2.365-2.366 2.812 2.812a1 1 0 0 0 1.672-.443A6.422 6.422 0 0 0 40 30.88a6.363 6.363 0 0 0-4.528-1.875c-.612 0-1.213.086-1.793.255L20.715 16.296a6.388 6.388 0 0 0-1.62-6.321A6.36 6.36 0 0 0 14.567 8.1m0 1a5.405 5.405 0 0 1 4.997 7.46l13.85 13.85a5.41 5.41 0 0 1 5.878 1.178 5.4 5.4 0 0 1 1.39 5.252l-3.52-3.519-3.78 3.78 3.52 3.519c-.469.128-.95.192-1.433.192a5.406 5.406 0 0 1-4.997-7.46l-13.85-13.85a5.413 5.413 0 0 1-5.879-1.178 5.401 5.401 0 0 1-1.389-5.252l3.519 3.519 3.78-3.78-3.52-3.519a5.43 5.43 0 0 1 1.434-.192"/>
        <path fill="#DCE1E5" d="M35.537 41.18a5.664 5.664 0 0 1-4.031-1.67 5.666 5.666 0 0 1-1.67-4.033c0-1.524.593-2.956 1.67-4.034a5.667 5.667 0 0 1 4.033-1.67c1.524 0 2.957.593 4.034 1.67a5.722 5.722 0 0 1 1.467 5.544.3.3 0 0 1-.502.133l-3.307-3.307-3.355 3.355 3.307 3.307a.3.3 0 0 1-.133.502 5.735 5.735 0 0 1-1.513.203"/>
        <path fill="#596B6A" d="M35.54 29.473a5.965 5.965 0 0 0-4.247 1.758 5.966 5.966 0 0 0-1.758 4.246c0 1.604.625 3.111 1.758 4.245a5.963 5.963 0 0 0 4.244 1.758c.539 0 1.074-.072 1.592-.214a.6.6 0 0 0 .266-1.003L34.3 37.168l2.931-2.93 3.095 3.094a.6.6 0 0 0 1.003-.266 6.02 6.02 0 0 0-1.544-5.835 5.964 5.964 0 0 0-4.246-1.758m0 .6a5.402 5.402 0 0 1 5.21 6.835l-3.518-3.52-3.78 3.78 3.52 3.52c-.47.128-.951.192-1.434.192a5.404 5.404 0 0 1 .002-10.807"/>
        <path fill="#DCE1E5" d="M14.51 20.15a5.666 5.666 0 0 1-4.034-1.67 5.721 5.721 0 0 1-1.467-5.544.3.3 0 0 1 .502-.132l3.307 3.306 3.355-3.355-3.307-3.307A.3.3 0 0 1 13 8.947c.492-.135 1.001-.203 1.512-.203 1.523 0 2.955.593 4.032 1.67a5.667 5.667 0 0 1 1.67 4.033 5.666 5.666 0 0 1-1.67 4.033 5.667 5.667 0 0 1-4.034 1.67"/>
        <path fill="#596B6A" d="M14.511 8.444c-.538 0-1.073.072-1.591.213a.6.6 0 0 0-.266 1.003l3.095 3.095-2.931 2.931-3.095-3.095a.6.6 0 0 0-1.003.266 6.02 6.02 0 0 0 1.544 5.835 5.966 5.966 0 0 0 4.245 1.759 5.965 5.965 0 0 0 4.246-1.759 5.964 5.964 0 0 0 1.759-4.245 5.964 5.964 0 0 0-1.759-4.246 5.962 5.962 0 0 0-4.244-1.757m0 .6a5.404 5.404 0 1 1-5.213 3.972l3.52 3.519 3.78-3.78-3.52-3.519c.469-.128.951-.192 1.433-.192"/>
        <path fill="#F2F2F2" d="M14.323 41.388c-.745 0-1.444-.29-1.97-.816l-2.938-2.939a2.766 2.766 0 0 1-.817-1.97c0-.744.29-1.444.817-1.97l10.802-10.802a2.768 2.768 0 0 1 1.97-.816c.744 0 1.444.29 1.97.816l.172.171 8.501-8.5-.32-.648a.5.5 0 0 1 .154-.625l4.84-3.532a.498.498 0 0 1 .647.05l1.92 1.92a.5.5 0 0 1 .053.644l-3.487 4.884a.5.5 0 0 1-.626.159l-.618-.302-8.507 8.507.21.21c.526.526.815 1.226.815 1.97s-.29 1.444-.816 1.97L16.293 40.572a2.768 2.768 0 0 1-1.97.816"/>
        <path fill="#596B6A" d="M37.797 9.16a.996.996 0 0 0-.589.193l-4.839 3.532a1 1 0 0 0-.307 1.25l.161.326-7.9 7.901a3.262 3.262 0 0 0-2.136-.787c-.877 0-1.703.341-2.324.962L9.061 33.34a3.29 3.29 0 0 0 0 4.647l2.938 2.938c.62.62 1.446.963 2.324.963.878 0 1.703-.342 2.323-.963L27.45 30.123a3.29 3.29 0 0 0 .14-4.5l7.905-7.905.298.145a.996.996 0 0 0 1.252-.318l3.487-4.883a1 1 0 0 0-.106-1.288l-1.92-1.92a.998.998 0 0 0-.708-.293m0 1l1.92 1.92-3.487 4.883-.938-.457-9.113 9.112.563.563c.893.893.893 2.34 0 3.234L15.94 40.218a2.28 2.28 0 0 1-1.616.67 2.28 2.28 0 0 1-1.617-.67L9.768 37.28a2.286 2.286 0 0 1 0-3.233L20.57 23.244a2.28 2.28 0 0 1 1.617-.67c.585 0 1.17.224 1.617.67l.525.525 9.108-9.107-.478-.97 4.839-3.531"/>
        <path fill="#DCE1E5" d="M34.172 15.84l2.172 1.074 3.405-4.802-1.92-1.92-4.757 3.45z"/>
        <path fill="#596B6A" fill-rule="nonzero" d="M34.039 16.108l2.171 1.075a.3.3 0 0 0 .378-.096l3.406-4.802a.3.3 0 0 0-.033-.385l-1.92-1.92a.3.3 0 0 0-.388-.03l-4.757 3.45a.3.3 0 0 0-.092.377l1.1 2.196.135.135zm-.584-2.372l4.343-3.15 1.56 1.559-3.111 4.386-1.852-.916-.94-1.88z"/>
        <path stroke="#596B6A" stroke-linecap="round" stroke-linejoin="round" stroke-width=".6" d="M24.408 23.674l1.85 1.85"/>
        <path fill="#DCE1E5" d="M12.797 40.262l-3.038-3.038a2.25 2.25 0 0 1 0-3.181l10.77-10.77a2.368 2.368 0 0 1 3.35 0l2.833 2.832a2.353 2.353 0 0 1 0 3.328l-10.83 10.83a2.182 2.182 0 0 1-3.085 0"/>
        <path fill="#596B6A" d="M10.824 35.172l-.012-.013a.12.12 0 0 1 0-.169l10.003-10.003a.12.12 0 0 1 .169 0l.012.013a.119.119 0 0 1 0 .169L10.994 35.172a.12.12 0 0 1-.17 0M12.151 36.499l-.012-.013a.12.12 0 0 1 0-.169l10.003-10.003a.12.12 0 0 1 .169 0l.012.013a.119.119 0 0 1 0 .169L12.32 36.499a.12.12 0 0 1-.169 0M13.478 37.826l-.012-.013a.12.12 0 0 1 0-.169l10.003-10.003a.12.12 0 0 1 .169 0l.012.013a.119.119 0 0 1 0 .168L13.647 37.826a.12.12 0 0 1-.169 0M14.815 39.142l-.012-.013a.12.12 0 0 1 0-.169l10.003-10.003a.12.12 0 0 1 .169 0l.012.013a.119.119 0 0 1 0 .169L14.984 39.142a.12.12 0 0 1-.169 0"/>
    </g>
</svg>
