<svg id="Layer_1" data-name="Layer 1" xmlns="http://www.w3.org/2000/svg" viewBox="0 0 35 35"><defs><style>.cls-1{fill:#f2f2f2;}.cls-2{fill:#596b6a;}.cls-3{fill:#a8c1c0;}</style></defs><title>nachshon</title><path class="cls-1" d="M7.06,33.89a.43.43,0,0,1-.28-.11l-.51-.52L5.12,31.33a.31.31,0,0,1,0-.25L8,11.21,3.47,6.69A7.71,7.71,0,0,1,1.11,1.5a.38.38,0,0,1,.38-.39h0A7.71,7.71,0,0,1,6.69,3.47L11.21,8,31.08,5.07h.05a.36.36,0,0,1,.2.06l1.85,1.09a.16.16,0,0,1,.08.06l.52.51a.41.41,0,0,1,.06.49.4.4,0,0,1-.34.19l-.12,0L32.09,7,28,8.44l.13.29a.41.41,0,0,1-.09.42.43.43,0,0,1-.28.11l-.14,0a4.27,4.27,0,0,1-.74-.42l-3,1,.1.22a.4.4,0,0,1-.37.53.35.35,0,0,1-.14,0,3.07,3.07,0,0,1-.57-.3L20.6,11.57c.14.25.21.43.22.44a.43.43,0,0,1-.09.42.39.39,0,0,1-.28.12.32.32,0,0,1-.14,0,4,4,0,0,1-.61-.32l-2.37,2c.31.37.56.71.78,1h0l.56-.59.15-.15.58-.56a.39.39,0,0,1,.27-.1.37.37,0,0,1,.18,0,11.18,11.18,0,0,1,2.41,1.73,20.89,20.89,0,0,1,2.32,3.26.39.39,0,0,1-.06.48l-1,1a.39.39,0,0,1-.27.11H23.2l-.11.39a7,7,0,0,1,.8,1.22c1.16-.09,5.67-.47,6.08-.49h0c1,0,2.26,1.25,2.4,1.4a.39.39,0,0,1,.1.36.39.39,0,0,1-.26.28l-5.88,2,.21.44a.4.4,0,0,1-.08.45.36.36,0,0,1-.28.12.53.53,0,0,1-.17,0l-.44-.22-2,5.89a.39.39,0,0,1-.28.26h-.09a.39.39,0,0,1-.27-.11c-.25-.23-1.47-1.45-1.4-2.4,0-.41.4-4.92.49-6.08a6.68,6.68,0,0,1-1.22-.8l-.39.11a.41.41,0,0,1-.11.32l-1,1a.39.39,0,0,1-.28.12.36.36,0,0,1-.2-.06,20.89,20.89,0,0,1-3.26-2.32,10.79,10.79,0,0,1-1.73-2.41.4.4,0,0,1,.06-.45l.57-.59.14-.14.59-.56h0c-.31-.22-.65-.47-1-.78l-2,2.37a2.83,2.83,0,0,1,.32.61.39.39,0,0,1-.09.42.41.41,0,0,1-.28.11l-.14,0s-.19-.08-.44-.22l-1.31,2.32a3.07,3.07,0,0,1,.3.57.38.38,0,0,1-.09.42.39.39,0,0,1-.28.11.3.3,0,0,1-.13,0,1.13,1.13,0,0,1-.22-.1l-1,3a4.27,4.27,0,0,1,.42.74.4.4,0,0,1-.09.42.43.43,0,0,1-.28.11.32.32,0,0,1-.14,0L8.44,28,7,32.09l.4,1.29a.41.41,0,0,1-.17.46A.41.41,0,0,1,7.06,33.89Z"/><path class="cls-2" d="M1.5,1.5h0a7.44,7.44,0,0,1,4.9,2.24l4.66,4.67L31.13,5.46,33,6.55l.52.51-1.41-.43L27.4,8.23a3.08,3.08,0,0,1,.35.64,3.16,3.16,0,0,1-.81-.49L23.32,9.62a3.15,3.15,0,0,1,.31.57,3,3,0,0,1-.69-.39L20,11.43a3.41,3.41,0,0,1,.41.72,3.12,3.12,0,0,1-.77-.45l-2.91,2.44a14.33,14.33,0,0,1,1.45,2l.35-.33-.17-.3.56-.58.06-.06h0v0l.06-.05.58-.56A11,11,0,0,1,22,15.85,20.47,20.47,0,0,1,24.25,19l-.3.3-.41.41-.29.3-.3-.18-.29,1.06a6.45,6.45,0,0,1,1,1.54L30,21.94H30c.82,0,2.05,1.28,2.05,1.28l-6.31,2.12.4.84h0l-.84-.4-2.12,6.31s-1.33-1.28-1.28-2.1c0-.46.52-6.34.52-6.34a6.45,6.45,0,0,1-1.54-1L19.86,23l.18.3-.3.29-.41.41-.3.3A20.47,20.47,0,0,1,15.85,22a11,11,0,0,1-1.66-2.31l.56-.58L14.8,19h0l.06-.06.58-.56.3.17.33-.36a13.35,13.35,0,0,1-2-1.44L11.7,19.68a3.12,3.12,0,0,1,.45.77,3.41,3.41,0,0,1-.72-.41L9.8,22.94a3,3,0,0,1,.39.69,3.15,3.15,0,0,1-.57-.31L8.38,26.94a3.16,3.16,0,0,1,.49.81,3.08,3.08,0,0,1-.64-.35l-1.6,4.69.43,1.41L6.55,33,5.46,31.13l3-20.06L3.74,6.41A7.39,7.39,0,0,1,1.5,1.5h0m0-.79a.81.81,0,0,0-.8.78A8.24,8.24,0,0,0,3.19,7l4.38,4.38L4.68,31a.75.75,0,0,0,.1.51l1.09,1.85a.61.61,0,0,0,.12.16l.52.52a.78.78,0,0,0,.55.23.87.87,0,0,0,.41-.11.81.81,0,0,0,.35-.91L7.46,32.1l1.22-3.58.19,0a.78.78,0,0,0,.55-.23.82.82,0,0,0,.19-.84,5.12,5.12,0,0,0-.35-.66l.82-2.4h.11a.79.79,0,0,0,.74-1.07s-.08-.2-.21-.44l1-1.79.15.07a.86.86,0,0,0,.27,0,.79.79,0,0,0,.74-1.07,3.31,3.31,0,0,0-.21-.43l1.56-1.86.35.27-.26.25-.06.06-.09.09-.57.59a.82.82,0,0,0-.12.91,11.29,11.29,0,0,0,1.8,2.5,21.38,21.38,0,0,0,3.34,2.38A.83.83,0,0,0,19,25a.8.8,0,0,0,.56-.23l.3-.3.4-.41.3-.3a.59.59,0,0,0,.17-.25,8.22,8.22,0,0,0,.87.56c-.12,1.46-.45,5.44-.48,5.83-.07,1.1,1.15,2.35,1.52,2.71a.77.77,0,0,0,.55.22.65.65,0,0,0,.19,0,.8.8,0,0,0,.56-.51l1.83-5.47,0,0a.71.71,0,0,0,.34.08.79.79,0,0,0,.56-.23.78.78,0,0,0,.15-.9l0,0L32.34,24a.8.8,0,0,0,.51-.56.78.78,0,0,0-.2-.74c-.34-.35-1.54-1.52-2.61-1.52h-.1l-5.83.48a8.22,8.22,0,0,0-.56-.87.59.59,0,0,0,.25-.17l.3-.3.41-.4.3-.3a.8.8,0,0,0,.12-1,21.38,21.38,0,0,0-2.38-3.34,11.29,11.29,0,0,0-2.5-1.8.81.81,0,0,0-.37-.09.8.8,0,0,0-.54.21l-.59.58-.06.06-.09.08-.25.26-.27-.35,1.86-1.56a3.31,3.31,0,0,0,.43.21.92.92,0,0,0,.28,0,.78.78,0,0,0,.74-1.06l-.07-.15,1.79-1c.24.13.42.2.44.21a.69.69,0,0,0,.28.05.79.79,0,0,0,.56-.23.77.77,0,0,0,.22-.67l2.4-.82a5.12,5.12,0,0,0,.66.35.92.92,0,0,0,.28.05.76.76,0,0,0,.56-.24.81.81,0,0,0,.21-.74L32.1,7.46l1.17.36a.85.85,0,0,0,.23,0,.78.78,0,0,0,.56-1.34L33.54,6a.61.61,0,0,0-.16-.12L31.53,4.78a.8.8,0,0,0-.4-.11H31L11.35,7.57,9,5.24,7,3.19A8.18,8.18,0,0,0,1.51.71Z"/><path class="cls-3" d="M15.76,18.57l-.29-.17-.58.56-.06.06h0l-.05.06-.56.58.16.3Z"/><path class="cls-2" d="M2.85,4.51a2.94,2.94,0,0,0,.47,1,2.1,2.1,0,0,0,.29-.09,3.91,3.91,0,0,1-.24-.74Z"/><path class="cls-2" d="M2.79,4.25l.54.14a1,1,0,0,1,.18-.77l-.68-.68A3.15,3.15,0,0,0,2.79,4.25Z"/><path class="cls-3" d="M18.57,15.76l-.17-.29.56-.58.06-.06h0v0l.06-.05.58-.56.3.16Z"/><path class="cls-2" d="M4.39,3.33l-.14-.54a3.15,3.15,0,0,0-1.31,0l.68.68A1,1,0,0,1,4.39,3.33Z"/><path class="cls-2" d="M4.51,2.85l.13.52a3.91,3.91,0,0,1,.74.24,2.1,2.1,0,0,0,.09-.29A2.94,2.94,0,0,0,4.51,2.85Z"/></svg>