<svg id="Layer_1" data-name="Layer 1" xmlns="http://www.w3.org/2000/svg" viewBox="0 0 26.64 30"><defs><style>.cls-1{fill:#3bb5f2;}</style></defs><title>perechute</title><path class="cls-1" d="M25.32,11.78a12.16,12.16,0,0,0-24,0,.62.62,0,0,0,.11.26L12.31,25.52a1.63,1.63,0,1,0,2,0L25.21,12h0A.57.57,0,0,0,25.32,11.78Zm-12-.42a4.83,4.83,0,0,1,4.25,2.54L13.83,25.24a1.7,1.7,0,0,0-.51-.08,1.64,1.64,0,0,0-.5.08L9.07,13.9A4.83,4.83,0,0,1,13.32,11.36Zm-11.14.35A5,5,0,0,1,4,11.36a4.85,4.85,0,0,1,4.22,2.47l4.51,11.44a1.23,1.23,0,0,0-.37.21ZM13.92,25.27l4.51-11.44a4.83,4.83,0,0,1,4.21-2.47,5,5,0,0,1,1.82.35L14.28,25.48A1.31,1.31,0,0,0,13.92,25.27Z"/></svg>