<svg id="Layer_1" data-name="Layer 1" xmlns="http://www.w3.org/2000/svg" viewBox="0 0 35 37"><defs><style>.cls-1{fill:#6ad6ef;}.cls-2{fill:#596b6a;}.cls-3{fill:none;stroke:#90c9e0;stroke-miterlimit:10;stroke-width:0.4px;}</style></defs><title>peten copy</title><path class="cls-1" d="M32,33.33a4.59,4.59,0,0,1-1.89-1l-2.61-2.61L25.17,32a.36.36,0,0,1-.5,0l-1.11-1.11a.35.35,0,0,1,0-.5l2.11-2.1-8.55-6.45-.2,0a.85.85,0,0,1-.61-.25l-3.83-3.82a10.06,10.06,0,0,1-2.25-3.06,16.87,16.87,0,0,1-.6-1.61C9.31,12.68,8.16,10.85,9,10a1.1,1.1,0,0,1,.81-.31,5.14,5.14,0,0,1,2.32.93,16.87,16.87,0,0,1,1.61.6,9,9,0,0,1,2.43,1.66.84.84,0,0,1,.22-.82l.1-.11a.85.85,0,0,1,.6-.24.83.83,0,0,1,.6.24l.94.94A2,2,0,0,1,19.15,14a.55.55,0,0,1-.15.42l-.11.1a.57.57,0,0,1-.42.16,1.54,1.54,0,0,1-.59-.16l2.67,2.67a.89.89,0,0,1,.23.82l6.52,8.62,2.11-2.11a.39.39,0,0,1,.25-.1.35.35,0,0,1,.24.1L31,25.67a.37.37,0,0,1,0,.5L28.7,28.48l2.62,2.61a4.72,4.72,0,0,1,1,1.89A.35.35,0,0,1,32,33.33Z"/><path class="cls-2" d="M9.82,10.06A5.19,5.19,0,0,1,12,11s1,.33,1.62.6a9.48,9.48,0,0,1,2.8,2l.4-.41L16.65,13a.48.48,0,0,1,0-.7l.1-.11a.52.52,0,0,1,.71,0l.93.94c.2.2.55.87.36,1.06l-.11.1a.22.22,0,0,1-.17.06,1.72,1.72,0,0,1-.88-.41l-.25-.24-.4.4L19.79,17l.52.51a.63.63,0,0,1,.09.64l6.86,9.08,2.4-2.39,1.11,1.11-2.55,2.55.08.1,2.77,2.77A4.73,4.73,0,0,1,32,33h0a4.73,4.73,0,0,1-1.64-.91L27.57,29.3l-.1-.08-2.55,2.55-1.11-1.11,2.39-2.39-9-6.8a.78.78,0,0,1-.27.05.49.49,0,0,1-.36-.14L16,20.86l-3.31-3.3a9.7,9.7,0,0,1-2.18-2.95A16.87,16.87,0,0,1,10,13s-1.41-2-.7-2.73h0a.77.77,0,0,1,.57-.2m0-.71v0a1.42,1.42,0,0,0-1.06.41c-1,1,.09,2.86.55,3.54.09.28.36,1.07.6,1.6a10.42,10.42,0,0,0,2.32,3.16l1.42,1.41,1.89,1.89.31.31.21.21a1.22,1.22,0,0,0,.86.35H17l8.11,6.12-1.82,1.82a.7.7,0,0,0-.2.5.74.74,0,0,0,.2.5l1.11,1.11a.73.73,0,0,0,1,0l2.06-2.06,2.36,2.36a5.24,5.24,0,0,0,1.94,1.08.69.69,0,0,0,.2,0,.71.71,0,0,0,.49-.2.7.7,0,0,0,.19-.68,5.26,5.26,0,0,0-1.1-2L29.2,28.48l2.06-2.06a.69.69,0,0,0,0-1l-1.11-1.11a.69.69,0,0,0-1,0l-1.82,1.81L21.15,18a1.21,1.21,0,0,0-.35-1l-.52-.52-1.11-1.11L18.83,15a.83.83,0,0,0,.31-.2l.1-.1c.65-.64,0-1.75-.35-2.06L18,11.72a1.18,1.18,0,0,0-.85-.36,1.2,1.2,0,0,0-.85.36l-.1.1a1.15,1.15,0,0,0-.25.37,8.93,8.93,0,0,0-2-1.28c-.53-.24-1.33-.51-1.6-.6a5.45,5.45,0,0,0-2.48-1Z"/><path class="cls-2" d="M11.85,16.6l.63,0-.39-.92L11,15.49A9.09,9.09,0,0,0,11.85,16.6Z"/><path class="cls-2" d="M14.49,12l.15,1.07.93.39,0-.64A9.09,9.09,0,0,0,14.49,12Z"/><path class="cls-2" d="M12.06,10.87s-2.17-1.51-2.94-.74h0c-.76.76.75,2.93.75,2.93v0l2.22-2.22Z"/><path class="cls-2" d="M11.71,12.93h-.49a2.6,2.6,0,0,0-.11,2.37l1,.15A8,8,0,0,1,12.76,14Z"/><path class="cls-2" d="M11.92,12.22v.49l1.06,1a7.69,7.69,0,0,1,1.46-.65l-.15-1A2.6,2.6,0,0,0,11.92,12.22Z"/><path class="cls-2" d="M18.14,15.84,19.9,17.6l.27-.27L19.8,17l-1.49-1.49Z"/><path class="cls-2" d="M14.47,19.32,16,20.89l.3.3.27-.27-1.76-1.77Z"/><circle class="cls-2" cx="17.5" cy="18.5" r="0.82"/><polygon class="cls-2" points="16.84 18.63 14.65 19.67 13.87 19.86 3.27 25.09 3 25.62 3.24 26.1 3.67 26.08 14.38 20.82 14.86 19.95 16.98 18.91 16.84 18.63"/><polygon class="cls-2" points="18.13 18.36 20.32 17.32 21.1 17.13 31.69 11.9 31.97 11.37 31.73 10.89 31.3 10.91 20.59 16.17 20.1 17.04 17.99 18.08 18.13 18.36"/><polygon class="cls-2" points="17.62 19.14 18.66 21.33 18.85 22.11 24.07 32.71 24.61 32.98 25.09 32.74 25.07 32.31 19.81 21.61 18.94 21.12 17.9 19 17.62 19.14"/><polygon class="cls-2" points="17.35 17.85 16.31 15.66 16.12 14.88 10.89 4.29 10.36 4.01 9.88 4.25 9.9 4.68 15.16 15.39 16.03 15.88 17.07 17.99 17.35 17.85"/><circle class="cls-3" cx="17.5" cy="18.5" r="16"/></svg>