<svg id="Layer_1" data-name="Layer 1" xmlns="http://www.w3.org/2000/svg" viewBox="0 0 35 37"><defs><style>.cls-1{fill:#ede2b2;}.cls-2,.cls-4{fill:#596b6a;}.cls-3{fill:#dbcf9e;}.cls-4{stroke:#596b6a;stroke-width:0.28px;}.cls-4,.cls-5{stroke-miterlimit:10;}.cls-5{fill:none;stroke:#ede2b2;stroke-width:0.4px;}</style></defs><title>peten</title><path class="cls-1" d="M28.93,34.9a.37.37,0,0,1-.17,0,6.44,6.44,0,0,1-1.13-.77,1,1,0,0,1-.31-.91A.35.35,0,0,1,27.4,33l1.79-2-9.31-8.38-1.44.71a.37.37,0,0,1-.15,0,.47.47,0,0,1-.16,0,3.41,3.41,0,0,1-.66-.49l-2.26-2.24-1.79,1.48a.3.3,0,0,1-.22.08A.35.35,0,0,1,13,22l-1.51-1.54,0,0-.62-.63a.48.48,0,0,1-.14-.34.48.48,0,0,1,.49-.49.45.45,0,0,1,.34.15l.41.39L12.3,19l-.38-.38a.49.49,0,0,1,0-.69.5.5,0,0,1,.35-.14.48.48,0,0,1,.34.14l.34.34.44-.49-3.3-3.35-1-1.17a4.6,4.6,0,0,1-.42-.5,2,2,0,0,1-.36-1.71,1.08,1.08,0,0,1-.13-.71L8,9.2H8a.36.36,0,0,1,0-.49l.2-.2a.35.35,0,0,1,.24-.1.31.31,0,0,1,.24.1h0l1.18.24H10a1.1,1.1,0,0,1,.53.14A1.52,1.52,0,0,1,11,8.82a2.17,2.17,0,0,1,1.25.44,4.14,4.14,0,0,1,.53.43l1.12.93L17.26,14l.5-.44-.34-.34a.54.54,0,0,1-.15-.35.49.49,0,0,1,.15-.34.45.45,0,0,1,.34-.15.47.47,0,0,1,.35.15l.38.37.48-.43-.4-.4a.49.49,0,0,1,.35-.84.48.48,0,0,1,.34.14l.62.63.06,0,1.54,1.52a.36.36,0,0,1,0,.47L20,15.76,22.25,18a3.41,3.41,0,0,1,.49.66.4.4,0,0,1,0,.32L22,20.43l8.37,9.32L32.46,28a.3.3,0,0,1,.16-.08h.14a1.07,1.07,0,0,1,.76.32,6.26,6.26,0,0,1,.78,1.14.33.33,0,0,1,0,.38l-1.94,2.49.18.18a.35.35,0,0,1,.1.24.33.33,0,0,1-.1.25l-.2.2a.36.36,0,0,1-.25.11h0a.36.36,0,0,1-.24-.11l-.18-.18-2.5,1.95A.38.38,0,0,1,28.93,34.9Z"/><path class="cls-2" d="M8.4,8.76l.08.08,1.35.28a.5.5,0,0,1,.18,0,.67.67,0,0,1,.49.21A.75.75,0,0,1,11,9.17a1.8,1.8,0,0,1,1,.37,3.35,3.35,0,0,1,.48.4l1.15,1,3.58,3.53,1-.9-.6-.6a.15.15,0,0,1,0-.2.14.14,0,0,1,.1,0,.15.15,0,0,1,.11,0l.6.61,1-.9-.66-.66a.15.15,0,0,1,0-.2.15.15,0,0,1,.11,0,.14.14,0,0,1,.1,0l.67.67h0l1.54,1.51-1.68,2L22,18.27a2.77,2.77,0,0,1,.43.58l-.81,1.64,8.76,9.74,2.3-2h.07a.73.73,0,0,1,.52.23A6.29,6.29,0,0,1,34,29.49l-2,2.51-.32-.32-.2.21.74.73-.21.2-.73-.74-.2.2.31.32-2.51,1.95a6.34,6.34,0,0,1-1.05-.72.66.66,0,0,1-.22-.59l2-2.3-9.74-8.76L18.29,23a2.77,2.77,0,0,1-.58-.43c-.23-.23-1.94-1.91-2.48-2.46l-2,1.69-1.52-1.54h0L11,19.57a.13.13,0,0,1,0-.2.12.12,0,0,1,.1,0,.14.14,0,0,1,.1,0l.66.66.89-1-.6-.61a.13.13,0,0,1,0-.2.12.12,0,0,1,.1,0,.14.14,0,0,1,.1,0l.6.59.9-1-3.54-3.57-.95-1.15A4.94,4.94,0,0,1,9,12.6c-.55-.78-.37-1.42-.25-1.54a.74.74,0,0,1-.18-.68L8.29,9,8.2,9l.2-.19m0-.69a.67.67,0,0,0-.49.2l-.19.19a.69.69,0,0,0-.07.9l.21,1a1.32,1.32,0,0,0,.11.74A2.38,2.38,0,0,0,8.42,13a4.86,4.86,0,0,0,.45.55l.93,1.13,0,0,2.85,2.89a.76.76,0,0,0-.42-.12.83.83,0,0,0-.59.25.8.8,0,0,0-.25.59.84.84,0,0,0,.13.44.84.84,0,0,0-.44-.13.8.8,0,0,0-.59.25.83.83,0,0,0,0,1.18l.6.6.06.07,1.52,1.54a.67.67,0,0,0,.49.21.72.72,0,0,0,.44-.16L15.19,21l.9.89,1.14,1.12a3.45,3.45,0,0,0,.74.55.72.72,0,0,0,.32.08.67.67,0,0,0,.31-.07l1.22-.6,8.89,8-1.57,1.79a.62.62,0,0,0-.16.31,1.39,1.39,0,0,0,.41,1.22,6.73,6.73,0,0,0,1.2.84.71.71,0,0,0,.34.08.69.69,0,0,0,.43-.14l2.25-1.76a.7.7,0,0,0,.45.17h0a.68.68,0,0,0,.49-.2l.2-.21a.69.69,0,0,0,.21-.49.66.66,0,0,0-.17-.44l1.76-2.26a.68.68,0,0,0,.05-.76,7.12,7.12,0,0,0-.83-1.21,1.44,1.44,0,0,0-1-.43l-.21,0a.74.74,0,0,0-.32.16l-1.79,1.57-8-8.89.61-1.22a.73.73,0,0,0,0-.63,3.88,3.88,0,0,0-.55-.74l-1.13-1.14-.89-.9,1.28-1.54a.7.7,0,0,0,0-.94l-1.54-1.52-.07-.06-.6-.6a.82.82,0,0,0-.59-.24.79.79,0,0,0-.59.24.83.83,0,0,0-.12,1,.79.79,0,0,0-.45-.13.82.82,0,0,0-.59.24.87.87,0,0,0-.13,1l-2.88-2.86-.05,0L13,9.42A4.13,4.13,0,0,0,12.44,9,2.47,2.47,0,0,0,11,8.48a1.87,1.87,0,0,0-.42,0A1.34,1.34,0,0,0,10,8.4H9.84l-1-.21a.69.69,0,0,0-.41-.13Z"/><path class="cls-3" d="M17.25,13.93l-3.6-3.36-1.14-1A4.94,4.94,0,0,0,12,9.23a2,2,0,0,0-.82-.36,7.41,7.41,0,0,1,0,3,13.72,13.72,0,0,1-1.66,1.61l.68.83,3.23,3.32-1,.4-1.06.78c.09-.4-.44.21-.5.26s-.41.4-.35.45l.83.74.29,0L13.18,22l1.94-1.61c.14.14.41.2.66.45.12-.1.3-.31.4-.41.95-1,1.7-4.32,1.87-6.92Z"/><path class="cls-3" d="M18.12,13.22V13l-.25-.25a.15.15,0,0,0-.21,0,.15.15,0,0,0,0,.2l.45.45A.76.76,0,0,1,18.12,13.22Z"/><path class="cls-3" d="M22.55,18.66a2.64,2.64,0,0,0-.41-.55,6.44,6.44,0,0,0-1.53,1.69A11.64,11.64,0,0,0,20,22.61l6.23,5.6.34-.34.86-1.15-5.24-6.17Z"/><rect class="cls-2" x="29.14" y="28.49" width="0.26" height="7.61" transform="translate(-14.26 30.15) rotate(-45)"/><rect class="cls-2" x="28.76" y="28.86" width="0.26" height="7.61" transform="translate(-14.64 30) rotate(-45)"/><rect class="cls-2" x="7.29" y="8.34" width="2.64" height="1.61" rx="0.24" ry="0.24" transform="translate(-3.94 8.77) rotate(-45)"/><path class="cls-2" d="M9.83,9.12,8.48,8.84,8.4,8.76,8.2,9,8.29,9l.27,1.35a.79.79,0,0,0,0,.45l1.69-1.68A.7.7,0,0,0,9.83,9.12Z"/><path class="cls-2" d="M18.5,15.53a1.7,1.7,0,0,0-.25-.38,1.38,1.38,0,0,0-.37-.23l-.41.41a1.24,1.24,0,0,0,.22.38,1.93,1.93,0,0,0,.38.24Z"/><polygon class="cls-4" points="21.36 20.09 21.82 20.29 22.03 19.84 22.12 19.88 22.31 19.46 22.42 19.51 22.61 19.09 22.08 18.85 21.68 18.46 21.06 19.79 21.36 20.09"/><path class="cls-2" d="M15,19.05a1.68,1.68,0,0,1-.39-.25,1.37,1.37,0,0,1-.22-.37l.41-.41a1.38,1.38,0,0,1,.37.23,1.7,1.7,0,0,1,.25.38Z"/><polygon class="cls-4" points="19.54 21.91 19.74 22.37 19.28 22.58 19.32 22.68 18.91 22.86 18.96 22.98 18.54 23.17 18.3 22.63 17.9 22.24 19.24 21.61 19.54 21.91"/><polygon class="cls-2" points="11.21 10.63 11.03 10.3 10.4 10.93 9.77 11.56 10.1 11.74 11.21 10.63"/><polygon class="cls-2" points="11.77 14.14 12.98 15.2 13.78 15.5 13.9 15.38 12.12 13.61 11.77 14.14"/><polygon class="cls-2" points="11.96 13.47 10.03 11.89 9.64 11.69 9.48 11.85 10.34 12.71 11.73 13.81 11.96 13.47"/><polygon class="cls-2" points="13.08 12.65 14.85 14.43 14.97 14.31 14.67 13.51 13.61 12.3 13.08 12.65"/><polygon class="cls-2" points="11.15 10.18 11.36 10.56 12.94 12.49 13.28 12.27 12.17 10.87 11.32 10.01 11.15 10.18"/><polygon class="cls-2" points="12.65 13.05 12.52 13.18 12.23 13.47 13.46 14.7 13.81 14.35 14.17 13.99 12.94 12.76 12.65 13.05"/><polygon class="cls-2" points="12.37 13.04 12.37 13.04 12.44 12.97 12.51 12.9 12.51 12.9 12.81 12.6 11.32 10.79 10.26 11.85 12.07 13.34 12.37 13.04"/><circle class="cls-2" cx="16.16" cy="16.71" r="0.88"/><rect class="cls-2" x="13.26" y="16.58" width="5.8" height="0.27" transform="translate(8.68 38.72) rotate(-117.2)"/><polygon class="cls-2" points="15.35 15.44 9.57 4.2 10.36 3.79 15.59 13.96 15.35 15.44"/><polygon class="cls-2" points="9.57 4.2 10.36 3.79 10.17 2.79 9.39 3.19 9.57 4.2"/><polygon class="cls-2" points="16.97 17.99 22.74 29.23 21.96 29.63 16.73 19.46 16.97 17.99"/><polygon class="cls-2" points="22.74 29.23 21.96 29.63 22.15 30.64 22.93 30.24 22.74 29.23"/><rect class="cls-2" x="13.26" y="16.58" width="5.8" height="0.27" transform="translate(38.17 24.19) rotate(152.8)"/><polygon class="cls-2" points="3.64 23.3 3.24 22.51 2.23 22.7 2.64 23.48 3.64 23.3"/><polygon class="cls-2" points="14.88 17.52 3.64 23.3 3.24 22.51 13.41 17.29 14.88 17.52"/><polygon class="cls-2" points="28.68 10.13 29.08 10.91 30.09 10.73 29.68 9.94 28.68 10.13"/><polygon class="cls-2" points="17.44 15.9 28.68 10.13 29.08 10.91 18.91 16.14 17.44 15.9"/><polygon class="cls-2" points="17.23 18.51 16.85 17.11 16.08 17.5 17 18.63 17.23 18.51"/><polygon class="cls-2" points="15.08 14.92 15.47 16.31 16.23 15.92 15.32 14.79 15.08 14.92"/><polygon class="cls-2" points="17.96 15.64 16.56 16.03 16.95 16.79 18.08 15.88 17.96 15.64"/><polygon class="cls-2" points="14.36 17.79 15.76 17.4 15.37 16.64 14.24 17.55 14.36 17.79"/><path class="cls-2" d="M8.4,8.76l.08.08,1.35.28a.5.5,0,0,1,.18,0,.67.67,0,0,1,.49.21A.75.75,0,0,1,11,9.17a1.8,1.8,0,0,1,1,.37,3.35,3.35,0,0,1,.48.4l1.15,1,3.58,3.53,1-.9-.6-.6a.15.15,0,0,1,0-.2.14.14,0,0,1,.1,0,.15.15,0,0,1,.11,0l.6.61,1-.9-.66-.66a.15.15,0,0,1,0-.2.15.15,0,0,1,.11,0,.14.14,0,0,1,.1,0l.67.67h0l1.54,1.51-1.68,2L22,18.27a2.77,2.77,0,0,1,.43.58l-.81,1.64,8.76,9.74,2.3-2h.07a.73.73,0,0,1,.52.23A6.29,6.29,0,0,1,34,29.49l-2,2.51-.32-.32-.2.21.74.73-.21.2-.73-.74-.2.2.31.32-2.51,1.95a6.34,6.34,0,0,1-1.05-.72.66.66,0,0,1-.22-.59l2-2.3-9.74-8.76L18.29,23a2.77,2.77,0,0,1-.58-.43c-.23-.23-1.94-1.91-2.48-2.46l-2,1.69-1.52-1.54h0L11,19.57a.13.13,0,0,1,0-.2.12.12,0,0,1,.1,0,.14.14,0,0,1,.1,0l.66.66.89-1-.6-.61a.13.13,0,0,1,0-.2.12.12,0,0,1,.1,0,.14.14,0,0,1,.1,0l.6.59.9-1-3.54-3.57-.95-1.15A4.94,4.94,0,0,1,9,12.6c-.55-.78-.37-1.42-.25-1.54a.74.74,0,0,1-.18-.68L8.29,9,8.2,9l.2-.19m0-.69a.67.67,0,0,0-.49.2l-.19.19a.69.69,0,0,0-.07.9l.21,1a1.32,1.32,0,0,0,.11.74A2.38,2.38,0,0,0,8.42,13a4.86,4.86,0,0,0,.45.55l.93,1.13,0,0,2.85,2.89a.76.76,0,0,0-.42-.12.83.83,0,0,0-.59.25.8.8,0,0,0-.25.59.84.84,0,0,0,.13.44.84.84,0,0,0-.44-.13.8.8,0,0,0-.59.25.83.83,0,0,0,0,1.18l.6.6.06.07,1.52,1.54a.67.67,0,0,0,.49.21.72.72,0,0,0,.44-.16L15.19,21l.9.89,1.14,1.12a3.45,3.45,0,0,0,.74.55.72.72,0,0,0,.32.08.67.67,0,0,0,.31-.07l1.22-.6,8.89,8-1.57,1.79a.62.62,0,0,0-.16.31,1.39,1.39,0,0,0,.41,1.22,6.73,6.73,0,0,0,1.2.84.71.71,0,0,0,.34.08.69.69,0,0,0,.43-.14l2.25-1.76a.7.7,0,0,0,.45.17h0a.68.68,0,0,0,.49-.2l.2-.21a.69.69,0,0,0,.21-.49.66.66,0,0,0-.17-.44l1.76-2.26a.68.68,0,0,0,.05-.76,7.12,7.12,0,0,0-.83-1.21,1.44,1.44,0,0,0-1-.43l-.21,0a.74.74,0,0,0-.32.16l-1.79,1.57-8-8.89.61-1.22a.73.73,0,0,0,0-.63,3.88,3.88,0,0,0-.55-.74l-1.13-1.14-.89-.9,1.28-1.54a.7.7,0,0,0,0-.94l-1.54-1.52-.07-.06-.6-.6a.82.82,0,0,0-.59-.24.79.79,0,0,0-.59.24.83.83,0,0,0-.12,1,.79.79,0,0,0-.45-.13.82.82,0,0,0-.59.24.87.87,0,0,0-.13,1l-2.88-2.86-.05,0L13,9.42A4.13,4.13,0,0,0,12.44,9,2.47,2.47,0,0,0,11,8.48a1.87,1.87,0,0,0-.42,0A1.34,1.34,0,0,0,10,8.4H9.84l-1-.21a.69.69,0,0,0-.41-.13Z"/><circle class="cls-5" cx="16.14" cy="16.7" r="15.14"/></svg>