<svg id="Layer_1" data-name="Layer 1" xmlns="http://www.w3.org/2000/svg" viewBox="0 0 35 35"><defs><style>.cls-1{fill:#ede2b2;}.cls-2{fill:#596b6a;}.cls-3{fill:#dbcf9e;}.cls-4{fill:#c8eab2;}.cls-5{fill:#cae0e0;}</style></defs><title>raam</title><path class="cls-1" d="M23.55,34.12l-1.84-.28a1.31,1.31,0,0,1-1-1.13c0-.33-.33-4.27-.37-4.72a.43.43,0,0,1,.25-.42.32.32,0,0,1,.16,0v-.39l-1.3-.92-2,2L15.6,31.48a.44.44,0,0,1-.38.22h-.09c-.09,0-2.33-.52-2.74-.64a1.34,1.34,0,0,1-1-1.4c0-.56-.22-10.14-.26-11.61l-.75-.76a7.64,7.64,0,0,1-2-3.76L7.2,12.35a3.26,3.26,0,0,1-.68-1,.41.41,0,0,1,.09-.46l.78-.78L5.14,7.88A18.28,18.28,0,0,1,.9,1.44.41.41,0,0,1,1,1,.44.44,0,0,1,1.31.87a.31.31,0,0,1,.13,0A18.28,18.28,0,0,1,7.88,5.14l2.24,2.25.78-.78a.43.43,0,0,1,.3-.13.29.29,0,0,1,.16,0,3.14,3.14,0,0,1,1,.68c.34.34.94,1,1.17,1.21a7.74,7.74,0,0,1,3.77,2l.75.75,11.61.26a1.33,1.33,0,0,1,1.4,1c.12.41.62,2.65.64,2.74a.43.43,0,0,1-.22.47l-3.21,1.77-2,2,.92,1.3h.39a.32.32,0,0,1,0-.16A.43.43,0,0,1,28,20.3h0c.45,0,4.39.33,4.72.37a1.31,1.31,0,0,1,1.13,1l.28,1.84a.42.42,0,0,1-.22.44l-3.49,1.86a.41.41,0,0,1-.21,0,.45.45,0,0,1-.16,0l-1.78-.74L27,26.43a.44.44,0,0,1-.31.13l-.11,0a.43.43,0,0,1-.11.42l-1.3,1.3L25.87,30a.44.44,0,0,1,0,.37L24,33.9a.43.43,0,0,1-.38.23Z"/><path class="cls-2" d="M1.31,1.31A18.05,18.05,0,0,1,7.57,5.45L10.12,8,11.2,6.92a2.74,2.74,0,0,1,.84.59c.43.43,1.27,1.31,1.27,1.31A7.1,7.1,0,0,1,17,10.73l.88.88,11.77.27c.59,0,.88.22,1,.63s.64,2.71.64,2.71L28,17l-2.35,2.35,1.27,1.77h1.45L28,20.73s4.37.33,4.69.37a.87.87,0,0,1,.76.68c.06.38.28,1.83.28,1.83L30.2,25.47l-2.3-1,.08.29-1.33,1.32-.2-.08-.25.16-.16.25.08.2L24.8,28l-.29-.08,1,2.3-1.86,3.49-1.83-.28a.87.87,0,0,1-.68-.76c0-.32-.37-4.69-.37-4.69l.41.41V26.92l-1.77-1.27L17,28l-1.8,3.27s-2.3-.51-2.71-.64-.61-.41-.63-1-.27-11.77-.27-11.77L10.73,17a7.1,7.1,0,0,1-1.91-3.67S7.94,12.47,7.51,12a2.74,2.74,0,0,1-.59-.84L8,10.12,5.45,7.57A18.05,18.05,0,0,1,1.31,1.31m0-.87A.9.9,0,0,0,.69.69a.86.86,0,0,0-.2.89,18.59,18.59,0,0,0,4.35,6.6l1.94,1.94-.47.47a.88.88,0,0,0-.2.94,4,4,0,0,0,.79,1.12c.3.31.83.82,1.12,1.09a8,8,0,0,0,2.1,3.85l.63.63c.05,1.93.24,10.9.26,11.44a1.73,1.73,0,0,0,1.25,1.8c.43.13,2.54.6,2.78.65a.55.55,0,0,0,.18,0,.86.86,0,0,0,.76-.45l1.74-3.15,1.74-1.75.72.52a.85.85,0,0,0-.31.72c.06.74.33,4.41.37,4.74a1.71,1.71,0,0,0,1.4,1.5l1.84.29h.13a.87.87,0,0,0,.77-.46l1.85-3.49a.84.84,0,0,0,0-.74l-.63-1.51,1.1-1.09a.94.94,0,0,0,.2-.33.94.94,0,0,0,.33-.2l1.09-1.1,1.51.63a1,1,0,0,0,.33.07.87.87,0,0,0,.41-.11l3.49-1.85a.87.87,0,0,0,.45-.9s-.22-1.45-.29-1.84a1.71,1.71,0,0,0-1.5-1.4c-.33,0-4-.31-4.74-.37H28a.83.83,0,0,0-.66.31l-.52-.72,1.75-1.74L31.68,16a.86.86,0,0,0,.43-.94c0-.24-.52-2.35-.65-2.78A1.73,1.73,0,0,0,29.66,11l-11.44-.26-.63-.63A8,8,0,0,0,13.74,8c-.27-.29-.78-.82-1.09-1.12a4,4,0,0,0-1.12-.79,1,1,0,0,0-.33-.06.87.87,0,0,0-.61.26l-.47.47L8.18,4.84A18.59,18.59,0,0,0,1.58.49a.65.65,0,0,0-.27,0Z"/><path class="cls-3" d="M17,10.73a7.13,7.13,0,0,0-3.22-1.81c.23,1.46.45,3.45.08,4S11.63,15,10.19,16.36a6.14,6.14,0,0,0,.54.62l.88.88s.25,11.18.27,11.77.22.88.63,1,2.71.64,2.71.64l1-1.78a5,5,0,0,1-.32-2.43c.28-2.08,2.65-2.9,3.83-4.08s2.17-5.35,2.29-8.49a8.56,8.56,0,0,0-.47-2.8l-3.67-.08Z"/><path class="cls-4" d="M30.63,12.51c-.12-.41-.41-.61-1-.63l-3.37-.08a2.76,2.76,0,0,0,0,.81A6.48,6.48,0,0,0,28.12,16c.14.11.42.3.74.51l2.41-1.33S30.76,12.92,30.63,12.51Z"/><path class="cls-3" d="M26.65,26.12,28,24.8l-.08-.29,2.3,1,3.49-1.86s-.22-1.45-.28-1.83a.87.87,0,0,0-.76-.68c-.32,0-4.69-.37-4.69-.37l.41.41H26.92l-.42-.58a5.93,5.93,0,0,0-1.56,1.69c-.61,1.18-.25,3.18-1,4.36a32.79,32.79,0,0,1-3,4c.08,1,.15,1.92.17,2.06a.87.87,0,0,0,.68.76l1.83.28,1.86-3.49-1-2.3.29.08,1.32-1.33-.08-.2.16-.25.25-.16Z"/><polygon class="cls-2" points="26.07 26.48 26.15 26.69 24.81 28.03 24.52 27.94 23.37 27.01 25.06 25.33 26.07 26.48"/><polygon class="cls-2" points="26.48 26.07 26.69 26.15 28.03 24.81 27.95 24.52 27.01 23.37 25.33 25.05 26.48 26.07"/><path class="cls-2" d="M8.18,7l-.47-.47C7.2,6,6.63,6,6.31,6.31s-.33.89.18,1.4L7,8.18Z"/><path class="cls-2" d="M9.2,10.43l.53.53c1.41,1.41,2,.79,2,.79s.62-.61-.79-2l-.53-.53Z"/><path class="cls-2" d="M10.31,9.08l-2-2L7.08,8.31l2,2Z"/><path class="cls-5" d="M5.91,4a17.11,17.11,0,0,0-4.6-2.66A17.11,17.11,0,0,0,4,5.91Z"/><path class="cls-2" d="M1.31,1.31A18.05,18.05,0,0,1,7.57,5.45L10.12,8,11.2,6.92a2.74,2.74,0,0,1,.84.59c.43.43,1.27,1.31,1.27,1.31A7.1,7.1,0,0,1,17,10.73l.88.88,11.77.27c.59,0,.88.22,1,.63s.64,2.71.64,2.71L28,17l-2.35,2.35,1.27,1.77h1.45L28,20.73s4.37.33,4.69.37a.87.87,0,0,1,.76.68c.06.38.28,1.83.28,1.83L30.2,25.47l-2.3-1,.08.29-1.33,1.32-.2-.08-.25.16-.16.25.08.2L24.8,28l-.29-.08,1,2.3-1.86,3.49-1.83-.28a.87.87,0,0,1-.68-.76c0-.32-.37-4.69-.37-4.69l.41.41V26.92l-1.77-1.27L17,28l-1.8,3.27s-2.3-.51-2.71-.64-.61-.41-.63-1-.27-11.77-.27-11.77L10.73,17a7.1,7.1,0,0,1-1.91-3.67S7.94,12.47,7.51,12a2.74,2.74,0,0,1-.59-.84L8,10.12,5.45,7.57A18.05,18.05,0,0,1,1.31,1.31m0-.87A.9.9,0,0,0,.69.69a.86.86,0,0,0-.2.89,18.59,18.59,0,0,0,4.35,6.6l1.94,1.94-.47.47a.88.88,0,0,0-.2.94,4,4,0,0,0,.79,1.12c.3.31.83.82,1.12,1.09a8,8,0,0,0,2.1,3.85l.63.63c.05,1.93.24,10.9.26,11.44a1.73,1.73,0,0,0,1.25,1.8c.43.13,2.54.6,2.78.65a.55.55,0,0,0,.18,0,.86.86,0,0,0,.76-.45l1.74-3.15,1.74-1.75.72.52a.85.85,0,0,0-.31.72c.06.74.33,4.41.37,4.74a1.71,1.71,0,0,0,1.4,1.5l1.84.29h.13a.87.87,0,0,0,.77-.46l1.85-3.49a.84.84,0,0,0,0-.74l-.63-1.51,1.1-1.09a.94.94,0,0,0,.2-.33.94.94,0,0,0,.33-.2l1.09-1.1,1.51.63a1,1,0,0,0,.33.07.87.87,0,0,0,.41-.11l3.49-1.85a.87.87,0,0,0,.45-.9s-.22-1.45-.29-1.84a1.71,1.71,0,0,0-1.5-1.4c-.33,0-4-.31-4.74-.37H28a.83.83,0,0,0-.66.31l-.52-.72,1.75-1.74L31.68,16a.86.86,0,0,0,.43-.94c0-.24-.52-2.35-.65-2.78A1.73,1.73,0,0,0,29.66,11l-11.44-.26-.63-.63A8,8,0,0,0,13.74,8c-.27-.29-.78-.82-1.09-1.12a4,4,0,0,0-1.12-.79,1,1,0,0,0-.33-.06.87.87,0,0,0-.61.26l-.47.47L8.18,4.84A18.59,18.59,0,0,0,1.58.49a.65.65,0,0,0-.27,0Z"/></svg>