<svg id="Layer_1" data-name="Layer 1" xmlns="http://www.w3.org/2000/svg" viewBox="0 0 35 35"><defs><style>.cls-1{fill:#f2f2f2;}.cls-2{fill:#596b6a;}.cls-3{fill:#a8c1c0;}</style></defs><title>reem</title><path class="cls-1" d="M8.25,33.89A.41.41,0,0,1,8,33.81a7.24,7.24,0,0,1-1-.92,2.59,2.59,0,0,1-.77-1.66c0-.15.2-1.78.59-5.11l-.3-.26L5.52,24.79a.32.32,0,0,1-.23-.09l-.81-.81c-.37-.37-.32-.8.15-1.27a1,1,0,0,1,.67-.35.81.81,0,0,1,.58.27l.79.79a.36.36,0,0,1,.11.26l.35.35.43-3.69-.2-.18L6.29,19a.31.31,0,0,1-.22-.09l-.81-.81A.76.76,0,0,1,5,17.56a1.09,1.09,0,0,1,.4-.73,1,1,0,0,1,.67-.35.82.82,0,0,1,.58.27l.78.79a.42.42,0,0,1,.12.26l.4.41.73-6.72C8.2,11,6.41,9.12,5,7.69S.35,2.3,1.3,1.35a.74.74,0,0,1,.57-.24c1.14,0,4,2,5.82,3.87C9.12,6.41,11,8.2,11.49,8.69L18.21,8l-.41-.4a.42.42,0,0,1-.26-.12l-.79-.78c-.39-.39-.36-.81.08-1.25a1.09,1.09,0,0,1,.73-.4.76.76,0,0,1,.54.25l.81.81a.42.42,0,0,1,.12.25l1,1,.18.2,3.69-.43-.35-.35a.36.36,0,0,1-.26-.11l-.79-.79a.76.76,0,0,1-.25-.73,1.14,1.14,0,0,1,.33-.52,1.08,1.08,0,0,1,.73-.39.75.75,0,0,1,.54.24l.81.81a.42.42,0,0,1,.12.25l1,1c.1.1.2.21.29.32,3-.35,4.94-.58,5.12-.59h0a2.77,2.77,0,0,1,1.65.77,7.24,7.24,0,0,1,.92,1,.4.4,0,0,1,.07.35.39.39,0,0,1-.26.27L22.29,12.38l-3.35,2.11-.82.83,3.55,3.54A31.66,31.66,0,0,1,25,23l5.78-.55a.42.42,0,0,1,.24.07c.06,0,.67.51.88.72l.82.79a.37.37,0,0,1,.12.34.4.4,0,0,1-.22.3l-5,2.38,0,.06a.41.41,0,0,1-.08.43.43.43,0,0,1-.28.11.37.37,0,0,1-.15,0l-.06,0-2.38,5a.4.4,0,0,1-.3.22H24.3a.37.37,0,0,1-.28-.13l-.79-.82c-.21-.21-.67-.82-.72-.88a.45.45,0,0,1-.07-.28L23,25a31.66,31.66,0,0,1-4.13-3.32l-3.54-3.54-.88.88-2.1,3.37L8.63,33.62a.39.39,0,0,1-.27.26Z"/><path class="cls-2" d="M1.87,1.5c.89,0,3.57,1.79,5.54,3.76C9.08,6.93,11.35,9.1,11.35,9.1l7.73-.84L17.89,7.09l-.08.07L17,6.38c-.27-.27-.15-.46.08-.7a.73.73,0,0,1,.45-.27.33.33,0,0,1,.26.13l.81.81-.07.07,1.23,1.22c.09.09.2.22.29.33l4.72-.55-1.12-1.1-.08.07-.78-.79c-.27-.27-.15-.46.08-.69a.75.75,0,0,1,.45-.28.36.36,0,0,1,.26.13l.81.81-.07.07,1.23,1.22c.12.12.26.3.37.43l5.32-.61h.05a2.47,2.47,0,0,1,1.32.68,8.66,8.66,0,0,1,.86.89L22.17,12l-3.44,2.15-1.16,1.16,3.82,3.82a32.32,32.32,0,0,1,3.41,4.27l6-.58a10.46,10.46,0,0,1,.84.68l.83.79-5.36,2.55.17.4h0l-.4-.17L24.3,32.44s-.59-.63-.79-.83a10.46,10.46,0,0,1-.68-.84l.58-6a32.32,32.32,0,0,1-4.27-3.41l-3.82-3.82-1.16,1.16L12,22.17,8.25,33.5a8.66,8.66,0,0,1-.89-.86,2.39,2.39,0,0,1-.68-1.37c0-.19.31-2.68.61-5.32-.13-.11-.31-.25-.43-.37L5.64,24.35l-.07.07-.81-.81c-.26-.25-.09-.48.15-.71a.6.6,0,0,1,.39-.24.45.45,0,0,1,.3.16l.79.78-.07.08,1.1,1.12c.23-1.95.45-3.82.55-4.72-.11-.09-.24-.2-.33-.29L6.42,18.56l-.07.07-.81-.81c-.26-.25-.09-.48.14-.71a.64.64,0,0,1,.4-.24.45.45,0,0,1,.3.16l.78.78-.07.08,1.17,1.19.84-7.73S6.93,9.08,5.26,7.41c-2.2-2.2-4.18-5.29-3.68-5.78l0,0a.29.29,0,0,1,.24-.08m0-.79h0a1.09,1.09,0,0,0-.8.31L1,1.07c-.57.57-.36,1.54.72,3.23A23.68,23.68,0,0,0,4.7,8c1.32,1.31,3,3,3.58,3.66l-.61,5.58-.73-.74a1.23,1.23,0,0,0-.86-.38,1.37,1.37,0,0,0-1,.46,1.8,1.8,0,0,0-.45.65A1.12,1.12,0,0,0,5,18.38l.81.81a.75.75,0,0,0,.34.2l.17.17.78.78.06.06L6.85,23l-.69-.69a1.23,1.23,0,0,0-.86-.38,1.37,1.37,0,0,0-1,.46C3.43,23.26,4,24,4.2,24.17L5,25a.75.75,0,0,0,.34.2l.44.44.52.51a1.06,1.06,0,0,0,.15.15C5.92,31,5.9,31.14,5.9,31.2a2.83,2.83,0,0,0,.86,1.95,8.38,8.38,0,0,0,1,1,.76.76,0,0,0,.49.18.91.91,0,0,0,.23,0A.82.82,0,0,0,9,33.75L12.73,22.5l2-3.28.54-.54L18.58,22a31.87,31.87,0,0,0,4,3.24l-.53,5.5a.77.77,0,0,0,.15.55,9.86,9.86,0,0,0,.75.93l.78.81a.79.79,0,0,0,.57.25h.13a.79.79,0,0,0,.58-.44L27.27,28a.79.79,0,0,0,.76-.76L32.78,25a.78.78,0,0,0,.2-1.28L32.17,23a9.86,9.86,0,0,0-.93-.75.81.81,0,0,0-.47-.16h-.08l-5.5.53a31.87,31.87,0,0,0-3.24-4l-3.27-3.26.54-.54,3.28-2L33.75,9a.82.82,0,0,0,.51-.52.81.81,0,0,0-.15-.72,8.38,8.38,0,0,0-1-1,3,3,0,0,0-1.83-.87H31.2l-4.92.56-.15-.15-.23-.24-.72-.72A.75.75,0,0,0,25,5l-.81-.81a1.14,1.14,0,0,0-.82-.36,1.45,1.45,0,0,0-1,.51,1.18,1.18,0,0,0-.08,1.81l.69.69-2.55.29-.06-.06-.89-.89-.06-.06a.75.75,0,0,0-.2-.34L18.38,5a1.14,1.14,0,0,0-.82-.36,1.45,1.45,0,0,0-1,.51,1.57,1.57,0,0,0-.44.71,1.17,1.17,0,0,0,.36,1.1l.74.73-5.58.61C11,7.66,9.28,6,8,4.7,6.29,3,3.24.71,1.87.71Z"/><polygon class="cls-2" points="2.49 2.54 2.69 2.75 2.51 3.18 2.33 3.16 2.49 2.54"/><path class="cls-2" d="M2.33,3.21l.18,0L2.84,4l-.09,0A2.57,2.57,0,0,1,2.33,3.21Z"/><polygon class="cls-2" points="2.62 3.19 2.73 3.22 2.67 3.09 2.62 3.19"/><polygon class="cls-2" points="2.61 3.33 2.71 3.33 2.77 3.48 2.7 3.54 2.61 3.33"/><path class="cls-3" d="M4.91,22.9c-.21.21-.37.4-.23.62l.8-.8C5.27,22.59,5.1,22.71,4.91,22.9Z"/><path class="cls-3" d="M5.68,17.11c-.2.21-.36.4-.22.62l.8-.8C6.05,16.8,5.88,16.91,5.68,17.11Z"/><polygon class="cls-2" points="2.54 2.49 2.75 2.69 3.18 2.51 3.16 2.33 2.54 2.49"/><path class="cls-2" d="M3.21,2.33l0,.18L4,2.84l0-.09A2.57,2.57,0,0,0,3.21,2.33Z"/><polygon class="cls-2" points="3.19 2.62 3.22 2.73 3.09 2.67 3.19 2.62"/><polygon class="cls-2" points="3.33 2.61 3.33 2.71 3.48 2.77 3.54 2.7 3.33 2.61"/><path class="cls-3" d="M22.9,4.91c.21-.21.4-.37.62-.23l-.8.8C22.59,5.27,22.71,5.1,22.9,4.91Z"/><path class="cls-3" d="M17.11,5.68c.21-.2.4-.36.62-.22l-.8.8C16.8,6.05,16.91,5.88,17.11,5.68Z"/></svg>