<svg id="Layer_1" data-name="Layer 1" xmlns="http://www.w3.org/2000/svg" viewBox="0 0 35 37"><defs><style>.cls-1{fill:#f2f2f2;}.cls-2{fill:#596b6a;}.cls-3{fill:#ea211c;}.cls-4{fill:none;stroke:#ede2b2;stroke-miterlimit:10;stroke-width:0.4px;}</style></defs><title>syfan</title><path class="cls-1" d="M31.67,32.12a.36.36,0,0,1-.24-.09s-2.56-2.37-5.18-4.84l-1.68,1.68a.63.63,0,0,1-.45.18.6.6,0,0,1-.44-.18l-.8-.81a.6.6,0,0,1,0-.88l1.63-1.64c-1.12-1.06-2.13-2-2.84-2.75a6.09,6.09,0,0,0-1.93-1.14,7.77,7.77,0,0,1-2.54-1.57l-5.34-5.34c-2-2.05-.66-3.56-.5-3.73a2.22,2.22,0,0,1,1.51-.61,3.26,3.26,0,0,1,2.23,1.11l5.33,5.34a8.28,8.28,0,0,1,1.66,2.62,7.23,7.23,0,0,0,1.07,1.86c.7.81,1.62,1.85,2.61,3l1.6-1.61a.65.65,0,0,1,.44-.18.63.63,0,0,1,.44.18l.81.81a.64.64,0,0,1,0,.89l-1.69,1.69c2.27,2.52,4.39,4.84,4.39,4.84l.35.51a.34.34,0,0,1,0,.44l-.16.16A.31.31,0,0,1,31.67,32.12Z"/><path class="cls-2" d="M12.87,10.75a2.84,2.84,0,0,1,2,1l5.34,5.33c1.43,1.44,1.6,3.2,2.7,4.47.76.88,1.79,2,2.86,3.23h0l1.84-1.85a.29.29,0,0,1,.4,0l.8.81a.27.27,0,0,1,0,.39L26.9,26v0c2.35,2.61,4.61,5.09,4.61,5.09l.33.47-.16.15S29,29.25,26.24,26.7h0l-1.91,1.91a.26.26,0,0,1-.2.08.24.24,0,0,1-.19-.08l-.81-.8a.28.28,0,0,1,0-.4L25,25.58l0,0c-1.21-1.16-2.34-2.24-3.1-3-1.19-1.19-3-1.27-4.46-2.71L12.11,14.5c-1.87-1.87-.59-3.15-.5-3.24a1.83,1.83,0,0,1,1.26-.51m0-.7h0a2.5,2.5,0,0,0-1.75.72c-.69.69-1.37,2.36.5,4.22l2.1,2.1L17,20.33A8.11,8.11,0,0,0,19.6,22,6,6,0,0,1,21.42,23c.6.6,1.47,1.45,2.59,2.52l-1.38,1.38a1,1,0,0,0-.29.69.94.94,0,0,0,.29.69l.8.81a1,1,0,0,0,.69.28,1,1,0,0,0,.69-.28l1.45-1.45c2.5,2.36,4.91,4.59,4.93,4.61a.7.7,0,0,0,.48.19.71.71,0,0,0,.49-.2l.16-.16a.7.7,0,0,0,.08-.89l-.33-.47L32,30.68s-2-2.17-4.16-4.6l1.46-1.46a1,1,0,0,0,0-1.38l-.81-.8a.94.94,0,0,0-.69-.29,1,1,0,0,0-.69.29l-1.34,1.34c-1-1.1-1.77-2-2.36-2.68a7.07,7.07,0,0,1-1-1.77,8.52,8.52,0,0,0-1.72-2.73l-5.34-5.33a3.52,3.52,0,0,0-2.47-1.22Z"/><rect class="cls-2" x="30.12" y="28.65" width="0.25" height="7.45" transform="translate(-14.03 30.87) rotate(-45)"/><path class="cls-2" d="M13.48,15.87l1.3,1.3.37-.36L14.56,16a1,1,0,0,1-.18-.66.14.14,0,0,0-.24-.11Z"/><path class="cls-2" d="M11.9,14.28a1.89,1.89,0,0,1,.6-2l2,2a.13.13,0,0,1,0,.19l-1.19,1.19Z"/><path class="cls-2" d="M16.24,13.1l1.31,1.3-.36.37-.84-.59a1,1,0,0,0-.66-.18.14.14,0,0,1-.11-.24Z"/><path class="cls-2" d="M14.66,11.52a1.89,1.89,0,0,0-2,.61l2,2a.13.13,0,0,0,.2,0L16,12.9Z"/><path class="cls-2" d="M16.67,11.23a.14.14,0,0,0,0,.19l1.14,1.14-.55.82.46.46.38-1,2.8,2.8-.67.7.35.35.61-.76.21.21a.13.13,0,0,0,.2,0,.14.14,0,0,0,0-.19l-4.73-4.73A.13.13,0,0,0,16.67,11.23Z"/><path class="cls-2" d="M14.19,17.36l-.45-.45-.83.55-1.14-1.14a.14.14,0,0,0-.19,0,.13.13,0,0,0,0,.2l4.73,4.73a.14.14,0,0,0,.19,0,.13.13,0,0,0,0-.2l-.21-.22.76-.6-.35-.36-.7.68-2.79-2.8Z"/><path class="cls-3" d="M17.4,18.33l-.61-.6a.91.91,0,1,1,1.29-1.29l.6.6L19,17l-1.75-1.66a3.29,3.29,0,0,0-1.77-.93.66.66,0,0,0-.51.2.68.68,0,0,0-.21.52,3.24,3.24,0,0,0,.94,1.77l1.65,1.75Z"/><path class="cls-3" d="M18.73,17.29l-.65-.65A.77.77,0,1,0,17,17.73l.65.65-.07.5.36.38a40.5,40.5,0,0,0,4.28,3l.41-.4a41,41,0,0,0-3-4.28l-.38-.36Z"/><path class="cls-2" d="M18.55,1.74l-1.16-.1-.17,13.81.12,1.15a.69.69,0,0,0-.25.14.59.59,0,0,0,0,.82.46.46,0,0,0,.21.13l-.58,2.16-.26,12.72,1.16.09.17-13.81-.12-1.14a.64.64,0,0,0,.25-.15.59.59,0,0,0,0-.82.57.57,0,0,0-.21-.13l.58-2.15Z"/><circle class="cls-4" cx="17.43" cy="17.23" r="15.46"/></svg>