<svg id="Layer_1" data-name="Layer 1" xmlns="http://www.w3.org/2000/svg" viewBox="0 0 35 37"><defs><style>.cls-1{fill:#ede2b2;}.cls-2,.cls-4{fill:#596b6a;}.cls-3{fill:#dbcf9e;}.cls-4{stroke:#596b6a;stroke-width:0.28px;}.cls-4,.cls-5{stroke-miterlimit:10;}.cls-5{fill:none;stroke:#ede2b2;stroke-width:0.4px;}</style></defs><title>saraf</title><path class="cls-1" d="M28.93,34.9a.35.35,0,0,1-.17,0,7.3,7.3,0,0,1-1.13-.78,1,1,0,0,1-.31-.9A.3.3,0,0,1,27.4,33L29.19,31,19.88,22.6l-1.44.7a.28.28,0,0,1-.15,0,.29.29,0,0,1-.16,0,3.11,3.11,0,0,1-.66-.49l-2.26-2.24-1.79,1.49a.37.37,0,0,1-.22.08A.36.36,0,0,1,13,22l-1.52-1.54,0,0-.62-.62a.49.49,0,0,1,0-.69.45.45,0,0,1,.34-.15.45.45,0,0,1,.35.15l.4.4L12.3,19l-.38-.37a.5.5,0,0,1,0-.7.48.48,0,0,1,.35-.14.48.48,0,0,1,.34.14l.34.34.44-.49-3.31-3.35-1-1.17a5.37,5.37,0,0,1-.41-.5,2,2,0,0,1-.37-1.71,1,1,0,0,1-.12-.71L8,9.21H8a.35.35,0,0,1,0-.49l.19-.2a.35.35,0,0,1,.49,0h0l1.17.24H10a1.05,1.05,0,0,1,.53.14A1.57,1.57,0,0,1,11,8.82a2.2,2.2,0,0,1,1.26.44,4.46,4.46,0,0,1,.52.43l1.13.93L17.26,14l.49-.44-.33-.34a.49.49,0,0,1,.34-.83.5.5,0,0,1,.35.14l.37.37.49-.43-.4-.4a.49.49,0,0,1,0-.69.45.45,0,0,1,.34-.15.5.5,0,0,1,.35.14l.62.63a.1.1,0,0,1,.05,0l1.54,1.52a.35.35,0,0,1,0,.47L20,15.76,22.25,18a3.11,3.11,0,0,1,.49.66.37.37,0,0,1,0,.31L22,20.43l8.37,9.32L32.46,28a.29.29,0,0,1,.16-.07l.15,0a1,1,0,0,1,.75.33,6.64,6.64,0,0,1,.78,1.13.33.33,0,0,1,0,.38l-1.94,2.5.18.17a.39.39,0,0,1,.1.25.31.31,0,0,1-.1.24l-.2.21a.39.39,0,0,1-.25.1h0a.35.35,0,0,1-.24-.1l-.18-.18-2.5,1.94A.31.31,0,0,1,28.93,34.9Z"/><path class="cls-2" d="M8.4,8.76l.08.08,1.34.28a.57.57,0,0,1,.18,0,.69.69,0,0,1,.5.21A.74.74,0,0,1,11,9.17,1.83,1.83,0,0,1,12,9.54a3.35,3.35,0,0,1,.48.4l1.15,1,3.58,3.53,1-.9-.6-.59a.15.15,0,0,1,0-.21.13.13,0,0,1,.1,0,.12.12,0,0,1,.1,0l.61.61,1-.9-.66-.66a.15.15,0,0,1,0-.2.14.14,0,0,1,.1,0,.15.15,0,0,1,.11,0l.67.67h0l1.54,1.52-1.68,2L22,18.27a2.77,2.77,0,0,1,.43.58l-.81,1.64,8.76,9.75,2.3-2h.07a.76.76,0,0,1,.52.22A6.73,6.73,0,0,1,34,29.49l-2,2.51-.32-.31-.2.2.74.73-.21.2-.73-.73-.2.2.31.32-2.51,2a6.34,6.34,0,0,1-1.05-.72.67.67,0,0,1-.22-.59l2-2.31-9.75-8.76L18.29,23a3,3,0,0,1-.58-.42l-2.48-2.46-2,1.68-1.52-1.54h0L11,19.57a.15.15,0,0,1,0-.2.14.14,0,0,1,.1,0,.15.15,0,0,1,.11,0l.66.66.89-1-.61-.61a.15.15,0,0,1,0-.2.15.15,0,0,1,.11,0,.14.14,0,0,1,.1,0l.59.59.91-1-3.54-3.58-.95-1.15A6,6,0,0,1,9,12.6c-.54-.78-.37-1.42-.24-1.54a.71.71,0,0,1-.18-.68L8.28,9,8.2,9l.2-.19m0-.69a.7.7,0,0,0-.49.2l-.2.2a.69.69,0,0,0-.07.89l.21,1a1.48,1.48,0,0,0,.12.75A2.35,2.35,0,0,0,8.42,13a5.92,5.92,0,0,0,.44.54l.94,1.13,0,0,2.85,2.89a.89.89,0,0,0-.42-.12.8.8,0,0,0-.59.25.83.83,0,0,0-.25.59.9.9,0,0,0,.13.45.79.79,0,0,0-.45-.13.82.82,0,0,0-.59.24.85.85,0,0,0,0,1.18l.61.6a.21.21,0,0,0,.06.08l1.52,1.53a.67.67,0,0,0,.49.21.68.68,0,0,0,.44-.16L15.19,21l.89.88,1.14,1.13a3.06,3.06,0,0,0,.75.55.61.61,0,0,0,.32.08.63.63,0,0,0,.3-.07l1.23-.6,8.89,8-1.57,1.79a.65.65,0,0,0-.16.32,1.39,1.39,0,0,0,.4,1.21,7.1,7.1,0,0,0,1.21.84.72.72,0,0,0,.34.09.7.7,0,0,0,.43-.15l2.25-1.75a.73.73,0,0,0,.45.16h0a.68.68,0,0,0,.49-.2l.2-.2a.71.71,0,0,0,.21-.49.66.66,0,0,0-.17-.45l1.76-2.26a.68.68,0,0,0,.05-.76,7.54,7.54,0,0,0-.83-1.21,1.42,1.42,0,0,0-1-.42l-.21,0a.73.73,0,0,0-.32.15l-1.79,1.58-8-8.89.6-1.23a.67.67,0,0,0,0-.63,3.24,3.24,0,0,0-.54-.74l-1.14-1.14-.88-.9,1.28-1.54a.69.69,0,0,0,0-.93l-1.54-1.52-.08-.07-.6-.6a.79.79,0,0,0-.59-.24.82.82,0,0,0-.59.24.83.83,0,0,0-.11,1,.79.79,0,0,0-.45-.13.87.87,0,0,0-.59.24.85.85,0,0,0-.13,1L14.15,10.4a.08.08,0,0,0,0,0L13,9.42A4.56,4.56,0,0,0,12.44,9,2.49,2.49,0,0,0,11,8.48a1.84,1.84,0,0,0-.41,0A1.39,1.39,0,0,0,10,8.4H9.84l-1-.21a.66.66,0,0,0-.4-.13Z"/><path class="cls-3" d="M17.2,13.91l-3.3-3.16-1-.95s-.39-.35-.67-.55a2.16,2.16,0,0,0-1-.23,6.36,6.36,0,0,1-.07,2.88,13.82,13.82,0,0,1-1.7,1.7l.68.83,3.32,3.38-1.12.41a.15.15,0,0,0-.21,0,.15.15,0,0,0,0,.2l-.94.95a.14.14,0,0,0-.21,0c0,.06-.18.28-.12.34l.58.63.32.49,1.36,1.31,2.1-1.81c.14.15.25.34.51.59.12-.1.31-.4.41-.5.95-1,1.75-4.15,1.92-6.75Z"/><path class="cls-3" d="M18.09,13.21c0-.1,0-.2,0-.3l-.31-.31a.18.18,0,0,0-.25.25l.54.55A1.28,1.28,0,0,0,18.09,13.21Z"/><path class="cls-3" d="M22.54,18.8a3,3,0,0,0-.43-.59,5.76,5.76,0,0,0-1.49,1.59,9.61,9.61,0,0,0-.5,2.71l6.57,5.91.31.3.63-1.85-5.55-6.48Z"/><rect class="cls-2" x="29.14" y="28.49" width="0.26" height="7.61" transform="translate(-14.26 30.15) rotate(-45)"/><rect class="cls-2" x="28.76" y="28.87" width="0.26" height="7.61" transform="translate(-14.64 30) rotate(-45)"/><rect class="cls-2" x="7.29" y="8.34" width="2.64" height="1.61" rx="0.24" ry="0.24" transform="translate(-3.95 8.77) rotate(-45)"/><path class="cls-2" d="M9.82,9.12,8.48,8.84,8.4,8.76,8.2,9,8.28,9l.28,1.34a.7.7,0,0,0,0,.45l1.69-1.68A.73.73,0,0,0,9.82,9.12Z"/><path class="cls-2" d="M18.49,15.53a1.52,1.52,0,0,0-.24-.38,1.24,1.24,0,0,0-.38-.22l-.4.4a1.24,1.24,0,0,0,.22.38,1.52,1.52,0,0,0,.38.24Z"/><polygon class="cls-4" points="21.36 20.09 21.82 20.3 22.03 19.84 22.12 19.88 22.31 19.47 22.42 19.51 22.61 19.09 22.07 18.85 21.68 18.46 21.06 19.79 21.36 20.09"/><path class="cls-2" d="M15,19.05a1.52,1.52,0,0,1-.38-.24,1.24,1.24,0,0,1-.22-.38l.41-.4a1.24,1.24,0,0,1,.37.22,1.52,1.52,0,0,1,.24.38Z"/><polygon class="cls-4" points="19.53 21.91 19.74 22.38 19.28 22.59 19.32 22.68 18.91 22.86 18.96 22.98 18.53 23.17 18.3 22.63 17.9 22.24 19.23 21.61 19.53 21.91"/><polygon class="cls-2" points="11.2 10.63 11.03 10.3 10.4 10.93 9.77 11.56 10.1 11.74 11.2 10.63"/><polygon class="cls-2" points="11.77 14.14 12.98 15.2 13.78 15.5 13.89 15.39 12.12 13.61 11.77 14.14"/><polygon class="cls-2" points="11.95 13.47 10.03 11.89 9.64 11.69 9.48 11.85 10.34 12.71 11.73 13.81 11.95 13.47"/><polygon class="cls-2" points="13.07 12.65 14.85 14.43 14.96 14.32 14.67 13.51 13.61 12.31 13.07 12.65"/><polygon class="cls-2" points="11.15 10.18 11.36 10.56 12.93 12.49 13.28 12.27 12.17 10.87 11.31 10.02 11.15 10.18"/><polygon class="cls-2" points="12.65 13.05 12.52 13.19 12.23 13.47 13.46 14.7 13.81 14.35 14.17 13.99 12.94 12.76 12.65 13.05"/><polygon class="cls-2" points="12.37 13.04 12.37 13.04 12.44 12.97 12.5 12.9 12.5 12.9 12.8 12.6 11.32 10.79 10.26 11.85 12.07 13.34 12.37 13.04"/><circle class="cls-2" cx="16.16" cy="16.71" r="0.88"/><rect class="cls-2" x="13.25" y="16.58" width="5.8" height="0.27" transform="translate(8.68 38.73) rotate(-117.2)"/><polygon class="cls-2" points="15.35 15.44 9.57 4.2 10.36 3.79 15.58 13.97 15.35 15.44"/><polygon class="cls-2" points="9.57 4.2 10.36 3.79 10.17 2.79 9.38 3.19 9.57 4.2"/><polygon class="cls-2" points="16.96 17.99 22.74 29.23 21.96 29.64 16.73 19.46 16.96 17.99"/><polygon class="cls-2" points="22.74 29.23 21.96 29.64 22.14 30.64 22.93 30.24 22.74 29.23"/><rect class="cls-2" x="13.25" y="16.58" width="5.8" height="0.27" transform="translate(38.17 24.2) rotate(152.8)"/><polygon class="cls-2" points="3.64 23.3 3.23 22.52 2.23 22.7 2.63 23.49 3.64 23.3"/><polygon class="cls-2" points="14.88 17.52 3.64 23.3 3.23 22.52 13.41 17.29 14.88 17.52"/><polygon class="cls-2" points="28.68 10.13 29.08 10.91 30.09 10.73 29.68 9.94 28.68 10.13"/><polygon class="cls-2" points="17.43 15.91 28.68 10.13 29.08 10.91 18.91 16.14 17.43 15.91"/><polygon class="cls-2" points="17.23 18.51 16.84 17.11 16.08 17.51 16.99 18.64 17.23 18.51"/><polygon class="cls-2" points="15.08 14.92 15.47 16.32 16.23 15.92 15.32 14.79 15.08 14.92"/><polygon class="cls-2" points="17.95 15.64 16.56 16.03 16.95 16.79 18.08 15.88 17.95 15.64"/><polygon class="cls-2" points="14.36 17.79 15.76 17.4 15.37 16.64 14.24 17.55 14.36 17.79"/><path class="cls-2" d="M16.15,19a2.29,2.29,0,0,1-1.64-.67,2.31,2.31,0,0,1,3.27-3.27A2.31,2.31,0,0,1,16.15,19Z"/><path class="cls-1" d="M16.15,14.52a2.18,2.18,0,1,1-1.54.64,2.18,2.18,0,0,1,1.54-.64m0-.27a2.42,2.42,0,0,0-1.73.71,2.45,2.45,0,0,0,0,3.47,2.42,2.42,0,0,0,1.73.71,2.45,2.45,0,1,0,0-4.89Z"/><path class="cls-2" d="M8.4,8.76l.08.08,1.34.28a.57.57,0,0,1,.18,0,.69.69,0,0,1,.5.21A.74.74,0,0,1,11,9.17,1.83,1.83,0,0,1,12,9.54a3.35,3.35,0,0,1,.48.4l1.15,1,3.58,3.53,1-.9-.6-.59a.15.15,0,0,1,0-.21.13.13,0,0,1,.1,0,.12.12,0,0,1,.1,0l.61.61,1-.9-.66-.66a.15.15,0,0,1,0-.2.14.14,0,0,1,.1,0,.15.15,0,0,1,.11,0l.67.67h0l1.54,1.52-1.68,2L22,18.27a2.77,2.77,0,0,1,.43.58l-.81,1.64,8.76,9.75,2.3-2h.07a.76.76,0,0,1,.52.22A6.73,6.73,0,0,1,34,29.49l-2,2.51-.32-.31-.2.2.74.73-.21.2-.73-.73-.2.2.31.32-2.51,2a6.34,6.34,0,0,1-1.05-.72.67.67,0,0,1-.22-.59l2-2.31-9.75-8.76L18.29,23a3,3,0,0,1-.58-.42l-2.48-2.46-2,1.68-1.52-1.54h0L11,19.57a.15.15,0,0,1,0-.2.14.14,0,0,1,.1,0,.15.15,0,0,1,.11,0l.66.66.89-1-.61-.61a.15.15,0,0,1,0-.2.15.15,0,0,1,.11,0,.14.14,0,0,1,.1,0l.59.59.91-1-3.54-3.58-.95-1.15A6,6,0,0,1,9,12.6c-.54-.78-.37-1.42-.24-1.54a.71.71,0,0,1-.18-.68L8.28,9,8.2,9l.2-.19m0-.69a.7.7,0,0,0-.49.2l-.2.2a.69.69,0,0,0-.07.89l.21,1a1.48,1.48,0,0,0,.12.75A2.35,2.35,0,0,0,8.42,13a5.92,5.92,0,0,0,.44.54l.94,1.13,0,0,2.85,2.89a.89.89,0,0,0-.42-.12.8.8,0,0,0-.59.25.83.83,0,0,0-.25.59.9.9,0,0,0,.13.45.79.79,0,0,0-.45-.13.82.82,0,0,0-.59.24.85.85,0,0,0,0,1.18l.61.6a.21.21,0,0,0,.06.08l1.52,1.53a.67.67,0,0,0,.49.21.68.68,0,0,0,.44-.16L15.19,21l.89.88,1.14,1.13a3.06,3.06,0,0,0,.75.55.61.61,0,0,0,.32.08.63.63,0,0,0,.3-.07l1.23-.6,8.89,8-1.57,1.79a.65.65,0,0,0-.16.32,1.39,1.39,0,0,0,.4,1.21,7.1,7.1,0,0,0,1.21.84.72.72,0,0,0,.34.09.7.7,0,0,0,.43-.15l2.25-1.75a.73.73,0,0,0,.45.16h0a.68.68,0,0,0,.49-.2l.2-.2a.71.71,0,0,0,.21-.49.66.66,0,0,0-.17-.45l1.76-2.26a.68.68,0,0,0,.05-.76,7.54,7.54,0,0,0-.83-1.21,1.42,1.42,0,0,0-1-.42l-.21,0a.73.73,0,0,0-.32.15l-1.79,1.58-8-8.89.6-1.23a.67.67,0,0,0,0-.63,3.24,3.24,0,0,0-.54-.74l-1.14-1.14-.88-.9,1.28-1.54a.69.69,0,0,0,0-.93l-1.54-1.52-.08-.07-.6-.6a.79.79,0,0,0-.59-.24.82.82,0,0,0-.59.24.83.83,0,0,0-.11,1,.79.79,0,0,0-.45-.13.87.87,0,0,0-.59.24.85.85,0,0,0-.13,1L14.15,10.4a.08.08,0,0,0,0,0L13,9.42A4.56,4.56,0,0,0,12.44,9,2.49,2.49,0,0,0,11,8.48a1.84,1.84,0,0,0-.41,0A1.39,1.39,0,0,0,10,8.4H9.84l-1-.21a.66.66,0,0,0-.4-.13Z"/><circle class="cls-5" cx="16.15" cy="16.7" r="15.15"/></svg>