<svg id="Layer_1" data-name="Layer 1" xmlns="http://www.w3.org/2000/svg" viewBox="0 0 35 35"><defs><style>.cls-1{fill:#cae0e0;}.cls-2{fill:#596b6a;}.cls-3{fill:#fff;}</style></defs><title>shahaf</title><path class="cls-1" d="M24,34.42h-.13a3,3,0,0,1-1-.56,1.35,1.35,0,0,1-.4-1.33c.07-.21,1.09-4,1.8-6.67l-.35-.28-.31.32A1.29,1.29,0,0,1,23.26,27a1.36,1.36,0,0,1-.87.37,1.26,1.26,0,0,1-.28,0A16.52,16.52,0,0,1,19.2,25c-.74-.75-1.73-1.91-1.81-2a.58.58,0,0,1-.09-.44L8.69,28.89a4.51,4.51,0,0,1,.79,1.63.39.39,0,0,1-.12.37.42.42,0,0,1-.3.13H9A4.55,4.55,0,0,1,6.77,29.7L4.24,27.18A4.7,4.7,0,0,1,2.93,25a.44.44,0,0,1,.42-.5h.07a4.7,4.7,0,0,1,2.23,1.31l.53.54,7.14-9.93-1.87-1.83C9.68,12.81,7.78,11,6.62,9.78A20,20,0,0,1,3.66,6a6.8,6.8,0,0,0-.69-1A7.55,7.55,0,0,0,2,4.29a6.09,6.09,0,0,1-.8-.66A1.83,1.83,0,0,1,1,1,1.52,1.52,0,0,1,2.13.58a2.18,2.18,0,0,1,1.5.66,6.09,6.09,0,0,1,.66.8A8.38,8.38,0,0,0,5.06,3a6.8,6.8,0,0,0,1,.69,19.67,19.67,0,0,1,3.75,3c1.14,1.13,2.94,3,4.65,4.71l1.95,2,9.93-7.13-.54-.53a4.7,4.7,0,0,1-1.31-2.23.42.42,0,0,1,.12-.37.43.43,0,0,1,.3-.13H25a4.7,4.7,0,0,1,2.23,1.31L29.7,6.77A4.55,4.55,0,0,1,31,9a.39.39,0,0,1-.12.37.41.41,0,0,1-.29.13h-.08a4.31,4.31,0,0,1-1.65-.81c-.55.78-3.78,5.15-6.35,8.63h.12a.75.75,0,0,1,.32.1c.13.08,1.3,1.08,2,1.81a16.52,16.52,0,0,1,2.3,2.91,1.29,1.29,0,0,1-.28,1.1,1.41,1.41,0,0,1-.87.37,1.09,1.09,0,0,1-.26,0l-.32.31.28.35c2.67-.71,6.47-1.73,6.67-1.8a1.14,1.14,0,0,1,.33,0,1.44,1.44,0,0,1,1,.45,2.91,2.91,0,0,1,.56,1.05.45.45,0,0,1-.22.5l-5.86,2.91.15.14a.41.41,0,0,1,.12.32c.37.45.83,1.11.85,1.14a.41.41,0,0,1-.05.54.43.43,0,0,1-.3.13.46.46,0,0,1-.24-.08s-.69-.48-1.13-.85h0a.42.42,0,0,1-.3-.12l-.14-.15-2.92,5.86A.4.4,0,0,1,24,34.42Z"/><path class="cls-2" d="M2.13,1a1.78,1.78,0,0,1,1.2.54c.51.51.78,1.07,1.43,1.73S7.12,4.56,9.48,6.91c1.66,1.66,4.73,4.8,6.86,7L27,6.23l-.89-.88a4.26,4.26,0,0,1-1.19-2,4.26,4.26,0,0,1,2,1.19L29.4,7.06a4.23,4.23,0,0,1,1.2,2,4,4,0,0,1-1.72-.92.29.29,0,0,0-.2.12c-.19.24-6.69,9-7.81,10.56l.51.6c.08-.09.18-.18.27-.27L21.5,19c-.06-.09,0-.31.44-.79s.57-.45.7-.45l.09,0c.09.06,1.24,1,2,1.76a16.18,16.18,0,0,1,2.19,2.73.87.87,0,0,1-.19.71,1,1,0,0,1-.55.21.39.39,0,0,1-.15,0,.73.73,0,0,1-.2-.1l-.8.8.7.85s6.69-1.79,7-1.88a.58.58,0,0,1,.19,0,1,1,0,0,1,.7.33A2.57,2.57,0,0,1,34,24l-6.06,3-.24.24.48.48-.09.09a13.25,13.25,0,0,1,1,1.31,13.25,13.25,0,0,1-1.31-1l-.09.09-.48-.48-.24.24L24,34a2.57,2.57,0,0,1-.87-.45.93.93,0,0,1-.3-.89c.09-.27,1.88-7,1.88-7l-.85-.7-.8.8a.73.73,0,0,1,.1.2.89.89,0,0,1-.19.7,1,1,0,0,1-.55.21.47.47,0,0,1-.16,0A16.18,16.18,0,0,1,19.5,24.7c-.73-.73-1.7-1.88-1.76-2s0-.32.43-.79.58-.46.7-.46l.09,0,.19.15c.09-.09.18-.19.27-.27l-.6-.51C17.31,22,8.5,28.49,8.26,28.68a.29.29,0,0,0-.12.2,4,4,0,0,1,.92,1.72,4.23,4.23,0,0,1-2-1.2L4.54,26.88a4.26,4.26,0,0,1-1.19-2,4.26,4.26,0,0,1,2,1.19l.88.89,7.64-10.62c-2.16-2.13-5.3-5.2-7-6.86-2.35-2.36-3-4.06-3.64-4.72S2.05,3.84,1.54,3.33a1.42,1.42,0,0,1-.21-2A1.14,1.14,0,0,1,2.13,1m0-.85h0A1.93,1.93,0,0,0,.73.73a2.27,2.27,0,0,0,.21,3.2,6.55,6.55,0,0,0,.85.7,7.08,7.08,0,0,1,.88.73,6.13,6.13,0,0,1,.63.9,20.63,20.63,0,0,0,3,3.82c1.16,1.16,3,3,4.81,4.75l1.63,1.6L6.13,25.66,6,25.47A5.16,5.16,0,0,0,3.5,24H3.35a.86.86,0,0,0-.84,1,5.16,5.16,0,0,0,1.43,2.45L6.47,30a5.05,5.05,0,0,0,2.44,1.43h.15a.84.84,0,0,0,.6-.25.83.83,0,0,0,.24-.75A4.47,4.47,0,0,0,9.27,29l7.79-5.76c.19.26,1.17,1.39,1.84,2.07A15.87,15.87,0,0,0,22,27.7a1.34,1.34,0,0,0,.4.06,1.74,1.74,0,0,0,.95-.31c-.62,2.31-1.28,4.74-1.34,4.94a1.78,1.78,0,0,0,.5,1.76,3.29,3.29,0,0,0,1.22.66,1.09,1.09,0,0,0,.25,0,.84.84,0,0,0,.75-.47L27.41,29l.15,0c.44.36,1,.74,1.06.79a.87.87,0,0,0,.48.15.85.85,0,0,0,.7-1.33c-.05-.08-.43-.62-.79-1.06a.83.83,0,0,0,0-.15l5.41-2.69a.84.84,0,0,0,.43-1,3.29,3.29,0,0,0-.66-1.22,1.9,1.9,0,0,0-1.3-.57,1.39,1.39,0,0,0-.46.07l-4.94,1.34A1.6,1.6,0,0,0,27.7,22a15.87,15.87,0,0,0-2.4-3.09c-.68-.67-1.81-1.65-2.07-1.84L29,9.27a4.47,4.47,0,0,0,1.45.63h.16a.86.86,0,0,0,.83-1A5.05,5.05,0,0,0,30,6.47L27.48,3.94A5.16,5.16,0,0,0,25,2.51h-.15a.86.86,0,0,0-.84,1A5.16,5.16,0,0,0,25.47,6l.19.18-9.23,6.63-1.61-1.63c-1.73-1.77-3.58-3.65-4.74-4.81a20.63,20.63,0,0,0-3.82-3,6.13,6.13,0,0,1-.9-.63,7.08,7.08,0,0,1-.73-.88,6.55,6.55,0,0,0-.7-.85A2.64,2.64,0,0,0,2.13.15Z"/><path class="cls-3" d="M19,21.5c-.09-.06-.31,0-.79.44s-.49.7-.43.79Z"/><path class="cls-2" d="M9.29,11.83l.07-.08a.16.16,0,0,0,0-.24l-.31-.31a.16.16,0,0,0-.24,0l-.08.08Z"/><path class="cls-2" d="M10.49,13l.07-.07a.18.18,0,0,0,0-.24l-.32-.32a.17.17,0,0,0-.23,0l-.08.08Z"/><path class="cls-2" d="M11.7,14.2l.05-.06a.16.16,0,0,0,0-.24l-.31-.31a.16.16,0,0,0-.24,0l-.06.06Z"/><path class="cls-2" d="M12.9,15.38l0,0a.18.18,0,0,0,0-.24l-.32-.32a.18.18,0,0,0-.24,0l-.05.06Z"/><path class="cls-2" d="M7.12,8.41l-.32.32a2.81,2.81,0,0,1-.39-.58l.23-.23Z"/><path class="cls-2" d="M5.55,8c.28.34.59.69.94,1.06l.19-.19a2.59,2.59,0,0,1-.52-.92Z"/><path class="cls-2" d="M5.29,7.65l.07.09.75-.06a1.42,1.42,0,0,1,.29-1.1l-.8-.8A2,2,0,0,0,5.29,7.65Z"/><path class="cls-3" d="M21.5,19c-.06-.09,0-.31.44-.79s.7-.49.79-.43Z"/><path class="cls-2" d="M11.83,9.29l-.08.07a.16.16,0,0,1-.24,0l-.31-.31a.16.16,0,0,1,0-.24l.08-.08Z"/><path class="cls-2" d="M13,10.49l-.07.07a.18.18,0,0,1-.24,0l-.32-.32a.17.17,0,0,1,0-.23l.08-.08Z"/><path class="cls-2" d="M14.2,11.7l-.06.05a.16.16,0,0,1-.24,0l-.31-.31a.16.16,0,0,1,0-.24l.06-.06Z"/><path class="cls-2" d="M15.38,12.9l0,0a.18.18,0,0,1-.24,0l-.32-.32a.18.18,0,0,1,0-.24l.06-.05Z"/><path class="cls-2" d="M1.1,1.1a1.56,1.56,0,0,0,.23,2.18c.54.53,1.14.83,1.83,1.51L4,4l.82-.81c-.68-.69-1-1.29-1.51-1.83A1.56,1.56,0,0,0,1.1,1.1Z"/><path class="cls-2" d="M8.41,7.12l.32-.32a2.81,2.81,0,0,0-.58-.39l-.23.23Z"/><path class="cls-2" d="M7.68,6.11l.06-.75-.09-.07a2,2,0,0,0-1.87.31l.8.8A1.42,1.42,0,0,1,7.68,6.11Z"/><path class="cls-2" d="M7.93,6.16a2.59,2.59,0,0,1,.92.52L9,6.49c-.37-.35-.72-.66-1.06-.94Z"/></svg>