<svg xmlns="http://www.w3.org/2000/svg" xmlns:xlink="http://www.w3.org/1999/xlink" width="50" height="50" viewBox="0 0 50 50">
    <defs>
        <path id="a" d="M0 .102h52.842V24H0z"/>
    </defs>
    <g fill="none" fill-rule="evenodd">
        <path fill="#596B6A" d="M29.111 32.425l4.243-4.243-.14-.139-4.242 4.243z"/>
        <path fill="#CAE0E0" d="M30.615 36.117l5.82-5.82-6.424-6.058-1.421 1.42.372.373c.6.6 1.397 1.898 1.49 2.052.189.277.263.691.044 1.041.09.296.033.593-.037.76a.477.477 0 0 1-.256.257c-.168.07-.465.127-.76.036-.35.22-.764.145-1.042-.044-.153-.093-1.451-.89-2.052-1.49l-.372-.372-1.42 1.421 6.058 6.424m8.07-3.598a.476.476 0 0 1-.512.105l-5.231 5.232a.47.47 0 0 1-.105.512.475.475 0 0 1-.11.082l-.97.525a.47.47 0 0 1-.556-.079l-1.129-1.129a.466.466 0 0 1-.136-.332v-.146l-6.724-6.343L8.319 43.633a.474.474 0 0 1-.342.113 1.934 1.934 0 0 1-1.15-.54 1.934 1.934 0 0 1-.54-1.15.475.475 0 0 1 .138-.37l13.813-13.813a1.817 1.817 0 0 1-.072-.903.476.476 0 0 1 .37-.37c.053-.01.45-.084.903.072l1.47-1.469-2.31-2.309c-1.475-1.474-1.62-3.14-1.074-3.686.546-.546 2.212-.401 3.686 1.073l2.31 2.31 1.469-1.47a1.816 1.816 0 0 1-.072-.903.475.475 0 0 1 .369-.37 1.82 1.82 0 0 1 .904.073L42.003 6.108a.475.475 0 0 1 .37-.138c.068.004.671.06 1.15.54.479.479.536 1.082.54 1.15a.474.474 0 0 1-.112.341L31.263 22.894l6.343 6.725h.146c.125-.001.245.048.333.136l1.129 1.129a.47.47 0 0 1 .079.556l-.525.97a.475.475 0 0 1-.083.11"/>
        <g transform="rotate(-45 45.47 18.213)">
            <mask id="b" fill="#fff">
                <use xlink:href="#a"/>
            </mask>
            <path fill="#596B6A" d="M28.742 12.011h1.076l.23 7.889H22.794l.231-7.889H24.1v.057c0 .889.345 2.343.409 2.606.087.434.389.864.852 1.055.192.27.457.457.698.556a.954.954 0 0 0 .724 0c.24-.099.506-.286.698-.556.463-.191.765-.621.852-1.055.064-.263.409-1.717.409-2.606v-.057zM26.422.101C25.3.102 24.1 1.643 24.1 3.937v2.797h-1.33a2.252 2.252 0 0 0-.6-.612.953.953 0 0 0-1.045 0 2.25 2.25 0 0 0-.602.612H1.263a.95.95 0 0 0-.718.328A2.391 2.391 0 0 0 0 8.56c0 .828.454 1.395.545 1.5a.95.95 0 0 0 .642.324l19.08 1.526.252 8.62a.933.933 0 0 0-.237.62v1.597c0 .414.274.78.674.898l1.058.314a.95.95 0 0 0 .954-.248H29.874a.942.942 0 0 0 .683.288.952.952 0 0 0 .272-.04l1.057-.314c.4-.119.674-.484.674-.898v-1.596c0-.23-.084-.45-.237-.62l.252-8.621 19.08-1.526a.949.949 0 0 0 .642-.324 2.39 2.39 0 0 0 .545-1.5c0-.829-.454-1.395-.545-1.5a.95.95 0 0 0-.718-.328h-19.26a2.249 2.249 0 0 0-.601-.612.952.952 0 0 0-1.045 0c-.078.051-.36.252-.602.612h-1.33V3.936c0-2.294-1.2-3.834-2.32-3.834zm0 15.318s-.374-.153-.386-.524h-.143c-.388 0-.458-.418-.458-.418s-.388-1.571-.388-2.409v-.994h-2.943l-.285 9.764h9.204c-.044-1.519-.19-6.456-.285-9.764h-2.943v.994c0 .838-.387 2.409-.387 2.409s-.07.418-.458.418h-.144c-.012.37-.385.524-.385.524zm0-14.38c.387 0 1.373.943 1.373 2.897v3.735h2.884c.114-.504.516-.768.516-.768s.403.264.516.768H51.58s.317.366.317.89c0 .523-.317.89-.317.89l-19.925 1.593-.289 9.862.249.246v1.596l-1.057.315v-.288h-8.271v.288l-1.058-.315v-1.596l.249-.246c-.042-1.438-.191-6.502-.288-9.862L1.263 9.451s-.317-.367-.317-.89c0-.524.317-.89.317-.89h19.868a1.34 1.34 0 0 1 .516-.768s.402.264.516.768h2.884V3.936c0-1.954.986-2.897 1.374-2.897z" mask="url(#b)"/>
        </g>
        <path fill="#596B6A" d="M29.382 29.61c.27.253.643.097.643.097s.155-.372-.098-.642l-.545.545z"/>
    </g>
</svg>
