<svg xmlns="http://www.w3.org/2000/svg" xmlns:xlink="http://www.w3.org/1999/xlink" width="50" height="50" viewBox="0 0 50 50">
    <defs>
        <path id="a" d="M0 .022h30.622V30.24H0z"/>
    </defs>
    <g fill="none" fill-rule="evenodd">
        <path fill="#F2F2F2" d="M31.916 39.738c-.644 0-1.17-.508-1.201-1.144H19.373a1.204 1.204 0 0 1-1.2 1.144h-4.758c-.643 0-1.17-.508-1.2-1.144h-.616a1.54 1.54 0 0 1-1.54-1.539v-4.263c0-.848.691-1.539 1.54-1.539h1.65v-.53c0-.862.701-1.564 1.564-1.564h2.326c.862 0 1.564.702 1.564 1.564v.53h.519l4.588-4.486v-4.338a6.048 6.048 0 0 1-4.734-5.93 6.086 6.086 0 0 1 6.08-6.079 6.086 6.086 0 0 1 6.079 6.08 6.048 6.048 0 0 1-4.735 5.93v4.35l4.134 4.473h7.61c.848 0 1.538.69 1.538 1.539v4.263a1.54 1.54 0 0 1-1.539 1.539h-.37a1.204 1.204 0 0 1-1.2 1.144h-4.757z"/>
        <g transform="translate(9.61 9.948)">
            <mask id="b" fill="#fff">
                <use xlink:href="#a"/>
            </mask>
            <path fill="#596B6A" d="M15.545.022c-3.6 0-6.529 2.929-6.529 6.53a6.528 6.528 0 0 0 4.734 6.278v3.8l-4.207 4.113a2.016 2.016 0 0 0-2.014-1.982H5.203c-1.11 0-2.014.903-2.014 2.013v.081h-1.2A1.99 1.99 0 0 0 0 22.844v4.263a1.99 1.99 0 0 0 1.989 1.988h.244a1.655 1.655 0 0 0 1.572 1.145h4.757c.734 0 1.358-.481 1.573-1.145h10.598a1.655 1.655 0 0 0 1.573 1.145h4.757c.734 0 1.358-.481 1.572-1.145a1.991 1.991 0 0 0 1.987-1.988v-4.263a1.99 1.99 0 0 0-1.989-1.989h-7.412l-3.88-4.2V12.83A6.528 6.528 0 0 0 15.545.022m0 .9a5.63 5.63 0 0 1 .894 11.187v4.9l4.387 4.746h7.806c.601 0 1.089.488 1.089 1.089v4.263c0 .6-.488 1.088-1.089 1.088h-.931a.752.752 0 0 1-.64 1.145h-4.756a.752.752 0 0 1-.64-1.145H9.202a.752.752 0 0 1-.64 1.145H3.806a.752.752 0 0 1-.639-1.145H1.99A1.089 1.089 0 0 1 .9 27.107v-4.263c0-.601.487-1.089 1.089-1.089h2.1v-.98c0-.616.499-1.114 1.114-1.114h2.326c.615 0 1.114.498 1.114 1.113v.981H9.795l4.855-4.747V12.11A5.63 5.63 0 0 1 15.545.922" mask="url(#b)"/>
        </g>
        <path fill="#F2F2F2" d="M24.25 27.226a.27.27 0 0 1-.27-.27v-5.43a.27.27 0 0 1 .27-.27h1.8a.27.27 0 0 1 .27.27v5.43a.27.27 0 0 1-.27.27h-1.8z"/>
        <path fill="#596B6A" d="M26.05 20.986h-1.8a.54.54 0 0 0-.54.54v5.43c0 .298.242.54.54.54h1.8a.54.54 0 0 0 .54-.54v-5.43a.54.54 0 0 0-.54-.54zm-1.8 5.97h1.8v-5.43h-1.8v5.43z"/>
        <path fill="#F1524B" d="M30.798 16.646a5.678 5.678 0 1 1-11.356 0 5.678 5.678 0 0 1 11.356 0"/>
        <path fill="#DCE1E5" d="M30.437 31.703H19.405l4.855-4.747h1.79z"/>
        <path fill="#596B6A" d="M18.166 39.294H13.41a.752.752 0 0 1 0-1.505h4.757a.752.752 0 1 1 0 1.505M36.667 39.294H31.91a.752.752 0 0 1 0-1.505h4.757a.752.752 0 1 1 0 1.505"/>
        <path fill="#75838E" d="M38.243 38.142H11.6a1.089 1.089 0 0 1-1.089-1.088V32.79c0-.601.487-1.089 1.089-1.089H38.243c.601 0 1.089.488 1.089 1.089v4.263c0 .6-.488 1.088-1.089 1.088"/>
        <path fill="#999" d="M18.262 31.709h-4.554v-.98c0-.616.499-1.115 1.114-1.115h2.326c.615 0 1.114.499 1.114 1.114v.98z"/>
        <path fill="#596B6A" fill-rule="nonzero" d="M31.21 16.466a6.03 6.03 0 1 1-12.059 0 6.03 6.03 0 0 1 12.059 0zm-.54 0a5.49 5.49 0 1 0-10.979 0 5.49 5.49 0 0 0 10.979 0z"/>
        <path fill="#F2F2F2" d="M13.708 31.45H31.01"/>
        <path stroke="#596B6A" stroke-linecap="round" stroke-linejoin="round" stroke-width=".54" d="M13.708 31.45H31.01"/>
        <g>
            <path fill="#F2F2F2" d="M24.111 26.694h2.139"/>
            <path fill="#596B6A" fill-rule="nonzero" d="M24.111 26.964h2.139a.27.27 0 0 0 0-.54H24.11a.27.27 0 1 0 0 .54z"/>
        </g>
    </g>
</svg>
