<svg xmlns="http://www.w3.org/2000/svg" xmlns:xlink="http://www.w3.org/1999/xlink" width="50" height="50" viewBox="0 0 50 50">
    <defs>
        <path id="a" d="M0 .127h37.953v6.995H0z"/>
        <path id="c" d="M.088.076h1.613v1.258H.088z"/>
    </defs>
    <g fill="none" fill-rule="evenodd">
        <path fill="#F2F2F2" d="M22.794 26.042a.348.348 0 0 1-.054.044l-.18.121a.353.353 0 0 1-.446-.044L17.44 21.49a.353.353 0 0 1-.084-.364l.37-1.086c-.575-.599-2.39-2.535-2.72-3.462-.186-.52.053-.946.223-1.116l.729-.729c.17-.17.596-.408 1.116-.223.927.33 2.863 2.145 3.461 2.72l1.457-.496a.353.353 0 0 1 .36.081c.727.707 1.459 1.41 2.19 2.113.78.75 1.587 1.524 2.375 2.292a.353.353 0 0 1 .048.449l-.354.53a.362.362 0 0 1-.044.055l-3.682 3.682a.63.63 0 0 0-.06.07.372.372 0 0 1-.032.036"/>
        <path fill="#596B6A" d="M15.709 14.483l-.73.73c-.228.228-.55.798-.306 1.484.33.923 1.915 2.659 2.65 3.432l-.3.883a.706.706 0 0 0 .169.728l4.672 4.672c.238.238.61.275.89.089l.182-.12a.71.71 0 0 0 .172-.162.33.33 0 0 1 .028-.033l3.682-3.682a.707.707 0 0 0 .088-.108l.354-.531a.706.706 0 0 0-.096-.898c-.79-.77-1.599-1.547-2.38-2.298-.718-.69-1.46-1.402-2.184-2.107a.707.707 0 0 0-.72-.162l-1.254.427c-.774-.735-2.51-2.321-3.433-2.65a1.447 1.447 0 0 0-1.484.306m.5.5s.3-.3.747-.14c.999.355 3.49 2.792 3.49 2.792l1.661-.567c1.515 1.474 3.05 2.93 4.564 4.405l-.353.531-3.682 3.682c-.034.035-.064.07-.091.107l-.181.12-4.673-4.673.44-1.29s-2.436-2.492-2.792-3.49a.735.735 0 0 1 .14-.748l.73-.73"/>
        <path fill="#DCE1E5" d="M35.506 14.166L14.788 34.885a3.001 3.001 0 0 1-4.244 0 2.58 2.58 0 0 1 0-3.65L31.857 9.922a2.58 2.58 0 0 1 3.65 0 3.001 3.001 0 0 1 0 4.244"/>
        <path fill="#596B6A" fill-rule="nonzero" d="M35.756 14.416L15.038 35.134a3.354 3.354 0 0 1-4.744 0 2.934 2.934 0 0 1 0-4.148L31.607 9.672a2.934 2.934 0 0 1 4.149 0 3.354 3.354 0 0 1 0 4.744zm-.5-.5a2.648 2.648 0 0 0 0-3.744c-.87-.87-2.28-.87-3.15 0L10.794 31.485c-.87.87-.87 2.28 0 3.15a2.648 2.648 0 0 0 3.745 0l20.719-20.718z"/>
        <path fill="#DCE1E5" d="M18.89 18.702l.927-.927s1.072-.211 5.102 4.016 7.515 8.453 7.515 8.453l5.887-2.767c1.004-.472 1.9.604 1.272 1.529l-3.132 4.617-1.882-.462s1.654 1.617 1.788 2.127c0 0 .056.157-.084.298l-.073.072c-.14.14-.298.084-.298.084-.51-.133-2.126-1.788-2.126-1.788l.462 1.883-4.618 3.132c-.925.627-2-.268-1.529-1.272l2.767-5.888s-4.226-3.485-8.453-7.515c-4.226-4.03-4.016-5.102-4.016-5.102l.928-.927"/>
        <path fill="#596B6A" fill-rule="nonzero" d="M19.954 18.137c.092.03.277.105.569.273.934.537 2.292 1.686 4.14 3.625 1.52 1.595 3.069 3.299 4.589 5.032a186.312 186.312 0 0 1 2.91 3.402l.174.211 6.136-2.884c.676-.317 1.257.381.83 1.011l-2.995 4.415-2.9-.712.925.904.032.031c.284.28.624.631.937.98.388.431.658.784.716.927l-.038.038c-.176-.08-.517-.343-.93-.714a23.519 23.519 0 0 1-.98-.937l-.03-.032-.905-.925.712 2.9-4.414 2.994c-.63.428-1.329-.153-1.011-.83l2.884-6.134-.212-.175a134.892 134.892 0 0 1-.95-.797c-.75-.635-1.576-1.345-2.45-2.112a165.203 165.203 0 0 1-5.034-4.59c-1.939-1.847-3.088-3.206-3.625-4.14a3.17 3.17 0 0 1-.273-.568l1.193-1.193zm-.387-.612l-1.417 1.418-.097.181c-.042.212.05.571.37 1.127.575 1.001 1.765 2.408 3.749 4.299a165.896 165.896 0 0 0 5.055 4.61 186.878 186.878 0 0 0 3.206 2.747l-2.651 5.64c-.626 1.332.827 2.541 2.046 1.714l4.822-3.27-.229-.93.156.14c.562.506.965.81 1.246.883a.658.658 0 0 0 .637-.176l.072-.073a.658.658 0 0 0 .167-.667c-.064-.25-.367-.654-.873-1.216a19.33 19.33 0 0 0-.141-.156l.93.229 3.27-4.821c.828-1.22-.382-2.673-1.714-2.047l-5.64 2.651a107.755 107.755 0 0 0-.627-.746 187.015 187.015 0 0 0-2.12-2.46 166.005 166.005 0 0 0-4.61-5.055c-1.89-1.983-3.297-3.173-4.299-3.75-.555-.319-.915-.41-1.126-.369l-.182.097z"/>
        <path fill="#596B6A" d="M24.447 22.648l-2.575-2.575a.363.363 0 0 0-.194-.102c-.17-.03-.488-.028-.8.285-.313.313-.316.63-.286.8.013.075.05.142.103.195l2.574 2.575c.145.145.38.144.525 0l.653-.653a.371.371 0 0 0 0-.525"/>
        <path fill="#F2F2F2" d="M25.866 19.714a.353.353 0 0 1-.219.102 5.567 5.567 0 0 0-4.835 3.926c-.052.158-.09.305-.114.445-.05.236-.083.46-.103.681a.353.353 0 0 1-.102.219l-8.19 8.189a3.358 3.358 0 0 1-4.743 0 2.937 2.937 0 0 1 0-4.149L29.75 6.94a2.937 2.937 0 0 1 4.148 0 3.358 3.358 0 0 1 0 4.744l-8.031 8.031z"/>
        <g transform="rotate(-45 40.003 9.645)">
            <mask id="b" fill="#fff">
                <use xlink:href="#a"/>
            </mask>
            <path fill="#596B6A" d="M34.666.127H3.286A3.29 3.29 0 0 0 0 3.414a3.712 3.712 0 0 0 3.708 3.708h11.58a.707.707 0 0 0 .455-.166 5.208 5.208 0 0 1 .53-.39 2.687 2.687 0 0 1 .359-.212 5.214 5.214 0 0 1 5.801.602.706.706 0 0 0 .454.166h11.358a3.712 3.712 0 0 0 3.708-3.708A3.29 3.29 0 0 0 34.666.127m0 .707a2.58 2.58 0 0 1 2.58 2.58 3.001 3.001 0 0 1-3 3.001h-11.36a5.89 5.89 0 0 0-3.798-1.382 5.888 5.888 0 0 0-2.79.699 3.34 3.34 0 0 0-.432.256c-.201.131-.394.274-.577.427H3.708a3.001 3.001 0 0 1-3.002-3A2.58 2.58 0 0 1 3.286.833H34.667" mask="url(#b)"/>
        </g>
        <g transform="rotate(-45 23.8 -9.215)">
            <mask id="d" fill="#fff">
                <use xlink:href="#c"/>
            </mask>
            <path fill="#596B6A" d="M1.7 1.334C1.7.813 1.445.44 1.22.212a.458.458 0 0 0-.651 0c-.224.227-.48.6-.48 1.122H1.7z" mask="url(#d)"/>
        </g>
        <path fill="#596B6A" d="M11.705 16.71l5.626-5.627-.188-.188-5.626 5.627zM16.574 14.566l-1.386 1.387c-.3.3-.792.3-1.092 0-.3-.3-.3-.792 0-1.093l1.386-1.386c.3-.3.792-.3 1.092 0 .3.3.3.792 0 1.092M20.03 25.051l.218-.219-4.443-4.443-.22.219zM25.883 19.694l.218-.218-4.443-4.444-.219.219z"/>
        <path fill="#596B6A" fill-rule="nonzero" d="M33.407 32.51l.925.904.032.03c.284.281.624.632.937.98.388.432.658.785.716.928l-.038.038c-.176-.08-.517-.343-.93-.714a23.52 23.52 0 0 1-.98-.937l-.03-.032-.905-.925.712 2.9-4.414 2.994c-.63.428-1.329-.153-1.01-.829l2.883-6.135-.212-.175a135.012 135.012 0 0 1-.95-.797 186.321 186.321 0 0 1-6.755-6.012l-.484.515a187.024 187.024 0 0 0 7.529 6.664l-2.651 5.64c-.626 1.332.827 2.541 2.047 1.714l4.617-3.132.204-.138-.229-.93.156.14c.562.506.965.81 1.246.883a.658.658 0 0 0 .637-.176l.072-.073a.658.658 0 0 0 .167-.667c-.064-.25-.367-.653-.873-1.216a19.334 19.334 0 0 0-.141-.156l.93.229 3.27-4.821c.828-1.22-.382-2.673-1.714-2.047l-5.64 2.651a107.726 107.726 0 0 0-.627-.746 187.006 187.006 0 0 0-2.12-2.46 170.573 170.573 0 0 0-4.058-4.473l-.514.485a169.877 169.877 0 0 1 4.04 4.454 186.303 186.303 0 0 1 2.91 3.4l.174.212 6.136-2.884c.676-.317 1.257.381.83 1.012l-2.995 4.414-2.9-.712z"/>
    </g>
</svg>
