<svg id="Layer_1" data-name="Layer 1" xmlns="http://www.w3.org/2000/svg" viewBox="0 0 35 35"><defs><style>.cls-1{fill:#ede2b2;}.cls-2{fill:#596b6a;}.cls-3{fill:#dbcf9e;}.cls-4{fill:#c8eab2;}.cls-5{fill:#cae0e0;}.cls-6{fill:#bfb073;}.cls-7{fill:none;stroke:#ede2b2;stroke-miterlimit:10;stroke-width:0.35px;}</style></defs><title>sufa</title><path class="cls-1" d="M22.79,34.14a.44.44,0,0,1-.31-.13l-1.25-1.25a.43.43,0,0,1-.13-.34l.33-6.29-1.85-1.8L13,30.88a.46.46,0,0,1-.31.13h0a.48.48,0,0,1-.32-.13l-2.28-2.29a.42.42,0,0,1-.13-.35l1.07-11.16-.16-.17a17.89,17.89,0,0,1-1.82-3c-.22-.39-.39-.72-.5-.89-.19-.33-.79-1.32-1.1-1.72l-.85-1c-.87-1-1.45-1.74-1.57-1.93s-.39-.73-.47-.9a23.58,23.58,0,0,1-2-2.55A18.35,18.35,0,0,1,.89,1.46.45.45,0,0,1,1,1,.48.48,0,0,1,1.31.86a.4.4,0,0,1,.15,0A17.7,17.7,0,0,1,4.9,2.57a24.68,24.68,0,0,1,2.55,2c.17.08.63.3.9.47s.89.7,1.93,1.57l1,.85c.27.21.85.58,1.72,1.1.17.11.5.28.89.5a18.34,18.34,0,0,1,3,1.82l.17.16L28.28,10a.4.4,0,0,1,.31.13l2.29,2.28a.46.46,0,0,1,.13.32.46.46,0,0,1-.13.31l-6.55,6.55,1.8,1.85,6.31-.33a.44.44,0,0,1,.32.13L34,22.48a.44.44,0,0,1,.12.37l-.1.87a.5.5,0,0,1-.13.26l-3,3a.45.45,0,0,1-.63,0L30,26.66l-.49.49-.06,0,.3.41a.44.44,0,0,1,0,.58l-.36.35.37.37a.43.43,0,0,1,0,.63l-.21.21a.43.43,0,0,1-.31.13.44.44,0,0,1-.32-.13l-.37-.37-.35.36a.44.44,0,0,1-.32.13.43.43,0,0,1-.26-.09l-.41-.3a.21.21,0,0,1,0,.06l-.49.49.29.28a.45.45,0,0,1,0,.63l-3,3a.5.5,0,0,1-.26.13l-.87.11Z"/><path class="cls-2" d="M1.31,1.31h0A17.92,17.92,0,0,1,4.66,2.94,25.54,25.54,0,0,1,7.21,5s.6.28.9.47S10.66,7.54,11,7.83s1.15.76,1.76,1.13a36.29,36.29,0,0,1,3.81,2.25l.31.31,11.37-1.09,2.29,2.29-6.86,6.86L26,21.88l6.49-.34,1.25,1.25-.11.88-3,3-1.31-1.31L30,26l-.8.79L27,24.57l2.47,3.29-.67.67.68.69-.11.1h0l-.1.11-.69-.68-.67.67L24.57,27l2.26,2.26L26,30l-.72-.7,1.31,1.31-3,3-.88.11-1.25-1.25L21.88,26l-2.3-2.24-6.86,6.86-2.29-2.29,1.09-11.37-.31-.31A36.29,36.29,0,0,1,9,12.79c-.37-.61-.85-1.39-1.13-1.76S5.62,8.41,5.43,8.11,5,7.21,5,7.21a25.54,25.54,0,0,1-2-2.55A17.92,17.92,0,0,1,1.31,1.31h0m0-.89A.89.89,0,0,0,.47,1.6,19.07,19.07,0,0,0,2.2,5.15a24.37,24.37,0,0,0,2,2.55c.1.21.3.62.46.89s.59.75,1.63,2l.82,1c.2.26.56.82,1.07,1.68.1.16.27.48.48.87a19.14,19.14,0,0,0,1.9,3.11l0,0-1,11a.86.86,0,0,0,.25.71l2.29,2.28a.88.88,0,0,0,1.25,0L19.58,25,21,26.31l-.32,6.09a.89.89,0,0,0,.26.67l1.25,1.25a.89.89,0,0,0,.63.26h.11l.88-.1a.93.93,0,0,0,.51-.26l3-3a.88.88,0,0,0,.14-1.07.93.93,0,0,0,.46.12.85.85,0,0,0,.63-.26l0,0,.06.06a.88.88,0,0,0,1.25,0L30,30l.11-.11a.88.88,0,0,0,0-1.25L30,28.53l0,0a.88.88,0,0,0,.14-1.09.86.86,0,0,0,.44.12.93.93,0,0,0,.63-.26l3-3a.93.93,0,0,0,.26-.51l.1-.88a.86.86,0,0,0-.25-.74l-1.25-1.25a.92.92,0,0,0-.63-.26h0L26.31,21,25,19.58l6.24-6.24a.88.88,0,0,0,0-1.25L28.91,9.8a.89.89,0,0,0-.63-.26H28.2l-10.95,1,0,0a19.14,19.14,0,0,0-3.11-1.9c-.39-.21-.71-.38-.87-.48-.86-.51-1.42-.87-1.68-1.07l-1-.82c-1.24-1-1.79-1.5-2-1.63s-.68-.36-.89-.46a24.37,24.37,0,0,0-2.55-2A18.76,18.76,0,0,0,1.6.47a.93.93,0,0,0-.29,0Z"/><path class="cls-3" d="M16.91,11.52l-.31-.31A36.29,36.29,0,0,0,12.79,9l-.39-.23a5.89,5.89,0,0,1-.09,2.9,22.57,22.57,0,0,1-2.62,2.48,15.93,15.93,0,0,0,1.52,2.49l.31.31L10.43,28.28l2.29,2.29,2-2a5.23,5.23,0,0,1-.32-2.46c.3-2.13,2.72-3,3.93-4.18s2.22-5.48,2.35-8.7a7.82,7.82,0,0,0-.25-2Z"/><path class="cls-4" d="M28.28,10.43,25,10.74a2.6,2.6,0,0,0,0,.56A6.61,6.61,0,0,0,27,14.81c.16.13.52.37.9.62l2.72-2.71Z"/><path class="cls-3" d="M29.1,28.66l.5-.75L29.18,27l.84-.84.67.6L34,23.45l.12-.93L32.82,21.2l-6.89.36-1.68-1.72a4.44,4.44,0,0,0-.73,1c-.67,1.29-.27,3.46-1.11,4.75-.26.4-.54.82-.86,1.28l-.31,5.94,1.33,1.33L23.5,34l3.33-3.28-.63-.65.89-.76.86.26.74-.45.52.51.29-.16h0l.12-.11Z"/><path class="cls-5" d="M4.66,2.94A17.92,17.92,0,0,0,1.31,1.31h0A17.92,17.92,0,0,0,2.94,4.66c.21.31.44.63.68.94l2-2C5.29,3.38,5,3.15,4.66,2.94Z"/><polyline class="cls-2" points="28.89 28.6 29.76 27.44 26.95 24.57 24.57 26.95 27.63 29.9 28.68 28.98"/><path class="cls-6" d="M28.39,28.86,27,27.45l-.21.21-4-4.05a12.47,12.47,0,0,1-2.34-1.54l-6.72-6.66-1.26-1.26,1.73-1.73,1.26,1.26,6.66,6.72a13.28,13.28,0,0,1,1.57,2.38l4,4-.21.2,1.42,1.43.95.53-.17.64-.48.26Z"/><path class="cls-1" d="M14.15,12.67l1.14,1.14,6.65,6.71a14,14,0,0,1,1.55,2.34l3.91,3.92-.2.21,1.55,1.54.87.5-.12.43-.29.16-.68-.87L27,27.2l-.21.2-3.92-3.91a14,14,0,0,1-2.34-1.55l-6.71-6.65-1.14-1.14.74-.74.74-.74m0-.5-.25.25-.74.74-.74.74-.25.25.25.25,1.14,1.14,6.71,6.65a13.69,13.69,0,0,0,2.38,1.59l3.88,3.88.25.25L27,27.7,28.28,29l.65.83.19.24.26-.14.29-.16.14-.07,0-.15.11-.43.07-.27-.24-.13L29,28.25,27.7,27l.21-.21-.25-.25-3.88-3.88a13.69,13.69,0,0,0-1.59-2.38l-6.65-6.71L14.4,12.42l-.25-.25Z"/><path class="cls-2" d="M10.38,8.9,8.69,7.21A9.39,9.39,0,0,0,6.36,5.7L6,6l-.33.33A9.39,9.39,0,0,0,7.21,8.69L8.9,10.38Z"/><path class="cls-2" d="M9,10.5l3.65,3.65a1.2,1.2,0,0,0,1.48-1.48L10.5,9Z"/><path class="cls-6" d="M22.4,19.74a9.12,9.12,0,0,1-1.17-.86c-.73-.67-9-8.74-9-8.82l-.59-.58.77.29A23.84,23.84,0,0,1,17.11,12c.66.55,3.25,3.1,5.54,5.35l1.12,1.1-1.24,1.35Z"/><path class="cls-1" d="M12.3,9.93A24.43,24.43,0,0,1,17,12.16c.75.62,4.08,3.91,6.53,6.32l-1,1.11a9.66,9.66,0,0,1-1.15-.84c-.74-.68-9-8.82-9-8.82M10.88,9l1.18,1.15c.34.33,8.31,8.15,9,8.82a9.36,9.36,0,0,0,1.19.88l.26.16.2-.22,1-1.11.23-.25-.25-.24-1-1c-2.3-2.26-4.91-4.82-5.58-5.38A24.08,24.08,0,0,0,12.43,9.6L10.88,9Z"/><path class="cls-6" d="M17.34,22.62c-2.24-2.27-4.78-4.85-5.32-5.51a23.84,23.84,0,0,1-2.25-4.75l-.29-.77.58.59c.08.08,8.15,8.32,8.82,9.05a10.44,10.44,0,0,1,.86,1.17l.08.13-1.35,1.24Z"/><path class="cls-1" d="M9.93,12.3s8.14,8.31,8.82,9.05a9.66,9.66,0,0,1,.84,1.15l-1.11,1c-2.41-2.45-5.7-5.78-6.32-6.53a24.43,24.43,0,0,1-2.23-4.7M9,10.88l.56,1.55a24.08,24.08,0,0,0,2.28,4.79c.56.67,3.12,3.28,5.38,5.58l1,1,.24.25.25-.23,1.11-1,.22-.2-.16-.26A9.36,9.36,0,0,0,19,21.11c-.67-.74-8.49-8.71-8.82-9L9,10.88Z"/><path class="cls-2" d="M1.31,1.31h0A17.92,17.92,0,0,1,4.66,2.94,25.54,25.54,0,0,1,7.21,5s.6.28.9.47S10.66,7.54,11,7.83s1.15.76,1.76,1.13a36.29,36.29,0,0,1,3.81,2.25l.31.31,11.37-1.09,2.29,2.29-6.86,6.86L26,21.88l6.49-.34,1.25,1.25-.11.88-3,3L30,26l-.8.79L27,24.57l2.47,3.29-.67.67.68.69-.11.1h0l-.1.11-.69-.68-.67.67L24.57,27l2.26,2.26L26,30l.59.61-3,3-.88.11-1.25-1.25L21.88,26l-2.3-2.24-6.86,6.86-2.29-2.29,1.09-11.37-.31-.31A36.29,36.29,0,0,1,9,12.79c-.37-.61-.85-1.39-1.13-1.76S5.62,8.41,5.43,8.11,5,7.21,5,7.21a25.54,25.54,0,0,1-2-2.55A17.92,17.92,0,0,1,1.31,1.31h0m0-.89A.89.89,0,0,0,.47,1.6,19.07,19.07,0,0,0,2.2,5.15a24.37,24.37,0,0,0,2,2.55c.1.21.3.62.46.89s.59.75,1.63,2l.82,1c.2.26.56.82,1.07,1.68.1.16.27.48.48.87a19.14,19.14,0,0,0,1.9,3.11l0,0-1,11a.86.86,0,0,0,.25.71l2.29,2.28a.88.88,0,0,0,1.25,0L19.58,25,21,26.31l-.32,6.09a.89.89,0,0,0,.26.67l1.25,1.25a.89.89,0,0,0,.63.26h.11l.88-.1a.93.93,0,0,0,.51-.26l3-3a.88.88,0,0,0,.14-1.07.93.93,0,0,0,.46.12.85.85,0,0,0,.63-.26l0,0,.06.06a.88.88,0,0,0,1.25,0L30,30l.11-.11a.88.88,0,0,0,0-1.25L30,28.53l0,0a.88.88,0,0,0,.14-1.09.86.86,0,0,0,.44.12.91.91,0,0,0,.63-.26l3-3a.93.93,0,0,0,.26-.51l.1-.88a.86.86,0,0,0-.25-.74l-1.25-1.25a.92.92,0,0,0-.63-.26h0L26.31,21,25,19.58l6.24-6.24a.88.88,0,0,0,0-1.25L28.91,9.8a.89.89,0,0,0-.63-.26H28.2l-10.95,1,0,0a19.14,19.14,0,0,0-3.11-1.9c-.39-.21-.71-.38-.87-.48-.86-.51-1.42-.87-1.68-1.07l-1-.82c-1.24-1-1.79-1.5-2-1.63s-.68-.36-.89-.46a24.37,24.37,0,0,0-2.55-2A18.76,18.76,0,0,0,1.6.47a.93.93,0,0,0-.29,0Z"/><rect class="cls-2" x="10.1" y="25.1" width="0.44" height="8.07" transform="translate(-17.58 15.83) rotate(-45)"/><rect class="cls-2" x="28.91" y="6.28" width="0.44" height="8.07" transform="translate(1.24 23.62) rotate(-45)"/><path class="cls-7" d="M12.51,14.24a1.24,1.24,0,0,0,1.36-.37,1.24,1.24,0,0,0,.37-1.36"/></svg>