<svg id="Layer_1" data-name="Layer 1" xmlns="http://www.w3.org/2000/svg" viewBox="0 0 35 35.55"><defs><style>.cls-1{fill:#cae0e0;}.cls-2{fill:#596b6a;}.cls-3{fill:#a8c1c0;}</style></defs><title>tzufit</title><path class="cls-1" d="M25.2,34.93a.36.36,0,0,1-.26-.11L24.13,34a1,1,0,0,1-.31-1.08c.08-.23,1.61-3.76,2.14-5-1.26-.95-7-5.36-8.42-6.74l-.4-.4h-.23l-3.3,3.3L4.69,30.47a3.15,3.15,0,0,1,.76,1.41.37.37,0,0,1-.36.44H5a3.24,3.24,0,0,1-1.62-1L1.59,29.55a3.33,3.33,0,0,1-.95-1.62.34.34,0,0,1,.1-.33A.36.36,0,0,1,1,27.49h.07a3.3,3.3,0,0,1,1.57.9c.68-.73,4.35-4.77,6.36-7L9.55,20,7.48,17.94c-.82-.81-1.65-2.26-1.15-2.77A.59.59,0,0,1,6.76,15a4.09,4.09,0,0,1,2.34,1.3l2.27,2.26,1.7-1.94L12,15.52c-1.87-1.87-4.1-5.39-3.24-6.25a.77.77,0,0,1,.56-.2c1.15,0,3.91,1.67,5.68,3.44l1.12,1.11,2-1.7L15.76,9.66c-.81-.82-1.65-2.27-1.14-2.77A.54.54,0,0,1,15,6.73,4.17,4.17,0,0,1,17.39,8l2.07,2.07,1.39-.54,7-6.36a3.38,3.38,0,0,1-.91-1.58.4.4,0,0,1,.1-.33.39.39,0,0,1,.27-.11h.06a3.41,3.41,0,0,1,1.63,1L30.8,4a3.41,3.41,0,0,1,1,1.63.4.4,0,0,1-.1.33.37.37,0,0,1-.26.1h-.07a3.28,3.28,0,0,1-1.42-.76L23.6,14.12l-3.34,3.35v.23l.4.4c1.37,1.37,5.78,7.16,6.74,8.41,1.22-.53,4.75-2.06,5-2.13a1,1,0,0,1,1.08.3l.81.81a.36.36,0,0,1,.11.29.4.4,0,0,1-.14.27l-4.44,3.42a4,4,0,0,1,.33.74.37.37,0,0,1-.1.37.36.36,0,0,1-.26.11l-.11,0a4.09,4.09,0,0,1-.73-.32c-.81,1-3.43,4.43-3.43,4.43a.32.32,0,0,1-.27.14Z"/><path class="cls-2" d="M27.31,1.55a3,3,0,0,1,1.43.86l1.8,1.8a3,3,0,0,1,.86,1.43A3.07,3.07,0,0,1,30,4.79l-.1-.1L23.3,13.91l-3.41,3.4v.54l.52.51C21.91,19.87,27.28,27,27.28,27s5-2.16,5.21-2.24a.57.57,0,0,1,.22,0,.68.68,0,0,1,.48.26l.81.81L29.28,29.4a2.81,2.81,0,0,1,.48.92h0a2.7,2.7,0,0,1-.92-.49L25.2,34.55l-.81-.81a.6.6,0,0,1-.22-.7c.09-.24,2.25-5.21,2.25-5.21S19.32,22.46,17.8,21c-.16-.16-.33-.34-.51-.51h-.53l-3.41,3.4L4.13,30.42l.1.1A3,3,0,0,1,5.09,32a3,3,0,0,1-1.43-.85L1.85,29.29A3,3,0,0,1,1,27.86a3,3,0,0,1,1.43.86l.24.24a.92.92,0,0,1,.13-.19c.31-.3,6.52-7.16,6.52-7.16L10,19.93,7.74,17.68c-.94-.93-1.34-2-1.15-2.25a.25.25,0,0,1,.17,0,3.86,3.86,0,0,1,2.08,1.19l2.55,2.54,2.18-2.5-1.35-1.36C10.16,13.2,8.47,10.05,9,9.53a.41.41,0,0,1,.3-.09c1,0,3.61,1.53,5.42,3.33.45.46.91.91,1.37,1.35l2.5-2.18L16,9.4c-.93-.94-1.33-2.06-1.14-2.25A.23.23,0,0,1,15,7.1a3.91,3.91,0,0,1,2.09,1.19l2.24,2.25,1.68-.66s6.86-6.22,7.17-6.52a.41.41,0,0,1,.18-.13L28.16,3a3.07,3.07,0,0,1-.85-1.44m0-.74a.75.75,0,0,0-.53.22.73.73,0,0,0-.2.66,3.48,3.48,0,0,0,.75,1.48L20.65,9.24l-1.1.43-1.9-1.9A4.47,4.47,0,0,0,15,6.36a.92.92,0,0,0-.68.26c-.74.74.25,2.4,1.14,3.3l2,2L16.1,13.12l-.88-.87C13.37,10.39,10.53,8.7,9.28,8.7A1.15,1.15,0,0,0,8.45,9c-1.24,1.24,1.82,5.34,3.24,6.77l.87.87L11.35,18l-2-2a4.45,4.45,0,0,0-2.6-1.41,1,1,0,0,0-.69.26c-.73.73.25,2.4,1.14,3.3l1.91,1.9-.44,1.1L2.62,27.89a3.52,3.52,0,0,0-1.49-.76H1a.74.74,0,0,0-.52.22A.72.72,0,0,0,.27,28a3.81,3.81,0,0,0,1.06,1.83l1.8,1.8A3.81,3.81,0,0,0,5,32.68h.13a.75.75,0,0,0,.73-.87,3.58,3.58,0,0,0-.59-1.28l8.55-6.08.09-.08L17,21.22l.25.25c1.32,1.32,6.61,5.37,8.22,6.6-.72,1.67-1.95,4.52-2,4.74a1.33,1.33,0,0,0,.4,1.46l.81.81a.73.73,0,0,0,.52.22h.05a.72.72,0,0,0,.54-.28L29,30.82a3,3,0,0,0,.53.2.52.52,0,0,0,.21,0,.74.74,0,0,0,.72-.91,3.18,3.18,0,0,0-.22-.58l4.19-3.23a.72.72,0,0,0,.29-.54.76.76,0,0,0-.22-.57l-.81-.81a1.45,1.45,0,0,0-1-.47,1.28,1.28,0,0,0-.46.08c-.22.07-3.06,1.3-4.73,2-1.23-1.62-5.28-6.9-6.6-8.22l-.25-.26,3.15-3.15a.39.39,0,0,0,.08-.1L30,5.78a3.26,3.26,0,0,0,1.27.59h.14a.73.73,0,0,0,.72-.87,3.61,3.61,0,0,0-1.06-1.82l-1.8-1.8A3.61,3.61,0,0,0,27.44.83l-.13,0Z"/><path class="cls-2" d="M12.22,12.88l.69.69-.42.43a1.39,1.39,0,0,0-.31.71l-.73-.5a1,1,0,0,1,.2-.75Z"/><polygon class="cls-2" points="11.62 14.38 12.14 14.74 12.03 14.85 11.62 14.38"/><ellipse class="cls-2" cx="12.45" cy="15.34" rx="0.13" ry="0.48" transform="translate(-7.2 13.3) rotate(-45)"/><ellipse class="cls-2" cx="14.27" cy="17.15" rx="0.13" ry="0.48" transform="translate(-7.95 15.11) rotate(-45)"/><ellipse class="cls-2" cx="15.06" cy="17.94" rx="0.13" ry="0.48" transform="translate(-8.28 15.9) rotate(-45)"/><ellipse class="cls-2" cx="15.85" cy="18.73" rx="0.13" ry="0.48" transform="translate(-8.6 16.7) rotate(-45)"/><ellipse class="cls-2" cx="16.64" cy="19.53" rx="0.13" ry="0.48" transform="translate(-8.93 17.49) rotate(-45)"/><ellipse class="cls-2" cx="17.44" cy="20.32" rx="0.13" ry="0.48" transform="translate(-9.26 18.28) rotate(-45)"/><ellipse class="cls-2" cx="20.4" cy="23" rx="0.13" ry="0.48" transform="translate(-10.29 21.16) rotate(-45)"/><rect class="cls-2" x="4.69" y="15.7" width="4.57" height="0.21" transform="translate(-9.14 9.56) rotate(-45)"/><path class="cls-2" d="M12.33,12.77l.68.69.44-.42a1.41,1.41,0,0,1,.7-.3l-.5-.73a1,1,0,0,0-.74.2Z"/><polygon class="cls-2" points="13.83 12.17 14.19 12.69 14.3 12.59 13.83 12.17"/><ellipse class="cls-2" cx="14.78" cy="13.01" rx="0.13" ry="0.48" transform="translate(-4.87 14.26) rotate(-45)"/><ellipse class="cls-2" cx="16.59" cy="14.82" rx="0.13" ry="0.48" transform="translate(-5.62 16.07) rotate(-45)"/><ellipse class="cls-2" cx="17.39" cy="15.61" rx="0.13" ry="0.48" transform="translate(-5.95 16.87) rotate(-45)"/><ellipse class="cls-2" cx="18.18" cy="16.41" rx="0.13" ry="0.48" transform="translate(-6.28 17.66) rotate(-45)"/><ellipse class="cls-2" cx="18.97" cy="17.2" rx="0.13" ry="0.48" transform="translate(-6.6 18.45) rotate(-45)"/><ellipse class="cls-2" cx="19.76" cy="17.99" rx="0.13" ry="0.48" transform="translate(-6.93 19.25) rotate(-45)"/><ellipse class="cls-2" cx="22.44" cy="20.95" rx="0.13" ry="0.48" transform="translate(-8.24 22.01) rotate(-45)"/><path class="cls-1" d="M9.32,21.61S3.11,28.47,2.8,28.77a.41.41,0,0,0,0,.65l1.14,1.13,9.41-6.7Z"/><path class="cls-1" d="M23.3,13.91,30,4.49,28.86,3.36a.4.4,0,0,0-.64,0c-.31.3-7.17,6.52-7.17,6.52Z"/><path class="cls-3" d="M11.39,19.12,8.84,16.58c-.94-.94-2-1.34-2.25-1.15l4.24,4.25Z"/><path class="cls-3" d="M18.57,11.94,16,9.4c-.93-.94-1.33-2.06-1.14-2.25l4.24,4.24Z"/><rect class="cls-2" x="12.97" y="7.42" width="4.57" height="0.21" transform="translate(31.37 2.06) rotate(135)"/><path class="cls-2" d="M16.15,7.26,15,8.42c-.42-.76-.55-1.39-.39-1.55S15.39,6.84,16.15,7.26Z"/><path class="cls-2" d="M8.76,9.32c-.21.21-.14.76.13,1.5l1.37-1.37C9.52,9.17,9,9.1,8.76,9.32Z"/><path class="cls-1" d="M5.09,32a3,3,0,0,0-.86-1.43l-1.8-1.8A3,3,0,0,0,1,27.86Z"/><path class="cls-1" d="M27.31,1.55A3.07,3.07,0,0,0,28.16,3L30,4.79a3.07,3.07,0,0,0,1.44.85Z"/><path class="cls-2" d="M6.75,16.67l1.08-1.08c-.71-.39-1.3-.52-1.45-.37S6.36,16,6.75,16.67Z"/></svg>