<svg id="Layer_1" data-name="Layer 1" xmlns="http://www.w3.org/2000/svg" viewBox="0 0 35 37"><defs><style>.cls-1{fill:#ede2b2;}.cls-2{fill:#596b6a;}.cls-3{fill:#dbcf9e;}.cls-4{fill:none;stroke:#ede2b2;stroke-miterlimit:10;stroke-width:0.4px;}</style></defs><title>yanshuf</title><path class="cls-1" d="M26.86,34.62a2,2,0,0,1-1-.55s-.72-.77-.42-1.18c0-.08,1.54-1.84,2.37-2.83C26.55,28.91,21,23.85,20.11,23l-.53.08h-.06a.32.32,0,0,1-.24-.11L19,22.75l-1.25.19h-.05a.35.35,0,0,1-.24-.1l-3.68-3.68a.33.33,0,0,1-.05-.42l-.07-.07a.27.27,0,0,1-.18.05h0a.31.31,0,0,1-.24-.1l-.2-.19a.39.39,0,0,1-.1-.25A.34.34,0,0,1,13,18l-2.79-2.79a6.39,6.39,0,0,1-2-3.19,2.16,2.16,0,0,1,.62-1.94,2.12,2.12,0,0,1,1.55-.65c1,0,2.24.68,3.58,2l2.79,2.79a.26.26,0,0,1,.17,0,.35.35,0,0,1,.25.1l.19.2a.33.33,0,0,1,.06.42l.06.06a.41.41,0,0,1,.18-.05.36.36,0,0,1,.25.11l3.67,3.67a.34.34,0,0,1,.1.3l-.2,1.25.24.23a.35.35,0,0,1,.09.31s-.05.3-.08.53c.85.91,5.91,6.43,7.06,7.69l2.83-2.37a.51.51,0,0,1,.24-.07,1.74,1.74,0,0,1,.94.5s.84.88.43,1.29l-2.16,2.41.06.06a1.15,1.15,0,0,1,.21.8l.3.3A1.29,1.29,0,0,1,32,33a.35.35,0,0,1-.31.31h0a1.37,1.37,0,0,1-1-.35l-.3-.31H30.3a1.05,1.05,0,0,1-.67-.21l-.07-.06L27.15,34.5A.5.5,0,0,1,26.86,34.62Z"/><path class="cls-2" d="M10.42,9.79c.8,0,1.88.47,3.34,1.92l3,3,.18-.19.2.2-.18.18.54.55.18-.19,3.46,3.45.22.23-.23,1.42.36.36s-.08.48-.1.71c.25.25,7.39,8.05,7.39,8.05l3.06-2.57h0a1.54,1.54,0,0,1,.7.41c.22.22.52.71.43.8s-2.4,2.66-2.4,2.66l.3.3a.72.72,0,0,1,.06.65l.45.45a1,1,0,0,1,.26.73h-.06a1,1,0,0,1-.66-.26l-.46-.45a.37.37,0,0,1-.22.05.82.82,0,0,1-.43-.11l-.29-.3s-2.59,2.31-2.67,2.4h-.05a1.76,1.76,0,0,1-.75-.44c-.22-.22-.46-.65-.39-.74S28.28,30,28.28,30s-7.8-7.14-8-7.39c-.23,0-.71.1-.71.1l-.36-.36-1.42.22-.22-.22-3.46-3.45.19-.19-.54-.54-.19.19-.19-.2.18-.18-3-3C8,12.48,8.4,11.05,9.11,10.34a1.81,1.81,0,0,1,1.31-.55m0-.69h0a2.57,2.57,0,0,0-2.51,3A6.49,6.49,0,0,0,10,15.47l2.64,2.64a.68.68,0,0,0,.2.57l.19.2a.74.74,0,0,0,.36.19.66.66,0,0,0,.18.35L17,22.87l.22.22a.7.7,0,0,0,.49.2h.11l1.07-.17.11.11a.7.7,0,0,0,.49.2h.12l.35-.06,7.34,6.73c-2.11,2.5-2.16,2.57-2.18,2.6-.47.67.43,1.59.47,1.63a2.4,2.4,0,0,0,1.24.64.75.75,0,0,0,.54-.21c.08-.09,1.22-1.11,2.17-2a1.58,1.58,0,0,0,.72.17l.2.2a1.66,1.66,0,0,0,1.15.46h.12a.7.7,0,0,0,.63-.62,1.71,1.71,0,0,0-.46-1.27l-.2-.2a.86.86,0,0,0,0-.16,1.45,1.45,0,0,0-.16-.56l2-2.18c.28-.28.29-.68,0-1.17a2.82,2.82,0,0,0-.44-.6,2.09,2.09,0,0,0-1.19-.61.88.88,0,0,0-.44.14s-.1.07-2.6,2.18c-1.47-1.62-5.67-6.2-6.72-7.34,0-.12,0-.26.05-.35a.69.69,0,0,0-.19-.61l-.11-.11.17-1.08a.71.71,0,0,0-.19-.59l-.23-.22L18.19,14.8a.71.71,0,0,0-.35-.19.71.71,0,0,0-.19-.35l-.2-.2a.7.7,0,0,0-.49-.2h-.07l-.73-.73-1.92-1.91C12.83,9.82,11.55,9.1,10.42,9.1Z"/><path class="cls-3" d="M17.26,14.72s-2.33-2-3.51-3.13A7.48,7.48,0,0,0,11.26,9.8c.2,1.22.43,3.08.1,3.59a9.67,9.67,0,0,1-1.29,1.26c.1.1.19.21.3.31,1.19,1.19,2.93,3.31,2.93,3.31l3.16,3.16a14.63,14.63,0,0,0,1.61-5.9Z"/><path class="cls-3" d="M21.57,20.74l-.38-.37.08-.51a4,4,0,0,0-.9,1.07A5.19,5.19,0,0,0,20,22.74l.24,0c.17.17,3.82,3.51,6.25,5.74l.46-1c-2.21-2.42-5.31-5.8-5.48-6C21.48,21.24,21.57,20.74,21.57,20.74Z"/><rect class="cls-2" x="30.75" y="26.51" width="0.24" height="7.2" transform="translate(-12.25 30.65) rotate(-45)"/><path class="cls-2" d="M14.25,18.74l.44-.44-1.25-1.25a.29.29,0,0,0,0,.38L14,18l-.27.27Z"/><polygon class="cls-2" points="17.52 22.38 17.74 22.6 19.18 22.38 18.98 22.17 17.52 22.38"/><rect class="cls-2" x="11.69" y="17.02" width="0.51" height="1.51" rx="0.25" ry="0.25" transform="translate(-9.07 13.65) rotate(-45)"/><path class="cls-2" d="M11.86,13.79l-.69-.68s0,0,0,0l-.56.55a.56.56,0,0,0,0,.79l.3.29Z"/><path class="cls-2" d="M10.55,15.1l.21-.21L10,14.17,9.57,14a7.9,7.9,0,0,0,.89,1Z"/><path class="cls-2" d="M17.52,15.48l-.45.44-1.25-1.26a.28.28,0,0,1,.38,0l.52.52L17,15Z"/><rect class="cls-3" x="13.26" y="17.73" width="1.18" height="0.3" transform="translate(-8.59 15.03) rotate(-45)"/><rect class="cls-3" x="16.06" y="14.93" width="1.18" height="0.3" transform="translate(-5.78 16.19) rotate(-45)"/><polygon class="cls-2" points="21.16 18.75 21.38 18.97 21.15 20.41 20.95 20.21 21.16 18.75"/><rect class="cls-2" x="16.29" y="12.42" width="0.51" height="1.51" rx="0.25" ry="0.25" transform="translate(37.57 10.79) rotate(135)"/><path class="cls-2" d="M12.56,13.09l-.68-.69,0,0,.56-.56a.54.54,0,0,1,.78,0l.3.29Z"/><path class="cls-2" d="M13.85,11.8l-.21.21-.72-.72-.18-.46a10.56,10.56,0,0,1,1,.88Z"/><circle class="cls-2" cx="15.83" cy="17.06" r="0.83"/><rect class="cls-2" x="13.09" y="16.93" width="5.49" height="0.25" transform="translate(-6.05 9.13) rotate(-27.21)"/><polygon class="cls-2" points="17.54 16.04 27.68 10.83 28.06 11.57 18.43 16.52 17.54 16.04"/><polygon class="cls-2" points="27.68 10.83 28.06 11.57 29.01 11.39 28.63 10.65 27.68 10.83"/><polygon class="cls-2" points="14.13 18.08 3.99 23.3 3.61 22.55 13.23 17.6 14.13 18.08"/><polygon class="cls-2" points="3.99 23.3 3.61 22.55 2.65 22.73 3.04 23.47 3.99 23.3"/><rect class="cls-2" x="13.09" y="16.93" width="5.49" height="0.25" transform="translate(7.9 38.94) rotate(-117.21)"/><polygon class="cls-2" points="14.81 15.36 9.6 5.21 10.34 4.83 15.29 14.46 14.81 15.36"/><polygon class="cls-2" points="9.6 5.21 10.34 4.83 10.16 3.88 9.42 4.26 9.6 5.21"/><polygon class="cls-2" points="16.85 18.77 22.07 28.91 21.32 29.29 16.38 19.66 16.85 18.77"/><polygon class="cls-2" points="22.07 28.91 21.32 29.29 21.5 30.24 22.24 29.86 22.07 28.91"/><path class="cls-2" d="M10.27,12.18l-.26.26a2.48,2.48,0,0,0-.54,1.11l.71.33a.64.64,0,0,1,.2-.35c.15-.17.39-.41.61-.62Z"/><path class="cls-2" d="M11.21,11.24,11,11.5l.72.72.62-.62a.66.66,0,0,1,.35-.19l-.32-.71A2.38,2.38,0,0,0,11.21,11.24Z"/><path class="cls-2" d="M10.86,11.59l-.25.25-.24.25.72.72.24-.25.25-.24Z"/><path class="cls-2" d="M10.42,9.79c.8,0,1.88.47,3.34,1.92l3,3,.18-.19.2.2-.18.18.54.55.18-.19,3.46,3.45.22.23-.23,1.42.36.36s-.08.48-.1.71c.25.25,7.39,8.05,7.39,8.05l3.06-2.57h0a1.54,1.54,0,0,1,.7.41c.22.22.52.71.43.8s-2.4,2.66-2.4,2.66l.3.3a.72.72,0,0,1,.06.65l.45.45a1,1,0,0,1,.26.73h-.06a1,1,0,0,1-.66-.26l-.46-.45a.37.37,0,0,1-.22.05.82.82,0,0,1-.43-.11l-.29-.3s-2.59,2.31-2.67,2.4h-.05a1.76,1.76,0,0,1-.75-.44c-.22-.22-.46-.65-.39-.74S28.28,30,28.28,30s-7.8-7.14-8-7.39c-.23,0-.71.1-.71.1l-.36-.36-1.42.22-.22-.22-3.46-3.45.19-.19-.54-.54-.19.19-.19-.2.18-.18-3-3C8,12.48,8.4,11.05,9.11,10.34a1.81,1.81,0,0,1,1.31-.55m0-.69h0a2.57,2.57,0,0,0-2.51,3A6.49,6.49,0,0,0,10,15.47l2.64,2.64a.68.68,0,0,0,.2.57l.19.2a.74.74,0,0,0,.36.19.66.66,0,0,0,.18.35L17,22.87l.22.22a.7.7,0,0,0,.49.2h.11l1.07-.17.11.11a.7.7,0,0,0,.49.2h.12l.35-.06,7.34,6.73c-2.11,2.5-2.16,2.57-2.18,2.6-.47.67.43,1.59.47,1.63a2.4,2.4,0,0,0,1.24.64.75.75,0,0,0,.54-.21c.08-.09,1.22-1.11,2.17-2a1.58,1.58,0,0,0,.72.17l.2.2a1.66,1.66,0,0,0,1.15.46h.12a.7.7,0,0,0,.63-.62,1.71,1.71,0,0,0-.46-1.27l-.2-.2a.86.86,0,0,0,0-.16,1.45,1.45,0,0,0-.16-.56l2-2.18c.28-.28.29-.68,0-1.17a2.82,2.82,0,0,0-.44-.6,2.09,2.09,0,0,0-1.19-.61.88.88,0,0,0-.44.14s-.1.07-2.6,2.18c-1.47-1.62-5.67-6.2-6.72-7.34,0-.12,0-.26.05-.35a.69.69,0,0,0-.19-.61l-.11-.11.17-1.08a.71.71,0,0,0-.19-.59l-.23-.22L18.19,14.8a.71.71,0,0,0-.35-.19.71.71,0,0,0-.19-.35l-.2-.2a.7.7,0,0,0-.49-.2h-.07l-.73-.73-1.92-1.91C12.83,9.82,11.55,9.1,10.42,9.1Z"/><circle class="cls-4" cx="15.83" cy="17.06" r="14.33"/></svg>