<svg id="Layer_1" data-name="Layer 1" xmlns="http://www.w3.org/2000/svg" viewBox="0 0 35 37"><defs><style>.cls-1{fill:#dbcf9e;}.cls-2{fill:#596b6a;}.cls-3{fill:none;stroke:#ede2b2;stroke-miterlimit:10;stroke-width:0.4px;}</style></defs><title>yasur</title><path class="cls-1" d="M16.56,25.29a.37.37,0,0,1-.25-.1l-.25-.26a.34.34,0,0,1,0-.49l.16-.16L16,24.1l-5.9-5.9a3.09,3.09,0,0,1-.6-.83c-.23-.5-.07-.77,0-.88a.55.55,0,0,1,.42-.16,2.15,2.15,0,0,1,1.3.72l5.9,5.9a1.54,1.54,0,0,1,.17.19l.17-.17a.35.35,0,0,1,.24-.1h0A.39.39,0,0,1,18,23l.25.26a.34.34,0,0,1,0,.49l-.38.37a.61.61,0,0,1-.14.57.57.57,0,0,1-.42.16h-.15l-.38.38a.35.35,0,0,1-.24.1Z"/><path class="cls-2" d="M10,16.67a1.88,1.88,0,0,1,1,.62l5.9,5.9a3.12,3.12,0,0,1,.39.47l.44-.44.26.25-.52.52c.07.19.08.35,0,.43a.24.24,0,0,1-.17.06.65.65,0,0,1-.25-.06l-.52.52-.26-.25.44-.45a3.08,3.08,0,0,1-.46-.38L10.38,18c-.5-.5-.75-1.05-.56-1.23a.24.24,0,0,1,.17-.06M10,16a.91.91,0,0,0-.66.26,1.07,1.07,0,0,0-.12,1.28,3.44,3.44,0,0,0,.68.93l5.84,5.84a.7.7,0,0,0,.08.88l.26.26a.68.68,0,0,0,.49.2.7.7,0,0,0,.49-.2l.26-.26h0a.89.89,0,0,0,.92-1l.26-.26a.69.69,0,0,0,.21-.49.71.71,0,0,0-.21-.49l-.25-.25a.7.7,0,0,0-.88-.08L11.53,16.8A2.59,2.59,0,0,0,10,16Z"/><path class="cls-1" d="M23.08,18.77a.32.32,0,0,1-.24-.11l-.26-.25a.36.36,0,0,1,0-.49l.17-.17a1.54,1.54,0,0,1-.19-.17l-5.9-5.9a2.1,2.1,0,0,1-.73-1.3A.57.57,0,0,1,16.1,10a.56.56,0,0,1,.41-.16,2.1,2.1,0,0,1,1.3.73l5.9,5.9.17.18.17-.16a.34.34,0,0,1,.24-.1.35.35,0,0,1,.25.1l.25.26a.32.32,0,0,1,0,.48l-.37.38a.61.61,0,0,1-.15.57.56.56,0,0,1-.41.16H23.7l-.38.37A.32.32,0,0,1,23.08,18.77Z"/><path class="cls-2" d="M16.51,10.15a1.88,1.88,0,0,1,1,.62l5.9,5.9a2.37,2.37,0,0,1,.39.47l.44-.45.26.26-.52.52c.07.19.08.34,0,.43a.24.24,0,0,1-.17.06.69.69,0,0,1-.26-.06l-.52.52-.26-.26.45-.44a2.37,2.37,0,0,1-.47-.39l-5.9-5.9c-.49-.49-.74-1-.56-1.22a.24.24,0,0,1,.17-.06m0-.69a.91.91,0,0,0-.66.26A1.06,1.06,0,0,0,15.74,11a3.3,3.3,0,0,0,.67.93l5.85,5.85a.68.68,0,0,0,.08.88l.25.26a.7.7,0,0,0,1,0l.26-.26h0a.94.94,0,0,0,.66-.27,1,1,0,0,0,.26-.68l.26-.26a.7.7,0,0,0,0-1l-.26-.25a.67.67,0,0,0-.49-.21.65.65,0,0,0-.39.13l-5.85-5.85a2.51,2.51,0,0,0-1.54-.82Z"/><path class="cls-1" d="M30.18,33a.35.35,0,0,1-.28-.14l-.31-.41a.35.35,0,0,1,0-.39l.27-.44L28.15,30a19,19,0,0,1-5.09-3.07l-4.22-4.22-.62.58a.33.33,0,0,1-.23.09l-.14,0-.13-.06-.14.11a.34.34,0,0,1-.46,0l-5-5.05a.76.76,0,0,1-.25-.55.72.72,0,0,1,.06-.29l-.6-.59h-.13a.38.38,0,0,1-.29-.15L9.72,15.06a.36.36,0,0,1,0-.44l.49-.48a10.11,10.11,0,0,1-1.2-1.26L9,12.78a2.43,2.43,0,0,1-.58-1.95,3.33,3.33,0,0,1,.89-1.16,3.3,3.3,0,0,1,1.15-.88,1.58,1.58,0,0,1,.38,0,2.82,2.82,0,0,1,1.57.63l.1.07a11.11,11.11,0,0,1,1.25,1.2l.49-.48a.31.31,0,0,1,.24-.1.36.36,0,0,1,.2.06l1.68,1.15a.33.33,0,0,1,.15.3v.12l.59.59a.73.73,0,0,1,.84.19l5.05,5A.35.35,0,0,1,23,18l-.11.14.05.12a.33.33,0,0,1-.06.37l-.58.63,4.21,4.21a18.55,18.55,0,0,1,3.07,5.1l.92.93c1.46-1,2.21-1.55,2.37-1.65a.82.82,0,0,1,.39-.11.81.81,0,0,1,.57.29l.08.07a.92.92,0,0,1,.39.6.54.54,0,0,1-.14.43c-.11.14-1.35,1.53-2.07,2.34-.09.59-.21.71-.27.76s-.2.2-.86.28l-.57.44A.37.37,0,0,1,30.18,33Z"/><path class="cls-2" d="M10.82,9.09a2.73,2.73,0,0,1,1.48.64c.1.06.73.68,1.44,1.4l.73-.73,1.69,1.15,0,.27.92.92.05-.05a.39.39,0,0,1,.27-.13.43.43,0,0,1,.31.16l5,5-.24.3.14.32-.81.87,4.45,4.44a19.28,19.28,0,0,1,3,5l1.17,1.19c.8-.57,2.37-1.67,2.59-1.8a.38.38,0,0,1,.21-.06c.17,0,.29.16.43.27s.38.35.21.55L31.76,31.3a1.65,1.65,0,0,1-.18.67h0a2.09,2.09,0,0,1-.75.19l-.65.5-.32-.41.41-.68-1.92-1.89a19,19,0,0,1-5.05-3l-4.45-4.45L18,23l-.32-.14-.3.24-5.05-5a.38.38,0,0,1,0-.58l.06-.05-.92-.91h-.27L10,14.86l.73-.72C10,13.42,9.4,12.8,9.34,12.7a2.38,2.38,0,0,1-.61-1.79,3.79,3.79,0,0,1,.8-1,3.79,3.79,0,0,1,1-.8l.3,0m0-.69h0a2.31,2.31,0,0,0-.46,0A3.48,3.48,0,0,0,9,9.45a3.36,3.36,0,0,0-1,1.3A2.82,2.82,0,0,0,8.69,13l.07.09a7.46,7.46,0,0,0,1,1.07l-.24.24a.68.68,0,0,0-.08.87l1.15,1.69a.68.68,0,0,0,.57.3l.34.34s0,.08,0,.11a1.13,1.13,0,0,0,.35.88l5,5a.66.66,0,0,0,.49.2.69.69,0,0,0,.41-.13.76.76,0,0,0,.21,0,.66.66,0,0,0,.47-.19l.38-.35,4,4A19,19,0,0,0,28,30.27l1.44,1.41-.13.22a.7.7,0,0,0,0,.78l.32.4a.69.69,0,0,0,.55.27.75.75,0,0,0,.42-.14l.5-.39c.7-.1.89-.28,1-.36a1.48,1.48,0,0,0,.34-.85l2-2.28a.93.93,0,0,0,.22-.68,1.3,1.3,0,0,0-.52-.84l-.06,0a1.13,1.13,0,0,0-.81-.38,1.06,1.06,0,0,0-.56.16c-.16.1-.89.6-2.16,1.49l-.66-.68a19,19,0,0,0-3.12-5.14l-4-4,.35-.38a.68.68,0,0,0,.15-.68.69.69,0,0,0-.06-.9l-5-5a1.11,1.11,0,0,0-.8-.36l-.19,0-.34-.34a.68.68,0,0,0-.3-.57L14.86,9.83a.69.69,0,0,0-.39-.12.71.71,0,0,0-.49.2l-.24.24a9.33,9.33,0,0,0-1.06-1l-.09-.07a3.21,3.21,0,0,0-1.77-.68Z"/><path class="cls-2" d="M9.94,11.76l.65.64-.47.47a1.29,1.29,0,0,1-.33-.5A.7.7,0,0,1,9.94,11.76Z"/><path class="cls-2" d="M9.33,12.36h.33a.74.74,0,0,0,.16.35l-.13.14A1.47,1.47,0,0,1,9.33,12.36Z"/><path class="cls-2" d="M9.18,11.89v-.1l-.08-.07a.76.76,0,0,0-.46,0l.3.59h.35A.82.82,0,0,1,9.18,11.89Z"/><path class="cls-2" d="M11.37,10.34,12,11l.47-.47a1.27,1.27,0,0,0-.51-.33A.67.67,0,0,0,11.37,10.34Z"/><path class="cls-2" d="M12,9.72v.33a.71.71,0,0,1,.36.17l.14-.14A1.47,1.47,0,0,0,12,9.72Z"/><path class="cls-2" d="M11.5,9.57h-.1l-.07-.08a.76.76,0,0,1,0-.46l.59.3v.35A1,1,0,0,0,11.5,9.57Z"/><path class="cls-2" d="M9.54,11.21a1,1,0,0,0-.24.68.67.67,0,0,0,.13.38h.22a.8.8,0,0,1,.25-.7Z"/><path class="cls-2" d="M11.09,10.38,10.72,10a2.9,2.9,0,0,0-.34.31l-.47.47a3.64,3.64,0,0,0-.29.32l.37.37Z"/><path class="cls-2" d="M11.49,9.69a1.08,1.08,0,0,0-.67.24l.36.37a.8.8,0,0,1,.7-.25V9.82A.75.75,0,0,0,11.49,9.69Z"/><circle class="cls-2" cx="16.52" cy="16.8" r="1.19"/><polygon class="cls-2" points="16.24 15.95 15.27 1.2 16.36 1.13 17.11 12.59 16.44 12.63 16.66 15.93 16.24 15.95"/><polygon class="cls-2" points="16.77 17.65 17.73 32.4 16.65 32.47 15.9 21.02 16.57 20.98 16.35 17.68 16.77 17.65"/><polygon class="cls-2" points="15.63 16.61 2.38 10.07 2.86 9.09 13.16 14.17 12.86 14.77 15.82 16.23 15.63 16.61"/><polygon class="cls-2" points="17.37 17 30.63 23.54 30.14 24.51 19.85 19.44 20.15 18.83 17.19 17.37 17.37 17"/><polygon class="cls-2" points="15.9 17.46 3.61 25.67 3 24.76 12.55 18.39 12.92 18.94 15.67 17.11 15.9 17.46"/><polygon class="cls-2" points="17.11 16.15 29.4 7.94 30 8.85 20.46 15.22 20.09 14.66 17.34 16.5 17.11 16.15"/><rect class="cls-2" x="29.21" y="29.55" width="0.24" height="7.15" transform="translate(-14.83 30.44) rotate(-45)"/><polygon class="cls-2" points="9.62 14.78 10.95 16.72 11.29 16.7 12.24 15.75 12.19 15.53 10.49 13.9 9.62 14.78"/><polygon class="cls-2" points="14.43 10.14 16.28 11.41 16.26 11.73 15.35 12.64 15.15 12.59 13.6 10.98 14.43 10.14"/><circle class="cls-3" cx="16.52" cy="16.8" r="15.75"/></svg>