<svg id="Layer_1" data-name="Layer 1" xmlns="http://www.w3.org/2000/svg" xmlns:xlink="http://www.w3.org/1999/xlink" viewBox="0 0 512 512"><defs><style>.cls-1{fill:url(#linear-gradient);}.cls-2{fill:url(#linear-gradient-2);}.cls-3{fill:url(#linear-gradient-3);}.cls-4{fill:url(#linear-gradient-4);}.cls-5{fill:url(#linear-gradient-5);}.cls-6{fill:url(#linear-gradient-6);}.cls-7{fill:url(#linear-gradient-7);}.cls-8{fill:url(#linear-gradient-8);}.cls-9{fill:url(#linear-gradient-9);}.cls-10{fill:url(#linear-gradient-10);}.cls-11{fill:url(#linear-gradient-11);}.cls-12{fill:#2b9be0;}.cls-13{fill:#1388b7;}.cls-14{fill:#3bb5f2;}.cls-15{fill:#e7f3f7;stroke:#2b9be0;stroke-linejoin:round;stroke-width:4px;}</style><linearGradient id="linear-gradient" x1="256" y1="512" x2="256" gradientUnits="userSpaceOnUse"><stop offset="0.38" stop-color="#7cd2fc"/><stop offset="0.45" stop-color="#80d3fb"/><stop offset="0.95" stop-color="#9addf7"/></linearGradient><linearGradient id="linear-gradient-2" x1="74.52" y1="231.4" x2="292.34" y2="231.4" gradientUnits="userSpaceOnUse"><stop offset="0.34" stop-color="#bfe9f7"/><stop offset="0.4" stop-color="#bde8f7" stop-opacity="0.96"/><stop offset="0.49" stop-color="#b6e6f8" stop-opacity="0.86"/><stop offset="0.61" stop-color="#abe2f9" stop-opacity="0.7"/><stop offset="0.75" stop-color="#9bddfa" stop-opacity="0.47"/><stop offset="0.91" stop-color="#88d6fb" stop-opacity="0.18"/><stop offset="1" stop-color="#7cd2fc" stop-opacity="0"/></linearGradient><linearGradient id="linear-gradient-3" x1="98.67" y1="264.98" x2="270.79" y2="264.98" xlink:href="#linear-gradient-2"/><linearGradient id="linear-gradient-4" x1="117.63" y1="292.23" x2="249.72" y2="292.23" xlink:href="#linear-gradient-2"/><linearGradient id="linear-gradient-5" x1="136.27" y1="318.4" x2="228.41" y2="318.4" xlink:href="#linear-gradient-2"/><linearGradient id="linear-gradient-6" x1="151.34" y1="339.6" x2="206.6" y2="339.6" xlink:href="#linear-gradient-2"/><linearGradient id="linear-gradient-7" x1="-4328.09" y1="231.4" x2="-4110.27" y2="231.4" gradientTransform="matrix(-1, 0, 0, 1, -3890.62, 0)" xlink:href="#linear-gradient-2"/><linearGradient id="linear-gradient-8" x1="-4303.94" y1="264.98" x2="-4131.82" y2="264.98" gradientTransform="matrix(-1, 0, 0, 1, -3890.62, 0)" xlink:href="#linear-gradient-2"/><linearGradient id="linear-gradient-9" x1="-4284.99" y1="292.23" x2="-4152.9" y2="292.23" gradientTransform="matrix(-1, 0, 0, 1, -3890.62, 0)" xlink:href="#linear-gradient-2"/><linearGradient id="linear-gradient-10" x1="-4266.34" y1="318.4" x2="-4174.2" y2="318.4" gradientTransform="matrix(-1, 0, 0, 1, -3890.62, 0)" xlink:href="#linear-gradient-2"/><linearGradient id="linear-gradient-11" x1="-4251.27" y1="339.6" x2="-4196.01" y2="339.6" gradientTransform="matrix(-1, 0, 0, 1, -3890.62, 0)" xlink:href="#linear-gradient-2"/></defs><rect class="cls-1" width="512" height="512" rx="256"/><polygon class="cls-2" points="292.34 351.64 74.52 111.17 91.71 159.97 283.26 351.64 292.34 351.64"/><polygon class="cls-3" points="98.67 178.32 270.79 351.64 261.71 351.64 111.96 216.85 98.67 178.32"/><polygon class="cls-4" points="117.63 232.83 249.72 351.64 240.64 351.64 128.98 265.14 117.63 232.83"/><polygon class="cls-5" points="136.27 285.17 145.51 311.59 219.33 351.64 228.41 351.64 136.27 285.17"/><polygon class="cls-6" points="151.34 327.57 206.6 351.64 159.93 351.64 151.34 327.57"/><polygon class="cls-7" points="219.66 351.64 437.48 111.17 420.29 159.97 228.74 351.64 219.66 351.64"/><polygon class="cls-8" points="413.33 178.32 241.21 351.64 250.29 351.64 400.04 216.85 413.33 178.32"/><polygon class="cls-9" points="394.37 232.83 262.28 351.64 271.36 351.64 383.02 265.14 394.37 232.83"/><polygon class="cls-10" points="375.73 285.17 366.49 311.59 292.67 351.64 283.59 351.64 375.73 285.17"/><polygon class="cls-11" points="360.66 327.57 305.4 351.64 352.07 351.64 360.66 327.57"/><polygon class="cls-12" points="178.8 351.64 55.54 391.71 79.71 351 41.5 327.6 165.5 283.15 178.8 351.64"/><polygon class="cls-12" points="333.2 351.64 456.46 391.71 432.29 351 470.5 327.6 346.5 283.15 333.2 351.64"/><path class="cls-13" d="M333.2,351.64,396.6,343s-55.29-27-56.46-26.73S333.2,351.64,333.2,351.64Z"/><path class="cls-13" d="M178.8,351.64,115.4,343s55.29-27,56.46-26.73S178.8,351.64,178.8,351.64Z"/><path class="cls-14" d="M254.42,316.94c-55-.25-81.21,7.31-139,25.8L100,262.26c59.31-22.17,94.88-30.83,155.18-30.55s96,7.7,155.42,30.55l-14,80.48C338.29,323,310.38,317.32,254.42,316.94Z"/><path class="cls-15" d="M216.14,180H175.72V158.25h74.19L214.36,271.9H186.6Z"/><path class="cls-15" d="M336.28,231.31c0,27.27-12,41.56-39.12,41.56-24.52,0-37.18-13-37.18-35.39h25c0,8.77,4.06,14.94,12.18,14.94,8.76,0,12.82-5.85,12.82-20.62,0-14.94-4.06-20.14-12.82-20.14a12.59,12.59,0,0,0-12.18,8H260V158.25h72.89v20.46H284.33v18.51c5.19-3.9,11.69-6,19.64-6C326.7,191.21,336.28,204.52,336.28,231.31Z"/></svg>