<svg id="Layer_1" data-name="Layer 1" xmlns="http://www.w3.org/2000/svg" xmlns:xlink="http://www.w3.org/1999/xlink" viewBox="0 0 468.95 335.76"><defs><style>.cls-1{fill:url(#linear-gradient);}.cls-2{fill:url(#linear-gradient-2);}.cls-3{fill:url(#linear-gradient-3);}.cls-4{fill:url(#linear-gradient-4);}.cls-5{fill:url(#linear-gradient-5);}.cls-6{fill:url(#linear-gradient-6);}.cls-7{fill:url(#linear-gradient-7);}.cls-8{fill:url(#linear-gradient-8);}.cls-9{fill:url(#linear-gradient-9);}.cls-10{fill:url(#linear-gradient-10);}.cls-11{fill:#2b9be0;}.cls-12{fill:#1388b7;}.cls-13{fill:#3bb5f2;}.cls-14,.cls-16{fill:#e7f3f7;}.cls-15{fill:#f4de40;}.cls-16{stroke:#2b9be0;stroke-linecap:round;stroke-linejoin:round;stroke-width:2px;}</style><linearGradient id="linear-gradient" y1="149.69" x2="281.43" y2="149.69" gradientUnits="userSpaceOnUse"><stop offset="0.34" stop-color="#bfe9f7"/><stop offset="0.4" stop-color="#bde8f7" stop-opacity="0.96"/><stop offset="0.49" stop-color="#b6e6f8" stop-opacity="0.86"/><stop offset="0.61" stop-color="#abe2f9" stop-opacity="0.7"/><stop offset="0.75" stop-color="#9bddfa" stop-opacity="0.47"/><stop offset="0.91" stop-color="#88d6fb" stop-opacity="0.18"/><stop offset="1" stop-color="#7cd2fc" stop-opacity="0"/></linearGradient><linearGradient id="linear-gradient-2" x1="31.2" y1="191.47" x2="253.59" y2="191.47" xlink:href="#linear-gradient"/><linearGradient id="linear-gradient-3" x1="55.7" y1="225.39" x2="226.36" y2="225.39" xlink:href="#linear-gradient"/><linearGradient id="linear-gradient-4" x1="79.78" y1="257.95" x2="198.83" y2="257.95" xlink:href="#linear-gradient"/><linearGradient id="linear-gradient-5" x1="99.26" y1="284.33" x2="170.65" y2="284.33" xlink:href="#linear-gradient"/><linearGradient id="linear-gradient-6" x1="1735.84" y1="149.69" x2="2017.28" y2="149.69" gradientTransform="matrix(-1, 0, 0, 1, 2204.79, 0)" xlink:href="#linear-gradient"/><linearGradient id="linear-gradient-7" x1="1767.04" y1="191.47" x2="1989.43" y2="191.47" gradientTransform="matrix(-1, 0, 0, 1, 2204.79, 0)" xlink:href="#linear-gradient"/><linearGradient id="linear-gradient-8" x1="1791.54" y1="225.39" x2="1962.2" y2="225.39" gradientTransform="matrix(-1, 0, 0, 1, 2204.79, 0)" xlink:href="#linear-gradient"/><linearGradient id="linear-gradient-9" x1="1815.63" y1="257.95" x2="1934.67" y2="257.95" gradientTransform="matrix(-1, 0, 0, 1, 2204.79, 0)" xlink:href="#linear-gradient"/><linearGradient id="linear-gradient-10" x1="1835.1" y1="284.33" x2="1906.49" y2="284.33" gradientTransform="matrix(-1, 0, 0, 1, 2204.79, 0)" xlink:href="#linear-gradient"/></defs><polygon class="cls-1" points="281.43 299.3 0 0.07 22.2 60.8 269.7 299.3 281.43 299.3"/><polygon class="cls-2" points="31.2 83.63 253.59 299.3 241.86 299.3 48.37 131.57 31.2 83.63"/><polygon class="cls-3" points="55.7 151.47 226.36 299.3 214.63 299.3 70.36 191.67 55.7 151.47"/><polygon class="cls-4" points="79.78 216.59 91.72 249.47 187.1 299.3 198.83 299.3 79.78 216.59"/><polygon class="cls-5" points="99.26 269.36 170.65 299.3 110.35 299.3 99.26 269.36"/><polygon class="cls-6" points="187.52 299.3 468.95 0.07 446.75 60.8 199.25 299.3 187.52 299.3"/><polygon class="cls-7" points="437.75 83.63 215.36 299.3 227.09 299.3 420.58 131.57 437.75 83.63"/><polygon class="cls-8" points="413.26 151.47 242.59 299.3 254.32 299.3 398.59 191.67 413.26 151.47"/><polygon class="cls-9" points="389.17 216.59 377.24 249.47 281.85 299.3 270.12 299.3 389.17 216.59"/><polygon class="cls-10" points="369.7 269.36 298.3 299.3 358.6 299.3 369.7 269.36"/><polygon class="cls-11" points="99.44 197.35 236.88 257.84 360.64 187.46 374.32 155.32 336.79 125.31 294.56 58.65 226.5 64.26 174.34 64.37 160.36 90.55 169.85 140.24 109.9 132.21 99.44 197.35"/><polygon class="cls-11" points="123.74 299.29 15.81 334.38 36.98 298.73 3.52 278.24 112.1 239.32 123.74 299.29"/><polygon class="cls-11" points="344.72 299.29 452.65 334.38 431.48 298.73 464.94 278.24 356.36 239.32 344.72 299.29"/><path class="cls-12" d="M344.72,299.29l55.51-7.58s-48.41-23.63-49.44-23.4S344.72,299.29,344.72,299.29Z"/><path class="cls-12" d="M123.74,299.29l-55.51-7.58s48.41-23.63,49.44-23.4S123.74,299.29,123.74,299.29Z"/><path class="cls-13" d="M232.84,264.62c-48.18-.22-114,10.68-164.61,26.88L54.77,221c51.94-19.4,126-31.28,178.77-31s126.9,11,179,31L400.23,291.5C349.17,274.19,281.85,265,232.84,264.62Z"/><polygon class="cls-14" points="343.96 242.48 346.68 239.67 342.88 238.72 341.8 234.96 339.08 237.78 335.29 236.83 336.37 240.59 333.65 243.4 337.45 244.35 338.52 248.11 341.24 245.3 345.04 246.24 343.96 242.48"/><polygon class="cls-14" points="123.32 242.48 120.61 239.67 124.4 238.72 125.48 234.96 128.2 237.78 131.99 236.83 130.91 240.59 133.63 243.4 129.84 244.35 128.76 248.11 126.04 245.3 122.25 246.24 123.32 242.48"/><path class="cls-15" d="M103.37,195.59a3.23,3.23,0,0,1-3.11-2.41l-2.77-10.79a3.22,3.22,0,0,1,2.31-3.92l4.62-1.16-6.9-28.63-1.11.27a2.86,2.86,0,0,1-.77.1,3.24,3.24,0,0,1-1.66-.46,3.19,3.19,0,0,1-1.46-2l-2.68-10.76a3.22,3.22,0,0,1,2.34-3.9c11.32-2.82,16.88-4.06,28.34-6.31a28.2,28.2,0,0,1,5.39-.57c12.53,0,16.09,11,18.06,22.78l5.83,34.85a3.22,3.22,0,0,1-2.65,3.7c-5.65.95-8.41,1.44-14,2.54a3.26,3.26,0,0,1-.62.06,3.19,3.19,0,0,1-1.79-.54,3.27,3.27,0,0,1-1.37-2.06l-7.16-36.56c-1.19-6.07-2.07-6.07-2.49-6.07a6.28,6.28,0,0,0-.79.06L128,186.69a3.21,3.21,0,0,1-2.48,3.81c-8.61,1.82-12.79,2.8-21.33,5A3.08,3.08,0,0,1,103.37,195.59Z"/><path class="cls-11" d="M125.91,128.29c9,0,12.65,6.68,14.89,20.09,2.33,13.94,3.5,20.91,5.83,34.85-5.66.94-8.49,1.45-14.12,2.56-2.86-14.63-4.3-21.94-7.16-36.57-1.32-6.75-2.71-8.67-5.65-8.67a13.08,13.08,0,0,0-2.62.34l-2,.42h0c3.9,18.41,5.85,27.62,9.74,46-8.61,1.83-12.9,2.83-21.46,5-1.1-4.32-1.66-6.48-2.76-10.79,3.07-.79,4.61-1.17,7.69-1.91l-8.4-34.89-4.26,1L93,135.07c11.22-2.8,16.86-4,28.18-6.27a25,25,0,0,1,4.77-.51m0-6.43a30.65,30.65,0,0,0-6,.63c-11.38,2.23-17.24,3.53-28.5,6.34a6.44,6.44,0,0,0-4.69,7.79l.86,3.43,1.83,7.34a6.43,6.43,0,0,0,5.67,4.85L100.55,175l-1.54.4a6.43,6.43,0,0,0-4.64,7.83l1,3.74,1.81,7a6.46,6.46,0,0,0,6.23,4.83,6.62,6.62,0,0,0,1.6-.2c8.48-2.18,12.64-3.15,21.2-5a6.38,6.38,0,0,0,3.52-2.07,6.44,6.44,0,0,0,2.82.65,6.51,6.51,0,0,0,1.24-.12c5.59-1.09,8.32-1.59,13.94-2.53a6.44,6.44,0,0,0,5.28-7.4l-4-24.13-1.79-10.72c-1.38-8.27-4.26-25.46-21.24-25.46Z"/><path class="cls-15" d="M155.82,185a3.2,3.2,0,0,1-3.18-2.74l-8.55-57.48a3.23,3.23,0,0,1,2.71-3.66c6.44-1,9.58-1.37,16-2.15l.39,0a3.22,3.22,0,0,1,3.19,2.83l6.92,57.7a3.2,3.2,0,0,1-2.81,3.57c-5.76.7-8.55,1.07-14.24,1.92A3.71,3.71,0,0,1,155.82,185Z"/><path class="cls-11" d="M163.22,122.15c2.77,23.08,4.16,34.62,6.93,57.7-5.74.69-8.61,1.07-14.33,1.93-3.42-23-5.13-34.49-8.54-57.48,6.37-1,9.55-1.38,15.94-2.15m0-6.43a7,7,0,0,0-.78,0c-6.41.77-9.73,1.21-16.12,2.16a6.45,6.45,0,0,0-5.42,7.31l4,26.8,4.56,30.68a6.45,6.45,0,0,0,6.36,5.49,6.16,6.16,0,0,0,.95-.07c5.68-.84,8.46-1.22,14.16-1.9a6.43,6.43,0,0,0,5.62-7.16l-3.47-28.89-3.46-28.8a6.43,6.43,0,0,0-6.38-5.67Z"/><path class="cls-15" d="M178.78,182.1a3.22,3.22,0,0,1-3.2-2.88l-2.47-24c-.89-8.72,2.31-15,8.89-17.93-3.32-5.17-5.64-8.65-9.72-14.63a3.21,3.21,0,0,1,2.34-5c6.09-.61,9.07-.86,15.17-1.31H190a3.22,3.22,0,0,1,2.72,1.49c5.32,8.42,8.51,13.63,12.52,20.56l-.82-19.71a3.21,3.21,0,0,1,3.08-3.35c6-.25,9-.34,15.1-.43h0a3.23,3.23,0,0,1,2.24.9,3.28,3.28,0,0,1,1,2.26l.31,20.44c.11,7.12-1,15.41-10.18,19,3.42,6.1,5.57,10.12,9.25,17.24a3.21,3.21,0,0,1-2.8,4.69c-5.47.1-8.14.18-13.64.43h-.14a3.22,3.22,0,0,1-2.84-1.7C201.14,169.4,198.12,164,194,157l1.56,20.4a3.24,3.24,0,0,1-3,3.46c-5.47.41-8.13.65-13.52,1.21Z"/><path class="cls-11" d="M222.67,118.13c.13,8.18.19,12.27.32,20.44.14,9.39-2.36,15.18-11.76,17,4.64,8.23,6.88,12.37,11.19,20.69-5.5.09-8.24.18-13.73.42-6.38-11.91-9.75-17.83-16.81-29.53-1.66.26-1.69,1.78-1.42,5.34.77,10.07,1.15,15.11,1.92,25.18-5.44.41-8.16.66-13.6,1.22-1-9.59-1.48-14.39-2.47-24-.74-7.25,1.65-14.1,10.68-15.75-4.68-7.37-7.09-11-12.05-18.29,6-.6,9-.86,15.08-1.3,7,11.11,10.38,16.72,16.78,28,1.86-.31,2-1.78,1.79-6.59-.38-9-.56-13.46-.94-22.44,6-.25,9-.33,15-.43m0-6.43h-.1c-6,.1-9.16.19-15.19.44a6.44,6.44,0,0,0-6.16,6.69l.3,7c-1.79-2.91-3.73-6-6.06-9.7a6.43,6.43,0,0,0-5.44-3l-.47,0c-6.06.44-9.19.71-15.25,1.31a6.44,6.44,0,0,0-4.68,10c3.28,4.8,5.41,8,7.85,11.73-5.63,4-8.43,10.84-7.56,19.34l0,.24,2.44,23.74a6.44,6.44,0,0,0,6.4,5.77q.33,0,.66,0c5.39-.56,8-.79,13.43-1.21a6.44,6.44,0,0,0,5.93-6.9l-.47-6.12c1.42,2.59,2.94,5.4,4.69,8.66a6.42,6.42,0,0,0,5.67,3.4H209c5.45-.24,8.11-.32,13.56-.42a6.44,6.44,0,0,0,5.6-9.39c-3-5.88-5.1-9.76-7.67-14.4,9.19-5.69,9-16.4,9-20.43l-.12-7.77L229.1,118a6.42,6.42,0,0,0-6.43-6.33Z"/><path class="cls-15" d="M270.39,180.86c-8.21-.62-12.23-.85-20.49-1.14a3.23,3.23,0,0,1-3.1-3.33l.13-3.5c-.21,1.27-.43,2.58-.65,3.93a3.21,3.21,0,0,1-3.17,2.7H243c-4.23-.1-6.88-.13-10.32-.13h-3.85a3.21,3.21,0,0,1-3.18-3.67c2.48-17.62,3.88-26.85,6.63-43.36h-1.47a3.23,3.23,0,0,1-3.22-3.21V118.07a3.21,3.21,0,0,1,3.21-3.22h1.75c8.72,0,13.69.1,23.16.5,7.7.32,12.86,2.25,16.22,6.06,4,4.56,5.38,11.74,4.41,23.29l-2.52,33.19a3.22,3.22,0,0,1-3.2,3Zm-16.37-48c-2.25,11.85-3.71,19.91-5.39,29.79a3.12,3.12,0,0,1,1.78-.54l3.34.12,1.14-23.8c.15-3.17,0-5-.32-5.37A1.38,1.38,0,0,0,254,132.91Z"/><path class="cls-11" d="M232.51,118.06c8.82,0,13.76.11,23.09.5,14.49.61,19.14,7,17.56,25.87-1,13.29-1.52,19.93-2.52,33.22-8.24-.62-12.37-.85-20.62-1.15.15-4.45.23-6.68.39-11.13,2.56.09,3.84.15,6.4.27.51-10.8.77-16.2,1.29-27,.3-6.22-.08-8.88-5.19-9.07l-1.52-.06c-3.56,18.7-5.21,28.06-8.28,46.8-4.27-.09-6.94-.13-10.4-.13h-3.85c2.65-18.82,4.1-28.22,7.24-47l-4.06,0h-1.2c0-4.43,0-6.65,0-11.09h1.69m0-6.43h-1.7a6.44,6.44,0,0,0-6.42,6.44l0,11.08a6.41,6.41,0,0,0,1.89,4.55,6.32,6.32,0,0,0,2.28,1.48c-2.39,14.5-3.77,23.65-6.09,40.11a6.44,6.44,0,0,0,6.37,7.32h3.85c3.28,0,5.87,0,10.25.13h.15a6.4,6.4,0,0,0,3.29-.91,6.47,6.47,0,0,0,3.39,1.1c8.19.29,12.18.52,20.36,1.14l.49,0a6.44,6.44,0,0,0,6.41-6l2.11-27.84.41-5.38c1-12.45-.56-20.37-5.21-25.64-5.23-5.93-13.06-6.92-18.49-7.14-9.52-.4-14.54-.51-23.36-.51Z"/><path class="cls-15" d="M314,186a2.92,2.92,0,0,1-.51,0c-13.71-2.22-20.43-3.07-34.27-4.36a3.21,3.21,0,0,1-2.9-3.51l1-11.08a3.22,3.22,0,0,1,3.2-2.92h.3c4.4.41,7.22.7,10.69,1.1-4.86-16.66-8-26.17-14.54-44a3.23,3.23,0,0,1,3-4.32h.27c6.8.58,10.11.91,16.86,1.68a3.2,3.2,0,0,1,2.69,2.2c2.38,7.28,3.83,11.88,5.57,17.72l2.14-15.4a3.22,3.22,0,0,1,3.18-2.77,3.4,3.4,0,0,1,.45,0c6.31.88,9.39,1.35,15.7,2.4a3.24,3.24,0,0,1,2.64,3.71l-3,17.72c-2.12,12.64-9.38,16-14.81,16.75,2.07,7.57,3.3,12.43,5.38,21.11a3.2,3.2,0,0,1-3.13,4Z"/><path class="cls-11" d="M280,120.11c6.71.57,10.06.9,16.76,1.67,3.27,10,4.81,15,7.71,25.06a3.39,3.39,0,0,0,.68.08c2.07,0,2.66-2.47,3-4.9,1-7.39,1.54-11.09,2.57-18.48,6.25.87,9.37,1.35,15.6,2.4,0,0-.66,4-3,17.72-1.64,9.78-6.75,14.22-14.13,14.22a16.7,16.7,0,0,1-1.71-.08c2.77,10,4.06,15,6.45,25-13.74-2.23-20.65-3.11-34.48-4.4.41-4.43.62-6.65,1-11.09,6.18.58,9.27.91,15.43,1.67-5.66-19.62-8.85-29.41-16-48.87m0-6.44a6.44,6.44,0,0,0-6,8.64c5.86,16,9,25.32,13.11,39.18-1.77-.19-3.65-.37-5.94-.58q-.3,0-.6,0a6.43,6.43,0,0,0-6.4,5.84l-1,11.09a6.45,6.45,0,0,0,5.81,7c13.75,1.28,20.43,2.13,34.06,4.34a7,7,0,0,0,1,.08,6.44,6.44,0,0,0,6.25-7.93c-1.75-7.31-2.94-12.05-4.52-17.94,7.38-2.32,12.35-8.83,14-18.64l3-17.72a6.44,6.44,0,0,0-5.28-7.41c-6.26-1-9.5-1.54-15.79-2.42a6.51,6.51,0,0,0-.88-.06,6.42,6.42,0,0,0-6.37,5.55l-.16,1.15c-.41-1.27-.85-2.6-1.31-4a6.45,6.45,0,0,0-5.39-4.4c-6.72-.76-10.21-1.11-16.95-1.68a4.89,4.89,0,0,0-.54,0Z"/><path class="cls-15" d="M323.2,189.82a3.23,3.23,0,0,1-2.05-.74,3.19,3.19,0,0,1-1.15-2.21c-.37-4.43-.56-6.65-1-11.08a3.22,3.22,0,0,1,2.92-3.5l4.68-.4c1.35-17.36,2-26.73,3.05-45a3.22,3.22,0,0,1,3.21-3,3.66,3.66,0,0,1,.57.05c6.4,1.15,9.51,1.75,15.87,3.08a3.21,3.21,0,0,1,2.54,3.44c-1.14,12.55-1.9,20.57-2.93,30.4l6.64-29.22a3.21,3.21,0,0,1,3.13-2.5,2.94,2.94,0,0,1,.72.08c6.31,1.43,9.39,2.18,15.69,3.79a3.22,3.22,0,0,1,2.32,3.92l-7.2,28.05c-4.13,16.09-7.94,22.75-29.36,23.73-11.12.51-17.29,1.13-17.35,1.14Z"/><path class="cls-11" d="M332.89,127.07c6.32,1.13,9.48,1.74,15.78,3.06-1.61,17.68-2.49,26.5-4.4,44.14,4-.25,5.18-1.15,6.74-8l7.7-33.92c6.26,1.43,9.39,2.18,15.62,3.78-2.89,11.22-4.33,16.83-7.21,28-3.84,15-6.54,20.4-26.39,21.32-11.36.52-17.53,1.15-17.53,1.15-.36-4.45-.55-6.67-1-11.12,2.95-.26,4.43-.38,7.4-.6,1.49-19.11,2.14-28.67,3.26-47.82m0-6.43a6.43,6.43,0,0,0-6.42,6c-1,17.28-1.63,26.59-2.83,42.22l-2,.18a6.43,6.43,0,0,0-5.83,7c.41,4.42.6,6.62,1,11A6.44,6.44,0,0,0,323.2,193c.22,0,.44,0,.65,0,.06,0,6.17-.62,17.18-1.13,23.36-1.07,28-9.18,32.32-26.14l7.21-28.05a6.43,6.43,0,0,0-4.63-7.83c-6.25-1.61-9.5-2.39-15.79-3.82a6.44,6.44,0,0,0-5.63,1.4,6.41,6.41,0,0,0-4.53-3.61c-6.32-1.32-9.6-2-16-3.09a6.09,6.09,0,0,0-1.13-.1Z"/><path class="cls-15" d="M129.34,96.25a3.22,3.22,0,0,1-3.12-2.42l-8-31.29a3.21,3.21,0,0,1,2.31-3.92c6.62-1.7,10.06-2.51,16.76-4a3.22,3.22,0,0,1,3.83,2.46l6.84,31.58a3.21,3.21,0,0,1-2.46,3.83c-6.18,1.34-9.19,2-15.33,3.63A3.73,3.73,0,0,1,129.34,96.25Z"/><path class="cls-11" d="M138,57.8c2.73,12.63,4.1,18.94,6.84,31.57-6.2,1.35-9.29,2.08-15.45,3.66-3.22-12.52-4.82-18.78-8-31.29,6.64-1.71,10-2.5,16.65-3.94m0-6.44a6.32,6.32,0,0,0-1.37.15c-6.73,1.46-10.2,2.28-16.88,4a6.44,6.44,0,0,0-4.63,7.83l5.9,23,2.14,8.32a6.4,6.4,0,0,0,6.23,4.83,6.26,6.26,0,0,0,1.6-.2C137,97.7,140,97,146.15,95.66A6.43,6.43,0,0,0,151.08,88l-1.66-7.65-5.19-23.93A6.44,6.44,0,0,0,138,51.36Z"/><path class="cls-15" d="M158.81,118.29a3.19,3.19,0,0,1-2.88-1.79c-2-4-3-6-5-9.94a3.15,3.15,0,0,1-.19-2.48,3.22,3.22,0,0,1,1.63-1.88c1.8-.88,3-1.47,4.43-2.13-5.06-16.63-7.92-25.58-13.7-43a3.23,3.23,0,0,1,2.43-4.17c6.68-1.32,10.15-1.93,16.86-3a4.38,4.38,0,0,1,.5,0,3.23,3.23,0,0,1,3.1,2.34c3.69,12.92,5.91,20.89,8.68,31.35L170.42,52a3.23,3.23,0,0,1,2.77-3.62c6.7-.9,10.17-1.3,16.91-2h.31a3.22,3.22,0,0,1,3.2,2.91l2.77,28.83c1.58,16.41.22,23.94-19.95,32.48-10.46,4.43-16.11,7.29-16.16,7.32A3.27,3.27,0,0,1,158.81,118.29Z"/><path class="cls-11" d="M190.41,49.62c1.11,11.53,1.66,17.3,2.77,28.83,1.48,15.37.72,21.28-18,29.21-10.71,4.53-16.37,7.41-16.37,7.41-2-4-3-6-5-10,2.74-1.34,4.12-2,6.89-3.29-5.56-18.34-8.47-27.48-14.52-45.7,6.67-1.32,10-1.92,16.73-3,4.89,17.08,7.23,25.64,11.7,42.81,3.8-1.67,4.59-2.91,3.66-9.91-1.85-13.79-2.78-20.68-4.63-34.47,6.71-.9,10.07-1.29,16.8-1.93m0-6.44c-.21,0-.41,0-.62,0-6.78.66-10.28,1.06-17,2a6.46,6.46,0,0,0-4.26,2.48,6.17,6.17,0,0,0-.75,1.26,6.44,6.44,0,0,0-4.86-2.22,5.84,5.84,0,0,0-1,.08c-6.76,1.07-10.25,1.69-17,3A6.44,6.44,0,0,0,140,58.13c5.45,16.4,8.3,25.28,12.86,40.23l-2,1a6.43,6.43,0,0,0-2.9,8.71c2,4,3,5.9,5,9.9a6.45,6.45,0,0,0,5.77,3.58,6.51,6.51,0,0,0,2.92-.7c.05,0,5.63-2.86,16-7.23,21.94-9.29,23.56-18.45,21.89-35.75l-1.09-11.34L196.81,49a6.43,6.43,0,0,0-6.4-5.82Z"/><path class="cls-15" d="M204.4,110a3.22,3.22,0,0,1-3.21-3L196.87,49a3.23,3.23,0,0,1,3-3.45c6.77-.5,10.29-.7,17.09-.95h.12a3.21,3.21,0,0,1,3.21,3.1l2.14,58.07a3.21,3.21,0,0,1-3.1,3.33c-5.9.22-8.78.38-14.66.82Z"/><path class="cls-11" d="M217.05,47.85c.85,23.23,1.28,34.84,2.13,58.07-5.92.22-8.87.38-14.78.82-1.73-23.18-2.59-34.77-4.32-57.95,6.78-.5,10.18-.69,17-.94m0-6.44h-.24c-6.84.25-10.38.45-17.21,1a6.44,6.44,0,0,0-5.94,6.89l2.72,36.49,1.6,21.46a6.44,6.44,0,0,0,6.42,6l.47,0c5.84-.44,8.7-.6,14.55-.81a6.42,6.42,0,0,0,6.19-6.67l-.78-21.21-1.35-36.86a6.44,6.44,0,0,0-6.43-6.2Z"/><path class="cls-15" d="M255.67,109.49c-5.88-.33-8.76-.44-14.67-.55a3.22,3.22,0,0,1-3.16-3.28l.63-33.54,0-1.4c.08-3.14.17-6.39-1.14-7.74-.73-.75-2.12-1.13-4.15-1.13-3.23,0-4.84,0-8.05.08h-.07a3.21,3.21,0,0,1-3.21-3.15l-.22-11.09a3.24,3.24,0,0,1,.9-2.29,3.21,3.21,0,0,1,2.26-1c3.34-.06,5.69-.09,8.23-.09,1.72,0,3.53,0,5.8,0,8,.09,13.69,2,17.31,5.91,5.29,5.65,5.27,14.22,4.76,23.25l-1.87,32.94a3.22,3.22,0,0,1-3.21,3Z"/><path class="cls-11" d="M233.08,47.53c1.7,0,3.5,0,5.74,0,18.85.22,19.73,11,18.89,25.77-.74,13.17-1.11,19.76-1.86,32.94-5.91-.33-8.87-.44-14.79-.56.25-13.41.38-20.12.63-33.54.12-6.36,1.05-13.55-8.47-13.55h0c-3.24,0-4.86,0-8.1.09-.08-4.44-.13-6.66-.21-11.09,3.33-.07,5.66-.1,8.19-.1m0-6.43c-2.43,0-4.77,0-8.32.1a6.42,6.42,0,0,0-6.3,6.55l.08,4.44.13,6.65a6.44,6.44,0,0,0,6.43,6.31h.13c3.2-.06,4.77-.08,8-.08a6.54,6.54,0,0,1,1.84.2c.36,1,.29,3.7.24,5.36l0,1.43-.12,6.29-.52,27.25a6.44,6.44,0,0,0,6.32,6.56c5.85.11,8.7.21,14.55.54h.36a6.41,6.41,0,0,0,6.42-6.07l1.53-27,.34-5.92c.53-9.36.53-19.05-5.62-25.63-4.26-4.56-10.68-6.83-19.63-6.93-2.27,0-4.08,0-5.81,0Z"/><path class="cls-15" d="M281.61,85.82l-.37,0c-6.24-.72-9.3-1-15.6-1.5a3.22,3.22,0,0,1-3-3.45l2.49-32.22a3.2,3.2,0,0,1,1.11-2.19,3.25,3.25,0,0,1,2.1-.78h.24c6.8.53,10.31.87,17.05,1.64a3.24,3.24,0,0,1,2.16,1.2,3.2,3.2,0,0,1,.67,2.36L284.81,83a3.21,3.21,0,0,1-3.2,2.85Z"/><path class="cls-11" d="M268.38,48.88c6.78.52,10.16.85,16.93,1.63l-3.7,32.09c-6.28-.72-9.42-1-15.72-1.51,1-12.88,1.49-19.32,2.49-32.21m0-6.43A6.44,6.44,0,0,0,262,48.39l-2.13,27.68-.35,4.53a6.43,6.43,0,0,0,5.92,6.91c6.23.48,9.27.77,15.47,1.49.25,0,.5,0,.75,0a6.44,6.44,0,0,0,6.38-5.7l.38-3.31,3.32-28.79A6.43,6.43,0,0,0,286,44.12c-6.79-.79-10.32-1.13-17.17-1.65a4,4,0,0,0-.49,0Z"/><path class="cls-15" d="M330.37,120.94a3,3,0,0,1-.79-.1c-5.48-1.39-8.17-2-13.7-3.21a3.23,3.23,0,0,1-2.44-2.36c-2.52-10-4.19-16.08-6.7-24.11l-3.54,20.68a3.17,3.17,0,0,1-1.31,2.08,3.21,3.21,0,0,1-1.86.59,3.29,3.29,0,0,1-.54-.05c-5.51-.94-8.21-1.35-13.76-2.1a3.22,3.22,0,0,1-2.76-3.62l3.22-23.89c1.17-8.69,6-14.11,13.35-15.27-2.1-5.78-3.63-9.72-6.38-16.48a3.22,3.22,0,0,1,3-4.43,3.25,3.25,0,0,1,.44,0c6.37.89,9.65,1.41,16,2.52A3.23,3.23,0,0,1,315,53.31c3.44,9.68,5.47,15.76,7.89,23.87l4.35-19.84a3.23,3.23,0,0,1,3.14-2.53,3.25,3.25,0,0,1,.69.08c6.26,1.37,9.48,2.14,15.68,3.73a3.22,3.22,0,0,1,2.32,3.92L344,82.33c-1.75,6.82-5.08,14.58-15.26,15.6,1.84,6.73,3,11.33,4.75,19.08a3.21,3.21,0,0,1-3.13,3.93Z"/><path class="cls-11" d="M296.14,51.89c6.35.88,9.53,1.39,15.86,2.5,4.47,12.55,6.49,18.85,10.1,31.47l.32,0c1.69,0,2.21-1.48,3.18-5.92,1.92-8.77,2.89-13.16,4.81-21.93,6.25,1.37,9.36,2.11,15.57,3.71-2,7.91-3.05,11.87-5.08,19.79C338.72,90,335,94.82,326.44,94.82c-.62,0-1.25,0-1.91-.07,2.57,9.18,3.73,13.78,5.84,23-5.51-1.39-8.27-2-13.81-3.23-3.33-13.19-5.23-19.78-9.51-32.91h-.26c-1.53,0-1.92,1.49-2.5,4.83-1.7,10-2.55,14.94-4.26,24.89-5.53-.94-8.31-1.37-13.87-2.12,1.29-9.55,1.93-14.33,3.22-23.89.92-6.86,4.65-12.72,13.27-12.72.45,0,.92,0,1.4,0-3-8.32-4.55-12.46-7.91-20.72m0-6.44a6.43,6.43,0,0,0-6,8.86c2.17,5.34,3.58,8.91,5.12,13-6.7,2.45-11.14,8.45-12.3,17.06l-3.22,23.9a6.44,6.44,0,0,0,5.52,7.23c5.5.74,8.18,1.15,13.65,2.09a6.77,6.77,0,0,0,1.09.09,6.43,6.43,0,0,0,6.33-5.35l1.19-6.93c.86,3.15,1.74,6.56,2.76,10.61a6.45,6.45,0,0,0,4.88,4.72c5.48,1.18,8.15,1.8,13.59,3.18a6.52,6.52,0,0,0,1.58.2,6.44,6.44,0,0,0,6.27-7.87c-1.48-6.46-2.52-10.74-3.88-15.85,10.7-3,13.39-13.49,14.37-17.31l5.08-19.79a6.44,6.44,0,0,0-4.63-7.84c-6.24-1.6-9.49-2.37-15.79-3.75a6.42,6.42,0,0,0-7.66,4.9l-1.09,5-.67,3.05c-1.24-3.72-2.6-7.65-4.31-12.45a6.47,6.47,0,0,0-4.95-4.18c-6.37-1.12-9.68-1.64-16.08-2.53a5.42,5.42,0,0,0-.89-.07Z"/><path class="cls-14" d="M157.75,233.75c-.8-4.29-2-5.58-5.1-5l-3.47.71-.7-3.35c1.88-.39,2.82-.57,4.7-.94,6.19-1.21,8,1.06,9.19,7.54l2.7,15.35c-1.79.32-2.68.48-4.47.82Z"/><path class="cls-14" d="M171.14,236.37c-.87-5.58-1.31-8.37-2.17-13.94,1.9-.3,2.85-.44,4.76-.72.81,5.59,1.21,8.38,2,14C173.9,235.94,173,236.08,171.14,236.37Z"/><path class="cls-14" d="M185.42,245.05c-1.21-9.8-1.81-14.7-3-24.5l4.78-.56c1.09,9.82,1.64,14.72,2.73,24.54C188.12,244.73,187.22,244.83,185.42,245.05Z"/><path class="cls-14" d="M198.31,243.68l-2.2-24.58c1.91-.17,2.87-.25,4.79-.4.77,9.84,1.16,14.76,1.93,24.6C201,243.44,200.12,243.52,198.31,243.68Z"/><path class="cls-14" d="M221.91,232.64c1.89,3.8,2.8,5.71,4.6,9.52l-4.4.11c-2.53-5.23-3.84-7.83-6.53-13-1.08.42-1.25,1.34-1.17,2.94.19,4.14.29,6.21.49,10.35l-4.44.24c-.21-3.66-.32-5.49-.54-9.16-.25-4.27,1-6.25,4.21-7.22-1.75-3.33-2.65-5-4.47-8.3l4.68-.24c2.54,4.78,3.78,7.17,6.19,12,1.08-.53,1.35-1.36,1.3-3.13-.11-3.65-.16-5.48-.27-9.13l4.68-.11c.06,3.18.08,4.77.14,7.94C226.47,230.27,224.9,231.77,221.91,232.64Z"/><path class="cls-14" d="M248.59,242.38c-1.81-.07-2.71-.09-4.52-.14.22-8.51.34-12.76.56-21.26-4.21-.11-6.31-.14-10.52-.15v-3.41c6.17,0,9.25.06,15.41.3C249.15,227.58,249,232.52,248.59,242.38ZM239,226.54l-.2,15.59c-1.81,0-2.71,0-4.52,0,0-6.24,0-9.35,0-15.59C236.15,226.51,237.09,226.52,239,226.54Z"/><path class="cls-14" d="M276.85,223.08c-3.25-.34-4.88-.49-8.14-.77.26-3,.39-4.5.64-7.5,1.87.16,2.8.24,4.66.42-.15,1.64-.23,2.46-.39,4.1,3.7.35,5.54.55,9.23,1-3.54,9.53-5.23,14.3-8.49,23.89-1.79-.18-2.68-.27-4.47-.43C272.57,235.47,274,231.33,276.85,223.08Z"/><path class="cls-14" d="M288,235.18c.75-5.59,1.13-8.39,1.88-14,1.91.26,2.87.39,4.78.67l-2.05,14Z"/><path class="cls-14" d="M317,234.88l-3.2,15.43c-1.78-.37-2.67-.55-4.45-.89,1.21-6.25,1.82-9.38,3-15.63.83-4.24,0-5.46-2.91-6l-2-.37c-1.51,8.37-2.26,12.56-3.77,20.93-1.79-.32-2.68-.48-4.47-.78,1.63-9.73,2.45-14.6,4.09-24.34,3.14.53,4.7.81,7.83,1.4C316.54,225.65,318.4,228,317,234.88Z"/><rect class="cls-11" x="288.52" y="55.75" width="4.56" height="4.56"/><path class="cls-16" d="M216.85,295.49H199.54v-9.31h31.77l-15.22,48.66H204.2Z"/><path class="cls-16" d="M268.3,317.46c0,11.68-5.15,17.8-16.76,17.8-10.49,0-15.92-5.57-15.92-15.16h10.71c0,3.75,1.74,6.4,5.21,6.4,3.76,0,5.5-2.51,5.5-8.83s-1.74-8.62-5.5-8.62a5.38,5.38,0,0,0-5.21,3.4H235.62V286.18h31.22v8.75H246.05v7.93a13.62,13.62,0,0,1,8.41-2.57C264.2,300.29,268.3,306,268.3,317.46Z"/></svg>