{
    "asset" : {
        "generator" : "Khronos glTF Blender I/O v1.5.17",
        "version" : "2.0"
    },
    "scene" : 0,
    "scenes" : [
        {
            "name" : "Scene",
            "nodes" : [
                3
            ]
        }
    ],
    "nodes" : [
        {
            "mesh" : 0,
            "name" : "MeshBody1"
        },
        {
            "children" : [
                0
            ],
            "name" : "Leonardo_M346 v0",
            "rotation" : [
                -0.7071068286895752,
                0,
                0,
                0.7071068286895752
            ],
            "translation" : [
                -634.8599853515625,
                -174.52000427246094,
                -602.2899780273438
            ]
        },
        {
            "children" : [
                1
            ],
            "name" : "Default"
        },
        {
            "children" : [
                2
            ],
            "name" : "lux_root",
            "scale" : [
                0.0010000000474974513,
                0.0010000000474974513,
                0.0010000000474974513
            ]
        }
    ],
    "materials" : [
        {
            "doubleSided" : true,
            "name" : "1",
            "pbrMetallicRoughness" : {
                "baseColorTexture" : {
                    "index" : 0
                },
                "metallicFactor" : 0.16363641619682312,
                "roughnessFactor" : 0.22727274894714355
            }
        }
    ],
    "meshes" : [
        {
            "name" : "MeshBody1-mesh",
            "primitives" : [
                {
                    "attributes" : {
                        "POSITION" : 0,
                        "NORMAL" : 1,
                        "TEXCOORD_0" : 2
                    },
                    "indices" : 3,
                    "material" : 0
                }
            ]
        }
    ],
    "textures" : [
        {
            "sampler" : 0,
            "source" : 0
        }
    ],
    "images" : [
        {
            "bufferView" : 4,
            "mimeType" : "image/png",
            "name" : "newiamge"
        }
    ],
    "accessors" : [
        {
            "bufferView" : 0,
            "componentType" : 5126,
            "count" : 10769,
            "max" : [
                1660.33642578125,
                229.4224853515625,
                977.7847290039062
            ],
            "min" : [
                -352.28924560546875,
                -2207.48291015625,
                135.630859375
            ],
            "type" : "VEC3"
        },
        {
            "bufferView" : 1,
            "componentType" : 5126,
            "count" : 10769,
            "type" : "VEC3"
        },
        {
            "bufferView" : 2,
            "componentType" : 5126,
            "count" : 10769,
            "type" : "VEC2"
        },
        {
            "bufferView" : 3,
            "componentType" : 5123,
            "count" : 35712,
            "type" : "SCALAR"
        }
    ],
    "bufferViews" : [
        {
            "buffer" : 0,
            "byteLength" : 129228,
            "byteOffset" : 0
        },
        {
            "buffer" : 0,
            "byteLength" : 129228,
            "byteOffset" : 129228
        },
        {
            "buffer" : 0,
            "byteLength" : 86152,
            "byteOffset" : 258456
        },
        {
            "buffer" : 0,
            "byteLength" : 71424,
            "byteOffset" : 344608
        },
        {
            "buffer" : 0,
            "byteLength" : 1465309,
            "byteOffset" : 416032
        }
    ],
    "samplers" : [
        {
            "magFilter" : 9729,
            "minFilter" : 9987
        }
    ],
    "buffers" : [
        {
            "byteLength" : 1881344,
            "uri" : "data:application/octet-stream;base64,"
        }
    ]
}
