<svg xmlns="http://www.w3.org/2000/svg" width="262.241" height="337" viewBox="0 0 262.241 337">
    <defs>
        <filter id="Path_362" width="259.274" height="135.773" x="2.966" y="180.68" filterUnits="userSpaceOnUse">
            <feOffset dy="3"/>
            <feGaussianBlur result="blur" stdDeviation="3"/>
            <feFlood flood-opacity=".161"/>
            <feComposite in2="blur" operator="in"/>
            <feComposite in="SourceGraphic"/>
        </filter>
        <style>
            .cls-4{mix-blend-mode:multiply;isolation:isolate;fill:#d1d5e8}.cls-5{fill:#fff}.cls-6{fill:#262626}
            #hand {
                animation: rot 3s infinite cubic-bezier(0.7, 0.24, 0.34, 0.8);
            }
            @keyframes rot {
                0% { transform: rotate(0deg) translate(30px) rotate(0deg); }
                100% { transform: rotate(360deg) translate(30px) rotate(-360deg); }
            }
        </style>
    </defs>
    <g id="step_1" transform="translate(-10.5 -100.5)">
        <path id="Rectangle_168" fill="#eee" d="M0 0H250V337H0z" transform="translate(10.5 100.5)"/>
        <g filter="url(#Path_362)" transform="translate(10.5 100.5)">
            <path id="Path_362-2" fill="none" stroke="#fff" stroke-width="4px" d="M7752.326-5387.033c-12.168 9.5-32.272 12.666-36.5 13.193s-63.178-21.542-76.243-6.243-21.017 53.832 0 63.465 42.285-13.033 76.243 20.966 111.782 1.7 108.373-24.933 6.9-71.96 41.553-74.172" transform="translate(-7612.63 5583.43)"/>
        </g>
        <g id="Group_509" transform="translate(71.5 255)">
            <path id="Path_343" d="M60.58 648.734A127.067 127.067 0 0 1 75.456 635.8a88.341 88.341 0 0 1-.809-40.987l-6.3-1.412 14.581-11.342 6.506 16.065-6.36-1.425a78.8 78.8 0 0 0-1.215 26.716q.449 3.671 1.212 7.208a111.122 111.122 0 0 1 55.079-16.879 112.706 112.706 0 0 1 37.7 4.891l2.49-8.006 13.139 20.057-21.468 6.727 2.514-8.084a101.186 101.186 0 0 0-33.976-4.392 98.442 98.442 0 0 0-52.195 16.826c4.707 12.366 12.631 23.309 23.692 32.692l3.548-4.865 5 15.915-17.732 1.545 4.088-5.606a89.644 89.644 0 0 1-25.73-34.456 119.043 119.043 0 0 0-10.132 9.073l5.92 5.1-21.115 4.793-.134-23.1z" class="cls-4" transform="translate(-53.758 -576.789)"/>
            <g id="hand">
                <g id="Group_510" transform="translate(40.018)">
                    <path id="Path_344" d="M95.991 585.3l27.781-7.7s6.313-1.327 8.428 7.2 16.384 62.6 16.384 62.6 2.985 7.153-3.967 9.259-26.953 6.9-26.953 6.9-5.931 2.3-8.181-6.141-17-64.484-17-64.484a6.254 6.254 0 0 1 3.508-7.634z" class="cls-5" transform="translate(-89.97 -576.789)"/>
                    <path id="Path_345" d="M97.687 587.058l27.784-7.7s6.311-1.33 8.425 7.195 16.387 62.612 16.387 62.612 2.983 7.155-3.969 9.259-26.953 6.9-26.953 6.9-5.93 2.3-8.181-6.14-17-64.487-17-64.487a6.25 6.25 0 0 1 3.507-7.639z" class="cls-5" transform="translate(-93.364 -576.789)"/>
                    <path id="Path_346" d="M126.225 589.38l7.626-2.075a.685.685 0 0 0 .484-.881.946.946 0 0 0-.052-.113 1.155 1.155 0 0 0-.011-.121.638.638 0 0 0-.849-.457c-1.366.37-2.715.8-4.08 1.168-.19.051-.378.1-.564.155l-2.966.8a.64.64 0 0 0-.5.825.536.536 0 0 0 .044.086.631.631 0 0 0 .008.106.675.675 0 0 0 .86.507z" class="cls-6" transform="translate(-108.183 -576.789)"/>
                    <path id="Path_347" d="M114.192 590.425a.691.691 0 0 1 1.2.641c-.788 2.655.969 5.745 1.63 8.3.617 2.38 1.32 4.739 1.937 7.113 1.12 4.3 2.5 8.6 3.422 12.963a.774.774 0 0 1 .322.367 70.686 70.686 0 0 1 3.312 12.532c.6 2.923 1.5 5.781 1.949 8.724a.563.563 0 0 1 .25.314c1.026 3.164 1.816 6.4 2.665 9.618.714 2.7.994 5.6 1.924 8.238a.82.82 0 0 1 .307.265c.81 1.146 1.116 2.28 2.28 3.17a7.168 7.168 0 0 0 3.44 1.44.789.789 0 0 1 .421-.136 18.868 18.868 0 0 0 5.621-1.166c1.739-.57 3.678-.675 5.371-1.3a.563.563 0 0 1 .477 1.02c-1.9 1.1-4.494 1.3-6.573 2.071a13.9 13.9 0 0 1-5.051.918.759.759 0 0 1-.342-.09 8.2 8.2 0 0 1-5.36-2.32.513.513 0 0 1-.165-.091 6.692 6.692 0 0 1-2.352-4.513.567.567 0 0 1 .088-.311 39.56 39.56 0 0 1-1.262-5.508c-.622-3.675-2.125-7.2-2.857-10.857-2.313-5.792-3.7-12.161-5.1-18.28-1.912-5.8-3.074-11.874-4.786-17.744-.915-3.142-1.369-6.448-2.477-9.527-.632-1.755-1.433-4.188-.291-5.851z" class="cls-4" transform="translate(-113.184 -576.789)"/>
                    <path id="Path_348" d="M148.921 646.41c-2.365-8.773-4.4-17.638-6.777-26.4L138.339 606c-1.3-4.771-4.776-17.438-6.317-22.138-.013-.037-.163-.036-.181-.066a10.518 10.518 0 0 0-3-5.536 6 6 0 0 0-2.587-1.323 4.395 4.395 0 0 0-2.167-.023.6.6 0 0 0-.3.016c-4.852 1.195-9.671 2.574-14.489 3.9l-7.275 1.995c-1.219.334-2.437.678-3.653 1.02a18.174 18.174 0 0 0-3.7 1.261.322.322 0 0 0-.163.335 7.912 7.912 0 0 0-2.755 3.414 7.461 7.461 0 0 0-.3 3.782c.04.311.144.622.2.954-.016.075.046.14.071.232.034.131.07.26.106.392.135.5.174 1.023.342 1.5l9.089 33.94c1.266 4.665 2.515 9.334 3.782 14 .155.571.305 1.139.457 1.711.4 1.678.814 3.35 1.306 5 .058.2.373.148.316-.052-.686-2.406-1.25-4.833-1.774-7.285-.529-2.468-1.38-4.895-1.989-7.356a.074.074 0 0 0-.12-.036c-1.056-4.256-2.129-8.511-3.261-12.751-1.674-6.263-5.343-20.44-7.115-26.674-.847-2.978-1.162-6.259.689-8.492a7.157 7.157 0 0 1 2.049-2.02 42.752 42.752 0 0 0 6.4-1.6c2.429-.654 4.848-1.3 7.278-1.958 4.945-1.331 9.912-2.608 14.82-4.066a.833.833 0 0 0 .084-.03 13.916 13.916 0 0 1 1.753-.041 4.76 4.76 0 0 1 2.355 1.125 10.2 10.2 0 0 1 2.754 4.532.461.461 0 0 0-.218.522c1.022 4.708 4.5 17.243 5.767 21.892l3.8 14c2.567 9.446 5.224 18.87 7.8 28.315a.463.463 0 0 0 .116.208 7.148 7.148 0 0 1-.249 4.457 5.619 5.619 0 0 1-2.346 2.49 16.346 16.346 0 0 1-1.71.916.438.438 0 0 0-.214-.085 8.368 8.368 0 0 0-3.047.549l-3.24.892c-2.165.6-4.332 1.185-6.492 1.8-4.356 1.248-8.741 2.429-13.063 3.79a.31.31 0 0 0-.166.093 7.041 7.041 0 0 1-4.873-.807 1.607 1.607 0 0 1-.9-.489 13.819 13.819 0 0 1-1.526-1.917c-1.025-2.224-1.36-4.646-2.372-6.857a.2.2 0 0 0-.379.121 22.158 22.158 0 0 0 1.257 4.534 8.076 8.076 0 0 0 3.3 5.357 7.6 7.6 0 0 0 7.134.562.348.348 0 0 0 .21-.283c3.909-.931 7.79-1.985 11.679-2.987 2.176-.56 4.34-1.15 6.51-1.732l3.246-.868a12.157 12.157 0 0 0 2.429-.766 8.019 8.019 0 0 0 5.518-3.609 8.143 8.143 0 0 0-.094-7.35z" class="cls-6" transform="translate(-89.734 -576.789)"/>
                    <path id="Path_349" d="M149.483 655.8a6.487 6.487 0 0 1-1.6 1.323 15.988 15.988 0 0 1-1.711.916.47.47 0 0 0-.213-.086 8.346 8.346 0 0 0-3.047.551l-3.239.892c-2.165.6-4.333 1.184-6.493 1.8-4.355 1.248-8.74 2.428-13.062 3.792a.315.315 0 0 0-.168.092 7.01 7.01 0 0 1-5.015-.889 7.831 7.831 0 0 1-2.99-4.3.486.486 0 0 0 .207-.538c-1.088-4.724-2.484-9.385-3.757-14.063s-2.536-9.33-3.807-14l-8.622-32.527a2.04 2.04 0 0 1-.171-.426c-.266-1-.423-2.04-.777-3.014a1.976 1.976 0 0 1-.122-.649 8.362 8.362 0 0 1-.19-3.069 7.012 7.012 0 0 1 2.83-4.187 6.757 6.757 0 0 1 1.243-1.521 10.9 10.9 0 0 0-1.942.768.322.322 0 0 0-.163.336 7.923 7.923 0 0 0-2.756 3.413 7.493 7.493 0 0 0-.3 3.781c.039.313.144.622.2.955-.015.075.046.143.07.232l.108.393c.134.5.174 1.025.341 1.5l9.088 33.942c1.265 4.666 2.514 9.335 3.783 14 1.279 4.71 2.44 9.472 3.889 14.132a8.246 8.246 0 0 0 3.368 5.67 7.6 7.6 0 0 0 7.134.564.361.361 0 0 0 .21-.282c3.908-.933 7.789-1.987 11.678-2.989 2.175-.56 4.34-1.15 6.511-1.731l3.245-.869a11.948 11.948 0 0 0 2.427-.765 8.017 8.017 0 0 0 5.52-3.61 6.358 6.358 0 0 0 .279-.576 4.248 4.248 0 0 1-1.986 1.039z" class="cls-6" transform="translate(-93.508 -576.789)"/>
                    <path id="Path_350" d="M136.617 606.642c1.165 4.285 2.283 8.586 3.447 12.874 2.367 8.717 4.743 17.437 6.977 26.189a.225.225 0 0 1-.106.271.2.2 0 0 1-.113.174 29.309 29.309 0 0 1-4.075 1.191q-2.216.609-4.433 1.215-4.436 1.218-8.874 2.423c-5.916 1.611-11.846 3.17-17.767 4.758a.252.252 0 0 1-.319-.189.27.27 0 0 1-.011-.062.338.338 0 0 1-.139-.187c-1.351-4.255-2.419-8.621-3.59-12.931q-1.794-6.61-3.591-13.223t-3.6-13.252c-1.133-4.166-4.428-16.22-5.235-20.466a.259.259 0 0 1-.1-.507c.024-.009.049-.018.073-.025a.151.151 0 0 1 .1-.038c2-.7 4.068-1.24 6.129-1.776 5.172-1.494 10.383-2.873 15.593-4.24 4.483-1.215 8.973-2.405 13.461-3.6a.321.321 0 0 1 .4.233.357.357 0 0 1 .028.171 58.081 58.081 0 0 1 1.923 6.656c.596 2.147 3.239 12.191 3.822 14.341zm9.888 39.092c-2.492-8.644-4.819-17.336-7.178-26.019-1.2-4.42-2.443-8.831-3.643-13.254-.584-2.146-3.224-12.19-3.809-14.339a58.653 58.653 0 0 1-1.579-6.152c-4.349 1.206-8.659 2.4-13.012 3.593-5.282 1.482-10.56 2.956-15.872 4.3-1.941.55-3.883 1.1-5.852 1.489 1.5 4.193 4.627 16.428 5.793 20.719 1.2 4.416 2.437 8.826 3.637 13.242s2.466 8.8 3.664 13.213c1.135 4.176 2.217 8.376 3.474 12.545v.011c5.661-1.573 11.461-3.2 17.272-4.777 2.958-.8 5.781-1.582 8.742-2.378l4.439-1.2a32.344 32.344 0 0 1 3.919-.993z" class="cls-6" transform="translate(-90.496 -576.789)"/>
                    <g id="Group_509-2" transform="translate(36.49 74.989)">
                        <path id="Path_351" d="M114.968 655.021a3.833 3.833 0 0 1-3.894 3.946 3.209 3.209 0 0 1-3.215-3.652c.283-1.456 1.05-3.117 2.567-3.267a.193.193 0 0 1 .141-.174 3.782 3.782 0 0 1 4.401 3.147zm-.6-.324a3.655 3.655 0 0 0-3.739-2.394c-3.365.481-2.957 7.342 1.157 6.05 1.468-.459 3.268-1.843 2.585-3.653z" class="cls-6" transform="translate(-107.804 -651.778)"/>
                        <path id="Path_352" d="M113.124 656.232c-.05.325-.514.425-.831.488a4.342 4.342 0 0 1-1.627.387c-.319-.012-.486-.309-.56-.585a9.993 9.993 0 0 0-.288-1.046 1.223 1.223 0 0 1-.149-.688c.087-.4.451-.512.815-.587a.253.253 0 0 1 .043.005 1.859 1.859 0 0 1 .436-.163c.319-.075.615-.208.932-.284.515-.125.652.561.8.888a9.505 9.505 0 0 1 .318.981 1.266 1.266 0 0 1 .111.604zm-.377-.421a9.4 9.4 0 0 0-.384-1.158c-.071-.135-.1-.336-.184-.46-.167-.26-.447-.064-.624 0-.375.13-.8.093-1.117.372a.122.122 0 0 1-.163 0c-.2.09-.367.231-.263.511.061.163.134.324.182.49a4.25 4.25 0 0 0 .309 1.053c.24.387 1.37-.154 1.726-.207.022 0 .038.008.056.011.325-.075.615-.183.462-.612z" class="cls-6" transform="translate(-107.816 -651.778)"/>
                    </g>
                </g>
                <g id="Group_512" transform="translate(71.905 31.733)">
                    <g id="Group_511" transform="translate(1.719)">
                        <path id="Path_354" fill="#ffca9d" d="M65.354 633.206c-.042-2.108 1.268-3.5 2.911-4.47a1.307 1.307 0 0 0 .4.033c2.413-.188 3.872 1.406 5.282 3.074a1.339 1.339 0 0 0 .168.394 60.476 60.476 0 0 0 7.648 9.171 1.2 1.2 0 0 0 .7.384q1.512 1.772 3.142 3.444a1.237 1.237 0 0 0 .651.369l.134.5a1.321 1.321 0 0 0 2.548-.691l-.858-3.162a1.536 1.536 0 0 0-.1-.273 1.216 1.216 0 0 0 .079-.9l-8.308-30.583c.544.382 1.073.772 1.574 1.139a74.943 74.943 0 0 1 6.23 5.073 33.185 33.185 0 0 1 5.291 5.451 10.422 10.422 0 0 1 .824.944 28.44 28.44 0 0 1 1.7 2.561 46.609 46.609 0 0 1 3.132 6.448l.327.819c.123.228.252.454.371.682 1.169 2.221 2.176 4.535 3.284 6.779.641 1.295 1.944 3.152 2 4.789 2.194 4.193 4.455 8.354 6.543 12.6.626 1.275 1.244 2.558 1.842 3.852a2.087 2.087 0 0 1 .437.671 53.488 53.488 0 0 1 2.724 7.355c.024.087.051.174.074.26l.089.34a3.719 3.719 0 0 1 .16 2.076 2.9 2.9 0 0 1-.195.676 2.352 2.352 0 0 1-1.047 1.173 3.224 3.224 0 0 1-1.76 3.5c-1.152.62-2.32.058-3.242-.806a2.775 2.775 0 0 1-.192.223 4.826 4.826 0 0 1-.339 2.154 2.576 2.576 0 0 1-2.655 1.5 3.618 3.618 0 0 1-2.264-1.008c-.041.055-.081.1-.126.156a3.022 3.022 0 0 1-.9 1.928.519.519 0 0 0-.056-.018c-.687-.074-1.375-.125-2.063-.168-2.216-1.653-4.841-2.51-7.127-4.126-2.9-2.05-6.06-3.828-8.235-6.72-2.815-3.744-4.326-8.737-7.682-12.054a1.3 1.3 0 0 0-.789-2.039 1.347 1.347 0 0 0-.314-1.023c-1.432-1.745-2.837-3.523-4.159-5.358-2.131-3.53-4.106-7.164-5.955-10.829a14.9 14.9 0 0 1-1.899-6.29z" transform="translate(-63.933 -608.522)"/>
                        <path id="Path_355" d="M97.126 631.757c-.01-.078-.022-.153-.031-.231a11.226 11.226 0 0 0-.832-2.945z" class="cls-6" transform="translate(-75.533 -608.522)"/>
                        <path id="Path_356" d="M88.419 691.988a6.743 6.743 0 0 1-2.067-2.212c-.4-.851-.738-1.721-1.187-2.549-.2-.365-.787-.134-.6.253.5 1.051.846 2.16 1.307 3.226.45 1.044.55 1.9 1.5 2.648.872.699 1.878-.639 1.047-1.366z" class="cls-6" transform="translate(-55.402 -608.522)"/>
                        <path id="Path_357" d="M57.637 683.232l-.008.017a1.442 1.442 0 0 0 .127-.761 1.712 1.712 0 0 0-.333-.793 3.038 3.038 0 0 0-.573-.659 1.411 1.411 0 0 0-1.74 2.222c.026.033.056.063.083.1a1.547 1.547 0 0 0 1.025.655 1.476 1.476 0 0 0 1.033-.275 1.037 1.037 0 0 0 .359-.456l.016-.03a.086.086 0 0 0 .011-.02z" class="cls-6" transform="translate(5.51 -608.522)"/>
                        <path id="Path_358" d="M93.08 628.8c.345.05.568.541.237.771-4.3 2.994.966 9.986 2.934 12.617 3.042 4.071 6.559 7.855 8.534 12.6a1.425 1.425 0 0 1 .113.511 55.725 55.725 0 0 1 3.626 7.582 37.167 37.167 0 0 0 7.446 11.514.929.929 0 0 1-1.245 1.348c-7.062-5.214-9.875-13.412-13.418-21.167-.011-.025-.016-.05-.025-.075-2.106-2.565-3.741-5.767-5.521-8.481-1.866-2.85-3.892-5.368-5.223-8.536-.91-2.168-1.311-9.231 2.542-8.684z" class="cls-4" transform="translate(-88.266 -608.522)"/>
                        <path id="Path_359" d="M98.032 643.7c-2.479-10.091-5.945-19.925-7.944-30.136a3.333 3.333 0 0 1 .3-.889 1.049 1.049 0 0 1 2.009.394 2.09 2.09 0 0 1 1.218.413 1.6 1.6 0 0 1 .961.412 6.835 6.835 0 0 1 .977 1.23 12.619 12.619 0 0 0 2.91 1.94 1.619 1.619 0 0 1 .893 1.551 3.4 3.4 0 0 1 1.5 1.026.617.617 0 0 1-.687.967c-4.256-1.947-3.816 5.013-3.037 10.316a53.185 53.185 0 0 1 2.514 12.1.908.908 0 0 1-1.578.728c-.014-.021-.022-.039-.036-.052z" class="cls-4" transform="translate(-73.228 -608.522)"/>
                        <path id="Path_360" d="M117.832 678.228a1.8 1.8 0 0 1-2.474 1.881 6.368 6.368 0 0 1-2.249-1.832 8.735 8.735 0 0 0-1.934-1.474c-.136-.1-.274-.186-.41-.278-.061-.014-.167-.046-.322-.1a3.36 3.36 0 0 0-.933-.244 3.425 3.425 0 0 1-.352.045c-.071.053-.145.107-.227.158a12.137 12.137 0 0 0-1.643.911 3.454 3.454 0 0 1-1.631 1.046 9.319 9.319 0 0 0-1.4.712 21 21 0 0 1-2.042.761 6.265 6.265 0 0 0-1.669.516 6.558 6.558 0 0 1-3.6 1.553c-1.537.075-2.918.842-4.455 1.019-1.657.189-3.258.489-4.9.777a9.058 9.058 0 0 0-1.933.21c-.581.266-1.193.451-1.771.713-.453.2-.8.246-1.066.659a6.58 6.58 0 0 0-.837 1.355 1.2 1.2 0 0 0 .09.508c.332.7 1.288 1 1.7 1.729a19.393 19.393 0 0 1 .965 2.539 9.325 9.325 0 0 1 .663 2.744c.149.287.224.614.387.908a4.465 4.465 0 0 0 1.368 1.239c1.321.821 0 3.1-1.372 2.353-1.332-.724-1.07-1.866-1.6-2.919-.118-.134-.176-.214-.175-.249a1.07 1.07 0 0 1-.254-.145c-.3-.227-.322-.519-.485-.84a13.675 13.675 0 0 0-1.464-2.308c-.914-1.142-2.671-2.224-2.685-3.888a6.042 6.042 0 0 1 .637-2.645 6.393 6.393 0 0 1 1.631-3.083 1.112 1.112 0 0 1-.441-.189c-2.864-2.047-4.2-5.47-6.579-8a38.426 38.426 0 0 1-2.441-3.579c-.919-1.233-1.736-2.565-2.577-3.857-1.428-2.189-2.758-4.753-4.434-6.513l2.314-.629c.077-.021.132-.1.2-.131.021.026.032 0 .053.03.793.984 1.5 2.007 2.186 3.05.533.647 1.059 1.295 1.567 1.978a.658.658 0 0 1 .138.424 13.228 13.228 0 0 1 1.577 2.232c.362.667.712 1.325 1.072 1.974.176.272.35.542.52.815a32.692 32.692 0 0 0 2.415 3.378c.968 1.212 1.925 2.406 2.772 3.711a38.85 38.85 0 0 0 2.836 3.487 1.118 1.118 0 0 1 .24.5q.32-.249.646-.473c1.324-.9 2.946-1.045 4.474-1.415a28.654 28.654 0 0 1-11.338-8.3 46.77 46.77 0 0 1-2.742-4.368 18.319 18.319 0 0 1-2.027-4.294 22.373 22.373 0 0 0-1.71-4.127c-.075-.138-.149-.275-.224-.41a.573.573 0 0 1-.487-.256c-1.3-1.89-2.475-3.851-3.683-5.794-.039-.006-.074-.022-.112-.03q-.122-.186-.242-.374a1.3 1.3 0 0 0-.17-.712c-1.815-3.257-3.9-6.348-5.964-9.451a1.435 1.435 0 0 0-.217-.255c-.244-.372-.49-.741-.742-1.107a1.5 1.5 0 0 0-.224-.253c-.067-.107-.135-.217-.2-.325a19.921 19.921 0 0 1-1.217-2.607 5.944 5.944 0 0 1 .491-5.911 5.721 5.721 0 0 1 1.922-2.244 6.9 6.9 0 0 1 2.759-.782c2.084-.206 3.787 2.652 4.953 3.944a27.976 27.976 0 0 1 2.53 2.989c.712 1.069 1.357 2.2 2.128 3.224a23.129 23.129 0 0 0 2.741 3.024 10.187 10.187 0 0 1 1.141 1.278c.755.512 1.218 1.294 2.011 1.823 1.036.688 1.973 1.489 3.027 2.145l.1.057a7.026 7.026 0 0 1 .064-1.449l-.021-.1a.308.308 0 0 1 .027-.547c-.158-.352-.324-.7-.508-1.043a1.248 1.248 0 0 0 .017-.445c-.216-.532-.441-1.057-.677-1.584a4.172 4.172 0 0 1-.6-2.04.271.271 0 0 1 .5-.138 5.367 5.367 0 0 1 .845 1.877l-.656-2.411a21.876 21.876 0 0 0 1.257 3.132 10.319 10.319 0 0 1 .79 2.175c.05.24.082.567.129.894a2 2 0 0 1 .261.37c.227.431.4.9.611 1.342a2.81 2.81 0 0 1 .374 1.283.593.593 0 0 1-.025.146 3.89 3.89 0 0 1 .747.791 25.453 25.453 0 0 0 2.439 2.683c.466.505-.286 1.106-.789.791-.568-.356-1.009-.857-1.562-1.23a5.26 5.26 0 0 1-1.177-.9 13.742 13.742 0 0 0-3.2-2.28 27.438 27.438 0 0 1-2.567-2.145 7.866 7.866 0 0 1-1.1-1.369.524.524 0 0 1-.65-.188 12.213 12.213 0 0 0-2.578-2.842 10.41 10.41 0 0 1-1.682-2c-.7-.927-1.327-1.91-1.944-2.891a26.287 26.287 0 0 0-1.818-2.238c-.366-.469-.768-.9-1.173-1.336a7.684 7.684 0 0 1-2.648 2.216 2.7 2.7 0 0 1-1.246.487c-.443.03-.344-.12-.627-.133a.428.428 0 0 1-.354-.284.412.412 0 0 1-.26-.323c-.1-.767-.713-1.251-.731-2.071a2.3 2.3 0 0 1 .333-1.418 3.669 3.669 0 0 1 2.279-1.7 1.292 1.292 0 0 0-1.056-.018c-.8.361-1.841.474-2.191 1.439a14.717 14.717 0 0 0-1.024 2.648c-.326 2.06 1.343 4.395 2.265 6.132.587 1.1 1.4 2.055 2.066 3.109.543.85.972 1.782 1.492 2.65 1.739 2.906 3.33 5.885 4.955 8.851a21.508 21.508 0 0 1 4.238 6.824 32.629 32.629 0 0 0 4.369 8.238 27.565 27.565 0 0 0 7.48 6.577 33.637 33.637 0 0 0 6.595 2.9 15 15 0 0 0 1.579-.38 9.63 9.63 0 0 1 2.733-.66 4.036 4.036 0 0 0 1.6-.207 7.9 7.9 0 0 1 2.046-.826 12.521 12.521 0 0 0 2.036-.229c.821-.255 1.543-.67 2.331-.975a5 5 0 0 1 .757-.238 1.824 1.824 0 0 1 .261-.189 9.728 9.728 0 0 1 1.7-.988c.34-.182.629-.409.947-.6-.048-.45-.1-.9-.147-1.349a21.456 21.456 0 0 0-.6-3.833c-.232-.779-.417-1.6-.573-2.408a18.442 18.442 0 0 1-1.233-2.975c-.414-.789-.818-1.583-1.174-2.4-.592-1.159-1.2-2.31-1.8-3.466l-.027-.056c-.159-.241-.312-.483-.453-.731a.823.823 0 0 1-.217-.267c-1.41-2.664-2.63-5.424-3.929-8.144-.168-.3-.342-.6-.527-.881-.915-1.425-1.654-3.03-2.44-4.528-.876-1.675-1.733-3.34-2.643-5a73.721 73.721 0 0 1-3.545-7.456c-.711-1.208-1.353-2.454-1.984-3.717a30.745 30.745 0 0 0-4.065-6.187 39.128 39.128 0 0 0-8.885-7.327 6.93 6.93 0 0 0-.2 1.5c-.022.646.126 1.283.053 1.922a.524.524 0 0 1-.965.263 2.266 2.266 0 0 1-.234-.479.6.6 0 0 1-.316-.4 7.231 7.231 0 0 1-.029-3.6.625.625 0 0 1 .351-.442l-.788-2.9a2.107 2.107 0 0 1 .865.541c1.33.928 2.84 1.588 4.174 2.5 1.272.869 2.485 1.826 3.777 2.667.5.327 1.007.653 1.529.949.809.758 1.61 1.524 2.451 2.24a.654.654 0 0 1-.175.123 6.574 6.574 0 0 1 .572.7c.385.557.8 1.1 1.2 1.645.354.449.7.9 1.03 1.37a44.346 44.346 0 0 1 5.175 10.375c.716 1.6 1.529 3.183 2.379 4.718 1.764 3.177 3.3 6.478 5.119 9.625 1.022 1.762 1.88 3.684 2.766 5.521.791 1.636 1.472 3.323 2.173 5 .006.015.014.029.018.043a4.023 4.023 0 0 1 .213.4c.062.141.122.287.179.432a1.14 1.14 0 0 1 .467.492c1.791 3.469 4 6.806 4.743 10.7a12.639 12.639 0 0 1 .16 4.357c.117-.016.231-.03.337-.049a3.627 3.627 0 0 1 3.047.383c1.986 1.187 3.885 2.496 4.312 4.981zm-54.825-48.452a2.785 2.785 0 0 0-2.419 2.064 4.315 4.315 0 0 0 .7 2.233.454.454 0 0 1 .233.117.418.418 0 0 1 .323.092c.179.153.908-.475 1.062-.585a12.128 12.128 0 0 0 1.367-1.063 4.343 4.343 0 0 1 .876-.754c-.231-.254-.46-.509-.676-.777a8.6 8.6 0 0 0-1.333-1.4.221.221 0 0 1-.133.073z" class="cls-6" transform="translate(-56.075 -608.522)"/>
                    </g>
                    <path xmlns="http://www.w3.org/2000/svg" id="Path_353" d="M91.19 627.924a.6.6 0 0 1-.112 1.153l-.03.01a.479.479 0 0 1-.184.294c-5.021 3.972 1.888 10.461 4.077 14.062 2.35 3.872 4.211 8.842 7.31 12.127a1.7 1.7 0 0 1-1.2 2.816c.054.087.1.182.143.274a3.232 3.232 0 0 1 .756 1.424 12.024 12.024 0 0 1 .158 2.681 41.235 41.235 0 0 1 3.014 4.389 25.424 25.424 0 0 0 2.58 3.876 7.915 7.915 0 0 1 1.95 3.236c1.13.554 2.145 1.266 3.222 1.92.574.35 1.19.616 1.742 1a9.529 9.529 0 0 0 1.035.544c.169.091 1.126.438.4.324a1.149 1.149 0 0 1 .812 1.789 2.112 2.112 0 0 1-2.076.791c.633.4-2.132 1.7-1.757 1.684-.038-.062-.074-.116-.113-.184-.159-.131-.307-.279-.454-.425a6.57 6.57 0 0 1-3.328-2.114 10.474 10.474 0 0 1-2.606-3.3 16.639 16.639 0 0 1-4.688-5.578 33.386 33.386 0 0 1-2.414-6.142 2.133 2.133 0 0 1-1.145-1.368 2.557 2.557 0 0 1-2.729-.626 2.239 2.239 0 0 1-.11-2.7 2.872 2.872 0 0 1 1.569-1.018c-.025-.022-.054-.036-.079-.061-2.67-2.7-4.8-6.05-7-9.142-2.27-3.194-5.449-6.758-6.427-10.648-1.071-4.245 1.407-13.795 7.684-11.088z" transform="translate(-80.358 -605.789)" style="mix-blend-mode:multiply;isolation:isolate" fill="#ffca9d"/>
                    <path id="Path_361" d="M91.19 627.924a.6.6 0 0 1-.112 1.153l-.03.01a.479.479 0 0 1-.184.294c-5.021 3.972 1.888 10.461 4.077 14.062 2.35 3.872 4.211 8.842 7.31 12.127a1.7 1.7 0 0 1-1.2 2.816c.054.087.1.182.143.274a3.232 3.232 0 0 1 .756 1.424 12.024 12.024 0 0 1 .158 2.681 41.235 41.235 0 0 1 3.014 4.389 25.424 25.424 0 0 0 2.58 3.876 7.915 7.915 0 0 1 1.95 3.236c1.13.554 2.145 1.266 3.222 1.92.574.35 1.19.616 1.742 1a9.529 9.529 0 0 0 1.035.544c.169.091 1.126.438.4.324a1.149 1.149 0 0 1 .812 1.789 2.112 2.112 0 0 1-2.076.791 5.886 5.886 0 0 1 1.654 1.48 1.244 1.244 0 0 1 .21 1.24c-1.535 3.184-.321 5.883 1.622 8.715 1.063 1.551 1.94 3.116.69 4.768a1.543 1.543 0 0 1-1.43.648c-2.608-.568-4.835-4.257-6.024-6.458-1.33-2.46-2.094-6.3.433-8.31a1.835 1.835 0 0 1 1.088-.4c-.038-.062-.074-.116-.113-.184-.159-.131-.307-.279-.454-.425a6.57 6.57 0 0 1-3.328-2.114 10.474 10.474 0 0 1-2.606-3.3 16.639 16.639 0 0 1-4.688-5.578 33.386 33.386 0 0 1-2.414-6.142 2.133 2.133 0 0 1-1.145-1.368 2.557 2.557 0 0 1-2.729-.626 2.239 2.239 0 0 1-.11-2.7 2.872 2.872 0 0 1 1.569-1.018c-.025-.022-.054-.036-.079-.061-2.67-2.7-4.8-6.05-7-9.142-2.27-3.194-5.449-6.758-6.427-10.648-1.071-4.244 1.407-13.794 7.684-11.087z" class="cls-4" transform="translate(-83.263 -608.522)"/>
                </g>
            </g>
        </g>

        
    </g>
</svg>
